G04 ================== begin FILE IDENTIFICATION RECORD ==================*
G04 Layout Name:  U:/Project/48DMVQAD1.SGB/BRD/48DMVQAD1_SGB-20250729a4.brd*
G04 Film Name:    g2*
G04 File Format:  Gerber RS274X*
G04 File Origin:  Cadence Allegro 17.4-S029*
G04 Origin Date:  Tue Jul 29 17:18:17 2025*
G04 *
G04 Layer:  DRAWING FORMAT/TITLE_DATA_G2*
G04 Layer:  DRAWING FORMAT/TITLE_BLOCK*
G04 Layer:  DRAWING FORMAT/OUTLINE*
G04 Layer:  ETCH/G2*
G04 Layer:  MANUFACTURING/PHOTOPLOT_OUTLINE*
G04 Layer:  PIN/G2*
G04 Layer:  VIA CLASS/G2*
G04 *
G04 Offset:    (0.0000 0.0000)*
G04 Mirror:    No*
G04 Mode:      Positive*
G04 Rotation:  0*
G04 FullContactRelief:  No*
G04 UndefLineWidth:     0.1270*
G04 ================== end FILE IDENTIFICATION RECORD ====================*
%FSLAX44Y44*MOMM*%
%IR0*IPPOS*OFA0.00000B0.00000*MIA0B0*SFA1.00000B1.00000*%
%ADD10C,.2*%
%ADD19C,.5*%
%ADD14C,.8*%
%ADD11C,.4064*%
%ADD20R,.3048X.3048*%
%ADD16O,1.X2.1*%
%ADD17O,1.4X1.1*%
%ADD18O,1.2X2.7*%
%ADD12C,3.2*%
%ADD13C,1.8*%
%ADD15C,1.96*%
%ADD21R,.3048X.5588*%
%ADD22C,.1*%
%ADD23C,.203*%
%ADD24C,.2032*%
%ADD25C,.1905*%
%ADD26C,.066*%
%ADD27C,.0508*%
%ADD28C,.0635*%
%ADD38C,.3004*%
%ADD42C,.3606*%
%ADD39C,.4544*%
%ADD40C,.6608*%
%ADD35C,2.0604*%
%ADD36C,2.1128*%
%ADD37C,2.0544*%
%ADD41C,1.3084*%
%ADD32R,.8132X.3052*%
%ADD31R,3.9404X3.1604*%
%ADD34C,3.7084*%
%ADD33R,.6754X.7004*%
%ADD29O,1.4544X2.9544*%
%ADD30O,.4544X.9878*%
G75*
%LPD*%
G75*
G36*
G01X220082Y680720D02*
X523400D01*
G02X528320Y675800I-4J-4924D01*
G01Y42743D01*
X516057Y30480D01*
X401757D01*
X376357Y5080D01*
X52903D01*
X27503Y30480D01*
X10000D01*
G02X5080Y35400I3J4923D01*
G01Y640798D01*
X220082D01*
Y680720D01*
G37*
%LPC*%
G75*
G36*
G01X408479Y143883D02*
X408662Y144066D01*
G02X409730Y144508I1068J-1069D01*
G01X413625D01*
G02X414693Y144066I0J-1511D01*
G01X417118Y141640D01*
X433561D01*
G02Y138620I0J-1510D01*
G01X416493D01*
G02X415425Y139062I0J1511D01*
G01X413000Y141488D01*
X410270D01*
X410218Y141462D01*
G02X409547Y141305I-670J1353D01*
G02X408037Y142815I0J1510D01*
G02X408479Y143883I1511J0D01*
G37*
G36*
G01X390224Y119299D02*
X379564D01*
G02Y122349I0J1525D01*
G01X390224D01*
G02Y119299I0J-1525D01*
G37*
G36*
G01X40727Y45737D02*
G03X41063Y46363I-129J473D01*
G02X40896Y47400I3136J1037D01*
G02X47504I3304J0D01*
G02X45073Y44213I-3305J0D01*
G03X44737Y43587I129J-473D01*
G02X44904Y42550I-3136J-1037D01*
G02X38296I-3304J0D01*
G02X40727Y45737I3305J0D01*
G37*
G36*
G01X181815Y46579D02*
G03X181542Y46754I-236J-67D01*
G02X181200Y46728I-343J2246D01*
G02Y51272I0J2272D01*
G02X183385Y49621I0J-2271D01*
G03X183658Y49446I236J67D01*
G02X184000Y49472I343J-2246D01*
G02X185386Y49000I0J-2271D01*
G03X185707Y49020I149J195D01*
G02X187300Y49672I1593J-1620D01*
G02Y45128I0J-2272D01*
G02X185914Y45600I0J2271D01*
G03X185593Y45580I-149J-195D01*
G02X184000Y44928I-1593J1620D01*
G02X181815Y46579I0J2271D01*
G37*
G36*
G01X98227Y55351D02*
G03X97980Y56050I-426J243D01*
G02X96534Y58166I825J2116D01*
G02X101078I2272J0D01*
G02X100782Y57044I-2272J-1D01*
G03X101029Y56345I426J-243D01*
G02X102475Y54229I-825J-2116D01*
G02X97931I-2272J0D01*
G02X98227Y55351I2272J1D01*
G37*
G36*
G01X117217Y57133D02*
G03X117713Y57763I27J489D01*
G02X117616Y58420I2175J657D01*
G02X119888Y56148I2272J0D01*
G02X119765Y56151I-6J2272D01*
G03X119269Y55521I-27J-489D01*
G02X119366Y54864I-2175J-657D01*
G02X117094Y57136I-2272J0D01*
G02X117217Y57133I6J-2272D01*
G37*
G36*
G01X40573Y71976D02*
G03X40606Y72809I-241J427D01*
G02X39146Y75550I1843J2741D01*
G02X45754I3304J0D01*
G02X44077Y72674I-3305J0D01*
G03X44044Y71841I241J-427D01*
G02X45504Y69100I-1843J-2741D01*
G02X44553Y66781I-3303J0D01*
G03X44592Y66057I349J-344D01*
G02X45804Y63500I-2091J-2557D01*
G02X39196I-3304J0D01*
G02X40147Y65819I3303J0D01*
G03X40108Y66543I-349J344D01*
G02X38896Y69100I2091J2557D01*
G02X40573Y71976I3305J0D01*
G37*
G36*
G01X378998Y111002D02*
G02X380500Y112502I1502J-2D01*
G02X382002Y111000I0J-1502D01*
G02X380502Y109498I-1502J0D01*
G02X379000Y107998I-1502J2D01*
G02X377498Y109500I0J1502D01*
G02X378998Y111002I1502J0D01*
G37*
G36*
G01X341011Y118110D02*
G03X341500Y118575I0J490D01*
G02X343000Y120002I1500J-75D01*
G02X344502Y118500I0J-1502D01*
G02X343561Y117107I-1502J0D01*
G01X343408Y117045D01*
Y88138D01*
X317500D01*
Y118110D01*
X341011D01*
G37*
G36*
G01X459015Y135540D02*
G02X458746Y136398I1234J858D01*
G02X459142Y137414I1501J0D01*
G02X458746Y138430I1105J1016D01*
G02X461750I1502J0D01*
G02X461354Y137414I-1501J0D01*
G02X461750Y136398I-1105J-1016D01*
G02X461263Y135290I-1502J-1D01*
G03X461227Y134970I165J-181D01*
G02X461496Y134112I-1234J-858D01*
G02X461424Y133652I-1502J-1D01*
G03X461531Y133367I233J-75D01*
G02Y130793I-776J-1287D01*
G03X461424Y130508I126J-210D01*
G02X461496Y130048I-1430J-459D01*
G02X461100Y129032I-1501J0D01*
G02Y127000I-1105J-1016D01*
G02X461496Y125984I-1105J-1016D01*
G02X461451Y125621I-1502J2D01*
G03X461594Y125336I238J-59D01*
G02X462512Y123952I-584J-1384D01*
G02X461456Y122518I-1502J0D01*
G02X461496Y122174I-1462J-344D01*
G02X461130Y121191I-1503J0D01*
G03Y120871I185J-160D01*
G02Y118905I-1137J-983D01*
G03Y118585I185J-160D01*
G02X461496Y117602I-1137J-983D01*
G02X458492I-1502J0D01*
G02X458858Y118585I1503J0D01*
G03Y118905I-185J160D01*
G02Y120871I1137J983D01*
G03Y121191I-185J160D01*
G02X458492Y122174I1137J983D01*
G02X459548Y123608I1502J0D01*
G02X459508Y123952I1462J344D01*
G02X459553Y124315I1502J-2D01*
G03X459410Y124600I-238J59D01*
G02X458492Y125984I584J1384D01*
G02X458888Y127000I1501J0D01*
G02Y129032I1105J1016D01*
G02X458492Y130048I1105J1016D01*
G02X459219Y131335I1503J0D01*
G03X459326Y131620I-126J210D01*
G02X459254Y132080I1430J459D01*
G02X459326Y132540I1502J1D01*
G03X459219Y132825I-233J75D01*
G02X458492Y134112I776J1287D01*
G02X458979Y135220I1502J1D01*
G03X459015Y135540I-165J181D01*
G37*
G36*
G01X456062Y155580D02*
G03Y156220I-371J320D01*
G02X455698Y157200I1137J980D01*
G02X457200Y158702I1502J0D01*
G02X458143Y158369I0J-1502D01*
G03X458757I307J382D01*
G02X459700Y158702I943J-1169D01*
G02X460699Y158322I0J-1503D01*
G03X461007Y158308I163J183D01*
G02X461900Y158602I893J-1209D01*
G02X462932Y158192I1J-1502D01*
G03X463268I168J178D01*
G02X464300Y158602I1031J-1092D01*
G02X465802Y157100I0J-1502D01*
G02X465430Y156111I-1501J0D01*
G03X465406Y155496I369J-322D01*
G02X465702Y154600I-1206J-895D01*
G02X465408Y153707I-1503J0D01*
G03X465422Y153399I197J-145D01*
G02X465802Y152400I-1123J-999D01*
G02X464300Y150898I-1502J0D01*
G02X463268Y151308I-1J1502D01*
G03X462932I-168J-178D01*
G02X461900Y150898I-1031J1092D01*
G02X460901Y151278I0J1503D01*
G02X459800Y150798I-1101J1023D01*
G02X458857Y151131I0J1502D01*
G03X458243I-307J-382D01*
G02X457300Y150798I-943J1169D01*
G02X455798Y152300I0J1502D01*
G02X456128Y153240I1502J1D01*
G03X456114Y153562I-191J153D01*
G02X455698Y154600I1087J1038D01*
G02X456062Y155580I1501J0D01*
G37*
G36*
G01X29731Y142301D02*
G03X29068Y142805I-488J47D01*
G02X25400Y142128I-3667J9595D01*
G02X35672Y152400I0J10272D01*
G02X33435Y146000I-10272J-1D01*
G03X33715Y145216I383J-305D01*
G02X36324Y141986I-695J-3230D01*
G02X35795Y140192I-3304J-1D01*
G03X35959Y139504I411J-265D01*
G02X37594Y136652I-1670J-2852D01*
G02X34409Y133350I-3304J0D01*
G03X34015Y132594I17J-490D01*
G02X35672Y127000I-8614J-5594D01*
G02X25400Y137272I-10272J0D01*
G02X30268Y136045I0J-10272D01*
G03X30990Y136499I232J432D01*
G02X30986Y136652I3300J163D01*
G02X31515Y138446I3304J1D01*
G03X31351Y139134I-411J265D01*
G02X29716Y141986I1670J2852D01*
G02X29731Y142301I3304J1D01*
G37*
G36*
G01X284909Y167504D02*
G03X285221I156J189D01*
G02X287135I957J-1159D01*
G03X287447I156J189D01*
G02X288404Y167848I957J-1159D01*
G02X289906Y166346I0J-1502D01*
G02X289562Y165389I-1503J0D01*
G03Y165077I189J-156D01*
G02X289906Y164120I-1159J-957D01*
G02X288404Y162618I-1502J0D01*
G02X287447Y162962I0J1503D01*
G03X287135I-156J-189D01*
G02X285221I-957J1159D01*
G03X284909I-156J-189D01*
G02X283952Y162618I-957J1159D01*
G02X282450Y164120I0J1502D01*
G02X282794Y165077I1503J0D01*
G03Y165389I-189J156D01*
G02X282450Y166346I1159J957D01*
G02X283952Y167848I1502J0D01*
G02X284909Y167504I0J-1503D01*
G37*
G36*
G01X292970Y165713D02*
G03Y166025I-189J156D01*
G02X292626Y166982I1159J957D01*
G02X295630I1502J0D01*
G02X295286Y166025I-1503J0D01*
G03Y165713I189J-156D01*
G02X295630Y164756I-1159J-957D01*
G02X292626I-1502J0D01*
G02X292970Y165713I1503J0D01*
G37*
G36*
G01Y174935D02*
G03Y175247I-189J156D01*
G02X292626Y176204I1159J957D01*
G02X295630I1502J0D01*
G02X295286Y175247I-1503J0D01*
G03Y174935I189J-156D01*
G02X295630Y173978I-1159J-957D01*
G02X292626I-1502J0D01*
G02X292970Y174935I1503J0D01*
G37*
G36*
G01X284909Y177680D02*
G03X285221I156J189D01*
G02X287135I957J-1159D01*
G03X287447I156J189D01*
G02X288404Y178024I957J-1159D01*
G02X289906Y176522I0J-1502D01*
G02X289560Y175563I-1502J0D01*
G03Y174937I377J-313D01*
G02X289906Y173978I-1156J-959D01*
G02X288404Y172476I-1502J0D01*
G02X287447Y172820I0J1503D01*
G03X287135I-156J-189D01*
G02X285221I-957J1159D01*
G03X284909I-156J-189D01*
G02X283952Y172476I-957J1159D01*
G02X282450Y173978I0J1502D01*
G02X282796Y174937I1502J0D01*
G03Y175563I-377J313D01*
G02X282450Y176522I1156J959D01*
G02X283952Y178024I1502J0D01*
G02X284909Y177680I0J-1503D01*
G37*
G36*
G01X210906Y176528D02*
X207322D01*
G02X205900Y176028I-1422J1772D01*
G02Y180572I0J2272D01*
G02X207322Y180072I0J-2272D01*
G01X211640D01*
G02X212893Y179553I0J-1772D01*
G01X219753Y172693D01*
G02X220272Y171440I-1253J-1253D01*
G01Y89226D01*
G02X216728I-1772J0D01*
G01Y170706D01*
X210906Y176528D01*
G37*
G36*
G01X254551Y178464D02*
G03X254575Y179202I-310J379D01*
G02X254098Y180300I1025J1098D01*
G02X257102I1502J0D01*
G02X256549Y179136I-1502J0D01*
G03X256525Y178398I310J-379D01*
G02X257002Y177300I-1025J-1098D01*
G02X253998I-1502J0D01*
G02X254551Y178464I1502J0D01*
G37*
G36*
G01X327921Y189259D02*
G02X328676Y189462I754J-1299D01*
G02Y186458I0J-1502D01*
G02X327399Y187169I0J1502D01*
G02X326644Y186966I-754J1299D01*
G02Y189970I0J1502D01*
G02X327921Y189259I0J-1502D01*
G37*
G36*
G01X107311Y190617D02*
Y199435D01*
G02X106811Y200857I1772J1422D01*
G02X111355I2272J0D01*
G02X110855Y199435I-2272J0D01*
G01Y191351D01*
X121650Y180556D01*
G02X122169Y179303I-1253J-1253D01*
G01Y169965D01*
G02X122669Y168543I-1772J-1422D01*
G02X118125I-2272J0D01*
G02X118625Y169965I2272J0D01*
G01Y178569D01*
X107830Y189364D01*
G02X107311Y190617I1253J1253D01*
G37*
G36*
G01X147311Y160279D02*
Y199435D01*
G02X146811Y200857I1772J1422D01*
G02X151355I2272J0D01*
G02X150855Y199435I-2272J0D01*
G01Y160279D01*
G02Y157435I-1772J-1422D01*
G01Y138591D01*
X160643Y128803D01*
X160723Y128791D01*
G02X162669Y126543I-325J-2248D01*
G02X160397Y124271I-2272J0D01*
G02X158149Y126217I0J2271D01*
G01X158137Y126297D01*
X147830Y136604D01*
G02X147311Y137857I1253J1253D01*
G01Y157435D01*
G02Y160279I1772J1422D01*
G37*
G36*
G01X385342Y200235D02*
G03X385164Y200484I-244J13D01*
G02X384070Y201930I409J1446D01*
G02X387074I1502J0D01*
G02X387072Y201847I-1502J-5D01*
G03X387250Y201598I244J-13D01*
G02X388344Y200152I-409J-1446D01*
G02X385340I-1502J0D01*
G02X385342Y200235I1502J5D01*
G37*
G36*
G01X292593Y204202D02*
G03X292905I156J189D01*
G02X294819I957J-1159D01*
G03X295131I156J189D01*
G02X296088Y204546I957J-1159D01*
G02X297590Y203044I0J-1502D01*
G02X297246Y202087I-1503J0D01*
G03Y201775I189J-156D01*
G02X297590Y200818I-1159J-957D01*
G02X296088Y199316I-1502J0D01*
G02X295131Y199660I0J1503D01*
G03X294819I-156J-189D01*
G02X292905I-957J1159D01*
G03X292593I-156J-189D01*
G02X291636Y199316I-957J1159D01*
G02X290134Y200818I0J1502D01*
G02X290478Y201775I1503J0D01*
G03Y202087I-189J156D01*
G02X290134Y203044I1159J957D01*
G02X291636Y204546I1502J0D01*
G02X292593Y204202I0J-1503D01*
G37*
G36*
G01X300654Y202411D02*
G03Y202723I-189J156D01*
G02X300310Y203680I1159J957D01*
G02X303314I1502J0D01*
G02X302970Y202723I-1503J0D01*
G03Y202411I189J-156D01*
G02X303314Y201454I-1159J-957D01*
G02X300310I-1502J0D01*
G02X300654Y202411I1503J0D01*
G37*
G36*
G01X300336Y210679D02*
G03Y210991I-189J156D01*
G02X299992Y211948I1159J957D01*
G02X302996I1502J0D01*
G02X302652Y210991I-1503J0D01*
G03Y210679I189J-156D01*
G02X302996Y209722I-1159J-957D01*
G02X299992I-1502J0D01*
G02X300336Y210679I1503J0D01*
G37*
G36*
G01X293785Y211205D02*
G03X294333Y211830I79J484D01*
G02X294268Y212266I1437J437D01*
G02X297272I1502J0D01*
G02X296926Y211307I-1502J0D01*
G03Y210681I377J-313D01*
G02X297272Y209722I-1156J-959D01*
G02X295770Y208220I-1502J0D01*
G02X294813Y208564I0J1503D01*
G03X294501I-156J-189D01*
G02X292587I-957J1159D01*
G03X292275I-156J-189D01*
G02X291318Y208220I-957J1159D01*
G02Y211224I0J1502D01*
G02X292275Y210880I0J-1503D01*
G03X292587I156J189D01*
G02X293544Y211224I957J-1159D01*
G02X293785Y211205I3J-1502D01*
G37*
G36*
G01X349063Y213166D02*
G03X349069Y213469I-190J155D01*
G02X348764Y214376I1196J907D01*
G02X351768I1502J0D01*
G02X351431Y213428I-1502J0D01*
G03X351425Y213125I190J-155D01*
G02X351730Y212218I-1196J-907D01*
G02X351386Y211261I-1503J0D01*
G03Y210949I189J-156D01*
G02Y209035I-1159J-957D01*
G03Y208723I189J-156D01*
G02Y206809I-1159J-957D01*
G03Y206497I189J-156D01*
G02Y204583I-1159J-957D01*
G03Y204271I189J-156D01*
G02Y202357I-1159J-957D01*
G03Y202045I189J-156D01*
G02X351730Y201088I-1159J-957D01*
G02X348726I-1502J0D01*
G02X349070Y202045I1503J0D01*
G03Y202357I-189J156D01*
G02Y204271I1159J957D01*
G03Y204583I-189J156D01*
G02Y206497I1159J957D01*
G03Y206809I-189J156D01*
G02Y208723I1159J957D01*
G03Y209035I-189J156D01*
G02Y210949I1159J957D01*
G03Y211261I-189J156D01*
G02X348726Y212218I1159J957D01*
G02X349063Y213166I1502J0D01*
G37*
G36*
G01X372094Y232407D02*
G03Y232719I-189J156D01*
G02X371750Y233676I1159J957D01*
G02X374754I1502J0D01*
G02X374410Y232719I-1503J0D01*
G03Y232407I189J-156D01*
G02Y230493I-1159J-957D01*
G03Y230181I189J-156D01*
G02X374754Y229224I-1159J-957D01*
G02X373252Y227722I-1502J0D01*
G02X372382Y228000I0J1502D01*
G03X372075Y227981I-142J-200D01*
G02X371060Y227586I-1015J1107D01*
G02X370028Y227997I0J1501D01*
G03X369394Y228030I-336J-356D01*
G02X368482Y227722I-911J1194D01*
G02X367403Y228179I0J1502D01*
G03X366699I-352J-341D01*
G02X364541I-1079J1045D01*
G03X363837I-352J-341D01*
G02X362758Y227722I-1079J1045D01*
G02X361801Y228066I0J1503D01*
G03X361489I-156J-189D01*
G02X360532Y227722I-957J1159D01*
G02Y230726I0J1502D01*
G02X361489Y230382I0J-1503D01*
G03X361801I156J189D01*
G02X362758Y230726I957J-1159D01*
G02X363837Y230269I0J-1502D01*
G03X364541I352J341D01*
G02X366699I1079J-1045D01*
G03X367403I352J341D01*
G02X368482Y230726I1079J-1045D01*
G02X369514Y230315I0J-1501D01*
G03X370148Y230282I336J356D01*
G02X371060Y230590I911J-1194D01*
G02X371239Y230579I-2J-1502D01*
G03X371778Y231160I58J487D01*
G02X371750Y231450I1474J289D01*
G02X372094Y232407I1503J0D01*
G37*
G36*
G01X390095Y232559D02*
G03X390144Y232877I-158J187D01*
G02X389912Y233680I1270J802D01*
G02X391414Y235182I1502J0D01*
G02X392323Y234875I-1J-1502D01*
G03X392643Y234895I148J195D01*
G02X393695Y235325I1052J-1072D01*
G02X394805Y234835I0J-1502D01*
G03X395493Y234800I362J330D01*
G02X396494Y235182I1001J-1121D01*
G02X397477Y234816I0J-1503D01*
G03X397797I160J185D01*
G02X398780Y235182I983J-1137D01*
G02X399738Y234837I0J-1503D01*
G03X400362I312J378D01*
G02X402278I958J-1158D01*
G03X402902I312J378D01*
G02X403860Y235182I958J-1158D01*
G02X404968Y234695I1J-1502D01*
G03X405288Y234659I181J165D01*
G02X406146Y234928I858J-1234D01*
G02X407648Y233426I0J-1502D01*
G02X407379Y232568I-1503J0D01*
G03X407415Y232248I201J-139D01*
G02X407902Y231140I-1015J-1107D01*
G02X407506Y230124I-1501J0D01*
G02X407902Y229108I-1105J-1016D01*
G02X404898I-1502J0D01*
G02X405294Y230124I1501J0D01*
G02X404898Y231140I1105J1016D01*
G02X405167Y231998I1503J0D01*
G03X405131Y232318I-201J139D01*
G02X405038Y232411I1015J1108D01*
G03X404718Y232447I-181J-165D01*
G02X403860Y232178I-858J1234D01*
G02X402902Y232523I0J1503D01*
G03X402278I-312J-378D01*
G02X400362I-958J1158D01*
G03X399738I-312J-378D01*
G02X398780Y232178I-958J1158D01*
G02X397797Y232544I0J1503D01*
G03X397477I-160J-185D01*
G02X396494Y232178I-983J1137D01*
G02X395384Y232668I0J1502D01*
G03X394696Y232703I-362J-330D01*
G02X393695Y232321I-1001J1121D01*
G02X392786Y232628I1J1502D01*
G03X392466Y232608I-148J-195D01*
G02X392378Y232528I-1054J1071D01*
G03X392329Y232210I158J-187D01*
G02X392561Y231407I-1270J-802D01*
G02X392137Y230362I-1502J1D01*
G03X392138Y230020I176J-170D01*
G02X392566Y228970I-1074J-1050D01*
G02X389562I-1502J0D01*
G02X389986Y230015I1502J-1D01*
G03X389985Y230357I-176J170D01*
G02X389557Y231407I1074J1050D01*
G02X390095Y232559I1502J0D01*
G37*
G36*
G01X214300Y275413D02*
G03X214337Y276139I-310J380D01*
G02X213898Y277200I1063J1061D01*
G02X216902I1502J0D01*
G02X216350Y276037I-1501J0D01*
G03X216313Y275311I310J-380D01*
G02X216752Y274250I-1063J-1061D01*
G02X213748I-1502J0D01*
G02X214300Y275413I1501J0D01*
G37*
G36*
G01X87311Y269117D02*
Y283435D01*
G02X86811Y284857I1772J1422D01*
G02X91355I2272J0D01*
G02X90855Y283435I-2272J0D01*
G01Y268383D01*
G02X90336Y267130I-1772J0D01*
G01X82169Y258963D01*
Y232965D01*
G02X82669Y231543I-1772J-1422D01*
G02X78125I-2272J0D01*
G02X78625Y232965I2272J0D01*
G01Y259697D01*
G02X79144Y260950I1772J0D01*
G01X87311Y269117D01*
G37*
G36*
G01X147311Y272717D02*
Y283435D01*
G02X146811Y284857I1772J1422D01*
G02X151355I2272J0D01*
G02X150855Y283435I-2272J0D01*
G01Y271983D01*
G02X150336Y270730I-1772J0D01*
G01X141653Y262047D01*
G02X140400Y261528I-1253J1253D01*
G02X138628Y263300I0J1772D01*
G02X139147Y264553I1772J0D01*
G01X147311Y272717D01*
G37*
G36*
G01X388931Y297158D02*
G03Y297482I-184J162D01*
G02X388367Y298980I1707J1498D01*
G02X392911I2272J0D01*
G02X392347Y297482I-2271J0D01*
G03Y297158I184J-162D01*
G02X392911Y295660I-1707J-1498D01*
G02X388367I-2272J0D01*
G02X388931Y297158I2271J0D01*
G37*
G36*
G01X444933D02*
G03Y297482I-184J162D01*
G02X444369Y298980I1707J1498D01*
G02X448913I2272J0D01*
G02X448349Y297482I-2271J0D01*
G03Y297158I184J-162D01*
G02X448913Y295660I-1707J-1498D01*
G02X444369I-2272J0D01*
G02X444933Y297158I2271J0D01*
G37*
G36*
G01X239106Y304606D02*
X237890Y305822D01*
X237773Y305808D01*
G02X237600Y305798I-173J1491D01*
G02X239102Y307300I0J1502D01*
G02X239092Y307127I-1501J0D01*
G01X239078Y307010D01*
X240048Y306040D01*
X244100D01*
G02X244694Y305794I0J-840D01*
G01X246264Y304224D01*
G02X246510Y303630I-594J-594D01*
G01Y302065D01*
G02X247172Y300820I-840J-1245D01*
G02X244168I-1502J0D01*
G02X244830Y302065I1502J0D01*
G01Y303282D01*
X243752Y304360D01*
X239700D01*
G02X239106Y304606I0J840D01*
G37*
G36*
G01X408614Y308955D02*
G03X408617Y309281I-181J165D01*
G02X408057Y310775I1713J1494D01*
G02X412601I2272J0D01*
G02X412009Y309246I-2272J0D01*
G03X412006Y308920I181J-165D01*
G02X412566Y307426I-1713J-1494D01*
G02X410294Y305154I-2272J0D01*
G02X408501Y306030I0J2273D01*
G03X407752Y306059I-387J-301D01*
G02X406641Y305568I-1111J1011D01*
G02Y308572I0J1502D01*
G02X407536Y308276I0J-1501D01*
G03X408265Y308449I292J394D01*
G02X408614Y308955I2028J-1025D01*
G37*
G36*
G01X240842Y309783D02*
Y311567D01*
G02X240168Y312820I828J1253D01*
G02X243172I1502J0D01*
G02X242498Y311567I-1502J0D01*
G01Y309783D01*
G02X243172Y308530I-828J-1253D01*
G02X240168I-1502J0D01*
G02X240842Y309783I1502J0D01*
G37*
G36*
G01X244842Y309683D02*
Y311567D01*
G02X244168Y312820I828J1253D01*
G02X247172I1502J0D01*
G02X246498Y311567I-1502J0D01*
G01Y309683D01*
G02X247172Y308430I-828J-1253D01*
G02X244168I-1502J0D01*
G02X244842Y309683I1502J0D01*
G37*
G36*
G01X252424Y309105D02*
X250142Y311388D01*
X250010Y311357D01*
G02X249670Y311318I-340J1463D01*
G02X251172Y312820I0J1502D01*
G01Y312803D01*
X251171Y312700D01*
X253595Y310276D01*
X253714Y310290D01*
G02X253900Y310302I190J-1490D01*
G02X252398Y308800I0J-1502D01*
G02X252410Y308986I1502J-4D01*
G01X252424Y309105D01*
G37*
G36*
G01X256842Y314283D02*
Y315567D01*
G02X256168Y316820I828J1253D01*
G02X259172I1502J0D01*
G02X258498Y315567I-1502J0D01*
G01Y314283D01*
G02X259172Y313030I-828J-1253D01*
G02X256168I-1502J0D01*
G02X256842Y314283I1502J0D01*
G37*
G36*
G01X405202Y319637D02*
G03X404590Y319965I-469J-140D01*
G02X403926Y319866I-663J2173D01*
G02X406198Y322138I0J2272D01*
G02X406197Y322074I-2272J3D01*
G03X406676Y321571I490J-13D01*
G02X408143Y320069I-35J-1502D01*
G02X406641Y318567I-1502J0D01*
G02X405202Y319637I0J1503D01*
G37*
G36*
G01X231315Y323450D02*
G03X230679Y323711I-451J-192D01*
G02X230108Y323598I-572J1389D01*
G02Y326602I0J1502D01*
G02X231489Y325692I0J-1503D01*
G03X232125Y325431I451J192D01*
G02X232696Y325544I572J-1389D01*
G02Y322540I0J-1502D01*
G02X231315Y323450I0J1503D01*
G37*
G36*
G01X87311Y315717D02*
Y325435D01*
G02X86811Y326857I1772J1422D01*
G02X91355I2272J0D01*
G02X90855Y325435I-2272J0D01*
G01Y314983D01*
G02X90336Y313730I-1772J0D01*
G01X84772Y308166D01*
Y276146D01*
G02X84253Y274893I-1772J0D01*
G01X82657Y273297D01*
X82645Y273217D01*
G02X80397Y271271I-2248J325D01*
G02X78125Y273543I0J2272D01*
G02X80071Y275791I2271J0D01*
G01X80151Y275803D01*
X81228Y276880D01*
Y308900D01*
G02X81747Y310153I1772J0D01*
G01X87311Y315717D01*
G37*
G36*
G01X251794Y336126D02*
Y337944D01*
X255614Y341764D01*
X264316D01*
X268764Y337316D01*
Y330684D01*
X266816Y328736D01*
X264134D01*
Y327136D01*
X263368Y326370D01*
X261050D01*
X259538Y327881D01*
G03X258818Y327851I-346J-346D01*
G02X257670Y327318I-1148J970D01*
G02X256168Y328820I0J1502D01*
G02X257596Y330320I1502J0D01*
G03X258062Y330810I-24J489D01*
G01Y334753D01*
G03X257617Y335241I-490J0D01*
G02X256256Y336633I137J1496D01*
G01X256249Y336725D01*
X256011Y336963D01*
X255548Y336500D01*
Y335968D01*
X254816Y335236D01*
X252684D01*
X251794Y336126D01*
G37*
G36*
G01X47311Y307279D02*
Y346435D01*
G02X46811Y347857I1772J1422D01*
G02X51355I2272J0D01*
G02X50855Y346435I-2272J0D01*
G01Y307279D01*
G02Y304435I-1772J-1422D01*
G01Y265279D01*
G02Y262435I-1772J-1422D01*
G01Y223279D01*
G02Y220435I-1772J-1422D01*
G01Y181279D01*
G02Y178435I-1772J-1422D01*
G01Y139279D01*
G02X51355Y137857I-1772J-1422D01*
G02X46811I-2272J0D01*
G02X47311Y139279I2272J0D01*
G01Y178435D01*
G02Y181279I1772J1422D01*
G01Y220435D01*
G02Y223279I1772J1422D01*
G01Y262435D01*
G02Y265279I1772J1422D01*
G01Y304435D01*
G02Y307279I1772J1422D01*
G37*
G36*
G01X70166Y338272D02*
X86647Y354753D01*
G02X87900Y355272I1253J-1253D01*
G01X104400D01*
G02X105653Y354753I0J-1772D01*
G01X128234Y332172D01*
X153900D01*
G02X155153Y331653I0J-1772D01*
G01X158177Y328629D01*
X167661D01*
G02X169083Y329129I1422J-1772D01*
G02Y324585I0J-2272D01*
G02X167661Y325085I0J2272D01*
G01X157443D01*
G02X156190Y325604I0J1772D01*
G01X153166Y328628D01*
X151530D01*
G03X151096Y327911I0J-490D01*
G02X151355Y326857I-2013J-1054D01*
G02X150855Y325435I-2272J0D01*
G01Y317251D01*
X161650Y306456D01*
G02X162169Y305203I-1253J-1253D01*
G01Y295965D01*
G02X162669Y294543I-1772J-1422D01*
G02X160723Y292295I-2271J0D01*
G01X160643Y292283D01*
X156572Y288212D01*
Y263700D01*
G02X156053Y262447I-1772J0D01*
G01X144672Y251066D01*
Y245834D01*
X150834Y239672D01*
X161400D01*
G02X162653Y239153I0J-1772D01*
G01X170396Y231410D01*
X170476Y231398D01*
G02X172422Y229150I-325J-2248D01*
G02X170150Y226878I-2272J0D01*
G02X167902Y228824I0J2271D01*
G01X167890Y228904D01*
X160666Y236128D01*
X150100D01*
G02X148847Y236647I0J1772D01*
G01X141647Y243847D01*
G02X141128Y245100I1253J1253D01*
G01Y251800D01*
G02X141647Y253053I1772J0D01*
G01X153028Y264434D01*
Y288946D01*
G02X153547Y290199I1772J0D01*
G01X158137Y294789D01*
X158149Y294869D01*
G02X158625Y295965I2248J-325D01*
G01Y304469D01*
X147830Y315264D01*
G02X147311Y316517I1253J1253D01*
G01Y325435D01*
G02X146811Y326857I1772J1422D01*
G02X147070Y327911I2272J0D01*
G03X146636Y328628I-434J227D01*
G01X127500D01*
G02X126247Y329147I0J1772D01*
G01X103666Y351728D01*
X88634D01*
X72153Y335247D01*
G02X70900Y334728I-1253J1253D01*
G01X64722D01*
G02X63300Y334228I-1422J1772D01*
G02Y338772I0J2272D01*
G02X64722Y338272I0J-2272D01*
G01X70166D01*
G37*
G36*
G01X268342Y361524D02*
G03X268271Y361836I-217J115D01*
G02X267659Y363046I890J1210D01*
G02X270663I1502J0D01*
G02X270488Y362343I-1502J1D01*
G03X270559Y362031I217J-115D01*
G02X271171Y360821I-890J-1210D01*
G02X268167I-1502J0D01*
G02X268342Y361524I1502J-1D01*
G37*
G36*
G01X187311Y356417D02*
Y367435D01*
G02X186811Y368857I1772J1422D01*
G02X191355I2272J0D01*
G02X190855Y367435I-2272J0D01*
G01Y357151D01*
X201592Y346414D01*
G03X202428Y346761I346J347D01*
G01Y353006D01*
X200151Y355283D01*
X200071Y355295D01*
G02X198125Y357543I325J2248D01*
G02X200397Y359815I2272J0D01*
G02X202645Y357869I0J-2271D01*
G01X202657Y357789D01*
X205453Y354993D01*
G02X205972Y353740I-1253J-1253D01*
G01Y317022D01*
G02X206472Y315600I-1772J-1422D01*
G02X204200Y313328I-2272J0D01*
G02X202932Y313715I0J2271D01*
G03X202169Y313308I-273J-407D01*
G01Y278037D01*
X204246Y275960D01*
X204326Y275948D01*
G02X206272Y273700I-325J-2248D01*
G02X204000Y271428I-2272J0D01*
G02X201752Y273374I0J2271D01*
G01X201740Y273454D01*
X199144Y276050D01*
G02X198625Y277303I1253J1253D01*
G01Y335121D01*
G02Y337965I1772J1422D01*
G01Y344369D01*
X187830Y355164D01*
G02X187311Y356417I1253J1253D01*
G37*
G36*
G01X438017Y370092D02*
G03X437864Y370785I-407J274D01*
G02X437138Y372071I776J1286D01*
G02X440142I1502J0D01*
G02X440080Y371645I-1502J1D01*
G03X440435Y371029I470J-140D01*
G02X442172Y368821I-535J-2208D01*
G02X437628I-2272J0D01*
G02X438017Y370092I2271J0D01*
G37*
G36*
G01X76138Y380988D02*
G03X75517Y381413I-488J-46D01*
G02X74900Y381328I-616J2187D01*
G02Y385872I0J2272D01*
G02X77162Y383812I0J-2272D01*
G03X77783Y383387I488J46D01*
G02X78400Y383472I616J-2187D01*
G02Y378928I0J-2272D01*
G02X76138Y380988I0J2272D01*
G37*
G36*
G01X388931Y388158D02*
G03Y388482I-184J162D01*
G02X388367Y389980I1707J1498D01*
G02X392911I2272J0D01*
G02X392347Y388482I-2271J0D01*
G03Y388158I184J-162D01*
G02X392911Y386660I-1707J-1498D01*
G02X388367I-2272J0D01*
G02X388931Y388158I2271J0D01*
G37*
G36*
G01X445045Y388040D02*
G03X445034Y388374I-185J161D01*
G02X444369Y389980I1607J1606D01*
G02X448913I2272J0D01*
G02X448352Y388485I-2273J0D01*
G03X448363Y388151I185J-161D01*
G02X449028Y386545I-1607J-1606D01*
G02X444484I-2272J0D01*
G02X445045Y388040I2273J0D01*
G37*
G36*
G01X182872Y391247D02*
G02X185100Y393072I2228J-447D01*
G02X186084Y392848I0J-2273D01*
G02X188099Y394072I2016J-1048D01*
G01X188101D01*
G02X190300Y395772I2199J-572D01*
G02X192572Y393500I0J-2272D01*
G02X190301Y391228I-2272J0D01*
G01X190299D01*
G02X188100Y389528I-2199J572D01*
G02X187116Y389752I0J2273D01*
G02X185100Y388528I-2016J1048D01*
G02X184800Y388548I1J2272D01*
G03X184528Y388353I-32J-243D01*
G02X182472Y386535I-2227J447D01*
G01Y386500D01*
G02X177928I-2272J0D01*
G02X180028Y388765I2271J0D01*
G01Y388800D01*
G02X182300Y391072I2272J0D01*
G02X182600Y391052I-1J-2272D01*
G03X182872Y391247I32J243D01*
G37*
G36*
G01X330872Y399671D02*
Y407745D01*
G02X330621Y408577I1251J831D01*
G02X333625I1502J0D01*
G02X332681Y407183I-1501J0D01*
G01X332528Y407121D01*
Y398851D01*
G02X332285Y398266I-828J1D01*
G01X332010Y397990D01*
X332024Y397871D01*
G02X332036Y397685I-1490J-190D01*
G02X329032I-1502J0D01*
G02X330420Y399183I1502J0D01*
G03X330872Y399671I-38J488D01*
G37*
G36*
G01X386901Y434548D02*
G03X386798Y435286I-367J325D01*
G02X385750Y437200I1224J1914D01*
G02X387834Y439464I2272J0D01*
G02X390100Y441572I2266J-164D01*
G02X392372Y439300I0J-2272D01*
G02X390288Y437036I-2272J0D01*
G02X389721Y435692I-2266J164D01*
G03X389824Y434954I367J-325D01*
G02X390872Y433040I-1224J-1914D01*
G02X386328I-2272J0D01*
G02X386901Y434548I2271J0D01*
G37*
G36*
G01X222202Y468061D02*
G02X222372Y467200I-2102J-862D01*
G02X217828I-2272J0D01*
G02X219098Y469239I2272J0D01*
G02X218928Y470100I2102J862D01*
G02X223472I2272J0D01*
G02X222202Y468061I-2272J0D01*
G37*
G36*
G01X62341Y473450D02*
G02X62028Y474600I1959J1151D01*
G02X64300Y476872I2272J0D01*
G02X65500Y476529I0J-2271D01*
G02X67900I1200J-1928D01*
G02X69100Y476872I1200J-1928D01*
G02X71372Y474600I0J-2272D01*
G02X71059Y473450I-2272J1D01*
G02X71372Y472300I-1959J-1151D01*
G02X71059Y471150I-2272J1D01*
G02X71372Y470000I-1959J-1151D01*
G02X69100Y467728I-2272J0D01*
G02X67900Y468071I0J2271D01*
G02X65500I-1200J1928D01*
G02X64300Y467728I-1200J1928D01*
G02X62028Y470000I0J2272D01*
G02X62341Y471150I2272J-1D01*
G02X62028Y472300I1959J1151D01*
G02X62341Y473450I2272J-1D01*
G37*
G36*
G01X14441Y477450D02*
G02X14128Y478600I1959J1151D01*
G02X16400Y480872I2272J0D01*
G02X17750Y480427I-1J-2272D01*
G02X19100Y480872I1351J-1827D01*
G02X20550Y480349I0J-2272D01*
G02X22000Y480872I1450J-1749D01*
G02X24272Y478600I0J-2272D01*
G02X23959Y477450I-2272J1D01*
G02X24272Y476300I-1959J-1151D01*
G02X23959Y475150I-2272J1D01*
G02X24272Y474000I-1959J-1151D01*
G02X22000Y471728I-2272J0D01*
G02X20550Y472251I0J2272D01*
G02X19100Y471728I-1450J1749D01*
G02X17750Y472173I1J2272D01*
G02X16400Y471728I-1351J1827D01*
G02X14128Y474000I0J2272D01*
G02X14441Y475150I2272J-1D01*
G02X14128Y476300I1959J1151D01*
G02X14441Y477450I2272J-1D01*
G37*
G36*
G01X404510Y482928D02*
X401207D01*
G02Y487472I23J2272D01*
G01X404510D01*
G02Y482928I-10J-2272D01*
G37*
G36*
G01X332126Y483437D02*
Y486894D01*
X332139Y487027D01*
G02X336672Y486805I2261J-226D01*
G01Y483528D01*
G02X332139Y483305I-2272J1D01*
G01X332126Y483437D01*
G37*
G36*
G01X374301Y494554D02*
X369153D01*
G02X369062Y494552I-95J2270D01*
G02Y499096I0J2272D01*
G01X374559D01*
X374715Y499074D01*
G02X374502Y494554I-319J-2250D01*
G01X374487D01*
G02X374396Y494552I-95J2270D01*
G02X374305Y494554I4J2272D01*
G01X374301D01*
G37*
G36*
G01X357124Y494552D02*
G02Y499096I0J2272D01*
G01X362170D01*
G02X362204I17J-2272D01*
G02Y494552I0J-2272D01*
G02X362170I-17J2272D01*
G01X357124D01*
G37*
G36*
G01X339790Y504039D02*
G02X341376Y504684I1586J-1627D01*
G02Y500140I0J-2272D01*
G02X339914Y500673I0J2272D01*
G02X338328Y500028I-1586J1627D01*
G02Y504572I0J2272D01*
G02X339790Y504039I0J-2272D01*
G37*
G36*
G01X422210Y513628D02*
X418920D01*
G02Y518172I10J2272D01*
G01X422210D01*
G02Y513628I-10J-2272D01*
G37*
G36*
G01X401226Y515683D02*
Y518809D01*
X401242Y518949D01*
G02X403500Y520972I2258J-249D01*
G02X405772Y518729I0J-2272D01*
G01Y515440D01*
G02Y515430I-2272J-5D01*
G02X401228I-2272J0D01*
G02Y515438I2272J4D01*
G01Y515683D01*
X401226D01*
G37*
G36*
G01X337648Y522868D02*
G03X337964Y523499I-146J468D01*
G02X337834Y524256I2142J757D01*
G02X342378I2272J0D01*
G02X340786Y522088I-2272J0D01*
G03X340470Y521457I146J-468D01*
G02X340600Y520700I-2142J-757D01*
G02X339867Y519028I-2272J-1D01*
G03Y518308I332J-360D01*
G02X340600Y516636I-1539J-1671D01*
G02X336056I-2272J0D01*
G02X336789Y518308I2272J1D01*
G03Y519028I-332J360D01*
G02X336056Y520700I1539J1671D01*
G02X337648Y522868I2272J0D01*
G37*
G36*
G01X398272Y530220D02*
G02X393728I-2272J10D01*
G01Y533502D01*
G02X398272I2272J-2D01*
G01Y530220D01*
G37*
G36*
G01X389368Y529310D02*
G02X384824I-2272J26D01*
G01Y534416D01*
G02X389368I2272J0D01*
G01Y529310D01*
G37*
G36*
G01X340154Y543611D02*
G03X339836I-159J-187D01*
G02X338360Y543066I-1476J1726D01*
G02Y547610I0J2272D01*
G02X339836Y547065I0J-2271D01*
G03X340154I159J187D01*
G02X341630Y547610I1476J-1726D01*
G02Y543066I0J-2272D01*
G02X340154Y543611I0J2271D01*
G37*
G36*
G01X365366Y543434D02*
X362094D01*
G02Y547978I1J2272D01*
G01X365366D01*
G02Y543434I-1J-2272D01*
G37*
G36*
G01X226822Y543306D02*
G02X226582Y544322I2032J1016D01*
G02X226822Y545338I2272J0D01*
G02X226582Y546354I2032J1016D01*
G02X231126I2272J0D01*
G02X230886Y545338I-2272J0D01*
G02X231126Y544322I-2032J-1016D01*
G02X230886Y543306I-2272J0D01*
G02X231126Y542290I-2032J-1016D01*
G02X226582I-2272J0D01*
G02X226822Y543306I2272J0D01*
G37*
G36*
G01X372803Y547015D02*
G02X372789I-7J2272D01*
G02Y551559I0J2272D01*
G02X372803I7J-2272D01*
G01X376076D01*
G02Y547015I-17J-2272D01*
G01X372803D01*
G37*
G36*
G01X233074Y567382D02*
G02X233680Y567438I606J-3248D01*
G02Y560830I0J-3304D01*
G02X230656Y562802I0J3305D01*
G02X230050Y562746I-606J3248D01*
G02Y569354I0J3304D01*
G02X233074Y567382I0J-3305D01*
G37*
G36*
G01X321945Y563186D02*
G02X320802Y562878I-1142J1964D01*
G02X318530Y565150I0J2272D01*
G02X318838Y566293I2272J1D01*
G02X318530Y567436I1964J1142D01*
G02X320802Y569708I2272J0D01*
G02X321945Y569400I1J-2272D01*
G02X323088Y569708I1142J-1964D01*
G02X325360Y567436I0J-2272D01*
G02X325052Y566293I-2272J-1D01*
G02X325360Y565150I-1964J-1142D01*
G02X323088Y562878I-2272J0D01*
G02X321945Y563186I-1J2272D01*
G37*
G36*
G01X517039Y568090D02*
G03X516302Y568013I-335J-357D01*
G02X513590Y566596I-2712J1887D01*
G02Y573204I0J3304D01*
G02X515851Y572310I1J-3304D01*
G03X516588Y572387I335J357D01*
G02X519300Y573804I2712J-1887D01*
G02Y567196I0J-3304D01*
G02X517039Y568090I-1J3304D01*
G37*
G36*
G01X360074Y570573D02*
G03X359756I-159J-187D01*
G02X358280Y570028I-1476J1726D01*
G02Y574572I0J2272D01*
G02X359756Y574027I0J-2271D01*
G03X360074I159J187D01*
G02X361550Y574572I1476J-1726D01*
G02Y570028I0J-2272D01*
G02X360074Y570573I0J2271D01*
G37*
G36*
G01X424592Y574606D02*
G02X423076Y578561I10J2272D01*
G01Y583484D01*
X431462D01*
Y578561D01*
G02X429940Y574606I-1526J-1683D01*
G01X424592D01*
G37*
G36*
G01X442003Y585228D02*
X438197D01*
G02Y589772I3J2272D01*
G01X442003D01*
G02Y585228I-3J-2272D01*
G37*
G36*
G01X404898Y590100D02*
G02Y593510I1503J1705D01*
G01Y594456D01*
X412902D01*
Y593511D01*
G02X413673Y591805I-1502J-1706D01*
G02X413660Y591560I-2272J-2D01*
G02X412902Y590099I-2259J245D01*
G01Y589152D01*
X404898D01*
Y590100D01*
G37*
G36*
G01X455132Y591796D02*
G02X454196Y594100I2368J2304D01*
G02X455128Y596400I3304J0D01*
G02X454196Y598700I2372J2300D01*
G02X457500Y602004I3304J0D01*
G02X460542Y599991I0J-3305D01*
G02X461400Y600104I857J-3191D01*
G02Y593496I0J-3304D01*
G02X460984Y593522I-2J3304D01*
G03X460714Y593336I-32J-243D01*
G02X459968Y591904I-3214J764D01*
G02X460904Y589600I-2368J-2304D01*
G02X460014Y587344I-3304J0D01*
G02X460804Y585200I-2514J-2144D01*
G02X454196I-3304J0D01*
G02X455086Y587456I3304J0D01*
G02X454296Y589600I2514J2144D01*
G02X455132Y591796I3304J-1D01*
G37*
G36*
G01X288026Y598431D02*
X290474D01*
Y602766D01*
X293526D01*
Y597843D01*
G02X294272Y596160I-1525J-1683D01*
G02X292000Y593888I-2272J0D01*
G02X291909Y593890I4J2272D01*
G01X286591D01*
G02X286500Y593888I-95J2270D01*
G02X284228Y596160I0J2272D01*
G02X284974Y597843I2271J0D01*
G01Y602766D01*
X288026D01*
Y598431D01*
G37*
G36*
G01X362471Y612150D02*
G02X362128Y613350I1928J1200D01*
G02X362537Y614650I2272J0D01*
G02X362128Y615950I1863J1300D01*
G02X366672I2272J0D01*
G02X366263Y614650I-2272J0D01*
G02X366672Y613350I-1863J-1300D01*
G02X366329Y612150I-2271J0D01*
G02X366672Y610950I-1928J-1200D01*
G02X362128I-2272J0D01*
G02X362471Y612150I2271J0D01*
G37*
G36*
G01X387985Y612900D02*
G02X387728Y613950I2015J1050D01*
G02X387990Y615009I2271J0D01*
G02X387738Y616048I2020J1040D01*
G02X392282I2272J0D01*
G02X392020Y614989I-2271J0D01*
G02X392272Y613950I-2020J-1040D01*
G02X392015Y612900I-2272J0D01*
G02X392272Y611850I-2015J-1050D01*
G02X387728I-2272J0D01*
G02X387985Y612900I2272J0D01*
G37*
G36*
G01X244497Y615428D02*
G03X244966Y616059I0J490D01*
G02X244870Y616712I2176J653D01*
G02X249414I2272J0D01*
G02X247137Y614440I-2272J0D01*
G01X247136D01*
G03X246667Y613809I0J-490D01*
G02X246763Y613156I-2176J-653D01*
G02X242219I-2272J0D01*
G02X244496Y615428I2272J0D01*
G01X244497D01*
G37*
G36*
G01X368952Y632375D02*
G02X369222Y631300I-2002J-1074D01*
G02X364678I-2272J0D01*
G02X364948Y632375I2272J1D01*
G02X364678Y633450I2002J1074D01*
G02X369222I2272J0D01*
G02X368952Y632375I-2272J-1D01*
G37*
G36*
G01X394072Y632651D02*
G02X394481Y631351I-1863J-1300D01*
G02X389937I-2272J0D01*
G02X390346Y632651I2272J0D01*
G02X389937Y633951I1863J1300D01*
G02X394481I2272J0D01*
G02X394072Y632651I-2272J0D01*
G37*
G36*
G01X339068Y630344D02*
G03X339546Y630944I0J490D01*
G02X339418Y632072I4914J1129D01*
G02X349502I5042J0D01*
G02X346089Y627300I-5043J0D01*
G03X345809Y626616I158J-464D01*
G02X346532Y623572I-6049J-3045D01*
G02X341532Y617036I-6772J0D01*
G01Y613072D01*
G02X328988I-6272J0D01*
G01Y624072D01*
G02X335260Y630344I6272J0D01*
G02X335996Y630301I3J-6272D01*
G02X336760Y630344I762J-6729D01*
G01X339068D01*
G37*
G36*
G01X411111Y626616D02*
G03X410831Y627300I-438J220D01*
G02X407418Y632072I1630J4772D01*
G02X417502I5042J0D01*
G02X417374Y630944I-5042J1D01*
G03X417852Y630344I478J-110D01*
G01X420160D01*
G02X420924Y630301I2J-6772D01*
G02X421660Y630344I733J-6229D01*
G02X427932Y624072I0J-6272D01*
G01Y613072D01*
G02X415388I-6272J0D01*
G01Y617036D01*
G02X410388Y623572I1772J6536D01*
G02X411111Y626616I6772J-1D01*
G37*
G36*
G01X306574Y638347D02*
G02X305205Y639837I814J2121D01*
G02X303628Y642000I695J2163D01*
G02X305900Y644272I2272J0D01*
G02X308083Y642631I0J-2273D01*
G02X309614Y640921I-695J-2163D01*
G02X311072Y638800I-814J-2121D01*
G02X308800Y636528I-2272J0D01*
G02X306574Y638347I0J2272D01*
G37*
G36*
G01X433890Y643994D02*
G02X431700Y642328I-2190J606D01*
G02X429428Y644600I0J2272D01*
G02X431066Y646782I2272J0D01*
G02X432703Y648380I2190J-606D01*
G02X434900Y650072I2197J-580D01*
G02X437172Y647800I0J-2272D01*
G02X435453Y645596I-2272J0D01*
G02X433890Y643994I-2197J580D01*
G37*
G36*
G01X377973Y663325D02*
X372618D01*
G02Y669933I17J3304D01*
G01X377973D01*
G02Y663325I-4J-3304D01*
G37*
G36*
G01X239776Y617777D02*
G02X237700Y616428I-2076J923D01*
G02Y620972I0J2272D01*
G02X239408Y620199I0J-2273D01*
G03X240224Y620323I368J323D01*
G02X242300Y621672I2076J-923D01*
G02Y617128I0J-2272D01*
G02X240592Y617901I0J2273D01*
G03X239776Y617777I-368J-323D01*
G37*
G36*
G01X359341Y596753D02*
G02X357284Y595447I-2057J967D01*
G02Y599991I0J2272D01*
G02X359341Y598685I0J-2273D01*
G03X360227I443J208D01*
G02X362284Y599991I2057J-967D01*
G02Y595447I0J-2272D01*
G02X360227Y596753I0J2273D01*
G03X359341I-443J-208D01*
G37*
G36*
G01X470753Y435517D02*
G02X469028Y437722I547J2205D01*
G02X473572I2272J0D01*
G02X472916Y436125I-2272J0D01*
G03X473147Y435305I349J-344D01*
G02X474872Y433100I-547J-2205D01*
G02X472600Y430828I-2272J0D01*
G02X471417Y431160I0J2272D01*
G03X470672Y430735I-255J-418D01*
G01Y430700D01*
G02X468400Y432972I-2272J0D01*
G02X469583Y432640I0J-2272D01*
G03X470328Y433065I255J418D01*
G01Y433100D01*
G02X470984Y434697I2272J0D01*
G03X470753Y435517I-349J344D01*
G37*
G36*
G01X291786Y391723D02*
G02X290500Y390998I-1286J778D01*
G02Y394002I0J1502D01*
G02X291605Y393518I0J-1503D01*
G03X292384Y393597I360J332D01*
G02X293670Y394322I1286J-778D01*
G02Y391318I0J-1502D01*
G02X292565Y391802I0J1503D01*
G03X291786Y391723I-360J-332D01*
G37*
G36*
G01X411088Y363988D02*
G02X410965Y363985I-117J2269D01*
G02X413237Y366257I0J2272D01*
G02X412935Y365125I-2273J0D01*
G03X413386Y364392I425J-244D01*
G02X413509Y364395I117J-2269D01*
G02X411237Y362123I0J-2272D01*
G02X411539Y363255I2273J0D01*
G03X411088Y363988I-425J244D01*
G37*
G36*
G01X425565Y363395D02*
G02X424712Y365170I1420J1775D01*
G02X426984Y367442I2272J0D01*
G02X428762Y366584I0J-2271D01*
G03X429513Y366565I383J305D01*
G02X430639Y367073I1126J-994D01*
G02Y364069I0J-1502D01*
G02X429755Y364357I0J1501D01*
G03X429026Y364175I-288J-397D01*
G02X427852Y363070I-2043J994D01*
G03X427733Y362235I187J-453D01*
G02X428586Y360460I-1420J-1775D01*
G02X424042I-2272J0D01*
G02X425446Y362560I2273J0D01*
G03X425565Y363395I-187J453D01*
G37*
G36*
G01X397508Y362513D02*
G02X396574Y364349I1338J1836D01*
G02X401118I2272J0D01*
G02X400014Y362400I-2272J0D01*
G03X399978Y361584I252J-420D01*
G02X400912Y359748I-1338J-1836D01*
G02X396368I-2272J0D01*
G02X397472Y361697I2272J0D01*
G03X397508Y362513I-252J420D01*
G37*
G36*
G01X434188Y357921D02*
G02X432229Y356799I-1959J1149D01*
G02Y361343I0J2272D01*
G02X434108Y360349I0J-2273D01*
G03X434936Y360376I405J275D01*
G02X436895Y361498I1959J-1149D01*
G02Y356954I0J-2272D01*
G02X435016Y357948I0J2273D01*
G03X434188Y357921I-405J-275D01*
G37*
G36*
G01X436347Y319995D02*
G02X436346Y320047I2271J70D01*
G02X438618Y317775I2272J0D01*
G02X437673Y317981I0J2272D01*
G03X436979Y317524I-204J-446D01*
G02X436980Y317472I-2271J-70D01*
G02X434708Y319744I-2272J0D01*
G02X435653Y319538I0J-2272D01*
G03X436347Y319995I204J446D01*
G37*
G36*
G01X308400Y312016D02*
G02X308167Y312820I1269J804D01*
G02X311171I1502J0D01*
G02X310833Y311871I-1501J0D01*
G03X310866Y311214I379J-310D01*
G01X315968Y306112D01*
Y303286D01*
X314884Y302202D01*
X312718D01*
X311324Y303595D01*
G03X310665Y303626I-347J-346D01*
G02X309706Y303280I-959J1156D01*
G02X308225Y304532I0J1502D01*
G01X308190Y304736D01*
X299183D01*
X299145Y304537D01*
G02X297670Y303317I-1475J282D01*
G02X296781Y303608I0J1502D01*
G01X296611Y303733D01*
X294757Y301879D01*
X294881Y301709D01*
G02X295172Y300821I-1211J-888D01*
G02X292168I-1502J0D01*
G02X292327Y301493I1502J-1D01*
G03X291888Y302202I-438J219D01*
G01X291674D01*
X290908Y302968D01*
Y306550D01*
X295622Y311264D01*
X299971D01*
G03X300391Y312007I0J490D01*
G02X300176Y312781I1286J774D01*
G02X303180I1502J0D01*
G02X302965Y312007I-1501J0D01*
G03X303385Y311264I420J-253D01*
G01X307986D01*
G03X308400Y312016I0J490D01*
G37*
G36*
G01X268605Y291760D02*
G02X268167Y292820I1064J1060D01*
G02X271171I1502J0D01*
G02X270218Y291422I-1502J0D01*
G03X270050Y290620I179J-456D01*
G02X270488Y289560I-1064J-1060D01*
G02X267484I-1502J0D01*
G02X268437Y290958I1502J0D01*
G03X268605Y291760I-179J456D01*
G37*
G36*
G01X276908Y291204D02*
G02X276133Y292518I726J1314D01*
G02X279137I1502J0D01*
G02X278389Y291219I-1502J0D01*
G03X278397Y290366I245J-424D01*
G02X279172Y289052I-726J-1314D01*
G02X276168I-1502J0D01*
G02X276916Y290351I1502J0D01*
G03X276908Y291204I-245J424D01*
G37*
G36*
G01X252702Y287671D02*
G02X252168Y288820I969J1149D01*
G02X255172I1502J0D01*
G02X254312Y287462I-1502J0D01*
G03X254206Y286645I210J-443D01*
G02X254740Y285496I-969J-1149D01*
G02X251736I-1502J0D01*
G02X252596Y286854I1502J0D01*
G03X252702Y287671I-210J443D01*
G37*
G36*
G01X299345Y282497D02*
G02X298196Y281962I-1149J966D01*
G02Y284966I0J1502D01*
G02X299345Y284431I0J-1501D01*
G03X300095I375J316D01*
G02X301244Y284966I1149J-966D01*
G02Y281962I0J-1502D01*
G02X300095Y282497I0J1501D01*
G03X299345I-375J-316D01*
G37*
G36*
G01X445809Y241808D02*
G02X445008Y241576I-802J1270D01*
G02Y244580I0J1502D01*
G02X446505Y243199I0J-1502D01*
G03X447255Y242824I489J40D01*
G02X448056Y243056I802J-1270D01*
G02Y240052I0J-1502D01*
G02X446559Y241433I0J1502D01*
G03X445809Y241808I-489J-40D01*
G37*
G36*
G01X273837Y202603D02*
G02X273834Y202692I1499J95D01*
G02X275336Y201190I1502J0D01*
G02X274920Y201249I1J1502D01*
G03X274295Y200749I-136J-471D01*
G02X274298Y200660I-1499J-95D01*
G02X272796Y202162I-1502J0D01*
G02X273212Y202103I-1J-1502D01*
G03X273837Y202603I136J471D01*
G37*
G36*
G01X381568Y189621D02*
X382684Y190736D01*
G02X383762Y191183I1079J-1078D01*
G02X385287Y189658I0J-1525D01*
G02X384840Y188580I-1525J1D01*
G01X383859Y187598D01*
G03X384174Y186763I347J-346D01*
G02X385578Y185264I-98J-1499D01*
G02X384122Y183763I-1502J0D01*
G03X383885Y183534I8J-245D01*
G02X382386Y182129I-1499J97D01*
G02X380884Y183631I0J1502D01*
G02X382340Y185132I1502J0D01*
G03X382577Y185361I-8J245D01*
G02X382706Y185881I1499J-96D01*
G03X382245Y186572I-447J201D01*
G02X382200Y186571I-56J1524D01*
G01X381247D01*
G02Y189621I0J1525D01*
G01X381568D01*
G37*
G36*
G01X357228Y181841D02*
G02X357106Y182434I1380J593D01*
G02X360110I1502J0D01*
G02X358794Y180944I-1502J0D01*
G03X358405Y180264I61J-486D01*
G02X358527Y179671I-1380J-593D01*
G02X355523I-1502J0D01*
G02X356839Y181161I1502J0D01*
G03X357228Y181841I-61J486D01*
G37*
G36*
G01X402123Y181623D02*
G02X402104Y181864I1483J238D01*
G02X403606Y180362I1502J0D01*
G02X403365Y180381I-3J1502D01*
G03X402803Y179819I-79J-483D01*
G02X402822Y179578I-1483J-238D01*
G02X401320Y181080I-1502J0D01*
G02X401561Y181061I3J-1502D01*
G03X402123Y181623I79J483D01*
G37*
G36*
G01X413425Y178105D02*
G02X411998Y179605I75J1500D01*
G02X415002I1502J0D01*
G02X414862Y178971I-1502J-1D01*
G03X415281Y178275I444J-207D01*
G02X416708Y176775I-75J-1500D01*
G02X413704I-1502J0D01*
G02X413844Y177409I1502J1D01*
G03X413425Y178105I-444J207D01*
G37*
G36*
G01X350561Y177107D02*
G02X350000Y176998I-562J1393D01*
G02Y180002I0J1502D01*
G02X351475Y178784I0J-1502D01*
G03X352139Y178422I481J93D01*
G02X352700Y178531I562J-1393D01*
G02Y175527I0J-1502D01*
G02X351225Y176745I0J1502D01*
G03X350561Y177107I-481J-93D01*
G37*
G36*
G01X381656Y175118D02*
G02X381043Y174987I-613J1371D01*
G02Y177991I0J1502D01*
G02X382513Y176798I0J-1502D01*
G03X383192Y176451I480J101D01*
G02X383805Y176582I613J-1371D01*
G02Y173578I0J-1502D01*
G02X382335Y174771I0J1502D01*
G03X381656Y175118I-480J-101D01*
G37*
G36*
G01X250883Y169285D02*
G02X250500Y169235I-384J1452D01*
G02Y172239I0J1502D01*
G02X252002Y170772I0J-1502D01*
G03X252617Y170310I490J12D01*
G02X253000Y170360I384J-1452D01*
G02X254502Y168881I0J-1502D01*
G03X255018Y168400I490J8D01*
G02X255100Y168402I78J-1500D01*
G02Y165398I0J-1502D01*
G02X253598Y166877I0J1502D01*
G03X253082Y167358I-490J-8D01*
G02X253000Y167356I-78J1500D01*
G02X251498Y168823I0J1502D01*
G03X250883Y169285I-490J-12D01*
G37*
G36*
G01X359193Y158412D02*
G02X358608Y158293I-586J1383D01*
G02X360110Y159795I0J1502D01*
G02X360101Y159635I-1502J4D01*
G03X360589Y159093I487J-52D01*
G01X363424D01*
G02X363926Y158591I0J-502D01*
G01Y155945D01*
G03X364621Y155500I490J0D01*
G02X365250Y155638I629J-1364D01*
G02X366752Y154136I0J-1502D01*
G02X366635Y153556I-1502J1D01*
G03X367136Y152879I452J-189D01*
G02X367284Y152886I145J-1495D01*
G02X368786Y151384I0J-1502D01*
G02X367462Y149893I-1502J0D01*
G03X367087Y149177I58J-487D01*
G02X367262Y148474I-1327J-704D01*
G02X366990Y147612I-1502J0D01*
G03X367172Y146893I402J-281D01*
G02X368002Y145550I-672J-1343D01*
G02X364998I-1502J0D01*
G02X365270Y146412I1502J0D01*
G03X365088Y147131I-402J281D01*
G02X364258Y148474I672J1343D01*
G02X365582Y149965I1502J0D01*
G03X365957Y150681I-58J487D01*
G02X365782Y151384I1327J704D01*
G02X365899Y151964I1502J-1D01*
G03X365398Y152641I-452J189D01*
G02X365250Y152634I-145J1495D01*
G02X364819Y152697I-1J1502D01*
G03X364188Y152228I-141J-469D01*
G01Y150209D01*
G02X363424Y149445I-764J0D01*
G01X361950D01*
X361903Y149424D01*
G02X361300Y149298I-602J1376D01*
G02X360697Y149424I-1J1502D01*
G01X360650Y149445D01*
X360541D01*
G03X360066Y148837I0J-490D01*
G02X360110Y148474I-1458J-361D01*
G02X358608Y149976I-1502J0D01*
G02X358996Y149925I0J-1501D01*
G03X359612Y150399I126J473D01*
G01Y153257D01*
G02X359874Y153833I764J0D01*
G01Y157960D01*
G03X359193Y158412I-490J1D01*
G37*
G36*
G01X355879Y155467D02*
G02X355778Y155464I-95J1499D01*
G02X357280Y156966I0J1502D01*
G02X357126Y156304I-1502J0D01*
G03X357599Y155599I440J-216D01*
G02X357700Y155602I95J-1499D01*
G02X356198Y154100I0J-1502D01*
G02X356352Y154762I1502J0D01*
G03X355879Y155467I-440J216D01*
G37*
G36*
G01X351329Y148573D02*
G02X351304Y148844I1477J273D01*
G02X352806Y147342I1502J0D01*
G02X352318Y147423I-1J1502D01*
G03X351677Y146871I-159J-463D01*
G02X351702Y146600I-1477J-273D01*
G02X350200Y148102I-1502J0D01*
G02X350688Y148021I1J-1502D01*
G03X351329Y148573I159J463D01*
G37*
G36*
G01X405031Y146976D02*
G02X403635Y148474I106J1498D01*
G02X406639I1502J0D01*
G02X406533Y147920I-1501J0D01*
G03X406954Y147250I455J-181D01*
G02X408350Y145752I-106J-1498D01*
G02X405346I-1502J0D01*
G02X405452Y146306I1501J0D01*
G03X405031Y146976I-455J181D01*
G37*
G36*
G01X236186Y143492D02*
G02X235698Y144600I1014J1108D01*
G02X238702I1502J0D01*
G02X238063Y143371I-1501J0D01*
G03X238014Y142608I282J-401D01*
G02X238502Y141500I-1014J-1108D01*
G02X235498I-1502J0D01*
G02X236137Y142729I1501J0D01*
G03X236186Y143492I-282J401D01*
G37*
G36*
G01X345091Y142173D02*
G02X344954Y142800I1366J627D01*
G02X346456Y141298I1502J0D01*
G02X346314Y141305I3J1502D01*
G03X345822Y140613I-47J-488D01*
G02X345959Y139986I-1366J-627D01*
G02X344457Y141488I-1502J0D01*
G02X344599Y141481I-3J-1502D01*
G03X345091Y142173I47J488D01*
G37*
G36*
G01X380578Y139175D02*
G02X380229Y140138I1154J963D01*
G02X383233I1502J0D01*
G02X382525Y138863I-1502J0D01*
G03X382438Y138101I259J-416D01*
G01X384704Y135834D01*
X389170D01*
G02X390238Y135392I0J-1511D01*
G01X390418Y135212D01*
G02X390860Y134144I-1069J-1068D01*
G02X389350Y132634I-1510J0D01*
G01X389344D01*
G02X388678Y132789I0J1510D01*
G01X388627Y132814D01*
X384079D01*
G02X383011Y133256I0J1511D01*
G01X380179Y136088D01*
G02X379936Y136406I1068J1068D01*
G03X379190Y136533I-425J-243D01*
G02X378206Y136166I-984J1136D01*
G02Y139170I0J1502D01*
G02X379507Y138418I0J-1501D01*
G03X380254Y138294I424J245D01*
G02X380458Y138443I989J-1141D01*
G03X380578Y139175I-256J418D01*
G37*
G36*
G01X109338Y53368D02*
G02X107188Y51830I-2150J734D01*
G02Y56374I0J2272D01*
G02X109008Y55463I1J-2272D01*
G03X109864Y55598I392J293D01*
G02X112014Y57136I2150J-734D01*
G02Y52592I0J-2272D01*
G02X110194Y53503I-1J2272D01*
G03X109338Y53368I-392J-293D01*
G37*
G36*
G01X76500Y374572D02*
X87578D01*
G02X89000Y375072I1422J-1772D01*
G02X90640Y374372I0J-2271D01*
G01X127778D01*
G02X130622I1422J-1772D01*
G01X155800D01*
G02X157053Y373853I0J-1772D01*
G01X171591Y359315D01*
X178975D01*
G02X180397Y359815I1422J-1772D01*
G02X182645Y357869I0J-2271D01*
G01X182657Y357789D01*
X186353Y354093D01*
G02X186872Y352840I-1253J-1253D01*
G01Y320246D01*
G02X186353Y318993I-1772J0D01*
G01X182657Y315297D01*
X182645Y315217D01*
G02X180414Y313271I-2248J326D01*
G03X180071Y312435I4J-490D01*
G01X192953Y299553D01*
G02X193472Y298300I-1253J-1253D01*
G01Y255800D01*
G02X192953Y254547I-1772J0D01*
G01X190703Y252297D01*
X190691Y252217D01*
G02X188443Y250271I-2248J325D01*
G02X186171Y252543I0J2272D01*
G02X188117Y254791I2271J0D01*
G01X188197Y254803D01*
X189928Y256534D01*
Y297566D01*
X188408Y299086D01*
G03X187571Y298750I-347J-346D01*
G02X185626Y296552I-2271J50D01*
G01X185546Y296540D01*
X162117Y273111D01*
X162099Y273050D01*
G02X160397Y271771I-1702J493D01*
G02X158625Y273543I0J1772D01*
G01Y273897D01*
G02X159144Y275150I1772J0D01*
G01X183040Y299046D01*
X183052Y299126D01*
G02X185250Y301071I2248J-326D01*
G03X185586Y301908I-10J490D01*
G01X175847Y311647D01*
G02X175328Y312900I1253J1253D01*
G01Y336266D01*
X169066Y342528D01*
X152640D01*
G02X151387Y343047I0J1772D01*
G01X148837Y345597D01*
X148757Y345609D01*
G02X147661Y346085I325J2248D01*
G01X118943D01*
G02X117690Y346604I0J1772D01*
G01X108523Y355771D01*
X81819D01*
G02X78975I-1422J1772D01*
G01X75677D01*
X60372Y340466D01*
Y324434D01*
X70453Y314353D01*
G02X70972Y313100I-1253J-1253D01*
G01Y301300D01*
G02X70453Y300047I-1772J0D01*
G01X63923Y293517D01*
G03X64314Y292683I347J-346D01*
G02X64520Y292692I202J-2263D01*
G02X66768Y290746I0J-2271D01*
G01X66780Y290666D01*
X74653Y282793D01*
G02X75172Y281540I-1253J-1253D01*
G01Y227834D01*
X90410Y212596D01*
G03X90828Y212769I173J173D01*
G01Y213166D01*
X87830Y216164D01*
G02X87311Y217417I1253J1253D01*
G01Y242857D01*
G02X90855I1772J0D01*
G01Y218151D01*
X92854Y216152D01*
G03X93690Y216499I346J347D01*
G01Y254100D01*
G02X93986Y254814I1009J0D01*
G01X103743Y264571D01*
G02X104457Y264867I714J-713D01*
G01X107971D01*
G02X109083Y265359I1112J-1011D01*
G02Y262355I0J-1502D01*
G02X107971Y262847I0J1503D01*
G01X104875D01*
X95710Y253682D01*
Y216658D01*
X100322Y212046D01*
X100421Y212045D01*
G02X101899Y210543I-24J-1502D01*
G02X100397Y209041I-1502J0D01*
G02X98895Y210519I0J1502D01*
G01X98894Y210618D01*
X95208Y214304D01*
G03X94371Y213945I-347J-346D01*
G02X94372Y213900I-1771J-62D01*
G01Y201746D01*
G02X93853Y200493I-1772J0D01*
G01X82657Y189297D01*
X82645Y189217D01*
G02X80397Y187271I-2248J325D01*
G02X78641Y188102I0J2271D01*
G03X77772Y187791I-379J-311D01*
G01Y147434D01*
X86334Y138872D01*
G03X87106Y138977I346J347D01*
G02X87311Y139279I1976J-1121D01*
G01Y148083D01*
G02X87830Y149336I1772J0D01*
G01X98625Y160131D01*
Y167121D01*
G02X98125Y168543I1772J1422D01*
G02X100071Y170791I2271J0D01*
G01X100151Y170803D01*
X102128Y172780D01*
Y205500D01*
G02X102647Y206753I1772J0D01*
G01X107311Y211417D01*
Y221857D01*
G02X110855I1772J0D01*
G01Y210683D01*
G02X110336Y209430I-1772J0D01*
G01X105672Y204766D01*
Y172046D01*
G02X105153Y170793I-1772J0D01*
G01X102657Y168297D01*
X102645Y168217D01*
G02X102169Y167121I-2248J325D01*
G01Y159397D01*
G02X101650Y158144I-1772J0D01*
G01X90855Y147349D01*
Y139279D01*
G02X91355Y137857I-1772J-1422D01*
G02X90203Y135880I-2272J0D01*
G03X90098Y135108I242J-426D01*
G01X95633Y129573D01*
X98625D01*
Y146121D01*
G02X98125Y147543I1772J1422D01*
G02X102669I2272J0D01*
G02X102169Y146121I-2272J0D01*
G01Y129937D01*
X107034Y125072D01*
X110600D01*
G02X111853Y124553I0J-1772D01*
G01X128534Y107872D01*
X137838D01*
G03X138292Y108546I0J490D01*
G02X138125Y109400I2105J855D01*
G02X138625Y110822I2272J0D01*
G01Y112669D01*
X127830Y123464D01*
G02X127311Y124717I1253J1253D01*
G01Y136435D01*
G02X126811Y137857I1772J1422D01*
G02X127311Y139279I2272J0D01*
G01Y178435D01*
G02X126811Y179857I1772J1422D01*
G02X127311Y181279I2272J0D01*
G01Y221857D01*
G02X128073Y223313I1772J0D01*
G01Y232085D01*
X108625Y251533D01*
X101509D01*
G02X100397Y251041I-1112J1011D01*
G02Y254045I0J1502D01*
G02X101509Y253553I0J-1503D01*
G01X108625D01*
X128290Y273218D01*
Y274004D01*
X119144Y283150D01*
G02X118625Y284403I1253J1253D01*
G01Y293121D01*
G02X118125Y294543I1772J1422D01*
G02X118625Y295965I2272J0D01*
G01Y305269D01*
X107830Y316064D01*
G02X107311Y317317I1253J1253D01*
G01Y325435D01*
G02X106835Y326531I1772J1421D01*
G01X106823Y326611D01*
X98897Y334537D01*
G02X98378Y335790I1253J1253D01*
G01Y347328D01*
G02X97878Y348750I1772J1422D01*
G02X102422I2272J0D01*
G02X101922Y347328I-2272J0D01*
G01Y336524D01*
X109329Y329117D01*
X109409Y329105D01*
G02X111355Y326857I-325J-2248D01*
G02X110855Y325435I-2272J0D01*
G01Y318051D01*
X121650Y307256D01*
G02X122169Y306003I-1253J-1253D01*
G01Y295965D01*
G02X122669Y294543I-1772J-1422D01*
G02X122169Y293121I-2272J0D01*
G01Y285137D01*
X130553Y276753D01*
G02X131072Y275500I-1253J-1253D01*
G02X131061Y275299I-1772J-4D01*
G01X131047Y275181D01*
X131675Y274553D01*
X139285D01*
G02X140397Y275045I1112J-1011D01*
G02Y272041I0J-1502D01*
G02X139285Y272533I0J1503D01*
G01X131257D01*
G02X130855Y272616I-1J1010D01*
G03X130216Y272374I-195J-449D01*
G02X130014Y272086I-915J427D01*
G01X110471Y252543D01*
X129797Y233217D01*
G02X130093Y232503I-713J-714D01*
G01Y223313D01*
G02X130855Y221857I-1010J-1456D01*
G01Y181279D01*
G02X131355Y179857I-1772J-1422D01*
G02X130855Y178435I-2272J0D01*
G01Y139279D01*
G02X131355Y137857I-1772J-1422D01*
G02X130855Y136435I-2272J0D01*
G01Y125451D01*
X141650Y114656D01*
G02X142169Y113403I-1253J-1253D01*
G01Y110822D01*
G02X142669Y109400I-1772J-1422D01*
G02X142502Y108546I-2272J1D01*
G03X142956Y107872I454J-184D01*
G01X152366D01*
X162604Y118110D01*
G02X163857Y118629I1253J-1253D01*
G01X167661D01*
G02X169083Y119129I1422J-1772D01*
G02X171355Y116857I0J-2272D01*
G02X170810Y115380I-2272J-1D01*
G03X171182Y114572I372J-318D01*
G01X177932D01*
G03X178281Y115406I0J490D01*
G02X177936Y115858I1619J1594D01*
G01X167830Y125964D01*
G02X167311Y127217I1253J1253D01*
G01Y136435D01*
G02X166811Y137857I1772J1422D01*
G02X171355I2272J0D01*
G02X170855Y136435I-2272J0D01*
G01Y127951D01*
X179557Y119249D01*
X179673Y119261D01*
G02X179900Y119272I223J-2261D01*
G02X182172Y117000I0J-2272D01*
G02X181519Y115406I-2272J0D01*
G03X181868Y114572I349J-344D01*
G01X184292D01*
X186823Y117103D01*
X186835Y117183D01*
G02X189083Y119129I2248J-325D01*
G02X190505Y118629I0J-2272D01*
G01X196823D01*
X203828Y125634D01*
Y149666D01*
X192466Y161028D01*
X191274D01*
G03X190886Y160240I1J-490D01*
G02X191331Y159183I-1804J-1382D01*
G01X191343Y159103D01*
X201650Y148796D01*
G02X202169Y147543I-1253J-1253D01*
G01Y127965D01*
G02X202669Y126543I-1772J-1422D01*
G02X200397Y124271I-2272J0D01*
G02X198975Y124771I0J2272D01*
G01X190257D01*
G02X189004Y125290I0J1772D01*
G01X168523Y145771D01*
X161819D01*
G02X160397Y145271I-1422J1772D01*
G02Y149815I0J2272D01*
G02X161819Y149315I0J-2272D01*
G01X169257D01*
G02X170510Y148796I0J-1772D01*
G01X190991Y128315D01*
X198625D01*
Y146809D01*
X188837Y156597D01*
X188757Y156609D01*
G02X186811Y158857I325J2248D01*
G02X187620Y160596I2272J1D01*
G01X187708Y160669D01*
Y161028D01*
X187234D01*
X185153Y158947D01*
G02X183900Y158428I-1253J1253D01*
G01X171322D01*
X171272Y158249D01*
G02X169083Y156585I-2189J608D01*
G02X166835Y158531I0J2271D01*
G01X166823Y158611D01*
X163147Y162287D01*
G02X162628Y163540I1253J1253D01*
G01Y185000D01*
G02X163147Y186253I1772J0D01*
G01X166228Y189334D01*
Y198213D01*
G03X165625Y198689I-490J-1D01*
G02X165100Y198628I-523J2211D01*
G02X162852Y200574I0J2271D01*
G01X162840Y200654D01*
X134547Y228947D01*
G02X134028Y230200I1253J1253D01*
G01Y252900D01*
G02X134547Y254153I1772J0D01*
G01X145504Y265110D01*
G02X146757Y265629I1253J-1253D01*
G01X149083D01*
G02Y262085I0J-1772D01*
G01X147491D01*
X137572Y252166D01*
Y230934D01*
X157789Y210717D01*
G03X158625Y211064I346J347D01*
G01Y231543D01*
G02X162169I1772J0D01*
G01Y209837D01*
X163992Y208014D01*
G03X164828Y208361I346J347D01*
G01Y215000D01*
G02X165347Y216253I1772J0D01*
G01X178625Y229531D01*
Y230119D01*
X178576Y230184D01*
G02X178125Y231543I1822J1359D01*
G02X178625Y232965I2272J0D01*
G01Y240969D01*
X171254Y248340D01*
X171174Y248352D01*
G02X169228Y250600I325J2248D01*
G02X169272Y251043I2272J-2D01*
G03X168791Y251628I-481J95D01*
G01X151534D01*
X149253Y249347D01*
G02X148000Y248828I-1253J1253D01*
G02X146228Y250600I0J1772D01*
G02X146747Y251853I1772J0D01*
G01X149547Y254653D01*
G02X150800Y255172I1253J-1253D01*
G01X171166D01*
X175734Y259740D01*
G02X176987Y260259I1253J-1253D01*
G01X182291D01*
G02X183713Y260759I1422J-1772D01*
G02Y256215I0J-2272D01*
G02X182291Y256715I0J2272D01*
G01X177721D01*
X173166Y252160D01*
X173298Y251989D01*
G02X173748Y250926I-1798J-1388D01*
G01X173760Y250846D01*
X181650Y242956D01*
G02X182169Y241703I-1253J-1253D01*
G01Y232965D01*
G02Y230121I-1772J-1422D01*
G01Y228797D01*
G02X181650Y227544I-1772J0D01*
G01X168372Y214266D01*
Y207634D01*
X171553Y204453D01*
G02X172072Y203200I-1253J-1253D01*
G01Y187000D01*
G02X171553Y185747I-1772J0D01*
G01X167972Y182166D01*
Y166634D01*
X172634Y161972D01*
X183166D01*
X185247Y164053D01*
G02X186500Y164572I1253J-1253D01*
G01X193200D01*
G02X194453Y164053I0J-1772D01*
G01X206853Y151653D01*
G02X207372Y150400I-1253J-1253D01*
G01Y124900D01*
G02X206853Y123647I-1772J0D01*
G01X198810Y115604D01*
G02X197557Y115085I-1253J1253D01*
G01X190505D01*
G02X189409Y114609I-1421J1772D01*
G01X189329Y114597D01*
X186279Y111547D01*
G02X185026Y111028I-1253J1253D01*
G01X168388D01*
X162657Y105297D01*
X162645Y105217D01*
G02X162576Y104901I-2248J325D01*
G03X163046Y104272I470J-139D01*
G01X164066D01*
X166590Y106796D01*
G02X167843Y107315I1253J-1253D01*
G01X198975D01*
G02X200397Y107815I1422J-1772D01*
G02Y103271I0J-2272D01*
G02X198975Y103771I0J2272D01*
G01X168577D01*
X168314Y103508D01*
G03X168661Y102672I347J-346D01*
G01X169778D01*
G02X171200Y103172I1422J-1772D01*
G02Y98628I0J-2272D01*
G02X169778Y99128I0J2272D01*
G01X122200D01*
G02X120947Y99647I0J1772D01*
G01X114766Y105828D01*
X93835D01*
G03X93491Y104989I0J-490D01*
G02X95441Y100330I-4591J-4659D01*
G02X82357I-6542J0D01*
G02X84307Y104989I6541J0D01*
G03X83963Y105828I-344J349D01*
G01X74400D01*
G02X73147Y106347I0J1772D01*
G01X59144Y120350D01*
G02X58625Y121603I1253J1253D01*
G01Y125121D01*
G02X58125Y126543I1772J1422D01*
G02X60397Y128815I2272J0D01*
G02X60760Y128786I1J-2272D01*
G03X61328Y129270I78J484D01*
G01Y165816D01*
G03X60760Y166300I-490J0D01*
G02X60397Y166271I-362J2243D01*
G02X58125Y168543I0J2272D01*
G02X58625Y169965I2272J0D01*
G01Y185797D01*
G02X59144Y187050I1772J0D01*
G01X63628Y191534D01*
Y260174D01*
G02X64147Y261427I1772J0D01*
G01X66823Y264103D01*
X66835Y264183D01*
G02X69083Y266129I2248J-325D01*
G02X70773Y265375I0J-2271D01*
G03X71628Y265702I365J327D01*
G01Y280806D01*
X64274Y288160D01*
X64194Y288172D01*
G02X62989Y288741I325J2249D01*
G03X62169Y288379I-330J-362D01*
G01Y253965D01*
G02X62669Y252543I-1772J-1422D01*
G02X60397Y250271I-2272J0D01*
G02X59957Y250314I0J2273D01*
G03X59372Y249833I-95J-481D01*
G01Y214074D01*
X60643Y212803D01*
X60723Y212791D01*
G02X62669Y210543I-325J-2248D01*
G02X60397Y208271I-2272J0D01*
G02X58149Y210217I0J2271D01*
G01X58137Y210297D01*
X56347Y212087D01*
G02X55828Y213340I1253J1253D01*
G01Y297700D01*
G02X56347Y298953I1772J0D01*
G01X63440Y306046D01*
X63452Y306126D01*
G02X63928Y307222I2248J-325D01*
G01Y308506D01*
X53847Y318587D01*
G02X53328Y319840I1253J1253D01*
G01Y351400D01*
G02X53847Y352653I1772J0D01*
G01X75247Y374053D01*
G02X76500Y374572I1253J-1253D01*
G37*
G36*
G01X340167Y387257D02*
G02X339398Y388961I1503J1704D01*
G02X341670Y391233I2272J0D01*
G02X343371Y390467I0J-2272D01*
G03X344081Y390442I367J325D01*
G02X345671Y391091I1590J-1623D01*
G02Y386547I0J-2272D01*
G02X343970Y387313I0J2272D01*
G03X343260Y387338I-367J-325D01*
G02X343173Y387257I-1591J1622D01*
G03Y386523I324J-367D01*
G02X343942Y384819I-1503J-1704D01*
G02X343238Y383175I-2272J0D01*
G03Y382465I338J-355D01*
G02X343942Y380821I-1568J-1644D01*
G02X343237Y379175I-2272J-1D01*
G03Y378466I337J-354D01*
G02X343942Y376820I-1567J-1645D01*
G02X343173Y375116I-2272J0D01*
G03Y374382I324J-367D01*
G02X343942Y372678I-1503J-1704D01*
G02X343189Y370988I-2273J0D01*
G03X343195Y370253I327J-365D01*
G02X343980Y368536I-1487J-1718D01*
G02X343373Y366990I-2272J0D01*
G03X343366Y366331I359J-333D01*
G02X343942Y364819I-1696J-1512D01*
G02X343238Y363175I-2272J0D01*
G03Y362465I338J-355D01*
G02X343942Y360821I-1568J-1644D01*
G02X343173Y359117I-2272J0D01*
G03Y358383I324J-367D01*
G02X343942Y356679I-1503J-1704D01*
G02X343129Y354937I-2273J0D01*
G03Y354186I314J-375D01*
G02X343942Y352444I-1460J-1742D01*
G02X341670Y350172I-2272J0D01*
G02X339879Y351046I0J2272D01*
G03X339169Y351113I-387J-301D01*
G02X337670Y350548I-1499J1706D01*
G02X335648Y351784I0J2272D01*
G03X334833Y351870I-436J-224D01*
G02X333669Y351318I-1164J951D01*
G02X333160Y351407I0J1502D01*
G03X332504Y350946I-166J-461D01*
G01Y350693D01*
G03X333160Y350232I490J0D01*
G02X333669Y350321I509J-1413D01*
G02X335171Y348819I0J-1502D01*
G02X334412Y347514I-1501J0D01*
G01Y345794D01*
G03X334642Y345549I245J0D01*
G02Y342551I-92J-1499D01*
G03X334412Y342306I15J-245D01*
G01Y338902D01*
X332186Y336676D01*
Y334415D01*
G03X332969Y334023I490J0D01*
G02X333869Y334322I899J-1203D01*
G02X334939Y333874I0J-1502D01*
G03X335711Y333970I349J344D01*
G02X336103Y334466I1961J-1147D01*
G03Y335175I-337J355D01*
G02X335398Y336821I1567J1645D01*
G02X337670Y339093I2272J0D01*
G02X339246Y338458I0J-2273D01*
G03X339947Y338480I340J353D01*
G02X341624Y339219I1677J-1533D01*
G02X343896Y336947I0J-2272D01*
G02X343153Y335266I-2273J0D01*
G03X343161Y334534I330J-362D01*
G02X343942Y332820I-1490J-1714D01*
G02X343173Y331116I-2272J0D01*
G03Y330382I324J-367D01*
G02X343942Y328678I-1503J-1704D01*
G02X343273Y327068I-2272J0D01*
G03Y326374I346J-347D01*
G02X343942Y324764I-1603J-1610D01*
G02X343173Y323060I-2272J0D01*
G03Y322326I324J-367D01*
G02Y318918I-1503J-1704D01*
G03Y318184I324J-367D01*
G02X343942Y316480I-1503J-1704D01*
G02X343189Y314790I-2273J0D01*
G03X343195Y314055I327J-365D01*
G02X343980Y312338I-1487J-1718D01*
G02X343301Y310718I-2272J0D01*
G03X343297Y310024I344J-349D01*
G02X343956Y308424I-1613J-1600D01*
G02X343184Y306718I-2271J0D01*
G03X343183Y305983I324J-368D01*
G02X343949Y304282I-1506J-1701D01*
G02X342980Y302421I-2272J0D01*
G03X342870Y301725I281J-401D01*
G02X343172Y300821I-1200J-903D01*
G02X340168I-1502J0D01*
G02X340474Y301730I1503J0D01*
G03X340366Y302426I-390J296D01*
G02X339823Y302968I1311J1856D01*
G03X339112Y303064I-400J-283D01*
G02X337670Y302547I-1443J1755D01*
G02X335398Y304819I0J2272D01*
G02X336103Y306465I2272J1D01*
G03Y307174I-337J355D01*
G02X335648Y307784I1568J1644D01*
G03X334833Y307870I-436J-224D01*
G02X333669Y307318I-1164J951D01*
G02Y310322I0J1502D01*
G02X334833Y309770I0J-1503D01*
G03X335648Y309856I379J310D01*
G02X336285Y310621I2022J-1036D01*
G03X336321Y311367I-299J388D01*
G02X335603Y313025I1555J1658D01*
G02X336244Y314606I2272J-1D01*
G03X336266Y315264I-352J341D01*
G02X335728Y316732I1734J1468D01*
G02X336348Y318291I2272J-1D01*
G03X336289Y319017I-356J336D01*
G02X335648Y319785I1381J1804D01*
G03X334833Y319871I-436J-224D01*
G02X333669Y319319I-1164J951D01*
G02X333400Y319343I-2J1502D01*
G03X332822Y318861I-88J-482D01*
G01Y316324D01*
X331420Y314922D01*
X328562D01*
X328248Y315236D01*
X323236D01*
Y327264D01*
X328882D01*
X330022Y328404D01*
Y329362D01*
X329148Y330236D01*
X323026D01*
Y354764D01*
X329184D01*
X330736Y356316D01*
Y357184D01*
X328682Y359237D01*
G03X328264Y359064I-173J-173D01*
G01Y358736D01*
X323236D01*
Y358806D01*
X320102D01*
Y332224D01*
X319018Y331140D01*
X316286D01*
Y322684D01*
X315202Y321600D01*
X301850D01*
X300586Y322863D01*
G03X299750Y322517I-346J-347D01*
G01Y314922D01*
X295678D01*
Y325224D01*
X296952Y326498D01*
X295678Y327772D01*
Y330236D01*
X294966D01*
G03X294785Y329827I1J-245D01*
G02X295172Y328820I-1115J-1006D01*
G02X293670Y327318I-1502J0D01*
G02X292629Y327737I0J1503D01*
G03X291800Y327384I-339J-354D01*
G01Y320140D01*
X290251Y318591D01*
G03X290322Y317839I346J-347D01*
G02X290978Y316598I-846J-1241D01*
G02X290491Y315491I-1502J0D01*
G03X290475Y314783I331J-362D01*
G01X291482Y313776D01*
Y312190D01*
X290398Y311106D01*
X288812D01*
X285820Y314098D01*
Y319818D01*
X287421Y321419D01*
X287432Y321501D01*
G02X287728Y322211I1488J-204D01*
G01Y330952D01*
X286138Y332542D01*
Y333282D01*
X285236Y334184D01*
Y338914D01*
X286138Y339816D01*
Y344944D01*
X285950Y345132D01*
X283532D01*
Y343990D01*
X282905Y343362D01*
G03X283251Y342526I347J-346D01*
G01X283850D01*
Y334956D01*
X283569D01*
G03X283223Y334120I1J-490D01*
G01X284464Y332878D01*
Y319644D01*
X283381Y318561D01*
X280841D01*
X280654Y318374D01*
Y305674D01*
X279571Y304591D01*
X277666D01*
X276209Y303134D01*
Y299959D01*
X275126Y298876D01*
X271954D01*
X270871Y299959D01*
Y319056D01*
X267376D01*
Y326944D01*
X271448D01*
Y323264D01*
X275129D01*
X275280Y323415D01*
X275298Y323469D01*
G02X275302Y323479I1395J-552D01*
G01X275316Y323519D01*
Y333164D01*
X276728Y334576D01*
X279460D01*
Y335312D01*
G03X278650Y335683I-490J0D01*
G02X277670Y335319I-980J1137D01*
G02Y338323I0J1502D01*
G02X278650Y337959I0J-1501D01*
G03X279460Y338330I320J371D01*
G01Y342906D01*
X277046D01*
X275962Y343990D01*
Y350346D01*
X276600Y350984D01*
X275008Y352576D01*
Y373242D01*
X276410Y374644D01*
X278632D01*
X280352Y372924D01*
Y352702D01*
X282770D01*
X283276Y353208D01*
Y369426D01*
X284678Y370828D01*
X286900D01*
X288302Y369426D01*
Y348120D01*
X289574Y346848D01*
Y335718D01*
X290080Y335212D01*
X294525D01*
G03X294871Y336048I-1J490D01*
G01X294406Y336514D01*
Y361741D01*
X292274D01*
X291191Y362824D01*
Y366631D01*
X292274Y367714D01*
X294814D01*
X295001Y367901D01*
Y370441D01*
X296084Y371524D01*
X315848D01*
G03X316296Y372212I0J490D01*
G02X316168Y372820I1374J607D01*
G02X319172I1502J0D01*
G02X318868Y371914I-1502J0D01*
G01X318739Y371743D01*
X319654Y370828D01*
X323918D01*
Y370764D01*
X327796D01*
Y371146D01*
X332504D01*
Y366424D01*
G03X333304Y366045I490J0D01*
G02X334255Y366384I951J-1163D01*
G02X335161Y366080I0J-1502D01*
G03X335849Y366178I295J391D01*
G02X336103Y366464I1820J-1360D01*
G03Y367174I-338J355D01*
G02X335398Y368819I1567J1645D01*
G02X336103Y370465I2272J1D01*
G03Y371174I-337J354D01*
G02X335398Y372820I1567J1645D01*
G02X336103Y374465I2272J0D01*
G03Y375175I-338J355D01*
G02X335398Y376820I1567J1645D01*
G02X336103Y378466I2272J1D01*
G03Y379175I-337J354D01*
G02X335398Y380821I1567J1645D01*
G02X336102Y382465I2272J0D01*
G03Y383175I-338J355D01*
G02X335398Y384819I1568J1644D01*
G02X337670Y387091I2272J0D01*
G02X339315Y386386I0J-2272D01*
G03X340025I355J338D01*
G02X340167Y386523I1647J-1565D01*
G03Y387257I-324J367D01*
G37*
G36*
G01X367432Y536947D02*
G03X368217Y537022I365J327D01*
G02X370165Y538125I1948J-1169D01*
G02X372437Y535853I0J-2272D01*
G02X371296Y533882I-2273J0D01*
G03X371280Y533042I244J-425D01*
G02X372350Y531114I-1202J-1928D01*
G02X371669Y529492I-2272J0D01*
G03X371645Y529171I172J-174D01*
G02X372096Y527812I-1822J-1359D01*
G02X371099Y525932I-2271J0D01*
G03Y525120I275J-406D01*
G02X372096Y523240I-1274J-1880D01*
G02X371540Y521751I-2272J0D01*
G03X371561Y521409I185J-160D01*
G02X372308Y519725I-1525J-1684D01*
G02X371335Y517861I-2272J0D01*
G03X371283Y517099I280J-402D01*
G02X372014Y515430I-1540J-1669D01*
G02X367470I-2272J0D01*
G02X368443Y517294I2272J0D01*
G03X368495Y518056I-280J402D01*
G02X368248Y518323I1539J1671D01*
G03X367400Y518180I-385J-303D01*
G02X365997Y516776I-2147J743D01*
G02X363728Y514618I-2269J114D01*
G02X361456Y516890I0J2272D01*
G02X361482Y517232I2272J-1D01*
G03X361309Y517504I-242J37D01*
G02X360208Y518225I641J2180D01*
G03X359397Y518135I-376J-315D01*
G02X357378Y516904I-2019J1040D01*
G02X355763Y517578I0J2272D01*
G03X355119Y517623I-348J-345D01*
G02X353743Y517159I-1376J1808D01*
G02X352527Y517512I0J2271D01*
G03X351778Y517151I-262J-414D01*
G02X351121Y515781I-2274J248D01*
G01X351023Y515682D01*
X351012Y515598D01*
G02X348742Y513587I-2270J276D01*
G02X346455Y515874I0J2287D01*
G01Y516636D01*
G02X347125Y518253I2286J0D01*
G01X347217Y518345D01*
Y519733D01*
X347045Y519787D01*
G02X345439Y521970I681J2183D01*
G02X346070Y523548I2287J1D01*
G03X346072Y524222I-354J338D01*
G02X345454Y525780I1655J1558D01*
G02X346931Y527908I2271J0D01*
G01X346981Y527927D01*
X347604Y528550D01*
X347617Y528570D01*
G02X347910Y528923I1886J-1267D01*
G03X347873Y529655I-343J350D01*
G02X347020Y531429I1418J1774D01*
G02X347725Y533075I2272J1D01*
G03Y533784I-337J355D01*
G02X347020Y535430I1567J1645D01*
G02X349292Y537702I2272J0D01*
G02X351123Y536776I0J-2273D01*
G03X351912I395J290D01*
G02X353743Y537702I1831J-1347D01*
G02X355388Y536997I0J-2272D01*
G03X356098I355J338D01*
G02X357743Y537702I1645J-1567D01*
G02X359387Y536998I0J-2272D01*
G03X360097I355J338D01*
G02X361741Y537702I1644J-1568D01*
G02X363386Y536997I0J-2272D01*
G03X364096I355J338D01*
G02X365741Y537702I1645J-1567D01*
G02X367432Y536947I0J-2271D01*
G37*
G54D38*
X385450Y42450D03*
X415800Y38000D03*
X417262Y32600D03*
X423100Y35400D03*
X422150Y38850D03*
X436400Y41000D03*
X436443Y32512D03*
X445111Y35200D03*
X455526Y32512D03*
X469200Y38000D03*
X474500Y32512D03*
X375500Y45500D03*
X394900Y47000D03*
X401800Y46800D03*
X419100Y44400D03*
X218500Y79574D03*
X224200Y87200D03*
X227900Y83800D03*
X384000Y88500D03*
X388874Y88646D03*
X396636Y88504D03*
X358888Y99614D03*
X363808Y99488D03*
X369316Y99314D03*
X374000Y98500D03*
X385000Y100000D03*
X389338Y99894D03*
X404622Y93218D03*
X358902Y109982D03*
X369316D03*
X364044Y109920D03*
X374462Y109902D03*
X395536Y110428D03*
X386500Y110220D03*
X419606Y105412D03*
X227140Y123760D03*
X253800Y123900D03*
X293386Y116572D03*
X348460Y114824D03*
X363784Y121226D03*
X374462Y120824D03*
X244000Y134100D03*
X282080Y125018D03*
X292734Y130480D03*
X303022Y135636D03*
X302768Y125222D03*
X303022Y130556D03*
X316400Y135060D03*
X329438Y131318D03*
X389000Y124500D03*
X318516Y145034D03*
X330216Y145943D03*
X329400Y137454D03*
X329438Y141478D03*
X359000Y141800D03*
X351800Y142800D03*
X355800Y145700D03*
X367252Y139986D03*
X372800Y140700D03*
X362682Y145541D03*
X376200Y142200D03*
X389576Y140148D03*
X392567Y142815D03*
X395986Y146304D03*
X402358Y142082D03*
X399808Y145600D03*
X407137Y139321D03*
X277400Y150000D03*
X300482Y149860D03*
X307086Y156638D03*
X317800Y149519D03*
X330548Y151638D03*
X329438Y157480D03*
X352946Y154136D03*
X372758Y151304D03*
X368548Y156966D03*
X369926Y148474D03*
X378460Y156972D03*
X386908Y154136D03*
X392358Y148103D03*
X389738Y151304D03*
X395397Y156966D03*
X406718D03*
X257300Y164100D03*
X313436Y160528D03*
X318770D03*
X348867Y162625D03*
X361437D03*
X352946Y171116D03*
X355778Y162625D03*
X372758Y168284D03*
X367096Y162625D03*
X372758D03*
X380790Y171133D03*
X384810Y168148D03*
X398226Y159795D03*
X403888Y171116D03*
X409547Y165453D03*
X415206Y170434D03*
X426718Y160196D03*
Y170670D03*
Y165419D03*
X443200Y160116D03*
X438120D03*
X438210Y165331D03*
Y170633D03*
X462800Y168400D03*
X462940Y164000D03*
X243900Y181000D03*
X247000Y173300D03*
X361437Y179605D03*
X354193Y182500D03*
X369926Y176775D03*
X372758Y179605D03*
X367096Y173946D03*
X378417D03*
X392695Y171960D03*
X392567Y176775D03*
X398226D03*
Y182434D03*
X406718Y179605D03*
X409547Y182434D03*
X438464Y175935D03*
X448818Y181356D03*
X459200Y181440D03*
X238200Y183100D03*
X233800Y189900D03*
X234900Y193700D03*
X233900Y185700D03*
X266902Y191314D03*
X266300Y185900D03*
X268732Y194564D03*
X327914Y192532D03*
X352946Y188096D03*
X398226D03*
X448588Y186800D03*
X459200Y186660D03*
X232400Y197000D03*
X280162Y203708D03*
X270764Y197612D03*
X324358Y196088D03*
X378206Y203962D03*
X381508Y200660D03*
X416640Y201152D03*
X411318D03*
X438150Y200152D03*
X239300Y215500D03*
X411480Y215172D03*
X414342Y211674D03*
X441929Y208920D03*
X347726Y219456D03*
X352806D03*
X378346Y221782D03*
X381526Y219874D03*
X396152Y229288D03*
X401240D03*
X411480Y225348D03*
X414342Y221850D03*
X352628Y231724D03*
X363076Y233358D03*
X368164D03*
X378728Y239400D03*
X381590Y237174D03*
X431400Y236760D03*
X441628Y236846D03*
X436370Y236756D03*
X314104Y248994D03*
X322690D03*
X301384Y254082D03*
Y259488D03*
X314422Y254400D03*
X322690Y254718D03*
X362500Y265500D03*
X369316Y265938D03*
X398640Y274570D03*
X438640D03*
X245671Y284819D03*
X249669D03*
X267751Y286224D03*
X310434Y284655D03*
X329669Y284819D03*
X333669D03*
X349669D03*
X345671D03*
X390639Y281070D03*
X406641D03*
X402844Y278364D03*
X430639Y281070D03*
X446641D03*
X216200Y299212D03*
Y293800D03*
X215800Y290000D03*
X261671Y296821D03*
X265671D03*
X261671Y292820D03*
X257670Y288820D03*
X273670Y296821D03*
Y292820D03*
Y288820D03*
X289669Y296821D03*
X285671D03*
Y292820D03*
X281671Y288820D03*
X301670Y296821D03*
X297670Y292820D03*
X301670Y288820D03*
X293670Y296821D03*
Y292820D03*
X310434Y288656D03*
X305671Y288820D03*
Y292820D03*
Y296821D03*
X309669D03*
Y292820D03*
X325671Y296821D03*
X321670Y292820D03*
Y296821D03*
X325671Y288820D03*
X317670Y292820D03*
Y288820D03*
X329669D03*
Y296821D03*
X349669Y288820D03*
X341670D03*
Y292820D03*
X345671D03*
X349669D03*
X345671Y288820D03*
Y296821D03*
X353669Y292820D03*
X374640Y294070D03*
X406641D03*
X430639D03*
X462640D03*
X317861Y308890D03*
X329669Y308820D03*
Y300821D03*
X374640Y307070D03*
X390639D03*
X430639D03*
X446641D03*
X462640D03*
X229300Y312100D03*
X228800Y321300D03*
X241671Y316821D03*
X245671D03*
X253670D03*
X265671Y312820D03*
X293670D03*
X317400Y317135D03*
X370745Y319982D03*
X382620Y312824D03*
X398640Y313569D03*
X429693Y318871D03*
X438640Y313569D03*
X462640Y320069D03*
X236194Y324996D03*
X253670Y324819D03*
Y328820D03*
Y332820D03*
X249669Y328820D03*
Y332820D03*
X257670Y324819D03*
X374640Y333351D03*
X390639D03*
X446641Y333069D03*
X462640D03*
X273864Y344624D03*
X215300Y355700D03*
X215100Y351800D03*
X261671Y352820D03*
X265671Y348819D03*
X374640Y353214D03*
X390639D03*
X446641Y349613D03*
X462640Y352571D03*
X261671Y360821D03*
Y364819D03*
X373088Y365621D03*
X406641Y365571D03*
X462640D03*
X215660Y372700D03*
X273670Y376820D03*
X293670D03*
X297670D03*
X309669Y380821D03*
X322611Y376744D03*
X317112Y376820D03*
X382705Y371981D03*
X374572Y378000D03*
X390738Y379277D03*
X406641Y378570D03*
X398958Y372071D03*
X430639Y378570D03*
X446776D03*
X462640D03*
X245671Y388819D03*
X253670Y392820D03*
Y388819D03*
X249669D03*
X253670Y384819D03*
X261671Y388819D03*
Y384819D03*
X265671Y388819D03*
Y392820D03*
X285671D03*
Y388819D03*
X302166Y392006D03*
X297670Y392820D03*
Y388819D03*
X293670D03*
X305671Y392820D03*
Y388819D03*
X313669Y384819D03*
X309669D03*
X313669Y388819D03*
X309669D03*
X325671D03*
Y392820D03*
X317670D03*
Y388819D03*
X329669D03*
Y392820D03*
X374640Y391570D03*
X406641D03*
X430639D03*
X462640D03*
X217900Y404400D03*
X237236Y402336D03*
X245362Y405128D03*
X249669Y396820D03*
X245671D03*
X265671D03*
X261671D03*
X269669D03*
X290576Y400050D03*
X290500Y396500D03*
X285000Y401500D03*
Y397500D03*
X302686Y396118D03*
X297815Y400821D03*
Y396820D03*
X292298Y404796D03*
X312978Y395822D03*
X306618Y400910D03*
Y396909D03*
X325093Y400243D03*
X337782Y405044D03*
X337670Y400821D03*
X349720Y400044D03*
X345722D03*
X360525Y402752D03*
X356713D03*
X390639Y404570D03*
X406641D03*
X430639D03*
X446641D03*
X221140Y406560D03*
X255016Y406400D03*
X331200Y412600D03*
X406474Y411086D03*
X398640Y411206D03*
X430639Y411070D03*
X438640D03*
X474980Y409194D03*
G54D42*
X316400Y140200D03*
G54D39*
X487700Y37500D03*
X207000Y47100D03*
X92000Y57000D03*
X160100Y65560D03*
X78700Y77574D03*
X76200Y70200D03*
X113400Y77574D03*
X136400Y69000D03*
X190300Y77400D03*
X86900Y77674D03*
X104800Y77774D03*
X95500D03*
X172100Y81300D03*
X180800Y79874D03*
X208900D03*
X199500D03*
X9300Y199000D03*
X390617Y287548D03*
X398618D03*
X398640Y281070D03*
X438618Y287548D03*
Y281048D03*
X454617D03*
Y287548D03*
X206100Y309300D03*
X349669Y300821D03*
X382748Y319125D03*
X390639Y317638D03*
X399792Y318866D03*
X410647Y316648D03*
X442851Y317007D03*
X410139Y323868D03*
X432000Y327000D03*
X442533Y323545D03*
X437073Y327000D03*
X212200Y358800D03*
X386730Y362251D03*
X391314Y364927D03*
X406641Y359071D03*
X68600Y381300D03*
X398618Y378548D03*
X411261Y375139D03*
X427170Y370320D03*
X68800Y389200D03*
X198000Y403200D03*
X390617Y398048D03*
X398618D03*
Y404548D03*
X438640Y398070D03*
X438618Y404548D03*
X454617D03*
X454639Y398070D03*
X190600Y416560D03*
X214122Y410464D03*
X343614Y416500D03*
X392500Y417300D03*
X371364Y434192D03*
X365522Y435970D03*
X377884Y432952D03*
X417700Y429500D03*
X411700Y429600D03*
X425400Y429300D03*
X443100D03*
X434200D03*
X478000Y436400D03*
X265800Y448800D03*
X358875Y443025D03*
X440660Y450040D03*
X465600Y442366D03*
X475800Y442700D03*
X430200Y462100D03*
X139500Y473500D03*
X333400Y465800D03*
X341226Y463900D03*
X372126Y469900D03*
X362474D03*
X435800Y466300D03*
X39878Y485700D03*
X135500Y478500D03*
X150400Y485100D03*
X440700Y483200D03*
X49850Y491650D03*
X91948Y489966D03*
X148900Y492506D03*
X229000Y490300D03*
X225500Y497900D03*
X426300Y493000D03*
X80900Y508300D03*
X86106Y499364D03*
X91694D03*
X119380D03*
X124714D03*
X152908D03*
X158242D03*
X185674D03*
X191008D03*
X332740Y501650D03*
X443357Y503100D03*
X434900Y508200D03*
X310388Y511556D03*
X330581Y515493D03*
X357743Y541782D03*
X376428Y534416D03*
X392264Y545200D03*
X387096Y544322D03*
X241100Y553000D03*
X357290Y556833D03*
X265800Y564200D03*
X488442Y560832D03*
X230638Y577264D03*
X375650Y575060D03*
X415751Y580551D03*
X46400Y581860D03*
X341950Y589600D03*
X340950Y584350D03*
X390240Y591850D03*
X46400Y593660D03*
X373150Y599585D03*
X377250Y595550D03*
X99700Y604200D03*
X226900Y604600D03*
X275844Y608330D03*
X369710Y612322D03*
X384400Y608600D03*
X379710Y612322D03*
X41286Y625992D03*
X77500Y616500D03*
X105594Y624978D03*
X281300Y625900D03*
X372500Y621650D03*
X377210Y625322D03*
X387210D03*
X41232Y633412D03*
G54D40*
X491235Y50137D03*
X42400Y82700D03*
X441993Y473456D03*
X455700Y511300D03*
X508000Y556900D03*
X501700Y560400D03*
X501203Y570897D03*
X501100Y599000D03*
G54D35*
X254110Y23712D03*
G54D36*
X279510D03*
X304910D03*
X254110Y49112D03*
X279510D03*
X304910D03*
G54D37*
X25400Y50800D03*
X508000D03*
X25400Y76200D03*
X508000D03*
X25400Y101600D03*
X508000D03*
Y127000D03*
Y152400D03*
X25400Y177800D03*
X508000D03*
Y203200D03*
X25400Y228600D03*
X508000D03*
X25400Y254000D03*
X508000Y269200D03*
X25400Y279400D03*
X508000Y294600D03*
X25400Y304800D03*
X508000Y320000D03*
X25400Y330200D03*
X508000Y345400D03*
X25400Y355600D03*
X508000Y370800D03*
X25400Y381000D03*
X508000Y396200D03*
X25400Y406400D03*
X508000Y421600D03*
Y447000D03*
Y472400D03*
Y497800D03*
G54D41*
X444499Y100330D03*
X88900Y568960D03*
X444500D03*
G54D32*
X320000Y586600D03*
Y581500D03*
G54D31*
X300700Y537300D03*
G54D34*
X76200Y25400D03*
X355600D03*
X508000Y533400D03*
X25400Y546100D03*
G54D33*
X305125Y597000D03*
X313875D03*
X305125Y612000D03*
X313875D03*
G54D29*
X421660Y664072D03*
X335260D03*
G54D30*
X387350Y506397D03*
X387096Y519557D03*
%LPD*%
G75*
G36*
G01X255930Y341000D02*
X264000D01*
X264136Y340864D01*
X264154Y340809D01*
G03X265104Y339859I1425J475D01*
G01X265159Y339841D01*
X268000Y337000D01*
Y331000D01*
X266500Y329500D01*
X264080D01*
X261368Y332212D01*
Y333504D01*
X261994Y334130D01*
X263688D01*
X264324Y334766D01*
Y337628D01*
X263688Y338264D01*
X262816D01*
X262316Y338764D01*
X260184D01*
X259684Y338264D01*
X255738D01*
X254784Y337310D01*
Y336284D01*
X254500Y336000D01*
X253000D01*
X252558Y336442D01*
Y337628D01*
X255930Y341000D01*
G37*
G36*
G01X260948Y337819D02*
X262085D01*
X263000Y336904D01*
Y336500D01*
X260604Y334104D01*
Y331896D01*
X263370Y329130D01*
Y327452D01*
X263052Y327134D01*
X261366D01*
X259020Y329480D01*
X259002Y329514D01*
G03X258826Y329779I-1332J-694D01*
G01Y335685D01*
G03X259254Y336664I-1072J1052D01*
G01X259259Y336759D01*
X260276Y337776D01*
X260589D01*
G03X260921Y337813I0J1510D01*
G01X260948Y337819D01*
G37*
G36*
G01X272270Y299640D02*
X271635Y300275D01*
Y321865D01*
X272270Y322500D01*
X275445D01*
X276080Y323135D01*
Y332848D01*
X277044Y333812D01*
X282450D01*
X283700Y332562D01*
Y319960D01*
X283065Y319325D01*
X280525D01*
X279890Y318690D01*
Y305990D01*
X279255Y305355D01*
X277350D01*
X275445Y303450D01*
Y300275D01*
X274810Y299640D01*
X272270D01*
G37*
G36*
G01X270684Y326180D02*
Y319820D01*
X268140D01*
Y326180D01*
X270684D01*
G37*
G36*
G01X284994Y370064D02*
X286584D01*
X287538Y369110D01*
Y348440D01*
X286902Y347804D01*
X284676D01*
X284358Y348122D01*
Y350030D01*
X284040Y350348D01*
X281873D01*
X281824Y350371D01*
G03X281192Y350510I-631J-1363D01*
G03X279690Y349008I0J-1502D01*
G03X279876Y348285I1502J1D01*
G01X279906Y348229D01*
Y346532D01*
X280542Y345896D01*
X282132D01*
X282768Y345260D01*
Y344306D01*
X282132Y343670D01*
X277362D01*
X276726Y344306D01*
Y350030D01*
X277552Y350856D01*
X278632D01*
X278760Y350984D01*
X278952D01*
X279906Y351938D01*
X281013D01*
X281069Y351906D01*
G03X281814Y351708I745J1304D01*
G03X282559Y351906I0J1502D01*
G01X282615Y351938D01*
X283086D01*
X284040Y352892D01*
Y369110D01*
X284994Y370064D01*
G37*
G36*
G01X276726Y373880D02*
X278316D01*
X279588Y372608D01*
Y352892D01*
X278316Y351620D01*
X277044D01*
X275772Y352892D01*
Y372926D01*
X276726Y373880D01*
G37*
G36*
G01X288492Y329996D02*
X291036D01*
Y320456D01*
X288174Y317594D01*
Y317349D01*
X288146Y317296D01*
G03X287974Y316598I1330J-698D01*
G03X288958Y315188I1502J0D01*
G01X289008Y315170D01*
X290718Y313460D01*
Y312506D01*
X290082Y311870D01*
X289128D01*
X286584Y314414D01*
Y319502D01*
X288492Y321410D01*
Y329996D01*
G37*
G36*
G01X281050Y349584D02*
X283594D01*
Y347806D01*
X284360Y347040D01*
X287218D01*
X287664Y347486D01*
X287856D01*
X288810Y346532D01*
Y345425D01*
X288778Y345369D01*
G03X288580Y344624I1304J-745D01*
G03X288778Y343879I1502J0D01*
G01X288810Y343823D01*
Y337974D01*
G03X288231Y336789I923J-1185D01*
G03X288729Y335672I1502J0D01*
G01X288810Y335599D01*
Y335402D01*
X289764Y334448D01*
X296948D01*
X297736Y335236D01*
X297816D01*
X299432Y336852D01*
Y336932D01*
X299500Y337000D01*
Y346850D01*
X303946D01*
Y336946D01*
X300967Y333967D01*
G03X300750Y333750I948J-1165D01*
G01X300500Y333500D01*
Y333307D01*
X300488Y333270D01*
G03X300413Y332802I1427J-469D01*
G03X300488Y332334I1502J1D01*
G01X300500Y332297D01*
Y332000D01*
X303000Y329500D01*
Y328500D01*
X302270Y327770D01*
X301338D01*
X298348Y330760D01*
X297992D01*
X297752Y331000D01*
X288760D01*
X287161Y332599D01*
X287169Y332711D01*
G03X287173Y332820I-1498J110D01*
G03X286363Y334153I-1502J0D01*
G01X286330Y334170D01*
X286000Y334500D01*
Y338598D01*
X286902Y339500D01*
Y339957D01*
X286940Y340017D01*
G03X287173Y340821I-1269J804D01*
G03X286902Y341682I-1503J0D01*
G01Y345260D01*
X286266Y345896D01*
X283212D01*
X282448Y346660D01*
X280858D01*
X280670Y346848D01*
Y349204D01*
X281050Y349584D01*
G37*
G36*
G01X283086Y341762D02*
Y335720D01*
X280224D01*
Y341762D01*
X283086D01*
G37*
G36*
G01X308475Y310500D02*
X310500D01*
X315204Y305796D01*
Y303602D01*
X314568Y302966D01*
X313034D01*
X311211Y304789D01*
X311205Y304881D01*
G03X309706Y306284I-1499J-99D01*
G03X308387Y305500I0J-1502D01*
G01X305743D01*
G03X305671Y305502I-78J-1500D01*
G03X305599Y305500I6J-1502D01*
G01X302072D01*
G03X302000Y305502I-78J-1500D01*
G03X301928Y305500I6J-1502D01*
G01X299009D01*
G03X297670Y306321I-1339J-681D01*
G03X296168Y304819I0J-1502D01*
G03X296193Y304545I1502J-1D01*
G01X296217Y304419D01*
X294764Y302966D01*
X291990D01*
X291672Y303284D01*
Y306234D01*
X295938Y310500D01*
X304525D01*
G02X305010Y309947I-1J-490D01*
G03X304998Y309754I1490J-190D01*
G03X308002I1502J0D01*
G03X307990Y309947I-1502J3D01*
G02X308475Y310500I486J63D01*
G37*
G36*
G01X297396Y325862D02*
X298032D01*
X298986Y324908D01*
Y315686D01*
X296442D01*
Y324908D01*
X297396Y325862D01*
G37*
G36*
G01X309796Y366120D02*
X311260D01*
Y330480D01*
G02X310499Y330072I-490J0D01*
G03X309669Y330322I-830J-1253D01*
G03X308167Y328820I0J-1502D01*
G03X308590Y327775I1502J0D01*
G02X308238Y326944I-352J-341D01*
G01X307102D01*
G02X306750Y327775I0J490D01*
G03X307173Y328820I-1079J1045D01*
G03X305671Y330322I-1502J0D01*
G03X304242Y329283I0J-1502D01*
G01X304187Y329113D01*
X303764D01*
Y329816D01*
X301264Y332316D01*
Y333184D01*
X303816Y335736D01*
X307316D01*
X308594Y337014D01*
Y364918D01*
X309796Y366120D01*
G37*
G36*
G01X312532D02*
X314252D01*
X315076Y365296D01*
Y332224D01*
X315522Y331778D01*
Y323000D01*
X314886Y322364D01*
X302166D01*
X299750Y324780D01*
Y325224D01*
X298348Y326626D01*
X297904D01*
X296442Y328088D01*
Y329360D01*
X297078Y329996D01*
X298032D01*
X301848Y326180D01*
X311706D01*
X312024Y326498D01*
Y365612D01*
X312532Y366120D01*
G37*
G36*
G01X296400Y370760D02*
X318642D01*
X318892Y370510D01*
Y358806D01*
X319338D01*
Y332540D01*
X318702Y331904D01*
X316476D01*
X315840Y332540D01*
Y365612D01*
X314568Y366884D01*
X309480D01*
X307830Y365234D01*
Y337330D01*
X307000Y336500D01*
X305000D01*
X304710Y336790D01*
Y365294D01*
X303438Y366566D01*
X300461D01*
X298668Y364773D01*
Y337168D01*
X297500Y336000D01*
X296000D01*
X295170Y336830D01*
Y344747D01*
G03X295172Y344819I-1500J78D01*
G03X295170Y344891I-1502J-6D01*
G01Y352748D01*
G03X295172Y352820I-1500J78D01*
G03X295170Y352892I-1502J-6D01*
G01Y360749D01*
G03X295172Y360821I-1500J78D01*
G03X295170Y360893I-1502J-6D01*
G01Y362465D01*
X295130Y362505D01*
X292590D01*
X291955Y363140D01*
Y366315D01*
X292590Y366950D01*
X295130D01*
X295765Y367585D01*
Y370125D01*
X296400Y370760D01*
G37*
G36*
G01X300777Y365802D02*
X303122D01*
X303946Y364978D01*
Y347614D01*
X299432D01*
Y364457D01*
X300777Y365802D01*
G37*
G36*
G01X327500Y326500D02*
Y316000D01*
X324000D01*
Y326500D01*
X327500D01*
G37*
G36*
G01X327606Y331000D02*
X323790D01*
Y354000D01*
X327606D01*
Y331000D01*
G37*
G36*
G01X327500Y370000D02*
Y359500D01*
X324000D01*
Y370000D01*
X327500D01*
G37*
G36*
G01X323154Y370064D02*
Y359570D01*
X319656D01*
Y370064D01*
X323154D01*
G37*
G36*
G01X328560Y370382D02*
X331740D01*
Y360206D01*
X334602Y357344D01*
Y356390D01*
X331740Y353528D01*
Y348758D01*
X332301Y348197D01*
X332319Y348160D01*
G03X333010Y347469I1350J659D01*
G01X333047Y347451D01*
X333648Y346850D01*
Y345251D01*
G03Y342849I902J-1201D01*
G01Y339218D01*
X331422Y336992D01*
Y332540D01*
X334602Y329360D01*
Y327134D01*
X333788Y326320D01*
X333685Y326321D01*
X333669D01*
G03X332167Y324819I0J-1502D01*
G01Y324803D01*
X332168Y324700D01*
X332058Y324590D01*
Y316640D01*
X331670Y316252D01*
G03X331261Y315849I830J-1252D01*
G01X331248Y315830D01*
X331104Y315686D01*
X328878D01*
X328264Y316300D01*
Y325566D01*
X329593Y326895D01*
X329686Y326900D01*
G03X331102Y328400I-86J1500D01*
G03X330830Y329262I-1502J0D01*
G01X330786Y329325D01*
Y329678D01*
X328560Y331904D01*
Y342080D01*
X329801Y343321D01*
X329881Y343332D01*
G03X331171Y344819I-212J1487D01*
G03X331113Y345231I-1502J-1D01*
G01X331104Y345264D01*
Y345578D01*
X328560Y348122D01*
Y353060D01*
X331500Y356000D01*
Y357500D01*
X328560Y360440D01*
Y370382D01*
G37*
G36*
G01X367689Y534261D02*
G02X368474Y534336I420J-252D01*
G03X368963Y533925I1692J1516D01*
G02X368947Y533085I-260J-415D01*
G03X367806Y531114I1132J-1971D01*
G03X368257Y529755I2273J0D01*
G02X368233Y529434I-196J-147D01*
G03X368002Y529170I1589J-1624D01*
G02X367278Y529102I-393J293D01*
G03X365741Y529701I-1537J-1672D01*
G03X363469Y527429I0J-2272D01*
G03X363664Y526508I2272J0D01*
G02X363567Y526199I-224J-99D01*
G03X362472Y524256I1176J-1943D01*
G03X367016I2272J0D01*
G03X366821Y525177I-2272J0D01*
G02X366918Y525486I224J99D01*
G03X367563Y526071I-1176J1944D01*
G02X368287Y526139I393J-293D01*
G03X368549Y525932I1536J1674D01*
G02Y525120I-275J-406D01*
G03X367552Y523240I1274J-1880D01*
G03X368299Y521556I2272J0D01*
G02X368320Y521214I-164J-182D01*
G03X367888Y520467I1715J-1490D01*
G02X367040Y520324I-463J160D01*
G03X365252Y521194I-1788J-1402D01*
G03X364139Y520903I0J-2272D01*
G02X363818Y520977I-120J214D01*
G03X361950Y521956I-1868J-1293D01*
G03X359931Y520725I0J-2271D01*
G02X359120Y520635I-435J225D01*
G03X357378Y521448I-1742J-1460D01*
G03X356659Y521331I1J-2272D01*
G02X356014Y521782I-155J465D01*
G03X353743Y523988I-2271J-66D01*
G03X352565Y523659I0J-2272D01*
G02X351861Y523885I-254J419D01*
G03X351075Y524856I-2103J-899D01*
G02X351029Y525619I283J400D01*
G03X351776Y527304I-1525J1684D01*
G03X350923Y529078I-2271J0D01*
G02X350886Y529810I306J382D01*
G03X351123Y530083I-1592J1621D01*
G02X351912I395J-290D01*
G03X353743Y529157I1831J1347D01*
G03X355446Y529925I0J2272D01*
G02X356091Y530004I367J-325D01*
G03X357378Y529604I1287J1872D01*
G03X359032Y530318I0J2273D01*
G02X359806Y530239I357J-336D01*
G03X361741Y529157I1935J1189D01*
G03X364013Y531429I0J2272D01*
G03X363308Y533075I-2272J1D01*
G02Y533784I337J355D01*
G03X363386Y533863I-1577J1635D01*
G02X364096I355J-338D01*
G03X365741Y533158I1645J1567D01*
G03X367689Y534261I0J2272D01*
G37*
G54D10*
G01X253702Y336789D02*
X256135Y339222D01*
X256535D01*
X257165Y339852D01*
X259503D01*
X260069Y339286D01*
X260589D01*
X260632Y339329D01*
X262710D01*
X265413Y336626D01*
X265940D01*
G01X281671Y364819D02*
Y368819D01*
G01X305671Y300821D02*
X301670D01*
G01X389344Y134144D02*
X389350D01*
X389170Y134324D01*
X384079D01*
X381247Y137156D01*
G01X433561Y140130D02*
X416493D01*
X413625Y142998D01*
X409730D01*
X409547Y142815D01*
X7620Y104298D03*
Y116998D03*
Y129698D03*
Y142398D03*
Y155098D03*
Y167798D03*
Y180498D03*
Y193198D03*
Y205898D03*
X9300Y199000D03*
D03*
X7620Y218598D03*
Y231298D03*
Y243998D03*
Y256698D03*
Y269398D03*
D03*
Y282098D03*
D03*
Y294798D03*
D03*
Y307498D03*
D03*
Y320198D03*
D03*
Y332898D03*
D03*
Y345598D03*
D03*
Y358298D03*
D03*
Y370998D03*
D03*
Y383698D03*
D03*
Y396398D03*
D03*
Y409098D03*
D03*
Y421798D03*
D03*
Y434498D03*
D03*
Y447198D03*
D03*
Y459898D03*
D03*
Y472598D03*
Y536098D03*
D03*
X17660Y33020D03*
D03*
X18350Y88500D03*
D03*
X17650Y291800D03*
D03*
X16750Y317850D03*
D03*
X16450Y343800D03*
D03*
X16750Y368400D03*
D03*
X15800Y397050D03*
D03*
X16700Y417450D03*
D03*
X22000Y474000D03*
D03*
X19100D03*
D03*
X16400D03*
D03*
Y478600D03*
D03*
X19100D03*
D03*
X22000D03*
D03*
Y476300D03*
D03*
X19100D03*
D03*
X16400D03*
D03*
X15550Y497600D03*
D03*
X13700Y487300D03*
X17150Y508550D03*
D03*
X16750Y522650D03*
D03*
X30246Y31329D03*
D03*
X32200Y89350D03*
D03*
X34650Y113850D03*
D03*
Y170750D03*
D03*
X34350Y291950D03*
D03*
X34500Y320050D03*
D03*
X24850Y419050D03*
D03*
X30480Y436880D03*
X25250Y488900D03*
X26750Y503000D03*
D03*
X29700Y514500D03*
D03*
X34500Y524550D03*
D03*
X27350Y605950D03*
D03*
X32450Y633300D03*
D03*
X43550Y27750D03*
D03*
X45450Y89050D03*
D03*
X45300Y108600D03*
D03*
X35250Y146450D03*
D03*
X34950Y161000D03*
D03*
Y264250D03*
D03*
X35400Y343200D03*
D03*
X35550Y368550D03*
D03*
X36800Y396600D03*
D03*
X36350Y411050D03*
D03*
X45900Y443426D03*
X36550Y443150D03*
D03*
X42450Y463250D03*
D03*
X42500Y452750D03*
D03*
X36450Y454200D03*
D03*
X35950Y467200D03*
D03*
X36250Y472700D03*
D03*
X35900Y485950D03*
D03*
X42500Y475650D03*
D03*
X39878Y485700D03*
D03*
X42200Y489450D03*
D03*
X35650Y495300D03*
D03*
X44600Y557000D03*
D03*
X38050Y567350D03*
D03*
X45400Y565800D03*
D03*
X44300Y577450D03*
D03*
X46400Y586940D03*
D03*
Y581860D03*
D03*
Y598740D03*
D03*
X38200Y596900D03*
D03*
X46400Y593660D03*
D03*
X43180Y614680D03*
X36800Y604750D03*
D03*
X45600Y621500D03*
D03*
X35650Y624600D03*
D03*
X41286Y625992D03*
D03*
X41232Y633412D03*
D03*
X54200Y16850D03*
D03*
X48500Y69700D03*
D03*
X51000Y80350D03*
D03*
X52150Y95750D03*
D03*
X49083Y137857D03*
Y179857D03*
Y221857D03*
Y263857D03*
Y305857D03*
Y347857D03*
X55400Y410000D03*
D03*
X55880Y424180D03*
Y436880D03*
X52500Y438800D03*
D03*
X55880Y449580D03*
X57200Y444140D03*
D03*
X51950Y448750D03*
D03*
X55800Y457940D03*
X52100Y475100D03*
D03*
X52300Y464100D03*
D03*
X53550Y481750D03*
D03*
X49050Y495400D03*
D03*
X52150Y488150D03*
D03*
X49850Y491650D03*
D03*
X55400Y502050D03*
D03*
X48400Y502500D03*
D03*
X55050Y510000D03*
D03*
X49400Y512350D03*
D03*
X48350Y521350D03*
D03*
X51700Y529100D03*
D03*
X54900Y539850D03*
D03*
X47550Y535900D03*
D03*
X47800Y547950D03*
D03*
X53950Y547150D03*
D03*
X52850Y557750D03*
D03*
X51300Y571250D03*
D03*
X53050Y599450D03*
D03*
X55880Y614680D03*
X57100Y622000D03*
D03*
X51000Y621800D03*
D03*
X61600Y43200D03*
D03*
X62800Y77550D03*
D03*
X68300Y90400D03*
D03*
X58600Y92300D03*
X60397Y126543D03*
X69083Y137857D03*
Y158857D03*
X60397Y168543D03*
Y210543D03*
Y252543D03*
X69083Y263857D03*
X64520Y290420D03*
X65700Y305800D03*
X63300Y336500D03*
X68600Y381300D03*
D03*
X68800Y389200D03*
D03*
X68580Y424180D03*
X66600Y437900D03*
D03*
X59050Y467650D03*
D03*
X69100Y474600D03*
D03*
X66700D03*
D03*
X64300D03*
D03*
Y472300D03*
D03*
X66700D03*
D03*
X69100D03*
D03*
X64300Y470000D03*
D03*
X66700D03*
D03*
X69100D03*
D03*
X59050Y475400D03*
D03*
X65200Y487900D03*
D03*
X69650Y502400D03*
D03*
X61350Y500150D03*
D03*
X64200Y509850D03*
D03*
X62750Y520900D03*
D03*
X64393Y543978D03*
X59450Y562100D03*
D03*
X64393Y587978D03*
X59850Y583650D03*
D03*
X68580Y614680D03*
X67900Y621900D03*
D03*
X61550Y634800D03*
D03*
X64800Y639600D03*
D03*
X79950Y45100D03*
D03*
X78950Y51450D03*
X78700Y64000D03*
X71500Y74350D03*
D03*
X78700Y77574D03*
D03*
X76200Y70200D03*
D03*
X80300Y116100D03*
X80397Y189543D03*
Y231543D03*
Y273543D03*
Y357543D03*
X78400Y381200D03*
D03*
X80350Y387300D03*
D03*
X74900Y383600D03*
D03*
X77400Y396600D03*
D03*
X74350Y412800D03*
D03*
X77550Y408150D03*
D03*
X81100Y428500D03*
X75300Y428400D03*
X81100Y428500D03*
X75300Y428400D03*
X80900Y419800D03*
X75100Y419700D03*
X80900Y419800D03*
X75100Y419700D03*
X81000Y435500D03*
X75200Y435400D03*
X81000Y435500D03*
X75200Y435400D03*
X75100Y441800D03*
D03*
X80900Y441900D03*
D03*
X71500Y446650D03*
D03*
X76550Y460150D03*
D03*
X76350Y452200D03*
D03*
X72700Y495900D03*
D03*
X78350Y495100D03*
D03*
X81500Y487850D03*
D03*
X81026Y499364D03*
D03*
X76200Y507850D03*
D03*
X80900Y508300D03*
D03*
X72594Y517078D03*
D03*
X77550Y514750D03*
D03*
X73950Y524850D03*
D03*
X75850Y535650D03*
D03*
X78100Y555800D03*
D03*
X73750Y547550D03*
X75550Y563500D03*
D03*
X77650Y581000D03*
D03*
X71550Y598350D03*
D03*
X78250Y593450D03*
D03*
X81000Y614700D03*
D03*
X73800Y615800D03*
D03*
X75200Y619700D03*
D03*
X78100Y620900D03*
D03*
X77500Y616500D03*
D03*
X75150Y635100D03*
D03*
X80800Y639600D03*
D03*
X75500D03*
D03*
X70100D03*
D03*
X84932Y7620D03*
D03*
X92000Y57000D03*
D03*
X86900Y77674D03*
D03*
X89083Y116857D03*
X85050Y132350D03*
X89083Y137857D03*
X83600Y203600D03*
X89083Y242857D03*
Y284857D03*
Y326857D03*
X89000Y372800D03*
X90500Y383500D03*
D03*
X85520Y401200D03*
D03*
X86750Y413350D03*
D03*
X93300Y406650D03*
D03*
X86200Y428500D03*
D03*
X86000Y419800D03*
D03*
X86100Y435500D03*
D03*
X86000Y441900D03*
D03*
X89460Y451600D03*
D03*
X88100Y445600D03*
D03*
X82500Y446150D03*
D03*
X91250Y460550D03*
D03*
X83650Y460150D03*
D03*
X92400Y493300D03*
D03*
X89700Y487700D03*
D03*
X88050Y495300D03*
D03*
X91948Y489966D03*
D03*
X84550Y504050D03*
D03*
X86106Y499364D03*
D03*
X91694D03*
D03*
X84150Y511300D03*
D03*
X90050Y522450D03*
D03*
X84050Y522650D03*
D03*
X84250Y535100D03*
D03*
X85150Y543950D03*
X83950Y551300D03*
D03*
X82750Y563600D03*
D03*
X84750Y584500D03*
D03*
X84650Y596400D03*
D03*
X90100Y611050D03*
X83594Y624978D03*
D03*
X88700Y621100D03*
D03*
X93200Y631800D03*
D03*
X105000Y18850D03*
D03*
X102550Y40000D03*
D03*
X93980Y43180D03*
X100203Y54229D03*
D03*
X104250Y59650D03*
X98806Y58166D03*
D03*
X95100Y68200D03*
X104800Y77774D03*
D03*
X95500D03*
D03*
X100397Y147543D03*
Y168543D03*
Y210543D03*
Y252543D03*
X100150Y348750D03*
X93450Y391250D03*
D03*
X101300Y383500D03*
D03*
X102950Y438500D03*
D03*
X99400Y452900D03*
D03*
X94300Y476600D03*
X103450Y489400D03*
D03*
X96774Y499364D03*
D03*
X98700Y509550D03*
D03*
X98100Y522450D03*
D03*
X97650Y529300D03*
D03*
X93980Y538480D03*
Y551180D03*
X98200Y559300D03*
D03*
X93980Y576580D03*
X97500Y572100D03*
D03*
X93980Y589280D03*
X96300Y582400D03*
D03*
X95600Y596000D03*
D03*
X101900Y615500D03*
D03*
X99700Y610500D03*
Y604200D03*
D03*
X93980Y627380D03*
X100100Y621100D03*
D03*
X110332Y7620D03*
X106680Y30480D03*
X113150Y25850D03*
D03*
X107188Y54102D03*
D03*
X113450Y59550D03*
X112014Y54864D03*
D03*
X111700Y66500D03*
X113400Y77574D03*
D03*
X109083Y116857D03*
Y200857D03*
Y221857D03*
Y263857D03*
Y326857D03*
X106000Y445100D03*
D03*
X115550Y489550D03*
D03*
X106850Y495400D03*
D03*
X114300Y499364D03*
D03*
X109450Y508200D03*
D03*
X109550Y502150D03*
D03*
X105594Y517077D03*
X110650Y513700D03*
D03*
X115800Y511450D03*
D03*
X110200Y528700D03*
D03*
X114000Y522300D03*
D03*
X111200Y544000D03*
D03*
X106000Y537500D03*
X110293Y553178D03*
D03*
Y565177D03*
D03*
Y577178D03*
D03*
X109000Y585800D03*
D03*
X116350Y584300D03*
D03*
X115100Y602750D03*
D03*
X109200Y596150D03*
D03*
X114900Y592800D03*
D03*
X108900Y615500D03*
D03*
X115200Y619300D03*
D03*
X110300Y622900D03*
D03*
X105594Y624978D03*
D03*
X112900Y629300D03*
D03*
X105950Y632600D03*
D03*
X123032Y7620D03*
X128150Y14350D03*
D03*
X119380Y30480D03*
X127600Y63000D03*
D03*
X120900Y65250D03*
X119888Y58420D03*
D03*
X117094Y54864D03*
D03*
X125600Y78750D03*
X127200Y92300D03*
X120397Y168543D03*
Y294543D03*
Y357543D03*
X119650Y381900D03*
D03*
X128350Y504950D03*
D03*
X117900Y504800D03*
D03*
X119380Y499364D03*
D03*
X124714D03*
D03*
X119380Y513080D03*
X127650Y511900D03*
D03*
X119380Y525780D03*
X127700Y522850D03*
D03*
X121700Y522400D03*
D03*
X122700Y544150D03*
D03*
X122295Y553178D03*
D03*
Y565177D03*
D03*
Y577178D03*
D03*
X127450Y584100D03*
D03*
X123200Y590600D03*
D03*
X122430Y601940D03*
D03*
X119380Y614680D03*
X127594Y624978D03*
D03*
X122000Y622600D03*
D03*
X119900Y629500D03*
D03*
X118800Y639600D03*
D03*
X124300Y639500D03*
D03*
X135732Y7620D03*
D03*
X132080Y30480D03*
X129600Y23100D03*
D03*
X129750Y40150D03*
D03*
X128509Y50980D03*
D03*
X131572Y65786D03*
X136400Y69000D03*
D03*
X134900Y86450D03*
X137650Y96500D03*
X129083Y137857D03*
Y179857D03*
Y221857D03*
X129200Y372600D03*
X135250Y386800D03*
D03*
X139500Y473500D03*
D03*
X135500Y478500D03*
D03*
X131600Y489950D03*
D03*
X129794Y499364D03*
X138594Y517077D03*
X137850Y529950D03*
X132080Y538480D03*
X137300Y544600D03*
D03*
X134294Y553178D03*
D03*
Y565177D03*
Y577178D03*
D03*
X136950Y592750D03*
D03*
X133500Y631750D03*
D03*
X129600Y639500D03*
D03*
X135000D03*
D03*
X140100D03*
D03*
X148432Y7620D03*
D03*
X140850Y18600D03*
D03*
X144780Y30480D03*
X141100Y78150D03*
X149050Y95900D03*
X140397Y109400D03*
X149083Y158857D03*
Y200857D03*
X148000Y250600D03*
X149083Y263857D03*
X140400Y263300D03*
X140397Y273543D03*
X149083Y284857D03*
Y326857D03*
Y347857D03*
Y368857D03*
X144200Y381700D03*
X149300Y387450D03*
D03*
X148850Y472800D03*
D03*
X146500Y478350D03*
D03*
X140200Y484700D03*
D03*
X150400Y485100D03*
D03*
X148550Y488550D03*
D03*
X142900Y496400D03*
D03*
X148900Y492506D03*
D03*
X147828Y499364D03*
X147550Y521900D03*
D03*
X144900Y514550D03*
D03*
X150350Y541850D03*
X146300Y552550D03*
Y572600D03*
X146550Y590750D03*
X148850Y601200D03*
D03*
X142350Y605850D03*
X146150Y617300D03*
D03*
X144300Y626800D03*
D03*
X149800Y632500D03*
D03*
X145600Y639400D03*
D03*
X150900D03*
D03*
X161132Y7620D03*
D03*
X157600Y13200D03*
D03*
X154550Y22950D03*
D03*
X160100Y65560D03*
D03*
X162200Y76650D03*
X155500Y79750D03*
X155750Y87700D03*
X159650Y96700D03*
D03*
X160397Y105543D03*
Y126543D03*
Y147543D03*
Y231543D03*
Y273543D03*
Y294543D03*
X157800Y349500D03*
X157300Y383250D03*
D03*
X152500Y472500D03*
X154900Y475700D03*
X154450Y481450D03*
D03*
X158900Y495400D03*
D03*
X154150Y495300D03*
D03*
X163322Y499364D03*
X159000Y509850D03*
D03*
X152000Y508450D03*
D03*
X152908Y499364D03*
D03*
X158242D03*
D03*
X160450Y528700D03*
X156950Y545150D03*
D03*
Y551900D03*
D03*
X157150Y565350D03*
D03*
X157050Y558600D03*
D03*
X157350Y579950D03*
D03*
X157050Y571800D03*
D03*
X156950Y587200D03*
D03*
X162950Y591590D03*
D03*
X152850Y596700D03*
D03*
X159500Y602900D03*
D03*
X162700Y600870D03*
D03*
X160300Y619200D03*
D03*
X155150Y626600D03*
D03*
X153700Y635800D03*
D03*
X157500Y631800D03*
D03*
X160200Y637300D03*
D03*
X161700Y639400D03*
D03*
X165450Y50450D03*
D03*
X171400Y57300D03*
X171750Y73200D03*
X172100Y81300D03*
D03*
X166050Y90400D03*
D03*
X171200Y100900D03*
X169083Y116857D03*
Y137857D03*
Y158857D03*
X165100Y200900D03*
X170150Y229150D03*
X171500Y250600D03*
X169083Y326857D03*
X165900Y378100D03*
X171550Y386850D03*
D03*
X170180Y398780D03*
Y411480D03*
X166800Y480000D03*
X171594Y517077D03*
X174150Y531400D03*
D03*
X167650Y538100D03*
D03*
X172500Y539650D03*
D03*
X166900Y548050D03*
X170100Y568650D03*
X172850Y590600D03*
D03*
X171000Y619350D03*
D03*
X165900Y626750D03*
D03*
X165500Y631200D03*
D03*
X172500Y631300D03*
D03*
X174600Y636900D03*
D03*
X169800D03*
D03*
X164500Y637000D03*
D03*
X167200Y639300D03*
D03*
X172500D03*
D03*
X186532Y7620D03*
X184000Y47200D03*
D03*
X181200Y49000D03*
D03*
X186900Y59900D03*
X186650Y72550D03*
X177350Y66750D03*
X180800Y79874D03*
D03*
X175700Y98150D03*
D03*
X179900Y117000D03*
X180397Y231543D03*
X183713Y258487D03*
X185300Y298800D03*
X180397Y315543D03*
Y357543D03*
X179800Y373150D03*
X182300Y388800D03*
D03*
X180200Y386500D03*
D03*
X185100Y390800D03*
D03*
X178400Y398250D03*
D03*
X182880Y411480D03*
X178700Y419650D03*
D03*
X178800Y430350D03*
X179000Y448900D03*
D03*
X179300Y460750D03*
X183850Y484150D03*
D03*
X183750Y475350D03*
D03*
X175700Y481050D03*
X180594Y499364D03*
X184600Y504100D03*
D03*
X185674Y499364D03*
D03*
X184050Y511400D03*
D03*
X179950Y525900D03*
D03*
X182650Y536100D03*
D03*
X179600Y555300D03*
D03*
X179350Y546950D03*
D03*
X186350Y549050D03*
D03*
X179450Y568500D03*
D03*
X179750Y561700D03*
D03*
X186400Y564050D03*
D03*
X181400Y574850D03*
D03*
X180640Y580470D03*
D03*
X182250Y584200D03*
D03*
X186050Y590450D03*
D03*
X180470Y590570D03*
D03*
X180800Y604850D03*
X182594Y624978D03*
X176950Y626500D03*
D03*
X179900Y631200D03*
D03*
X185700Y637000D03*
D03*
X180400Y636900D03*
D03*
X183300Y639300D03*
D03*
X177900D03*
D03*
X187300Y47400D03*
D03*
X195950Y66500D03*
X190300Y77400D03*
D03*
X187200Y100600D03*
D03*
X189083Y116857D03*
Y158857D03*
X195580Y195580D03*
X188443Y252543D03*
X189083Y368857D03*
X189350Y383100D03*
X188100Y391800D03*
D03*
X190300Y393500D03*
D03*
X198000Y403200D03*
D03*
X190600Y416560D03*
D03*
X187600Y440150D03*
D03*
X195000Y463050D03*
D03*
X191950Y455750D03*
X195300Y471200D03*
D03*
X191300Y470200D03*
D03*
X194750Y484300D03*
D03*
X189250Y477500D03*
D03*
X196088Y499364D03*
X194400Y503350D03*
D03*
X191008Y499364D03*
D03*
X194650Y511700D03*
D03*
X190050Y527750D03*
D03*
X187050Y522600D03*
D03*
X193750Y522900D03*
D03*
X194300Y544600D03*
D03*
X193450Y552400D03*
D03*
Y563200D03*
D03*
X193000Y575750D03*
D03*
X196150Y590000D03*
D03*
X198300Y605250D03*
X188400Y626700D03*
D03*
X188600Y621400D03*
X195100Y619900D03*
X187700Y631200D03*
D03*
X198200Y627900D03*
D03*
X195400Y632500D03*
D03*
X191400Y636300D03*
D03*
X188800Y639200D03*
D03*
X194100D03*
D03*
X199232Y7620D03*
X207000Y47100D03*
D03*
X200150Y60050D03*
X208400Y68750D03*
D03*
X201400Y73900D03*
X208900Y79874D03*
D03*
X199500D03*
D03*
X199150Y96400D03*
D03*
X200397Y105543D03*
Y126543D03*
X208750Y146250D03*
D03*
X205900Y178300D03*
X204000Y273700D03*
X206100Y309300D03*
D03*
X204200Y315600D03*
X200397Y336543D03*
Y357543D03*
X199150Y444600D03*
X205350Y456250D03*
X208050Y471350D03*
D03*
X209400Y483450D03*
D03*
X207850Y478300D03*
D03*
X201150Y483300D03*
X208350Y510000D03*
D03*
Y499200D03*
D03*
X204593Y517077D03*
X210000Y538600D03*
X200850Y536800D03*
D03*
X209700Y551100D03*
Y563300D03*
X199550Y571700D03*
D03*
X207250Y580150D03*
D03*
X206200Y589700D03*
D03*
X206750Y598200D03*
D03*
X206400Y606800D03*
D03*
X198700Y622500D03*
X204594Y624978D03*
X205450Y633300D03*
D03*
X204900Y639200D03*
D03*
X199500D03*
D03*
X211932Y7620D03*
X221600Y60150D03*
X218500Y89226D03*
Y79574D03*
D03*
X221950Y95300D03*
D03*
X215000Y94800D03*
D03*
X214850Y102500D03*
D03*
X215050Y110200D03*
D03*
X214900Y120250D03*
D03*
Y127600D03*
D03*
X214800Y145200D03*
D03*
X215100Y152500D03*
D03*
X214900Y169950D03*
X216000Y178200D03*
X219900Y248440D03*
X215250Y274250D03*
D03*
X215400Y277200D03*
D03*
X216200Y299212D03*
D03*
Y293800D03*
D03*
X215800Y290000D03*
D03*
X215300Y355700D03*
D03*
X215100Y351800D03*
D03*
X220450Y368400D03*
D03*
X212200Y358800D03*
D03*
X212400Y376150D03*
D03*
X215660Y372700D03*
D03*
X217900Y404400D03*
D03*
X217400Y410300D03*
X213500Y413800D03*
X212600Y407000D03*
X221140Y406560D03*
D03*
X214122Y410464D03*
D03*
X212550Y449800D03*
X220650Y454150D03*
D03*
X215100Y475250D03*
D03*
X221200Y470100D03*
D03*
X220100Y467200D03*
D03*
X218850Y498650D03*
D03*
X217000Y507600D03*
D03*
X218550Y516500D03*
D03*
X220980Y576580D03*
X217450Y570150D03*
D03*
X212795Y587978D03*
X218050Y582100D03*
D03*
X218200Y591100D03*
D03*
X212795Y609977D03*
X211900Y634000D03*
D03*
X217650Y632850D03*
D03*
X210400Y639100D03*
D03*
X221100D03*
D03*
X215700D03*
D03*
X222350Y73800D03*
X233050Y68850D03*
X224200Y87200D03*
D03*
X227900Y83800D03*
D03*
X222650Y102300D03*
D03*
X222200Y110300D03*
D03*
X222400Y120150D03*
D03*
X233400Y120800D03*
D03*
X227140Y123760D03*
D03*
X222700Y127600D03*
D03*
X233200Y132950D03*
D03*
X231300Y127250D03*
D03*
X231050Y139700D03*
D03*
X223850Y140150D03*
D03*
X230900Y156250D03*
D03*
X222450Y155950D03*
D03*
X227140Y166600D03*
X231350Y163800D03*
X225200Y175000D03*
X226750Y183550D03*
X232400Y197000D03*
D03*
X224700Y223740D03*
X230000Y265640D03*
X229300Y312100D03*
D03*
X228800Y321300D03*
D03*
X231700Y330500D03*
X230108Y325100D03*
D03*
X232696Y324042D03*
D03*
X232800Y337000D03*
X230940Y372700D03*
Y378400D03*
Y384100D03*
Y389500D03*
Y394600D03*
Y400200D03*
X227300Y447950D03*
D03*
X223450Y482900D03*
D03*
X233680Y487680D03*
X226700Y493650D03*
D03*
X229000Y490300D03*
D03*
X225500Y497900D03*
D03*
X230400Y531960D03*
X233680Y525780D03*
X228854Y542290D03*
D03*
Y544322D03*
D03*
X232200Y556900D03*
D03*
X225000Y553550D03*
D03*
X228854Y546354D03*
D03*
X225300Y563150D03*
D03*
X230638Y577264D03*
D03*
X232600Y587350D03*
D03*
X227700Y591650D03*
D03*
X224100Y602200D03*
X229700Y601800D03*
X222900Y596800D03*
D03*
X228300Y610600D03*
X226900Y604600D03*
D03*
X228990Y627260D03*
D03*
X230500Y633600D03*
D03*
X226500Y639100D03*
D03*
X232250Y646850D03*
D03*
X231350Y662250D03*
D03*
X235400Y86900D03*
D03*
X236550Y94600D03*
D03*
X242850Y109600D03*
D03*
X234100Y109800D03*
D03*
X238300Y129900D03*
D03*
X244000Y134100D03*
D03*
X236600Y138200D03*
D03*
X237000Y141500D03*
D03*
X237200Y144600D03*
D03*
X238600Y148000D03*
D03*
X235450Y174950D03*
X243900Y181000D03*
D03*
X238200Y183100D03*
D03*
X233800Y189900D03*
D03*
X234900Y193700D03*
D03*
X233900Y185700D03*
D03*
X239300Y215500D03*
D03*
X237600Y307300D03*
X241670Y308530D03*
X241671Y316821D03*
D03*
X241670Y312820D03*
X236194Y324996D03*
D03*
X238450Y375600D03*
D03*
X237236Y402336D03*
D03*
X245362Y405128D03*
D03*
X237350Y446900D03*
D03*
X236600Y468650D03*
X241550Y486800D03*
D03*
X241100Y497700D03*
D03*
X241050Y514550D03*
D03*
X240150Y530250D03*
D03*
X239750Y545700D03*
X241100Y553000D03*
D03*
X239750Y558650D03*
D03*
X235718Y577264D03*
X235350Y570000D03*
D03*
X235200Y582000D03*
D03*
X238700Y599550D03*
X240700Y609700D03*
X244491Y613156D03*
D03*
X242300Y619400D03*
D03*
X237700Y618700D03*
D03*
X242710Y654810D03*
D03*
X238340Y669390D03*
D03*
X235884Y678180D03*
D03*
X250032Y7620D03*
X254200Y87300D03*
D03*
X246650Y78550D03*
X254750Y96200D03*
D03*
X253400Y109150D03*
D03*
X247150Y104350D03*
D03*
X246000Y120500D03*
D03*
X255950Y120750D03*
D03*
X253800Y123900D03*
D03*
X256250Y133400D03*
D03*
X245750Y127400D03*
D03*
X256150Y138350D03*
D03*
X255400Y145100D03*
D03*
X245800Y156460D03*
X247250Y167500D03*
X250500Y170737D03*
D03*
X255100Y166900D03*
D03*
X253000Y168858D03*
D03*
X255600Y180300D03*
D03*
X255500Y177300D03*
D03*
X247000Y173300D03*
D03*
X245671Y284819D03*
D03*
X249669D03*
D03*
X253238Y285496D03*
D03*
X249669Y292820D03*
D03*
X253670Y288820D03*
D03*
X249669Y308820D03*
X249670Y300820D03*
X245670D03*
X253900Y308800D03*
X245670Y308430D03*
X249669Y316821D03*
X245671D03*
D03*
X253670D03*
D03*
X249670Y312820D03*
X245670D03*
X249669Y324819D03*
X256794Y333502D03*
D03*
X253670Y324819D03*
D03*
Y328820D03*
D03*
Y332820D03*
D03*
X249669Y328820D03*
D03*
Y332820D03*
D03*
Y344819D03*
X249127Y341431D03*
X249009Y336157D03*
X254023Y341743D03*
X253670Y344819D03*
X249669D03*
X249127Y341431D03*
X249009Y336157D03*
X254023Y341743D03*
X253670Y344819D03*
X253702Y336789D03*
D03*
X249669Y352820D03*
Y348819D03*
Y356820D03*
X253670D03*
X249669Y352820D03*
Y348819D03*
Y356820D03*
X253670D03*
X249669Y368819D03*
Y364819D03*
Y360821D03*
X253670D03*
Y364819D03*
Y368819D03*
X249669D03*
Y364819D03*
Y360821D03*
X253670D03*
Y364819D03*
Y368819D03*
X249669Y372820D03*
X253670D03*
X249669D03*
X253670D03*
Y376820D03*
X249670D03*
X249669Y384819D03*
Y392820D03*
X245671Y388819D03*
D03*
X253670Y392820D03*
D03*
Y388819D03*
D03*
X249669D03*
D03*
X253670Y384819D03*
D03*
X249669Y396820D03*
D03*
X245671D03*
D03*
X255016Y406400D03*
D03*
X251350Y447000D03*
D03*
X246050Y456750D03*
X254400Y473300D03*
D03*
X245900Y474100D03*
D03*
X246000Y481900D03*
D03*
X253900Y481800D03*
D03*
X253750Y492950D03*
D03*
X250200Y505500D03*
D03*
X255750Y500050D03*
D03*
X252500Y521200D03*
X250600Y537950D03*
X251850Y553850D03*
X248650Y571950D03*
X251250Y582550D03*
D03*
X250800Y594050D03*
D03*
X251650Y605400D03*
D03*
X246380Y627380D03*
X254450Y626950D03*
D03*
X247142Y616712D03*
D03*
X255650Y655700D03*
D03*
X246350Y668950D03*
D03*
X254900Y664430D03*
D03*
X248584Y678180D03*
D03*
X262732Y7620D03*
X262950Y87000D03*
D03*
X261350Y101300D03*
D03*
X261600Y109600D03*
D03*
X267250Y122550D03*
D03*
X268550Y133550D03*
D03*
X261350Y127300D03*
D03*
X267000Y138400D03*
D03*
X267200Y155750D03*
D03*
X258050D03*
D03*
X259450Y168150D03*
D03*
X264100Y163600D03*
D03*
X257300Y164100D03*
D03*
X264350Y174650D03*
D03*
X264250Y183250D03*
D03*
X266902Y191314D03*
D03*
X266300Y185900D03*
D03*
X268732Y194564D03*
D03*
X266250Y254600D03*
X267751Y286224D03*
D03*
X265671Y292820D03*
D03*
X261671Y296821D03*
D03*
X265671D03*
D03*
X261671Y292820D03*
D03*
X257670Y288820D03*
D03*
X265671Y308820D03*
D03*
Y320821D03*
Y316821D03*
Y320821D03*
Y316821D03*
Y312820D03*
D03*
X257670Y316820D03*
Y313030D03*
X265671Y324819D03*
D03*
X257670D03*
D03*
Y328820D03*
D03*
X261671D03*
D03*
X262382Y332740D03*
X265671Y332820D03*
Y330454D03*
X257670Y344819D03*
X261671D03*
X265671D03*
X265579Y341284D03*
X257670Y344819D03*
X261671D03*
X265671D03*
X265579Y341284D03*
X257754Y336737D03*
D03*
X261657Y336666D03*
D03*
X265940Y336626D03*
X261671Y348819D03*
X257670Y356820D03*
X261671D03*
X265500Y357500D03*
X261671Y348819D03*
X257670Y356820D03*
X261671D03*
X265500Y357500D03*
X261671Y352820D03*
D03*
X265671Y348819D03*
D03*
X266301Y359960D03*
X257670Y360821D03*
Y364819D03*
Y368819D03*
X261671D03*
X265671D03*
X266301Y359960D03*
X257670Y360821D03*
Y364819D03*
Y368819D03*
X261671D03*
X265671D03*
X261671Y360821D03*
D03*
Y364819D03*
D03*
X257670Y372820D03*
X261671D03*
X265671D03*
X257670Y376820D03*
X261671D03*
X265671D03*
X257670Y372820D03*
X261671D03*
X265671D03*
X257670Y376820D03*
X261671D03*
X265671D03*
Y380821D03*
X261500Y381000D03*
X265671Y380821D03*
X261500Y381000D03*
X261671Y392820D03*
Y388819D03*
D03*
Y384819D03*
D03*
X265671Y388819D03*
D03*
Y392820D03*
D03*
Y396820D03*
D03*
X261671D03*
D03*
X261700Y447600D03*
D03*
X265800Y448800D03*
D03*
X261400Y457000D03*
X261150Y474850D03*
X261850Y493800D03*
D03*
X262200Y517500D03*
D03*
X262550Y537150D03*
D03*
X262700Y550400D03*
D03*
X261550Y563700D03*
D03*
X265800Y564200D03*
D03*
X266250Y576550D03*
X259080Y589280D03*
X262400Y584200D03*
D03*
X266452Y597003D03*
X259080Y601980D03*
X262600Y606500D03*
D03*
Y614100D03*
D03*
X262700Y622100D03*
D03*
X268700Y624700D03*
D03*
X268600Y615900D03*
D03*
X262600Y632400D03*
D03*
X257180D03*
D03*
X263830Y647470D03*
D03*
X260050Y671450D03*
D03*
X261284Y678180D03*
D03*
X275432Y7620D03*
D03*
X275500Y88300D03*
D03*
X273700Y78550D03*
X269750Y93800D03*
D03*
X271100Y100600D03*
D03*
X270550Y109200D03*
D03*
X277800Y115600D03*
D03*
X273700Y120950D03*
D03*
X277000Y125018D03*
X273700Y129050D03*
D03*
X272000Y144750D03*
D03*
X271780Y157480D03*
X277400Y150000D03*
D03*
X271780Y170180D03*
X276400Y163500D03*
X270500Y179700D03*
D03*
X273500Y189000D03*
D03*
X280162Y203708D03*
D03*
X275336Y202692D03*
D03*
X270764Y197612D03*
D03*
X272796Y200660D03*
D03*
X269140Y268500D03*
X270050Y280250D03*
X277670Y296821D03*
X273670D03*
D03*
X269669Y292820D03*
D03*
X277635Y292518D03*
D03*
X273670Y292820D03*
D03*
Y288820D03*
D03*
X277670Y289052D03*
D03*
X268986Y289560D03*
D03*
X269669Y300821D03*
Y308820D03*
Y304819D03*
Y300821D03*
Y308820D03*
Y304819D03*
X277670Y300821D03*
D03*
X276726Y310916D03*
X274182Y306782D03*
X277670Y308820D03*
X273670D03*
Y300821D03*
Y304819D03*
Y308820D03*
Y300821D03*
X269669Y312820D03*
Y316821D03*
Y312820D03*
Y316821D03*
Y320821D03*
D03*
X276718Y322978D03*
X275136Y318548D03*
X278952Y323000D03*
X278316Y318866D03*
X272905Y314751D03*
X277725Y320826D03*
X277670Y312820D03*
Y316821D03*
X277725Y320826D03*
X277670Y312820D03*
X273670Y316821D03*
Y320821D03*
Y316821D03*
Y312820D03*
X273830Y324848D03*
X273670Y328820D03*
Y332820D03*
X273830Y324848D03*
X273670Y328820D03*
Y332820D03*
X269669Y324819D03*
D03*
X277670Y328820D03*
D03*
Y332820D03*
Y324819D03*
X273670Y340821D03*
Y336821D03*
Y340821D03*
X273864Y344624D03*
D03*
X277670Y344819D03*
D03*
Y336821D03*
D03*
X269957Y353172D03*
X269669Y348819D03*
Y356820D03*
X273670Y348819D03*
Y356820D03*
X269957Y353172D03*
X269669Y356820D03*
X273670Y348819D03*
Y356820D03*
X277670Y352820D03*
Y356820D03*
Y352820D03*
X269669Y368819D03*
X273670D03*
X273922Y360588D03*
X269669Y368819D03*
X273922Y360588D03*
X277670Y360821D03*
Y364819D03*
Y360821D03*
Y368819D03*
X269669Y360821D03*
D03*
X269161Y363046D03*
D03*
X270500Y373000D03*
X269669Y376820D03*
X273670Y372820D03*
X270500Y373000D03*
X269669Y376820D03*
X273670Y372820D03*
Y380821D03*
X277670D03*
X273670D03*
X277670D03*
Y372820D03*
D03*
X273670Y376820D03*
D03*
X277670Y384819D03*
Y388819D03*
Y384819D03*
X269669Y392820D03*
Y396820D03*
D03*
X276900Y447500D03*
X269200Y458550D03*
X269100Y475200D03*
X278200Y481050D03*
D03*
X269000Y496400D03*
X279200Y501850D03*
D03*
X273100Y506750D03*
D03*
X274300Y512500D03*
D03*
X269450Y517800D03*
D03*
X279146Y523373D03*
D03*
X275700Y532600D03*
D03*
X275500Y524200D03*
D03*
X279146Y536486D03*
D03*
X275400Y540800D03*
D03*
X269300Y534300D03*
D03*
X279146Y546099D03*
D03*
X279000Y555000D03*
D03*
X275400Y549900D03*
D03*
X269000Y547250D03*
D03*
X268950Y558800D03*
D03*
X271780Y576580D03*
Y589280D03*
X279600Y588700D03*
D03*
X269700Y581900D03*
D03*
X271780Y601980D03*
X270764Y608330D03*
X271780Y614680D03*
X275844Y608330D03*
D03*
X279950Y621000D03*
D03*
X269000Y633100D03*
D03*
X269600Y639900D03*
D03*
X279990Y639140D03*
D03*
X270670Y644500D03*
D03*
X278700Y659070D03*
D03*
X280150Y672300D03*
D03*
X270700Y663300D03*
D03*
X273984Y678180D03*
D03*
X288132Y7620D03*
D03*
X288300Y97650D03*
D03*
X287200Y105000D03*
D03*
X287050Y111700D03*
D03*
X290900Y121100D03*
D03*
X282750Y120150D03*
D03*
X287654Y130480D03*
X283850Y133850D03*
D03*
X282080Y125018D03*
D03*
X291300Y140250D03*
D03*
X284150Y141800D03*
D03*
X284226Y157734D03*
D03*
X287020Y155194D03*
D03*
X283300Y151200D03*
D03*
X283952Y164120D03*
D03*
Y166346D03*
D03*
X286178D03*
D03*
Y164120D03*
D03*
X288404D03*
D03*
Y166346D03*
D03*
X288036Y182626D03*
D03*
X288404Y173978D03*
D03*
X283952D03*
D03*
X286178D03*
D03*
X283952Y176522D03*
D03*
X288404D03*
D03*
X286178D03*
D03*
X291338Y194310D03*
D03*
X284226Y185674D03*
D03*
X283200Y190950D03*
D03*
X285340Y195800D03*
D03*
X284400Y202050D03*
D03*
X291636Y203044D03*
D03*
Y200818D03*
D03*
X286950Y208100D03*
D03*
X291318Y209722D03*
D03*
X291592Y221996D03*
X281671Y296821D03*
D03*
X289669Y292820D03*
D03*
X285671Y288820D03*
X289669Y296821D03*
D03*
X285671D03*
D03*
Y292820D03*
D03*
X281671Y288820D03*
D03*
Y308820D03*
X285671D03*
X281671D03*
X285671D03*
Y300821D03*
D03*
X281671D03*
D03*
X289669D03*
X285671Y312820D03*
X281671D03*
X285671Y320821D03*
X281671Y316821D03*
X285671Y312820D03*
Y320821D03*
X281671Y316821D03*
X289476Y316598D03*
D03*
X281671Y320821D03*
X289669Y312820D03*
D03*
X288920Y321297D03*
D03*
X285671Y328820D03*
Y332820D03*
Y328820D03*
X280860Y330950D03*
X281671Y332820D03*
D03*
X281454Y324899D03*
D03*
X281671Y328820D03*
X289669D03*
Y324819D03*
Y328820D03*
X285671Y340821D03*
X285312Y344306D03*
X290082Y344624D03*
X289733Y336789D03*
X290082Y344624D03*
X289733Y336789D03*
X281671Y336821D03*
Y340821D03*
Y336821D03*
Y340821D03*
X281701Y344819D03*
D03*
X289669Y352820D03*
D03*
X281814Y353210D03*
X281192Y349008D03*
D03*
X285671Y352820D03*
Y356820D03*
Y348819D03*
Y352820D03*
X289669Y364819D03*
D03*
X281671Y360821D03*
D03*
Y368819D03*
D03*
X285671D03*
Y360821D03*
Y364819D03*
Y368819D03*
Y360821D03*
Y372820D03*
X281671Y380821D03*
X285671D03*
X289669D03*
X285671Y376820D03*
Y372820D03*
X281671Y380821D03*
X285671D03*
X289669D03*
X285671Y376820D03*
X281671Y384819D03*
X285671D03*
X289669D03*
Y388819D03*
X281671Y384819D03*
X285671D03*
X289669D03*
X285671Y392820D03*
D03*
Y388819D03*
D03*
X290500Y392500D03*
D03*
X290576Y400050D03*
D03*
X290500Y396500D03*
D03*
X285000Y401500D03*
D03*
Y397500D03*
D03*
X289450Y454600D03*
X284600Y474000D03*
D03*
X290200Y489400D03*
D03*
X286100Y492800D03*
D03*
X286700Y497500D03*
D03*
X284480Y500380D03*
X287600Y501600D03*
D03*
X290100Y509500D03*
D03*
X281200Y509100D03*
D03*
X280943Y517633D03*
X290050Y513750D03*
X284500Y555500D03*
D03*
X288800Y558300D03*
D03*
X286004Y565658D03*
D03*
X284480Y576580D03*
X287900Y581700D03*
D03*
X286100Y587300D03*
D03*
X284500Y591900D03*
D03*
X282500Y603400D03*
D03*
X282000Y599100D03*
D03*
X281600Y593500D03*
D03*
X286500Y596160D03*
D03*
X292000D03*
D03*
X284480Y614680D03*
X289200Y614300D03*
D03*
X285800Y610500D03*
D03*
X281300Y625900D03*
D03*
X284000Y628100D03*
X282550Y632750D03*
D03*
X291600Y629950D03*
D03*
X284480Y640080D03*
X281080Y648060D03*
D03*
X290350Y662850D03*
D03*
X286684Y678180D03*
D03*
X300832Y7620D03*
D03*
X299750Y78300D03*
X294400Y93650D03*
D03*
X299600Y99150D03*
D03*
X299200Y108000D03*
D03*
X299466Y119126D03*
D03*
X300700Y116550D03*
D03*
X293386Y116572D03*
D03*
X294640Y133725D03*
D03*
X292734Y130480D03*
D03*
X303022Y135636D03*
D03*
X302768Y125222D03*
D03*
X303022Y130556D03*
D03*
X301068Y143900D03*
D03*
X302768Y139752D03*
D03*
X297180Y155194D03*
D03*
X293650Y150200D03*
D03*
X300482Y149860D03*
D03*
X294128Y166982D03*
D03*
Y164756D03*
D03*
X293878Y182372D03*
D03*
X294128Y173978D03*
D03*
Y176204D03*
D03*
X295656Y190754D03*
D03*
X301498Y194056D03*
D03*
X298196Y185928D03*
D03*
X303150Y186600D03*
D03*
X296088Y203044D03*
D03*
Y200818D03*
D03*
X293862D03*
D03*
Y203044D03*
D03*
X301812Y201454D03*
Y203680D03*
Y201454D03*
Y203680D03*
X293544Y209722D03*
D03*
X295770D03*
D03*
Y212266D03*
D03*
X301494Y211948D03*
Y209722D03*
Y211948D03*
Y209722D03*
X293504Y220547D03*
X303664D03*
X295402Y218948D03*
X301752D03*
X294800Y237850D03*
D03*
X298250Y245550D03*
X295650Y251450D03*
X294134Y261630D03*
X297300Y263850D03*
X296500Y257400D03*
X301384Y254082D03*
D03*
Y259488D03*
D03*
X301250Y269600D03*
X301950Y265800D03*
X300000Y278050D03*
X301244Y283464D03*
D03*
X298196D03*
D03*
X297670Y296821D03*
D03*
X293670Y288820D03*
X301670Y292820D03*
D03*
X297670Y288820D03*
X301670Y296821D03*
D03*
X297670Y292820D03*
D03*
X301670Y288820D03*
D03*
X293670Y296821D03*
D03*
Y292820D03*
D03*
X301670Y300821D03*
X302000Y304000D03*
X301670Y300821D03*
X293670Y304819D03*
D03*
X297670D03*
D03*
X293670Y300821D03*
D03*
X293290Y316657D03*
D03*
X297784Y313315D03*
D03*
X293670Y312820D03*
D03*
X297224Y316482D03*
D03*
X301678Y312781D03*
D03*
X293670Y324819D03*
D03*
X301915Y332802D03*
D03*
X301670Y328820D03*
D03*
X297670D03*
D03*
Y324819D03*
D03*
X293670Y328820D03*
D03*
X293624Y337566D03*
X293670Y344819D03*
X293624Y337566D03*
X293670Y344819D03*
X301539Y344952D03*
X297000Y337000D03*
X297712Y344800D03*
X297670Y340821D03*
X297000Y337000D03*
X297712Y344800D03*
X296842Y339000D03*
X293670Y352820D03*
D03*
X301670Y348819D03*
Y352820D03*
Y356820D03*
Y348819D03*
Y356820D03*
X297726Y352800D03*
X297670Y356820D03*
X297726Y352800D03*
X297715Y346800D03*
X297714Y354800D03*
X293670Y360821D03*
D03*
X301670Y364819D03*
Y360821D03*
Y364819D03*
X293670Y368819D03*
D03*
X297670Y360821D03*
Y368819D03*
X293670Y364819D03*
X297670D03*
Y360821D03*
Y368819D03*
X293670Y364819D03*
X296760Y362750D03*
X301670Y380821D03*
X293670D03*
X297670D03*
X301670D03*
X293670D03*
X297670D03*
X301670Y372820D03*
Y376820D03*
Y372820D03*
Y376820D03*
X293670D03*
D03*
X297670D03*
D03*
X293670Y384819D03*
X297670D03*
X301670D03*
Y388819D03*
X293670Y384819D03*
X297670D03*
X301670D03*
X302166Y392006D03*
D03*
X297670Y392820D03*
D03*
Y388819D03*
D03*
X293670Y392820D03*
D03*
Y388819D03*
D03*
X302686Y396118D03*
D03*
X297815Y400821D03*
D03*
Y396820D03*
D03*
X292298Y404796D03*
D03*
X293250Y465450D03*
D03*
X303800Y482600D03*
D03*
X301900Y475600D03*
D03*
X297600Y480100D03*
D03*
X295600Y488200D03*
D03*
X294200Y501200D03*
D03*
X302200Y504850D03*
X296418Y517906D03*
X303100Y514000D03*
X294300Y555400D03*
D03*
X297180Y563880D03*
X300700Y558200D03*
D03*
X297180Y576580D03*
X302380Y574540D03*
D03*
X301600Y590500D03*
D03*
X297200Y582000D03*
D03*
X294400Y588500D03*
D03*
X293300Y592200D03*
D03*
X296200Y599870D03*
D03*
X298630Y608500D03*
D03*
X293480Y607310D03*
D03*
X299030Y604430D03*
D03*
X295510Y604330D03*
D03*
X299000Y615900D03*
D03*
X293400D03*
D03*
X298750Y621700D03*
D03*
X302400Y627240D03*
D03*
X300980Y635190D03*
D03*
X297736Y640468D03*
D03*
X292500Y647400D03*
D03*
X299950Y673350D03*
D03*
X299384Y678180D03*
D03*
X313532Y7620D03*
D03*
X315250Y93100D03*
D03*
X305200Y93500D03*
D03*
X314100Y107550D03*
D03*
X305650Y111450D03*
D03*
X315400Y102950D03*
D03*
X309250Y103000D03*
D03*
X313300Y115350D03*
D03*
X311950Y133900D03*
D03*
X313690Y145136D03*
D03*
X308900Y138850D03*
D03*
X313690Y150216D03*
D03*
X313436Y155448D03*
D03*
X307086Y151558D03*
D03*
Y156638D03*
D03*
X313436Y160528D03*
D03*
X309100Y171550D03*
X314200Y182850D03*
X305816Y190754D03*
D03*
X311900Y189000D03*
D03*
X305562Y222250D03*
X313900Y221200D03*
X311350Y237950D03*
D03*
X304300Y249950D03*
X309150Y245650D03*
X309100Y251050D03*
X314104Y248994D03*
D03*
X307890Y261630D03*
X313296D03*
X304350Y255500D03*
X304750Y260600D03*
X308450Y257400D03*
X314422Y254400D03*
D03*
X310350Y270800D03*
X310800Y280200D03*
X310434Y284655D03*
D03*
X313632Y296522D03*
D03*
X313669Y288820D03*
Y292820D03*
X310434Y288656D03*
D03*
X305671Y288820D03*
D03*
Y292820D03*
D03*
Y296821D03*
D03*
X309669D03*
D03*
Y292820D03*
D03*
X305671Y304000D03*
X309669Y300821D03*
X305671D03*
Y304000D03*
X309669Y300821D03*
X314500Y309000D03*
X313669Y304819D03*
D03*
X309669Y308820D03*
D03*
X309706Y304782D03*
D03*
X306500Y309754D03*
D03*
X313614Y316958D03*
D03*
X305664Y317276D03*
D03*
X309669Y316821D03*
D03*
X305671Y320821D03*
D03*
X309669Y312820D03*
D03*
Y332820D03*
D03*
X313669D03*
Y324819D03*
X305671D03*
X313669Y328820D03*
Y324819D03*
X305671D03*
X309669Y328820D03*
D03*
X305671D03*
D03*
X309983Y340761D03*
X309669Y344819D03*
Y336821D03*
X309983Y340761D03*
X309669Y344819D03*
X313669Y340821D03*
Y336821D03*
Y344819D03*
Y340821D03*
X305477Y337664D03*
X305680Y345195D03*
X305477Y337664D03*
X305680Y345195D03*
X309669Y352820D03*
D03*
X313900Y348851D03*
X313669Y352820D03*
X313789Y357270D03*
X313900Y348851D03*
X313789Y357270D03*
X305671Y352820D03*
D03*
X309669Y360821D03*
Y364819D03*
Y360821D03*
Y364819D03*
X313669D03*
Y360821D03*
Y364819D03*
X305671Y360821D03*
Y368819D03*
Y360821D03*
Y368819D03*
X313669Y380821D03*
D03*
X305671Y376820D03*
X313669D03*
X309669D03*
X305671D03*
X313669D03*
X309669Y372820D03*
X313608Y372876D03*
X305671Y372820D03*
X309669D03*
X313608Y372876D03*
X309669Y380821D03*
D03*
X305671Y384819D03*
D03*
X313669Y392820D03*
X305671D03*
D03*
Y388819D03*
D03*
X313669Y384819D03*
D03*
X309669D03*
D03*
X313669Y388819D03*
D03*
X309669D03*
D03*
X315100Y403000D03*
X312978Y395822D03*
D03*
X306618Y400910D03*
D03*
Y396909D03*
D03*
X314900Y411700D03*
X310500Y408500D03*
X307400Y469600D03*
D03*
X315000Y481300D03*
D03*
X307200Y477000D03*
D03*
X311100Y487300D03*
D03*
X314200Y496700D03*
D03*
X305700Y494400D03*
X312400Y503100D03*
X315214Y517398D03*
X310388Y511556D03*
D03*
X305900Y555500D03*
D03*
X309880Y563880D03*
X311700Y558600D03*
D03*
X309880Y576580D03*
X312700Y580400D03*
D03*
X309020Y572160D03*
D03*
X308800Y590600D03*
D03*
X303900Y587600D03*
D03*
X312700D03*
D03*
X305500Y580600D03*
D03*
X309500Y604500D03*
D03*
X315000D03*
D03*
X305125D03*
D03*
X309880Y627380D03*
X311600Y618000D03*
D03*
X305500Y618300D03*
D03*
X307660Y633980D03*
D03*
X308800Y638800D03*
D03*
X307388Y640468D03*
D03*
X305900Y642000D03*
D03*
X323200Y15400D03*
D03*
X322580Y30480D03*
X319100Y21850D03*
D03*
X324500Y36850D03*
D03*
X322580Y43180D03*
X319100Y56500D03*
X326800Y78050D03*
X326500Y91000D03*
D03*
X326391Y95001D03*
D03*
X319786Y108966D03*
D03*
X324358Y131318D03*
D03*
X316400Y135060D03*
D03*
X324358Y146558D03*
Y141478D03*
Y136398D03*
X316400Y140140D03*
D03*
X318516Y145034D03*
D03*
X324665Y152509D03*
D03*
X318770Y155448D03*
D03*
X324358Y156718D03*
D03*
X317800Y149519D03*
D03*
X318770Y160528D03*
D03*
X318550Y177200D03*
X320100Y171550D03*
X321564Y188468D03*
D03*
X323088Y186944D03*
D03*
X318262Y192786D03*
D03*
X326644Y188468D03*
D03*
X318008Y195834D03*
D03*
X316200Y200750D03*
X324358Y196088D03*
D03*
X323300Y220200D03*
X323400Y237850D03*
D03*
X317300Y252750D03*
X317600Y244700D03*
X325200Y244600D03*
X325950Y249950D03*
X322690Y248994D03*
D03*
X318384Y261630D03*
X317400Y258350D03*
X325900Y255000D03*
X323550Y260200D03*
X322690Y254718D03*
D03*
X315800Y270450D03*
X325150Y280150D03*
X317670Y296821D03*
D03*
X325671Y292820D03*
X321670Y288820D03*
X325671Y296821D03*
D03*
X321670Y292820D03*
D03*
Y296821D03*
D03*
X325671Y288820D03*
D03*
X317670Y292820D03*
D03*
Y288820D03*
D03*
Y304819D03*
X321670D03*
X325317Y304924D03*
X321670Y300821D03*
X317670D03*
X325671D03*
Y308820D03*
X317670Y304819D03*
X321670D03*
X325317Y304924D03*
X321670Y300821D03*
X317861Y308890D03*
D03*
X321670Y316821D03*
D03*
X325626Y317337D03*
D03*
X317400Y317135D03*
D03*
X317670Y324819D03*
X321670D03*
Y332820D03*
X317670Y328820D03*
X321670D03*
X317670Y324819D03*
X321670D03*
Y332820D03*
X317670Y328820D03*
X325671Y332820D03*
Y324819D03*
Y332820D03*
Y324819D03*
X317670Y332820D03*
X321670Y340821D03*
Y344819D03*
Y336821D03*
Y340821D03*
X325671Y344819D03*
D03*
X317670Y336821D03*
Y344819D03*
Y340821D03*
Y336821D03*
Y344819D03*
X321670Y348819D03*
Y352820D03*
Y356820D03*
Y348819D03*
Y356820D03*
X325671Y352820D03*
D03*
X317670D03*
Y356820D03*
Y348819D03*
Y352820D03*
X325671Y360821D03*
Y368819D03*
Y360821D03*
Y368819D03*
X317670Y360821D03*
D03*
X321670D03*
Y364819D03*
Y360821D03*
Y364819D03*
Y368819D03*
D03*
X317670Y380821D03*
X321670D03*
X325671D03*
X317670D03*
X321670D03*
X325671D03*
Y376820D03*
X317670Y372820D03*
D03*
X322611Y376744D03*
D03*
X317112Y376820D03*
D03*
X321670Y388819D03*
Y392820D03*
X325671Y384819D03*
X321670D03*
X317670D03*
X325671Y388819D03*
D03*
Y392820D03*
D03*
X317670D03*
D03*
Y388819D03*
D03*
X321670Y396820D03*
X325671D03*
X325093Y400243D03*
D03*
X326300Y467800D03*
D03*
X323300Y467400D03*
D03*
X315900Y467900D03*
D03*
X322900Y486700D03*
D03*
X327152Y496316D03*
X320040Y493268D03*
D03*
X322580Y513080D03*
X327152Y512064D03*
X325882Y523240D03*
X322580Y525780D03*
Y538480D03*
Y551180D03*
X316500Y555400D03*
D03*
X321700Y555350D03*
D03*
Y558800D03*
D03*
X323088Y565150D03*
D03*
Y567436D03*
D03*
X320802D03*
D03*
Y565150D03*
D03*
X323560Y573500D03*
D03*
X326800Y580200D03*
D03*
X322200Y577600D03*
D03*
X317000Y577400D03*
D03*
X316650Y572050D03*
X316700Y590900D03*
D03*
X327000Y588200D03*
D03*
X322800Y593700D03*
D03*
X320400Y601100D03*
D03*
X322580Y614680D03*
X321200Y608300D03*
D03*
X325800Y611500D03*
D03*
X322580Y627380D03*
X326100Y618800D03*
D03*
X326000Y626400D03*
D03*
X319000Y623300D03*
D03*
X318800Y617800D03*
D03*
X322800Y635100D03*
D03*
X319000Y629900D03*
D03*
X316380Y634280D03*
D03*
X326750Y641200D03*
X315800Y644450D03*
X322580Y652780D03*
X318500Y672100D03*
D03*
X325400Y668800D03*
D03*
X323550Y676850D03*
D03*
X333250Y21100D03*
D03*
X335280Y68580D03*
X335153Y114173D03*
D03*
X329438Y131318D03*
D03*
X330216Y145943D03*
D03*
X329400Y137454D03*
D03*
X329438Y141478D03*
D03*
X330548Y151638D03*
D03*
X329438Y157480D03*
D03*
X338450Y177150D03*
X331300Y171350D03*
X334000Y185200D03*
X331750Y194450D03*
X328676Y187960D03*
D03*
X327914Y192532D03*
D03*
X335300Y201050D03*
X335200Y221450D03*
X331900Y243250D03*
D03*
X332000Y262400D03*
X330050Y274550D03*
X336900Y280300D03*
X329669Y284819D03*
D03*
X333669D03*
D03*
Y296821D03*
D03*
X337670D03*
X333669Y288820D03*
X329669Y292820D03*
Y288820D03*
D03*
Y296821D03*
D03*
X333669Y304819D03*
D03*
Y300821D03*
D03*
X337670D03*
X333669Y308820D03*
D03*
X337670Y304819D03*
D03*
Y308820D03*
D03*
X329669D03*
D03*
Y300821D03*
D03*
X333669Y312820D03*
X329669D03*
X332500Y315000D03*
D03*
X333669Y320821D03*
D03*
X329500Y317000D03*
D03*
X329669Y320821D03*
D03*
X337670D03*
D03*
X337875Y313025D03*
D03*
X338000Y316732D03*
D03*
X329600Y328400D03*
D03*
X337670Y332820D03*
D03*
X333869D03*
D03*
X333669Y328820D03*
D03*
X329669Y332820D03*
X331900Y330400D03*
X337670Y328820D03*
D03*
Y324819D03*
D03*
X333669D03*
D03*
X337670Y340821D03*
X338000Y345000D03*
X329669Y336821D03*
D03*
X337670D03*
D03*
X329669Y344819D03*
D03*
X334550Y344050D03*
D03*
X337670Y348819D03*
X329669Y356820D03*
X333669Y348819D03*
D03*
Y352820D03*
D03*
Y356820D03*
D03*
X329731Y348738D03*
X329669Y352820D03*
X337670Y356820D03*
D03*
Y352820D03*
D03*
X333669Y368819D03*
X334255Y364882D03*
D03*
X329677Y368588D03*
D03*
X329533Y365500D03*
D03*
X337670Y364819D03*
D03*
Y368819D03*
D03*
Y360821D03*
D03*
X333669D03*
D03*
X329669Y380821D03*
D03*
X333669Y376820D03*
D03*
Y372820D03*
D03*
X329669D03*
X333669Y380821D03*
X337670Y376820D03*
D03*
Y372820D03*
D03*
Y380821D03*
D03*
X333669Y388819D03*
X337670D03*
Y392820D03*
X333669Y384819D03*
X329669D03*
X333669Y392820D03*
X329669Y388819D03*
D03*
Y392820D03*
D03*
X337670Y384819D03*
D03*
Y396820D03*
X333669D03*
X331700Y395000D03*
X330534Y397685D03*
X337782Y405044D03*
D03*
X337670Y400821D03*
D03*
X332123Y408577D03*
X331200Y412600D03*
D03*
X333400Y465800D03*
D03*
X337400Y481400D03*
D03*
X334400Y486800D03*
D03*
Y483530D03*
D03*
X332486Y496316D03*
X338328Y493522D03*
X338950Y488900D03*
D03*
X334950Y490600D03*
D03*
X338328Y502300D03*
D03*
X332740Y501650D03*
D03*
X330581Y515493D03*
D03*
X338328Y520700D03*
D03*
Y516636D03*
D03*
X335026Y528320D03*
Y541528D03*
X338360Y545338D03*
D03*
X335100Y552500D03*
X328550Y559900D03*
D03*
X327900Y577800D03*
D03*
X336100Y568900D03*
X333300Y585500D03*
D03*
X335300Y581050D03*
D03*
X338050Y589300D03*
D03*
X331350Y591350D03*
D03*
X331200Y596050D03*
D03*
X332000Y603900D03*
D03*
X335280Y614680D03*
X330900Y630300D03*
D03*
X334700Y634900D03*
D03*
X338650Y644050D03*
X344522Y53815D03*
X345750Y44100D03*
D03*
X347980Y68580D03*
X347400Y78300D03*
X341630Y96520D03*
D03*
X348662Y109728D03*
X348650Y101950D03*
D03*
X345950Y108050D03*
D03*
X342800Y114300D03*
D03*
X343000Y118500D03*
D03*
X348460Y114824D03*
D03*
X340655Y132588D03*
D03*
X344457Y134324D03*
X346150Y137156D03*
X349859Y139970D03*
X346456Y142800D03*
D03*
X344457Y139986D03*
D03*
X350200Y146600D03*
D03*
X341628Y171116D03*
D03*
X348867Y162625D03*
D03*
X341628Y176775D03*
X350000Y178500D03*
D03*
X350116Y185264D03*
X347287Y188096D03*
X347900Y185400D03*
X340400Y189200D03*
X340614Y204724D03*
X343662Y200660D03*
D03*
X345750Y196350D03*
D03*
X350228Y201088D03*
D03*
Y203314D03*
Y205540D03*
Y203314D03*
Y205540D03*
X342203Y212302D03*
X343916Y210312D03*
X350228Y207766D03*
Y209992D03*
Y212218D03*
Y207766D03*
Y209992D03*
Y212218D03*
X350266Y214376D03*
D03*
X348150Y227900D03*
X347726Y219456D03*
D03*
X339600Y252000D03*
D03*
X348900Y256700D03*
X344150Y275050D03*
X349669Y284819D03*
D03*
X345671D03*
D03*
X349669Y296821D03*
X341670D03*
X349669Y288820D03*
D03*
X341670D03*
D03*
Y292820D03*
D03*
X345671D03*
D03*
X349669D03*
D03*
X345671Y288820D03*
D03*
Y296821D03*
D03*
Y300821D03*
Y304819D03*
Y308820D03*
X341670Y300821D03*
D03*
X341677Y304282D03*
D03*
X349669Y300821D03*
D03*
X341684Y308424D03*
D03*
X345671Y316821D03*
Y312820D03*
Y320821D03*
X341708Y312338D03*
D03*
X341670Y316480D03*
D03*
Y320622D03*
D03*
X345671Y324819D03*
Y328820D03*
Y332820D03*
X341670D03*
D03*
Y328678D03*
D03*
Y324764D03*
D03*
X345671Y336821D03*
X341670Y340821D03*
X341624Y336947D03*
D03*
X349669Y348819D03*
X345671D03*
X341670D03*
X345671Y356820D03*
Y352820D03*
X343590Y347210D03*
D03*
X341670Y356679D03*
D03*
Y352444D03*
D03*
X345671Y360821D03*
Y364819D03*
Y368819D03*
X341708Y368536D03*
D03*
X341670Y364819D03*
D03*
Y360821D03*
D03*
X345671Y376820D03*
Y380821D03*
Y372820D03*
X341670Y376820D03*
D03*
Y372678D03*
D03*
Y380821D03*
D03*
Y392820D03*
D03*
X345671Y384819D03*
X349669Y388819D03*
X345671Y392820D03*
X349669D03*
X341670Y384819D03*
D03*
Y388961D03*
D03*
X345671Y388819D03*
D03*
X349720Y396774D03*
D03*
X341670Y396820D03*
D03*
X345671D03*
D03*
X341670Y400821D03*
X349720Y400044D03*
D03*
X345722D03*
D03*
X349300Y408750D03*
D03*
X346650Y406500D03*
D03*
X343614Y416500D03*
D03*
X346300Y475000D03*
X341226Y463900D03*
D03*
X341800Y481350D03*
D03*
X350520Y498602D03*
X347700Y493950D03*
D03*
X348300Y502800D03*
D03*
X348400Y507900D03*
D03*
X341376Y502412D03*
D03*
X347726Y521970D03*
X348742Y515874D03*
X349504Y519176D03*
X349758Y522986D03*
X340106Y524256D03*
D03*
X347726Y525780D03*
X349504Y527304D03*
X349292Y531429D03*
D03*
X341630Y545338D03*
D03*
X349292Y535430D03*
D03*
X345862Y561913D03*
X339550Y560100D03*
X345350Y568150D03*
X339640Y573500D03*
X340450Y580400D03*
X349500Y572700D03*
D03*
X344150Y586150D03*
D03*
X349680Y591200D03*
D03*
X341950Y589600D03*
D03*
X340950Y584350D03*
D03*
X340700Y603150D03*
D03*
X346000Y596300D03*
D03*
X340000Y595950D03*
D03*
X350500Y604730D03*
D03*
X349710Y612322D03*
D03*
X362200Y45400D03*
D03*
X351126Y54864D03*
X360680Y68580D03*
X351750Y93000D03*
D03*
X358888Y99614D03*
D03*
X358902Y104902D03*
D03*
X353900Y107100D03*
D03*
X358902Y109982D03*
D03*
X353525Y120396D03*
X353540Y114824D03*
X358902Y115746D03*
X359000Y141800D03*
D03*
X351800Y142800D03*
D03*
X355800Y145700D03*
D03*
X355346Y150622D03*
X358608Y148474D03*
D03*
X357700Y154100D03*
D03*
X352946Y154136D03*
D03*
X352806Y148844D03*
D03*
X355778Y156966D03*
D03*
X361300Y150800D03*
D03*
X352946Y159795D03*
D03*
X361437Y162625D03*
D03*
X352946Y171116D03*
D03*
X355778Y162625D03*
D03*
X358608Y159795D03*
D03*
X358600Y176700D03*
X359600Y171400D03*
X352700Y177029D03*
D03*
X357025Y179671D03*
D03*
X361437Y179605D03*
D03*
X354193Y182500D03*
D03*
X358608Y182434D03*
D03*
X351900Y193250D03*
X352946Y188096D03*
D03*
X360532Y229224D03*
D03*
X352806Y219456D03*
D03*
X362122Y239400D03*
X355150Y235650D03*
X352628Y231724D03*
D03*
X361950Y242316D03*
D03*
X352600Y280250D03*
X360000Y286300D03*
X360450Y279200D03*
X353669Y296821D03*
X357650Y291900D03*
X353669Y292820D03*
D03*
Y336821D03*
Y340821D03*
X351000Y342000D03*
D03*
X353669Y348819D03*
Y352820D03*
Y388819D03*
X354100Y404200D03*
D03*
X361550Y398450D03*
D03*
X360525Y402752D03*
D03*
X356713D03*
D03*
X362350Y410450D03*
D03*
X356240Y412200D03*
X361950Y415750D03*
D03*
X361850Y405600D03*
D03*
X358875Y443025D03*
D03*
X357124Y496824D03*
D03*
X362204D03*
D03*
X357378Y519176D03*
D03*
X361950Y519684D03*
D03*
X353743Y521716D03*
D03*
Y519431D03*
D03*
X361741Y527429D03*
X357743Y523431D03*
Y527429D03*
X357378Y531876D03*
D03*
X361741Y531429D03*
D03*
X353743D03*
D03*
X357743Y535430D03*
D03*
X353743D03*
D03*
X361741D03*
D03*
X357743Y541782D03*
D03*
X352400Y549500D03*
X362095Y545706D03*
D03*
X357290Y556833D03*
D03*
Y561913D03*
X351697Y561857D03*
X354800Y570750D03*
D03*
X352400Y575150D03*
D03*
X358280Y572300D03*
D03*
X361550D03*
D03*
X353700Y592200D03*
D03*
X353550Y586650D03*
D03*
X353900Y597400D03*
D03*
X357284Y597719D03*
D03*
X362284D03*
D03*
X352210Y625322D03*
D03*
X351400Y643700D03*
X364332Y7620D03*
D03*
X372700Y40600D03*
D03*
X366000Y55750D03*
X373380Y68580D03*
X368500Y85750D03*
X364098Y94254D03*
D03*
X369194Y94410D03*
D03*
X363808Y99488D03*
D03*
X369316Y99314D03*
D03*
X374000Y98500D03*
D03*
X369316Y104822D03*
D03*
X364046Y104840D03*
D03*
X369316Y109982D03*
D03*
X364044Y109920D03*
D03*
X364023Y113431D03*
D03*
X369316Y115744D03*
X363784Y121226D03*
D03*
X367252Y139986D03*
D03*
X372800Y140700D03*
D03*
X366500Y145550D03*
D03*
X362682Y145541D03*
D03*
X372758Y156966D03*
X367284Y151384D03*
D03*
X372758Y151304D03*
D03*
X365760Y148474D03*
D03*
X368548Y156966D03*
D03*
X369926Y148474D03*
D03*
X365250Y154136D03*
D03*
X372758Y168284D03*
D03*
X367096Y162625D03*
D03*
X372758D03*
D03*
X369926Y182434D03*
D03*
X365900Y178300D03*
X364400Y182650D03*
X369926Y176775D03*
D03*
X372758Y179605D03*
D03*
X367096Y173946D03*
D03*
X369926Y188096D03*
D03*
X364550Y193350D03*
X364500Y201900D03*
X364750Y213900D03*
X365000Y225050D03*
X371060Y229088D03*
D03*
X365620Y229224D03*
D03*
X373252D03*
D03*
X362758D03*
D03*
X368482D03*
D03*
X372298Y239400D03*
D03*
X373252Y231450D03*
D03*
Y233676D03*
D03*
X363076Y233358D03*
D03*
X368164D03*
D03*
X369118Y241944D03*
D03*
X372800Y251600D03*
D03*
X368050Y247050D03*
D03*
X373150Y262950D03*
D03*
X366700Y262900D03*
D03*
X362700Y275700D03*
D03*
X365800Y266600D03*
D03*
X367400Y270700D03*
D03*
X362550Y270200D03*
D03*
X362500Y265500D03*
D03*
X369316Y265938D03*
D03*
X374040Y287131D03*
D03*
X370745Y319982D03*
D03*
X373088Y365621D03*
D03*
X371877Y383689D03*
D03*
X367300Y415550D03*
D03*
X371364Y434192D03*
D03*
X365522Y435970D03*
D03*
X365700Y462700D03*
D03*
X368900Y460000D03*
D03*
X367100Y474200D03*
D03*
X372126Y469900D03*
D03*
X362474D03*
D03*
X363300Y486700D03*
D03*
X363000Y477300D03*
D03*
X368000Y486900D03*
D03*
X370400Y480800D03*
D03*
X369062Y496824D03*
D03*
X364900Y501800D03*
D03*
X371500Y507900D03*
D03*
X363300Y503700D03*
D03*
X373380Y513080D03*
X370036Y519725D03*
D03*
X365252Y518922D03*
X363728Y516890D03*
X369742Y515430D03*
D03*
X370078Y531114D03*
D03*
X369824Y527812D03*
D03*
X365741Y527429D03*
D03*
X364744Y524256D03*
D03*
X369824Y523240D03*
D03*
X365741Y535430D03*
D03*
X370165Y535853D03*
D03*
X366600Y553000D03*
D03*
X370000Y546900D03*
D03*
X372789Y549287D03*
D03*
X365365Y545706D03*
D03*
X366490Y562421D03*
X372345Y562365D03*
X370450Y567950D03*
X364950Y571000D03*
D03*
X367284Y588969D03*
D03*
Y593344D03*
D03*
X367350Y598300D03*
X373150Y599585D03*
D03*
X369710Y612322D03*
D03*
X364400Y613350D03*
D03*
Y610950D03*
D03*
X372500Y621650D03*
D03*
X364400Y615950D03*
D03*
X366950Y633450D03*
D03*
Y631300D03*
D03*
X362700Y640000D03*
X376050Y33200D03*
D03*
X385450Y42450D03*
D03*
X375500Y45500D03*
D03*
X374950Y78300D03*
X384000Y88500D03*
D03*
X384500Y95500D03*
X385000Y100000D03*
D03*
X385004Y105140D03*
D03*
X374462Y104822D03*
X379564Y105076D03*
X374462Y109902D03*
D03*
X379000Y109500D03*
D03*
X380500Y111000D03*
D03*
X385050Y115744D03*
X379564D03*
X374462D03*
Y120824D03*
D03*
X379564D03*
X378500Y144500D03*
X381247Y137156D03*
X376200Y142200D03*
D03*
X378206Y137668D03*
D03*
X381731Y140138D03*
D03*
X384076Y156966D03*
D03*
X375900Y148500D03*
X378460Y156972D03*
D03*
X380875Y164555D03*
D03*
X378417Y162625D03*
X375587Y165454D03*
X378417Y162625D03*
X375587Y165454D03*
X383903Y161644D03*
X375587Y159795D03*
D03*
X381247D03*
D03*
X380790Y171133D03*
D03*
X384810Y168148D03*
D03*
X381043Y176489D03*
D03*
X378417Y173946D03*
D03*
X383805Y175080D03*
D03*
X381247Y188096D03*
X383762Y189658D03*
D03*
X381247Y188096D03*
X384076Y185264D03*
X382386Y183631D03*
X384076Y185264D03*
X382386Y183631D03*
X385572Y201930D03*
D03*
X378206Y203962D03*
D03*
X381508Y200660D03*
D03*
X385572Y207010D03*
D03*
X377952Y213868D03*
X381508Y210312D03*
X381844Y229096D03*
X378346Y221782D03*
D03*
X381526Y219874D03*
D03*
X378664Y231004D03*
X378728Y239400D03*
D03*
X381590Y237174D03*
D03*
X378410Y249258D03*
X381908Y247032D03*
X382250Y270750D03*
D03*
X382641Y294070D03*
D03*
X374640D03*
D03*
Y300570D03*
Y307070D03*
D03*
Y313569D03*
X382620Y312824D03*
D03*
X382748Y319125D03*
D03*
X374640Y326569D03*
X382641Y333069D03*
X374640Y333351D03*
D03*
X382641Y352571D03*
X374640Y353214D03*
D03*
Y359071D03*
Y372071D03*
X382705Y371981D03*
D03*
X374572Y378000D03*
D03*
X383211Y391233D03*
D03*
X374640Y391570D03*
D03*
X374207Y398988D03*
D03*
X377884Y432952D03*
D03*
X377600Y460200D03*
D03*
X375600Y473900D03*
D03*
X375700Y479700D03*
D03*
X376000Y487000D03*
D03*
X374396Y496824D03*
D03*
X375200Y501500D03*
D03*
X375300Y506200D03*
D03*
X376950Y509600D03*
X380550Y504350D03*
X384100Y512900D03*
X381350Y515550D03*
X377350Y517500D03*
X382950Y525900D03*
X377600Y525350D03*
X378000Y541500D03*
X382500Y536100D03*
X376428Y534416D03*
D03*
X379600Y548600D03*
D03*
X376059Y549287D03*
D03*
X377698Y562356D03*
X380800Y574150D03*
X375650Y575060D03*
D03*
X380300Y583050D03*
X382500Y596600D03*
D03*
X377250Y595550D03*
D03*
X384400Y608600D03*
D03*
X379710Y612322D03*
D03*
X377210Y625322D03*
D03*
X384650Y642950D03*
X375100Y641850D03*
X374750Y652150D03*
X394888Y27204D03*
D03*
X389450Y33050D03*
D03*
X385850Y48100D03*
X394900Y47000D03*
D03*
X386900Y56700D03*
X393000Y57540D03*
X386080Y68580D03*
X388874Y88646D03*
D03*
X396636Y88504D03*
D03*
X389338Y94814D03*
D03*
Y99894D03*
D03*
X390274Y105330D03*
D03*
X395536Y105348D03*
D03*
Y110428D03*
D03*
X386500Y110220D03*
D03*
X395518Y115998D03*
X390224Y115744D03*
X391400Y113500D03*
X390224Y120824D03*
X387600Y128600D03*
X391700Y127500D03*
X389344Y134144D03*
D03*
X389000Y124500D03*
D03*
X389576Y140148D03*
D03*
X392567Y142815D03*
D03*
X395986Y146304D03*
D03*
X389373Y157812D03*
D03*
X386908Y154136D03*
D03*
X392358Y148103D03*
D03*
X389738Y151304D03*
D03*
X395397Y156966D03*
D03*
X388319Y165514D03*
D03*
X392567Y165454D03*
D03*
X395397Y168284D03*
D03*
X389738Y162625D03*
X395397D03*
D03*
X386908Y159795D03*
X392567D03*
D03*
Y182434D03*
D03*
X392695Y171960D03*
D03*
X392567Y176775D03*
D03*
Y188096D03*
X387096Y205486D03*
D03*
X386842Y200152D03*
D03*
X391064Y228970D03*
D03*
X396152Y229288D03*
D03*
X394880Y239782D03*
D03*
X396494Y233680D03*
D03*
X391414D03*
D03*
X391059Y231407D03*
D03*
X393695Y233823D03*
D03*
X391700Y242326D03*
X390837Y274323D03*
D03*
X386650Y273000D03*
D03*
X390639Y281070D03*
D03*
X390617Y287548D03*
D03*
X390639Y298980D03*
D03*
Y295660D03*
D03*
Y307070D03*
D03*
X390689Y312400D03*
X390639Y317638D03*
D03*
Y326569D03*
Y333351D03*
D03*
Y353214D03*
D03*
Y359071D03*
D03*
X386730Y362251D03*
D03*
X391314Y364927D03*
D03*
X390639Y372071D03*
X390738Y379277D03*
D03*
X390639Y386660D03*
D03*
Y389980D03*
D03*
Y404570D03*
D03*
X390617Y398048D03*
D03*
X390639Y411070D03*
X392500Y417300D03*
D03*
X390100Y439300D03*
D03*
X388022Y437200D03*
D03*
X388600Y433040D03*
D03*
X393100Y470700D03*
D03*
X390600Y476500D03*
D03*
X394200Y476850D03*
D03*
X389500Y490700D03*
D03*
X389750Y499700D03*
X396450Y500250D03*
X387350Y503730D03*
D03*
Y509064D03*
D03*
X387500Y513000D03*
D03*
X392550D03*
D03*
X396550Y515550D03*
X387096Y516890D03*
D03*
X396550Y526700D03*
Y523250D03*
X387096Y522224D03*
D03*
Y529336D03*
D03*
X396000Y530230D03*
D03*
Y533500D03*
D03*
X397400Y537000D03*
D03*
X387096Y534416D03*
D03*
X392264Y545200D03*
D03*
X387096Y544322D03*
D03*
X392900Y552300D03*
X392500Y568500D03*
X386200Y563400D03*
X396400Y577800D03*
D03*
X388350Y579900D03*
X397000Y588600D03*
D03*
X396600Y584000D03*
D03*
X390240Y591850D03*
D03*
X386080Y601980D03*
X389200Y596600D03*
D03*
X396900Y594000D03*
D03*
X392900Y604700D03*
D03*
X386900D03*
D03*
X390000Y613950D03*
D03*
Y611850D03*
D03*
X387210Y625322D03*
D03*
X390010Y616048D03*
D03*
X386250Y633800D03*
X392209Y633951D03*
D03*
Y631351D03*
D03*
X406178Y33020D03*
D03*
X408300Y54050D03*
X401800Y46800D03*
D03*
X398780Y68580D03*
X400250Y77100D03*
X404562Y88225D03*
D03*
X398780Y93980D03*
X404622Y93218D03*
D03*
X405892Y110062D03*
D03*
Y120982D03*
D03*
Y115320D03*
D03*
X406848Y145752D03*
D03*
X402358Y142082D03*
D03*
X399808Y145600D03*
D03*
X407137Y139321D03*
D03*
X398054Y148500D03*
X401056Y151304D03*
D03*
X406300Y153500D03*
X405137Y148474D03*
D03*
X406718Y156966D03*
D03*
X398226Y165454D03*
D03*
Y159795D03*
D03*
X403888Y171116D03*
D03*
X401056Y173946D03*
D03*
X403888Y176775D03*
D03*
X401320Y179578D03*
D03*
X403606Y181864D03*
D03*
X398226Y176775D03*
D03*
Y182434D03*
D03*
X406718Y179605D03*
D03*
X405892Y185166D03*
X398226Y188096D03*
D03*
X401240Y229288D03*
D03*
X406400Y229108D03*
D03*
X405374Y239782D03*
D03*
X398780Y233680D03*
D03*
X406400Y231140D03*
D03*
X406146Y233426D03*
D03*
X401320Y233680D03*
D03*
X403860D03*
D03*
X401876Y242326D03*
D03*
X406641Y274570D03*
D03*
X398640D03*
D03*
X406641Y287570D03*
D03*
Y281070D03*
D03*
X402844Y278364D03*
D03*
X398618Y287548D03*
D03*
X398640Y281070D03*
D03*
Y294070D03*
D03*
X406641D03*
D03*
Y300570D03*
Y307070D03*
D03*
Y313569D03*
Y320069D03*
D03*
X399792Y318866D03*
D03*
X403926Y322138D03*
D03*
X398640Y313569D03*
D03*
Y333069D03*
Y353214D03*
D03*
X406641Y365571D03*
D03*
X398846Y364349D03*
D03*
X398640Y359748D03*
D03*
X406641Y359071D03*
D03*
Y372071D03*
D03*
Y378570D03*
D03*
X398618Y378548D03*
D03*
X398958Y372071D03*
D03*
X398640Y391570D03*
D03*
X406641Y385070D03*
D03*
Y391570D03*
D03*
Y398070D03*
D03*
X398618Y398048D03*
D03*
X406641Y404570D03*
D03*
X398618Y404548D03*
D03*
X406474Y411086D03*
D03*
X398640Y411206D03*
D03*
X397600Y433000D03*
D03*
X402400Y471100D03*
D03*
X401600Y481200D03*
D03*
X398100Y486600D03*
D03*
X408300Y485300D03*
D03*
X404850Y481750D03*
D03*
X401230Y485200D03*
D03*
X404500D03*
D03*
X399650Y502600D03*
X403900Y503300D03*
X404500Y521950D03*
D03*
X406500Y513950D03*
D03*
X407150Y517700D03*
X402250Y511950D03*
X398650Y513650D03*
X403500Y515430D03*
D03*
Y518700D03*
D03*
X399400Y533500D03*
X399550Y529600D03*
X400500Y522450D03*
X405050Y542550D03*
D03*
X406700Y534650D03*
D03*
X397600Y540500D03*
X404150Y549550D03*
D03*
X404450Y565400D03*
D03*
X404300Y558600D03*
D03*
X399100Y563700D03*
X400800Y571600D03*
X405300Y584400D03*
D03*
X401200D03*
D03*
X406400Y591805D03*
D03*
X398780Y614680D03*
X404710Y612322D03*
D03*
X408700Y610000D03*
D03*
X407210Y625322D03*
D03*
X404800Y632900D03*
D03*
X404300Y635300D03*
D03*
X415800Y38000D03*
D03*
X417262Y32600D03*
D03*
X419100Y44400D03*
D03*
X411480Y68580D03*
X414100Y86000D03*
D03*
X413512Y100076D03*
D03*
X411480Y93980D03*
X418150Y94000D03*
D03*
X419606Y100534D03*
D03*
X411226Y111506D03*
D03*
X414274Y108712D03*
D03*
X410464Y103124D03*
D03*
X411480Y106680D03*
X419606Y105412D03*
D03*
X412377Y139986D03*
D03*
X415206Y137156D03*
D03*
X409547Y142815D03*
Y165453D03*
D03*
X415206Y170434D03*
D03*
X409547Y182434D03*
D03*
X413500Y179605D03*
D03*
X415206Y176775D03*
D03*
X416640Y206232D03*
D03*
Y201152D03*
D03*
X411318D03*
D03*
X411455Y206537D03*
D03*
X420624Y215646D03*
D03*
X411480Y215172D03*
D03*
X414342Y211674D03*
D03*
X420624Y225806D03*
X411480Y225348D03*
D03*
X414342Y221850D03*
D03*
X415350Y235100D03*
X411900Y249000D03*
X419350Y270600D03*
X410294Y307426D03*
D03*
X410329Y310775D03*
D03*
X410647Y316648D03*
D03*
X410139Y323868D03*
D03*
X410965Y366257D03*
D03*
X413509Y362123D03*
D03*
X411261Y375139D03*
D03*
X414600Y415950D03*
X417700Y429500D03*
D03*
X411700Y429600D03*
D03*
X418800Y458200D03*
D03*
Y483400D03*
D03*
X418600Y491900D03*
D03*
X417750Y489150D03*
D03*
X416300Y518100D03*
D03*
X418930Y515900D03*
D03*
X414200Y541150D03*
D03*
X418000Y543900D03*
D03*
X409700Y540750D03*
D03*
X418500Y567200D03*
D03*
Y562100D03*
D03*
X412100Y559450D03*
D03*
X409900Y571700D03*
X416700Y572200D03*
D03*
X420200Y577400D03*
D03*
X415751Y580551D03*
D03*
X409702Y584454D03*
D03*
X420600Y591300D03*
X411401Y591805D03*
D03*
X410900Y600000D03*
D03*
X415700Y594200D03*
D03*
X417800Y600100D03*
D03*
X415500Y607500D03*
D03*
X409700Y617000D03*
D03*
X418500Y635200D03*
D03*
X423100Y35400D03*
D03*
X422150Y38850D03*
D03*
X426650Y53450D03*
X424180Y68580D03*
X425550Y76850D03*
X431800Y86350D03*
D03*
X424180Y106680D03*
X431798Y170670D03*
D03*
Y160196D03*
D03*
X426718D03*
D03*
Y170670D03*
D03*
Y165419D03*
D03*
X431800Y175768D03*
D03*
X424180Y211328D03*
D03*
Y221488D03*
X431400Y236760D03*
D03*
X422800Y243550D03*
X430639Y274570D03*
D03*
Y287570D03*
D03*
Y281070D03*
D03*
Y294070D03*
D03*
Y300570D03*
D03*
Y307070D03*
D03*
X431601Y312863D03*
D03*
X429693Y318871D03*
D03*
X432000Y327000D03*
D03*
X430639Y365571D03*
D03*
X426984Y365170D03*
D03*
X426314Y360460D03*
D03*
X432229Y359071D03*
D03*
X430639Y372071D03*
D03*
Y378570D03*
D03*
X427170Y370320D03*
D03*
X430639Y385070D03*
D03*
Y391570D03*
D03*
Y398070D03*
D03*
Y404570D03*
D03*
Y411070D03*
D03*
X429400Y429300D03*
D03*
X425400D03*
D03*
X424180Y449580D03*
X430200Y462100D03*
D03*
X432000Y492600D03*
D03*
X426300Y493000D03*
D03*
X427900Y510200D03*
D03*
X424600Y518600D03*
D03*
X431450Y515750D03*
D03*
X425650Y515550D03*
D03*
X422200Y515900D03*
D03*
X428550Y539900D03*
D03*
X424300Y567100D03*
D03*
X429300Y564100D03*
D03*
X423600Y572500D03*
D03*
X424602Y576878D03*
D03*
X429936D03*
D03*
X430500Y586000D03*
D03*
X423300Y599900D03*
D03*
X422300Y595400D03*
D03*
X429600Y605000D03*
D03*
X430000Y611700D03*
D03*
X430100Y621400D03*
D03*
X429700Y629600D03*
D03*
X429300Y634800D03*
D03*
X423900Y634600D03*
D03*
X431700Y644600D03*
D03*
X436400Y41000D03*
D03*
X436443Y32512D03*
D03*
X436880Y68580D03*
Y93980D03*
Y106680D03*
X433561Y140130D03*
X443290Y165331D03*
Y170633D03*
X433207Y164615D03*
D03*
X443200Y160116D03*
D03*
X438120D03*
D03*
X438210Y165331D03*
D03*
Y170633D03*
D03*
X443544Y175935D03*
D03*
X438464D03*
D03*
X432908Y187396D03*
X432854Y197608D03*
X435850Y202050D03*
D03*
X443750Y201950D03*
D03*
X438150Y200152D03*
D03*
X433832Y216916D03*
D03*
X433578Y210820D03*
X433832Y207010D03*
X433578Y210820D03*
X433832Y207010D03*
X441929Y208920D03*
D03*
X434086Y227076D03*
D03*
X433832Y221234D03*
D03*
Y231140D03*
D03*
X441628Y236846D03*
D03*
X436370Y236756D03*
D03*
X438640Y274570D03*
D03*
X438618Y287548D03*
D03*
Y281048D03*
D03*
X438640Y294070D03*
D03*
X438618Y320047D03*
D03*
X434708Y317472D03*
D03*
X442851Y317007D03*
D03*
X438640Y313569D03*
D03*
Y333069D03*
X442533Y323545D03*
D03*
X437073Y327000D03*
D03*
X438640Y352571D03*
X439900Y368821D03*
D03*
X436895Y359226D03*
D03*
X438640Y372071D03*
D03*
Y391570D03*
D03*
Y398070D03*
D03*
X438618Y404548D03*
D03*
X438640Y411070D03*
D03*
X438200Y429300D03*
D03*
X443100D03*
D03*
X434200D03*
D03*
X440660Y450040D03*
D03*
X435800Y466300D03*
D03*
X432700Y483400D03*
D03*
X440700Y483200D03*
D03*
X439300Y492400D03*
D03*
X443357Y503100D03*
D03*
X434900Y508200D03*
D03*
X441100Y519400D03*
D03*
X438350Y514400D03*
D03*
X441550Y510500D03*
D03*
X439250Y533800D03*
D03*
X441050Y528050D03*
D03*
X444150Y559200D03*
X435300Y568300D03*
X433350Y559450D03*
X434200Y578100D03*
D03*
X440150Y579800D03*
X433600Y591300D03*
X434300Y582400D03*
D03*
X438200Y587500D03*
D03*
X442000D03*
D03*
X444200Y594800D03*
D03*
X442500Y600100D03*
D03*
Y606060D03*
D03*
X434500D03*
X434526Y631900D03*
X442474Y631700D03*
D03*
X442908Y646176D03*
X433256D03*
D03*
X434900Y647800D03*
D03*
X436880Y652780D03*
X445111Y35200D03*
D03*
X455526Y32512D03*
D03*
X447750Y54550D03*
X449580Y68580D03*
X445900Y76850D03*
X447900Y86400D03*
D03*
X449580Y93980D03*
Y106680D03*
X452600Y148000D03*
D03*
X448724Y164236D03*
X452534Y167284D03*
X448818Y181356D03*
D03*
X445250Y189850D03*
D03*
X444700Y183800D03*
D03*
X448588Y186800D03*
D03*
X455930Y198120D03*
X455650Y203200D03*
D03*
X449580Y220980D03*
Y233680D03*
Y246380D03*
X448056Y241554D03*
D03*
X445008Y243078D03*
D03*
X451350Y259900D03*
X446641Y274570D03*
D03*
Y281070D03*
D03*
X454617Y281048D03*
D03*
Y287548D03*
D03*
X454639Y294070D03*
D03*
X446641Y298980D03*
D03*
Y295660D03*
D03*
Y307070D03*
D03*
X445986Y313267D03*
D03*
X446641Y326569D03*
X454639Y333069D03*
D03*
X446641D03*
D03*
X454639Y352571D03*
D03*
X446641Y349613D03*
D03*
Y359071D03*
Y372071D03*
D03*
X446776Y378570D03*
D03*
X454639Y391570D03*
D03*
X446756Y386545D03*
D03*
X446641Y389980D03*
D03*
Y404570D03*
D03*
X454617Y404548D03*
D03*
X454639Y398070D03*
D03*
X446641Y411070D03*
D03*
X452100Y423050D03*
X446850Y419450D03*
X447100Y429300D03*
D03*
X453200Y429700D03*
D03*
X447100Y446800D03*
D03*
X446800Y453500D03*
D03*
X449000Y486600D03*
D03*
X454200Y492200D03*
D03*
X452900Y517450D03*
D03*
X449050Y541500D03*
D03*
X446350Y549700D03*
D03*
X447682Y577110D03*
X446888Y583460D03*
X449580Y601980D03*
X447300Y603800D03*
D03*
X449580Y614680D03*
X447300Y610000D03*
D03*
X449580Y627380D03*
X447200Y618100D03*
D03*
X446800Y624400D03*
D03*
X446900Y632600D03*
D03*
X446500Y636900D03*
D03*
X455750Y633900D03*
X449580Y640080D03*
Y652780D03*
X462280Y68580D03*
X464650Y76650D03*
D03*
X464700Y100600D03*
D03*
X458800Y92750D03*
D03*
X459994Y122174D03*
D03*
Y119888D03*
D03*
Y117602D03*
D03*
X461010Y123952D03*
D03*
X459994Y134112D03*
D03*
Y130048D03*
D03*
Y128016D03*
D03*
Y125984D03*
D03*
X460756Y132080D03*
D03*
X459300Y143150D03*
D03*
X460248Y138430D03*
D03*
Y136398D03*
D03*
X459700Y157200D03*
D03*
Y154600D03*
D03*
X459800Y152300D03*
D03*
X461900Y152400D03*
D03*
X461800Y154600D03*
D03*
X461900Y157100D03*
D03*
X457300Y152300D03*
D03*
X457200Y154600D03*
D03*
Y157200D03*
D03*
X464300Y152400D03*
D03*
X464200Y154600D03*
D03*
X464300Y157100D03*
D03*
X457860Y169000D03*
X462800Y168400D03*
D03*
X462940Y164000D03*
D03*
X459200Y176360D03*
Y181440D03*
D03*
Y191740D03*
D03*
Y186660D03*
D03*
X459740Y201168D03*
X464900Y194600D03*
D03*
X462788Y216916D03*
D03*
X459232Y211074D03*
X462788Y206756D03*
X459232Y211074D03*
X462788Y206756D03*
Y227076D03*
D03*
X459232Y221234D03*
D03*
Y231394D03*
D03*
X462280Y233680D03*
X456350Y237250D03*
D03*
X456200Y246000D03*
D03*
X466100Y244100D03*
D03*
X462640Y287570D03*
D03*
Y294070D03*
D03*
Y300570D03*
D03*
Y307070D03*
D03*
Y313569D03*
D03*
Y320069D03*
D03*
Y326569D03*
D03*
Y333069D03*
D03*
Y352571D03*
D03*
Y359071D03*
D03*
Y365571D03*
D03*
Y372071D03*
D03*
Y378570D03*
D03*
Y385070D03*
D03*
Y391570D03*
D03*
Y398070D03*
D03*
X465750Y424500D03*
X466349Y450040D03*
X465600Y442366D03*
D03*
X461050Y517650D03*
D03*
X466349Y526240D03*
X462450Y543100D03*
D03*
X462280Y601980D03*
Y614680D03*
X467250Y606500D03*
X456450Y610850D03*
X462280Y627380D03*
X457450Y648900D03*
X462280Y652780D03*
X469200Y38000D03*
D03*
X474500Y32512D03*
D03*
X469600Y54300D03*
X474980Y68580D03*
X478150Y85350D03*
D03*
X471150Y83500D03*
D03*
X470950Y108750D03*
D03*
X470154Y121412D03*
D03*
X472948Y118618D03*
D03*
X468700Y115350D03*
D03*
X472948Y135382D03*
D03*
X470154Y129540D03*
D03*
X472948Y126746D03*
D03*
X470408Y137922D03*
D03*
X472300Y145400D03*
D03*
X469250Y141700D03*
D03*
X472900Y156850D03*
D03*
X474980Y170180D03*
X469900Y163800D03*
D03*
X477850Y176400D03*
D03*
X468450Y182000D03*
D03*
X472300Y192500D03*
D03*
X477750Y185000D03*
D03*
X469100Y189950D03*
D03*
X474700Y202900D03*
D03*
X471450Y228200D03*
D03*
X468450Y254200D03*
X468200Y278750D03*
X469700Y300850D03*
X469950Y329750D03*
Y351200D03*
X469550Y371200D03*
X469200Y391510D03*
X472050Y415950D03*
X474980Y409194D03*
D03*
X468400Y430700D03*
D03*
X472600Y433100D03*
D03*
X478000Y436400D03*
D03*
X471300Y437722D03*
D03*
X474980Y449580D03*
X475800Y442700D03*
D03*
X474980Y462280D03*
Y474980D03*
Y576580D03*
X471200Y571500D03*
D03*
X474980Y589280D03*
Y601980D03*
Y614680D03*
X467650Y637100D03*
X474850Y627450D03*
X475350Y649650D03*
X467650Y658450D03*
X487700Y37500D03*
D03*
X482350Y44700D03*
D03*
X483550Y75300D03*
D03*
Y89500D03*
D03*
X484450Y107450D03*
X483950Y134400D03*
X484200Y164300D03*
X481400Y193300D03*
D03*
X481100Y220800D03*
D03*
X480200Y237250D03*
D03*
X481800Y250500D03*
D03*
X480600Y265600D03*
X481350Y286950D03*
X481850Y310050D03*
X481600Y332600D03*
X480850Y354450D03*
X482100Y382700D03*
X486300Y400350D03*
X486550Y416700D03*
X484700Y428600D03*
X483000Y442100D03*
D03*
X487680Y462280D03*
X484900Y453700D03*
D03*
X487680Y474980D03*
X490850Y481850D03*
X489600Y517700D03*
X488442Y560832D03*
D03*
X485540Y571700D03*
D03*
X482500Y608200D03*
X500380Y259080D03*
Y284480D03*
Y309880D03*
X494750Y317450D03*
X500380Y335280D03*
X493250Y340550D03*
X500380Y360680D03*
X492250Y365600D03*
X500380Y386080D03*
X492500Y450050D03*
X500380Y462280D03*
X493700Y461350D03*
X491600Y499800D03*
X494000Y585400D03*
D03*
X491200Y626850D03*
X492450Y647650D03*
X509450Y608200D03*
X507950Y626200D03*
X509800Y649050D03*
X519350Y460850D03*
X525780Y467830D03*
D03*
Y480530D03*
D03*
X516500Y585400D03*
D03*
Y669400D03*
D03*
G54D20*
X361900Y151733D03*
G54D11*
X7620Y485298D03*
Y497998D03*
Y510698D03*
Y523398D03*
Y561498D03*
Y574198D03*
Y586898D03*
Y599598D03*
Y612298D03*
Y624998D03*
Y637698D03*
X21200Y114350D03*
X18400Y139150D03*
X18050Y165200D03*
X18250Y207750D03*
X16300Y570000D03*
X16000Y607800D03*
X24000Y622900D03*
X17700Y617800D03*
X15800Y638200D03*
X23800Y631900D03*
X23100Y638300D03*
X34290Y136652D03*
X33020Y141986D03*
X24200Y190600D03*
X29200Y570200D03*
X32800Y638600D03*
X39227Y22348D03*
X41600Y42550D03*
X38100Y52950D03*
X47250Y53650D03*
X44200Y47400D03*
X42500Y63500D03*
X42200Y69100D03*
X42450Y75550D03*
X42400Y82700D03*
X36400Y579300D03*
X44200Y638400D03*
X48207Y13368D03*
X55880Y30480D03*
X51600Y638500D03*
X57000D03*
X59532Y7620D03*
X97632D03*
X98450Y14300D03*
X97850Y26250D03*
X210900Y467400D03*
X220900Y7650D03*
X222200Y646350D03*
X222150Y656000D03*
X222884Y666880D03*
X228450Y14000D03*
X234450Y21700D03*
X224650Y507600D03*
X233680Y564134D03*
X230050Y566050D03*
X229150Y673300D03*
X223184Y678180D03*
X237200Y7550D03*
X241350Y507350D03*
X243450Y633000D03*
X241500Y646050D03*
X249650Y640350D03*
X250530Y645560D03*
X266350Y16650D03*
Y31050D03*
X260350Y640650D03*
X270800Y562700D03*
X280150Y562350D03*
X291950Y16950D03*
X292950Y562450D03*
X298500Y35650D03*
X312084Y678180D03*
X326232Y7620D03*
X316950Y43600D03*
X338932Y7620D03*
X335280Y30480D03*
X336800Y43200D03*
X341660Y607350D03*
X347980Y652980D03*
Y665480D03*
X350184Y678180D03*
X360680Y652980D03*
X359550Y664750D03*
X360400Y678150D03*
X372850Y633400D03*
X368700Y662500D03*
X372635Y666629D03*
X376927Y9243D03*
X385908Y18224D03*
X379650Y24750D03*
X386080Y652980D03*
X381300Y662100D03*
X377969Y666629D03*
X375584Y678180D03*
X395500Y249200D03*
X390400Y664500D03*
X389250Y678200D03*
X403050Y452850D03*
X400450Y464950D03*
X398780Y652980D03*
Y665480D03*
X400984Y678180D03*
X410450Y459350D03*
X410950Y466450D03*
X418100Y466100D03*
X411400Y653100D03*
X411480Y665480D03*
X413684Y678180D03*
X426600Y93900D03*
X435150Y102200D03*
X441993Y473456D03*
X439084Y678180D03*
X455300Y100850D03*
X455700Y511300D03*
X451784Y678180D03*
X457600Y589600D03*
X457500Y585200D03*
X461400Y596800D03*
X457500Y594100D03*
Y598700D03*
X475700Y212400D03*
X491235Y50137D03*
X480600Y638700D03*
X480850Y655050D03*
X487680Y665480D03*
X489884Y678180D03*
X495078Y33020D03*
X492450Y44050D03*
X495250Y55500D03*
X501250Y87850D03*
X500100Y113150D03*
X500500Y138300D03*
X501350Y164200D03*
X501800Y189900D03*
X501950Y215550D03*
X500380Y246380D03*
X500000Y408800D03*
X499150Y434350D03*
X499900Y485150D03*
X499800Y510600D03*
X501700Y560400D03*
X501203Y570897D03*
X501100Y599000D03*
X497300Y606500D03*
X497750Y619150D03*
X501850Y639000D03*
X501700Y655300D03*
X502550Y664650D03*
X502584Y678180D03*
X507778Y33020D03*
X515150Y63350D03*
Y139250D03*
X515250Y190850D03*
X514900Y215300D03*
X513080Y246380D03*
X515200Y281700D03*
X515350Y308350D03*
X515050Y358300D03*
X515200Y434500D03*
X513080Y513080D03*
X508000Y556900D03*
X513590Y569900D03*
X515284Y678180D03*
X519612Y37628D03*
X525780Y48730D03*
Y61430D03*
Y74130D03*
Y86830D03*
X515550Y88600D03*
X525780Y99530D03*
Y112230D03*
Y124930D03*
X515550Y114700D03*
X525780Y137630D03*
Y150330D03*
Y163030D03*
X515550Y164500D03*
X525780Y175730D03*
Y188430D03*
Y201130D03*
Y213830D03*
Y226530D03*
Y239230D03*
Y251930D03*
Y264630D03*
Y277330D03*
Y290030D03*
Y302730D03*
Y315430D03*
Y328130D03*
X515750Y332750D03*
X525780Y340830D03*
Y353530D03*
Y366230D03*
Y378930D03*
Y391630D03*
X515650Y383700D03*
X525780Y404330D03*
Y417030D03*
X515900Y409800D03*
X525780Y429730D03*
Y442430D03*
Y455130D03*
X516050Y484700D03*
X525780Y493230D03*
Y505930D03*
Y518630D03*
Y544030D03*
Y556730D03*
Y569430D03*
X519300Y570500D03*
X525780Y582130D03*
Y594830D03*
Y607530D03*
X516200Y607500D03*
X525780Y620230D03*
X518050Y619250D03*
X525780Y632930D03*
X519300Y638550D03*
X525780Y645630D03*
Y658330D03*
X519150Y656300D03*
X525780Y671030D03*
G54D21*
X361900Y155797D03*
G54D12*
X25400Y546100D03*
X76200Y25400D03*
X355600D03*
X508000Y533400D03*
G54D22*
G01X49083Y137857D02*
Y179857D01*
G01Y221857D02*
Y179857D01*
G01X65700Y305800D02*
X57600Y297700D01*
Y213340D01*
X60397Y210543D01*
G01X49083Y263857D02*
Y221857D01*
G01Y305857D02*
Y263857D01*
G01Y347857D02*
Y305857D01*
G01X89000Y372800D02*
X76500D01*
X55100Y351400D01*
Y319840D01*
X65700Y309240D01*
Y305800D01*
G01X80300Y116100D02*
X71000D01*
X63100Y124000D01*
Y183100D01*
X83600Y203600D01*
G01X60397Y126543D02*
Y121603D01*
X74400Y107600D01*
X115500D01*
X122200Y100900D01*
X171200D01*
G01X109083Y116857D02*
X108526Y116300D01*
X99600D01*
X89700Y126200D01*
X80740D01*
X69083Y137857D01*
G01X85050Y132350D02*
X69083Y148317D01*
Y158857D01*
G01Y263857D02*
X65400Y260174D01*
Y190800D01*
X60397Y185797D01*
Y168543D01*
G01X80397Y357543D02*
X74943D01*
X58600Y341200D01*
Y323700D01*
X69200Y313100D01*
Y301300D01*
X60397Y292497D01*
Y252543D01*
G01X64520Y290420D02*
X73400Y281540D01*
Y227100D01*
X89150Y211350D01*
Y203850D01*
X76000Y190700D01*
Y146700D01*
X94899Y127801D01*
X101799D01*
G01X169083Y326857D02*
X157443D01*
X153900Y330400D01*
X127500D01*
X104400Y353500D01*
X87900D01*
X70900Y336500D01*
X63300D01*
G01X200397Y105543D02*
X167843D01*
X164800Y102500D01*
X126700D01*
X119200Y110000D01*
X86400D01*
X80300Y116100D01*
G01X80397Y189543D02*
X92600Y201746D01*
Y213900D01*
X89083Y217417D01*
Y242857D01*
G01Y284857D02*
Y268383D01*
X80397Y259697D01*
Y231543D01*
G01Y273543D02*
X83000Y276146D01*
Y308900D01*
X89083Y314983D01*
Y326857D01*
G01X80397Y357543D02*
X109257D01*
X118943Y347857D01*
X149083D01*
G01X89083Y116857D02*
X93140Y112800D01*
X121100D01*
G01X89083Y137857D02*
Y148083D01*
X100397Y159397D01*
Y168543D01*
G01X129200Y372600D02*
X89200D01*
X89000Y372800D01*
G01X100397Y147543D02*
Y129203D01*
X101799Y127801D01*
G01D02*
X106300Y123300D01*
X110600D01*
X121100Y112800D01*
G01X109083Y221857D02*
Y210683D01*
X103900Y205500D01*
Y172046D01*
X100397Y168543D01*
G01Y210543D02*
X94700Y216240D01*
Y254100D01*
X104457Y263857D01*
X109083D01*
G01X100397Y252543D02*
X109043D01*
G01X100150Y348750D02*
Y335790D01*
X109083Y326857D01*
G01X120397Y168543D02*
Y179303D01*
X109083Y190617D01*
Y200857D01*
G01X109043Y252543D02*
X129300Y272800D01*
Y275500D01*
G01X129083Y221857D02*
Y232503D01*
X109043Y252543D01*
G01X120397Y294543D02*
Y306003D01*
X109083Y317317D01*
Y326857D01*
G01X121100Y112800D02*
X127800Y106100D01*
X153100D01*
X163857Y116857D01*
X169083D01*
G01X129300Y275500D02*
X120397Y284403D01*
Y294543D01*
G01X149083Y368857D02*
X140557D01*
X129243Y357543D01*
X120397D01*
G01X140397Y109400D02*
Y113403D01*
X129083Y124717D01*
Y137857D01*
G01Y179857D02*
Y137857D01*
G01Y221857D02*
Y179857D01*
G01X165100Y200900D02*
X135800Y230200D01*
Y252900D01*
X146757Y263857D01*
X149083D01*
G01X140397Y273543D02*
X131257D01*
X129300Y275500D01*
G01X129200Y372600D02*
X155800D01*
X170857Y357543D01*
X180397D01*
G01X149083Y158857D02*
Y137857D01*
X160397Y126543D01*
G01X149083Y200857D02*
Y158857D01*
G01X170150Y229150D02*
X161400Y237900D01*
X150100D01*
X142900Y245100D01*
Y251800D01*
X154800Y263700D01*
Y288946D01*
X160397Y294543D01*
G01X183713Y258487D02*
X176987D01*
X171900Y253400D01*
X150800D01*
X148000Y250600D01*
G01X140400Y263300D02*
X149083Y271983D01*
Y284857D01*
G01X160397Y294543D02*
Y305203D01*
X149083Y316517D01*
Y326857D01*
G01Y347857D02*
X152640Y344300D01*
X169800D01*
X177100Y337000D01*
Y312900D01*
X191700Y298300D01*
Y255800D01*
X188443Y252543D01*
G01X157800Y349500D02*
X149083Y358217D01*
Y368857D01*
G01X189083Y116857D02*
X185026Y112800D01*
X167654D01*
X160397Y105543D01*
G01X200397Y126543D02*
X190257D01*
X169257Y147543D01*
X160397D01*
G01X169083Y158857D02*
X164400Y163540D01*
Y185000D01*
X168000Y188600D01*
Y201500D01*
X160397Y209103D01*
Y231543D01*
G01Y273543D02*
Y273897D01*
X185300Y298800D01*
G01X179900Y117000D02*
X179300D01*
X169083Y127217D01*
Y137857D01*
G01X189083Y116857D02*
X197557D01*
X205600Y124900D01*
Y150400D01*
X193200Y162800D01*
X186500D01*
X183900Y160200D01*
X171900D01*
X166200Y165900D01*
Y182900D01*
X170300Y187000D01*
Y203200D01*
X166600Y206900D01*
Y215000D01*
X180397Y228797D01*
Y231543D01*
G01X171500Y250600D02*
X180397Y241703D01*
Y231543D01*
G01Y315543D02*
X185100Y320246D01*
Y352840D01*
X180397Y357543D01*
G01X200397Y126543D02*
Y147543D01*
X189083Y158857D01*
G01Y368857D02*
Y356417D01*
X200397Y345103D01*
Y336543D01*
G01X205900Y178300D02*
X211640D01*
X218500Y171440D01*
Y89226D01*
G01X200397Y336543D02*
Y277303D01*
X204000Y273700D01*
G01X204200Y315600D02*
Y353740D01*
X200397Y357543D01*
G54D13*
X25400Y50800D03*
Y76200D03*
Y101600D03*
Y127000D03*
Y152400D03*
Y177800D03*
Y228600D03*
Y254000D03*
Y279400D03*
Y304800D03*
Y330200D03*
Y355600D03*
Y381000D03*
Y406400D03*
X508000Y50800D03*
Y76200D03*
Y101600D03*
Y127000D03*
Y152400D03*
Y177800D03*
Y203200D03*
Y228600D03*
Y269200D03*
Y294600D03*
Y320000D03*
Y345400D03*
Y370800D03*
Y396200D03*
Y421600D03*
Y447000D03*
Y472400D03*
Y497800D03*
G54D23*
G01X331500Y330500D02*
Y331000D01*
X329680Y332820D01*
X329669D01*
G01X349758Y522986D02*
X349250Y522478D01*
X348234D01*
X347726Y521970D01*
G01X348742Y515874D02*
Y516636D01*
X349504Y517398D01*
Y519176D01*
G01X390224Y115744D02*
X385050D01*
G01X379564Y120824D02*
X390224D01*
G01X381247Y188096D02*
X382200D01*
X383762Y189658D01*
G54D14*
X88899Y100330D03*
X88900Y568960D03*
X444499Y100330D03*
X444500Y568960D03*
G54D24*
G01X14883Y254000D02*
X25400D01*
G01X14883Y279400D02*
X25400D01*
G01Y243483D02*
Y254000D01*
G01D02*
Y264517D01*
G01Y254000D02*
X35917D01*
G01X25400Y268883D02*
Y279400D01*
G01D02*
Y289917D01*
G01Y279400D02*
X35917D01*
G01X243563Y23712D02*
X254110D01*
G01Y13165D02*
Y23712D01*
G01D02*
Y34259D01*
G01Y23712D02*
X264657D01*
G01X335260Y606555D02*
Y618572D01*
G01D02*
Y630589D01*
G01X328743Y618572D02*
X335260D01*
G01X338260Y623572D02*
Y630589D01*
G01Y623572D02*
X346777D01*
G01X335260Y649055D02*
Y664072D01*
G01D02*
Y679089D01*
G01X327743Y664072D02*
X335260D01*
G01D02*
X342777D01*
G01X361900Y155797D02*
Y159338D01*
G01X359629Y155797D02*
X361900D01*
G01X418660Y623572D02*
Y630589D01*
G01X410143Y623572D02*
X418660D01*
G01X414143Y664072D02*
X421660D01*
G01Y606555D02*
Y618572D01*
G01D02*
Y630589D01*
G01Y618572D02*
X428177D01*
G01X421660Y649055D02*
Y664072D01*
G01D02*
Y679089D01*
G01Y664072D02*
X429177D01*
G01X497483Y421600D02*
X508000D01*
G01Y411083D02*
Y421600D01*
G01D02*
Y432117D01*
G01Y421600D02*
X518517D01*
G54D15*
X254110Y23712D03*
Y49112D03*
X279510Y23712D03*
Y49112D03*
X304910Y23712D03*
Y49112D03*
G54D25*
G01X349504Y527304D02*
X347980Y525780D01*
X347726D01*
G54D16*
X335260Y618572D03*
X421660D03*
G54D26*
G01X237600Y307300D02*
X239700Y305200D01*
X244100D01*
X245670Y303630D01*
Y300820D01*
G54D17*
X338260Y623572D03*
X418660D03*
G54D27*
G01X359664Y521510D02*
Y516382D01*
G01X357743Y523431D02*
X359664Y521510D01*
G01X367030Y521716D02*
X367766Y520980D01*
G01Y517678D02*
X367792Y517652D01*
G01X367766Y520980D02*
Y517678D01*
G01X367792Y525272D02*
X368645D01*
G01X367284Y532638D02*
X368046Y533400D01*
G01X371003Y525272D02*
X373634D01*
X374142Y525780D01*
G01X368645Y525272D02*
X368883Y525510D01*
X370765D01*
X371003Y525272D01*
G01X368046Y533400D02*
X372618D01*
G54D18*
X335260Y664072D03*
X421660D03*
G54D28*
G01X241670Y312820D02*
Y308530D01*
G01X249670Y312820D02*
X249880D01*
X253900Y308800D01*
G01X245670Y312820D02*
Y308430D01*
G01X257670Y316820D02*
Y313030D01*
G01X332123Y408577D02*
X331700Y408154D01*
Y398851D01*
X330534Y397685D01*
G01X365252Y518922D02*
X363728Y517398D01*
Y516890D01*
G54D19*
X344460Y632072D03*
X412460D03*
M02*
