G04 ================== begin FILE IDENTIFICATION RECORD ==================*
G04 Layout Name:  U:/Project/48DMVQAD1.SGB/BRD/48DMVQAD1_SGB-20250729a4.brd*
G04 Film Name:    g7*
G04 File Format:  Gerber RS274X*
G04 File Origin:  Cadence Allegro 17.4-S029*
G04 Origin Date:  Tue Jul 29 17:18:19 2025*
G04 *
G04 Layer:  DRAWING FORMAT/TITLE_DATA_G7*
G04 Layer:  DRAWING FORMAT/TITLE_BLOCK*
G04 Layer:  DRAWING FORMAT/OUTLINE*
G04 Layer:  ETCH/G7*
G04 Layer:  MANUFACTURING/PHOTOPLOT_OUTLINE*
G04 Layer:  PIN/G7*
G04 Layer:  VIA CLASS/G7*
G04 *
G04 Offset:    (0.0000 0.0000)*
G04 Mirror:    No*
G04 Mode:      Positive*
G04 Rotation:  0*
G04 FullContactRelief:  No*
G04 UndefLineWidth:     0.1270*
G04 ================== end FILE IDENTIFICATION RECORD ====================*
%FSLAX44Y44*MOMM*%
%IR0*IPPOS*OFA0.00000B0.00000*MIA0B0*SFA1.00000B1.00000*%
%ADD10C,.2*%
%ADD19C,.5*%
%ADD14C,.8*%
%ADD11C,.4064*%
%ADD16O,1.X2.1*%
%ADD17O,1.4X1.1*%
%ADD18O,1.2X2.7*%
%ADD12C,3.2*%
%ADD13C,1.8*%
%ADD15C,1.96*%
%ADD20C,.1*%
%ADD21C,.3*%
%ADD22C,.4*%
%ADD23C,.203*%
%ADD24C,.15*%
%ADD25C,.2032*%
%ADD26C,1.*%
%ADD27C,.066*%
%ADD28C,.0508*%
%ADD29C,.0635*%
%ADD41C,.3004*%
%ADD40C,.4544*%
%ADD43C,.6608*%
%ADD37C,2.0604*%
%ADD38C,2.1128*%
%ADD42C,2.0544*%
%ADD36R,1.9204X1.7004*%
%ADD44C,1.3084*%
%ADD35R,1.9206X1.7004*%
%ADD39C,3.7084*%
%ADD34R,.7004X.6754*%
%ADD32R,.6754X.7004*%
%ADD30O,1.4544X2.9544*%
%ADD33R,.7006X.6754*%
%ADD31R,.6754X.7006*%
G75*
%LPD*%
G75*
G36*
G01X220082Y680720D02*
X523400D01*
G02X528320Y675800I-4J-4924D01*
G01Y42743D01*
X516057Y30480D01*
X401757D01*
X376357Y5080D01*
X52903D01*
X28392Y29591D01*
G02X28738Y30428I346J347D01*
G01X45923D01*
G03X47047Y30893I1J1589D01*
G01X59776Y43622D01*
X69288D01*
G02X69466Y42676I0J-490D01*
G03X57658Y25400I6734J-17276D01*
G03X94742I18542J0D01*
G03X82934Y42676I-18542J0D01*
G02X83112Y43622I178J456D01*
G01X84940D01*
X122066Y6496D01*
G03X123190Y6030I1125J1124D01*
G01X214376D01*
G03X215500Y6496I-1J1590D01*
G01X238402Y29398D01*
G03X238868Y30522I-1124J1125D01*
G01Y53968D01*
X245032Y60132D01*
X250749D01*
G02X250898Y59176I-1J-490D01*
G03X243546Y49112I3212J-10064D01*
G03X264674I10564J0D01*
G03X257322Y59176I-10564J0D01*
G02X257471Y60132I150J466D01*
G01X276149D01*
G02X276298Y59176I-1J-490D01*
G03X268946Y49112I3212J-10064D01*
G03X290074I10564J0D01*
G03X282722Y59176I-10564J0D01*
G02X282871Y60132I150J466D01*
G01X301549D01*
G02X301698Y59176I-1J-490D01*
G03X294346Y49112I3212J-10064D01*
G03X315474I10564J0D01*
G03X308122Y59176I-10564J0D01*
G02X308271Y60132I150J466D01*
G01X339520D01*
X347776Y51876D01*
G03X348900Y51410I1125J1124D01*
G01X389285D01*
G02X389731Y50719I0J-490D01*
G03X389598Y50100I1369J-618D01*
G03X392602I1502J0D01*
G03X392469Y50719I-1502J1D01*
G02X392915Y51410I446J201D01*
G01X398500D01*
G03X399624Y51876I-1J1590D01*
G01X400319Y52571D01*
G02X401117Y52415I347J-347D01*
G03X402500Y51498I1383J584D01*
G03X404002Y53000I0J1502D01*
G03X403085Y54383I-1501J0D01*
G02X402929Y55181I191J451D01*
G01X404336Y56588D01*
X410296D01*
G03Y59768I0J1590D01*
G01X403390D01*
Y63226D01*
G03X400210I-1590J0D01*
G01Y59244D01*
X398821Y57855D01*
G02X398033Y57989I-347J346D01*
G03X396600Y58890I-1433J-689D01*
G03X395476Y58424I1J-1590D01*
G01X394436Y57384D01*
X389488D01*
G02X389142Y58220I0J490D01*
G01X392224Y61302D01*
G03X392690Y62426I-1124J1125D01*
G03X391100Y64016I-1590J0D01*
G03X389976Y63550I1J-1590D01*
G01X385195Y58768D01*
X373173D01*
G02X372827Y59605I0J490D01*
G01X374198Y60976D01*
G03X374664Y62100I-1124J1125D01*
G01Y62500D01*
G03X373074Y64090I-1590J0D01*
G03X371524Y62851I0J-1589D01*
G01X371508Y62782D01*
X369616Y60890D01*
X351325D01*
X350241Y61974D01*
G02X350587Y62810I346J346D01*
G01X353674D01*
G03Y65990I0J1590D01*
G01X348858D01*
X346374Y68474D01*
G02X346720Y69310I346J346D01*
G01X403242D01*
X420176Y52376D01*
G03X421300Y51910I1125J1124D01*
G01X473842D01*
X487526Y38226D01*
X487529Y38129D01*
G03X489800Y35928I2271J71D01*
G03X492072Y38200I0J2272D01*
G03X489871Y40471I-2272J0D01*
G01X489774Y40474D01*
X475624Y54624D01*
G03X474500Y55090I-1125J-1124D01*
G01X421958D01*
X405024Y72024D01*
G03X403900Y72490I-1125J-1124D01*
G01X240600D01*
G03X239476Y72024I1J-1590D01*
G01X227776Y60324D01*
G03X227310Y59200I1124J-1125D01*
G01Y45434D01*
G02X226579Y45007I-490J0D01*
G03X225840Y45202I-740J-1307D01*
G03Y42198I0J-1502D01*
G03X226579Y42393I-1J1502D01*
G02X227310Y41966I241J-427D01*
G01Y35758D01*
X219426Y27874D01*
G02X218593Y28166I-346J347D01*
G03X217100Y29502I-1493J-166D01*
G03X215598Y28000I0J-1502D01*
G03X216934Y26507I1502J0D01*
G02X217226Y25674I-55J-487D01*
G01X209842Y18290D01*
X127758D01*
X91974Y54074D01*
G02X92320Y54910I346J346D01*
G01X127642D01*
X129226Y53326D01*
X129229Y53229D01*
G03X131500Y51028I2271J71D01*
G03X132604Y51314I0J2272D01*
G03X134343Y50143I1995J1086D01*
G03X136444Y48133I2257J257D01*
G03X137748Y46337I2256J267D01*
G03X137700Y45872I2224J-465D01*
G03X139972Y43600I2272J0D01*
G03X140584Y43684I0J2271D01*
G02X140878Y43536I65J-236D01*
G03X143000Y42076I2122J812D01*
G03X145230Y43912I0J2272D01*
G01X145269Y44110D01*
X169328D01*
G02X169731Y43342I0J-490D01*
G03X169328Y42050I1870J-1292D01*
G03X170264Y40213I2271J0D01*
G02X170322Y39470I-288J-396D01*
G01X169376Y38524D01*
G03X168910Y37400I1124J-1125D01*
G01Y28458D01*
X163442Y22990D01*
X158085D01*
G02X157733Y23820I0J490D01*
G03X158372Y25400I-1634J1580D01*
G03X157865Y26831I-2273J0D01*
G02X157900Y27487I380J309D01*
G03X158572Y29100I-1600J1613D01*
G03X157887Y30726I-2272J0D01*
G02X157877Y31067I171J176D01*
G03X158472Y32600I-1677J1533D01*
G03X153928I-2272J0D01*
G03X154613Y30974I2272J0D01*
G02X154623Y30633I-171J-176D01*
G03X154028Y29100I1677J-1533D01*
G03X154535Y27669I2273J0D01*
G02X154500Y27013I-380J-309D01*
G03X153828Y25400I1600J-1613D01*
G03X154467Y23820I2273J0D01*
G02X154115Y22990I-352J-340D01*
G01X153423D01*
G03X151800Y23672I-1623J-1590D01*
G03Y19128I0J-2272D01*
G03X153423Y19810I0J2272D01*
G01X164100D01*
G03X165224Y20276I-1J1590D01*
G01X171174Y26226D01*
G02X172010Y25880I346J-346D01*
G01Y23100D01*
G03X172476Y21976I1590J1D01*
G01X173226Y21226D01*
X173229Y21129D01*
G03X175500Y18928I2271J71D01*
G03X177772Y21200I0J2272D01*
G03X175571Y23471I-2272J0D01*
G01X175474Y23474D01*
X175190Y23758D01*
Y35877D01*
G03X175558Y36348I-1591J1622D01*
G02X176433Y36288I423J-248D01*
G03X176776Y35776I1467J612D01*
G01X190186Y22366D01*
X190119Y22212D01*
G03X189928Y21300I2082J-912D01*
G03X192200Y19028I2272J0D01*
G03X194265Y20353I0J2272D01*
G02X195057Y20495I445J-204D01*
G01X195276Y20276D01*
G03X196400Y19810I1125J1124D01*
G01X205077D01*
G03X206700Y19128I1623J1590D01*
G03Y23672I0J2272D01*
G03X205077Y22990I0J-2272D01*
G01X197058D01*
X183274Y36774D01*
X183271Y36871D01*
G03X181000Y39072I-2271J-71D01*
G03X180719Y39055I-4J-2272D01*
G02X180169Y39516I-61J486D01*
G03X178621Y41554I-2269J-116D01*
G02X178302Y42140I156J465D01*
G03X178372Y42700I-2202J560D01*
G03X178242Y43457I-2272J0D01*
G02X178704Y44110I462J163D01*
G01X188700D01*
G03X189824Y44576I-1J1590D01*
G01X204224Y58976D01*
G03X204690Y60100I-1124J1125D01*
G01Y62830D01*
G02X205556Y63144I490J0D01*
G03X207300Y62328I1744J1456D01*
G03Y66872I0J2272D01*
G03X205556Y66056I0J-2272D01*
G02X204690Y66370I-376J314D01*
G01Y88627D01*
X204892Y88662D01*
G03X206772Y90900I-392J2238D01*
G03X205232Y93051I-2272J0D01*
G02X205090Y93903I157J464D01*
G03X205972Y95700I-1390J1797D01*
G03X203700Y97972I-2272J0D01*
G03X201429Y95771I0J-2272D01*
G01X201426Y95674D01*
X201208Y95456D01*
G02X200790Y95629I-173J173D01*
G01Y97055D01*
G03X202072Y99100I-990J2045D01*
G03X199800Y101372I-2272J0D01*
G03X199536Y101357I-3J-2272D01*
G02X198990Y101843I-56J486D01*
G01Y104428D01*
X199000D01*
G03Y108972I0J2272D01*
G03X197118Y107973I0J-2272D01*
G02X196267Y108044I-406J275D01*
G03X194200Y109372I-2067J-945D01*
G03X192022Y107748I0J-2272D01*
G02X191206Y107542I-469J140D01*
G01X189914Y108833D01*
Y127787D01*
G03X189449Y128911I-1589J1D01*
G01X186502Y131858D01*
Y135463D01*
G02X186865Y135678I245J0D01*
G03X187215Y135522I1097J1990D01*
G03X188739Y133490I2269J114D01*
G03X191008Y131332I2269J114D01*
G03X192405Y131812I0J2273D01*
G03X193802Y131332I1397J1793D01*
G03X195072Y131720I0J2272D01*
G03X196342Y131332I1270J1884D01*
G03X197739Y131812I0J2273D01*
G03X199136Y131332I1397J1793D01*
G03X201408Y133604I0J2272D01*
G03X199881Y135750I-2271J0D01*
G03X198357Y137782I-2269J-114D01*
G03X196088Y139940I-2269J-114D01*
G03X194691Y139460I0J-2273D01*
G03X193294Y139940I-1397J-1793D01*
G03X192024Y139552I0J-2272D01*
G03X190754Y139940I-1270J-1884D01*
G03X189357Y139460I0J-2273D01*
G03X189215Y139562I-1396J-1793D01*
G01X189195Y139575D01*
X189004Y139766D01*
X196450Y147212D01*
G03X196916Y148336I-1124J1125D01*
G01Y150015D01*
G03X197598Y151638I-1590J1623D01*
G03X195326Y153910I-2272J0D01*
G03X193567Y153076I0J-2272D01*
G02X192841Y153039I-380J310D01*
G01X190339Y155541D01*
G03X188722Y156211I-1617J-1616D01*
G01X81973D01*
X75987Y162197D01*
Y187600D01*
G03X75005Y189478I-2287J0D01*
G02X75042Y190306I280J402D01*
G03X76185Y192207I-1128J1972D01*
G01X76188Y192304D01*
X76858Y192974D01*
X84737D01*
G03X86360Y192292I1623J1590D01*
G03Y196836I0J2272D01*
G03X84737Y196154I0J-2272D01*
G01X82236D01*
G02X81890Y196990I0J490D01*
G01X84224Y199324D01*
X124015D01*
G02X124455Y198618I0J-490D01*
G03X124220Y197612I2036J-1006D01*
G03X124652Y196279I2273J0D01*
G01X124774Y196110D01*
X122990Y194326D01*
G03X122524Y193202I1124J-1125D01*
G01Y179244D01*
G03X122188Y178054I1936J-1189D01*
G03X124460Y175782I2272J0D01*
G03X124839Y175814I-1J2272D01*
G02X125410Y175331I81J-483D01*
G01Y172726D01*
X125237Y172673D01*
G03X123628Y170500I663J-2173D01*
G03X128172I2272J0D01*
G01Y170526D01*
G03X128590Y171600I-1171J1074D01*
G01Y193144D01*
X150108Y214662D01*
G03X150574Y215786I-1124J1125D01*
G01Y216122D01*
G03X148984Y217712I-1590J0D01*
G03X147452Y216547I0J-1590D01*
G01X147435Y216485D01*
X140951Y210001D01*
G02X140152Y210159I-347J346D01*
G03X138684Y211140I-1468J-608D01*
G03X137560Y210674I1J-1590D01*
G01X129390Y202504D01*
X117650D01*
G02X117236Y203255I0J490D01*
G03X117588Y204470I-1921J1215D01*
G03X113044I-2272J0D01*
G03X113396Y203255I2273J0D01*
G02X112982Y202504I-414J-261D01*
G01X102810D01*
G02X102464Y203340I0J490D01*
G01X106576Y207452D01*
X124714D01*
G03X125838Y207918I-1J1590D01*
G01X132627Y214707D01*
G03X133092Y215831I-1124J1123D01*
G01Y218625D01*
G03X131503Y220214I-1589J0D01*
G03X131051Y220149I-2J-1589D01*
G02X130437Y220742I-140J470D01*
G03X130486Y221121I-1453J380D01*
G03X130098Y222128I-1501J0D01*
G02X130462Y222946I364J328D01*
G01X130989D01*
X132441Y221494D01*
X132460Y221447D01*
G03X133858Y220494I1398J549D01*
G03Y223498I0J1502D01*
G03X133179Y223336I0J-1502D01*
G01X133021Y223256D01*
X131917Y224359D01*
G03X131332Y224602I-586J-585D01*
G01X128253D01*
G03X127000Y225276I-1253J-828D01*
G03Y222272I0J-1502D01*
G03X127080Y222274I2J1502D01*
G02X127568Y221622I26J-489D01*
G03X127482Y221145I1416J-502D01*
G01X127481Y221046D01*
X121628Y215194D01*
X121477Y215256D01*
G03X120904Y215370I-574J-1388D01*
G03X119402Y213868I0J-1502D01*
G03X119620Y213089I1501J0D01*
G02X119201Y212345I-419J-254D01*
G01X116174D01*
G03X115062Y212837I-1112J-1011D01*
G03X113560Y211335I0J-1502D01*
G03X113569Y211174I1502J3D01*
G02X113082Y210632I-487J-52D01*
G01X105918D01*
G03X104794Y210166I1J-1590D01*
G01X98910Y204282D01*
X87329D01*
G02X86889Y204987I0J490D01*
G03X87123Y205994I-2053J1008D01*
G03X84836Y208281I-2287J0D01*
G01X83188D01*
G02X82841Y209117I0J490D01*
G01X86256Y212532D01*
X108966D01*
G03X110090Y212998I-1J1590D01*
G01X110894Y213802D01*
X116586D01*
G03X117710Y214268I-1J1590D01*
G01X122536Y219094D01*
G03X123002Y220218I-1124J1125D01*
G01Y224192D01*
G02X123613Y224667I490J0D01*
G03X123985Y224620I373J1455D01*
G03Y227624I0J1502D01*
G03X123613Y227577I1J-1502D01*
G02X123002Y228052I-121J475D01*
G01Y229191D01*
G02X123613Y229666I490J0D01*
G03X123985Y229619I373J1455D01*
G03X125487Y231100I0J1502D01*
G02X125977Y231582I490J-8D01*
G01X126275D01*
X127860Y229997D01*
G03X127988Y229882I1125J1123D01*
G02X127951Y229092I-307J-381D01*
G03X127276Y227838I827J-1254D01*
G03X128778Y226336I1502J0D01*
G03X130256Y227572I0J1502D01*
G01X130293Y227774D01*
X137366D01*
G02X137764Y226998I0J-490D01*
G03X137482Y226122I1220J-876D01*
G03X138984Y224620I1502J0D01*
G03X139170Y224632I-4J1502D01*
G01X139289Y224646D01*
X139603Y224333D01*
G03X140188Y224090I586J585D01*
G01X140738D01*
X140786Y223907D01*
G03X142240Y222780I1454J374D01*
G03Y225784I0J1502D01*
G03X141926Y225751I-1J-1502D01*
G01X141901Y225746D01*
X140973D01*
G02X140484Y226208I0J490D01*
G03X139875Y227331I-1500J-87D01*
G01X139775Y227405D01*
Y227774D01*
X140526D01*
X140583Y227609D01*
G03X142001Y226604I1418J498D01*
G03Y229608I0J1502D01*
G03X141338Y229454I0J-1502D01*
G01X141287Y229428D01*
X130680D01*
G02X130281Y230202I1J490D01*
G03X130574Y231121I-1297J920D01*
G03X130108Y232245I-1590J-1D01*
G01X128057Y234296D01*
G03X126933Y234762I-1125J-1124D01*
G01X125873D01*
G02X125429Y235457I1J490D01*
G03X125574Y236122I-1444J663D01*
G03X125448Y236743I-1589J1D01*
G02X125899Y237424I451J191D01*
G01X126877D01*
G03X128001Y237890I-1J1590D01*
G01X130108Y239997D01*
G03X130574Y241121I-1124J1125D01*
G03X128984Y242710I-1589J0D01*
G03X127860Y242245I-1J-1589D01*
G01X126259Y240644D01*
G02X125574Y241100I-195J450D01*
G01Y241121D01*
G03X125109Y242245I-1589J1D01*
G01X123732Y243622D01*
X125109Y244998D01*
G03X125574Y246122I-1124J1123D01*
G03X125101Y247254I-1589J1D01*
G02X125445Y248092I344J348D01*
G01X125843D01*
X132509Y241426D01*
X132495Y241307D01*
G03X132483Y241121I1490J-190D01*
G03X133985Y239619I1502J0D01*
G03X135003Y240016I1J1502D01*
G02X135824Y239656I331J-361D01*
G01Y238454D01*
G03X136067Y237869I828J1D01*
G01X137508Y236427D01*
X137494Y236308D01*
G03X137482Y236122I1490J-190D01*
G03X138984Y237624I1502J0D01*
G03X138798Y237612I4J-1502D01*
G01X138679Y237598D01*
X137480Y238797D01*
Y243586D01*
G03X137237Y244171I-828J-1D01*
G01X130381Y251028D01*
X130395Y251147D01*
G03X130407Y251333I-1490J190D01*
G03X128905Y249831I-1502J0D01*
G03X129091Y249843I-4J1502D01*
G01X129210Y249857D01*
X135824Y243243D01*
Y242586D01*
G02X135003Y242226I-490J1D01*
G03X133985Y242623I-1017J-1105D01*
G03X133799Y242611I4J-1502D01*
G01X133680Y242597D01*
X126771Y249505D01*
G03X126186Y249748I-586J-585D01*
G01X120865D01*
G02X120422Y250446I0J490D01*
G03X120574Y251123I-1438J678D01*
G03X120108Y252247I-1590J-1D01*
G01X118570Y253785D01*
G02X118933Y254621I347J346D01*
G03X118984Y254620I55J1501D01*
G03X120237Y255294I0J1502D01*
G01X136975D01*
X137000Y255078D01*
G03X138492Y253753I1492J178D01*
G03Y256757I0J1502D01*
G03X138369Y256752I-1J-1502D01*
G03X137832Y256950I-537J-629D01*
G01X120237D01*
G03X118984Y257624I-1253J-828D01*
G03X117482Y256122I0J-1502D01*
G03X117617Y255499I1502J-1D01*
G02X117100Y254811I-445J-203D01*
G03X116869Y254828I-232J-1573D01*
G01X115901D01*
G02X115449Y255507I0J490D01*
G03X115572Y256122I-1476J615D01*
G03X115107Y257246I-1589J1D01*
G01X113238Y259115D01*
G02X113411Y259534I173J174D01*
G01X113983D01*
G03Y262712I0J1589D01*
G01X90458D01*
X87198Y265973D01*
G03X87134Y266033I-1119J-1129D01*
G02X87461Y266888I327J365D01*
G01X120971D01*
X122861Y264998D01*
G03X123985Y264532I1125J1124D01*
G03X125574Y266122I0J1589D01*
G03X125109Y267246I-1589J1D01*
G01X123569Y268786D01*
G02X123933Y269622I347J346D01*
G03X123985Y269621I55J1501D01*
G03X122483Y271123I0J1502D01*
G03X122557Y270657I1502J0D01*
G02X121982Y270028I-466J-151D01*
G03X121629Y270068I-354J-1550D01*
G01X115893D01*
G02X115423Y270697I0J490D01*
G03X115485Y271123I-1440J427D01*
G03X112481I-1502J0D01*
G03X112543Y270697I1502J1D01*
G02X112073Y270068I-470J-139D01*
G01X105984D01*
G02X105513Y270691I0J490D01*
G03X105572Y271123I-1530J429D01*
G03X103983Y272712I-1589J0D01*
G03X102859Y272247I-1J-1589D01*
G01X102458Y271846D01*
X101129D01*
G02X100642Y272384I0J490D01*
G03X100650Y272542I-1582J159D01*
G03X100184Y273666I-1590J-1D01*
G01X99799Y274051D01*
G02X99872Y274804I347J346D01*
G03X100574Y276122I-888J1319D01*
G03X98984Y277712I-1590J0D01*
G01X93090D01*
X89770Y281032D01*
G03X88646Y281498I-1125J-1124D01*
G01X60643D01*
G02X60203Y282204I0J490D01*
G03X60438Y283210I-2036J1006D01*
G03X60424Y283459I-2272J-3D01*
G02X60965Y284000I487J54D01*
G03X61214Y283986I252J2258D01*
G03X63486Y286258I0J2272D01*
G03X63109Y287512I-2272J1D01*
G02X63517Y288272I408J270D01*
G01X70910D01*
G02X71398Y287737I0J-490D01*
G03X71388Y287528I2262J-213D01*
G03X73589Y285257I2272J0D01*
G01X73686Y285254D01*
X75076Y283864D01*
G03X76200Y283398I1125J1124D01*
G01X93881D01*
G03X94602Y282903I1622J1590D01*
G02X94754Y282106I-194J-450D01*
G01X94539Y281892D01*
X94420Y281906D01*
G03X94234Y281918I-190J-1490D01*
G03X95736Y280416I0J-1502D01*
G03X95724Y280602I-1502J-4D01*
G01X95710Y280721D01*
X96984Y281996D01*
G02X97747Y281400I335J-357D01*
G03X97558Y280670I1313J-729D01*
G03X99060Y279168I1502J0D01*
G03X100538Y280403I0J1502D01*
G01X100574Y280604D01*
X101156D01*
G02X101361Y280225I0J-245D01*
G03X101114Y279400I1254J-825D01*
G03X104118I1502J0D01*
G03X104018Y279939I-1503J0D01*
G02X104475Y280604I457J175D01*
G01X104853D01*
G02X105240Y279814I0J-490D01*
G03X104924Y278892I1187J-922D01*
G03X107928I1502J0D01*
G03X107612Y279814I-1503J0D01*
G02X107999Y280604I387J300D01*
G01X109874D01*
G02X110291Y279858I0J-490D01*
G03X110068Y279070I1279J-788D01*
G03X113072I1502J0D01*
G03X112583Y280179I-1502J0D01*
G01X112749Y280604D01*
X113331D01*
X117508Y276427D01*
X117494Y276308D01*
G03X117482Y276122I1490J-190D01*
G03X118984Y277624I1502J0D01*
G03X118798Y277612I4J-1502D01*
G01X118679Y277598D01*
X114984Y281292D01*
G02X115331Y282128I347J346D01*
G01X116808D01*
X122509Y276427D01*
X122495Y276308D01*
G03X122483Y276122I1490J-190D01*
G03X123985Y277624I1502J0D01*
G03X123799Y277612I4J-1502D01*
G01X123680Y277598D01*
X117736Y283541D01*
G03X117151Y283784I-586J-585D01*
G03X117144Y283783I112J-812D01*
G02X116682Y284445I-3J490D01*
G03X116826Y285242I-2128J796D01*
G03X114554Y287514I-2272J0D01*
G03X113899Y287418I-2J-2272D01*
G02X113268Y287868I-141J469D01*
G03X110998Y290054I-2270J-86D01*
G01X110964D01*
G02X110469Y290504I-7J490D01*
G03X108204Y292594I-2265J-182D01*
G03X107894Y292573I-2J-2272D01*
G02X107353Y292933I-67J485D01*
G03X105156Y294626I-2197J-579D01*
G03X104646Y294568I0J-2271D01*
G02X104060Y294929I-110J478D01*
G03X101854Y296658I-2206J-543D01*
G03X100285Y296029I0J-2271D01*
G02X99474Y296254I-338J354D01*
G03X97282Y297928I-2192J-598D01*
G03X95284Y296738I0J-2272D01*
G01X81938D01*
X80118Y298558D01*
G03X78994Y299024I-1125J-1124D01*
G01X46224D01*
X43790Y301458D01*
Y313200D01*
G03X43324Y314324I-1590J-1D01*
G01X39724Y317924D01*
G03X38600Y318390I-1125J-1124D01*
G01X21556D01*
G02X21066Y318860I-1J490D01*
G03X20814Y319813I-2270J-90D01*
G02X21250Y320528I435J225D01*
G01X21940D01*
X21980Y320514D01*
G03X25400Y319928I3420J9687D01*
G03X28859Y320528I0J10272D01*
G01X41127D01*
X47572Y326973D01*
Y357073D01*
X73172Y382673D01*
Y483057D01*
X73318Y483122D01*
G03X73574Y483255I-917J2078D01*
G03X74900Y482828I1326J1845D01*
G03X77172Y485100I0J2272D01*
G03X76763Y486400I-2272J0D01*
G03X77172Y487700I-1863J1300D01*
G03X76777Y488980I-2271J0D01*
G03X77072Y490100I-1977J1120D01*
G03X74800Y492372I-2272J0D01*
G03X73626Y492045I0J-2271D01*
G03X73172Y492298I-1326J-1845D01*
G01Y493427D01*
X66072Y500527D01*
Y515832D01*
G02X66906Y516181I490J0D01*
G03X68500Y515528I1594J1619D01*
G03X69850Y515973I-1J2272D01*
G03X71200Y515528I1351J1827D01*
G03X72450Y515903I0J2271D01*
G03X73700Y515528I1250J1896D01*
G03X75972Y517800I0J2272D01*
G03X75715Y518850I-2272J0D01*
G03X75972Y519900I-2015J1050D01*
G03X75688Y521000I-2272J0D01*
G03X75972Y522100I-1988J1100D01*
G03X73700Y524372I-2272J0D01*
G03X72450Y523997I0J-2271D01*
G03X71200Y524372I-1250J-1896D01*
G03X69850Y523927I1J-2272D01*
G03X68500Y524372I-1351J-1827D01*
G03X66906Y523719I0J-2272D01*
G02X66072Y524068I-344J349D01*
G01Y544976D01*
G02X66853Y545371I490J0D01*
G03X68200Y544928I1348J1829D01*
G03X69320Y545223I0J2272D01*
G03X70600Y544828I1280J1876D01*
G03X71800Y545171I0J2271D01*
G03X73000Y544828I1200J1928D01*
G03X75272Y547100I0J2272D01*
G03X74789Y548500I-2272J0D01*
G03X75272Y549900I-1789J1400D01*
G03X74863Y551200I-2272J0D01*
G03X75272Y552500I-1863J1300D01*
G03X73000Y554772I-2272J0D01*
G03X71800Y554429I0J-2271D01*
G03X70600Y554772I-1200J-1928D01*
G03X69480Y554477I0J-2272D01*
G03X68200Y554872I-1280J-1876D01*
G03X66853Y554429I1J-2272D01*
G02X66072Y554824I-291J395D01*
G01Y589673D01*
X73027Y596628D01*
X100027D01*
X102572Y599173D01*
Y616127D01*
X100719Y617979D01*
X108308Y625568D01*
X225000D01*
G03X229435Y627405I0J6272D01*
G01X236555Y634525D01*
G03X238392Y638960I-4435J4435D01*
G01Y648452D01*
X239178Y649238D01*
X252523D01*
X252933Y648828D01*
X262057D01*
X263892Y650663D01*
Y659497D01*
X261807Y661582D01*
X257792D01*
X257762Y661590D01*
G03X256220Y661782I-1540J-6080D01*
G01X236580D01*
G03X232145Y659945I0J-6272D01*
G01X227685Y655485D01*
G03X225848Y651050I4435J-4435D01*
G01Y641558D01*
X222402Y638112D01*
X105710D01*
G03X101275Y636275I0J-6272D01*
G01X88415Y623415D01*
G03X86674Y620074I4435J-4435D01*
G01X86638Y619872D01*
X55473D01*
X40528Y604927D01*
Y558263D01*
G02X39661Y557950I-490J0D01*
G03X25400Y564642I-14261J-11849D01*
G03Y527558I0J-18542D01*
G03X39661Y534250I0J18541D01*
G02X40528Y533937I377J-313D01*
G01Y446627D01*
X14720Y420819D01*
G02X13941Y420934I-347J346D01*
G03X11938Y422134I-2003J-1072D01*
G03X9666Y419862I0J-2272D01*
G03X10866Y417859I2272J0D01*
G02X10981Y417080I-231J-432D01*
G01X7728Y413827D01*
Y323073D01*
X10273Y320528D01*
X16342D01*
G02X16778Y319813I1J-490D01*
G03X16608Y319383I2017J-1046D01*
G01X16591Y319321D01*
X10445Y313175D01*
G03X9980Y312051I1124J-1123D01*
G01Y300004D01*
G02X9280Y299562I-490J1D01*
G03X8308Y299780I-971J-2054D01*
G03X6037Y297561I0J-2272D01*
G02X5080Y297711I-467J149D01*
G01Y640798D01*
X220082D01*
Y680720D01*
G37*
G36*
G01X56000Y618600D02*
X98300D01*
X101300Y615600D01*
Y599700D01*
X99500Y597900D01*
X72500D01*
X64800Y590200D01*
Y582715D01*
G03Y579137I1399J-1789D01*
G01Y500000D01*
X71900Y492900D01*
Y492444D01*
X71718Y492396D01*
G03X71100Y492129I582J-2196D01*
G03X69900Y492472I-1200J-1928D01*
G03X67628Y490200I0J-2272D01*
G03X68023Y488920I2271J0D01*
G03X67728Y487800I1977J-1120D01*
G03X68137Y486500I2272J0D01*
G03X67728Y485200I1863J-1300D01*
G03X70000Y482928I2272J0D01*
G03X71200Y483271I0J2271D01*
G03X71728Y483030I1200J1929D01*
G01X71900Y482976D01*
Y383200D01*
X67245Y378545D01*
X67200Y378526D01*
G03X65974Y377300I872J-2098D01*
G01X65955Y377255D01*
X46300Y357600D01*
Y327500D01*
X40600Y321800D01*
X32697D01*
G02X32365Y322650I0J490D01*
G03X35672Y330200I-6965J7550D01*
G03X15128I-10272J0D01*
G03X18435Y322650I10272J0D01*
G02X18103Y321800I-332J-360D01*
G01X10800D01*
X9000Y323600D01*
Y413300D01*
X41800Y446100D01*
Y537449D01*
G03Y554751I-16399J8651D01*
G01Y604400D01*
X56000Y618600D01*
G37*
G36*
G01X57554Y273492D02*
X62705D01*
G02X63183Y272896I0J-490D01*
G03X63128Y272400I2217J-497D01*
G03X65400Y270128I2272J0D01*
G03X66610Y270477I0J2272D01*
G02X67354Y270142I261J-415D01*
G03X68983Y268322I2242J368D01*
G01X69045Y268305D01*
X69175Y268176D01*
G02X68964Y267358I-347J-347D01*
G03X67324Y265176I632J-2182D01*
G03X69596Y262904I2272J0D01*
G03X71778Y264544I0J2272D01*
G02X72596Y264755I471J-136D01*
G01X73625Y263725D01*
G03X74749Y263260I1123J1124D01*
G01X85416D01*
X87677Y260998D01*
G02X87331Y260162I-346J-346D01*
G01X71877D01*
X71851Y260376D01*
G03X69596Y262368I-2255J-280D01*
G03X67324Y260096I0J-2272D01*
G03X69525Y257825I2272J0D01*
G01X69622Y257822D01*
X69996Y257448D01*
G03X71120Y256982I1125J1124D01*
G01X86352D01*
G02X86698Y256146I0J-490D01*
G01X79675Y249123D01*
G02X78891Y249250I-346J347D01*
G03X76862Y250500I-2029J-1022D01*
G03X74590Y248228I0J-2272D01*
G03X74593Y248106I2272J-5D01*
G02X74104Y247590I-489J-26D01*
G01X69188D01*
X68522Y248256D01*
X68519Y248353D01*
G03X66248Y250554I-2271J-71D01*
G03X63976Y248282I0J-2272D01*
G03X65071Y246339I2271J0D01*
G02X65079Y245506I-254J-419D01*
G03X64163Y244375I1215J-1920D01*
G02X63357Y244199I-459J170D01*
G01X60306Y247250D01*
G03X59182Y247716I-1125J-1124D01*
G01X45565D01*
G03X43942Y248398I-1623J-1590D01*
G03X41670Y246126I0J-2272D01*
G03X42649Y244258I2272J0D01*
G02X42723Y243937I-140J-201D01*
G03X42433Y242875I1981J-1112D01*
G01X42427Y242636D01*
X24229D01*
G03X22606Y243318I-1623J-1590D01*
G03X20334Y241046I0J-2272D01*
G03X21587Y239016I2271J0D01*
G02X21550Y238123I-220J-438D01*
G03X15128Y228600I3850J-9523D01*
G03X25400Y218328I10272J0D01*
G03X29265Y219083I0J10272D01*
G02X29795Y218282I184J-454D01*
G01X28876Y217363D01*
G03X28410Y216239I1124J-1125D01*
G01Y191861D01*
G03X28876Y190737I1590J1D01*
G01X38810Y180803D01*
Y137897D01*
X38279Y137366D01*
G02X37462Y137576I-346J347D01*
G03X35959Y139504I-3172J-923D01*
G02X35795Y140192I247J423D01*
G03X36324Y141986I-2775J1793D01*
G03X33715Y145216I-3304J0D01*
G02X33435Y146000I103J479D01*
G03X35672Y152400I-8035J6399D01*
G03X25400Y142128I-10272J0D01*
G03X29068Y142805I1J10272D01*
G02X29731Y142301I175J-457D01*
G03X29716Y141986I3289J-314D01*
G03X31351Y139134I3305J0D01*
G02X31515Y138446I-247J-423D01*
G03X30986Y136652I2775J-1793D01*
G03X30990Y136499I3304J10D01*
G02X30268Y136045I-490J-22D01*
G03X25400Y137272I-4868J-9045D01*
G03Y116728I0J-10272D01*
G03X34869Y123018I0J10272D01*
G02X35810Y122828I451J-190D01*
G01Y105772D01*
G02X34869Y105582I-490J0D01*
G03X25400Y111872I-9469J-3982D01*
G03Y91328I0J-10272D01*
G03X34869Y97618I0J10272D01*
G02X35810Y97428I451J-190D01*
G01Y80372D01*
G02X34869Y80182I-490J0D01*
G03X25400Y86472I-9469J-3982D01*
G03Y65928I0J-10272D01*
G03X34869Y72218I0J10272D01*
G02X35810Y72028I451J-190D01*
G01Y60500D01*
G03X36276Y59376I1590J1D01*
G01X38776Y56876D01*
G03X39900Y56410I1125J1124D01*
G01X52580D01*
G02X52926Y55574I0J-490D01*
G01X47158Y49806D01*
G02X46474Y49797I-347J346D01*
G03X44200Y50704I-2274J-2397D01*
G03X40896Y47400I0J-3304D01*
G03X41063Y46363I3303J0D01*
G02X40727Y45737I-465J-153D01*
G03X38296Y42550I874J-3187D01*
G03X38576Y41219I3304J0D01*
G02X38128Y40532I-448J-197D01*
G01X29894D01*
G02X29690Y41467I1J490D01*
G03X35672Y50800I-4290J9333D01*
G03X15128I-10272J0D01*
G03X21110Y41467I10272J0D01*
G02X20906Y40532I-205J-445D01*
G01X18501D01*
X14388Y44645D01*
Y264193D01*
G02X15257Y264502I490J-1D01*
G03X17018Y263666I1761J1437D01*
G03X18641Y264348I0J2272D01*
G01X21084D01*
G02X21280Y263410I-1J-490D01*
G03X15128Y254000I4121J-9410D01*
G03X35672I10272J0D01*
G03X33833Y259866I-10272J1D01*
G02X34290Y260632I402J279D01*
G03X34544Y260618I252J2258D01*
G03X36167Y261300I0J2272D01*
G01X39116D01*
G03X40240Y261766I-1J1590D01*
G01X43630Y265156D01*
G02X44466Y264829I346J-347D01*
G03X46736Y262650I2270J93D01*
G03X49007Y264851I0J2272D01*
G01X49010Y264948D01*
X57554Y273492D01*
G37*
G36*
G01X14388Y283412D02*
X15326Y284350D01*
G02X16115Y283794I346J-347D01*
G03X15128Y279400I9285J-4394D01*
G03X21280Y269990I10273J0D01*
G02X21084Y269052I-197J-448D01*
G01X20470D01*
X18904Y270618D01*
G03X18569Y270874I-1124J-1124D01*
G03X16764Y271766I-1805J-1380D01*
G03X15212Y271153I0J-2271D01*
G02X14388Y271511I-334J358D01*
G01Y283412D01*
G37*
G36*
G01X35812Y291628D02*
G02X36638Y291382I346J-347D01*
G03X37068Y290452I2224J464D01*
G02X36933Y289731I-387J-301D01*
G03X35828Y287782I1166J-1949D01*
G01Y287752D01*
G02X35606Y287504I-245J-4D01*
G03X33832Y286353I207J-2262D01*
G02X33041Y286266I-427J240D01*
G03X25400Y289672I-7640J-6866D01*
G03X21006Y288685I0J-10272D01*
G02X20450Y289474I-209J443D01*
G01X21994Y291018D01*
X34544D01*
G03X35668Y291484I-1J1590D01*
G01X35812Y291628D01*
G37*
G36*
G01X63091Y200887D02*
G02X63897Y201063I459J-170D01*
G01X67843Y197117D01*
X67855Y197036D01*
G03X70104Y195086I2249J322D01*
G03X72376Y197358I0J2272D01*
G03X72299Y197946I-2272J1D01*
G02X72772Y198562I473J126D01*
G01X75255D01*
G02X75738Y197991I0J-490D01*
G03X75706Y197612I2240J-380D01*
G03X75897Y196700I2273J0D01*
G02X75626Y196046I-449J-197D01*
G03X75076Y195688I573J-1482D01*
G01X73940Y194552D01*
X73843Y194549D01*
G03X71642Y192278I71J-2271D01*
G03X72611Y190417I2272J0D01*
G02X72572Y189589I-281J-402D01*
G03X71413Y187600I1127J-1989D01*
G01Y161250D01*
G03X72083Y159633I2286J0D01*
G01X77969Y153746D01*
G02X77623Y152910I-346J-346D01*
G01X71609D01*
X69086Y150387D01*
Y122917D01*
X73795Y118208D01*
G02X73448Y117372I-347J-346D01*
G01X55973D01*
X53128Y114527D01*
Y85173D01*
X58273Y80028D01*
X122227D01*
X124672Y82473D01*
Y114994D01*
G02X125090Y115167I245J0D01*
G01X125528Y114729D01*
Y72373D01*
X130273Y67628D01*
X162917D01*
G02X163264Y66792I0J-490D01*
G01X162661Y66188D01*
X56558D01*
X49290Y73457D01*
Y77400D01*
G03X48824Y78524I-1590J-1D01*
G01X45574Y81773D01*
X45608Y81908D01*
G03X45704Y82700I-3208J791D01*
G03X42400Y86004I-3304J0D01*
G03X40989Y85687I1J-3304D01*
G02X40290Y86130I-209J443D01*
G01Y133042D01*
X42824Y135576D01*
G03X43290Y136700I-1124J1125D01*
G01Y182000D01*
G03X42824Y183124I-1590J-1D01*
G01X32890Y193058D01*
Y193809D01*
G02X33490Y194286I490J0D01*
G03X34000Y194228I510J2213D01*
G03X36271Y196429I0J2272D01*
G01X36274Y196526D01*
X36758Y197010D01*
X58342D01*
X58826Y196526D01*
X58829Y196429D01*
G03X58872Y196053I2271J69D01*
G02X58262Y195484I-480J-97D01*
G03X57658Y195566I-605J-2190D01*
G03X56035Y194884I0J-2272D01*
G01X43787D01*
G03X42164Y195566I-1623J-1590D01*
G03Y191022I0J-2272D01*
G03X43787Y191704I0J2272D01*
G01X56035D01*
G03X57658Y191022I1623J1590D01*
G03X59930Y193294I0J2272D01*
G03X59886Y193741I-2272J2D01*
G02X60496Y194310I480J97D01*
G03X61100Y194228I605J2190D01*
G03X63372Y196500I0J2272D01*
G03X61171Y198771I-2272J0D01*
G01X61074Y198774D01*
X60688Y199160D01*
X60930Y199402D01*
X61027Y199405D01*
G03X63091Y200887I-67J2271D01*
G37*
G36*
G01X45664Y288272D02*
X58911D01*
G02X59319Y287512I0J-490D01*
G03X58942Y286258I1895J-1253D01*
G03X58956Y286009I2272J3D01*
G02X58415Y285468I-487J-54D01*
G03X58166Y285482I-252J-2258D01*
G03X56447Y284695I0J-2271D01*
G02X56101Y284671I-185J161D01*
G03X54610Y285228I-1490J-1715D01*
G03X52338Y282956I0J-2272D01*
G03X52482Y282159I2272J-1D01*
G02X52023Y281498I-459J-171D01*
G01X50676D01*
G03X49552Y281032I1J-1590D01*
G01X37572Y269052D01*
X29716D01*
G02X29520Y269990I1J490D01*
G03X35672Y279400I-4121J9410D01*
G03X35242Y282342I-10272J1D01*
G02X35729Y282972I469J140D01*
G03X35814Y282970I96J2270D01*
G03X37437Y283652I0J2272D01*
G01X40386D01*
G03X41510Y284118I-1J1590D01*
G01X45664Y288272D01*
G37*
G36*
G01X56500Y116100D02*
X122300D01*
X123400Y115000D01*
Y83000D01*
X121700Y81300D01*
X58800D01*
X54400Y85700D01*
Y114000D01*
X56500Y116100D01*
G37*
G36*
G01X63190Y214866D02*
X82912D01*
G02X83258Y214030I0J-490D01*
G01X80368Y211140D01*
X61088D01*
G02X60615Y211756I0J490D01*
G03X60691Y212273I-2195J587D01*
G01X60694Y212370D01*
X63190Y214866D01*
G37*
G36*
G01X72136Y151638D02*
X80962D01*
G03X81026Y151637I68J2286D01*
G01X158751D01*
X165100Y145288D01*
Y70500D01*
X163500Y68900D01*
X157658D01*
G03X155502I-1078J-2000D01*
G01X130800D01*
X126800Y72900D01*
Y115256D01*
X124200Y117856D01*
X95824D01*
G02X95341Y118427I0J490D01*
G03X95372Y118800I-2241J374D01*
G03X90828I-2272J0D01*
G03X90859Y118427I2272J1D01*
G02X90376Y117856I-483J-81D01*
G01X75946D01*
X70358Y123444D01*
Y149860D01*
X72136Y151638D01*
G37*
G36*
G01X90921Y247076D02*
X114149D01*
X114451Y246774D01*
G02X114105Y245938I-346J-346D01*
G01X96521D01*
G03X95397Y245472I1J-1590D01*
G01X93323Y243398D01*
X85792D01*
G02X85446Y244234I0J490D01*
G01X86834Y245622D01*
G02X87624Y245484I347J-346D01*
G03X88984Y244620I1360J638D01*
G03X90486Y246122I0J1502D01*
G03X90445Y246472I-1502J1D01*
G02X90921Y247076I476J114D01*
G37*
G36*
G01X100457Y227010D02*
X100847D01*
X102859Y224998D01*
G03X103983Y224532I1125J1124D01*
G03X104152Y224541I0J1591D01*
G02X104657Y223869I52J-487D01*
G03X104538Y223266I1471J-604D01*
G01Y220324D01*
X103990Y219776D01*
X100808D01*
G02X100365Y220474I0J490D01*
G03X100509Y221121I-1382J647D01*
G03X98984Y222646I-1525J0D01*
G01X94617D01*
X92613Y224650D01*
G02X92959Y225486I346J346D01*
G01X97372D01*
X97860Y224998D01*
G03X98984Y224532I1125J1124D01*
G03X100574Y226122I0J1590D01*
G03X100472Y226680I-1590J-2D01*
G01X100457Y226721D01*
Y227010D01*
G37*
G36*
G01X114849Y231654D02*
X117023D01*
X117481Y231196D01*
X117482Y231097D01*
G03X118984Y229619I1502J24D01*
G03X119247Y229642I1J1502D01*
G02X119822Y229160I85J-482D01*
G01Y223082D01*
G02X119247Y222600I-490J0D01*
G03X118984Y222623I-262J-1479D01*
G03X117872Y222131I0J-1503D01*
G01X116682D01*
G03X115570Y222623I-1112J-1011D01*
G03Y219619I0J-1502D01*
G03X116682Y220111I0J1503D01*
G01X117872D01*
G03X118079Y219922I1112J1010D01*
G02X118131Y219184I-295J-392D01*
G01X115928Y216982D01*
X110930D01*
G02X110471Y217644I0J490D01*
G03X110574Y218205I-1487J563D01*
G01Y221121D01*
G03X108999Y222710I-1589J0D01*
G02X108657Y223547I4J490D01*
G01X110108Y224998D01*
G03X110532Y225760I-1124J1124D01*
G02X111355Y225995I477J-112D01*
G01X112352Y224998D01*
G03X113476Y224532I1125J1124D01*
G01X113983D01*
G03X115572Y226122I0J1589D01*
G03X115127Y227226I-1589J1D01*
G02X115358Y228041I353J340D01*
G03X116489Y229496I-370J1455D01*
G03X115011Y230998I-1502J0D01*
G01X114912Y230999D01*
X114676Y231236D01*
G02X114849Y231654I173J173D01*
G37*
G36*
G01X161733Y151637D02*
X186877D01*
G02X187249Y150829I0J-490D01*
G03X186704Y149352I1727J-1476D01*
G03X188976Y147080I2272J0D01*
G03X190798Y147995I0J2272D01*
G02X191143Y148043I196J-147D01*
G03X191585Y147778I1390J1817D01*
G02X191728Y146986I-203J-446D01*
G01X183788Y139046D01*
G03X183322Y137922I1124J-1125D01*
G01Y131200D01*
G03X183788Y130076I1590J1D01*
G01X186736Y127129D01*
Y108175D01*
G03X187201Y107051I1589J-1D01*
G01X189810Y104442D01*
Y100724D01*
G02X189122Y100277I-490J1D01*
G03X188851Y100377I-921J-2078D01*
G02X188685Y100679I70J235D01*
G03X188772Y101300I-2185J623D01*
G03X186500Y103572I-2272J0D01*
G03X185090Y103081I1J-2272D01*
G02X184365Y103214I-304J384D01*
G03X184124Y103524I-1366J-813D01*
G01X178574Y109074D01*
X178571Y109171D01*
G03X176300Y111372I-2271J-71D01*
G03X174415Y110369I0J-2273D01*
G02X174094Y110291I-203J137D01*
G03X173000Y110572I-1094J-1991D01*
G03X170823Y108951I0J-2272D01*
G02X170185Y108632I-469J141D01*
G03X169400Y108772I-785J-2131D01*
G03X167128Y106500I0J-2272D01*
G03X167528Y105212I2272J0D01*
G02X167386Y104521I-404J-277D01*
G03X167170Y104366I1215J-1920D01*
G02X166372Y104747I-308J381D01*
G01Y145815D01*
X161386Y150801D01*
G02X161733Y151637I347J346D01*
G37*
G36*
G01X189985Y87423D02*
G03X191400Y86928I1416J1777D01*
G03X192980Y87567I0J2273D01*
G02X193810Y87215I340J-352D01*
G01Y85433D01*
X190676Y82299D01*
G03X190210Y81175I1124J-1125D01*
G01Y62433D01*
X182867Y55090D01*
X176959D01*
G02X176470Y55601I0J490D01*
G03X176472Y55700I-2270J95D01*
G03X176465Y55881I-2272J3D01*
G02X176953Y56410I488J39D01*
G01X178100D01*
G03X179224Y56876I-1J1590D01*
G01X184024Y61676D01*
G03X184426Y62354I-1124J1124D01*
G02X185133Y62645I470J-138D01*
G03X186234Y62360I1102J1987D01*
G03Y66904I0J2272D01*
G03X185202Y66656I0J-2271D01*
G02X184490Y67093I-222J437D01*
G01Y68642D01*
X188724Y72876D01*
G03X189190Y74000I-1124J1125D01*
G01Y87039D01*
G02X189985Y87423I490J1D01*
G37*
G36*
G01X261280Y660310D02*
X254020D01*
X252790Y659080D01*
Y650770D01*
X253460Y650100D01*
X261530D01*
X262620Y651190D01*
Y658970D01*
X261280Y660310D01*
G37*
%LPC*%
G75*
G36*
G01X294104Y226481D02*
X292227D01*
G02Y229531I0J1525D01*
G01X294736D01*
G02X295814Y229084I-1J-1525D01*
G01X297078Y227820D01*
G02X297525Y226742I-1078J-1079D01*
G01Y217000D01*
G02X294475I-1525J0D01*
G01Y226110D01*
X294104Y226481D01*
G37*
G36*
G01X126254Y36657D02*
G02X124737Y38800I755J2143D01*
G02X126165Y40910I2273J0D01*
G02X128400Y42772I2235J-410D01*
G02X129800Y42289I0J-2272D01*
G02X131200Y42772I1400J-1789D01*
G02X133433Y40922I0J-2273D01*
G02X134892Y38800I-814J-2122D01*
G02X133556Y36730I-2272J0D01*
G02X131300Y34728I-2256J270D01*
G02X129900Y35211I0J2272D01*
G02X128500Y34728I-1400J1789D01*
G02X126254Y36657I0J2272D01*
G37*
G36*
G01X114635Y51475D02*
G03X114965I165J181D01*
G02X118035I1535J-1675D01*
G03X118365I165J181D01*
G02X119900Y52072I1535J-1675D01*
G02X122075Y50455I0J-2271D01*
G02X124072Y48200I-275J-2255D01*
G02X121800Y45928I-2272J0D01*
G02X120265Y46525I0J2272D01*
G03X119935I-165J-181D01*
G02X116865I-1535J1675D01*
G03X116535I-165J-181D01*
G02X115000Y45928I-1535J1675D01*
G02X113420Y46567I0J2273D01*
G03X113080I-170J-176D01*
G02X111500Y45928I-1580J1634D01*
G02X110063Y46441I1J2272D01*
G03X109741Y46431I-155J-190D01*
G02X108200Y45828I-1541J1669D01*
G02X106025Y47445I0J2271D01*
G02X104028Y49700I275J2255D01*
G02X106300Y51972I2272J0D01*
G02X107737Y51459I-1J-2272D01*
G03X108059Y51469I155J190D01*
G02X109600Y52072I1541J-1669D01*
G02X111180Y51433I0J-2273D01*
G03X111520I170J176D01*
G02X113100Y52072I1580J-1634D01*
G02X114635Y51475I0J-2272D01*
G37*
G36*
G01X360792Y80010D02*
G03X360793Y80323I-188J157D01*
G02X360448Y81280I1157J958D01*
G02X363452I1502J0D01*
G02X363107Y80322I-1503J0D01*
G03X363106Y80009I188J-157D01*
G02X363451Y79052I-1157J-958D01*
G02X360447I-1502J0D01*
G02X360792Y80010I1503J0D01*
G37*
G36*
G01X274051Y176836D02*
G03X273741I-155J-190D01*
G02X272792Y176498I-949J1163D01*
G02Y179502I0J1502D01*
G02X273741Y179164I0J-1501D01*
G03X274051I155J190D01*
G02X275000Y179502I949J-1163D01*
G02Y176498I0J-1502D01*
G02X274051Y176836I0J1501D01*
G37*
G36*
G01X120442Y258495D02*
X119289Y259647D01*
X119170Y259633D01*
G02X118984Y259621I-190J1490D01*
G02X120486Y261123I0J1502D01*
G02X120474Y260937I-1502J4D01*
G01X120460Y260818D01*
X121370Y259908D01*
X134891D01*
G02X136144Y260582I1253J-828D01*
G02Y257578I0J-1502D01*
G02X134891Y258252I0J1502D01*
G01X121027D01*
G02X120442Y258495I1J828D01*
G37*
G36*
G01X212184Y267589D02*
G03Y267911I-185J161D01*
G02X211628Y269400I1716J1489D01*
G02X216172I2272J0D01*
G02X215616Y267911I-2272J0D01*
G03Y267589I185J-161D01*
G02X216172Y266100I-1716J-1489D01*
G02X211628I-2272J0D01*
G02X212184Y267589I2272J0D01*
G37*
G36*
G01X130857Y296040D02*
G02X129300Y298196I714J2156D01*
G02X130126Y299948I2271J0D01*
G02X130062Y300482I2208J535D01*
G02X134606I2272J0D01*
G02X134584Y300164I-2272J-3D01*
G02X136384Y297942I-471J-2222D01*
G02X135337Y296029I-2271J0D01*
G02X135368Y295656I-2241J-374D01*
G02X130824I-2272J0D01*
G02X130857Y296040I2272J-2D01*
G37*
G36*
G01X195260Y287782D02*
Y304934D01*
G02X194128Y306900I1141J1966D01*
G02X198672I2272J0D01*
G02X198462Y305946I-2272J0D01*
G01X198440Y305897D01*
Y288440D01*
X199752Y287128D01*
G02X200218Y286004I-1124J-1125D01*
G01Y228528D01*
G02X199752Y227404I-1590J1D01*
G01X196824Y224476D01*
G02X195700Y224010I-1125J1124D01*
G01X193323D01*
G02X191700Y223328I-1623J1590D01*
G02Y227872I0J2272D01*
G02X193323Y227190I0J-2272D01*
G01X195042D01*
X197038Y229186D01*
Y285346D01*
X195726Y286658D01*
G02X195260Y287782I1124J1125D01*
G37*
G36*
G01X97650Y316441D02*
G02X96500Y316128I-1151J1959D01*
G02X94228Y318400I0J2272D01*
G02X94606Y319655I2272J0D01*
G02X94128Y321050I1794J1394D01*
G02X96400Y323322I2272J0D01*
G02X97520Y323027I0J-2272D01*
G02X98800Y323422I1280J-1876D01*
G02X101072Y321150I0J-2272D01*
G02X100609Y319775I-2273J0D01*
G02X101072Y318400I-1810J-1375D01*
G02X98800Y316128I-2272J0D01*
G02X97650Y316441I1J2272D01*
G37*
G36*
G01X188631Y363839D02*
G03X188534Y364150I-223J101D01*
G02X187428Y366100I1166J1950D01*
G02X191972I2272J0D01*
G02X191769Y365161I-2273J0D01*
G03X191866Y364850I223J-101D01*
G02X192972Y362900I-1166J-1950D01*
G02X188428I-2272J0D01*
G02X188631Y363839I2273J0D01*
G37*
G36*
G01X128613Y363955D02*
G02X127100Y363378I-1513J1695D01*
G02X124828Y365650I0J2272D01*
G02X125180Y366865I2273J0D01*
G02X124982Y367792I2074J928D01*
G02X126386Y369892I2273J0D01*
G02X128650Y371972I2264J-192D01*
G02X130922Y369700I0J-2272D01*
G02X130582Y368504I-2272J0D01*
G03X130679Y367874I416J-258D01*
G02X131472Y366150I-1479J-1725D01*
G02X129200Y363878I-2272J0D01*
G02X128613Y363955I-1J2272D01*
G37*
G36*
G01X190498Y377487D02*
G03X190711Y378108I-238J429D01*
G02X190528Y379000I2089J893D01*
G02X195072I2272J0D01*
G02X193902Y377013I-2272J0D01*
G03X193689Y376392I238J-429D01*
G02X193872Y375500I-2089J-893D01*
G02X191600Y373228I-2272J0D01*
G02X190481Y373522I-1J2272D01*
G03X190150Y373435I-121J-213D01*
G02X188200Y372328I-1950J1164D01*
G02Y376872I0J2272D01*
G02X189319Y376578I1J-2272D01*
G03X189650Y376665I121J213D01*
G02X190498Y377487I1951J-1164D01*
G37*
G36*
G01X126733Y385210D02*
X122349Y389594D01*
X122252Y389597D01*
G02X120051Y391868I71J2271D01*
G02X122323Y394140I2272J0D01*
G02X124594Y391939I0J-2272D01*
G01X124597Y391842D01*
X126309Y390130D01*
G03X127122Y390328I346J347D01*
G02X129286Y391908I2164J-692D01*
G02X131558Y389636I0J-2272D01*
G02X131323Y388630I-2271J0D01*
G03X131763Y387924I440J-216D01*
G01X135486D01*
X138188Y390626D01*
X138191Y390723D01*
G02X140462Y392924I2271J-71D01*
G02X142734Y390652I0J-2272D01*
G02X140533Y388381I-2272J0D01*
G01X140436Y388378D01*
X137268Y385210D01*
G02X136144Y384744I-1125J1124D01*
G01X127857D01*
G02X126733Y385210I1J1590D01*
G37*
G36*
G01X74337Y401700D02*
G02X73928Y403000I1863J1300D01*
G02X76200Y405272I2272J0D01*
G02X77450Y404897I0J-2271D01*
G02X78700Y405272I1250J-1896D01*
G02X80000Y404863I0J-2272D01*
G02X81300Y405272I1300J-1863D01*
G02X83572Y403000I0J-2272D01*
G02X83163Y401700I-2272J0D01*
G02X83572Y400400I-1863J-1300D01*
G02X83190Y399139I-2272J0D01*
G02X83534Y397936I-1928J-1202D01*
G02X81262Y395664I-2272J0D01*
G02X79962Y396073I0J2272D01*
G02X78662Y395664I-1300J1863D01*
G02X77412Y396039I0J2271D01*
G02X76162Y395664I-1250J1896D01*
G02X73890Y397936I0J2272D01*
G02X74272Y399197I2272J0D01*
G02X73928Y400400I1928J1202D01*
G02X74337Y401700I2272J0D01*
G37*
G36*
G01X202283Y404769D02*
G02X202400Y404772I117J-2269D01*
G02Y400228I0J-2272D01*
G02X200167Y402081I0J2272D01*
G02X200050Y402078I-117J2269D01*
G02Y406622I0J2272D01*
G02X202283Y404769I0J-2272D01*
G37*
G36*
G01X405645Y420772D02*
X413286Y428414D01*
G02X415600Y429372I2313J-2314D01*
G01X484900D01*
G02X487214Y428414I1J-3272D01*
G01X494514Y421114D01*
G02X495472Y418800I-2314J-2313D01*
G01Y333700D01*
G02X494514Y331386I-3272J-1D01*
G01X485364Y322237D01*
Y211363D01*
X494214Y202514D01*
G02X495172Y200200I-2314J-2313D01*
G01Y142700D01*
G02X494214Y140386I-3272J-1D01*
G01X490914Y137086D01*
G02X488600Y136128I-2313J2314D01*
G01X470700D01*
G02X468386Y137086I-1J3272D01*
G01X459245Y146228D01*
X426699D01*
X420667Y140195D01*
G02X418353Y139237I-2313J2314D01*
G01X411000D01*
G02X409320Y139701I0J3273D01*
G01X409262Y139736D01*
X408764D01*
Y138216D01*
X411088Y135892D01*
X451550D01*
X456884Y141226D01*
X461834D01*
X469416Y133644D01*
Y118556D01*
X463496Y112636D01*
X379084D01*
X376836Y114884D01*
Y137316D01*
X382784Y143264D01*
X389784D01*
X391412Y144892D01*
Y154116D01*
X386078Y159450D01*
Y181802D01*
X382970Y184910D01*
X368362D01*
X363476Y180024D01*
Y174052D01*
X368556Y168972D01*
Y156910D01*
X366270Y154624D01*
Y150620D01*
X358078D01*
X356360Y152338D01*
Y160212D01*
X352744Y163828D01*
X327598D01*
X321054Y170372D01*
Y190816D01*
X326582Y196344D01*
X367764D01*
X377684Y206264D01*
X396796D01*
X413464Y189596D01*
Y151984D01*
X408764Y147284D01*
Y145264D01*
X409233D01*
X409292Y145300D01*
G02X411000Y145781I1708J-2792D01*
G01X416998D01*
X423030Y151814D01*
G02X425344Y152772I2313J-2314D01*
G01X460600D01*
G02X462914Y151814I1J-3272D01*
G01X472055Y142672D01*
X487245D01*
X488628Y144055D01*
Y198845D01*
X479778Y207694D01*
G02X478820Y210008I2314J2313D01*
G01Y323592D01*
G02X479778Y325906I3272J1D01*
G01X488928Y335055D01*
Y417445D01*
X483545Y422828D01*
X416955D01*
X409314Y415186D01*
G02X407000Y414228I-2313J2314D01*
G01X394725D01*
X394372Y413875D01*
Y412173D01*
X392227Y410028D01*
X389173D01*
X387028Y412173D01*
Y412433D01*
X386999Y412487D01*
G02X386618Y414020I2891J1532D01*
G02X387576Y416334I3272J1D01*
G01X391056Y419814D01*
G02X393370Y420772I2313J-2314D01*
G01X405645D01*
G37*
G36*
G01X97571Y430000D02*
G02X97228Y431200I1928J1200D01*
G02X97512Y432300I2272J0D01*
G02X97228Y433400I1988J1100D01*
G02X101772I2272J0D01*
G02X101488Y432300I-2272J0D01*
G02X101772Y431200I-1988J-1100D01*
G02X101429Y430000I-2271J0D01*
G02X101772Y428800I-1928J-1200D01*
G02X97228I-2272J0D01*
G02X97571Y430000I2271J0D01*
G37*
G36*
G01X468813Y434121D02*
G03X468493Y434937I-364J328D01*
G02X466428Y437200I207J2263D01*
G02X468700Y439472I2272J0D01*
G02X470838Y437968I0J-2272D01*
G03X471495Y437684I461J165D01*
G02X472400Y437872I905J-2084D01*
G02X473501Y437587I-1J-2272D01*
G02X475300Y438472I1799J-1386D01*
G02X476700Y437989I0J-2272D01*
G02X478100Y438472I1400J-1789D01*
G02X480096Y437285I0J-2272D01*
G02X481000Y437472I903J-2085D01*
G02Y432928I0J-2272D01*
G02X479004Y434115I0J2272D01*
G02X478100Y433928I-903J2085D01*
G02X476700Y434411I0J2272D01*
G02X475300Y433928I-1400J1789D01*
G02X474199Y434213I1J2272D01*
G02X472903Y433384I-1800J1386D01*
G03X472718Y433092I54J-239D01*
G02X472772Y432600I-2218J-492D01*
G02X468228I-2272J0D01*
G02X468813Y434121I2272J-1D01*
G37*
G36*
G01X273645Y440722D02*
X276787D01*
G02X276851Y440723I67J-2271D01*
G02Y436179I0J-2272D01*
G01X273445D01*
X273310Y436195D01*
G02X271309Y438451I271J2256D01*
G02X273581Y440723I2272J0D01*
G02X273645Y440722I-3J-2272D01*
G37*
G36*
G01X287707Y436194D02*
X284395D01*
G02Y440738I36J2272D01*
G01X287707D01*
G02Y436194I-6J-2272D01*
G37*
G36*
G01X241139Y438700D02*
G02X241101I-19J2272D01*
G02Y443244I0J2272D01*
G02X241139I19J-2272D01*
G01X244378D01*
G02Y438700I-7J-2272D01*
G01X241139D01*
G37*
G36*
G01X267145Y439000D02*
X263856D01*
G02Y443544I3J2272D01*
G01X267145D01*
G02Y439000I-16J-2272D01*
G37*
G36*
G01X255904Y439017D02*
X252617D01*
G02Y443561I2J2272D01*
G01X255904D01*
G02Y439017I-15J-2272D01*
G37*
G36*
G01X26700Y455729D02*
G02X27900Y456072I1200J-1928D01*
G02X29150Y455697I0J-2271D01*
G02X30400Y456072I1250J-1896D01*
G02X31600Y455729I0J-2271D01*
G02X32800Y456072I1200J-1928D01*
G02X35072Y453800I0J-2272D01*
G02X34697Y452550I-2271J0D01*
G02X35072Y451300I-1896J-1250D01*
G02X32800Y449028I-2272J0D01*
G02X31600Y449371I0J2271D01*
G02X30400Y449028I-1200J1928D01*
G02X29150Y449403I0J2271D01*
G02X27900Y449028I-1250J1896D01*
G02X26700Y449371I0J2271D01*
G02X25500Y449028I-1200J1928D01*
G02X23228Y451300I0J2272D01*
G02X23603Y452550I2271J0D01*
G02X23228Y453800I1896J1250D01*
G02X25500Y456072I2272J0D01*
G02X26700Y455729I0J-2271D01*
G37*
G36*
G01X326425Y483315D02*
X326406Y483458D01*
Y486879D01*
G02X330950I2272J0D01*
G02X330940Y486667I-2272J1D01*
G01X330939Y486655D01*
Y483833D01*
X330940Y483821D01*
G02X330950Y483609I-2262J-213D01*
G02X328678Y481337I-2272J0D01*
G02X326425Y483315I0J2272D01*
G37*
G36*
G01X410848Y485998D02*
Y493002D01*
X414386D01*
G02X418697Y492001I2039J-1002D01*
G01Y487000D01*
G02X416425Y484728I-2272J0D01*
G02X414386Y485998I0J2272D01*
G01X410848D01*
G37*
G36*
G01X15041Y493450D02*
G02X14728Y494600I1959J1151D01*
G02X17000Y496872I2272J0D01*
G02X18200Y496529I0J-2271D01*
G02X20600I1200J-1928D01*
G02X21800Y496872I1200J-1928D01*
G02X24072Y494600I0J-2272D01*
G02X23759Y493450I-2272J1D01*
G02X24072Y492300I-1959J-1151D01*
G02X23707Y491065I-2272J0D01*
G02X23972Y490000I-2008J-1065D01*
G02X21700Y487728I-2272J0D01*
G02X20500Y488071I0J2271D01*
G02X18100I-1200J1928D01*
G02X16900Y487728I-1200J1928D01*
G02X14628Y490000I0J2272D01*
G02X14993Y491235I2272J0D01*
G02X14728Y492300I2008J1065D01*
G02X15041Y493450I2272J-1D01*
G37*
G36*
G01X138440Y498559D02*
G02X140500Y499872I2060J-959D01*
G02X142772Y497600I0J-2272D01*
G02X140860Y495357I-2272J0D01*
G02X138800Y494044I-2060J959D01*
G02X136528Y496316I0J2272D01*
G02X138440Y498559I2272J0D01*
G37*
G36*
G01X408759Y502589D02*
G02X404228Y502810I-2259J242D01*
G01Y506106D01*
G02X408761Y506328I2272J-6D01*
G01X408783Y506108D01*
X408838D01*
Y502808D01*
X408783D01*
X408759Y502589D01*
G37*
G36*
G01X419598Y500998D02*
Y508002D01*
X420936D01*
G02X425014I2039J-1002D01*
G01X426352D01*
Y500998D01*
X425014D01*
G02X420936I-2039J1002D01*
G01X419598D01*
G37*
G36*
G01X178928Y504170D02*
Y507451D01*
G02Y507462I2272J5D01*
G02X183472I2272J0D01*
G02Y507451I-2272J-6D01*
G01Y504170D01*
G02X178928I-2272J22D01*
G37*
G36*
G01X252080Y506028D02*
X248781D01*
G02Y510572I11J2272D01*
G01X252080D01*
G02Y506028I-18J-2272D01*
G37*
G36*
G01X362839Y513856D02*
G02X364236Y514336I1397J-1793D01*
G02Y509792I0J-2272D01*
G02X362839Y510272I0J2273D01*
G02X361442Y509792I-1397J1793D01*
G02Y514336I0J2272D01*
G02X362839Y513856I0J-2273D01*
G37*
G36*
G01X373058Y516509D02*
G02X373366Y515366I-1964J-1142D01*
G02X368822I-2272J0D01*
G02X369130Y516509I2272J1D01*
G02X368822Y517652I1964J1142D01*
G02X373366I2272J0D01*
G02X373058Y516509I-2272J-1D01*
G37*
G36*
G01X401998Y519153D02*
G02Y521873I1820J1360D01*
G01Y524802D01*
X409002D01*
Y521737D01*
G02Y519289I-1913J-1224D01*
G01Y518048D01*
X401998D01*
Y519153D01*
G37*
G36*
G01X187898Y520386D02*
G02Y524464I1002J2039D01*
G01Y525802D01*
X194902D01*
Y524464D01*
G02Y520386I-1002J-2039D01*
G01Y519048D01*
X187898D01*
Y520386D01*
G37*
G36*
G01X264098Y520672D02*
G02X263846Y521713I2020J1040D01*
G02X264098Y522754I2272J1D01*
G01Y525802D01*
X271102D01*
Y523204D01*
G02Y520222I-1714J-1491D01*
G01Y519048D01*
X264098D01*
Y520672D01*
G37*
G36*
G01X430343Y535170D02*
X430438Y535174D01*
X433850D01*
X434019Y535151D01*
G02X435980Y532900I-311J-2251D01*
G02X433805Y530630I-2272J0D01*
G01X433799D01*
G02X433708Y530628I-95J2270D01*
G02X433617Y530630I4J2272D01*
G01X430529D01*
G02X430438Y530628I-95J2270D01*
G02X428166Y532900I0J2272D01*
G02X430343Y535170I2272J0D01*
G37*
G36*
G01X81276Y533994D02*
G03X80495Y534189I-458J-174D01*
G02X79000Y533628I-1495J1712D01*
G02Y538172I0J2272D01*
G02X81124Y536706I0J-2272D01*
G03X81905Y536511I458J174D01*
G02X83400Y537072I1495J-1712D01*
G02Y532528I0J-2272D01*
G02X81276Y533994I0J2272D01*
G37*
G36*
G01X418130Y559578D02*
X414854D01*
G02Y564122I-4J2272D01*
G01X418130D01*
G02Y559578I-10J-2272D01*
G37*
G36*
G01X360760Y560289D02*
G03X360174Y560650I-476J-117D01*
G02X359664Y560592I-510J2213D01*
G02Y565136I0J2272D01*
G02X360807Y564828I1J-2272D01*
G02X361950Y565136I1142J-1964D01*
G02X364222Y562864I0J-2272D01*
G02X364218Y562728I-2272J-1D01*
G02X365238Y560832I-1252J-1896D01*
G02X362966Y558560I-2272J0D01*
G02X360760Y560289I0J2272D01*
G37*
G36*
G01X384048Y564896D02*
G02X383032Y564656I-1016J2032D01*
G02Y569200I0J2272D01*
G02X384048Y568960I0J-2272D01*
G02X385064Y569200I1016J-2032D01*
G02X386080Y568960I0J-2272D01*
G02X387096Y569200I1016J-2032D01*
G02Y564656I0J-2272D01*
G02X386080Y564896I0J2272D01*
G02X385064Y564656I-1016J2032D01*
G02X384048Y564896I0J2272D01*
G37*
G36*
G01X233074Y567382D02*
G02X233680Y567438I606J-3248D01*
G02Y560830I0J-3304D01*
G02X230656Y562802I0J3305D01*
G02X230050Y562746I-606J3248D01*
G02Y569354I0J3304D01*
G02X233074Y567382I0J-3305D01*
G37*
G36*
G01X329527Y564571D02*
G03X328986Y564931I-474J-125D01*
G02X328676Y564910I-308J2251D01*
G02Y569454I0J2272D01*
G02X329819Y569146I1J-2272D01*
G02X330962Y569454I1142J-1964D01*
G02X332598Y568758I0J-2271D01*
G02X333502Y568946I905J-2084D01*
G02X335774Y566674I0J-2272D01*
G02X333880Y564434I-2272J0D01*
G02X331724Y562878I-2156J716D01*
G02X329527Y564571I0J2272D01*
G37*
G36*
G01X517039Y568090D02*
G03X516302Y568013I-335J-357D01*
G02X513590Y566596I-2712J1887D01*
G02Y573204I0J3304D01*
G02X515851Y572310I1J-3304D01*
G03X516588Y572387I335J357D01*
G02X519300Y573804I2712J-1887D01*
G02Y567196I0J-3304D01*
G02X517039Y568090I-1J3304D01*
G37*
G36*
G01X455132Y591796D02*
G02X454196Y594100I2368J2304D01*
G02X455128Y596400I3304J0D01*
G02X454196Y598700I2372J2300D01*
G02X457500Y602004I3304J0D01*
G02X460542Y599991I0J-3305D01*
G02X461400Y600104I857J-3191D01*
G02Y593496I0J-3304D01*
G02X460984Y593522I-2J3304D01*
G03X460714Y593336I-32J-243D01*
G02X459968Y591904I-3214J764D01*
G02X460904Y589600I-2368J-2304D01*
G02X460014Y587344I-3304J0D01*
G02X460804Y585200I-2514J-2144D01*
G02X454196I-3304J0D01*
G02X455086Y587456I3304J0D01*
G02X454296Y589600I2514J2144D01*
G02X455132Y591796I3304J-1D01*
G37*
G36*
G01X135198Y614536D02*
G02Y618614I1002J2039D01*
G01Y619952D01*
X142202D01*
Y618614D01*
G02Y614536I-1002J-2039D01*
G01Y613198D01*
X135198D01*
Y614536D01*
G37*
G36*
G01X150198D02*
G02Y618614I1002J2039D01*
G01Y619952D01*
X157202D01*
Y618614D01*
G02Y614536I-1002J-2039D01*
G01Y613198D01*
X150198D01*
Y614536D01*
G37*
G36*
G01X198398Y613198D02*
Y620061D01*
G02X197128Y622100I1002J2039D01*
G02X199385Y624372I2272J0D01*
G01X204413D01*
G02X206672Y622100I-13J-2272D01*
G02X205402Y620061I-2272J0D01*
G01Y613198D01*
X198398D01*
G37*
G36*
G01X250490Y621203D02*
G02X249498Y625514I10J2272D01*
G01Y628952D01*
X256502D01*
Y625514D01*
G02X255506Y621203I-1002J-2039D01*
G01X250490D01*
G37*
G36*
G01X265493Y621103D02*
G02X263228Y623375I7J2272D01*
G02X264498Y625414I2272J0D01*
G01Y628952D01*
X271502D01*
Y625414D01*
G02X270510Y621103I-1002J-2039D01*
G01X265493D01*
G37*
G36*
G01X339068Y630344D02*
G03X339546Y630944I0J490D01*
G02X339418Y632072I4914J1129D01*
G02X349502I5042J0D01*
G02X346089Y627300I-5043J0D01*
G03X345809Y626616I158J-464D01*
G02X346532Y623572I-6049J-3045D01*
G02X341532Y617036I-6772J0D01*
G01Y613072D01*
G02X328988I-6272J0D01*
G01Y624072D01*
G02X335260Y630344I6272J0D01*
G02X335996Y630301I3J-6272D01*
G02X336760Y630344I762J-6729D01*
G01X339068D01*
G37*
G36*
G01X411111Y626616D02*
G03X410831Y627300I-438J220D01*
G02X407418Y632072I1630J4772D01*
G02X417502I5042J0D01*
G02X417374Y630944I-5042J1D01*
G03X417852Y630344I478J-110D01*
G01X420160D01*
G02X420924Y630301I2J-6772D01*
G02X421660Y630344I733J-6229D01*
G02X427932Y624072I0J-6272D01*
G01Y613072D01*
G02X415388I-6272J0D01*
G01Y617036D01*
G02X410388Y623572I1772J6536D01*
G02X411111Y626616I6772J-1D01*
G37*
G36*
G01X377973Y663325D02*
X372618D01*
G02Y669933I17J3304D01*
G01X377973D01*
G02Y663325I-4J-3304D01*
G37*
G36*
G01X288380Y617137D02*
G02X288358Y617450I2250J315D01*
G02X290630Y615178I2272J0D01*
G02X289886Y615303I-1J2272D01*
G03X289240Y614773I-161J-463D01*
G02X289262Y614460I-2250J-315D01*
G02X286990Y616732I-2272J0D01*
G02X287734Y616607I1J-2272D01*
G03X288380Y617137I161J463D01*
G37*
G36*
G01X144718Y224012D02*
X147906Y227200D01*
G02X148984Y227647I1079J-1078D01*
G02X150509Y226122I0J-1525D01*
G02X150062Y225044I-1525J1D01*
G01X147321Y222302D01*
Y221896D01*
X147692D01*
X147765Y221998D01*
G02X148984Y222623I1219J-876D01*
G02Y219619I0J-1502D01*
G02X148100Y219907I0J1501D01*
G03X147321Y219511I-289J-396D01*
G01Y217933D01*
G02X146874Y216855I-1525J1D01*
G01X145063Y215044D01*
G02X143985Y214597I-1079J1078D01*
G02X142460Y216122I0J1525D01*
G02X142907Y217200I1525J-1D01*
G01X144271Y218565D01*
Y222934D01*
G02X144718Y224012I1525J-1D01*
G37*
G36*
G01X466736Y184973D02*
G02X466092Y186206I858J1233D01*
G02X469096I1502J0D01*
G02X468452Y184973I-1502J0D01*
G03Y184169I280J-402D01*
G02X469096Y182936I-858J-1233D01*
G02X466092I-1502J0D01*
G02X466736Y184169I1502J0D01*
G03Y184973I-280J402D01*
G37*
G36*
G01X425000Y165029D02*
G02X424964Y165354I1466J327D01*
G02X426466Y163852I1502J0D01*
G02X426073Y163904I-1J1502D01*
G03X425466Y163325I-129J-473D01*
G02X425502Y163000I-1466J-327D01*
G02X424000Y164502I-1502J0D01*
G02X424393Y164450I1J-1502D01*
G03X425000Y165029I129J473D01*
G37*
G36*
G01X313156Y138685D02*
G02X313741Y138928I586J-585D01*
G01X355540D01*
G02X356125Y138685I-1J-828D01*
G01X357935Y136876D01*
X358054Y136890D01*
G02X358240Y136902I190J-1490D01*
G02X356738Y135400I0J-1502D01*
G02X356750Y135586I1502J-4D01*
G01X356764Y135705D01*
X355197Y137272D01*
X354626D01*
G03X354269Y136446I0J-490D01*
G02X354685Y135400I-1109J-1047D01*
G02X354238Y134322I-1525J1D01*
G01X350238Y130322D01*
G02X349160Y129875I-1079J1078D01*
G01X326532D01*
X325374Y128717D01*
Y118600D01*
G02X322324I-1525J0D01*
G01Y129349D01*
G02X322771Y130427I1525J-1D01*
G01X324822Y132478D01*
G02X325900Y132925I1079J-1078D01*
G01X348528D01*
X352039Y136436D01*
G03X351693Y137272I-346J346D01*
G01X339274D01*
G03X338921Y136442I0J-490D01*
G02X339342Y135400I-1081J-1043D01*
G02X337840Y133898I-1502J0D01*
G02X336587Y134572I0J1502D01*
G01X314543D01*
X264729Y84759D01*
G02X264144Y84516I-586J585D01*
G01X254999D01*
G02X253746Y83842I-1253J828D01*
G02Y86846I0J1502D01*
G02X254999Y86172I0J-1502D01*
G01X263801D01*
X313615Y135985D01*
G02X314200Y136228I586J-585D01*
G01X336587D01*
G02X336759Y136442I1252J-830D01*
G03X336406Y137272I-353J340D01*
G01X314084D01*
X266650Y89839D01*
G02X266065Y89596I-586J585D01*
G01X255613D01*
X255222Y89205D01*
X255236Y89086D01*
G02X255248Y88900I-1490J-190D01*
G02X253746Y90402I-1502J0D01*
G02X253932Y90390I-4J-1502D01*
G01X254051Y90376D01*
X254685Y91009D01*
G02X255270Y91252I586J-585D01*
G01X265722D01*
X313156Y138685D01*
G37*
G36*
G01X289409Y391152D02*
G02X288765Y392385I858J1233D01*
G02X290267Y393887I1502J0D01*
G02X291765Y392492I0J-1502D01*
G01X291781Y392264D01*
X355219D01*
G02X355759Y392040I0J-763D01*
G01X364040Y383759D01*
G02X364264Y383219I-539J-540D01*
G01Y327023D01*
G03X365082Y326659I490J0D01*
G02X366088Y327046I1006J-1114D01*
G02Y324042I0J-1502D01*
G02X365082Y324429I0J1501D01*
G03X364264Y324065I-328J-364D01*
G01Y293816D01*
X381040Y277040D01*
G02X381264Y276500I-539J-540D01*
G01Y215500D01*
G02X381040Y214960I-763J0D01*
G01X375674Y209594D01*
G03X375785Y208817I346J-347D01*
G02X376566Y207500I-720J-1317D01*
G02X375064Y205998I-1502J0D01*
G02X373831Y206642I0J1502D01*
G03X373027I-402J-280D01*
G02X371794Y205998I-1233J858D01*
G02X370292Y207500I0J1502D01*
G02X371758Y209002I1502J0D01*
G03X372236Y209491I-12J490D01*
G01Y210500D01*
G02X372460Y211040I763J0D01*
G01X378236Y216816D01*
Y275184D01*
X361460Y291960D01*
G02X361236Y292500I539J540D01*
G01Y382684D01*
X354684Y389236D01*
X291781D01*
X291765Y389008D01*
G02X291693Y388644I-1498J107D01*
G03X292158Y388000I465J-154D01*
G01X340006D01*
X353264Y374742D01*
Y348316D01*
X354764Y346816D01*
Y339184D01*
X353765Y338185D01*
X350867D01*
X348592Y335910D01*
X346069D01*
G03X345723Y335074I1J-490D01*
G01X347877Y332919D01*
G02X348466Y331498I-1420J-1421D01*
G01Y295835D01*
G02X347877Y294414I-2009J0D01*
G01X345238Y291775D01*
G02X343817Y291186I-1421J1420D01*
G01X308657D01*
G02X307236Y291775I0J2009D01*
G01X300714Y298296D01*
X298154Y295736D01*
X295464D01*
Y288616D01*
X301816Y282264D01*
X358316D01*
X376764Y263816D01*
Y216684D01*
X359468Y199388D01*
X352032D01*
X347236Y204184D01*
Y235684D01*
X334684Y248236D01*
X286684D01*
X264832Y270088D01*
Y308288D01*
G03X264338Y308778I-490J0D01*
G01X264324D01*
G02Y311782I0J1502D01*
G01X264338D01*
G03X264832Y312272I4J490D01*
G01Y325860D01*
X272387Y333416D01*
G03X272064Y334252I-346J347D01*
G02X270634Y335752I72J1500D01*
G02X272136Y337254I1502J0D01*
G02X273636Y335824I0J-1502D01*
G03X274472Y335501I489J23D01*
G01X280809Y341837D01*
X280825Y341866D01*
G02X281392Y342433I1307J-740D01*
G01X281421Y342449D01*
X282640Y343668D01*
Y345731D01*
G03X281813Y346086I-490J0D01*
G01X276088D01*
X270682Y340680D01*
X257049D01*
X257021Y340673D01*
G02X256671Y340632I-349J1461D01*
G02X256321Y340673I-1J1502D01*
G01X256293Y340680D01*
X248296D01*
Y362112D01*
X256376Y370192D01*
X260062D01*
Y381192D01*
X266870Y388000D01*
X269819D01*
X269874Y388168D01*
G02X272728I1427J-469D01*
G01X272783Y388000D01*
X288376D01*
G03X288841Y388644I0J490D01*
G02X288765Y389115I1426J472D01*
G02X289409Y390348I1502J0D01*
G03Y391152I-280J402D01*
G37*
G36*
G01X58133Y71947D02*
G03X57530Y72391I-489J-33D01*
G02X57000Y72328I-531J2209D01*
G02Y76872I0J2272D01*
G02X59267Y74753I0J-2272D01*
G03X59870Y74309I489J33D01*
G02X60400Y74372I531J-2209D01*
G02Y69828I0J-2272D01*
G02X58133Y71947I0J2272D01*
G37*
G36*
G01X65094Y92255D02*
G03X64832Y92440I-238J-59D01*
G02X64600Y92428I-233J2260D01*
G02Y96972I0J2272D01*
G02X66806Y95245I0J-2272D01*
G03X67068Y95060I238J59D01*
G02X67300Y95072I233J-2260D01*
G02Y90528I0J-2272D01*
G02X65094Y92255I0J2272D01*
G37*
G54D41*
X382726Y39000D03*
X415800Y38000D03*
X429500Y35600D03*
X422500Y38900D03*
X452700Y36100D03*
X365140Y48526D03*
X401300Y43700D03*
X419518Y48526D03*
X410296D03*
X465628D03*
X216700Y64500D03*
X336549Y57451D03*
X374649Y79052D03*
X387349D03*
X400049Y80830D03*
X412749D03*
X425449D03*
X438149D03*
X450849D03*
X353417Y156629D03*
X350988Y160742D03*
X372618Y168910D03*
X420500Y170688D03*
X370002Y176962D03*
X455300Y190400D03*
X276098Y199644D03*
X458492Y194718D03*
X272227Y208006D03*
X138891Y221028D03*
X228244Y228006D03*
X233195Y223798D03*
X232227Y228006D03*
X272227D03*
X282227Y223008D03*
X340795Y229464D03*
X228244Y233094D03*
Y238182D03*
X232227Y233008D03*
Y238006D03*
Y243008D03*
X237229D03*
X138984Y261123D03*
X141732Y263398D03*
X108984Y276122D03*
X131572Y273812D03*
X131485Y268645D03*
X400114Y275300D03*
X131572Y277622D03*
X230000Y286960D03*
X386754Y276568D03*
X430320Y281020D03*
X455093Y281024D03*
X376264Y294062D03*
X257964Y310916D03*
X371804Y310598D03*
X447810Y303916D03*
X246834Y319180D03*
X398524Y313778D03*
X462120Y319498D03*
X251902Y330199D03*
X262416Y334766D03*
X257125Y324872D03*
X461802Y331900D03*
X251902Y335279D03*
X464660Y349712D03*
X371176Y364022D03*
X399160Y373562D03*
X234188Y392684D03*
X377536Y390734D03*
X377210Y384056D03*
X392800Y384692D03*
X407500Y392000D03*
X406474Y411086D03*
X411554D03*
X117602Y225298D03*
G54D40*
X134850Y26650D03*
X151000Y31500D03*
X210160Y43700D03*
X199360Y43100D03*
X196849Y118200D03*
X200406Y163576D03*
X186182Y273558D03*
X187198Y266446D03*
X59700Y306324D03*
X144100Y324800D03*
X189600Y329200D03*
X62000Y361900D03*
X135400Y358800D03*
X80772Y389636D03*
X197500Y399500D03*
X192600Y395600D03*
X206200Y407400D03*
X149550Y417750D03*
X155600Y424300D03*
X430639Y419500D03*
X425559D03*
X347100Y463000D03*
X472948Y455168D03*
X332232Y473964D03*
X351700Y471700D03*
X376100Y470200D03*
X432100Y475400D03*
X472440Y477266D03*
X350542Y509900D03*
X120400Y516000D03*
X153029Y514229D03*
X147600Y528340D03*
X157000Y530540D03*
X352552Y527304D03*
X372364Y531622D03*
X115850Y538750D03*
X296820Y614930D03*
X297600Y626330D03*
X245600Y636900D03*
X269300Y642500D03*
X64900Y417000D03*
X63086Y426214D03*
X62300Y438440D03*
X61700Y445300D03*
X66248Y253362D03*
X62738Y190300D03*
X98900Y141000D03*
X122900Y140700D03*
X139400Y140198D03*
X153900Y142900D03*
X183896Y145288D03*
G54D43*
X491235Y50137D03*
X441993Y473456D03*
X455700Y511300D03*
X508000Y556900D03*
X501700Y560400D03*
X501203Y570897D03*
X501100Y599000D03*
G54D37*
X254110Y23712D03*
G54D38*
X279510D03*
X304910D03*
G54D42*
X508000Y50800D03*
Y76200D03*
Y101600D03*
Y127000D03*
Y152400D03*
Y177800D03*
Y203200D03*
Y228600D03*
Y269200D03*
Y294600D03*
Y320000D03*
Y345400D03*
Y370800D03*
Y396200D03*
Y421600D03*
Y447000D03*
Y472400D03*
Y497800D03*
X25400Y355600D03*
Y381000D03*
Y406400D03*
Y177800D03*
G54D36*
X241300Y549460D03*
X279400D03*
X165100Y588460D03*
X241300D03*
X279400D03*
G54D44*
X444499Y100330D03*
X88900Y568960D03*
X444500D03*
X88899Y100330D03*
G54D35*
X165101Y549460D03*
X203201D03*
X127001Y588460D03*
X203201D03*
G54D39*
X355600Y25400D03*
X508000Y533400D03*
G54D34*
X252600Y522425D03*
X191400Y531175D03*
X252600D03*
X267600D03*
X138700Y607825D03*
X153700D03*
X201900D03*
X253000Y616825D03*
X268000D03*
G54D32*
X414225Y504500D03*
G54D30*
X421660Y664072D03*
X335260D03*
G54D33*
X176401Y522425D03*
X420501Y521425D03*
X176401Y531175D03*
X420501Y530175D03*
G54D31*
X422975Y489499D03*
%LPD*%
G75*
G36*
G01X310500Y378500D02*
X315000D01*
X317000Y376500D01*
Y374500D01*
X315028Y372528D01*
X314955D01*
G03X313950Y372911I-1005J-1127D01*
G01X311450D01*
G03X310445Y372528I0J-1510D01*
G01X306618D01*
G03X306349Y372504I-1J-1510D01*
G01X306328Y372500D01*
X301857D01*
G03X299817I-1020J-1104D01*
G01X291162D01*
G03X288926I-1118J-1003D01*
G01X288080D01*
X287540Y373040D01*
G03X287000Y373264I-540J-539D01*
G01X286236D01*
X285938Y373562D01*
X281562D01*
X279000Y371000D01*
Y367072D01*
G03X278998Y367000I1500J-78D01*
G03X279000Y366928I1502J6D01*
G01Y362358D01*
G03Y359962I906J-1198D01*
G01Y354116D01*
X282132Y350984D01*
Y347486D01*
X281547Y346901D01*
G03X280576Y347257I-971J-1146D01*
G03X279548Y346850I0J-1502D01*
G01X277116D01*
X277060Y346881D01*
G03X276324Y347074I-737J-1309D01*
G03X274886Y346005I0J-1502D01*
G01X274868Y345946D01*
X270366Y341444D01*
X263717D01*
G03X260963I-1377J-655D01*
G01X258653D01*
G02X258165Y341983I0J490D01*
G03X258173Y342134I-1494J155D01*
G03X255169I-1502J0D01*
G03X255177Y341983I1502J4D01*
G02X254689Y341444I-488J-49D01*
G01X249060D01*
Y361796D01*
X254079Y366815D01*
X254124Y366834D01*
G03X254924Y367634I-584J1384D01*
G01X254943Y367679D01*
X256692Y369428D01*
X259236D01*
X261462Y367202D01*
Y352297D01*
X261453Y352264D01*
G03X261395Y351852I1444J-413D01*
G03X261453Y351440I1502J1D01*
G01X261462Y351407D01*
Y351302D01*
X261525Y351239D01*
X261543Y351201D01*
G03X262897Y350350I1354J652D01*
G03X263819Y350666I0J1503D01*
G01X268044D01*
X268115Y350545D01*
G03X269412Y349800I1297J756D01*
G03X270914Y351302I0J1502D01*
G03X270874Y351646I-1502J0D01*
G01X270843Y351779D01*
X271002Y351938D01*
Y355027D01*
G03Y357265I-1002J1119D01*
G01Y373880D01*
X275454Y378332D01*
X276879D01*
X276935Y378300D01*
G03X277680Y378102I745J1304D01*
G03X278425Y378300I0J1502D01*
G01X278481Y378332D01*
X281331D01*
X281387Y378300D01*
G03X282132Y378102I745J1304D01*
G03X282877Y378300I0J1502D01*
G01X282933Y378332D01*
X288810D01*
X291990Y375152D01*
X307152D01*
X310500Y378500D01*
G37*
G36*
G01X283000Y371500D02*
X286500D01*
X287936Y370064D01*
X289593D01*
X289626Y370054D01*
G03X290044Y369995I417J1443D01*
G03X290462Y370054I1J1502D01*
G01X290495Y370064D01*
X293641D01*
G03X296327I1343J673D01*
G01X300143D01*
X300193Y370040D01*
G03X301481I644J1358D01*
G01X301531Y370064D01*
X305448D01*
G03X306618Y369508I1170J953D01*
G01X311067D01*
G03X312072Y369891I0J1510D01*
G01X313328D01*
G03X314333Y369508I1005J1127D01*
G01X322064D01*
G03X322439Y369555I1J1510D01*
G01X322469Y369563D01*
X324609D01*
X329514Y364658D01*
Y349394D01*
X326652Y346532D01*
Y346003D01*
X326618Y345946D01*
G03X326412Y345186I1296J-759D01*
G03X326618Y344426I1502J-1D01*
G01X326652Y344369D01*
Y334130D01*
X332058Y328724D01*
Y323842D01*
X331892Y323786D01*
G03Y320942I484J-1422D01*
G01X332058Y320886D01*
Y320138D01*
X328764Y316844D01*
X328697Y316828D01*
G03X327754Y316125I355J-1460D01*
G01X327683Y316004D01*
X322836D01*
X321853Y316987D01*
X321862Y317099D01*
G03X321867Y317217I-1497J123D01*
G03X320365Y318719I-1502J0D01*
G03X319256Y318230I0J-1502D01*
G01X316682D01*
X316626Y318396D01*
G03X315204Y319414I-1422J-484D01*
G03X315097Y319410I3J-1502D01*
G01X314986Y319402D01*
X313526Y320862D01*
X299304D01*
X298668Y320226D01*
Y315213D01*
G03Y312947I986J-1133D01*
G01Y308835D01*
G02X297937Y308408I-490J0D01*
G03X297200Y308602I-738J-1308D01*
G03X295698Y307100I0J-1502D01*
G03X296411Y305822I1502J0D01*
G02X296500Y305059I-257J-417D01*
G01X296497Y305055D01*
G02X295753Y305116I-346J347D01*
G03X294534Y305740I-1219J-879D01*
G03X293032Y304238I0J-1502D01*
G03X294067Y302810I1503J0D01*
G01X294236Y302755D01*
Y295736D01*
X294700D01*
Y288300D01*
X301500Y281500D01*
X358000D01*
X376000Y263500D01*
Y217000D01*
X359152Y200152D01*
X352348D01*
X348000Y204500D01*
Y236000D01*
X335000Y249000D01*
X287000D01*
X265596Y270404D01*
Y309479D01*
X265628Y309535D01*
G03X265826Y310280I-1304J745D01*
G03X265628Y311025I-1502J0D01*
G01X265596Y311081D01*
Y325544D01*
X270385Y330333D01*
G02X271221Y329999I346J-346D01*
G03X272723Y328533I1502J36D01*
G03X274225Y330035I0J1502D01*
G03X272759Y331537I-1502J0D01*
G02X272425Y332373I12J490D01*
G01X280253Y340201D01*
G02X280976Y340167I346J-347D01*
G03X282132Y339624I1156J959D01*
G03X283634Y341126I0J1502D01*
G03X283091Y342282I-1502J0D01*
G02X283057Y343005I313J377D01*
G01X283404Y343352D01*
Y350666D01*
X282896Y351174D01*
Y351300D01*
X282000Y352196D01*
Y355626D01*
X282009Y355658D01*
G03X282064Y356061I-1447J403D01*
G03X282009Y356464I-1502J0D01*
G01X282000Y356496D01*
Y366928D01*
G03X282002Y367000I-1500J78D01*
G03X282000Y367072I-1502J-6D01*
G01Y370500D01*
X283000Y371500D01*
G37*
G36*
G01X262226Y359760D02*
X270238D01*
Y353265D01*
G02X269665Y352782I-490J0D01*
G03X269412Y352804I-256J-1480D01*
G03X267945Y351623I0J-1502D01*
G01X267903Y351430D01*
X262414D01*
X262226Y351618D01*
Y359760D01*
G37*
G36*
G01X319097Y387236D02*
X339690D01*
X352500Y374426D01*
Y348000D01*
X354000Y346500D01*
Y339500D01*
X353449Y338949D01*
X350551D01*
X348276Y336674D01*
X343821D01*
X343786Y336685D01*
G03X343188Y336776I-598J-1919D01*
G03X341178Y334766I0J-2010D01*
G03X341767Y333345I2009J0D01*
G01X343824Y331287D01*
Y314439D01*
G02X343220Y313963I-490J0D01*
G03X342870Y314004I-349J-1461D01*
G03Y311000I0J-1502D01*
G03X343480Y311129I1J1502D01*
G01X343527Y311150D01*
X343824D01*
Y310598D01*
X341916Y308690D01*
X338125D01*
X338092Y308700D01*
G03X337674Y308759I-417J-1443D01*
G03X337256Y308700I-1J-1502D01*
G01X337223Y308690D01*
X334730D01*
Y308818D01*
X317983D01*
G02X317495Y309355I0J490D01*
G03X317502Y309500I-1495J145D01*
G03X314498I-1502J0D01*
G03X314505Y309355I1502J0D01*
G02X314017Y308818I-488J-47D01*
G01X308658D01*
X304710Y312766D01*
Y316004D01*
X305346Y316640D01*
X306936D01*
X308107Y315469D01*
X308048Y315320D01*
G03X307943Y314768I1397J-552D01*
G03X309445Y313266I1502J0D01*
G03X310133Y313433I0J1501D01*
G01X310186Y313460D01*
X314044D01*
G03X316364I1160J954D01*
G01X321058D01*
G02X321412Y312632I0J-490D01*
G03X320996Y311594I1087J-1038D01*
G03X324000I1502J0D01*
G03X323584Y312632I-1503J0D01*
G02X323938Y313460I354J338D01*
G01X326460D01*
X326960Y312960D01*
G03X327500Y312736I540J539D01*
G01X330500D01*
G03X331040Y312960I0J763D01*
G01X331540Y313460D01*
X335617D01*
Y313000D01*
G03X337142Y311475I1525J0D01*
G01X337500D01*
G03X339025Y313000I0J1525D01*
G03X338667Y313982I-1526J0D01*
G01Y322651D01*
G03X338418Y323486I-1525J0D01*
G01Y330950D01*
X334500Y334868D01*
Y342000D01*
X335000Y342500D01*
X338812D01*
Y341126D01*
G03X341832I1510J0D01*
G01Y342314D01*
X342256Y342738D01*
X342495Y342500D01*
X342501Y342407D01*
G03X344000Y340998I1499J93D01*
G03X345502Y342500I0J1502D01*
G03X344458Y343930I-1501J0D01*
G02X344261Y344743I150J467D01*
G01X345732Y346214D01*
Y373562D01*
X338294Y381000D01*
X318347D01*
X318305Y381193D01*
G03X315369I-1468J-317D01*
G01X315327Y381000D01*
X309500D01*
X307150Y378650D01*
X301530D01*
X298796Y375916D01*
X292498D01*
X288492Y379922D01*
X283610D01*
X283554Y380088D01*
G03X280710I-1422J-484D01*
G01X280654Y379922D01*
X279158D01*
X279102Y380088D01*
G03X277680Y381106I-1422J-484D01*
G03X276276Y380139I0J-1503D01*
G01X276258Y380090D01*
X275264Y379096D01*
X275138D01*
X270238Y374196D01*
Y374070D01*
X270048Y373880D01*
Y373594D01*
G02X269459Y373114I-490J0D01*
G03X269156Y373145I-304J-1471D01*
G03Y370141I0J-1502D01*
G03X269459Y370172I-1J1502D01*
G02X270048Y369692I99J-480D01*
G01Y360524D01*
X262734D01*
Y367520D01*
X260826Y369428D01*
Y380876D01*
X267186Y387236D01*
X269863D01*
X269928Y387090D01*
G03X272674I1373J609D01*
G01X272739Y387236D01*
X315127D01*
G02X315616Y386788I1J-490D01*
G03X318608I1496J130D01*
G02X319097Y387236I488J-42D01*
G37*
G36*
G01X281878Y372798D02*
X285622D01*
X285737Y372682D01*
G02X285564Y372264I-173J-173D01*
G01X282684D01*
X281236Y370816D01*
Y354143D01*
G02X280400Y353797I-490J1D01*
G01X279764Y354432D01*
Y370684D01*
X281878Y372798D01*
G37*
G36*
G01X318203Y380236D02*
X337978D01*
X344968Y373246D01*
Y349637D01*
G02X344340Y349167I-490J0D01*
G03X343916Y349228I-424J-1441D01*
G03X342414Y347726I0J-1502D01*
G03X343616Y346254I1502J0D01*
G02X343865Y345428I-98J-480D01*
G01X341702Y343264D01*
X337095D01*
G02X336749Y344100I1J490D01*
G01X338228Y345580D01*
Y367368D01*
G02X338465Y367613I245J0D01*
G03Y370615I-47J1501D01*
G02X338228Y370860I8J245D01*
G01Y372924D01*
X336826Y374326D01*
X332060D01*
X329068Y371334D01*
Y367367D01*
G02X328232Y367021I-490J1D01*
G01X324424Y370828D01*
X288252D01*
X287763Y371318D01*
G02X287936Y371736I173J173D01*
G01X315316D01*
X317764Y374184D01*
Y376816D01*
X315316Y379264D01*
X310184D01*
X306836Y375916D01*
X301059D01*
G02X300713Y376752I1J490D01*
G01X301846Y377886D01*
X307466D01*
X309816Y380236D01*
X315471D01*
X315542Y380115D01*
G03X318132I1295J761D01*
G01X318203Y380236D01*
G37*
G36*
G01X324267Y308054D02*
X333966D01*
Y301058D01*
X331104D01*
X328878Y303284D01*
X328062D01*
X328017Y303303D01*
G03X326847I-585J-1391D01*
G01X326802Y303284D01*
X326246D01*
X324643Y301681D01*
G02X323807Y302003I-347J346D01*
G03X322307Y303431I-1500J-74D01*
G03X320805Y301929I0J-1502D01*
G03X320889Y301435I1502J1D01*
G02X320426Y300784I-463J-161D01*
G01X303942D01*
Y302521D01*
G03X299922I-2010J0D01*
G01Y299921D01*
G03X300131Y299029I2010J0D01*
G01X300209Y298871D01*
X299624Y298286D01*
X299589Y298269D01*
G03X298913Y297593I669J-1345D01*
G01X298896Y297558D01*
X297838Y296500D01*
X295000D01*
Y302478D01*
X300326Y307804D01*
X300434Y307799D01*
G03X300500Y307798I56J1501D01*
G03X301339Y308054I0J1503D01*
G01X304859D01*
X304915Y308022D01*
G03X305660Y307824I745J1304D01*
G03X306405Y308022I0J1502D01*
G01X306461Y308054D01*
X315592D01*
X315623Y308046D01*
G03X316000Y307998I377J1454D01*
G03X316377Y308046I0J1502D01*
G01X316408Y308054D01*
X320437D01*
G02X320908Y307429I0J-490D01*
G03X320850Y307017I1444J-413D01*
G03X323854I1502J0D01*
G03X323796Y307429I-1502J-1D01*
G02X324267Y308054I471J135D01*
G37*
G36*
G01X299620Y320098D02*
X313210D01*
X314230Y319078D01*
X314077Y318905D01*
G03X313702Y317912I1127J-993D01*
G03X315204Y316410I1502J0D01*
G03X316584Y317318I0J1503D01*
G01X316647Y317466D01*
X320294D01*
X322520Y315240D01*
X327542D01*
X327584Y315047D01*
G03X327632Y314875I1468J317D01*
G02X327169Y314224I-463J-161D01*
G01X316713D01*
X316705Y314461D01*
G03X313703I-1501J-47D01*
G01X313695Y314224D01*
X310432D01*
X307252Y317404D01*
X305030D01*
X303946Y316320D01*
Y312450D01*
X305003Y311393D01*
G02X304903Y310623I-347J-346D01*
G03X304158Y309326I756J-1297D01*
G01Y309312D01*
G02X303668Y308818I-490J-4D01*
G01X300259D01*
G02X299432Y309173I-337J355D01*
G01Y319910D01*
X299620Y320098D01*
G37*
G36*
G01X343610Y309303D02*
G02X344446Y308957I346J-347D01*
G01Y296668D01*
X342984Y295206D01*
X315506D01*
G02X315135Y296017I0J490D01*
G03X315502Y297000I-1135J984D01*
G03X312498I-1502J0D01*
G03X312865Y296017I1502J1D01*
G02X312494Y295206I-371J-321D01*
G01X309490D01*
X305512Y299184D01*
G02X305858Y300020I347J346D01*
G01X324062D01*
X326562Y302520D01*
X328562D01*
X330788Y300294D01*
X334730D01*
Y307926D01*
X342232D01*
X343610Y309303D01*
G37*
G36*
G01X378000Y205500D02*
X396480D01*
X412700Y189280D01*
Y152300D01*
X408000Y147600D01*
Y144980D01*
X407136Y144116D01*
Y140684D01*
X408000Y139820D01*
Y137900D01*
X410772Y135128D01*
X451866D01*
X457200Y140462D01*
X461518D01*
X468652Y133328D01*
Y118872D01*
X463180Y113400D01*
X379400D01*
X377600Y115200D01*
Y137000D01*
X383100Y142500D01*
X390100D01*
X392176Y144576D01*
Y154432D01*
X386842Y159766D01*
Y182118D01*
X383286Y185674D01*
X368046D01*
X362712Y180340D01*
Y173736D01*
X367792Y168656D01*
Y157226D01*
X365506Y154940D01*
Y151384D01*
X358394D01*
X357124Y152654D01*
Y160528D01*
X353060Y164592D01*
X327914D01*
X321818Y170688D01*
Y190500D01*
X326898Y195580D01*
X339875D01*
X339939Y195435D01*
G03X342727I1394J619D01*
G01X342791Y195580D01*
X368080D01*
X378000Y205500D01*
G37*
G36*
G01X327990Y346789D02*
X328119Y346763D01*
G03X328422Y346732I304J1471D01*
G03X328540Y346737I-5J1502D01*
G02X329068Y346248I38J-489D01*
G01Y345576D01*
X328736Y345244D01*
Y336736D01*
X333736D01*
Y334552D01*
X337654Y330634D01*
Y315048D01*
X336830Y314224D01*
X330933D01*
G02X330470Y314875I0J490D01*
G03X330553Y315368I-1419J492D01*
G03X330117Y316426I-1502J0D01*
G02X330118Y317118I348J345D01*
G01X332822Y319822D01*
Y320921D01*
X332970Y320984D01*
G03Y323744I-595J1380D01*
G01X332822Y323807D01*
Y329040D01*
X327416Y334446D01*
Y346216D01*
X327990Y346789D01*
G37*
G36*
G01X332376Y373562D02*
X336510D01*
X337464Y372608D01*
Y370274D01*
G03Y367954I954J-1160D01*
G01Y357516D01*
X337431Y357459D01*
G03X337230Y356708I1301J-751D01*
G03X337431Y355957I1502J0D01*
G01X337464Y355900D01*
Y345896D01*
X335832Y344264D01*
X334000D01*
G03X333460Y344040I0J-763D01*
G01X332960Y343540D01*
G03X332736Y343000I539J-540D01*
G01Y337500D01*
X329500D01*
Y344928D01*
X329832Y345260D01*
Y347715D01*
X329845Y347753D01*
G03X329924Y348234I-1423J481D01*
G03X329893Y348537I-1502J-1D01*
G01X329867Y348666D01*
X330278Y349078D01*
Y364974D01*
X329832Y365420D01*
Y371018D01*
X332376Y373562D01*
G37*
G36*
G01X391000Y417000D02*
X392200D01*
X393100Y416100D01*
Y412700D01*
X391700Y411300D01*
X389700D01*
X388300Y412700D01*
Y414300D01*
X391000Y417000D01*
G37*
G36*
G01X411800Y144500D02*
X408600D01*
X407900Y143800D01*
Y141000D01*
X408400Y140500D01*
X411800D01*
X412400Y141100D01*
Y143900D01*
X411800Y144500D01*
G37*
%LPC*%
G75*
G36*
G01X273936Y360127D02*
G03X274170Y360802I-200J447D01*
G02X273998Y361500I1330J698D01*
G02X277002I1502J0D01*
G02X276112Y360128I-1503J0D01*
G03X275878Y359453I200J-447D01*
G02X276050Y358755I-1330J-698D01*
G02X273046I-1502J0D01*
G02X273936Y360127I1503J0D01*
G37*
G36*
G01X290111Y299061D02*
G03X290225Y299706I-302J386D01*
G02X289998Y300500I1275J794D01*
G02X293002I1502J0D01*
G02X292425Y299317I-1501J0D01*
G03X292311Y298672I302J-386D01*
G02X292538Y297878I-1275J-794D01*
G02X289534I-1502J0D01*
G02X290111Y299061I1501J0D01*
G37*
G36*
G01X283021Y300939D02*
G03X283095Y301603I-319J372D01*
G02X282798Y302500I1206J897D01*
G02X285802I1502J0D01*
G02X285279Y301361I-1502J0D01*
G03X285205Y300697I319J-372D01*
G02X285502Y299800I-1206J-897D01*
G02X282498I-1502J0D01*
G02X283021Y300939I1502J0D01*
G37*
G36*
G01X276022Y303270D02*
G03X276410Y303768I-101J479D01*
G02X276409Y303828I1501J55D01*
G02X279413I1502J0D01*
G02X278221Y302358I-1502J0D01*
G03X277833Y301860I101J-479D01*
G02X277834Y301800I-1501J-55D01*
G02X274830I-1502J0D01*
G02X276022Y303270I1502J0D01*
G37*
G36*
G01X305562Y324887D02*
G02X306530Y325241I968J-1148D01*
G02Y322237I0J-1502D01*
G02X305467Y322678I0J1502D01*
G02X304499Y322324I-968J1148D01*
G02Y325328I0J1502D01*
G02X305562Y324887I0J-1502D01*
G37*
G36*
G01X316769Y337330D02*
G03X316919Y337613I-89J228D01*
G02X316882Y337946I1465J331D01*
G02X319886I1502J0D01*
G02X318926Y336545I-1502J0D01*
G03X318776Y336262I89J-228D01*
G02X318813Y335929I-1465J-331D01*
G02X315809I-1502J0D01*
G02X316769Y337330I1502J0D01*
G37*
G36*
G01X305122Y344495D02*
G03X304899Y344718I-244J-21D01*
G02X303526Y346214I129J1496D01*
G02X305028Y347716I1502J0D01*
G02X306524Y346343I0J-1502D01*
G03X306747Y346120I244J21D01*
G02X308120Y344624I-129J-1496D01*
G02X306618Y343122I-1502J0D01*
G02X305122Y344495I0J1502D01*
G37*
G36*
G01X283840Y308729D02*
G02X283804Y309058I1466J327D01*
G02X285306Y310560I1502J0D01*
G02X286791Y309285I0J-1502D01*
G03X287525Y308937I484J74D01*
G02X288289Y309146I764J-1292D01*
G02Y306142I0J-1502D01*
G02X286804Y307417I0J1502D01*
G03X286070Y307765I-484J-74D01*
G02X285306Y307556I-764J1292D01*
G02X284911Y307609I0J1502D01*
G03X284305Y307029I-128J-473D01*
G02X284341Y306700I-1466J-327D01*
G02X282839Y308202I-1502J0D01*
G02X283234Y308149I0J-1502D01*
G03X283840Y308729I128J473D01*
G37*
G36*
G01X286475Y329149D02*
G02X286326Y329801I1352J652D01*
G02X289330I1502J0D01*
G02X288180Y328341I-1502J0D01*
G03X287853Y327652I115J-476D01*
G02X288002Y327000I-1352J-652D01*
G02X284998I-1502J0D01*
G02X286148Y328460I1502J0D01*
G03X286475Y329149I-115J476D01*
G37*
G36*
G01X332341Y348151D02*
G02X331498Y349500I658J1349D01*
G02X334502I1502J0D01*
G02X334073Y348449I-1502J0D01*
G03X334208Y347666I350J-343D01*
G02X335051Y346317I-658J-1349D01*
G02X332047I-1502J0D01*
G02X332476Y347368I1502J0D01*
G03X332341Y348151I-350J343D01*
G37*
G54D41*
X262220Y345905D03*
X274810Y350326D03*
X274000Y367354D03*
Y371500D03*
X312660Y375470D03*
X345000Y247500D03*
X341000Y253040D03*
X303040Y258040D03*
X271220Y295719D03*
X278788Y289693D03*
X288390D03*
X269095Y302816D03*
Y308212D03*
X274182Y308054D03*
X269095Y313608D03*
X269090Y319005D03*
X274515Y314134D03*
X279522Y313776D03*
X277044Y321728D03*
X274512Y318517D03*
X279588Y318548D03*
X285417Y313215D03*
X289764Y319184D03*
X284393Y319701D03*
X296482Y318913D03*
X320699Y322283D03*
X272879Y324799D03*
X277680Y329678D03*
X281305Y324386D03*
X282705Y330306D03*
X292944Y329360D03*
X303198Y329112D03*
X292944Y324594D03*
X298202Y324217D03*
X308042Y334858D03*
X314700Y324027D03*
X309637Y329586D03*
X323472Y334130D03*
X319606Y329280D03*
X278952Y335402D03*
X291354Y344624D03*
X288174Y335720D03*
X282989Y335283D03*
X288073Y339267D03*
X300357Y346004D03*
X292975Y337394D03*
X297000Y339113D03*
X298583Y335381D03*
X322130Y340545D03*
X301212Y356072D03*
X302071Y350031D03*
X292314Y350573D03*
X295536Y355990D03*
X295806Y347168D03*
X296442Y352256D03*
X308844Y351302D03*
X306578Y355092D03*
X322350Y349699D03*
X321301Y356042D03*
X317748Y351938D03*
X290718Y365930D03*
X295218Y361091D03*
X300837Y366317D03*
X294852Y366884D03*
X304170Y361811D03*
X304710Y367838D03*
X323596Y361188D03*
X318307Y360603D03*
X322023Y366004D03*
X316476Y366566D03*
X350040Y343500D03*
X263759Y371643D03*
X298302Y381871D03*
X292905D03*
X303494Y381781D03*
X326418Y384000D03*
X322985Y374631D03*
X305980Y304872D03*
X322200Y297242D03*
X341966Y299803D03*
X338272Y299874D03*
X394716Y145288D03*
X381426Y188042D03*
%LPD*%
G75*
G54D10*
G01X292905Y376791D02*
X298302D01*
G01X311450Y371401D02*
X313950D01*
X314333Y371018D01*
X317112D01*
G01X306618D02*
X311067D01*
X311450Y371401D01*
G01X329832Y299468D02*
X327432Y301868D01*
Y301911D01*
G01X317112Y371018D02*
X322064D01*
X322119Y371073D01*
G01D02*
X324619D01*
X325828Y372282D01*
X326311D01*
X326872Y372843D01*
X326887D01*
X328186Y374142D01*
X328676D01*
Y374802D01*
X328397D01*
G01X339739Y346343D02*
X339460D01*
Y346585D01*
X339201D01*
Y345835D01*
X339111D01*
X340322Y344624D01*
G01D02*
Y341126D01*
X8308Y297508D03*
X6150Y300750D03*
D03*
X6300Y314150D03*
D03*
Y328600D03*
D03*
Y340300D03*
D03*
X6200Y372850D03*
D03*
Y393450D03*
D03*
X6350Y410000D03*
D03*
X6450Y433900D03*
D03*
X7050Y444850D03*
D03*
X11050Y451600D03*
D03*
X6450Y459550D03*
D03*
X10600Y462300D03*
D03*
X6450Y472350D03*
D03*
X17000Y60650D03*
D03*
X16600Y67450D03*
D03*
X22606Y241046D03*
X16764Y269494D03*
X17018Y265938D03*
X13462Y292608D03*
Y288798D03*
X18796Y318770D03*
X15150Y426250D03*
X11938Y419862D03*
D03*
X12150Y439500D03*
D03*
X16800Y469150D03*
D03*
X20450Y476150D03*
D03*
X11650Y476800D03*
D03*
X17000Y494600D03*
D03*
X19400D03*
D03*
X21800D03*
D03*
Y492300D03*
X19400D03*
X17000D03*
X21800D03*
X19400D03*
X17000D03*
X21700Y490000D03*
X19300D03*
X16900D03*
X21700D03*
X19300D03*
X16900D03*
X17900Y517150D03*
D03*
X12200Y528100D03*
D03*
X22000Y578050D03*
D03*
X18650Y582550D03*
D03*
X17300Y596100D03*
D03*
X32300Y64100D03*
D03*
X34800Y204700D03*
Y201676D03*
X34000Y196500D03*
X34800Y213500D03*
X34544Y262890D03*
X25050Y436750D03*
X32800Y451300D03*
D03*
X30400D03*
D03*
X27900D03*
D03*
X25500D03*
D03*
X32800Y453800D03*
D03*
X30400D03*
D03*
X27900D03*
D03*
X25500D03*
D03*
X31000Y474650D03*
D03*
X25500Y469150D03*
D03*
X31150Y483500D03*
D03*
X25250Y523300D03*
D03*
X29000Y589700D03*
D03*
X33650Y630350D03*
X45400Y26600D03*
D03*
X35350Y42300D03*
D03*
X38000Y47650D03*
D03*
X43180Y93980D03*
Y106680D03*
Y132080D03*
X42164Y193294D03*
X43180Y211836D03*
X43434Y207010D03*
X40300Y209200D03*
X41200Y229500D03*
X44600D03*
X43434Y236498D03*
X45720Y233426D03*
X39850Y251100D03*
D03*
X44704Y242824D03*
X43942Y246126D03*
X43180Y259080D03*
D03*
X37900Y258250D03*
D03*
X34900Y271300D03*
D03*
X40550Y277200D03*
D03*
X45250Y285050D03*
D03*
X38100Y287782D03*
X35814Y285242D03*
X38862Y291846D03*
X37846Y313436D03*
X35150Y469750D03*
D03*
X35600Y480950D03*
D03*
X35900Y492200D03*
D03*
X35950Y507850D03*
D03*
X35450Y515850D03*
D03*
X35000Y526250D03*
D03*
X36550Y564350D03*
D03*
X38750Y592900D03*
D03*
X43180Y627380D03*
D03*
X55200Y19150D03*
D03*
X57000Y74600D03*
D03*
X57700Y84700D03*
X56300Y86700D03*
X57658Y193294D03*
X53848Y215646D03*
X54356Y212090D03*
X46736Y207010D03*
X48768Y216408D03*
X52451Y219329D03*
X48768Y229108D03*
X58166Y225552D03*
D03*
X46736Y264922D03*
X58166Y283210D03*
D03*
X54610Y282956D03*
D03*
X55880Y347980D03*
X53350Y360100D03*
D03*
X47450Y617850D03*
X55050Y631550D03*
X60400Y72100D03*
D03*
X60000Y84700D03*
X62300D03*
X64700D03*
X67200D03*
X63100Y86700D03*
X60600D03*
X65500D03*
X58400D03*
X67300Y92800D03*
D03*
X64600Y94700D03*
D03*
Y151700D03*
X68580Y170180D03*
X65000Y165550D03*
X67650Y177300D03*
X62738Y190300D03*
D03*
X60960Y201676D03*
X61100Y196500D03*
X58420Y212344D03*
X66248Y248282D03*
X66294Y243586D03*
D03*
X69596Y260096D03*
X66248Y253362D03*
D03*
X69596Y270510D03*
Y265176D03*
D03*
X65400Y272400D03*
D03*
X64150Y283350D03*
D03*
X61214Y286258D03*
D03*
X66802Y300228D03*
X59700Y306324D03*
D03*
X68580Y347980D03*
X63550Y355400D03*
D03*
X60750Y366950D03*
D03*
X62000Y361900D03*
D03*
X68072Y376428D03*
X64900Y417000D03*
D03*
X63086Y426214D03*
D03*
X62300Y438440D03*
D03*
X61700Y445300D03*
D03*
X69900Y490200D03*
D03*
X68500Y522100D03*
D03*
Y519900D03*
D03*
Y517800D03*
D03*
X69200Y536900D03*
X68200Y552600D03*
D03*
Y550000D03*
D03*
Y547200D03*
D03*
X66200Y580926D03*
X68500Y588500D03*
X66100Y622200D03*
X65950Y638650D03*
X67700Y629900D03*
X73952Y135572D03*
X76238D03*
X78524D03*
X81064D03*
Y138112D03*
X78524D03*
X76238D03*
X73952D03*
Y140398D03*
X76238D03*
X78524D03*
X81064D03*
X81280Y170180D03*
X78200Y164100D03*
X81250Y181100D03*
X78000Y185350D03*
X73914Y192278D03*
X73700Y187600D03*
X77470Y203708D03*
X77978Y197612D03*
X70104Y197358D03*
X74676Y214122D03*
D03*
X77216D03*
X71374D03*
X78740Y206756D03*
X77216Y219202D03*
D03*
X71782Y248228D03*
X71374Y243586D03*
X76862Y248228D03*
D03*
X76200Y262144D03*
X71782Y253562D03*
X76200Y267208D03*
D03*
X76454Y273558D03*
D03*
X74422Y282956D03*
X73660Y287528D03*
X74550Y301600D03*
D03*
X73750Y368950D03*
D03*
X73450Y375250D03*
D03*
X75692Y389636D03*
X80772D03*
D03*
X76162Y397936D03*
D03*
X76200Y400400D03*
D03*
Y403000D03*
D03*
X78700D03*
D03*
X78662Y397936D03*
D03*
X78700Y400400D03*
D03*
X81300Y403000D03*
D03*
X81262Y397936D03*
D03*
X81300Y400400D03*
D03*
X74650Y450700D03*
X75000Y464750D03*
X74900Y485100D03*
D03*
X72400Y485200D03*
D03*
X70000D03*
D03*
X72300Y490200D03*
D03*
X74800Y490100D03*
D03*
X74900Y487700D03*
D03*
X72400Y487800D03*
D03*
X70000D03*
D03*
X71200Y522100D03*
D03*
X73700D03*
D03*
X71200Y519900D03*
D03*
X73700D03*
D03*
X71200Y517800D03*
D03*
X73700D03*
D03*
X77250Y530450D03*
X79000Y535900D03*
D03*
X70600Y552500D03*
D03*
Y549900D03*
D03*
Y547100D03*
D03*
X73000Y552500D03*
D03*
Y549900D03*
D03*
Y547100D03*
D03*
X72100Y577200D03*
X80200Y577100D03*
X81280Y589280D03*
X73400Y594000D03*
X81400Y622450D03*
D03*
X73200Y639050D03*
X78550Y629950D03*
X93100Y118800D03*
D03*
X90800Y191400D03*
X86360Y194564D03*
X90424Y198120D03*
X84836D03*
Y205994D03*
X87376Y210820D03*
X90878Y224228D03*
D03*
X82296Y232664D03*
X89916Y250952D03*
X88984Y246122D03*
D03*
Y271123D03*
D03*
X85450Y328250D03*
D03*
X87836Y335306D03*
X82950Y469100D03*
X92850Y467350D03*
X83250Y482500D03*
X83950Y492850D03*
X84400Y503800D03*
X83800Y517450D03*
X86450Y526950D03*
X83400Y534800D03*
D03*
X93300Y562150D03*
D03*
X91600Y577200D03*
X92850Y608250D03*
D03*
X90250Y608350D03*
D03*
X91560Y606500D03*
D03*
X87550Y608300D03*
D03*
X88960Y606500D03*
D03*
X88850Y610100D03*
D03*
X91550D03*
D03*
X87600Y612150D03*
D03*
X81850Y638800D03*
X98900Y141000D03*
D03*
X95544Y191642D03*
X99568Y208788D03*
X103983Y221121D03*
X95758Y224536D03*
X98984Y226122D03*
X103983D03*
X98984Y221121D03*
X103983Y231121D03*
Y236122D03*
X98984D03*
D03*
X101463Y238622D03*
X97536Y246825D03*
X93983Y246122D03*
Y266122D03*
X98984Y276122D03*
X99060Y272542D03*
X103983Y271123D03*
X102616Y279400D03*
D03*
X95504Y284988D03*
X99060Y280670D03*
X94234Y280416D03*
X93700Y297800D03*
X101854Y294386D03*
X97282Y295656D03*
X96500Y318400D03*
D03*
X96400Y321050D03*
D03*
X98800Y321150D03*
D03*
Y318400D03*
D03*
X96450Y327400D03*
D03*
X96250Y344000D03*
D03*
X104800Y398850D03*
D03*
X96012Y415917D03*
X96100Y407850D03*
D03*
X103950Y418150D03*
D03*
X99500Y433400D03*
D03*
Y431200D03*
D03*
Y428800D03*
D03*
X93980Y487680D03*
X96900Y527950D03*
X100900Y538100D03*
X103200Y562700D03*
X102500Y576600D03*
X97650Y573050D03*
D03*
X102000Y586400D03*
X101800Y595500D03*
X96960Y606500D03*
D03*
X95600Y608250D03*
D03*
X94160Y606500D03*
D03*
X103670Y639160D03*
X94250Y639100D03*
X111100Y14400D03*
D03*
X116500Y49800D03*
D03*
X113100D03*
D03*
X115000Y48200D03*
D03*
X109600Y49800D03*
D03*
X111500Y48200D03*
D03*
X106300Y49700D03*
D03*
X108200Y48100D03*
D03*
X109100Y105600D03*
X109200Y108400D03*
X111700Y105600D03*
X111800Y108400D03*
X114300Y105600D03*
X114400Y108400D03*
X111726Y191642D03*
X110490Y196850D03*
X115316Y204470D03*
D03*
X108966Y207010D03*
X114808Y217932D03*
X115062Y211335D03*
X112522Y222758D03*
X113983Y226122D03*
X108984Y221121D03*
X115570D03*
X114987Y229496D03*
X108984Y226122D03*
X113497Y234672D03*
X109474Y234950D03*
X113983Y241121D03*
D03*
X109220Y231648D03*
X113983Y256122D03*
Y261123D03*
X108984Y256122D03*
Y271123D03*
Y276122D03*
D03*
X113983Y271123D03*
D03*
X110998Y287782D03*
X106426Y278892D03*
D03*
X114554Y285242D03*
X111570Y279070D03*
D03*
X105156Y292354D03*
X108204Y290322D03*
X114150Y332950D03*
D03*
X105184Y341033D03*
D03*
X113950Y341000D03*
D03*
X116650Y351300D03*
D03*
X116350Y366300D03*
D03*
X106680Y386080D03*
X112250Y403800D03*
D03*
X107350Y409900D03*
D03*
X107250Y467350D03*
Y527800D03*
X109900Y538000D03*
X115850Y538750D03*
D03*
X107950Y549460D03*
X107800Y555200D03*
D03*
X112300Y567100D03*
X105400Y566500D03*
D03*
X114150Y557900D03*
D03*
X108600Y575200D03*
X108100Y586400D03*
D03*
X114000Y598100D03*
X105600Y600200D03*
X113550Y603350D03*
D03*
X109900Y611450D03*
D03*
X110250Y622600D03*
D03*
X106700Y617650D03*
D03*
X117300Y8000D03*
D03*
X127009Y38800D03*
D03*
X128400Y40500D03*
D03*
X121800Y48200D03*
D03*
X119900Y49800D03*
D03*
X118400Y48200D03*
D03*
X117000Y105600D03*
X117100Y108400D03*
X119700Y105600D03*
X119800Y108400D03*
X122900Y140700D03*
D03*
X125000Y160750D03*
X125900Y170500D03*
X124460Y178054D03*
X124206Y204470D03*
X119380Y195580D03*
X126492Y197612D03*
X128016Y209042D03*
X120904Y213868D03*
X122656Y211335D03*
X123985Y221121D03*
X118984D03*
X117602Y225298D03*
D03*
X123985Y226122D03*
D03*
X127000Y223774D03*
X123985Y231121D03*
D03*
X120638Y234452D03*
X118984Y241121D03*
D03*
Y231121D03*
X123985Y236122D03*
Y241121D03*
Y246122D03*
X118872Y246634D03*
X118984Y251123D03*
Y261123D03*
Y256122D03*
X123985Y266122D03*
Y271123D03*
D03*
X118984Y276122D03*
X123985D03*
X117270Y320695D03*
X128400Y323700D03*
X127800Y341000D03*
D03*
X121500Y344950D03*
D03*
X121800Y336350D03*
D03*
X122000Y356150D03*
D03*
X122174Y367792D03*
D03*
Y361950D03*
D03*
X127254Y367792D03*
D03*
X127100Y365650D03*
D03*
X116800Y376150D03*
D03*
X123600Y377750D03*
X122323Y391868D03*
X128270Y394970D03*
X116958Y420318D03*
X118500Y467800D03*
X127950Y505700D03*
D03*
X118300Y505600D03*
D03*
X117650Y500500D03*
D03*
X120400Y516000D03*
D03*
X124000Y562700D03*
X117900Y576800D03*
X124700Y577100D03*
X128300Y569800D03*
X120500Y599500D03*
X125900Y609100D03*
D03*
X119800Y610500D03*
D03*
X127150Y622600D03*
D03*
X119100Y617450D03*
D03*
X126270Y639310D03*
X116770Y639460D03*
X134850Y26650D03*
D03*
X129900Y38800D03*
D03*
X132620D03*
D03*
X131300Y37000D03*
D03*
X131200Y40500D03*
D03*
X128500Y37000D03*
D03*
X134600Y52400D03*
X136600Y50400D03*
X139972Y45872D03*
X138700Y48400D03*
X131500Y53300D03*
X133800Y56000D03*
X130900Y66600D03*
X139400Y140198D03*
D03*
X133550Y157400D03*
X132080Y170180D03*
X130700Y181000D03*
X138684Y209550D03*
X138984Y226122D03*
X128984Y221121D03*
X138891Y221028D03*
D03*
X128778Y227838D03*
X131503Y218625D03*
X133858Y221996D03*
X128984Y241121D03*
X138984Y236122D03*
X133985Y241121D03*
X128984Y231121D03*
X128905Y251333D03*
X138984Y261123D03*
D03*
X136144Y259080D03*
X138492Y255255D03*
X128984Y271123D03*
X131572Y273812D03*
D03*
X131485Y268645D03*
D03*
X131572Y277622D03*
D03*
X133096Y295656D03*
D03*
X131572Y298196D03*
D03*
X134112Y297942D03*
D03*
X132334Y300482D03*
D03*
X133400Y316800D03*
X138900Y324150D03*
X132150Y362350D03*
D03*
X138500Y364500D03*
D03*
X135400Y358800D03*
D03*
X129200Y366150D03*
D03*
X128650Y369700D03*
D03*
X139450Y376050D03*
D03*
X129286Y389636D03*
D03*
X138800Y496316D03*
D03*
X132080Y500380D03*
X137000Y505750D03*
D03*
X129100Y533800D03*
X133900Y534000D03*
X132900Y577000D03*
X138500D03*
X132400Y604400D03*
X132200Y612000D03*
X138900Y622700D03*
X132200Y621300D03*
X131750Y617650D03*
D03*
X136200Y616575D03*
D03*
X136720Y639610D03*
X140450Y20000D03*
D03*
X151800Y21400D03*
X151000Y31500D03*
D03*
X143000Y44348D03*
X144100Y66600D03*
X144018Y75438D03*
X146812Y75184D03*
Y72644D03*
X144272D03*
X148082Y70104D03*
X145796D03*
X149352Y72644D03*
Y75184D03*
X150368Y70104D03*
X151700Y157400D03*
X142350Y180850D03*
X145542Y191262D03*
Y204216D03*
X151494Y198462D03*
X148984Y216122D03*
X143985D03*
X142240Y219456D03*
Y224282D03*
X148984Y221121D03*
D03*
X142001Y228106D03*
X148984Y226122D03*
X143984Y231122D03*
X141986Y252984D03*
X141732Y263398D03*
D03*
X143985Y266122D03*
X151500Y290860D03*
X146100D03*
X145800Y320040D03*
X151100D03*
X144100Y324800D03*
D03*
X142250Y336850D03*
X140500Y346750D03*
X144780Y373380D03*
X151400Y377740D03*
X147250Y381700D03*
D03*
X144780Y386080D03*
X140462Y390652D03*
X144780Y398780D03*
X149550Y417750D03*
D03*
X150040Y437500D03*
X150926Y447700D03*
D03*
X150200Y462350D03*
D03*
X144950Y458850D03*
D03*
X149350Y455350D03*
D03*
X150600Y486800D03*
D03*
X146200Y482450D03*
D03*
X147400Y490700D03*
D03*
X142400Y488550D03*
D03*
X151450Y496850D03*
D03*
X140500Y497600D03*
D03*
X147600Y528340D03*
D03*
X146700Y538200D03*
X140200Y539300D03*
X146050Y549460D03*
X146100Y555100D03*
D03*
X141000Y563100D03*
X147800Y571100D03*
X146150Y582700D03*
D03*
X147250Y595300D03*
D03*
X140700Y598700D03*
X143800Y601800D03*
X150100Y601600D03*
X146200Y612200D03*
Y607000D03*
Y616575D03*
X145600Y622800D03*
X141200Y616575D03*
D03*
X151200D03*
D03*
X146470Y639310D03*
X156100Y25400D03*
D03*
X156300Y29100D03*
D03*
X156200Y32600D03*
D03*
X156580Y66900D03*
X151892Y72644D03*
Y75184D03*
X152908Y70104D03*
X153900Y142900D03*
D03*
X157480Y182880D03*
X155650Y180650D03*
X162700Y193300D03*
X154200Y190150D03*
X158162Y198462D03*
X157480Y208280D03*
X154600Y215400D03*
X163068Y234950D03*
X161036Y258826D03*
X161290Y273812D03*
X162306Y421640D03*
X155600Y424300D03*
D03*
X159100Y443850D03*
D03*
X158600Y452773D03*
X157550Y467100D03*
D03*
X158820Y513150D03*
D03*
X155100Y517150D03*
D03*
X153029Y514229D03*
D03*
X161600Y529700D03*
D03*
X157000Y530540D03*
D03*
X161600Y537200D03*
X155000Y538400D03*
X159100Y562900D03*
X162800Y561500D03*
X153400Y560500D03*
X156100Y577300D03*
X161800Y576900D03*
X152700Y597900D03*
X160000Y604400D03*
X160200Y612300D03*
X159700Y620900D03*
X153200Y622700D03*
X160950Y616850D03*
D03*
X156200Y616575D03*
D03*
X158300Y639250D03*
X171600Y42050D03*
D03*
X173600Y37500D03*
X174100Y40500D03*
X174200Y55700D03*
X173200Y64800D03*
D03*
X167700Y96200D03*
D03*
X173000Y108300D03*
X169400Y106500D03*
X168600Y102600D03*
X173800Y142500D03*
D03*
X167300Y157500D03*
X173750Y169200D03*
X173736Y160782D03*
X170180Y182880D03*
X164800Y182700D03*
X167050Y189000D03*
X172250Y200400D03*
X171450Y207518D03*
X165862D03*
X168148Y220726D03*
X166624Y258826D03*
X170900Y339150D03*
X174740Y364000D03*
X173700Y369000D03*
X167700Y381650D03*
X167500Y389700D03*
X171900Y418740D03*
X171700Y438500D03*
D03*
X163600Y429800D03*
D03*
X163900Y436000D03*
D03*
X170180Y449580D03*
X165050Y451850D03*
D03*
X171150Y444700D03*
D03*
X170950Y467300D03*
D03*
X170150Y477000D03*
D03*
Y501850D03*
D03*
X166600Y508250D03*
D03*
X173300Y513100D03*
D03*
X170400Y517900D03*
D03*
X163850Y515850D03*
D03*
X167850Y512850D03*
D03*
X167800Y526750D03*
D03*
X169700Y531000D03*
D03*
X166400Y534400D03*
X170900Y561500D03*
X170600Y577000D03*
X166600Y570400D03*
X167600Y602000D03*
X174000Y599800D03*
X167800Y613800D03*
D03*
X171400Y605700D03*
D03*
X167300Y622100D03*
D03*
X167350Y639250D03*
X175500Y21200D03*
X181000Y36800D03*
X177900Y39400D03*
X176100Y42700D03*
D03*
X186234Y60632D03*
D03*
Y64632D03*
D03*
X177118Y64832D03*
D03*
X179100Y91500D03*
D03*
X175700Y93100D03*
D03*
X176300Y109100D03*
X186500Y101300D03*
X184149Y119830D03*
X176530Y139870D03*
D03*
X183896Y145288D03*
D03*
X182880Y170180D03*
X178950Y193150D03*
X182880Y195580D03*
X186182Y273558D03*
D03*
X184300Y362960D03*
X179400Y366100D03*
X182600Y392350D03*
X180450Y446250D03*
D03*
X180900Y464300D03*
D03*
X175650Y474200D03*
D03*
X177900Y494900D03*
D03*
X181300Y497400D03*
D03*
X186500Y492250D03*
X183600Y501700D03*
D03*
X178300Y510000D03*
D03*
X183800Y509800D03*
D03*
X178100Y501800D03*
D03*
X177700Y506200D03*
D03*
X181200Y507462D03*
D03*
Y504192D03*
D03*
X180100Y516700D03*
D03*
X186300Y516800D03*
D03*
X183900Y526800D03*
D03*
Y522425D03*
D03*
X184000Y530900D03*
D03*
X184150Y549460D03*
X184600Y554900D03*
D03*
X175400Y563400D03*
X183600Y564400D03*
X186700Y571500D03*
X183700Y577400D03*
X184100Y583600D03*
D03*
Y591000D03*
D03*
X176050Y614900D03*
D03*
X186600Y615150D03*
D03*
X180700Y605500D03*
D03*
X181450Y622300D03*
D03*
X183610Y639650D03*
X176100Y639250D03*
X193000Y30200D03*
D03*
X192200Y21300D03*
X189400Y42150D03*
D03*
X197150Y49750D03*
D03*
X198426Y64632D03*
D03*
X191400Y89200D03*
X188200Y98200D03*
X194200Y107100D03*
X196849Y118200D03*
D03*
X191008Y133604D03*
D03*
X193802D03*
D03*
X196342D03*
D03*
X197612Y135636D03*
D03*
X194818D03*
D03*
X192278D03*
D03*
X189484D03*
D03*
X187960Y137668D03*
D03*
X190754D03*
D03*
X193294D03*
D03*
X196088D03*
D03*
X196596Y154686D03*
X195326Y151638D03*
X192532Y149860D03*
X188976Y149352D03*
D03*
X191700Y225600D03*
X187198Y266446D03*
D03*
X196400Y306900D03*
X189700Y318060D03*
X189600Y329200D03*
D03*
X189000Y343960D03*
X190700Y362900D03*
D03*
X189700Y366100D03*
D03*
X196400Y372250D03*
X192800Y379000D03*
D03*
X188200Y374600D03*
D03*
X191600Y375500D03*
D03*
X195100Y386200D03*
X197500Y399500D03*
D03*
X192600Y395600D03*
D03*
X198200Y447800D03*
D03*
X198500Y459050D03*
D03*
X196850Y465900D03*
D03*
X196050Y477400D03*
D03*
X193050Y483250D03*
X194500Y493000D03*
X189300Y498400D03*
X192900Y506100D03*
D03*
X198100Y500600D03*
X195000Y516200D03*
D03*
X198300Y520000D03*
D03*
X197900Y525900D03*
D03*
X198000Y531500D03*
X188900Y522425D03*
D03*
X193900D03*
D03*
X194000Y561200D03*
X196300Y577000D03*
X198100Y599800D03*
X192300D03*
X195400Y606500D03*
X195300Y614500D03*
X189350Y605500D03*
D03*
X195500Y622200D03*
X190550Y621800D03*
D03*
X191550Y639250D03*
X199350Y24850D03*
D03*
X206700Y21400D03*
X202062Y48858D03*
D03*
X210160Y43700D03*
D03*
X199360Y43100D03*
D03*
X206300Y60100D03*
D03*
X204000Y55300D03*
D03*
X207300Y64600D03*
D03*
X204500Y90900D03*
X203700Y95700D03*
X199800Y99100D03*
X199000Y106700D03*
X208280Y119380D03*
X199136Y133604D03*
D03*
X200406Y163576D03*
D03*
X203400Y363950D03*
X204150Y392600D03*
X202400Y402500D03*
D03*
X200050Y404350D03*
D03*
X206200Y407400D03*
D03*
X202400Y439650D03*
X206450Y431800D03*
X205200Y451650D03*
D03*
X202500Y471150D03*
D03*
X206400Y481000D03*
X208850Y477150D03*
D03*
X210100Y488500D03*
X203700Y494500D03*
X200000Y487600D03*
X199900Y510400D03*
D03*
X205000Y505300D03*
D03*
X206450Y516450D03*
D03*
X205850Y523600D03*
D03*
X200600Y534500D03*
X206900Y537400D03*
X203300Y561400D03*
X207300Y567400D03*
X203700Y576900D03*
X199900Y571500D03*
X206000Y601200D03*
X209400Y616075D03*
X207520Y623850D03*
X204400Y622100D03*
D03*
X199400D03*
D03*
X199850Y639400D03*
X210290Y639520D03*
X219500Y30350D03*
D03*
X217100Y28000D03*
D03*
X210998Y49120D03*
D03*
X212700Y64500D03*
D03*
X213900Y58750D03*
D03*
X216700Y64500D03*
D03*
X219150Y70250D03*
D03*
X213500Y69600D03*
D03*
X211300Y137100D03*
X214140Y150900D03*
X221500Y187500D03*
X222000Y237150D03*
X219400Y249100D03*
X218250Y261500D03*
X213150Y258300D03*
X213900Y269400D03*
D03*
Y266100D03*
D03*
X220980Y373380D03*
X211300Y374000D03*
X212300Y385500D03*
X220980Y398780D03*
X210850Y401050D03*
X221450Y427450D03*
X216400Y436150D03*
X211900Y447350D03*
D03*
X220300Y448100D03*
X211050Y458650D03*
D03*
X218100Y469200D03*
D03*
X213000Y474200D03*
D03*
X216300Y482200D03*
X216900Y493200D03*
X210800Y499600D03*
X218700Y499850D03*
D03*
X211550Y509050D03*
D03*
X216800Y514700D03*
D03*
X219400Y523150D03*
D03*
X218250Y529100D03*
X214300Y538300D03*
X212100Y534750D03*
D03*
X212800Y561200D03*
X219500Y564900D03*
X211200Y577000D03*
X221500Y577400D03*
X216300Y571900D03*
X214500Y603800D03*
X212100Y599800D03*
X214900Y608300D03*
X214200Y613400D03*
X219650Y610200D03*
D03*
X213500Y622700D03*
X219650Y623050D03*
D03*
X219040Y639650D03*
X224858Y49112D03*
D03*
X225840Y43700D03*
D03*
X223800Y65350D03*
D03*
X231600Y68700D03*
X223299Y137160D03*
X226900Y162500D03*
D03*
X225000Y175300D03*
D03*
X228700Y184850D03*
X222650Y205750D03*
X226900Y202000D03*
X229850Y212700D03*
X227228Y223007D03*
X223350Y219300D03*
X230850Y225600D03*
X223850Y218650D03*
X228244Y228006D03*
D03*
X233195Y223798D03*
D03*
X232227Y228006D03*
D03*
X230100Y230350D03*
X230350Y235350D03*
Y240250D03*
X224050Y237750D03*
X228244Y233094D03*
D03*
Y238182D03*
D03*
X232227Y233008D03*
D03*
Y238006D03*
D03*
X231550Y252450D03*
D03*
X232350Y247100D03*
X227700Y244100D03*
X224350Y243900D03*
X232227Y243008D03*
D03*
X232600Y261600D03*
D03*
X225300Y259250D03*
D03*
X230000Y286960D03*
D03*
Y292040D03*
D03*
X224000D03*
D03*
X226150Y387250D03*
X233680Y411480D03*
X228300Y434900D03*
D03*
X231550Y443000D03*
X227000Y459800D03*
D03*
X232300Y454900D03*
X222400Y454600D03*
D03*
X233100Y465400D03*
D03*
X222800Y464500D03*
D03*
X227800Y471000D03*
D03*
X222600Y475700D03*
D03*
X228800Y481200D03*
X222500Y487700D03*
X227750Y498250D03*
X232100Y487300D03*
X232800Y512400D03*
D03*
X230800Y523750D03*
D03*
X227850Y538550D03*
D03*
X224250Y534850D03*
D03*
X222250Y549460D03*
X222200Y554200D03*
D03*
X228400Y558300D03*
X227000Y573000D03*
X222100Y583700D03*
D03*
X222200Y591000D03*
D03*
X228700Y584600D03*
Y594200D03*
X231000Y611150D03*
X227950Y605000D03*
X226350Y616900D03*
D03*
X232350Y622900D03*
D03*
X230950Y678750D03*
X234949Y80830D03*
D03*
X236441Y137160D03*
X240800Y145150D03*
D03*
X236450Y153100D03*
D03*
X238450Y166300D03*
D03*
X243950Y175750D03*
D03*
X236700Y192100D03*
X245100Y184350D03*
X241100Y202400D03*
X235350Y207500D03*
X237229Y233008D03*
X239500Y230850D03*
X237250Y237650D03*
X242350Y252000D03*
D03*
X241550Y245550D03*
X237229Y243008D03*
D03*
X243950Y260750D03*
D03*
X234188Y392684D03*
D03*
X234000Y399900D03*
X243050Y427450D03*
X239500Y437600D03*
X235600Y434150D03*
D03*
X238800Y444100D03*
D03*
X237500Y449800D03*
X244371Y440972D03*
D03*
X241101D03*
D03*
X239000Y459600D03*
X241600Y474200D03*
D03*
X244600Y467400D03*
X234900Y475200D03*
X241400Y482200D03*
D03*
X241500Y492100D03*
X238950Y497800D03*
X234250Y505400D03*
D03*
X242300Y517050D03*
D03*
X234000Y530450D03*
X240700Y534950D03*
X237850Y537550D03*
X242400Y560100D03*
X234200Y577200D03*
X241900D03*
X237800Y573000D03*
X240200Y603500D03*
X234500Y599800D03*
X243800Y607200D03*
X236700Y615350D03*
X241650Y623950D03*
X239500Y630300D03*
D03*
X238000Y663050D03*
X244850Y678750D03*
X253746Y88900D03*
Y85344D03*
X253850Y130750D03*
D03*
X246159Y137414D03*
X254300Y146700D03*
D03*
X245750Y155000D03*
D03*
X245700Y149700D03*
D03*
X252250Y166200D03*
D03*
X256000Y175750D03*
D03*
X250300Y191700D03*
X247324Y219014D03*
D03*
X247550Y222500D03*
X255250Y220250D03*
X254600Y225950D03*
X255600Y237550D03*
X255300Y252300D03*
D03*
X254150Y261150D03*
D03*
X252450Y286850D03*
D03*
X253000Y295200D03*
D03*
X252850Y301900D03*
D03*
X246834Y314100D03*
X253194D03*
X246834Y319180D03*
D03*
X256982Y330199D03*
X252045Y324872D03*
X251902Y330199D03*
D03*
X256982Y335279D03*
X256671Y342134D03*
D03*
X251902Y335279D03*
D03*
X256864Y348528D03*
D03*
X253540Y368218D03*
X246700Y386800D03*
X246380Y398780D03*
Y411480D03*
X246500Y438000D03*
X251500Y437600D03*
X250900Y431500D03*
X246800Y445600D03*
D03*
X252619Y441289D03*
D03*
X255889D03*
D03*
X245600Y452200D03*
D03*
X255800Y455000D03*
X250400Y461100D03*
X254600Y469300D03*
X253800Y476000D03*
D03*
X253900Y481500D03*
X246700Y498200D03*
X253900Y498300D03*
X254100Y487400D03*
X245600Y505900D03*
D03*
X254700Y505100D03*
D03*
X255400Y507800D03*
D03*
X248792Y508300D03*
D03*
X252062D03*
D03*
X246000Y510600D03*
D03*
X247400Y516500D03*
D03*
X246200Y525400D03*
D03*
X246380Y538480D03*
X256100Y537400D03*
D03*
X245900Y534700D03*
D03*
X246380Y563880D03*
X250300Y560500D03*
X251500Y577700D03*
X252200Y573800D03*
X247600Y600100D03*
X254650Y599050D03*
D03*
X256400Y609300D03*
X252100Y604800D03*
X247300Y611400D03*
X246400Y618900D03*
X246300Y627100D03*
X255500Y623475D03*
D03*
X250500D03*
D03*
X250100Y631500D03*
X245600Y636900D03*
D03*
X256170Y653210D03*
X256220Y655510D03*
X256250Y657880D03*
X253880Y653210D03*
X253930Y655510D03*
X253960Y657880D03*
X245750Y670650D03*
X267400Y120700D03*
D03*
X266300Y130900D03*
D03*
X262349Y137414D03*
X263100Y143650D03*
D03*
X268150Y140050D03*
D03*
X267900Y156600D03*
D03*
X257150Y156550D03*
D03*
X266350Y166450D03*
D03*
X266650Y176050D03*
D03*
X265200Y192750D03*
X262050Y183950D03*
X262280Y200550D03*
D03*
X267229Y228006D03*
D03*
X257229D03*
X262700Y237750D03*
X259050Y246600D03*
X262350Y251250D03*
X263900Y260600D03*
D03*
X261150Y284150D03*
D03*
X260300Y295300D03*
D03*
X258500Y289450D03*
D03*
X263000Y302300D03*
D03*
X257950Y302000D03*
D03*
X257964Y310916D03*
D03*
X264324Y310280D03*
D03*
X257646Y315368D03*
D03*
X263532Y316014D03*
D03*
X261829Y329949D03*
D03*
X267190Y330119D03*
X262603Y324403D03*
X267504Y324590D03*
D03*
X262416Y334766D03*
D03*
X257125Y324872D03*
D03*
X262220Y345905D03*
D03*
X262340Y340789D03*
X267300Y345905D03*
D03*
X263500Y357000D03*
D03*
X262897Y351852D03*
D03*
X258620Y357424D03*
D03*
Y368218D03*
D03*
Y362821D03*
D03*
X263689Y366916D03*
D03*
X259080Y373380D03*
D03*
X263759Y371643D03*
D03*
X261699Y386000D03*
D03*
X259080Y398780D03*
Y411480D03*
X261550Y426550D03*
X258200Y438400D03*
X263300Y437400D03*
X258200Y447600D03*
D03*
X261600Y449200D03*
D03*
X263859Y441272D03*
D03*
X267129D03*
D03*
X264200Y459800D03*
D03*
X259080Y474980D03*
X264800Y475200D03*
D03*
X259300Y464100D03*
X264500Y467400D03*
X264400Y483700D03*
X264500Y489200D03*
X265100Y497400D03*
X258500Y501300D03*
X268300Y505600D03*
X261500Y511900D03*
D03*
X257900Y516300D03*
X267300Y516500D03*
X266118Y521713D03*
D03*
X260100Y522425D03*
X262700Y537050D03*
D03*
X260350Y549460D03*
D03*
X259080Y563880D03*
X264000Y560600D03*
X263800Y564900D03*
X266700Y579000D03*
X260200Y591100D03*
D03*
X260300Y583600D03*
D03*
X264200Y599700D03*
D03*
X268700Y604900D03*
X263600Y611000D03*
X261550Y606000D03*
D03*
X260500Y625575D03*
D03*
Y621200D03*
D03*
Y616500D03*
D03*
X265500Y623375D03*
D03*
X258300Y631500D03*
X266400Y631800D03*
X260830Y658010D03*
X260800Y655640D03*
X260750Y653340D03*
X258410Y653280D03*
X258460Y655580D03*
X258490Y657950D03*
X261750Y669350D03*
X257800Y678750D03*
X274100Y135400D03*
X272792Y178000D03*
D03*
X275000D03*
D03*
X276098Y199644D03*
D03*
X272227Y213008D03*
D03*
Y208006D03*
D03*
Y228006D03*
D03*
X271890Y232180D03*
X271750Y239430D03*
X275000Y252300D03*
D03*
X272950Y258550D03*
D03*
X271220Y295719D03*
D03*
X278788Y289693D03*
D03*
X269095Y302816D03*
D03*
Y308212D03*
D03*
X274182Y308054D03*
D03*
X277911Y303828D03*
D03*
X276332Y301800D03*
D03*
X269095Y313608D03*
D03*
X269090Y319005D03*
D03*
X274515Y314134D03*
D03*
X279522Y313776D03*
D03*
X277044Y321728D03*
D03*
X274512Y318517D03*
D03*
X279588Y318548D03*
D03*
X272723Y330035D03*
D03*
X272879Y324799D03*
D03*
X277680Y329678D03*
D03*
X272703Y340496D03*
D03*
X276324Y345572D03*
D03*
X278032Y340374D03*
X272136Y335752D03*
D03*
X278952Y335402D03*
D03*
X270000Y356146D03*
D03*
X274810Y350326D03*
D03*
X269412Y351302D03*
D03*
X279906Y361160D03*
D03*
X274548Y358755D03*
D03*
X275500Y361500D03*
D03*
X274000Y367354D03*
D03*
X269226Y361361D03*
D03*
X269156Y366563D03*
D03*
X274000Y371500D03*
D03*
X269156Y371643D03*
D03*
X277680Y379604D03*
D03*
X271301Y387699D03*
D03*
X271780Y398780D03*
Y411480D03*
X279150Y426850D03*
X270000Y438400D03*
X277800Y434900D03*
X270150Y431100D03*
X273581Y438451D03*
D03*
X276851D03*
D03*
X270000Y447400D03*
D03*
X278900Y449400D03*
D03*
Y444300D03*
D03*
X278700Y459800D03*
D03*
X269100Y452400D03*
X271000Y457500D03*
X278800Y469300D03*
X279100Y482700D03*
D03*
Y475900D03*
X271400Y491500D03*
X278900Y491800D03*
X274500Y499400D03*
X271300Y514500D03*
D03*
X273700Y520800D03*
D03*
X269388Y521713D03*
D03*
X274200Y527100D03*
D03*
X278900Y531100D03*
D03*
X274100Y534200D03*
D03*
X273200Y600300D03*
X273000Y611000D03*
X277500Y606300D03*
X279000Y614750D03*
D03*
X274300Y621000D03*
X279700Y620850D03*
D03*
X270500Y623375D03*
D03*
X273900Y629400D03*
X269300Y642500D03*
D03*
X272700Y662900D03*
D03*
X276450Y671200D03*
X270000Y678650D03*
X285749Y80830D03*
X291850Y122950D03*
X291950Y173500D03*
X287229Y228006D03*
X282227Y223008D03*
D03*
X287229Y243008D03*
X291036Y297878D03*
D03*
X288390Y289693D03*
D03*
X284000Y299800D03*
D03*
X284300Y302500D03*
D03*
X291500Y300500D03*
D03*
X282839Y306700D03*
D03*
X288289Y307644D03*
D03*
X285306Y309058D03*
D03*
X285417Y313215D03*
D03*
X289764Y319184D03*
D03*
X284393Y319701D03*
D03*
X290082Y314100D03*
D03*
X287828Y329801D03*
D03*
X286500Y327000D03*
D03*
X281305Y324386D03*
D03*
X282705Y330306D03*
D03*
X291354Y344624D03*
D03*
X288174Y335720D03*
D03*
X282989Y335283D03*
D03*
X280576Y345755D03*
D03*
X288073Y339267D03*
D03*
X282132Y341126D03*
D03*
X280562Y356061D03*
D03*
X281370Y349492D03*
D03*
X284358Y355118D03*
D03*
X287856Y351620D03*
D03*
X287556Y346734D03*
D03*
X290718Y365930D03*
D03*
X280500Y367000D03*
D03*
X284040Y360206D03*
X285630Y361478D03*
X284040Y360206D03*
X285630Y361478D03*
X283722Y367520D03*
D03*
X290044Y371497D03*
D03*
X282132Y379604D03*
D03*
X286338Y370110D03*
D03*
X290267Y389115D03*
Y392385D03*
X282500Y397700D03*
X284480Y411480D03*
X281200Y437900D03*
X286700Y435100D03*
X290950Y430200D03*
X284431Y438466D03*
D03*
X287701D03*
D03*
X282300Y449400D03*
D03*
Y444300D03*
D03*
X291100Y440600D03*
D03*
X289700Y444800D03*
D03*
X289900Y451200D03*
D03*
X282400Y460200D03*
D03*
X289700Y458200D03*
X289600Y465100D03*
D03*
X282900Y470900D03*
X291000Y482600D03*
D03*
X288600Y476500D03*
X286000Y492100D03*
X280900Y505250D03*
X292000Y499700D03*
X289000Y520250D03*
D03*
X286100Y513800D03*
D03*
X285450Y526750D03*
D03*
X280550Y523700D03*
D03*
X282300Y536400D03*
D03*
X289400Y538200D03*
D03*
X281300Y568000D03*
X292000Y579000D03*
X283000Y600800D03*
X289700Y599500D03*
X286990Y614460D03*
D03*
X290200Y624900D03*
D03*
X290630Y617450D03*
D03*
X290300Y638000D03*
X286100Y662600D03*
D03*
X292050Y668900D03*
X284250Y678650D03*
X298400Y115300D03*
X292300Y135300D03*
X303400Y133900D03*
X297800Y132400D03*
X298650Y166350D03*
X297650Y188200D03*
X297800Y199300D03*
X297350Y212100D03*
X296000Y217000D03*
X292227Y223008D03*
Y228006D03*
Y233008D03*
X303040Y258040D03*
D03*
X300258Y296924D03*
X296083Y297733D03*
D03*
X300500Y309300D03*
D03*
X297200Y307100D03*
D03*
X294534Y304238D03*
D03*
X301932Y302521D03*
D03*
X299654Y314080D03*
D03*
X300486Y319188D03*
D03*
X295174Y314414D03*
D03*
X296000Y312500D03*
D03*
X296482Y318913D03*
D03*
X292944Y329360D03*
D03*
X303198Y329112D03*
D03*
X297078Y328406D03*
X292944Y324594D03*
D03*
X298202Y324217D03*
D03*
X300357Y346004D03*
D03*
X292975Y337394D03*
D03*
X297000Y339113D03*
D03*
X298583Y335381D03*
D03*
X301212Y356072D03*
D03*
X302071Y350031D03*
D03*
X292314Y350573D03*
D03*
X295536Y355990D03*
D03*
X295806Y347168D03*
D03*
X296442Y352256D03*
D03*
X295218Y361091D03*
D03*
X300837Y366317D03*
D03*
X294852Y366884D03*
D03*
X303494Y376701D03*
D03*
X300837Y371397D03*
D03*
X294984Y370737D03*
D03*
X292905Y376791D03*
X298302D03*
X292905D03*
X298302D03*
Y381871D03*
D03*
X292905D03*
D03*
X303494Y381781D03*
D03*
X297180Y398780D03*
Y411480D03*
X299850Y427150D03*
X297180Y436880D03*
D03*
X300250Y445100D03*
D03*
X298100Y452500D03*
D03*
X299550Y461400D03*
X295400Y472300D03*
X302750Y470700D03*
X301100Y478300D03*
X302300Y497600D03*
D03*
X297850Y504750D03*
D03*
X297950Y518500D03*
D03*
X293400Y532200D03*
D03*
X300300Y526250D03*
D03*
X297850Y537800D03*
D03*
X298450Y549460D03*
D03*
X301500Y561100D03*
X292400Y567800D03*
X298450Y588460D03*
X303700Y614300D03*
D03*
X296820Y614930D03*
D03*
X297600Y626330D03*
D03*
X295550Y656300D03*
D03*
X299000Y678750D03*
X304300Y117000D03*
X310000Y166350D03*
X309150Y175100D03*
X308400Y184400D03*
X306350Y197950D03*
X306950Y212400D03*
X307700Y235400D03*
X307254Y299150D03*
X314000Y297000D03*
D03*
X305660Y309326D03*
D03*
X305980Y304872D03*
D03*
X305982Y319184D03*
D03*
X312024Y317912D03*
D03*
X309445Y314768D03*
D03*
X315204Y314414D03*
D03*
Y317912D03*
D03*
X306300Y315368D03*
D03*
X308042Y334858D03*
D03*
X314700Y324027D03*
D03*
X306530Y323739D03*
D03*
X304499Y323826D03*
D03*
X312910Y334569D03*
D03*
X309637Y329586D03*
D03*
X312910Y339965D03*
D03*
X305028Y346214D03*
X306618Y344624D03*
X305028Y346214D03*
X306618Y344624D03*
X308844Y351302D03*
D03*
X313521Y350055D03*
D03*
X306578Y355092D03*
D03*
X304170Y361811D03*
D03*
X310679Y361231D03*
D03*
X312097Y365547D03*
D03*
X304710Y367838D03*
D03*
X306618Y371018D03*
X311450Y371401D03*
D03*
X306618Y371018D03*
X312660Y375470D03*
D03*
X309880Y411480D03*
X309200Y424400D03*
X309880Y436880D03*
D03*
X314600Y429200D03*
X311350Y445250D03*
D03*
X309900Y452350D03*
D03*
X311800Y461100D03*
X313100Y468350D03*
X307300Y484300D03*
X312400Y477400D03*
Y489300D03*
X304500Y503000D03*
D03*
X311500Y507600D03*
X304550Y515150D03*
D03*
X304000Y532650D03*
D03*
X311050Y531600D03*
X314700Y523850D03*
X309700Y538200D03*
D03*
X303900Y538300D03*
D03*
X310400Y560700D03*
X314600Y567900D03*
X304200D03*
X305200Y646550D03*
D03*
X315000Y646300D03*
X311150Y660300D03*
X309100Y671200D03*
X323849Y118600D03*
X321250Y166800D03*
X318050Y174800D03*
X317450Y188050D03*
X327152Y191770D03*
X324029Y185225D03*
X324358Y187198D03*
X316400Y202650D03*
X317750Y210800D03*
X326970Y220010D03*
X320800Y238050D03*
X322200Y297242D03*
D03*
X316000Y309500D03*
D03*
X322307Y301929D03*
D03*
X322352Y307017D03*
D03*
X320365Y317217D03*
D03*
X320699Y322283D03*
D03*
X322498Y311594D03*
D03*
X326334Y317594D03*
D03*
X323472Y334130D03*
D03*
X319606Y329280D03*
D03*
X315639Y330043D03*
D03*
X326970Y327134D03*
D03*
X322130Y340545D03*
D03*
X317521Y344840D03*
D03*
X317311Y335929D03*
D03*
X318384Y337946D03*
D03*
X322350Y349699D03*
D03*
X321301Y356042D03*
D03*
X326334Y354800D03*
D03*
X317748Y351938D03*
D03*
X323596Y361188D03*
D03*
X318307Y360603D03*
D03*
X322023Y366004D03*
D03*
X316476Y366566D03*
D03*
X322119Y371073D03*
X317112Y371018D03*
X315911Y375609D03*
D03*
X316837Y380876D03*
D03*
X322985Y374631D03*
D03*
X326418Y384000D03*
D03*
X317112Y386918D03*
D03*
X316450Y397700D03*
X322580Y411480D03*
X322050Y424250D03*
X320200Y434600D03*
D03*
X318200Y442750D03*
D03*
X321800Y452950D03*
D03*
X323750Y461800D03*
X323450Y473900D03*
X321500Y482900D03*
D03*
X317500Y494600D03*
X319700Y489800D03*
X323200Y500700D03*
X319900Y509500D03*
X325000Y514900D03*
X322600Y521600D03*
X315750Y516150D03*
X322600Y528300D03*
X322100Y534400D03*
X315900Y536300D03*
X322580Y563880D03*
X317900Y560900D03*
X322100Y567700D03*
X323800Y599600D03*
X323550Y630850D03*
D03*
X324250Y651700D03*
X322300Y665100D03*
X326400Y679000D03*
D03*
X329950Y19800D03*
D03*
X336549Y57451D03*
D03*
X329950Y107350D03*
D03*
X337840Y135400D03*
X332760Y131400D03*
X327481Y193743D03*
X329400Y204800D03*
X330460Y213900D03*
X336390Y229190D03*
X337760Y222160D03*
X330700Y238050D03*
X327432Y296815D03*
D03*
X332694Y296924D03*
D03*
X327432Y301911D03*
X337674Y307257D03*
D03*
X338272Y299874D03*
D03*
X332594Y307257D03*
D03*
X332786Y302173D03*
D03*
X336925Y322868D03*
D03*
X337500Y313000D03*
X327606Y322046D03*
D03*
X329051Y315368D03*
D03*
X332376Y322364D03*
D03*
X335562Y327987D03*
D03*
X330056Y333297D03*
X330966Y328584D03*
D03*
X327914Y345186D03*
D03*
X330450Y338665D03*
D03*
X333549Y346317D03*
D03*
X335566Y341505D03*
D03*
X338732Y356708D03*
X328422Y348234D03*
D03*
X333966Y356390D03*
D03*
X333000Y349500D03*
D03*
X327818Y363770D03*
D03*
X338418Y369114D03*
D03*
Y374194D03*
D03*
X328397Y374802D03*
X333648Y377060D03*
X328397Y374802D03*
X333648Y377060D03*
X333231Y372035D03*
D03*
X334100Y396250D03*
X335280Y411480D03*
X337300Y424100D03*
X336750Y439800D03*
X331200Y431650D03*
X327950Y442050D03*
D03*
X333350Y453400D03*
D03*
X332050Y460200D03*
X338950Y452200D03*
X331900Y468350D03*
X332232Y473964D03*
D03*
X328500Y479800D03*
D03*
X331700Y485200D03*
X328678Y486879D03*
D03*
Y483609D03*
D03*
X328600Y491000D03*
D03*
X328000Y495200D03*
D03*
X331200Y498700D03*
D03*
X329300Y506700D03*
X332100Y512200D03*
X332300Y516500D03*
X336600Y516600D03*
X335500Y512800D03*
X332500Y538100D03*
D03*
X337800Y547200D03*
D03*
X329400Y559300D03*
X331724Y565150D03*
D03*
X330962Y567182D03*
D03*
X328676D03*
D03*
X333502Y566674D03*
D03*
X336550Y588460D03*
X335100Y600000D03*
X331400Y632300D03*
D03*
X335750Y636250D03*
X330950Y645650D03*
X342500Y51250D03*
D03*
X340000Y107300D03*
D03*
X345694Y155448D03*
X345822Y160910D03*
X341333Y202404D03*
Y196054D03*
X346850Y199300D03*
X341333Y208754D03*
X342800Y214300D03*
X345875Y229464D03*
D03*
X344400Y221850D03*
X340795Y229464D03*
D03*
X345860Y235814D03*
D03*
X341000Y239300D03*
X345000Y247500D03*
D03*
X341000Y253040D03*
D03*
X349798Y297568D03*
X340450Y289200D03*
D03*
X349950Y291650D03*
D03*
X341966Y299803D03*
D03*
X342870Y307418D03*
D03*
Y312502D03*
D03*
X343188Y334766D03*
X340322Y341126D03*
X339739Y346343D03*
D03*
X350040Y343500D03*
D03*
X344000Y342500D03*
D03*
X339500Y351500D03*
X343916Y347726D03*
D03*
X347980Y411480D03*
X343300Y430200D03*
X346000Y449900D03*
D03*
X346500Y441150D03*
X341950Y462300D03*
D03*
X347100Y463000D03*
D03*
X339350Y473600D03*
X349500Y482450D03*
D03*
X342950Y487000D03*
X344900Y478150D03*
X348742Y494030D03*
X343408D03*
X347980Y487680D03*
D03*
X345800Y500360D03*
X350542Y509900D03*
D03*
X347300Y516600D03*
X350000Y530200D03*
D03*
X349100Y538500D03*
X349900Y534100D03*
D03*
X346400Y599900D03*
X344850Y614700D03*
D03*
X358500Y48600D03*
D03*
X353674Y64400D03*
X361949Y79052D03*
X361950Y81280D03*
X354000Y107300D03*
D03*
X358240Y135400D03*
X353160D03*
X353417Y156629D03*
D03*
X350988Y160742D03*
D03*
X355952Y206072D03*
Y203846D03*
Y201620D03*
Y214976D03*
Y212750D03*
Y210524D03*
Y208298D03*
X350750Y284000D03*
D03*
X359100Y294150D03*
D03*
X354750Y312050D03*
X353900Y327200D03*
X357100Y352250D03*
X356250Y370900D03*
X351850Y383150D03*
X358250Y396250D03*
X353150Y419150D03*
X356700Y432700D03*
X358750Y444650D03*
X355900Y452950D03*
D03*
X362200Y458200D03*
D03*
X361900Y466800D03*
D03*
X351850Y465750D03*
D03*
X351700Y471700D03*
D03*
X358950Y492500D03*
X354350Y488250D03*
X356140Y509900D03*
Y504800D03*
X359900Y500300D03*
X352550Y499900D03*
X355860Y515200D03*
X361442Y512064D03*
D03*
X352552Y527304D03*
D03*
X359664Y562864D03*
D03*
X361950D03*
D03*
X355750Y616700D03*
D03*
X351000Y624400D03*
D03*
X355300Y633300D03*
D03*
X351500Y645600D03*
X373100Y39150D03*
D03*
X365140Y48526D03*
D03*
X373074Y62500D03*
X366250Y107100D03*
D03*
X367050Y153971D03*
D03*
X362576Y154314D03*
X365938Y158594D03*
X365609Y156621D03*
X372618Y168910D03*
D03*
X364922Y176864D03*
X370002Y176962D03*
D03*
X365250Y198400D03*
X371950Y203350D03*
X371794Y207500D03*
X368500Y275250D03*
D03*
X362400Y288100D03*
D03*
X369100Y281550D03*
D03*
X367500Y294400D03*
D03*
X366724Y310598D03*
D03*
X371804D03*
D03*
X371168Y325544D03*
X366088D03*
D03*
X371176Y364022D03*
D03*
X372130Y384056D03*
D03*
X365250Y390300D03*
X367150Y409950D03*
X367300Y418400D03*
X369500Y432550D03*
X367350Y445350D03*
X373400Y454350D03*
D03*
X363850Y475050D03*
X368050Y464750D03*
X373850Y478800D03*
D03*
X373750Y485100D03*
X364236Y512064D03*
D03*
X371094Y517652D03*
D03*
Y515366D03*
D03*
X373380Y525780D03*
D03*
X372364Y531622D03*
D03*
X373380Y538480D03*
X363400Y534140D03*
X368500D03*
D03*
X365000Y539200D03*
X373380Y563880D03*
X362966Y560832D03*
D03*
X368600Y598700D03*
D03*
X371650Y608650D03*
X373380Y627380D03*
D03*
X365400Y617150D03*
D03*
X368500Y622900D03*
D03*
X365150Y629250D03*
D03*
X372850Y646950D03*
X362550Y640200D03*
X380400Y33750D03*
D03*
X382726Y39000D03*
D03*
X379050Y49200D03*
D03*
X374649Y79052D03*
D03*
X382200Y109000D03*
D03*
X376100Y107500D03*
D03*
X377952Y169672D03*
X381426Y183058D03*
Y188042D03*
D03*
X378404Y204532D03*
Y202306D03*
X375064Y207500D03*
X381800Y279700D03*
X379050Y287500D03*
D03*
X381344Y294062D03*
D03*
X376264D03*
D03*
X385000Y318540D03*
X382000Y332500D03*
X385460Y354000D03*
X376256Y364022D03*
X379100Y373850D03*
X382616Y390734D03*
D03*
X377536D03*
D03*
X377210Y384056D03*
D03*
X376500Y400350D03*
X383200Y418250D03*
X380400Y433700D03*
D03*
X377250Y447100D03*
X374100Y462200D03*
D03*
X378800Y460450D03*
D03*
X384250Y452800D03*
X376100Y470200D03*
D03*
X378700Y480100D03*
D03*
X384500Y486300D03*
X379000Y497200D03*
X378200Y502400D03*
D03*
X382050Y499850D03*
D03*
X382500Y510050D03*
X384650Y504500D03*
X378000Y530640D03*
X383100Y530740D03*
X384900Y538600D03*
X374700Y547200D03*
D03*
X382900Y552600D03*
X381000Y560500D03*
X385064Y566928D03*
D03*
X383032D03*
D03*
X382200Y577900D03*
X374700Y591100D03*
D03*
X384900Y599500D03*
X375100Y600000D03*
X384050Y608050D03*
X379400Y617350D03*
D03*
X380150Y623450D03*
D03*
X394800Y25900D03*
D03*
X387100Y30100D03*
D03*
X396700Y37250D03*
D03*
X391100Y50100D03*
D03*
Y62426D03*
X396600Y57300D03*
X387349Y79052D03*
D03*
X386080Y93980D03*
X389636Y134366D03*
X389820Y145280D03*
X394716Y145288D03*
D03*
X388817Y169043D03*
X391318Y169135D03*
X391682Y200908D03*
X391668Y203200D03*
X389600Y219900D03*
D03*
X391100Y239750D03*
D03*
X386754Y271488D03*
D03*
X387600Y265850D03*
D03*
X388950Y286800D03*
D03*
X397400Y281300D03*
D03*
X386754Y276568D03*
D03*
X389000Y363050D03*
X392800Y384692D03*
D03*
X393350Y396550D03*
X389890Y414020D03*
X391400Y412600D03*
X386080Y436880D03*
X396900Y449550D03*
D03*
X390200Y442300D03*
D03*
X386080Y462280D03*
X392950Y462700D03*
X387450Y473300D03*
X394300Y484400D03*
X396000Y493000D03*
D03*
X394150Y496800D03*
D03*
X389300Y490850D03*
X388950Y498950D03*
X393500Y504850D03*
X388700Y530740D03*
X395600Y530000D03*
X392300Y536400D03*
X388350Y547700D03*
X393000Y552100D03*
X393900Y560900D03*
X387100Y560800D03*
X387650Y557250D03*
X387096Y566928D03*
D03*
X393000Y572300D03*
X389600Y577300D03*
X392200Y599600D03*
X394100Y610100D03*
X386080Y627380D03*
X397200Y627250D03*
D03*
X392200Y617050D03*
D03*
X386850Y633400D03*
D03*
X393650Y643600D03*
X405600Y32300D03*
D03*
X401300Y43700D03*
D03*
X402500Y53000D03*
D03*
X401800Y63226D03*
X400049Y80830D03*
D03*
X405500Y110250D03*
D03*
X404200Y103600D03*
D03*
X408900Y142500D03*
X407850Y203650D03*
D03*
X408000Y217350D03*
D03*
X398950Y212100D03*
D03*
X409150Y245900D03*
D03*
X402750Y258700D03*
D03*
X405194Y275300D03*
D03*
X400114D03*
D03*
X404700Y281400D03*
D03*
X400000Y292500D03*
D03*
X403604Y313778D03*
D03*
X398524D03*
D03*
X400000Y345500D03*
X409000Y344540D03*
X403300Y361900D03*
X404240Y373562D03*
D03*
X399160D03*
D03*
X397880Y384692D03*
D03*
X407500Y392000D03*
D03*
X407000Y397540D03*
D03*
X397900Y408200D03*
X406474Y411086D03*
D03*
X398780Y436880D03*
X406650Y431200D03*
X399950Y441100D03*
D03*
X398780Y474980D03*
X402450Y479750D03*
X398780Y487680D03*
X407900Y488800D03*
X406800Y496200D03*
X398780Y500380D03*
X403300Y501200D03*
D03*
X405500Y509500D03*
D03*
X400150Y506500D03*
D03*
X406500Y506100D03*
D03*
Y502830D03*
D03*
X402700Y515200D03*
D03*
X408900Y515500D03*
D03*
X400850Y511900D03*
D03*
X397500Y514100D03*
X407088Y520513D03*
D03*
X403818D03*
D03*
X399250Y533650D03*
D03*
X406500Y540100D03*
X400900Y539200D03*
X401300Y546750D03*
X406750Y552350D03*
X398950Y553950D03*
X407100Y566700D03*
X398500Y568400D03*
X403300Y560600D03*
X407500Y557500D03*
X400200Y576000D03*
X399500Y599500D03*
X407050Y607050D03*
X404300Y624350D03*
D03*
X403600Y616350D03*
D03*
X403000Y632950D03*
D03*
X418478Y31520D03*
D03*
X418400Y42350D03*
D03*
X410950Y42050D03*
D03*
X415800Y38000D03*
D03*
X419518Y48526D03*
D03*
X410296D03*
D03*
Y58178D03*
X412749Y80830D03*
D03*
X412300Y99400D03*
D03*
X419400Y110300D03*
D03*
X419500Y103900D03*
D03*
X411000Y142509D03*
X420500Y170688D03*
D03*
X415650Y180600D03*
D03*
X411450Y193900D03*
D03*
X419700Y221850D03*
D03*
X419650Y233950D03*
D03*
X416850Y254650D03*
D03*
X412500Y273900D03*
D03*
X418600Y280300D03*
D03*
X418000Y305500D03*
X410000Y319540D03*
X415250Y361450D03*
X415650Y379350D03*
X415500Y394500D03*
X417550Y409350D03*
X411554Y411086D03*
D03*
X416700Y418400D03*
X416000Y441400D03*
X409400Y452050D03*
D03*
X410850Y471750D03*
D03*
X415400Y482700D03*
X409400Y483400D03*
X419610Y482490D03*
D03*
X410850Y479450D03*
D03*
X419300Y477850D03*
D03*
X419180Y484600D03*
X416425Y487000D03*
D03*
X418600Y497000D03*
X413900D03*
X419110Y494310D03*
X416425Y492000D03*
D03*
X418680Y509260D03*
X418490Y500230D03*
X413000Y521425D03*
D03*
X416300Y511100D03*
D03*
X410600Y520650D03*
X413000Y525800D03*
D03*
Y530900D03*
D03*
X410420Y529610D03*
X415770Y529040D03*
X409960Y525530D03*
X409600Y536400D03*
X417050D03*
D03*
X418850Y540450D03*
D03*
X415500Y541700D03*
X412750Y549460D03*
X419050Y547350D03*
D03*
X410800Y561500D03*
X412500Y565800D03*
X420200Y566400D03*
X414850Y561850D03*
D03*
X418120D03*
D03*
X419500Y579200D03*
X410700Y576000D03*
X417100Y572900D03*
X412750Y588460D03*
X413900Y600000D03*
X412450Y615000D03*
D03*
X413950Y610350D03*
D03*
X415500Y643600D03*
X431578Y33020D03*
X429500Y35600D03*
D03*
X422500Y38900D03*
D03*
X428300Y42950D03*
D03*
X425449Y80830D03*
D03*
X424000Y163000D03*
D03*
X426466Y165354D03*
D03*
X426050Y177250D03*
D03*
X421450Y194000D03*
D03*
X426250Y185700D03*
D03*
X431050Y207400D03*
D03*
X430700Y243550D03*
D03*
X427050Y259150D03*
D03*
X430320Y275940D03*
D03*
X423000Y273300D03*
D03*
X430320Y281020D03*
D03*
X422000Y314460D03*
X431000Y312500D03*
X430639Y419500D03*
D03*
X425559D03*
D03*
X423150Y436050D03*
X426050Y450450D03*
X421750Y471000D03*
D03*
X430400Y485800D03*
D03*
X425100Y483300D03*
D03*
X427900Y480650D03*
D03*
X432100Y475400D03*
D03*
X423300Y497000D03*
X429100Y493200D03*
D03*
X429700Y497400D03*
D03*
X428700Y509500D03*
D03*
X428900Y501100D03*
D03*
X425800Y499200D03*
X422975Y507000D03*
D03*
Y502000D03*
D03*
X431100Y516700D03*
X427100Y524700D03*
D03*
X430438Y532900D03*
D03*
X427400Y539300D03*
X429650Y544950D03*
X423950Y544250D03*
X426500Y549750D03*
X421700Y561400D03*
X426500Y561000D03*
X429100Y575600D03*
X425600Y577200D03*
X424180Y589280D03*
X424100Y599500D03*
X432100Y599400D03*
X431250Y613400D03*
D03*
X429350Y631350D03*
D03*
X431700Y671100D03*
D03*
X429550Y679150D03*
D03*
X443878Y31520D03*
X441700Y35500D03*
D03*
X435150Y41800D03*
D03*
X438149Y80830D03*
D03*
X442150Y167800D03*
D03*
X433850Y162550D03*
D03*
X439900Y182200D03*
D03*
X433900Y178550D03*
D03*
X435500Y193400D03*
D03*
X437550Y229700D03*
D03*
X436100Y252900D03*
D03*
X440460Y334000D03*
X434650Y435450D03*
X435500Y442450D03*
X439760Y458900D03*
X433750Y459200D03*
X435200Y480300D03*
X434800Y497700D03*
D03*
X434600Y487400D03*
D03*
X441100Y493900D03*
X443200Y487900D03*
X433600Y504200D03*
D03*
X440600Y503700D03*
X436600Y509600D03*
X438200Y517800D03*
X438900Y526400D03*
D03*
X444100Y524300D03*
X433708Y532900D03*
D03*
X438700Y534600D03*
D03*
X433700Y537200D03*
X440200Y538100D03*
X439550Y541550D03*
X434600Y540450D03*
X439550Y550550D03*
X432550Y549700D03*
X439500Y560800D03*
X433100Y560700D03*
X435500Y572900D03*
X440100Y599600D03*
X440450Y607650D03*
X434200Y622300D03*
D03*
X440300Y621750D03*
X438100Y631650D03*
D03*
X432550Y643350D03*
X432600Y654500D03*
D03*
X448400Y41350D03*
D03*
X452700Y36100D03*
D03*
X450849Y80830D03*
D03*
X449580Y157480D03*
X453200Y154800D03*
D03*
X451450Y173850D03*
D03*
X453450Y185050D03*
D03*
X446350Y194350D03*
D03*
X455300Y190400D03*
D03*
Y207650D03*
D03*
X453850Y227250D03*
D03*
X447450Y237600D03*
D03*
X449350Y252150D03*
D03*
X444550Y262650D03*
D03*
X446900Y285250D03*
D03*
X455093Y281024D03*
D03*
X445150Y292950D03*
D03*
X452890Y303916D03*
X447810D03*
D03*
X449000Y325500D03*
X445100Y417950D03*
X447100Y431100D03*
X446700Y477500D03*
X447400Y499300D03*
X452400Y505400D03*
X445600Y510000D03*
X445700Y517500D03*
X453300Y517200D03*
X451000Y525700D03*
X444400Y539900D03*
X446300Y534900D03*
X448700Y549500D03*
D03*
X446350Y546450D03*
X445100Y558700D03*
X452600Y568900D03*
X450850Y588460D03*
D03*
X453100Y609800D03*
X449600Y619700D03*
D03*
X448450Y625050D03*
D03*
X449350Y632350D03*
D03*
X456578Y31520D03*
D03*
X462250Y35950D03*
D03*
X465628Y48526D03*
D03*
X462280Y55880D03*
X459850Y75450D03*
D03*
X462280Y81280D03*
D03*
X467550Y84150D03*
D03*
X462280Y93980D03*
X461650Y98900D03*
D03*
X458250Y108500D03*
D03*
X459058Y123632D03*
X460455Y119741D03*
X459058Y118226D03*
X460648Y122042D03*
X458844Y120928D03*
X460648Y116954D03*
X458740Y134444D03*
X460137Y135959D03*
Y130553D03*
X458740Y129038D03*
X460330Y132854D03*
X458526Y131740D03*
X460455Y125147D03*
X460648Y127448D03*
X458844Y126334D03*
X458526Y137146D03*
X460330Y138260D03*
X462280Y157480D03*
D03*
X467000Y164950D03*
D03*
X467594Y186206D03*
D03*
Y182936D03*
D03*
X462600Y199050D03*
D03*
X458492Y194718D03*
D03*
X465850Y218150D03*
D03*
X462150Y236550D03*
D03*
X459700Y252300D03*
D03*
X464800Y268300D03*
D03*
X464695Y281024D03*
D03*
X460150Y277200D03*
D03*
X462120Y314418D03*
D03*
Y319498D03*
D03*
X461802Y326820D03*
D03*
Y331900D03*
D03*
X459580Y349712D03*
D03*
X464660D03*
D03*
X462700Y418550D03*
X461900Y434560D03*
X463000Y454240D03*
X463900Y479750D03*
X457450Y486850D03*
X462850Y501450D03*
X466500Y520350D03*
X456000Y530800D03*
X458900Y522900D03*
X464000Y528400D03*
X459200Y537400D03*
X466500Y540000D03*
Y549400D03*
X459400Y546300D03*
X459600Y554200D03*
X466600Y557500D03*
X464000Y567800D03*
X457700Y563900D03*
X458200Y573700D03*
X463450Y579500D03*
X467400Y591450D03*
X461250Y620250D03*
D03*
X460250Y638950D03*
X467550Y670400D03*
D03*
X463900Y679000D03*
D03*
X469278Y31520D03*
D03*
X472300Y41500D03*
D03*
X478800Y76600D03*
D03*
X469950Y74550D03*
D03*
X474980Y93980D03*
D03*
X478950Y89550D03*
D03*
X469450Y107600D03*
D03*
X474980Y119380D03*
X472950Y131800D03*
D03*
X474980Y144780D03*
Y157480D03*
X468200Y177450D03*
D03*
X476200Y186400D03*
D03*
X476500Y202850D03*
D03*
X474600Y226700D03*
D03*
X476100Y417100D03*
X475300Y436200D03*
D03*
X470500Y432600D03*
D03*
X478100Y436200D03*
D03*
X468700Y437200D03*
D03*
X472400Y435600D03*
D03*
X468300Y452650D03*
X472948Y455168D03*
D03*
X472440Y477266D03*
D03*
X471300Y489800D03*
X475550Y504350D03*
X478300Y519050D03*
X473050Y535650D03*
X478600Y550550D03*
X476000Y569300D03*
X477850Y584750D03*
X467800Y608650D03*
X473500Y626000D03*
X471200Y650300D03*
D03*
X467850Y639650D03*
D03*
X478050Y678850D03*
D03*
X481050Y39900D03*
D03*
X483200Y32000D03*
D03*
X489800Y38200D03*
X480450Y53800D03*
D03*
X486300Y47450D03*
D03*
X479350Y113150D03*
D03*
X486750Y440100D03*
X490250Y428900D03*
X481000Y435200D03*
D03*
X480050Y474650D03*
X487050Y487150D03*
X488200Y499100D03*
X488800Y516150D03*
X487050Y540050D03*
X485750Y563500D03*
X488650Y588700D03*
X481800Y597600D03*
X480500Y611850D03*
X486800Y619850D03*
D03*
X492550Y62050D03*
D03*
X501150Y62900D03*
D03*
X494600Y474500D03*
X492250Y570170D03*
X501900Y588700D03*
X493000Y630350D03*
X493300Y647850D03*
X507300Y566850D03*
X506300Y596000D03*
X509350Y611150D03*
Y627750D03*
X512250Y643450D03*
X512850Y667650D03*
G54D20*
G01X122656Y211335D02*
X115062D01*
G01X118984Y221121D02*
X115570D01*
G01X113497Y234672D02*
X114947Y236122D01*
X118970D01*
X120396Y234696D01*
Y234452D01*
X120638D01*
G01X118984Y231121D02*
X117441Y232664D01*
X111760D01*
X109474Y234950D01*
G01X109220Y231648D02*
X109747Y231121D01*
X113362D01*
X114987Y229496D01*
G01X120904Y213868D02*
X121731D01*
X128984Y221121D01*
G54D11*
X7620Y485298D03*
Y497998D03*
Y510698D03*
Y523398D03*
Y561498D03*
Y574198D03*
Y586898D03*
Y599598D03*
Y612298D03*
Y624998D03*
Y637698D03*
X21200Y114350D03*
X18400Y139150D03*
X18050Y165200D03*
X18250Y207750D03*
X16300Y570000D03*
X16000Y607800D03*
X24000Y622900D03*
X17700Y617800D03*
X15800Y638200D03*
X23800Y631900D03*
X23100Y638300D03*
X34290Y136652D03*
X33020Y141986D03*
X24200Y190600D03*
X29200Y570200D03*
X32800Y638600D03*
X39227Y22348D03*
X41600Y42550D03*
X38100Y52950D03*
X47250Y53650D03*
X44200Y47400D03*
X42500Y63500D03*
X42200Y69100D03*
X42450Y75550D03*
X42400Y82700D03*
X36400Y579300D03*
X44200Y638400D03*
X48207Y13368D03*
X55880Y30480D03*
X51600Y638500D03*
X57000D03*
X59532Y7620D03*
X97632D03*
X98450Y14300D03*
X97850Y26250D03*
X210900Y467400D03*
X220900Y7650D03*
X222200Y646350D03*
X222150Y656000D03*
X222884Y666880D03*
X228450Y14000D03*
X234450Y21700D03*
X224650Y507600D03*
X233680Y564134D03*
X230050Y566050D03*
X229150Y673300D03*
X223184Y678180D03*
X237200Y7550D03*
X241350Y507350D03*
X243450Y633000D03*
X241500Y646050D03*
X249650Y640350D03*
X250530Y645560D03*
X266350Y16650D03*
Y31050D03*
X260350Y640650D03*
X270800Y562700D03*
X280150Y562350D03*
X291950Y16950D03*
X292950Y562450D03*
X298500Y35650D03*
X312084Y678180D03*
X326232Y7620D03*
X316950Y43600D03*
X338932Y7620D03*
X335280Y30480D03*
X336800Y43200D03*
X341660Y607350D03*
X347980Y652980D03*
Y665480D03*
X350184Y678180D03*
X360680Y652980D03*
X359550Y664750D03*
X360400Y678150D03*
X372850Y633400D03*
X368700Y662500D03*
X372635Y666629D03*
X376927Y9243D03*
X385908Y18224D03*
X379650Y24750D03*
X386080Y652980D03*
X381300Y662100D03*
X377969Y666629D03*
X375584Y678180D03*
X395500Y249200D03*
X390400Y664500D03*
X389250Y678200D03*
X403050Y452850D03*
X400450Y464950D03*
X398780Y652980D03*
Y665480D03*
X400984Y678180D03*
X410450Y459350D03*
X410950Y466450D03*
X418100Y466100D03*
X411400Y653100D03*
X411480Y665480D03*
X413684Y678180D03*
X426600Y93900D03*
X435150Y102200D03*
X441993Y473456D03*
X439084Y678180D03*
X455300Y100850D03*
X455700Y511300D03*
X451784Y678180D03*
X457600Y589600D03*
X457500Y585200D03*
X461400Y596800D03*
X457500Y594100D03*
Y598700D03*
X475700Y212400D03*
X491235Y50137D03*
X480600Y638700D03*
X480850Y655050D03*
X487680Y665480D03*
X489884Y678180D03*
X495078Y33020D03*
X492450Y44050D03*
X495250Y55500D03*
X501250Y87850D03*
X500100Y113150D03*
X500500Y138300D03*
X501350Y164200D03*
X501800Y189900D03*
X501950Y215550D03*
X500380Y246380D03*
X500000Y408800D03*
X499150Y434350D03*
X499900Y485150D03*
X499800Y510600D03*
X501700Y560400D03*
X501203Y570897D03*
X501100Y599000D03*
X497300Y606500D03*
X497750Y619150D03*
X501850Y639000D03*
X501700Y655300D03*
X502550Y664650D03*
X502584Y678180D03*
X507778Y33020D03*
X515150Y63350D03*
Y139250D03*
X515250Y190850D03*
X514900Y215300D03*
X513080Y246380D03*
X515200Y281700D03*
X515350Y308350D03*
X515050Y358300D03*
X515200Y434500D03*
X513080Y513080D03*
X508000Y556900D03*
X513590Y569900D03*
X515284Y678180D03*
X519612Y37628D03*
X525780Y48730D03*
Y61430D03*
Y74130D03*
Y86830D03*
X515550Y88600D03*
X525780Y99530D03*
Y112230D03*
Y124930D03*
X515550Y114700D03*
X525780Y137630D03*
Y150330D03*
Y163030D03*
X515550Y164500D03*
X525780Y175730D03*
Y188430D03*
Y201130D03*
Y213830D03*
Y226530D03*
Y239230D03*
Y251930D03*
Y264630D03*
Y277330D03*
Y290030D03*
Y302730D03*
Y315430D03*
Y328130D03*
X515750Y332750D03*
X525780Y340830D03*
Y353530D03*
Y366230D03*
Y378930D03*
Y391630D03*
X515650Y383700D03*
X525780Y404330D03*
Y417030D03*
X515900Y409800D03*
X525780Y429730D03*
Y442430D03*
Y455130D03*
X516050Y484700D03*
X525780Y493230D03*
Y505930D03*
Y518630D03*
Y544030D03*
Y556730D03*
Y569430D03*
X519300Y570500D03*
X525780Y582130D03*
Y594830D03*
Y607530D03*
X516200Y607500D03*
X525780Y620230D03*
X518050Y619250D03*
X525780Y632930D03*
X519300Y638550D03*
X525780Y645630D03*
Y658330D03*
X519150Y656300D03*
X525780Y671030D03*
G54D21*
G01X343188Y334766D02*
X346456Y331498D01*
Y295835D01*
X343817Y293196D01*
X308657D01*
X301932Y299921D01*
Y302521D01*
G54D12*
X25400Y546100D03*
X76200Y25400D03*
X355600D03*
X508000Y533400D03*
G54D22*
G01X389890Y414020D02*
X393370Y417500D01*
X407000D01*
X415600Y426100D01*
X484900D01*
X492200Y418800D01*
Y333700D01*
X482092Y323592D01*
Y210008D01*
X491900Y200200D01*
Y142700D01*
X488600Y139400D01*
X470700D01*
X460600Y149500D01*
X425344D01*
X418353Y142509D01*
X411000D01*
G54D13*
X25400Y50800D03*
Y76200D03*
Y101600D03*
Y127000D03*
Y152400D03*
Y177800D03*
Y228600D03*
Y254000D03*
Y279400D03*
Y304800D03*
Y330200D03*
Y355600D03*
Y381000D03*
Y406400D03*
X508000Y50800D03*
Y76200D03*
Y101600D03*
Y127000D03*
Y152400D03*
Y177800D03*
Y203200D03*
Y228600D03*
Y269200D03*
Y294600D03*
Y320000D03*
Y345400D03*
Y370800D03*
Y396200D03*
Y421600D03*
Y447000D03*
Y472400D03*
Y497800D03*
G54D23*
G01X73700Y187600D02*
Y161250D01*
X81026Y153924D01*
X188722D01*
X192532Y150114D01*
Y149860D01*
G01X84836Y205994D02*
X79502D01*
X78740Y206756D01*
G01X90878Y224228D02*
X93985Y221121D01*
X98984D01*
G01X93983Y246122D02*
X94686Y246825D01*
X97536D01*
G01X148984Y226122D02*
X145796Y222934D01*
Y217933D01*
X143985Y216122D01*
G01X262500Y339000D02*
X262340Y339160D01*
G01D02*
Y340789D01*
G01X292227Y228006D02*
X294736D01*
X296000Y226742D01*
Y217000D01*
G01X323849Y118600D02*
Y129349D01*
X325900Y131400D01*
X332760D01*
G01D02*
X349160D01*
X353160Y135400D01*
G01X337500Y313000D02*
X337142D01*
Y322651D01*
G01D02*
X336925Y322868D01*
G01X335562Y327987D02*
X335366D01*
X330056Y333297D01*
G01X341200Y197600D02*
X341333Y197467D01*
G01D02*
Y196054D01*
G54D14*
X88899Y100330D03*
X88900Y568960D03*
X444499Y100330D03*
X444500Y568960D03*
G54D24*
G01X330615Y338582D02*
X330367Y338830D01*
Y338685D01*
X330366D01*
X330363Y338682D01*
X330453D01*
Y338665D01*
X330450D01*
G54D15*
X254110Y23712D03*
Y49112D03*
X279510Y23712D03*
Y49112D03*
X304910Y23712D03*
Y49112D03*
G54D25*
G01X14883Y254000D02*
X25400D01*
G01X14883Y279400D02*
X25400D01*
G01X14883Y330200D02*
X25400D01*
G01X14883Y381000D02*
X25400D01*
G01Y243483D02*
Y254000D01*
G01D02*
X35917D01*
G01X25400Y279400D02*
Y289917D01*
G01Y279400D02*
X35917D01*
G01X25400Y330200D02*
Y340717D01*
G01Y330200D02*
X35917D01*
G01X25400Y370483D02*
Y381000D01*
G01D02*
Y391517D01*
G01Y381000D02*
X35917D01*
G01X243563Y23712D02*
X254110D01*
G01Y13165D02*
Y23712D01*
G01D02*
Y34259D01*
G01Y23712D02*
X264657D01*
G01X335260Y606555D02*
Y618572D01*
G01D02*
Y630589D01*
G01X328743Y618572D02*
X335260D01*
G01X338260Y623572D02*
Y630589D01*
G01Y623572D02*
X346777D01*
G01X335260Y649055D02*
Y664072D01*
G01D02*
Y679089D01*
G01X327743Y664072D02*
X335260D01*
G01D02*
X342777D01*
G01X418660Y623572D02*
Y630589D01*
G01X410143Y623572D02*
X418660D01*
G01X414143Y664072D02*
X421660D01*
G01Y606555D02*
Y618572D01*
G01D02*
Y630589D01*
G01Y618572D02*
X428177D01*
G01X421660Y649055D02*
Y664072D01*
G01D02*
Y679089D01*
G01Y664072D02*
X429177D01*
G01X497483Y421600D02*
X508000D01*
G01Y411083D02*
Y421600D01*
G01D02*
Y432117D01*
G01Y421600D02*
X518517D01*
G54D16*
X335260Y618572D03*
X421660D03*
G54D26*
G01X92850Y608250D02*
Y618980D01*
X105710Y631840D01*
X225000D01*
X232120Y638960D01*
Y651050D01*
X236580Y655510D01*
X253930D01*
G01X256220D02*
X253930D01*
G54D17*
X338260Y623572D03*
X418660D03*
G54D27*
G01X133800Y56000D02*
X173900D01*
X174200Y55700D01*
G54D18*
X335260Y664072D03*
X421660D03*
G54D28*
G01X288290Y371210D02*
X287000Y372500D01*
X285500D01*
G01X371794Y207500D02*
X373000Y208706D01*
Y210500D01*
X379000Y216500D01*
Y275500D01*
X362000Y292500D01*
Y383000D01*
X355000Y390000D01*
X291152D01*
X290267Y389115D01*
G01Y392385D02*
X291152Y391500D01*
X355219D01*
X363500Y383219D01*
Y293500D01*
X380500Y276500D01*
Y215500D01*
X374500Y209500D01*
Y208064D01*
X375064Y207500D01*
G01X326500Y314500D02*
X325000D01*
G01X332000Y315000D02*
X330500Y313500D01*
X327500D01*
X326500Y314500D01*
G01X338000Y343500D02*
X334000D01*
X333500Y343000D01*
Y336500D01*
G54D19*
X344460Y632072D03*
X412460D03*
G54D29*
G01X401800Y63226D02*
Y58586D01*
X397599Y54385D01*
X349474D01*
X340752Y63107D01*
X243800D01*
X235893Y55200D01*
Y31096D01*
X213802Y9005D01*
X123764D01*
X86172Y46597D01*
X58544D01*
X45349Y33402D01*
X15547D01*
X7258Y41691D01*
Y293697D01*
X11569Y298008D01*
Y312051D01*
X18288Y318770D01*
X18796D01*
G01X97282Y295656D02*
X96774Y295148D01*
X81280D01*
X78994Y297434D01*
X45566D01*
X42200Y300800D01*
Y313200D01*
X38600Y316800D01*
X18604D01*
X12954Y311150D01*
Y297434D01*
X8643Y293123D01*
Y42265D01*
X16121Y34787D01*
X44742D01*
X57960Y48005D01*
X86757D01*
X124348Y10414D01*
X213218D01*
X234484Y31680D01*
Y55784D01*
X243216Y64516D01*
X341336D01*
X350058Y55794D01*
X395094D01*
X396600Y57300D01*
G01X410296Y58178D02*
X403678D01*
X398500Y53000D01*
X348900D01*
X340178Y61722D01*
X244374D01*
X237278Y54626D01*
Y30522D01*
X214376Y7620D01*
X123190D01*
X85598Y45212D01*
X59118D01*
X45923Y32017D01*
X14973D01*
X5873Y41117D01*
Y295073D01*
X8308Y297508D01*
G01X13462Y292608D02*
Y292354D01*
X10028Y288920D01*
Y42839D01*
X16695Y36172D01*
X44168D01*
X57386Y49390D01*
X87331D01*
X124922Y11799D01*
X212644D01*
X233099Y32254D01*
Y56358D01*
X242642Y65901D01*
X341910D01*
X350632Y57179D01*
X385853D01*
X391100Y62426D01*
G01X353674Y64400D02*
X348200D01*
X343766Y68834D01*
X241426D01*
X230166Y57574D01*
Y33470D01*
X211428Y14732D01*
X126138D01*
X88548Y52322D01*
X56170D01*
X42790Y38942D01*
X17843D01*
X12798Y43987D01*
Y284070D01*
X21336Y292608D01*
X34544D01*
X36322Y294386D01*
X77731D01*
X80017Y292100D01*
X95578D01*
X96086Y291592D01*
X104394D01*
X105156Y292354D01*
G01X373074Y62500D02*
Y62100D01*
X370274Y59300D01*
X350667D01*
X342542Y67425D01*
X242010D01*
X231575Y56990D01*
Y32886D01*
X212012Y13323D01*
X125554D01*
X87963Y50914D01*
X56754D01*
X43397Y37557D01*
X17269D01*
X11413Y43413D01*
Y286749D01*
X13462Y288798D01*
G01X16764Y269494D02*
X17780D01*
X19812Y267462D01*
X38230D01*
X50676Y279908D01*
X88646D01*
X92432Y276122D01*
X98984D01*
G01X17018Y265938D02*
X38862D01*
X51308Y278384D01*
X88138D01*
X92456Y274066D01*
X97536D01*
X99060Y272542D01*
G01X41200Y229500D02*
Y227439D01*
X30000Y216239D01*
Y191861D01*
X40400Y181461D01*
Y137239D01*
X37400Y134239D01*
Y60500D01*
X39900Y58000D01*
X178100D01*
X182900Y62800D01*
Y69300D01*
X187600Y74000D01*
Y97600D01*
X188200Y98200D01*
G01X44600Y229500D02*
Y229000D01*
X31300Y215700D01*
Y192400D01*
X41700Y182000D01*
Y136700D01*
X38700Y133700D01*
Y61500D01*
X40800Y59400D01*
X177520D01*
X181500Y63380D01*
Y69880D01*
X186200Y74580D01*
Y101000D01*
X186500Y101300D01*
G01X61100Y196500D02*
X59000Y198600D01*
X36100D01*
X34000Y196500D01*
G01X22606Y241046D02*
X42672D01*
X45835Y237883D01*
X75622D01*
X78162Y240423D01*
X94373D01*
X97028Y243078D01*
X122028D01*
X123985Y241121D01*
G01X44200Y47400D02*
X47000D01*
X56100Y56500D01*
X128300D01*
X131500Y53300D01*
G01X489800Y38200D02*
X474500Y53500D01*
X421300D01*
X403900Y70900D01*
X240600D01*
X228900Y59200D01*
Y35100D01*
X210500Y16700D01*
X127100D01*
X89600Y54200D01*
X56100D01*
X44450Y42550D01*
X41600D01*
G01X42500Y63500D02*
X45300Y60700D01*
X165500D01*
X183000Y78200D01*
Y102400D01*
X176300Y109100D01*
G01X42200Y69100D02*
X43300D01*
X50500Y61900D01*
X164437D01*
X181400Y78863D01*
Y99900D01*
X173000Y108300D01*
G01X42450Y75550D02*
X54801Y63199D01*
X163898D01*
X163899Y63200D01*
X163900D01*
X172400Y71700D01*
Y103500D01*
X169400Y106500D01*
G01X42400Y82700D02*
X47700Y77400D01*
Y72799D01*
X55900Y64599D01*
X163318D01*
X163319Y64600D01*
X163320D01*
X171000Y72280D01*
Y100200D01*
X168600Y102600D01*
G01X57658Y193294D02*
X42164D01*
G01X48768Y229108D02*
Y223668D01*
X34800Y209700D01*
Y204700D01*
G01X43434Y207010D02*
X46228Y204216D01*
X62992D01*
X69850Y197358D01*
X70104D01*
G01X60960Y201676D02*
X34800D01*
G01X43180Y211836D02*
X45212Y209804D01*
X51054D01*
X53086Y207772D01*
X73406D01*
X77470Y203708D01*
G01X40300Y209200D02*
Y212004D01*
X56642Y228346D01*
X83318D01*
X85096Y230124D01*
X102986D01*
X103983Y231121D01*
G01X34800Y213500D02*
X36400D01*
X46736Y223836D01*
Y230886D01*
X49276Y233426D01*
X77470D01*
X80010Y235966D01*
X95759D01*
X98415Y238622D01*
X101463D01*
G01X43434Y236498D02*
X76196D01*
X78736Y239038D01*
X94927D01*
X97824Y241935D01*
X109347D01*
X112268Y239014D01*
X126877D01*
X128984Y241121D01*
G01X45720Y233426D02*
X47244Y234950D01*
X76838D01*
X79378Y237490D01*
X94996D01*
X98298Y240792D01*
X108204D01*
X111252Y237744D01*
X122363D01*
X123985Y236122D01*
G01X44704Y242824D02*
X60198D01*
X63754Y239268D01*
X75048D01*
X77588Y241808D01*
X93981D01*
X96521Y244348D01*
X122211D01*
X123985Y246122D01*
G01X118872Y246634D02*
X116839D01*
X114807Y248666D01*
X87630D01*
X82296Y243332D01*
X76956D01*
X74416Y240792D01*
X64516D01*
X59182Y246126D01*
X43942D01*
G01X34544Y262890D02*
X39116D01*
X53086Y276860D01*
X87884D01*
X94488Y270256D01*
X103116D01*
X103983Y271123D01*
G01X35814Y285242D02*
X40386D01*
X45006Y289862D01*
X75069D01*
X77911Y287020D01*
X94235D01*
X94537Y287322D01*
X96471D01*
X98551Y285242D01*
X114554D01*
G01X38100Y287782D02*
X40640D01*
X44244Y291386D01*
X75701D01*
X78543Y288544D01*
X93800D01*
X93963Y288707D01*
X97045D01*
X97970Y287782D01*
X110998D01*
G01X37846Y313436D02*
Y301254D01*
X43329Y295771D01*
X78305D01*
X80591Y293485D01*
X96152D01*
X96315Y293322D01*
X100790D01*
X101854Y294386D01*
G01X108204Y290322D02*
X107442Y289560D01*
X104649D01*
X104117Y290092D01*
X79151D01*
X76333Y292910D01*
X43612D01*
X42548Y291846D01*
X38862D01*
G01X46736Y207010D02*
X50800D01*
X52070Y205740D01*
X65024D01*
X70612Y200152D01*
X80010D01*
X82550Y202692D01*
X99568D01*
X105918Y209042D01*
X124714D01*
X131503Y215831D01*
Y218625D01*
G01X53848Y215646D02*
X54864D01*
X64516Y225298D01*
X84582D01*
X86360Y227076D01*
X98030D01*
X98984Y226122D01*
G01X54356Y212090D02*
X63566Y221300D01*
X80400D01*
X83514Y218186D01*
X104648D01*
X106128Y219666D01*
Y223266D01*
X108984Y226122D01*
G01X48768Y216408D02*
Y214376D01*
X53594Y209550D01*
X81026D01*
X85598Y214122D01*
X108966D01*
X110236Y215392D01*
X116586D01*
X121412Y220218D01*
Y231130D01*
X123454Y233172D01*
X126933D01*
X128984Y231121D01*
G01X52451Y219329D02*
X56391D01*
X63884Y226822D01*
X83950D01*
X85728Y228600D01*
X101505D01*
X103983Y226122D01*
G01X48768Y229108D02*
X49530Y229870D01*
X82804D01*
X84582Y231648D01*
X100584D01*
X102108Y233172D01*
X104902D01*
X108966Y229108D01*
X110490D01*
X113476Y226122D01*
X113983D01*
G01X123985Y266122D02*
X121629Y268478D01*
X80518D01*
X78740Y270256D01*
X73914D01*
X69088Y275082D01*
X56896D01*
X46736Y264922D01*
G01X108984Y221121D02*
Y218205D01*
X107235Y216456D01*
X62532D01*
X58420Y212344D01*
G01X66248Y248282D02*
X68530Y246000D01*
X78800D01*
X88922Y256122D01*
X108984D01*
G01X86360Y194564D02*
X76200D01*
X73914Y192278D01*
G01X77978Y197612D02*
X80264D01*
X83566Y200914D01*
X130048D01*
X138684Y209550D01*
G01X71374Y243586D02*
X72388Y244600D01*
X80300D01*
X88938Y253238D01*
X116869D01*
X118984Y251123D01*
G01X113983Y256122D02*
X111533Y258572D01*
X71120D01*
X69596Y260096D01*
G01X113983Y261123D02*
X89800D01*
X86074Y264849D01*
X74749D01*
X69596Y270002D01*
Y270510D01*
G01X73660Y287528D02*
X76200Y284988D01*
X95504D01*
G01X103983Y236122D02*
X102011D01*
X99823Y233934D01*
X83566D01*
X82296Y232664D01*
G01X133985Y241121D02*
X126186Y248920D01*
X116674D01*
X114642Y250952D01*
X89916D01*
G01X99060Y280670D02*
X99822Y281432D01*
X113674D01*
X118984Y276122D01*
G01X123985D02*
X117151Y282956D01*
X96774D01*
X94234Y280416D01*
G01X125900Y170500D02*
X127000Y171600D01*
Y193802D01*
X148984Y215786D01*
Y216122D01*
G01X124460Y178054D02*
X124114Y178400D01*
Y193202D01*
X126492Y195580D01*
Y197612D01*
G01X127000Y223774D02*
X131332D01*
X133110Y221996D01*
X133858D01*
G01X118984Y261123D02*
X121027Y259080D01*
X136144D01*
G01X138492Y255255D02*
X138684D01*
Y255270D01*
X137832Y256122D01*
X118984D01*
G01X140462Y390652D02*
X136144Y386334D01*
X127857D01*
X122323Y391868D01*
G01X194200Y107100D02*
X195400Y105900D01*
Y84775D01*
X191800Y81175D01*
Y61775D01*
X183525Y53500D01*
X135700D01*
X134600Y52400D01*
G01X199000Y106700D02*
X197400Y105100D01*
Y83946D01*
X193800Y80346D01*
Y60946D01*
X184354Y51500D01*
X137700D01*
X136600Y50400D01*
G01X199800Y99100D02*
X199200Y98500D01*
Y83200D01*
X195600Y79600D01*
Y60200D01*
X185100Y49700D01*
X140000D01*
X138700Y48400D01*
G01X138984Y226122D02*
X140188Y224918D01*
X141604D01*
X142240Y224282D01*
G01X128778Y227838D02*
X129541Y228601D01*
X141506D01*
X142001Y228106D01*
G01X128905Y251333D02*
X136652Y243586D01*
Y238454D01*
X138984Y236122D01*
G01X204500Y90900D02*
X203100Y89500D01*
Y60100D01*
X188700Y45700D01*
X144352D01*
X143000Y44348D01*
G01X203700Y95700D02*
X201300Y93300D01*
Y60846D01*
X187954Y47500D01*
X141600D01*
X139972Y45872D01*
G01X151800Y21400D02*
X164100D01*
X170500Y27800D01*
Y37400D01*
X173600Y40500D01*
X174100D01*
G01X175500Y21200D02*
X173600Y23100D01*
Y37500D01*
G01X177900Y39400D02*
Y36900D01*
X192200Y22600D01*
Y21300D01*
G01X206700Y21400D02*
X196400D01*
X181000Y36800D01*
G01X191400Y89200D02*
Y105100D01*
X188325Y108175D01*
Y127787D01*
X184912Y131200D01*
Y137922D01*
X195326Y148336D01*
Y151638D01*
G01X191700Y225600D02*
X195700D01*
X198628Y228528D01*
Y286004D01*
X196850Y287782D01*
Y306450D01*
X196400Y306900D01*
G01X337840Y135400D02*
X314200D01*
X264144Y85344D01*
X253746D01*
G01X358240Y135400D02*
X355540Y138100D01*
X313741D01*
X266065Y90424D01*
X255270D01*
X253746Y88900D01*
G01X361949Y79052D02*
Y81279D01*
X361950Y81280D01*
M02*
