G04 ================== begin FILE IDENTIFICATION RECORD ==================*
G04 Layout Name:  U:/Project/48DMVQAD1.SGB/BRD/48DMVQAD1_SGB-20250729a4.brd*
G04 Film Name:    pmt*
G04 File Format:  Gerber RS274X*
G04 File Origin:  Cadence Allegro 17.4-S029*
G04 Origin Date:  Tue Jul 29 17:18:16 2025*
G04 *
G04 Layer:  DRAWING FORMAT/TITLE-DATA_PMT*
G04 Layer:  DRAWING FORMAT/TITLE_BLOCK*
G04 Layer:  DRAWING FORMAT/OUTLINE*
G04 Layer:  MANUFACTURING/PHOTOPLOT_OUTLINE*
G04 Layer:  PACKAGE GEOMETRY/PASTEMASK_TOP*
G04 Layer:  PIN/PASTEMASK_TOP*
G04 Layer:  VIA CLASS/PASTEMASK_TOP*
G04 *
G04 Offset:    (0.0000 0.0000)*
G04 Mirror:    No*
G04 Mode:      Positive*
G04 Rotation:  0*
G04 FullContactRelief:  No*
G04 UndefLineWidth:     0.1270*
G04 ================== end FILE IDENTIFICATION RECORD ====================*
%FSLAX44Y44*MOMM*%
%IR0*IPPOS*OFA0.00000B0.00000*MIA0B0*SFA1.00000B1.00000*%
%AMMACRO34*
4,1,15,-.0051,.2751,
.2751,.2751,
.2751,-.2751,
-.2751,-.2751,
-.2751,.0749,
-.1549,.0749,
-.128856,.077214,
-.103609,.084014,
-.079927,.095096,
-.058529,.110122,
-.040065,.128635,
-.025096,.150073,
-.014078,.173785,
-.007344,.19905,
-.0051,.225,
-.0051,.2751,
0.0*
%
%ADD34MACRO34*%
%ADD25R,.6X1.15*%
%ADD50R,1.3X.45*%
%AMMACRO35*
4,1,15,-.0051,-.2751,
.2751,-.2751,
.2751,.2751,
-.2751,.2751,
-.2751,-.0749,
-.1549,-.0749,
-.128856,-.077214,
-.103609,-.084014,
-.079927,-.095096,
-.058529,-.110122,
-.040065,-.128635,
-.025096,-.150073,
-.014078,-.173785,
-.007344,-.19905,
-.0051,-.225,
-.0051,-.2751,
0.0*
%
%ADD35MACRO35*%
%ADD45R,.4X1.55*%
%ADD29R,1.55X.4*%
%ADD20R,.6X1.55*%
%ADD53R,.95X2.3*%
%ADD16C,.5*%
%ADD30R,.85X1.7*%
%ADD24C,.25*%
%ADD41R,1.7X.85*%
%ADD43C,.325*%
%ADD19C,.94*%
%AMMACRO11*
21,1,.8,.8,0.0,0.0,45.*%
%ADD11MACRO11*%
%ADD31R,.8X.8*%
%ADD51R,.45X.45*%
%ADD10R,.3048X.3048*%
%ADD14R,.8999X1.524*%
%ADD13R,.5588X.5588*%
%ADD12R,1.524X.8999*%
%ADD36O,1.X2.1*%
%ADD37O,1.4X1.1*%
%ADD48R,3.11X1.*%
%ADD56R,1.3X1.2*%
%ADD38O,1.2X2.7*%
%ADD26R,1.4X1.2*%
%AMMACRO33*
4,1,15,.0051,-.2751,
-.2751,-.2751,
-.2751,.2751,
.2751,.2751,
.2751,-.0749,
.1549,-.0749,
.128856,-.077214,
.103609,-.084014,
.079927,-.095096,
.058529,-.110122,
.040065,-.128635,
.025096,-.150073,
.014078,-.173785,
.007344,-.19905,
.0051,-.225,
.0051,-.2751,
0.0*
%
%ADD33MACRO33*%
%ADD17R,1.2X1.8*%
%ADD47R,.21X.32*%
%AMMACRO32*
4,1,15,.0051,.2751,
-.2751,.2751,
-.2751,-.2751,
.2751,-.2751,
.2751,.0749,
.1549,.0749,
.128856,.077214,
.103609,.084014,
.079927,.095096,
.058529,.110122,
.040065,.128635,
.025096,.150073,
.014078,.173785,
.007344,.19905,
.0051,.225,
.0051,.2751,
0.0*
%
%ADD32MACRO32*%
%ADD46R,.32X.21*%
%ADD52R,.25X.3*%
%ADD55R,.3X.25*%
%ADD49R,.3X.53*%
%ADD15R,.62X.3*%
%ADD18R,1.6X5.7*%
%ADD23C,1.51*%
%ADD42R,.2X.675*%
%ADD28R,.675X.2*%
%ADD44R,.4X.675*%
%ADD39R,.56X.65*%
%ADD40R,.27X.95*%
%ADD27R,.675X.4*%
%ADD22R,.65X.56*%
%ADD21R,.95X.75*%
%ADD54R,.381X.3048*%
G75*
%LPD*%
G75*
G36*
G01X74450Y418400D02*
Y429400D01*
X86550D01*
Y418400D01*
X74450D01*
G37*
G36*
G01Y431400D02*
Y442400D01*
X86550D01*
Y431400D01*
X74450D01*
G37*
G54D10*
X35260Y609400D03*
X35340Y617700D03*
X30260D03*
X46400Y586940D03*
Y581860D03*
Y598740D03*
Y593660D03*
X46500Y603960D03*
Y609040D03*
X40340Y609400D03*
X46366Y625992D03*
X41286D03*
X46312Y633412D03*
X41232D03*
X57210Y427660D03*
X57200Y439060D03*
X57210Y432740D03*
X57200Y444140D03*
X55800Y457940D03*
Y452860D03*
X55900Y496940D03*
Y491860D03*
X66660Y452300D03*
X66760Y458400D03*
X61300Y452860D03*
Y457940D03*
X66140Y491800D03*
X61060D03*
X71740Y452300D03*
X71840Y458400D03*
X81026Y499364D03*
X89460Y451600D03*
X86106Y499364D03*
X91694D03*
X103400Y428260D03*
Y433340D03*
X94540Y451600D03*
X96774Y499364D03*
X114300D03*
X119380D03*
X124714D03*
X131572Y65786D03*
X136652D03*
X129794Y499364D03*
X148590Y65786D03*
X143400Y65760D03*
X148590Y70866D03*
X143400Y70840D03*
X147828Y499364D03*
X154700Y65660D03*
X160100Y65560D03*
X154700Y70740D03*
X160100Y70640D03*
X152908Y499364D03*
X163322D03*
X158242D03*
X180594D03*
X185674D03*
X196088D03*
X191008D03*
X216306Y29780D03*
X211226D03*
X216560Y36130D03*
X211480D03*
X216814Y42226D03*
X211734D03*
X222060Y161000D03*
Y166600D03*
X219900Y237740D03*
Y232660D03*
Y248440D03*
Y243360D03*
X220740Y378400D03*
X215660D03*
X220740Y372700D03*
X215660D03*
X220740Y389500D03*
X215660D03*
X220740Y384100D03*
X215660D03*
X220740Y394600D03*
X215660D03*
X220740Y400200D03*
X215660D03*
X227140Y161000D03*
Y166600D03*
X224700Y213440D03*
Y208360D03*
Y223740D03*
Y218660D03*
X230000Y249060D03*
Y254140D03*
Y260560D03*
Y265640D03*
X230940Y378400D03*
X225860D03*
X230940Y372700D03*
X225860D03*
X230940Y389500D03*
X225860D03*
X230940Y384100D03*
X225860D03*
X230940Y400200D03*
X225860D03*
X230940Y394600D03*
X225860D03*
X230400Y531960D03*
Y537040D03*
X230638Y577264D03*
X231902Y600456D03*
Y595376D03*
X245800Y156460D03*
Y161540D03*
X235100Y249060D03*
Y254140D03*
X238500Y260560D03*
Y265640D03*
X235718Y577264D03*
X234760Y625500D03*
X239840D03*
X251500Y156460D03*
Y161540D03*
X257048Y608330D03*
Y613410D03*
X269140Y268500D03*
X264060D03*
X277000Y125018D03*
X277400Y189740D03*
Y184660D03*
X280260Y195800D03*
X270764Y608330D03*
X275844D03*
X287654Y130480D03*
X282080Y125018D03*
X287402D03*
X292482D03*
X285340Y195800D03*
X286004Y565658D03*
Y570738D03*
X286500Y596160D03*
Y601240D03*
X292000Y596160D03*
Y601240D03*
X302894Y125018D03*
X297814D03*
X302894Y130480D03*
X297814D03*
X303022Y135636D03*
X297942D03*
X292734Y130480D03*
X294134Y261630D03*
Y266710D03*
X313690Y145136D03*
X313436Y155448D03*
X313690Y150216D03*
X307086Y151558D03*
Y156638D03*
X313436Y160528D03*
X307890Y261630D03*
X313296D03*
X307890Y266710D03*
X313296D03*
X309860Y437800D03*
X314940D03*
X326390Y94996D03*
Y89916D03*
X319786Y108966D03*
Y114046D03*
X324358Y136398D03*
X316400Y134960D03*
X324358Y131318D03*
X318770Y145136D03*
X324358Y141478D03*
X316400Y140040D03*
X324358Y146558D03*
Y156718D03*
X318770Y150216D03*
Y155448D03*
X324358Y151638D03*
X318770Y160528D03*
X322490Y187594D03*
X327570D03*
X318384Y261630D03*
Y266710D03*
X320360Y437700D03*
X325440D03*
X327152Y496316D03*
Y506730D03*
Y501396D03*
Y512064D03*
X325120Y529844D03*
Y534924D03*
Y545846D03*
Y540766D03*
X323560Y573500D03*
X317460Y586600D03*
X322540D03*
X317460Y581500D03*
X322540D03*
X329438Y136398D03*
Y131318D03*
Y141478D03*
Y146558D03*
Y156718D03*
Y151638D03*
X337440Y437700D03*
X332360D03*
X338328Y493522D03*
Y498602D03*
X332486Y496316D03*
X332232Y506730D03*
X332486Y501396D03*
X332232Y512064D03*
X330708Y535432D03*
Y540512D03*
X328640Y573500D03*
X334560D03*
X341630Y96520D03*
Y101600D03*
X348460Y120396D03*
X342800Y113760D03*
Y118840D03*
X348460Y114824D03*
X347726Y224536D03*
Y219456D03*
X351160Y412200D03*
Y417300D03*
X349240Y437800D03*
X344160D03*
X350520Y498602D03*
X345440D03*
X345862Y556833D03*
Y561913D03*
X339640Y573500D03*
X349300Y580110D03*
Y585190D03*
X353060Y86700D03*
X358140D03*
X353808Y99614D03*
X358888D03*
X358902Y104902D03*
Y109982D03*
X353540Y120396D03*
Y114824D03*
X358902Y115746D03*
Y120826D03*
X352806Y224536D03*
Y219456D03*
X358540Y265500D03*
X353460D03*
X356240Y412200D03*
Y417300D03*
X362204Y491744D03*
Y496824D03*
X357124Y491744D03*
Y496824D03*
X351697Y556777D03*
X357290Y556833D03*
X351697Y561857D03*
X357290Y561913D03*
X357000Y580090D03*
Y575010D03*
X362400Y580090D03*
Y575010D03*
X369194Y94410D03*
Y99490D03*
X363982Y94408D03*
Y99488D03*
X369316Y104822D03*
Y109902D03*
X364046Y104840D03*
Y109920D03*
X374462Y104822D03*
Y109902D03*
Y115744D03*
Y120824D03*
X364046Y115744D03*
Y120824D03*
X369316Y115744D03*
Y120824D03*
X365522Y435970D03*
Y430890D03*
X371364Y434192D03*
Y429112D03*
X374396Y491744D03*
Y496824D03*
X369062Y491744D03*
Y496824D03*
X366490Y557341D03*
X372345Y557285D03*
X366490Y562421D03*
X372345Y562365D03*
X367900Y580090D03*
Y575010D03*
X384222Y94916D03*
Y99996D03*
X379564Y105076D03*
Y110156D03*
X385004Y105140D03*
Y110220D03*
X385050Y115744D03*
Y120824D03*
X379564Y115744D03*
Y120824D03*
X377884Y427872D03*
X383100Y427860D03*
X377884Y432952D03*
X383100Y432940D03*
X377698Y557276D03*
Y562356D03*
X375650Y580140D03*
Y575060D03*
X385160Y591850D03*
X393000Y52460D03*
Y57540D03*
X389338Y94814D03*
Y99894D03*
X390274Y105330D03*
Y110410D03*
X395536Y105348D03*
Y110428D03*
X395518Y115998D03*
Y121078D03*
X390224Y115744D03*
Y120824D03*
X386334Y206248D03*
Y201168D03*
X388600Y427960D03*
Y433040D03*
X392430Y509064D03*
X387350D03*
X392430Y503730D03*
X387350D03*
X392176Y516890D03*
X387096D03*
X392176Y522224D03*
X387096D03*
X392176Y529336D03*
X387096D03*
X392176Y534416D03*
X387096D03*
Y540512D03*
X392176D03*
X387096Y546100D03*
X392176D03*
X390240Y591850D03*
X404562Y88210D03*
Y93290D03*
X405892Y110062D03*
X400812D03*
X405892Y120982D03*
X400812D03*
X405892Y115320D03*
X400812D03*
X419606Y100534D03*
Y105614D03*
X411318Y206232D03*
Y201152D03*
X416640Y206232D03*
Y201152D03*
X431798Y160196D03*
X426718D03*
X431798Y170670D03*
X426718D03*
X431798Y165419D03*
X426718D03*
X431800Y175768D03*
X426720D03*
X432908Y182316D03*
X432854Y192528D03*
X432908Y187396D03*
X432854Y197608D03*
X431400Y241840D03*
Y236760D03*
X424602Y576878D03*
X429936D03*
X424602Y581958D03*
X429936D03*
X433561Y135050D03*
Y140130D03*
X438120Y160116D03*
X443200D03*
X443290Y165331D03*
X438210D03*
X443290Y170633D03*
X438210D03*
X443544Y175935D03*
X438464D03*
X436500Y241840D03*
Y236760D03*
X441628Y236846D03*
Y241926D03*
X434500Y606060D03*
Y611140D03*
X442500Y606060D03*
Y611140D03*
X434500Y617060D03*
Y622140D03*
X442500Y616960D03*
Y622040D03*
X453898Y181356D03*
X448818D03*
X453668Y186800D03*
X448588D03*
X446888Y583460D03*
X451968D03*
X457860Y169100D03*
X462940D03*
X457860Y164000D03*
X462940D03*
X459200Y176360D03*
Y181440D03*
Y191740D03*
Y186660D03*
X485540Y571700D03*
X480460D03*
G54D11*
X49083Y116857D03*
Y137857D03*
Y158857D03*
Y179857D03*
Y200857D03*
Y221857D03*
Y242857D03*
Y263857D03*
Y284857D03*
Y305857D03*
Y326857D03*
Y347857D03*
Y368857D03*
X60397Y105543D03*
Y126543D03*
Y147543D03*
Y168543D03*
Y189543D03*
Y210543D03*
Y231543D03*
Y252543D03*
Y273543D03*
Y294543D03*
Y315543D03*
Y336543D03*
Y357543D03*
X68043Y119057D03*
X69083Y137857D03*
Y158857D03*
Y179857D03*
Y200857D03*
Y221857D03*
Y242857D03*
Y263857D03*
Y284857D03*
Y305857D03*
Y326857D03*
Y347857D03*
Y368857D03*
X79357Y107743D03*
X80397Y126543D03*
Y147543D03*
Y168543D03*
Y189543D03*
Y210543D03*
Y231543D03*
Y252543D03*
Y273543D03*
Y294543D03*
Y315543D03*
Y336543D03*
Y357543D03*
X89083Y116857D03*
Y137857D03*
Y158857D03*
Y179857D03*
Y200857D03*
Y221857D03*
Y242857D03*
Y263857D03*
Y284857D03*
Y305857D03*
Y326857D03*
Y347857D03*
Y368857D03*
X100397Y105543D03*
X109083Y116857D03*
X100397Y126543D03*
X109083Y137857D03*
X100397Y147543D03*
X109083Y158857D03*
X100397Y168543D03*
X109083Y179857D03*
X100397Y189543D03*
X109083Y200857D03*
X100397Y210543D03*
X109083Y221857D03*
X100397Y231543D03*
X109083Y242857D03*
X100397Y252543D03*
X109083Y263857D03*
X100397Y273543D03*
X109083Y284857D03*
X100397Y294543D03*
X109083Y305857D03*
X100397Y315543D03*
X109083Y326857D03*
X100397Y336543D03*
X109083Y347857D03*
X100397Y357543D03*
X109083Y368857D03*
X120397Y105543D03*
Y126543D03*
Y147543D03*
Y168543D03*
Y189543D03*
Y210543D03*
Y231543D03*
Y252543D03*
Y273543D03*
Y294543D03*
Y315543D03*
Y336543D03*
Y357543D03*
X129083Y116857D03*
Y137857D03*
Y158857D03*
Y179857D03*
Y200857D03*
Y221857D03*
Y242857D03*
Y263857D03*
Y284857D03*
Y305857D03*
Y326857D03*
Y347857D03*
Y368857D03*
X140397Y105543D03*
Y126543D03*
Y147543D03*
Y168543D03*
Y189543D03*
Y210543D03*
Y231543D03*
Y252543D03*
Y273543D03*
Y294543D03*
Y315543D03*
Y336543D03*
Y357543D03*
X149083Y116857D03*
Y137857D03*
Y158857D03*
Y179857D03*
Y200857D03*
Y221857D03*
Y242857D03*
Y263857D03*
Y284857D03*
Y305857D03*
Y326857D03*
Y347857D03*
Y368857D03*
X160397Y105543D03*
Y126543D03*
Y147543D03*
Y168543D03*
Y189543D03*
Y210543D03*
Y231543D03*
Y252543D03*
Y273543D03*
Y294543D03*
Y315543D03*
Y336543D03*
Y357543D03*
X169083Y116857D03*
Y137857D03*
Y158857D03*
Y179857D03*
Y200857D03*
Y221857D03*
Y242857D03*
Y263857D03*
Y284857D03*
Y305857D03*
Y326857D03*
Y347857D03*
Y368857D03*
X180397Y105543D03*
X189083Y116857D03*
X180397Y126543D03*
X189083Y137857D03*
X180397Y147543D03*
X189083Y158857D03*
X180397Y168543D03*
X189083Y179857D03*
X180397Y189543D03*
X189083Y200857D03*
X180397Y210543D03*
X189083Y221857D03*
X180397Y231543D03*
X189083Y242857D03*
X180397Y252543D03*
X189083Y263857D03*
X180397Y273543D03*
X189083Y284857D03*
X180397Y294543D03*
X189083Y305857D03*
X180397Y315543D03*
X189083Y326857D03*
X180397Y336543D03*
X189083Y347857D03*
X180397Y357543D03*
X189083Y368857D03*
X200397Y105543D03*
Y126543D03*
Y147543D03*
Y168543D03*
Y189543D03*
Y210543D03*
Y231543D03*
Y252543D03*
Y273543D03*
Y294543D03*
Y315543D03*
Y336543D03*
Y357543D03*
G54D20*
X128509Y50980D03*
X138509D03*
X148509D03*
X158509D03*
G54D21*
X166800Y465000D03*
Y480000D03*
G54D12*
X50700Y401580D03*
Y418220D03*
G54D30*
X307988Y175260D03*
X315100Y208280D03*
X325488Y175260D03*
X332600Y208280D03*
G54D22*
X232200Y547300D03*
Y556900D03*
X286138Y156212D03*
Y165812D03*
X286122Y174626D03*
Y184226D03*
X293504Y192532D03*
Y202132D03*
Y210946D03*
Y220546D03*
X295980Y156212D03*
Y165812D03*
X295996Y174626D03*
Y184226D03*
X303664Y192532D03*
Y202132D03*
Y210946D03*
Y220546D03*
X360444Y231102D03*
Y240702D03*
X370796Y231102D03*
Y240702D03*
X380290Y220592D03*
Y230192D03*
X380194Y238528D03*
Y248128D03*
X393377Y231409D03*
Y241009D03*
X392500Y558900D03*
Y568500D03*
X403712Y231409D03*
Y241009D03*
X450700Y156200D03*
Y165800D03*
G54D40*
X349710Y612322D03*
X359710D03*
X354710D03*
X362210Y625322D03*
X357210D03*
X352210D03*
X369710Y612322D03*
X364710D03*
X372210Y625322D03*
X367210D03*
X384710Y612322D03*
X379710D03*
X374710D03*
X382210Y625322D03*
X377210D03*
X394710Y612322D03*
X389710D03*
X397210Y625322D03*
X392210D03*
X387210D03*
X404710Y612322D03*
X399710D03*
X407210Y625322D03*
X402210D03*
G54D13*
X45900Y433774D03*
Y443426D03*
X78700Y77574D03*
Y87226D03*
X86900Y77674D03*
Y87326D03*
X104800Y77774D03*
X95500D03*
X104800Y87426D03*
X95500D03*
X113400Y77574D03*
Y87226D03*
X154900Y466074D03*
Y475726D03*
X172100Y79774D03*
Y89426D03*
X180800Y79874D03*
Y89526D03*
X190300Y79874D03*
Y89526D03*
X199500Y79874D03*
Y89526D03*
X208900Y79874D03*
Y89526D03*
X218500Y79574D03*
Y89226D03*
X287274Y654900D03*
X297736Y640468D03*
X296926Y654900D03*
X316628Y194281D03*
X310388Y511556D03*
X307388Y640468D03*
X326280Y194281D03*
X320040Y493268D03*
Y511556D03*
Y502920D03*
X331574Y463900D03*
X341226D03*
X362674Y468200D03*
X372326D03*
X379730Y202438D03*
Y212090D03*
X402372Y101706D03*
X412024D03*
X412670Y110364D03*
Y120016D03*
X433256Y646176D03*
X439598Y182768D03*
Y192420D03*
X442908Y646176D03*
X461944Y119996D03*
X461872Y128256D03*
Y136606D03*
X471596Y119996D03*
X471524Y128256D03*
Y136606D03*
G54D31*
X318500Y656100D03*
Y672100D03*
G54D23*
X254110Y23712D03*
Y49112D03*
X279510Y23712D03*
Y49112D03*
X304910Y23712D03*
Y49112D03*
G54D32*
X326458Y101700D03*
G54D14*
X68880Y401200D03*
X85520D03*
G54D41*
X365760Y203848D03*
Y221348D03*
X398780Y204102D03*
Y221602D03*
G54D50*
X406400Y584454D03*
G54D42*
X357284Y588969D03*
X362284D03*
Y597719D03*
X357284D03*
X372284Y588969D03*
Y597719D03*
X377284Y588969D03*
Y597719D03*
G54D15*
X66600Y427900D03*
Y422900D03*
Y417900D03*
Y437900D03*
Y432900D03*
Y442900D03*
X94400Y417900D03*
Y422900D03*
Y427900D03*
Y432900D03*
Y437900D03*
Y442900D03*
G54D33*
X326458Y114200D03*
G54D51*
X417390Y31311D03*
Y39811D03*
X425890Y31311D03*
Y39811D03*
X436440Y31311D03*
X444940D03*
X436440Y39811D03*
X444940D03*
X455490Y31311D03*
Y39811D03*
X463990Y31311D03*
Y39811D03*
X474540Y31311D03*
Y39811D03*
X483040Y31311D03*
Y39811D03*
G54D24*
X245670Y284820D03*
X241670D03*
X245670Y296820D03*
Y292820D03*
X241670D03*
X245670Y288820D03*
X241670D03*
X245670Y308820D03*
Y304820D03*
X241670D03*
X245670Y300820D03*
X241670D03*
X245670Y320820D03*
Y316820D03*
X241670D03*
X245670Y312820D03*
X241670D03*
X245670Y332820D03*
Y328820D03*
X241670D03*
X245670Y324820D03*
X241670D03*
X245670Y344820D03*
Y340820D03*
X241670D03*
X245670Y336820D03*
X241670D03*
X245670Y356820D03*
Y352820D03*
X241670D03*
X245670Y348820D03*
X241670D03*
X245670Y368820D03*
Y364820D03*
X241670D03*
X245670Y360820D03*
X241670D03*
X245670Y380820D03*
Y376820D03*
X241670D03*
X245670Y372820D03*
X241670D03*
X245670Y392820D03*
Y388820D03*
X241670D03*
X245670Y384820D03*
X241670D03*
X245670Y400820D03*
X241670D03*
X245670Y396820D03*
X241670D03*
X249670Y284820D03*
X253670Y296820D03*
X249670D03*
X253670Y292820D03*
X249670D03*
X253670Y288820D03*
X249670D03*
X253670Y308820D03*
X249670D03*
X253670Y304820D03*
X249670D03*
X253670Y300820D03*
X249670D03*
X253670Y320820D03*
X249670D03*
X253670Y316820D03*
X249670D03*
X253670Y312820D03*
X249670D03*
X253670Y332820D03*
X249670D03*
X253670Y328820D03*
X249670D03*
X253670Y324820D03*
X249670D03*
X253670Y344820D03*
X249670D03*
X253670Y340820D03*
X249670D03*
X253670Y336820D03*
X249670D03*
X253670Y356820D03*
X249670D03*
X253670Y352820D03*
X249670D03*
X253670Y348820D03*
X249670D03*
X253670Y368820D03*
X249670D03*
X253670Y364820D03*
X249670D03*
X253670Y360820D03*
X249670D03*
X253670Y380820D03*
X249670D03*
X253670Y376820D03*
X249670D03*
X253670Y372820D03*
X249670D03*
X253670Y392820D03*
X249670D03*
X253670Y388820D03*
X249670D03*
X253670Y384820D03*
X249670D03*
Y400820D03*
X253670Y396820D03*
X249670D03*
X261670Y284820D03*
X257670D03*
X265670Y296820D03*
X261670D03*
X257670D03*
X265670Y292820D03*
X261670D03*
X257670D03*
X265670Y288820D03*
X261670D03*
X257670D03*
X265670Y308820D03*
X257670D03*
X265670Y304820D03*
X257670D03*
X265670Y300820D03*
X257670D03*
X265670Y320820D03*
X257670D03*
X265670Y316820D03*
X257670D03*
X265670Y312820D03*
X257670D03*
X265670Y332820D03*
X261670D03*
X257670D03*
X261670Y328820D03*
X257670D03*
X265670Y324820D03*
X257670D03*
X265670Y344820D03*
X261670D03*
X257670D03*
X265670Y340820D03*
Y336820D03*
X261670D03*
X257670D03*
X265670Y356820D03*
X261670D03*
X257670D03*
X265670Y352820D03*
X261670D03*
X257670D03*
X265670Y348820D03*
X261670D03*
X257670D03*
X265670Y368820D03*
X261670D03*
X257670D03*
X265670Y364820D03*
X261670D03*
X257670D03*
X265670Y360820D03*
X261670D03*
X257670D03*
X265670Y380820D03*
X261670D03*
X257670D03*
X265670Y376820D03*
X261670D03*
X257670D03*
X265670Y372820D03*
X261670D03*
X257670D03*
X265670Y392820D03*
X261670D03*
X257670D03*
X265670Y388820D03*
X261670D03*
X257670D03*
X265670Y384820D03*
X261670D03*
X257670D03*
X261670Y400820D03*
X257670D03*
X265670Y396820D03*
X261670D03*
X257670D03*
X273670Y284820D03*
X269670D03*
X277670Y296820D03*
X273670D03*
X269670D03*
X277670Y292820D03*
X273670D03*
X269670D03*
X277670Y288820D03*
X273670D03*
X269670D03*
X277670Y308820D03*
X273670D03*
X269670D03*
X273670Y304820D03*
X269670D03*
X277670Y300820D03*
X273670D03*
X269670D03*
X277670Y320820D03*
X273670D03*
X269670D03*
X277670Y316820D03*
X273670D03*
X269670D03*
X277670Y312820D03*
X273670D03*
X269670D03*
X277670Y332820D03*
X273670D03*
X277670Y328820D03*
X273670D03*
X277670Y324820D03*
X273670D03*
X269670D03*
X277670Y344820D03*
Y340820D03*
X273670D03*
X277670Y336820D03*
X273670D03*
X277670Y356820D03*
X273670D03*
X269670D03*
X277670Y352820D03*
X269670D03*
X273670Y348820D03*
X269670D03*
X277670Y368820D03*
X273670D03*
X269670D03*
X277670Y364820D03*
X269670D03*
X277670Y360820D03*
X273670D03*
X269670D03*
X277670Y380820D03*
X273670D03*
Y376820D03*
X269670D03*
X277670Y372820D03*
X273670D03*
X269670D03*
X277670Y392820D03*
X273670D03*
X269670D03*
X277670Y388820D03*
X273670D03*
X269670D03*
X277670Y384820D03*
X273670D03*
X269670D03*
X273670Y400820D03*
X269670D03*
X277670Y396820D03*
X273670D03*
X269670D03*
X285670Y284820D03*
X281670D03*
X289670Y296820D03*
X285670D03*
X281670D03*
X289670Y292820D03*
X285670D03*
X281670D03*
X289670Y288820D03*
X285670D03*
X281670D03*
X285670Y308820D03*
X281670D03*
X289670Y300820D03*
X285670D03*
X281670D03*
X289670Y320820D03*
X285670D03*
X281670D03*
X289670Y316820D03*
X281670D03*
X289670Y312820D03*
X285670D03*
X281670D03*
X285670Y332820D03*
X281670D03*
X289670Y328820D03*
X285670D03*
X281670D03*
X289670Y324820D03*
X281670D03*
X289670Y344820D03*
X285670D03*
Y340820D03*
X281670D03*
X289670Y336820D03*
X285670D03*
X281670D03*
X285670Y356820D03*
X289670Y352820D03*
X285670D03*
X281670D03*
X285670Y348820D03*
X281670D03*
X285670Y368820D03*
X281670D03*
X289670Y364820D03*
X285670D03*
X281670D03*
X289670Y360820D03*
X285670D03*
X281670D03*
X289670Y380820D03*
X285670D03*
X281670D03*
X289670Y376820D03*
X285670D03*
Y372820D03*
X289670Y392820D03*
X285670D03*
X281670D03*
X289670Y388820D03*
X285670D03*
X281670D03*
X289670Y384820D03*
X285670D03*
X281670D03*
X285670Y400820D03*
X281670D03*
X289670Y396820D03*
X285670D03*
X281670D03*
X301670Y284820D03*
X297670D03*
X293670D03*
X301670Y296820D03*
X297670D03*
X293670D03*
X301670Y292820D03*
X297670D03*
X293670D03*
X301670Y288820D03*
X297670D03*
X293670D03*
X301670Y308820D03*
Y304820D03*
X297670D03*
X293670D03*
X301670Y300820D03*
X293670D03*
X297670Y316820D03*
X293670D03*
X301670Y312820D03*
X297670D03*
X293670D03*
X301670Y332820D03*
Y328820D03*
X297670D03*
X293670D03*
X297670Y324820D03*
X293670D03*
X301670Y344820D03*
X297670D03*
X293670D03*
X297670Y340820D03*
X301670Y336820D03*
X297670D03*
X293670D03*
X301670Y356820D03*
X297670D03*
X301670Y352820D03*
X297670D03*
X293670D03*
X301670Y348820D03*
X297670Y368820D03*
X293670D03*
X301670Y364820D03*
X297670D03*
X293670D03*
X301670Y360820D03*
X297670D03*
X293670D03*
X301670Y380820D03*
X297670D03*
X293670D03*
X301670Y376820D03*
X297670D03*
X293670D03*
X301670Y372820D03*
Y392820D03*
X297670D03*
X293670D03*
X301670Y388820D03*
X297670D03*
X293670D03*
X301670Y384820D03*
X297670D03*
X293670D03*
X297670Y400820D03*
X293670D03*
X301670Y396820D03*
X297670D03*
X293670D03*
X313670Y284820D03*
X309670D03*
X313670Y296820D03*
X309670D03*
X305670D03*
X313670Y292820D03*
X309670D03*
X305670D03*
X313670Y288820D03*
X309670D03*
X305670D03*
X313670Y308820D03*
X309670D03*
X305670D03*
X313670Y304820D03*
X309670D03*
X305670D03*
X313670Y300820D03*
X309670D03*
X305670D03*
Y320820D03*
X309670Y316820D03*
Y312820D03*
X313670Y332820D03*
X309670D03*
X313670Y328820D03*
X309670D03*
X305670D03*
X313670Y324820D03*
X305670D03*
X313670Y344820D03*
X309670D03*
X305670D03*
X313670Y340820D03*
X309670D03*
X313670Y336820D03*
X309670D03*
X305670D03*
X313670Y356820D03*
Y352820D03*
X309670D03*
X305670D03*
X313670Y348820D03*
X305670Y368820D03*
X313670Y364820D03*
X309670D03*
X313670Y360820D03*
X309670D03*
X305670D03*
X313670Y380820D03*
X309670D03*
X313670Y376820D03*
X309670D03*
X305670D03*
X313670Y372820D03*
X309670D03*
X305670D03*
X313670Y392820D03*
X309670D03*
X305670D03*
X313670Y388820D03*
X309670D03*
X305670D03*
X313670Y384820D03*
X309670D03*
X305670D03*
X309670Y400820D03*
X305670D03*
X313670Y396820D03*
X309670D03*
X305670D03*
X321670Y284820D03*
X317670D03*
X325670Y296820D03*
X321670D03*
X317670D03*
X325670Y292820D03*
X321670D03*
X317670D03*
X325670Y288820D03*
X321670D03*
X317670D03*
X325670Y308820D03*
X321670D03*
X317670D03*
X325670Y304820D03*
X321670D03*
X317670D03*
X325670Y300820D03*
X321670D03*
X317670D03*
X325670Y316820D03*
X321670D03*
X317670D03*
X325670Y332820D03*
X321670D03*
X317670D03*
X321670Y328820D03*
X317670D03*
X325670Y324820D03*
X321670D03*
X317670D03*
X325670Y344820D03*
X321670D03*
X317670D03*
X321670Y340820D03*
X317670D03*
X321670Y336820D03*
X317670D03*
X321670Y356820D03*
X317670D03*
X325670Y352820D03*
X321670D03*
X317670D03*
X321670Y348820D03*
X317670D03*
X325670Y368820D03*
X321670D03*
Y364820D03*
X317670D03*
X325670Y360820D03*
X321670D03*
X317670D03*
X325670Y380820D03*
X321670D03*
X317670D03*
X325670Y376820D03*
X321670D03*
X317670D03*
Y372820D03*
X325670Y392820D03*
X321670D03*
X317670D03*
X325670Y388820D03*
X321670D03*
X317670D03*
X325670Y384820D03*
X321670D03*
X317670D03*
X325670Y400820D03*
X321670D03*
X317670D03*
X325670Y396820D03*
X321670D03*
X317670D03*
X333670Y284820D03*
X329670D03*
X337670Y296820D03*
X333670D03*
X329670D03*
X333670Y292820D03*
X329670D03*
X337670Y288820D03*
X333670D03*
X329670D03*
X337670Y308820D03*
X333670D03*
X329670D03*
X337670Y304820D03*
X333670D03*
X329670D03*
X337670Y300820D03*
X333670D03*
X329670D03*
X337670Y320820D03*
X333670D03*
X329670D03*
X337670Y316820D03*
X333670D03*
X329670D03*
X337670Y312820D03*
X333670D03*
X329670D03*
X337670Y332820D03*
X333670D03*
X329670D03*
X337670Y328820D03*
X333670D03*
X329670D03*
X337670Y324820D03*
X333670D03*
X329670D03*
X337670Y344820D03*
X333670D03*
X329670D03*
X337670Y340820D03*
X333670D03*
X329670D03*
X337670Y336820D03*
X333670D03*
X329670D03*
X337670Y356820D03*
X333670D03*
X329670D03*
X337670Y352820D03*
X333670D03*
X329670D03*
X337670Y348820D03*
X333670D03*
X329670D03*
X337670Y368820D03*
X333670D03*
X329670D03*
X337670Y364820D03*
X333670D03*
X329670D03*
X337670Y360820D03*
X333670D03*
X329670D03*
X337670Y380820D03*
X333670D03*
X329670D03*
X337670Y376820D03*
X333670D03*
X337670Y372820D03*
X333670D03*
X329670D03*
X337670Y392820D03*
X333670D03*
X329670D03*
X337670Y388820D03*
X333670D03*
X329670D03*
X337670Y384820D03*
X333670D03*
X329670D03*
X337670Y400820D03*
X333670D03*
X329670D03*
X337670Y396820D03*
X333670D03*
X329670D03*
X344457Y134324D03*
X350116D03*
X341628Y137156D03*
X344457Y139986D03*
X347287Y142815D03*
Y137156D03*
X350116Y145645D03*
Y139986D03*
X341628Y148474D03*
X344457Y156966D03*
Y151304D03*
X347287Y159795D03*
Y154136D03*
X350116Y151304D03*
X341628Y171116D03*
X347287D03*
X350116Y162625D03*
X341628Y182434D03*
Y176775D03*
X344457Y179605D03*
Y173946D03*
X347287Y182434D03*
X350116Y179605D03*
X347287Y176775D03*
X350116Y173946D03*
X341628Y188096D03*
X344457Y185264D03*
X347287Y188096D03*
X350116Y185264D03*
X349670Y284820D03*
X345670D03*
X341670D03*
X349670Y296820D03*
X345670D03*
X341670D03*
X349670Y292820D03*
X345670D03*
X341670D03*
X349670Y288820D03*
X345670D03*
X341670D03*
X349670Y308820D03*
X345670D03*
X341670D03*
X349670Y304820D03*
X345670D03*
X341670D03*
X349670Y300820D03*
X345670D03*
X341670D03*
X349670Y320820D03*
X345670D03*
X341670D03*
X349670Y316820D03*
X345670D03*
X341670D03*
X349670Y312820D03*
X345670D03*
X341670D03*
X349670Y332820D03*
X345670D03*
X341670D03*
X349670Y328820D03*
X345670D03*
X341670D03*
X349670Y324820D03*
X345670D03*
X341670D03*
X349670Y344820D03*
X345670D03*
X341670D03*
X349670Y340820D03*
X345670D03*
X341670D03*
X349670Y336820D03*
X345670D03*
X341670D03*
X349670Y356820D03*
X345670D03*
X341670D03*
X349670Y352820D03*
X345670D03*
X341670D03*
X349670Y348820D03*
X345670D03*
X341670D03*
X349670Y368820D03*
X345670D03*
X341670D03*
X349670Y364820D03*
X345670D03*
X341670D03*
X349670Y360820D03*
X345670D03*
X341670D03*
X349670Y380820D03*
X345670D03*
X341670D03*
X349670Y376820D03*
X345670D03*
X341670D03*
X349670Y372820D03*
X345670D03*
X341670D03*
X349670Y392820D03*
X345670D03*
X341670D03*
X349670Y388820D03*
X345670D03*
X341670D03*
X349670Y384820D03*
X345670D03*
X341670D03*
X349670Y400820D03*
X345670D03*
X341670D03*
X349670Y396820D03*
X345670D03*
X341670D03*
X345742Y519430D03*
X349742D03*
X345742Y515430D03*
X349742D03*
X345742Y511430D03*
X349742D03*
X345742Y531430D03*
X349742D03*
X345742Y527430D03*
X349742D03*
X345742Y523430D03*
X349742D03*
X345742Y539430D03*
X349742D03*
X345742Y535430D03*
X349742D03*
X352946Y142815D03*
Y137156D03*
X355778Y145645D03*
Y139986D03*
X358608Y142815D03*
Y137156D03*
X361437Y145645D03*
Y139986D03*
X352946Y159795D03*
Y154136D03*
Y148474D03*
X355778Y156966D03*
X358608Y159795D03*
Y154136D03*
Y148474D03*
X361437Y151304D03*
X352946Y171116D03*
X358608D03*
X352946Y165454D03*
X355778Y168284D03*
Y162625D03*
X361437Y168284D03*
Y162625D03*
X352946Y182434D03*
X358608D03*
X355778Y179605D03*
X361437D03*
X352946Y176775D03*
X358608D03*
X355778Y173946D03*
X361437D03*
X352946Y188096D03*
X358608D03*
X355778Y185264D03*
X361437D03*
X353670Y284820D03*
Y296820D03*
Y292820D03*
Y288820D03*
Y304820D03*
Y300820D03*
Y316820D03*
Y312820D03*
Y328820D03*
Y324820D03*
Y344820D03*
Y340820D03*
Y336820D03*
Y352820D03*
Y348820D03*
Y364820D03*
Y360820D03*
Y376820D03*
Y372820D03*
Y392820D03*
Y388820D03*
Y384820D03*
Y400820D03*
Y396820D03*
X353742Y519430D03*
X357742D03*
X361742D03*
X353742Y515430D03*
X357742D03*
X361742D03*
X353742Y511430D03*
X357742D03*
X361742D03*
X353742Y531430D03*
X357742D03*
X361742D03*
X353742Y527430D03*
X357742D03*
X361742D03*
X353742Y523430D03*
X357742D03*
X361742D03*
X353742Y539430D03*
X357742D03*
X361742D03*
X353742Y535430D03*
X357742D03*
X361742D03*
X367096Y134324D03*
X372758D03*
X367096Y145645D03*
Y139986D03*
X372758D03*
X364267Y154136D03*
Y148474D03*
X367096Y156966D03*
Y151304D03*
X369926Y148474D03*
X372758Y156966D03*
Y151304D03*
X369926Y171116D03*
X367096Y162625D03*
X372758Y168284D03*
Y162625D03*
X369926Y182434D03*
X367096Y179605D03*
X372758D03*
X364267Y176775D03*
X369926D03*
X367096Y173946D03*
X369926Y188096D03*
X372758Y185264D03*
X365742Y519430D03*
X369742D03*
X373742D03*
X365742Y515430D03*
X369742D03*
X373742D03*
X365742Y511430D03*
X369742D03*
X373742D03*
X365742Y531430D03*
X369742D03*
X373742D03*
X365742Y527430D03*
X369742D03*
X373742D03*
X365742Y523430D03*
X369742D03*
X373742D03*
X365742Y539430D03*
X369742D03*
X373742D03*
X365742Y535430D03*
X369742D03*
X373742D03*
X378417Y134324D03*
X384076D03*
X375587Y142815D03*
Y137156D03*
X381247D03*
X384076Y139986D03*
X375587Y159795D03*
Y154136D03*
X378417Y156966D03*
X381247Y159795D03*
Y148474D03*
X384076Y156966D03*
X381247Y171116D03*
X375587Y165454D03*
X378417Y162625D03*
X381247Y165454D03*
X384076Y168284D03*
Y162625D03*
X375587Y182434D03*
X381247Y176775D03*
X378417Y173946D03*
X384076D03*
X375587Y188096D03*
X381247D03*
X378417Y185264D03*
X384076D03*
X389738Y134324D03*
X395397D03*
X389738Y139986D03*
X392567Y142815D03*
X395397Y145645D03*
X386908Y159795D03*
Y154136D03*
X389738Y156966D03*
Y151304D03*
X392567Y159795D03*
Y148474D03*
X395397Y156966D03*
X386908Y171116D03*
Y165454D03*
X389738Y162625D03*
X392567Y165454D03*
X395397Y168284D03*
Y162625D03*
X386908Y182434D03*
X392567D03*
Y176775D03*
X386908Y188096D03*
X392567D03*
X389738Y185264D03*
X401056Y134324D03*
X398226Y137156D03*
X401056Y145645D03*
Y139986D03*
X403888Y137156D03*
X406718Y145645D03*
Y139986D03*
X409547Y142815D03*
Y137156D03*
X398226Y159795D03*
Y154136D03*
Y148474D03*
X401056Y156966D03*
Y151304D03*
X403888Y154136D03*
Y148474D03*
X406718Y156966D03*
Y151304D03*
X409547Y148474D03*
X403888Y171116D03*
X409547D03*
X398226Y165454D03*
X401056Y168284D03*
Y162625D03*
X403888Y165454D03*
X406718Y162625D03*
X409547Y165454D03*
X398226Y182434D03*
X403888D03*
X409547D03*
X401056Y179605D03*
X406718D03*
X398226Y176775D03*
X403888D03*
X401056Y173946D03*
X398226Y188096D03*
X403888D03*
X409547D03*
X401056Y185264D03*
X406718D03*
X412377Y134324D03*
Y139986D03*
X415206Y137156D03*
X412377Y151304D03*
X415206Y159795D03*
Y154136D03*
Y148474D03*
Y171116D03*
X412377Y162625D03*
X415206Y165454D03*
Y182434D03*
X412377Y179605D03*
X415206Y176775D03*
X412377Y173946D03*
X415206Y188096D03*
X412377Y185264D03*
G54D52*
X420600Y591300D03*
X424600D03*
X429600D03*
X433600D03*
G54D43*
X374640Y274570D03*
Y287570D03*
Y281070D03*
Y294070D03*
Y307070D03*
Y300570D03*
Y320070D03*
Y313570D03*
Y333070D03*
Y326570D03*
Y352570D03*
Y365570D03*
Y359070D03*
Y378570D03*
Y372070D03*
Y391570D03*
Y385070D03*
Y404570D03*
Y398070D03*
Y411070D03*
X382640Y274570D03*
Y287570D03*
Y281070D03*
Y294070D03*
Y307070D03*
Y300570D03*
Y320070D03*
Y313570D03*
Y333070D03*
Y326570D03*
Y352570D03*
Y365570D03*
Y359070D03*
Y378570D03*
Y372070D03*
Y391570D03*
Y385070D03*
Y404570D03*
Y398070D03*
Y411070D03*
X390640Y274570D03*
Y287570D03*
Y281070D03*
Y294070D03*
Y307070D03*
Y300570D03*
Y320070D03*
Y313570D03*
Y333070D03*
Y326570D03*
Y352570D03*
Y365570D03*
Y359070D03*
Y378570D03*
Y372070D03*
Y391570D03*
Y385070D03*
Y404570D03*
Y398070D03*
Y411070D03*
X398640Y274570D03*
X406640D03*
X398640Y287570D03*
X406640D03*
X398640Y281070D03*
X406640D03*
X398640Y294070D03*
X406640D03*
X398640Y307070D03*
X406640D03*
X398640Y300570D03*
X406640D03*
X398640Y320070D03*
X406640D03*
X398640Y313570D03*
X406640D03*
X398640Y333070D03*
X406640D03*
X398640Y326570D03*
X406640D03*
X398640Y352570D03*
X406640D03*
X398640Y365570D03*
X406640D03*
X398640Y359070D03*
X406640D03*
X398640Y378570D03*
X406640D03*
X398640Y372070D03*
X406640D03*
X398640Y391570D03*
X406640D03*
X398640Y385070D03*
X406640D03*
X398640Y404570D03*
X406640D03*
X398640Y398070D03*
X406640D03*
X398640Y411070D03*
X406640D03*
X430640Y274570D03*
Y287570D03*
Y281070D03*
Y294070D03*
Y307070D03*
Y300570D03*
Y320070D03*
Y313570D03*
Y333070D03*
Y326570D03*
Y352570D03*
Y365570D03*
Y359070D03*
Y378570D03*
Y372070D03*
Y391570D03*
Y385070D03*
Y404570D03*
Y398070D03*
Y411070D03*
X438640Y274570D03*
Y287570D03*
Y281070D03*
Y294070D03*
Y307070D03*
Y300570D03*
Y320070D03*
Y313570D03*
Y333070D03*
Y326570D03*
Y352570D03*
Y365570D03*
Y359070D03*
Y378570D03*
Y372070D03*
Y391570D03*
Y385070D03*
Y404570D03*
Y398070D03*
Y411070D03*
X446640Y274570D03*
X454640D03*
X446640Y287570D03*
X454640D03*
X446640Y281070D03*
X454640D03*
X446640Y294070D03*
X454640D03*
X446640Y307070D03*
X454640D03*
X446640Y300570D03*
X454640D03*
X446640Y320070D03*
X454640D03*
X446640Y313570D03*
X454640D03*
X446640Y333070D03*
X454640D03*
X446640Y326570D03*
X454640D03*
X446640Y352570D03*
X454640D03*
X446640Y365570D03*
X454640D03*
X446640Y359070D03*
X454640D03*
X446640Y378570D03*
X454640D03*
X446640Y372070D03*
X454640D03*
X446640Y391570D03*
X454640D03*
X446640Y385070D03*
X454640D03*
X446640Y404570D03*
X454640D03*
X446640Y398070D03*
X454640D03*
X446640Y411070D03*
X454640D03*
X462640Y274570D03*
Y287570D03*
Y281070D03*
Y294070D03*
Y307070D03*
Y300570D03*
Y320070D03*
Y313570D03*
Y333070D03*
Y326570D03*
Y352570D03*
Y365570D03*
Y359070D03*
Y378570D03*
Y372070D03*
Y391570D03*
Y385070D03*
Y404570D03*
Y398070D03*
Y411070D03*
G54D16*
X64394Y532978D03*
Y543978D03*
Y554978D03*
Y565978D03*
Y576978D03*
Y587978D03*
Y598978D03*
Y609978D03*
X72594Y517078D03*
Y624978D03*
X94594Y517078D03*
X83594D03*
Y624978D03*
X94594D03*
X105594Y517078D03*
Y624978D03*
X116594Y517078D03*
Y624978D03*
X127594Y517078D03*
Y624978D03*
X138594Y517078D03*
Y624978D03*
X149594Y517078D03*
Y624978D03*
X160594Y517078D03*
Y624978D03*
X171594Y517078D03*
Y624978D03*
X182594Y517078D03*
Y624978D03*
X193594Y517078D03*
Y624978D03*
X204594Y517078D03*
Y624978D03*
X212794Y532978D03*
Y543978D03*
Y554978D03*
Y565978D03*
Y576978D03*
Y587978D03*
Y598978D03*
Y609978D03*
G54D25*
X256952Y572503D03*
Y597003D03*
X266452D03*
X275952Y572503D03*
Y597003D03*
G54D34*
X334958Y101700D03*
G54D44*
X367284Y588969D03*
G54D17*
X115509Y12230D03*
X171509D03*
G54D26*
X289534Y529260D03*
Y545260D03*
X311534Y529260D03*
Y545260D03*
X494000Y585400D03*
G54D53*
X430256Y119634D03*
X451756D03*
G54D35*
X334958Y114200D03*
G54D54*
X427200Y200924D03*
Y195876D03*
G54D27*
X305125Y604500D03*
G54D18*
X118100Y419300D03*
X165100D03*
G54D36*
X335260Y618572D03*
X421660D03*
G54D45*
X367284Y593344D03*
G54D28*
X305125Y599500D03*
Y594500D03*
Y614500D03*
Y609500D03*
X313875Y594500D03*
Y599500D03*
Y609500D03*
Y614500D03*
G54D55*
X434526Y631900D03*
Y627900D03*
X442474Y631700D03*
Y627700D03*
G54D46*
X386900Y52700D03*
Y56700D03*
G54D37*
X338260Y623572D03*
X418660D03*
G54D19*
X110294Y553178D03*
Y565178D03*
Y577178D03*
X122294Y553178D03*
Y565178D03*
Y577178D03*
X134294Y553178D03*
Y565178D03*
Y577178D03*
G54D47*
X393600Y433000D03*
X397600D03*
X429400Y429300D03*
X425400D03*
X443100D03*
X438200D03*
X434200D03*
X447100D03*
X447682Y577110D03*
X451682D03*
X471200Y571500D03*
X475200D03*
G54D38*
X335260Y664072D03*
X421660D03*
G54D56*
X471500Y585400D03*
Y669400D03*
X516500Y585400D03*
Y669400D03*
G54D29*
X309500Y604500D03*
G54D39*
X351800Y202800D03*
X342200D03*
X351804Y212302D03*
X342204D03*
X412834Y213490D03*
X422434D03*
X412834Y223650D03*
X422434D03*
X432328Y219080D03*
Y208920D03*
Y229240D03*
X441928Y219080D03*
Y208920D03*
Y229240D03*
X451378Y219080D03*
Y208920D03*
Y229240D03*
X460978Y219080D03*
Y208920D03*
Y229240D03*
G54D48*
X422650Y450040D03*
Y475440D03*
Y500840D03*
Y526240D03*
Y551640D03*
X466350Y450040D03*
Y475440D03*
Y500840D03*
Y526240D03*
Y551640D03*
G54D49*
X401400Y577104D03*
X406400D03*
Y591804D03*
X401400D03*
X411400Y577104D03*
Y591804D03*
M02*
