G04 ================== begin FILE IDENTIFICATION RECORD ==================*
G04 Layout Name:  U:/Project/48DMVQAD1.SGB/BRD/48DMVQAD1_SGB-20250729a4.brd*
G04 Film Name:    ssb*
G04 File Format:  Gerber RS274X*
G04 File Origin:  Cadence Allegro 17.4-S029*
G04 Origin Date:  Tue Jul 29 17:18:16 2025*
G04 *
G04 Layer:  BOARD GEOMETRY/SILKSCREEN_BOTTOM*
G04 Layer:  DRAWING FORMAT/TITLE_DATA_SSB*
G04 Layer:  DRAWING FORMAT/TITLE_BLOCK*
G04 Layer:  DRAWING FORMAT/OUTLINE*
G04 Layer:  MANUFACTURING/PHOTOPLOT_OUTLINE*
G04 Layer:  REF DES/SILKSCREEN_BOTTOM*
G04 Layer:  PACKAGE GEOMETRY/SILKSCREEN_BOTTOM*
G04 Layer:  BOARD GEOMETRY/DESIGN_OUTLINE*
G04 *
G04 Offset:    (0.0000 0.0000)*
G04 Mirror:    No*
G04 Mode:      Positive*
G04 Rotation:  0*
G04 FullContactRelief:  No*
G04 UndefLineWidth:     0.1270*
G04 ================== end FILE IDENTIFICATION RECORD ====================*
%FSLAX44Y44*MOMM*%
%IR0*IPPOS*OFA0.00000B0.00000*MIA0B0*SFA1.00000B1.00000*%
%ADD10C,.2*%
%ADD11C,.3*%
%ADD12C,.127*%
%ADD13C,.1524*%
%ADD14C,.0127*%
%ADD15C,.0254*%
G75*
%LPD*%
G75*
G36*
G01X480088Y414048D02*
Y354048D01*
X420088D01*
Y414048D01*
X480088D01*
G37*
G54D10*
G01X241106Y332600D02*
G03I-5106J0D01*
G54D11*
G01X115400Y149900D02*
G03I-1500J0D01*
G01X137700Y626200D02*
G03I-1500J0D01*
G01X161950Y350950D02*
G03I-1500J0D01*
G01X195400Y512800D02*
G03I-1500J0D01*
G01X200950Y626750D02*
G03I-1500J0D01*
G01X252000Y635200D02*
G03I-1500J0D01*
G01X271600Y512800D02*
G03I-1500J0D01*
G01X345900Y513100D02*
G03I-1500J0D01*
G01X434100Y507000D02*
G03I-1500J0D01*
G01X430800Y516100D02*
G03I-1500J0D01*
G54D12*
G01X95869Y328283D02*
G03I-635J0D01*
G01X107343Y409968D02*
G03I-635J0D01*
G01X154929Y209212D02*
G03I-635J0D01*
G01X157435Y369500D02*
G03I-635J0D01*
G01X197728Y273007D02*
X194728Y270007D01*
G01D02*
Y266657D01*
G01X197728Y273007D02*
X201078D01*
G01X226363Y277507D02*
G03I-635J0D01*
G01X324728Y163087D02*
Y158007D01*
X319648D01*
G01X392185Y292350D02*
G03I-635J0D01*
G01X409085Y345650D02*
G03I-635J0D01*
G01X423185Y312350D02*
G03I-635J0D01*
G01X454335Y422900D02*
G03I-635J0D01*
G01X10000Y685800D02*
G03X0Y675800I4J-10004D01*
G01Y35400D01*
G03X10000Y25400I10003J3D01*
G01X25400D01*
X50800Y0D01*
X378460D01*
X403860Y25400D01*
X518160D01*
X533400Y40640D01*
Y675800D01*
G03X523400Y685800I-10004J-4D01*
G01X10000D01*
G54D13*
G01X120855Y626950D02*
Y633300D01*
X123361Y628749D01*
X119975D01*
G01X116080Y626950D02*
X115606Y627056D01*
X115064Y627373D01*
X114725Y627902D01*
X114590Y628643D01*
X114725Y629384D01*
X115132Y630019D01*
X115741Y630337D01*
X116419D01*
X116825Y630548D01*
X117164Y631077D01*
X117299Y631818D01*
X117096Y632559D01*
X116622Y633088D01*
X116080Y633300D01*
X115538Y633088D01*
X115064Y632559D01*
X114861Y631818D01*
X114996Y631077D01*
X115335Y630548D01*
X115741Y630337D01*
X116419D01*
X117028Y630019D01*
X117435Y629384D01*
X117570Y628643D01*
X117435Y627902D01*
X117096Y627373D01*
X116554Y627056D01*
X116080Y626950D01*
G01X111982D02*
Y633300D01*
X110627D01*
X110086Y632982D01*
X109679Y632559D01*
X109340Y631924D01*
X109070Y631183D01*
X109002Y630125D01*
X109070Y629067D01*
X109340Y628326D01*
X109679Y627691D01*
X110086Y627267D01*
X110627Y626950D01*
X111982D01*
G01X106665D02*
Y633300D01*
X104904Y628008D01*
X103143Y633300D01*
Y626950D01*
G01X101009Y633300D02*
X99316Y626950D01*
X97623Y633300D01*
G01X93728Y626950D02*
X94270Y627056D01*
X94744Y627479D01*
X95150Y628114D01*
X95421Y628855D01*
X95557Y629702D01*
Y630548D01*
X95421Y631395D01*
X95150Y632136D01*
X94744Y632771D01*
X94270Y633194D01*
X93728Y633300D01*
X93186Y633194D01*
X92712Y632771D01*
X92306Y632136D01*
X92035Y631395D01*
X91899Y630548D01*
Y629702D01*
X92035Y628855D01*
X92306Y628114D01*
X92712Y627479D01*
X93186Y627056D01*
X93728Y626950D01*
G01X93186Y628643D02*
X92373Y626950D01*
G01X89833D02*
X88140Y633300D01*
X86447Y626950D01*
G01X87056Y629172D02*
X89224D01*
G01X84042Y626950D02*
Y633300D01*
X82687D01*
X82146Y632982D01*
X81739Y632559D01*
X81400Y631924D01*
X81130Y631183D01*
X81062Y630125D01*
X81130Y629067D01*
X81400Y628326D01*
X81739Y627691D01*
X82146Y627267D01*
X82687Y626950D01*
X84042D01*
G01X76964D02*
Y633300D01*
X77777Y632030D01*
G01Y626950D02*
X76151D01*
G01X71376Y626738D02*
X71511Y626844D01*
Y627056D01*
X71376Y627162D01*
X71241Y627056D01*
Y626844D01*
X71376Y626738D01*
G01X67210Y627796D02*
X66669Y627267D01*
X66059Y626950D01*
X65517D01*
X64975Y627267D01*
X64569Y627796D01*
X64366Y628538D01*
X64501Y629278D01*
X64840Y629913D01*
X65449Y630337D01*
X66262Y630548D01*
X66736Y630972D01*
X66940Y631712D01*
X66804Y632453D01*
X66465Y632982D01*
X65991Y633300D01*
X65517D01*
X65043Y633088D01*
X64636Y632559D01*
G01X59794Y630125D02*
X58439D01*
Y628220D01*
X58845Y627585D01*
X59319Y627162D01*
X59997Y626950D01*
X60674Y627162D01*
X61148Y627585D01*
X61555Y628220D01*
X61826Y628961D01*
X61961Y629807D01*
Y630548D01*
X61826Y631183D01*
X61555Y631924D01*
X61148Y632559D01*
X60742Y632982D01*
X60200Y633300D01*
X59726D01*
X59184Y633088D01*
X58778Y632665D01*
G01X54070Y630337D02*
X53799Y630654D01*
X53596Y631183D01*
X53460Y631924D01*
X53596Y632559D01*
X53867Y632982D01*
X54341Y633300D01*
X56170D01*
Y626950D01*
X53935D01*
X53460Y627373D01*
X53190Y628008D01*
X53054Y628749D01*
X53190Y629490D01*
X53596Y630125D01*
X54070Y630337D01*
X56170D01*
G01X122855Y621842D02*
X122449Y622477D01*
X121974Y622794D01*
X121433Y622900D01*
X120755Y622688D01*
X120281Y622159D01*
X120146Y621524D01*
X120213Y620889D01*
X120484Y620360D01*
X121839Y619302D01*
X122449Y618561D01*
X122855Y617502D01*
X122990Y616550D01*
X120146D01*
G01X115980Y622900D02*
X116522Y622688D01*
X116928Y622159D01*
X117199Y621524D01*
X117402Y620677D01*
X117470Y619725D01*
X117402Y618772D01*
X117199Y617926D01*
X116928Y617291D01*
X116522Y616762D01*
X115980Y616550D01*
X115438Y616762D01*
X115032Y617291D01*
X114761Y617926D01*
X114558Y618772D01*
X114490Y619725D01*
X114558Y620677D01*
X114761Y621524D01*
X115032Y622159D01*
X115438Y622688D01*
X115980Y622900D01*
G01X111679Y621842D02*
X111273Y622477D01*
X110798Y622794D01*
X110257Y622900D01*
X109579Y622688D01*
X109105Y622159D01*
X108970Y621524D01*
X109037Y620889D01*
X109308Y620360D01*
X110663Y619302D01*
X111273Y618561D01*
X111679Y617502D01*
X111814Y616550D01*
X108970D01*
G01X106294Y617502D02*
X105888Y616973D01*
X105414Y616656D01*
X104804Y616550D01*
X104194Y616762D01*
X103720Y617185D01*
X103382Y617926D01*
X103314Y618772D01*
X103449Y619619D01*
X103788Y620148D01*
X104262Y620572D01*
X104736Y620677D01*
X105210Y620572D01*
X105820Y620148D01*
X105617Y622900D01*
X103788D01*
G01X100435Y616338D02*
X97997Y622900D01*
G01X93628D02*
X94170Y622688D01*
X94576Y622159D01*
X94847Y621524D01*
X95050Y620677D01*
X95118Y619725D01*
X95050Y618772D01*
X94847Y617926D01*
X94576Y617291D01*
X94170Y616762D01*
X93628Y616550D01*
X93086Y616762D01*
X92680Y617291D01*
X92409Y617926D01*
X92206Y618772D01*
X92138Y619725D01*
X92206Y620677D01*
X92409Y621524D01*
X92680Y622159D01*
X93086Y622688D01*
X93628Y622900D01*
G01X88175Y616550D02*
X88040Y617926D01*
X87837Y619090D01*
X87566Y620148D01*
X87227Y621312D01*
X86685Y622900D01*
X89395D01*
G01X83671Y616338D02*
X81233Y622900D01*
G01X78151Y621842D02*
X77745Y622477D01*
X77270Y622794D01*
X76729Y622900D01*
X76051Y622688D01*
X75577Y622159D01*
X75442Y621524D01*
X75509Y620889D01*
X75780Y620360D01*
X77135Y619302D01*
X77745Y618561D01*
X78151Y617502D01*
X78286Y616550D01*
X75442D01*
G01X72428Y617291D02*
X71953Y616762D01*
X71411Y616550D01*
X70870Y616762D01*
X70395Y617396D01*
X70057Y618349D01*
X69921Y619302D01*
Y620466D01*
X70057Y621418D01*
X70395Y622265D01*
X70802Y622688D01*
X71276Y622900D01*
X71818Y622688D01*
X72224Y622265D01*
X72495Y621630D01*
X72631Y620783D01*
X72495Y620043D01*
X72157Y619302D01*
X71750Y618878D01*
X71276Y618772D01*
X70734Y618984D01*
X70328Y619513D01*
X69921Y620466D01*
G01X249870Y345783D02*
Y339433D01*
G01X251428Y345783D02*
X248312D01*
G01X245637Y339433D02*
Y345783D01*
X244011D01*
X243469Y345465D01*
X243063Y344725D01*
X242927Y343878D01*
X243063Y343031D01*
X243401Y342396D01*
X244011Y342079D01*
X245637D01*
G01X239981Y344725D02*
X239575Y345360D01*
X239100Y345677D01*
X238559Y345783D01*
X237881Y345571D01*
X237407Y345042D01*
X237272Y344407D01*
X237339Y343772D01*
X237610Y343243D01*
X238965Y342185D01*
X239575Y341444D01*
X239981Y340385D01*
X240116Y339433D01*
X237272D01*
G01X234393Y342079D02*
X233919Y342820D01*
X233512Y343243D01*
X232971Y343455D01*
X232496Y343243D01*
X232158Y342820D01*
X231887Y342185D01*
X231819Y341444D01*
X231887Y340809D01*
X232158Y340174D01*
X232564Y339645D01*
X233038Y339433D01*
X233580Y339645D01*
X234054Y340279D01*
X234325Y341232D01*
X234393Y342290D01*
X234258Y343666D01*
X234054Y344407D01*
X233716Y345148D01*
X233241Y345677D01*
X232767Y345783D01*
X232293Y345571D01*
X231954Y345042D01*
G01X227518Y339433D02*
Y345783D01*
X228331Y344513D01*
G01Y339433D02*
X226705D01*
G01X221930Y345783D02*
X222472Y345571D01*
X222878Y345042D01*
X223149Y344407D01*
X223352Y343560D01*
X223420Y342608D01*
X223352Y341655D01*
X223149Y340809D01*
X222878Y340174D01*
X222472Y339645D01*
X221930Y339433D01*
X221388Y339645D01*
X220982Y340174D01*
X220711Y340809D01*
X220508Y341655D01*
X220440Y342608D01*
X220508Y343560D01*
X220711Y344407D01*
X220982Y345042D01*
X221388Y345571D01*
X221930Y345783D01*
G54D14*
G01X34100Y508800D02*
X13100D01*
G01D02*
Y499300D01*
G01Y508980D02*
X34100D01*
G01X13100Y510300D02*
Y508980D01*
G01Y510980D02*
X34100D01*
G01Y512300D02*
X13100D01*
G01D02*
Y510980D01*
G01Y509980D02*
X34100D01*
G01Y511300D02*
X13100D01*
G01D02*
Y509980D01*
G01X34100Y510300D02*
X13100D01*
G01X34100Y499300D02*
Y508800D01*
G01Y508980D02*
Y510300D01*
G01Y510980D02*
Y512300D01*
G01Y509980D02*
Y511300D01*
G01X111806Y21654D02*
G03I-5106J0D01*
G01X106500Y503100D02*
X116000D01*
G01Y524100D02*
X106500D01*
G01X131806Y21654D02*
G03I-5106J0D01*
G01X118180Y492700D02*
Y471700D01*
G01D02*
X119500D01*
G01D02*
Y492700D01*
G01X117180D02*
Y471700D01*
G01D02*
X118500D01*
G01D02*
Y492700D01*
G01X116180D02*
Y471700D01*
G01D02*
X117500D01*
G01D02*
Y492700D01*
G01X119500D02*
X118180D01*
G01X118500D02*
X117180D01*
G01X117500D02*
X116180D01*
G01X116000Y503100D02*
Y524100D01*
G01X118180D02*
Y503100D01*
G01D02*
X119500D01*
G01D02*
Y524100D01*
G01X117180D02*
Y503100D01*
G01D02*
X118500D01*
G01D02*
Y524100D01*
G01X116180D02*
Y503100D01*
G01D02*
X117500D01*
G01D02*
Y524100D01*
G01X119500D02*
X118180D01*
G01X118500D02*
X117180D01*
G01X117500D02*
X116180D01*
G01X151806Y21654D02*
G03I-5106J0D01*
G01X171806D02*
G03I-5106J0D01*
G01X191806D02*
G03I-5106J0D01*
G01X211806D02*
G03I-5106J0D01*
G01X231806D02*
G03I-5106J0D01*
G01X370306Y670530D02*
G03I-5106J0D01*
G01X390306D02*
G03I-5106J0D01*
G01X452063Y64673D02*
X449083Y70673D01*
G01X446063Y64673D02*
X452063D01*
G01X449083Y70673D02*
X446063Y64673D01*
G01X450908Y536839D02*
X447888Y530839D01*
G01D02*
X453888D01*
G01D02*
X450908Y536839D01*
G01X499830Y557460D02*
G03I-6100J0D01*
G01Y577460D02*
G03I-6100J0D01*
G01X498836Y597460D02*
G03I-5106J0D01*
G01X520106Y557460D02*
G03I-5106J0D01*
G01Y577460D02*
G03I-5106J0D01*
G01Y597460D02*
G03I-5106J0D01*
G54D15*
G01X43900Y546100D02*
G03I-18500J0D01*
G01X13100Y443800D02*
X34100D01*
G01X13100Y453300D02*
Y443800D01*
G01X10600Y499300D02*
Y453300D01*
G01D02*
X13100D01*
G01X19600Y472800D02*
X27600D01*
G01X23600Y479300D02*
X19600Y472800D01*
G01Y479800D02*
X27600D01*
G01X13100Y499300D02*
X10600D01*
G01X27600Y472800D02*
X23600Y479300D01*
G01X62044Y440982D02*
X43756D01*
G01D02*
Y442379D01*
G01Y448221D02*
Y449618D01*
G01D02*
X62044D01*
G01X34100Y443800D02*
Y453300D01*
G01X67400Y452350D02*
Y454400D01*
X76100D01*
Y462800D01*
X67400D01*
Y464850D01*
X50400D01*
Y462800D01*
X41700D01*
Y454400D01*
X50400D01*
Y452350D01*
X67400D01*
G01X34100Y453300D02*
X36600D01*
G01D02*
Y499300D01*
G01D02*
X34100D01*
G01X57050Y453700D02*
Y463750D01*
G01Y458250D02*
Y453700D01*
G01D02*
X60860Y455960D01*
G01D02*
X57050Y458250D01*
G01X61000Y463750D02*
X57050Y461490D01*
G01D02*
X61000Y459200D01*
G01X51000Y492700D02*
Y471700D01*
G01D02*
X60500D01*
G01Y492700D02*
X51000D01*
G01Y524100D02*
Y503100D01*
G01D02*
X60500D01*
G01Y524100D02*
X51000D01*
G01X53879Y566956D02*
X52482D01*
G01D02*
Y585244D01*
G01D02*
X53879D01*
G01X94700Y25400D02*
G03I-18500J0D01*
G01X68200Y62000D02*
X75400D01*
G01X68200Y72200D02*
Y62000D01*
G01X69048Y61512D02*
Y72688D01*
G01X67778Y61512D02*
X69048D01*
G01X62952D02*
X64222D01*
G01X62952Y72688D02*
Y61512D01*
G01X75400Y72200D02*
X68200D01*
G01X69048Y72688D02*
X67778D01*
G01X64222D02*
X62952D01*
G01X73128Y200382D02*
X67080D01*
Y189254D01*
X73128D01*
Y200382D01*
G01X68984Y296122D02*
Y196122D01*
G01D02*
X168984D01*
G01X68326Y211074D02*
X69596D01*
G01X68326Y222250D02*
Y211074D01*
G01X69596Y222250D02*
X68326D01*
G01X73864Y239976D02*
Y246024D01*
X62736D01*
Y239976D01*
X73864D01*
G01X63224Y245258D02*
X69272D01*
Y256386D01*
X63224D01*
Y245258D01*
G01X68734Y245180D02*
X79910D01*
G01X68734Y246450D02*
Y245180D01*
G01Y251276D02*
Y250006D01*
G01X79910Y251276D02*
X68734D01*
G01Y250514D02*
X79910D01*
G01X68734Y251784D02*
Y250514D01*
G01X67276Y257072D02*
X73324D01*
Y268200D01*
X67276D01*
Y257072D01*
G01X62176Y260236D02*
X68224D01*
Y271364D01*
X62176D01*
Y260236D01*
G01X68734Y256610D02*
Y255340D01*
G01X79910Y256610D02*
X68734D01*
G01X67276Y268036D02*
X73324D01*
Y279164D01*
X67276D01*
Y268036D01*
G01X76684Y284504D02*
Y290552D01*
X65556D01*
Y284504D01*
X76684D01*
G01X168984Y296122D02*
X68984D01*
G01X68580Y297180D02*
X69850D01*
G01X63754D02*
X65024D01*
G01X63754Y308356D02*
Y297180D01*
G01X69850Y308356D02*
X68580D01*
G01X65024D02*
X63754D01*
G01X69750Y369400D02*
G03I-3250J0D01*
G01X74564Y358876D02*
Y364924D01*
X63436D01*
Y358876D01*
X74564D01*
G01X65024Y373380D02*
X66294D01*
G01X65024Y384556D02*
Y373380D01*
G01X66294Y384556D02*
X65024D01*
G01X66462Y437036D02*
Y393036D01*
G01D02*
X87462D01*
G01X70462Y414536D02*
X68462D01*
G01X66336Y426214D02*
G03I-3250J0D01*
G01X87462Y437036D02*
X66462D01*
G01X59276Y430336D02*
X65324D01*
Y441464D01*
X59276D01*
Y430336D01*
G01X62044Y442379D02*
Y440982D01*
G01Y449618D02*
Y448221D01*
G01X61000Y453700D02*
Y463750D01*
G01Y459200D02*
Y463750D01*
G01X60500Y471700D02*
Y469200D01*
G01D02*
X106500D01*
G01Y495200D02*
X60500D01*
G01D02*
Y492700D01*
G01Y503100D02*
Y500600D01*
G01D02*
X106500D01*
G01Y526600D02*
X60500D01*
G01D02*
Y524100D01*
G01X63279Y566956D02*
X61882D01*
G01D02*
Y585244D01*
G01X61118D02*
Y566956D01*
G01D02*
X59721D01*
G01X61882Y585244D02*
X63279D01*
G01X59721D02*
X61118D01*
G01X75400Y62000D02*
Y72200D01*
G01X77299Y85329D02*
X74199D01*
Y115331D01*
X77299D01*
G01X78500Y139000D02*
Y131800D01*
G01D02*
X88700D01*
G01Y139000D02*
X78500D01*
G01X78112Y144048D02*
Y142778D01*
G01X89288Y144048D02*
X78112D01*
G01Y137952D02*
X89288D01*
G01X78112Y139222D02*
Y137952D01*
G01X81002Y200636D02*
X74954D01*
Y189508D01*
X81002D01*
Y200636D01*
G01X80264Y200076D02*
Y206124D01*
X69136D01*
Y200076D01*
X80264D01*
G01Y211074D02*
Y222250D01*
G01X78994Y211074D02*
X80264D01*
G01X74168D02*
X75438D01*
G01X74168Y222250D02*
Y211074D01*
G01X74422D02*
Y222250D01*
G01X73152Y211074D02*
X74422D01*
G01X77350Y230800D02*
G03I-3250J0D01*
G01X80264Y222250D02*
X78994D01*
G01X75438D02*
X74168D01*
G01X74422D02*
X73152D01*
G01X79910Y245180D02*
Y246450D01*
G01Y250006D02*
Y251276D01*
G01Y250514D02*
Y251784D01*
G01Y255340D02*
Y256610D01*
G01X72771Y270256D02*
Y259080D01*
G01D02*
X74422D01*
G01X77978D02*
X79629D01*
G01D02*
Y270256D01*
G01X73406Y270510D02*
X74676D01*
G01X73406Y281686D02*
Y270510D01*
G01X79502D02*
Y281686D01*
G01X78232Y270510D02*
X79502D01*
G01X74422Y270256D02*
X72771D01*
G01X79629D02*
X77978D01*
G01X74676Y281686D02*
X73406D01*
G01X79502D02*
X78232D01*
G01X69850Y297180D02*
Y308356D01*
G01X76250Y324650D02*
Y312150D01*
G01D02*
X101750D01*
G01Y324650D02*
X76250D01*
G01X92496Y360388D02*
X77496D01*
G01D02*
Y386638D01*
G01X71120Y373380D02*
Y384556D01*
G01X69850Y373380D02*
X71120D01*
G01Y384556D02*
X69850D01*
G01X72644Y386588D02*
X83820D01*
G01X72644Y387858D02*
Y386588D01*
G01Y392684D02*
Y391414D01*
G01X83820Y392684D02*
X72644D01*
G01X81962Y418536D02*
X79462Y412536D01*
G01D02*
X76962Y418536D01*
G01D02*
X74462Y412536D01*
G01D02*
X71962Y418536D01*
G01D02*
X70462Y414536D01*
G01X80000Y486200D02*
Y478200D01*
G01D02*
X86500Y482200D01*
G01D02*
X80000Y486200D01*
G01Y517600D02*
Y509600D01*
G01D02*
X86500Y513600D01*
G01D02*
X80000Y517600D01*
G01X77300Y553960D02*
X74200D01*
Y583960D01*
X77300D01*
G01X70518Y585244D02*
Y566956D01*
G01D02*
X69121D01*
G01Y585244D02*
X70518D01*
G01X88700Y131800D02*
Y139000D01*
G01X89288Y142778D02*
Y144048D01*
G01Y137952D02*
Y139222D01*
G01X83600Y188400D02*
Y155400D01*
G01D02*
X123600D01*
G01Y188400D02*
X83600D01*
G01X92202Y195072D02*
X93472D01*
G01X87376D02*
X88646D01*
G01X87376Y206248D02*
Y195072D01*
G01X87884D02*
Y206248D01*
G01X86614Y195072D02*
X87884D01*
G01X81788D02*
X83058D01*
G01X81788Y206248D02*
Y195072D01*
G01X83984Y281122D02*
Y211122D01*
G01D02*
X150984D01*
G01X93472Y206248D02*
X92202D01*
G01X88646D02*
X87376D01*
G01X87884D02*
X86614D01*
G01X83058D02*
X81788D01*
G01X83984Y276042D02*
Y281122D01*
X89064D01*
G01X153984D02*
X83984D01*
G01X86892Y286790D02*
X92940D01*
Y297918D01*
X86892D01*
Y286790D01*
G01X81558D02*
X87606D01*
Y297918D01*
X81558D01*
Y286790D01*
G01X81586Y355556D02*
Y330056D01*
G01D02*
X83836D01*
G01X91836D02*
X94086D01*
G01X83836Y355556D02*
X81586D01*
G01X94086D02*
X91836D01*
G01X83820Y386588D02*
Y387858D01*
G01Y391414D02*
Y392684D01*
G01X87462Y393036D02*
Y437036D01*
G01X89762Y436168D02*
Y410668D01*
G01D02*
X92012D01*
G01X85462Y414536D02*
X83462D01*
G01D02*
X81962Y418536D01*
G01X92012Y436168D02*
X89762D01*
G01X103096Y438292D02*
X88096D01*
G01D02*
Y464542D01*
G01X87000Y486200D02*
Y478200D01*
G01Y517600D02*
Y509600D01*
G01X103900Y142900D02*
Y132700D01*
G01D02*
X111100D01*
G01Y142900D02*
X103900D01*
G01X103672Y188594D02*
Y189864D01*
G01X92496Y188594D02*
X103672D01*
G01X92496Y189864D02*
Y188594D01*
G01Y194690D02*
Y193420D01*
G01X103672D02*
Y194690D01*
G01X103598D02*
Y193420D01*
G01Y188594D02*
X114774D01*
G01X103598Y189864D02*
Y188594D01*
G01X108942Y206224D02*
X102894D01*
Y195096D01*
X108942D01*
Y206224D01*
G01X103608D02*
X97560D01*
Y195096D01*
X103608D01*
Y206224D01*
G01X93472Y195072D02*
Y206248D01*
G01X103672Y194690D02*
X92496D01*
G01X114774D02*
X103598D01*
G01X93712Y285752D02*
X104888D01*
G01X93712Y287022D02*
Y285752D01*
G01Y291848D02*
Y290578D01*
G01X104888Y291848D02*
X93712D01*
G01X113089Y318472D02*
Y324520D01*
X101961D01*
Y318472D01*
X113089D01*
G01X101750Y312150D02*
Y324650D01*
G01X137434Y355533D02*
X97434D01*
Y329533D01*
X100434Y326533D01*
X137434D01*
Y355533D01*
G01X94086Y330056D02*
Y355556D01*
G01X97496Y387388D02*
X112496D01*
G01X100012Y410668D02*
X102262D01*
G01D02*
Y436168D01*
G01D02*
X100012D01*
G01X93912Y609548D02*
Y608278D01*
G01X105088Y609548D02*
X93912D01*
G01Y603452D02*
X105088D01*
G01X93912Y604722D02*
Y603452D01*
G01X111100Y132700D02*
Y142900D01*
G01X110452Y132712D02*
X111722D01*
G01X110452Y143888D02*
Y132712D01*
G01X115278D02*
X116548D01*
G01X111722Y143888D02*
X110452D01*
G01X116548D02*
X115278D01*
G01X114774Y193420D02*
Y194690D01*
G01Y188594D02*
Y189864D01*
G01X104888Y285752D02*
Y287022D01*
G01Y290578D02*
Y291848D01*
G01X112976Y306236D02*
X119024D01*
Y317364D01*
X112976D01*
Y306236D01*
G01X125374Y317671D02*
Y323719D01*
X114246D01*
Y317671D01*
X125374D01*
G01X114434Y326533D02*
G02X120434I3000J0D01*
G01X112496Y387388D02*
Y361138D01*
G01X114195Y394662D02*
Y389074D01*
G01D02*
X125117D01*
G01Y394662D02*
X114195D01*
G01X124934Y397354D02*
Y403402D01*
X113806D01*
Y397354D01*
X124934D01*
G01X149208Y434818D02*
X109208D01*
Y408818D01*
X112208Y405818D01*
X149208D01*
Y434818D01*
G01X108096Y465292D02*
X123096D01*
G01X106500Y469200D02*
Y471700D01*
G01D02*
X116000D01*
G01Y492700D02*
X106500D01*
G01D02*
Y495200D01*
G01Y500600D02*
Y503100D01*
G01Y524100D02*
Y526600D01*
G01X105088Y608278D02*
Y609548D01*
G01Y603452D02*
Y604722D01*
G01X116952Y132612D02*
X118222D01*
G01X116952Y143788D02*
Y132612D01*
G01X123048D02*
Y143788D01*
G01X121778Y132612D02*
X123048D01*
G01X116548Y132712D02*
Y143888D01*
G01X118222Y143788D02*
X116952D01*
G01X123048D02*
X121778D01*
G01X127356Y158406D02*
X171856D01*
G01X127356Y178906D02*
Y158406D01*
G01X123600Y155400D02*
Y188400D01*
G01X171856Y178906D02*
X127356D01*
G01X127000Y188214D02*
X138176D01*
G01X127000Y189484D02*
Y188214D01*
G01Y194310D02*
Y193040D01*
G01X138176Y194310D02*
X127000D01*
G01X127254Y201422D02*
Y202692D01*
G01X116078Y201422D02*
X127254D01*
G01X116078Y202692D02*
Y201422D01*
G01Y207518D02*
Y206248D01*
G01X127254Y207518D02*
X116078D01*
G01X127254Y206248D02*
Y207518D01*
G01X119252Y306312D02*
X120522D01*
G01X119252Y317488D02*
Y306312D01*
G01X125348D02*
Y317488D01*
G01X124078Y306312D02*
X125348D01*
G01X120522Y317488D02*
X119252D01*
G01X125348D02*
X124078D01*
G01X119126Y364744D02*
X130302D01*
G01X119126Y366014D02*
Y364744D01*
G01Y358902D02*
X130302D01*
G01X119126Y360172D02*
Y358902D01*
G01Y364998D02*
Y363728D01*
G01X130302Y364998D02*
X119126D01*
G01Y370840D02*
Y369570D01*
G01X130302Y370840D02*
X119126D01*
G01X125117Y389074D02*
Y394662D01*
G01X131294Y403074D02*
X125246D01*
Y391946D01*
X131294D01*
Y403074D01*
G01X126208Y405818D02*
G02X132208I3000J0D01*
G01X123096Y465292D02*
Y439042D01*
G01X116000Y471700D02*
Y492700D01*
G01X122000Y537400D02*
Y530200D01*
G01D02*
X132200D01*
G01Y537400D02*
X122000D01*
G01X127826Y67978D02*
Y60778D01*
G01D02*
X138026D01*
G01D02*
Y67978D01*
G01D02*
X127826D01*
G01X127910Y143298D02*
Y133098D01*
G01D02*
X135110D01*
G01D02*
Y143298D01*
G01D02*
X127910D01*
G01X132358Y188444D02*
Y182396D01*
X143486D01*
Y188444D01*
X132358D01*
G01X137898Y204700D02*
X131850D01*
Y193572D01*
X137898D01*
Y204700D01*
G01X137692Y193572D02*
X143740D01*
Y204700D01*
X137692D01*
Y193572D01*
G01X138176Y188214D02*
Y189484D01*
G01Y193040D02*
Y194310D01*
G01X137414D02*
Y193040D01*
G01Y188214D02*
X148590D01*
G01X137414Y189484D02*
Y188214D01*
G01X148590Y194310D02*
X137414D01*
G01X138150Y321144D02*
Y302856D01*
G01D02*
X136321D01*
G01X130479D02*
X128650D01*
G01D02*
Y321144D01*
G01X136321D02*
X138150D01*
G01X128650D02*
X130479D01*
G01X130302Y364744D02*
Y366014D01*
G01Y358902D02*
Y360172D01*
G01Y363728D02*
Y364998D01*
G01Y369570D02*
Y370840D01*
G01X135382Y391922D02*
X136652D01*
G01X135382Y403098D02*
Y391922D01*
G01X136398Y393510D02*
Y402018D01*
G01D02*
X130810D01*
G01D02*
Y393510D01*
G01D02*
X136398D01*
G01X136652Y403098D02*
X135382D01*
G01X155244Y443382D02*
X136956D01*
G01D02*
Y444779D01*
G01Y450621D02*
Y452018D01*
G01D02*
X155244D01*
G01X136676Y468860D02*
Y462812D01*
X147804D01*
Y468860D01*
X136676D01*
G01X137992Y481876D02*
X146992D01*
G01X127992Y494876D02*
Y481876D01*
G01X137492Y494876D02*
X127992D01*
G01X132200Y530200D02*
Y537400D01*
G01X130800Y537600D02*
Y530400D01*
G01D02*
X141000D01*
G01X145464Y525376D02*
Y531424D01*
X134336D01*
Y525376D01*
X145464D01*
G01X141000Y537600D02*
X130800D01*
G01X159200Y621950D02*
X135700D01*
X133200Y619450D01*
Y602450D01*
G01D02*
X159200D01*
G01X141034Y67978D02*
Y60778D01*
G01D02*
X151234D01*
G01Y67978D02*
X141034D01*
G01X140630Y143298D02*
Y133098D01*
G01D02*
X147830D01*
G01D02*
Y143298D01*
G01D02*
X140630D01*
G01X148590Y193040D02*
Y194310D01*
G01Y188214D02*
Y189484D01*
G01X148446Y195414D02*
X149716D01*
G01X148446Y206590D02*
Y195414D01*
G01X147634Y211122D02*
X150984D01*
X153984Y214122D01*
Y217472D01*
G01X150984Y211122D02*
X153984Y214122D01*
G01X149716Y206590D02*
X148446D01*
G01X148452Y287812D02*
X149722D01*
G01X148452Y298988D02*
Y287812D01*
G01X149722Y298988D02*
X148452D01*
G01X149148D02*
X147878D01*
G01X149148Y287812D02*
Y298988D01*
G01X147878Y287812D02*
X149148D01*
G01X143052D02*
X144322D01*
G01X143052Y298988D02*
Y287812D01*
G01X144322Y298988D02*
X143052D01*
G01X148052Y311912D02*
X149322D01*
G01X148052Y323088D02*
Y311912D01*
G01X142752D02*
X144022D01*
G01X142752Y323088D02*
Y311912D01*
G01X148848D02*
Y323088D01*
G01X147578Y311912D02*
X148848D01*
G01X149322Y323088D02*
X148052D01*
G01X144022D02*
X142752D01*
G01X148848D02*
X147578D01*
G01X148352Y369612D02*
X149622D01*
G01X148352Y380788D02*
Y369612D01*
G01X149622Y380788D02*
X148352D01*
G01X141478Y391922D02*
Y403098D01*
G01X140208Y391922D02*
X141478D01*
G01Y403098D02*
X140208D01*
G01X159234Y420140D02*
Y426188D01*
X148106D01*
Y420140D01*
X159234D01*
G01X141912Y440548D02*
Y439278D01*
G01Y434452D02*
X153088D01*
G01X141912Y435722D02*
Y434452D01*
G01X153088Y440548D02*
X141912D01*
G01X147492Y494876D02*
X156992D01*
G01X150624Y531364D02*
X144576D01*
Y520236D01*
X150624D01*
Y531364D01*
G01X141000Y530400D02*
Y537600D01*
G01X153564Y530976D02*
Y537024D01*
X142436D01*
Y530976D01*
X153564D01*
G01X153480Y67978D02*
Y60778D01*
G01D02*
X163680D01*
G01X151234D02*
Y67978D01*
G01X163680D02*
X153480D01*
G01X153350Y143298D02*
Y133098D01*
G01D02*
X160550D01*
G01D02*
Y143298D01*
G01D02*
X153350D01*
G01X161210Y195414D02*
Y206590D01*
G01X159940Y195414D02*
X161210D01*
G01X155114D02*
X156384D01*
G01X155114Y206590D02*
Y195414D01*
G01X154542D02*
Y206590D01*
G01X153272Y195414D02*
X154542D01*
G01X153984Y214122D02*
Y281122D01*
G01X161210Y206590D02*
X159940D01*
G01X156384D02*
X155114D01*
G01X154542D02*
X153272D01*
G01X171426Y226084D02*
Y232132D01*
X160298D01*
Y226084D01*
X171426D01*
G01X160020Y218948D02*
Y217297D01*
G01D02*
X171196D01*
G01Y224155D02*
X160020D01*
G01D02*
Y222504D01*
G01Y231902D02*
X161290D01*
G01X160020Y243078D02*
Y231902D01*
G01X158266Y249658D02*
Y243610D01*
X169394D01*
Y249658D01*
X158266D01*
G01X161290Y243078D02*
X160020D01*
G01X157988Y250698D02*
X159258D01*
G01X157988Y261874D02*
Y250698D01*
G01X159258Y261874D02*
X157988D01*
G01X158242Y265684D02*
X159512D01*
G01X158242Y276860D02*
Y265684D01*
G01X159512Y276860D02*
X158242D01*
G01X154548Y298988D02*
X153278D01*
G01X154548Y287812D02*
Y298988D01*
G01X153278Y287812D02*
X154548D01*
G01X185400Y306900D02*
Y346900D01*
X159400D01*
X156400Y343900D01*
Y306900D01*
X185400D01*
G01X154148Y311912D02*
Y323088D01*
G01X152878Y311912D02*
X154148D01*
G01Y323088D02*
X152878D01*
G01X159000Y371200D02*
X162000Y369200D01*
G01X155136Y367024D02*
Y360976D01*
X166264D01*
Y367024D01*
X155136D01*
G01X162000Y369200D02*
X164500D01*
G01X154448Y380788D02*
X153178D01*
G01X154448Y369612D02*
Y380788D01*
G01X153178Y369612D02*
X154448D01*
G01X159000Y393200D02*
X164500D01*
G01X161279Y408256D02*
X159882D01*
G01D02*
Y426544D01*
G01D02*
X161279D01*
G01X153088Y439278D02*
Y440548D01*
G01Y434452D02*
Y435722D01*
G01X155244Y444779D02*
Y443382D01*
G01Y452018D02*
Y450621D01*
G01X155100Y468022D02*
Y455522D01*
G01X167600D02*
X162600D01*
G01X161100Y468022D02*
X155100D01*
G01X156992Y494876D02*
Y481876D01*
G01X164930Y508980D02*
G03I-3250J0D01*
G01X160024Y533564D02*
X153976D01*
Y522436D01*
X160024D01*
Y533564D01*
G01X159200Y602450D02*
Y621950D01*
G01X163680Y60778D02*
Y67978D01*
G01X173518Y57732D02*
X180718D01*
G01X173518Y67932D02*
Y57732D01*
G01X180718Y67932D02*
X173518D01*
G01X166500Y143200D02*
Y133000D01*
G01D02*
X173700D01*
G01D02*
Y143200D01*
G01X173482Y133350D02*
X184658D01*
G01X173482Y134620D02*
Y133350D01*
G01X173700Y143200D02*
X166500D01*
G01X173482Y139446D02*
Y138176D01*
G01X184658Y139446D02*
X173482D01*
G01X171856Y158406D02*
Y178906D01*
G01X168984Y196122D02*
Y296122D01*
G01X168910Y204470D02*
Y215646D01*
G01X167640Y204470D02*
X168910D01*
G01X162814D02*
X164084D01*
G01X162814Y215646D02*
Y204470D01*
G01X173228D02*
X174498D01*
G01X168402D02*
X169672D01*
G01X168402Y215646D02*
Y204470D01*
G01X168910Y215646D02*
X167640D01*
G01X164084D02*
X162814D01*
G01X174498D02*
X173228D01*
G01X169672D02*
X168402D01*
G01X170204Y227814D02*
Y221766D01*
X181332D01*
Y227814D01*
X170204D01*
G01X171196Y217297D02*
Y218948D01*
G01Y222504D02*
Y224155D01*
G01X180288Y241300D02*
G03I-3250J0D01*
G01X172048Y231112D02*
Y242288D01*
G01X170778Y231112D02*
X172048D01*
G01X165952D02*
X167222D01*
G01X165952Y242288D02*
Y231112D01*
G01X166116Y231902D02*
Y243078D01*
G01X164846Y231902D02*
X166116D01*
G01X172236Y252198D02*
Y246150D01*
X183364D01*
Y252198D01*
X172236D01*
G01X172048Y242288D02*
X170778D01*
G01X167222D02*
X165952D01*
G01X166116Y243078D02*
X164846D01*
G01X164084Y250698D02*
Y261874D01*
G01X162814Y250698D02*
X164084D01*
G01X163576D02*
X164846D01*
G01X163576Y261874D02*
Y250698D01*
G01X169672D02*
Y261874D01*
G01X168402Y250698D02*
X169672D01*
G01X177240Y259080D02*
G03I-3250J0D01*
G01Y266700D02*
G03I-3250J0D01*
G01X164084Y261874D02*
X162814D01*
G01X164846D02*
X163576D01*
G01X169672D02*
X168402D01*
G01X164338Y265684D02*
Y276860D01*
G01X163068Y265684D02*
X164338D01*
G01Y276860D02*
X163068D01*
G01X166612Y367048D02*
Y365778D01*
G01X177788Y367048D02*
X166612D01*
G01Y360952D02*
X177788D01*
G01X166612Y362222D02*
Y360952D01*
G01X176000Y369200D02*
X170500D01*
G01X176000Y393200D02*
X170500D01*
G01X168876Y410636D02*
X174924D01*
Y421764D01*
X168876D01*
Y410636D01*
G01X168518Y426544D02*
Y408256D01*
G01D02*
X167121D01*
G01Y426544D02*
X168518D01*
G01X175100Y468022D02*
X169100D01*
G01X170900Y536550D02*
Y517050D01*
G01D02*
X194400D01*
X196900Y519550D01*
Y536550D01*
G01D02*
X170900D01*
G01X180718Y57732D02*
Y67932D01*
G01X182634Y57532D02*
X189834D01*
G01X182634Y67732D02*
Y57532D01*
G01X189834Y67732D02*
X182634D01*
G01X184658Y133350D02*
Y134620D01*
G01Y138176D02*
Y139446D01*
G01X179728Y288007D02*
Y143007D01*
G01D02*
X339728D01*
G01X174498Y204470D02*
Y215646D01*
G01X339728Y288007D02*
X179728D01*
G01X185952Y340912D02*
X187222D01*
G01X185952Y352088D02*
Y340912D01*
G01X187222Y352088D02*
X185952D01*
G01X177788Y365778D02*
Y367048D01*
G01Y360952D02*
Y362222D01*
G01X181252Y359912D02*
X182522D01*
G01X181252Y371088D02*
Y359912D01*
G01X188850Y380200D02*
G03I-3250J0D01*
G01X182522Y371088D02*
X181252D01*
G01X175100Y455522D02*
Y468022D01*
G01X207464Y40076D02*
Y46124D01*
X196336D01*
Y40076D01*
X207464D01*
G01X189834Y57532D02*
Y67732D01*
G01X191326Y68232D02*
Y61032D01*
G01D02*
X201526D01*
G01Y68232D02*
X191326D01*
G01X194728Y158007D02*
X324728D01*
Y273007D01*
X197728D01*
G01X194728Y270007D02*
Y158007D01*
G01X197728Y273007D02*
X194728Y270007D01*
G01X192748Y315012D02*
Y326188D01*
G01X191478Y315012D02*
X192748D01*
G01X186652D02*
X187922D01*
G01X186652Y326188D02*
Y315012D01*
G01X203364Y320176D02*
Y326224D01*
X192236D01*
Y320176D01*
X203364D01*
G01X192748Y326188D02*
X191478D01*
G01X187922D02*
X186652D01*
G01X192048Y340912D02*
Y352088D01*
G01X190778Y340912D02*
X192048D01*
G01Y352088D02*
X190778D01*
G01X187348Y359912D02*
Y371088D01*
G01X186078Y359912D02*
X187348D01*
G01Y371088D02*
X186078D01*
G01X196400Y619950D02*
Y602450D01*
G01D02*
X213400D01*
G01X198400Y621950D02*
X196400Y619950D01*
G01X218264Y40676D02*
Y46724D01*
X207136D01*
Y40676D01*
X218264D01*
G01X198962Y52458D02*
Y45258D01*
G01D02*
X209162D01*
G01D02*
Y52458D01*
G01D02*
X198962D01*
G01X207898Y52720D02*
Y45520D01*
G01D02*
X218098D01*
G01Y52720D02*
X207898D01*
G01X201526Y61032D02*
Y68232D01*
G01X200200Y68200D02*
Y61000D01*
G01D02*
X210400D01*
G01Y68200D02*
X200200D01*
G01X204200Y140700D02*
Y133500D01*
G01D02*
X214400D01*
G01Y140700D02*
X204200D01*
G01X206012Y153948D02*
Y152678D01*
G01X217188Y153948D02*
X206012D01*
G01Y147852D02*
X217188D01*
G01X206012Y149122D02*
Y147852D01*
G01X213400Y621950D02*
X198400D01*
G01X217736Y46724D02*
Y40676D01*
X228864D01*
Y46724D01*
X217736D01*
G01X218098Y45520D02*
Y52720D01*
G01X227958Y52712D02*
X217758D01*
G01D02*
Y45512D01*
G01D02*
X227958D01*
G01X210400Y61000D02*
Y68200D01*
G01X209600Y68100D02*
Y60900D01*
G01D02*
X219800D01*
G01D02*
Y68100D01*
G01D02*
X209600D01*
G01X214400Y133500D02*
Y140700D01*
G01X220198Y140760D02*
Y133560D01*
G01D02*
X230398D01*
G01X213776Y134636D02*
X219824D01*
Y145764D01*
X213776D01*
Y134636D01*
G01X230398Y140760D02*
X220198D01*
G01X217188Y152678D02*
Y153948D01*
G01Y147852D02*
Y149122D01*
G01X220952Y283912D02*
X222222D01*
G01X220952Y295088D02*
Y283912D01*
G01X222222Y295088D02*
X220952D01*
G01X213400Y602450D02*
Y621950D01*
G01X227958Y45512D02*
Y52712D01*
G01X229342Y140760D02*
Y133560D01*
G01D02*
X239542D01*
G01X230398D02*
Y140760D01*
G01X239542D02*
X229342D01*
G01X229640Y139724D02*
X235688D01*
Y150852D01*
X229640D01*
Y139724D01*
G01X224306D02*
X230354D01*
Y150852D01*
X224306D01*
Y139724D01*
G01X227048Y283912D02*
Y295088D01*
G01X225778Y283912D02*
X227048D01*
G01X226952D02*
X228222D01*
G01X226952Y295088D02*
Y283912D01*
G01X231778D02*
X233048D01*
G01X227048Y295088D02*
X225778D01*
G01X228222D02*
X226952D01*
G01X233048D02*
X231778D01*
G01X239542Y133560D02*
Y140760D01*
G01X243058Y141014D02*
Y133814D01*
G01D02*
X253258D01*
G01Y141014D02*
X243058D01*
G01X233048Y283912D02*
Y295088D01*
G01X243786Y311052D02*
X245056D01*
G01X243786Y322228D02*
Y311052D01*
G01X245056Y322228D02*
X243786D01*
G01X253258Y133814D02*
Y141014D01*
G01X255250D02*
Y133814D01*
G01D02*
X265450D01*
G01Y141014D02*
X255250D01*
G01X247166Y140740D02*
X253214D01*
Y151868D01*
X247166D01*
Y140740D01*
G01X255294D02*
X261342D01*
Y151868D01*
X255294D01*
Y140740D01*
G01X255956Y298221D02*
Y300050D01*
G01X274244Y290550D02*
X255956D01*
G01D02*
Y292379D01*
G01Y300050D02*
X274244D01*
G01X255373Y307847D02*
X256643D01*
G01X255373Y319023D02*
Y307847D01*
G01X256643Y319023D02*
X255373D01*
G01X248997Y321824D02*
X260173D01*
G01X248997Y323094D02*
Y321824D01*
G01X256242Y322228D02*
X254972D01*
G01Y311052D02*
X256242D01*
G01X250146D02*
X251416D01*
G01X250146Y322228D02*
Y311052D01*
G01X251416Y322228D02*
X250146D01*
G01X249882D02*
X248612D01*
G01X249882Y311052D02*
Y322228D01*
G01X248612Y311052D02*
X249882D01*
G01X248854Y333247D02*
Y331977D01*
G01X260030Y333247D02*
X248854D01*
G01Y327151D02*
X260030D01*
G01X248854Y328421D02*
Y327151D01*
G01Y332231D02*
X260030D01*
G01X248854Y333501D02*
Y332231D01*
G01X248997Y327920D02*
Y326650D01*
G01X260173Y327920D02*
X248997D01*
G01X248854Y338327D02*
Y337057D01*
G01X260030Y338327D02*
X248854D01*
G01X248775Y338745D02*
X259951D01*
G01X248775Y340015D02*
Y338745D01*
G01Y344841D02*
Y343571D01*
G01X259951Y344841D02*
X248775D01*
G01X248701Y344116D02*
X259877D01*
G01X248701Y345386D02*
Y344116D01*
G01Y350212D02*
Y348942D01*
G01X259877Y350212D02*
X248701D01*
G01X250392Y349246D02*
X261568D01*
G01X250392Y350516D02*
Y349246D01*
G01Y355342D02*
Y354072D01*
G01X261568Y355342D02*
X250392D01*
G01X250492Y354376D02*
X261668D01*
G01X250492Y355646D02*
Y354376D01*
G01Y365170D02*
X261668D01*
G01X250492Y366440D02*
Y365170D01*
G01Y360472D02*
Y359202D01*
G01X261668Y360472D02*
X250492D01*
G01Y359773D02*
X261668D01*
G01X250492Y361043D02*
Y359773D01*
G01Y365869D02*
Y364599D01*
G01X261668Y365869D02*
X250492D01*
G01Y371266D02*
Y369996D01*
G01X261668Y371266D02*
X250492D01*
G01X247100Y536550D02*
Y517050D01*
G01D02*
X270600D01*
X273100Y519550D01*
Y536550D01*
G01D02*
X247100D01*
G01X273500Y630950D02*
X250000D01*
X247500Y628450D01*
Y611450D01*
G01D02*
X273500D01*
G01X265450Y133814D02*
Y141014D01*
G01X266226Y143012D02*
X277402D01*
G01X266226Y144282D02*
Y143012D01*
G01Y154442D02*
Y153172D01*
G01X277402Y154442D02*
X266226D01*
G01Y148346D02*
X277402D01*
G01X266226Y149616D02*
Y148346D01*
G01Y149108D02*
Y147838D01*
G01X277402Y149108D02*
X266226D01*
G01X260476Y307857D02*
X261746D01*
G01X260476Y319033D02*
Y307857D01*
G01X266572D02*
Y319033D01*
G01X265302Y307857D02*
X266572D01*
G01X261469Y307847D02*
Y319023D01*
G01X260199Y307847D02*
X261469D01*
G01X266047Y310560D02*
X277223D01*
G01X266047Y311830D02*
Y310560D01*
G01X265347Y299768D02*
X276523D01*
G01X265347Y301038D02*
Y299768D01*
G01Y305864D02*
Y304594D01*
G01X276523Y305864D02*
X265347D01*
G01X265612Y305152D02*
X276788D01*
G01X265612Y306422D02*
Y305152D01*
G01Y311248D02*
Y309978D01*
G01X261746Y319033D02*
X260476D01*
G01X266572D02*
X265302D01*
G01X261469Y319023D02*
X260199D01*
G01X259380Y321355D02*
X270556D01*
G01X259380Y322625D02*
Y321355D01*
G01X266047Y316656D02*
Y315386D01*
G01X277223Y316656D02*
X266047D01*
G01X276788Y311248D02*
X265612D01*
G01X266042Y315957D02*
X277218D01*
G01X266042Y317227D02*
Y315957D01*
G01Y322053D02*
Y320783D01*
G01X277218Y322053D02*
X266042D01*
G01X260173Y321824D02*
Y323094D01*
G01X256242Y311052D02*
Y322228D01*
G01X259380Y327451D02*
Y326181D01*
G01X270556Y327451D02*
X259380D01*
G01X260030Y331977D02*
Y333247D01*
G01Y327151D02*
Y328421D01*
G01Y332231D02*
Y333501D01*
G01X264142Y327071D02*
X265412D01*
G01X264142Y338247D02*
Y327071D01*
G01X260173Y326650D02*
Y327920D01*
G01X265158Y327071D02*
Y338247D01*
G01X263888Y327071D02*
X265158D01*
G01X259062D02*
X260332D01*
G01X259062Y338247D02*
Y327071D01*
G01X260030Y337057D02*
Y338327D01*
G01X259951Y338745D02*
Y340015D01*
G01Y343571D02*
Y344841D01*
G01X259292Y337741D02*
X270468D01*
G01X259292Y339011D02*
Y337741D01*
G01Y343837D02*
Y342567D01*
G01X270468Y343837D02*
X259292D01*
G01X265412Y338247D02*
X264142D01*
G01X265158D02*
X263888D01*
G01X260332D02*
X259062D01*
G01X259172Y342857D02*
X270348D01*
G01X259172Y344127D02*
Y342857D01*
G01X259877Y344116D02*
Y345386D01*
G01X266284Y353353D02*
X267554D01*
G01X266284Y364529D02*
Y353353D01*
G01X260986Y348026D02*
X272162D01*
G01X260986Y349296D02*
Y348026D01*
G01Y354122D02*
Y352852D01*
G01X272162Y354122D02*
X260986D01*
G01X259172Y348953D02*
Y347683D01*
G01X270348Y348953D02*
X259172D01*
G01X259877Y348942D02*
Y350212D01*
G01X261568Y349246D02*
Y350516D01*
G01Y354072D02*
Y355342D01*
G01X261668Y354376D02*
Y355646D01*
G01X266826Y353337D02*
Y364513D01*
G01X265556Y353337D02*
X266826D01*
G01X260730D02*
X262000D01*
G01X260730Y364513D02*
Y353337D01*
G01X261668Y365170D02*
Y366440D01*
G01X267554Y364529D02*
X266284D01*
G01X261668Y359202D02*
Y360472D01*
G01Y359773D02*
Y361043D01*
G01Y364599D02*
Y365869D01*
G01X266108Y363515D02*
X267378D01*
G01X266108Y374691D02*
Y363515D01*
G01X260711D02*
X261981D01*
G01X260711Y374691D02*
Y363515D01*
G01X266807D02*
Y374691D01*
G01X265537Y363515D02*
X266807D01*
G01X266826Y364513D02*
X265556D01*
G01X262000D02*
X260730D01*
G01X261668Y369996D02*
Y371266D01*
G01X267378Y374691D02*
X266108D01*
G01X261981D02*
X260711D01*
G01X266807D02*
X265537D01*
G01X257356Y388921D02*
Y390750D01*
G01D02*
X275644D01*
G01Y381250D02*
X257356D01*
G01D02*
Y383079D01*
G01X271000Y139000D02*
Y131800D01*
G01D02*
X281200D01*
G01Y139000D02*
X271000D01*
G01X277402Y143012D02*
Y144282D01*
G01Y153172D02*
Y154442D01*
G01Y148346D02*
Y149616D01*
G01Y147838D02*
Y149108D01*
G01X292733Y284943D02*
X274445D01*
G01D02*
Y286772D01*
G01Y292614D02*
Y294443D01*
G01D02*
X292733D01*
G01X274244Y300050D02*
Y298221D01*
G01Y292379D02*
Y290550D01*
G01X275908Y296403D02*
X287084D01*
G01X275908Y297673D02*
Y296403D01*
G01X277223Y310560D02*
Y311830D01*
G01X276523Y299768D02*
Y301038D01*
G01Y304594D02*
Y305864D01*
G01X276788Y305152D02*
Y306422D01*
G01Y309978D02*
Y311248D01*
G01X275908Y302499D02*
Y301229D01*
G01X287084Y302499D02*
X275908D01*
G01X276052Y308677D02*
Y307407D01*
G01X287228Y308677D02*
X276052D01*
G01Y302581D02*
X287228D01*
G01X276052Y303851D02*
Y302581D01*
G01X276842Y310561D02*
X288018D01*
G01X276842Y311831D02*
Y310561D01*
G01X270556Y321355D02*
Y322625D01*
G01X277223Y315386D02*
Y316656D01*
G01X277218Y315957D02*
Y317227D01*
G01Y320783D02*
Y322053D01*
G01X276842Y316657D02*
Y315387D01*
G01X288018Y316657D02*
X276842D01*
G01X269540Y321353D02*
X280716D01*
G01X269540Y322623D02*
Y321353D01*
G01X276837Y322053D02*
Y320783D01*
G01X288013Y322053D02*
X276837D01*
G01Y315957D02*
X288013D01*
G01X276837Y317227D02*
Y315957D01*
G01X270556Y326181D02*
Y327451D01*
G01X270238Y327071D02*
Y338247D01*
G01X268968Y327071D02*
X270238D01*
G01X269540Y327449D02*
Y326179D01*
G01X280716Y327449D02*
X269540D01*
G01Y326750D02*
X280716D01*
G01X269540Y328020D02*
Y326750D01*
G01Y332846D02*
Y331576D01*
G01X280716Y332846D02*
X269540D01*
G01X269655Y332368D02*
X270925D01*
G01X269655Y343544D02*
Y332368D01*
G01X275751D02*
Y343544D01*
G01X274481Y332368D02*
X275751D01*
G01X275499Y332248D02*
X286675D01*
G01X275499Y333518D02*
Y332248D01*
G01X274984Y337326D02*
X286160D01*
G01X274984Y338596D02*
Y337326D01*
G01Y343422D02*
Y342152D01*
G01X286160Y343422D02*
X274984D01*
G01X270468Y337741D02*
Y339011D01*
G01Y342567D02*
Y343837D01*
G01X270238Y338247D02*
X268968D01*
G01X270348Y342857D02*
Y344127D01*
G01X270925Y343544D02*
X269655D01*
G01X275751D02*
X274481D01*
G01X278548Y342565D02*
X279818D01*
G01X278548Y353741D02*
Y342565D01*
G01X279372Y342524D02*
Y353700D01*
G01X278102Y342524D02*
X279372D01*
G01X273276D02*
X274546D01*
G01X273276Y353700D02*
Y342524D01*
G01X275499Y338344D02*
Y337074D01*
G01X286675Y338344D02*
X275499D01*
G01X272380Y353353D02*
Y364529D01*
G01X271110Y353353D02*
X272380D01*
G01X272162Y348026D02*
Y349296D01*
G01Y352852D02*
Y354122D01*
G01X270348Y347683D02*
Y348953D01*
G01X279818Y353741D02*
X278548D01*
G01X279372Y353700D02*
X278102D01*
G01X274546D02*
X273276D01*
G01X271466Y352949D02*
X282642D01*
G01X271466Y354219D02*
Y352949D01*
G01X272380Y364529D02*
X271110D01*
G01X271412Y364952D02*
X282588D01*
G01X271412Y366222D02*
Y364952D01*
G01X271456Y364205D02*
Y362935D01*
G01X282632Y364205D02*
X271456D01*
G01Y358109D02*
X282632D01*
G01X271456Y359379D02*
Y358109D01*
G01X272204Y363515D02*
Y374691D01*
G01X270934Y363515D02*
X272204D01*
G01X271466Y359045D02*
Y357775D01*
G01X282642Y359045D02*
X271466D01*
G01X271412Y371048D02*
Y369778D01*
G01X282588Y371048D02*
X271412D01*
G01X274298Y382128D02*
Y380858D01*
G01Y376032D02*
X285474D01*
G01X274298Y377302D02*
Y376032D01*
G01X272204Y374691D02*
X270934D01*
G01X275644Y390750D02*
Y388921D01*
G01Y383079D02*
Y381250D01*
G01X285474Y382128D02*
X274298D01*
G01X273500Y611450D02*
Y630950D01*
G01X276236Y631924D02*
Y625876D01*
X287364D01*
Y631924D01*
X276236D01*
G01Y637024D02*
Y630976D01*
X287364D01*
Y637024D01*
X276236D01*
G01X281200Y131800D02*
Y139000D01*
G01X285200Y138900D02*
Y131700D01*
G01D02*
X295400D01*
G01Y138900D02*
X285200D01*
G01X287955Y294685D02*
X299131D01*
G01X287955Y295955D02*
Y294685D01*
G01X287084Y296403D02*
Y297673D01*
G01X287955Y300781D02*
Y299511D01*
G01X299131Y300781D02*
X287955D01*
G01X287084Y301229D02*
Y302499D01*
G01X287228Y307407D02*
Y308677D01*
G01Y302581D02*
Y303851D01*
G01X288018Y310561D02*
Y311831D01*
G01X286652Y300012D02*
X287922D01*
G01X286652Y311188D02*
Y300012D01*
G01X287034Y311052D02*
X288304D01*
G01X287034Y322228D02*
Y311052D01*
G01X288304Y322228D02*
X287034D01*
G01X288018Y315387D02*
Y316657D01*
G01X280716Y321353D02*
Y322623D01*
G01X290888Y321452D02*
Y322722D01*
G01X279712Y321452D02*
X290888D01*
G01X279712Y322722D02*
Y321452D01*
G01X288013Y320783D02*
Y322053D01*
G01Y315957D02*
Y317227D01*
G01X289896Y321546D02*
X291166D01*
G01X289896Y332722D02*
Y321546D01*
G01X287922Y311188D02*
X286652D01*
G01X291224Y331722D02*
X302400D01*
G01X291224Y332992D02*
Y331722D01*
G01X280716Y326179D02*
Y327449D01*
G01X279712Y327548D02*
Y326278D01*
G01X290888Y327548D02*
X279712D01*
G01X290888Y326278D02*
Y327548D01*
G01X280716Y326750D02*
Y328020D01*
G01Y331576D02*
Y332846D01*
G01X279700Y332849D02*
Y331579D01*
G01X290876Y332849D02*
X279700D01*
G01X290876Y331579D02*
Y332849D01*
G01Y326753D02*
Y328023D01*
G01X279700Y326753D02*
X290876D01*
G01X279700Y328023D02*
Y326753D01*
G01X291166Y332722D02*
X289896D01*
G01X290696Y332070D02*
X291966D01*
G01X285870D02*
X287140D01*
G01X285870Y343246D02*
Y332070D01*
G01X286675Y332248D02*
Y333518D01*
G01X286160Y337326D02*
Y338596D01*
G01Y342152D02*
Y343422D01*
G01X283831Y342303D02*
X295007D01*
G01X283831Y343573D02*
Y342303D01*
G01X291224Y337818D02*
Y336548D01*
G01X302400Y337818D02*
X291224D01*
G01X291966Y343246D02*
X290696D01*
G01X287140D02*
X285870D01*
G01X284644Y342565D02*
Y353741D01*
G01X283374Y342565D02*
X284644D01*
G01X286675Y337074D02*
Y338344D01*
G01X284186Y353621D02*
Y352351D01*
G01X295362Y353621D02*
X284186D01*
G01Y347525D02*
X295362D01*
G01X284186Y348795D02*
Y347525D01*
G01X283831Y348399D02*
Y347129D01*
G01X295007Y348399D02*
X283831D01*
G01X281923Y352789D02*
X293099D01*
G01X281923Y354059D02*
Y352789D01*
G01X284644Y353741D02*
X283374D01*
G01X282642Y352949D02*
Y354219D01*
G01X281923Y358885D02*
Y357615D01*
G01X293099Y358885D02*
X281923D01*
G01X282588Y364952D02*
Y366222D01*
G01X282632Y362935D02*
Y364205D01*
G01Y358109D02*
Y359379D01*
G01X281923Y369362D02*
Y368092D01*
G01Y363266D02*
X293099D01*
G01X281923Y364536D02*
Y363266D01*
G01X282642Y357775D02*
Y359045D01*
G01X281923Y368346D02*
X293099D01*
G01X281923Y369616D02*
Y368346D01*
G01Y363965D02*
Y362695D01*
G01X293099Y363965D02*
X281923D01*
G01Y357869D02*
X293099D01*
G01X281923Y359139D02*
Y357869D01*
G01X282588Y369778D02*
Y371048D01*
G01X285474Y380858D02*
Y382128D01*
G01Y376032D02*
Y377302D01*
G01X293099Y369362D02*
X281923D01*
G01Y374442D02*
Y373172D01*
G01X293099Y374442D02*
X281923D01*
G01X284752Y373812D02*
X286022D01*
G01X284752Y384988D02*
Y373812D01*
G01X290848D02*
Y384988D01*
G01X289578Y373812D02*
X290848D01*
G01X289857Y373743D02*
X291127D01*
G01X289857Y384919D02*
Y373743D01*
G01X286022Y384988D02*
X284752D01*
G01X290848D02*
X289578D01*
G01X291127Y384919D02*
X289857D01*
G01X286600Y621800D02*
X293800D01*
G01X286600Y632000D02*
Y621800D01*
G01X293800Y632000D02*
X286600D01*
G01X286700Y641100D02*
Y630900D01*
G01D02*
X293900D01*
G01Y641100D02*
X286700D01*
G01X295400Y131700D02*
Y138900D01*
G01X292733Y286772D02*
Y284943D01*
G01Y294443D02*
Y292614D01*
G01X299131Y294685D02*
Y295955D01*
G01X298344Y294889D02*
X299614D01*
G01X298344Y306065D02*
Y294889D01*
G01X299131Y299511D02*
Y300781D01*
G01X299614Y306065D02*
X298344D01*
G01X292080Y300719D02*
X293350D01*
G01X292080Y311895D02*
Y300719D01*
G01X298176D02*
Y311895D01*
G01X296906Y300719D02*
X298176D01*
G01X297532Y306278D02*
X308708D01*
G01X297532Y307548D02*
Y306278D01*
G01X292748Y300012D02*
Y311188D01*
G01X291478Y300012D02*
X292748D01*
G01X293130Y322228D02*
X291860D01*
G01X293130Y311052D02*
Y322228D01*
G01X291860Y311052D02*
X293130D01*
G01X300708Y321546D02*
X301978D01*
G01X300708Y332722D02*
Y321546D01*
G01X302298Y311370D02*
X303568D01*
G01X302298Y322546D02*
Y311370D01*
G01X292126Y317462D02*
Y316192D01*
G01X303302Y317462D02*
X292126D01*
G01Y311366D02*
X303302D01*
G01X292126Y312636D02*
Y311366D01*
G01X295452Y321512D02*
X296722D01*
G01X295452Y332688D02*
Y321512D01*
G01X301548D02*
Y332688D01*
G01X300278Y321512D02*
X301548D01*
G01X292112Y322548D02*
Y321278D01*
G01Y316452D02*
X303288D01*
G01X292112Y317722D02*
Y316452D01*
G01X295992Y321546D02*
Y332722D01*
G01X294722Y321546D02*
X295992D01*
G01X293350Y311895D02*
X292080D01*
G01X298176D02*
X296906D01*
G01X297532Y312374D02*
Y311104D01*
G01X308708Y312374D02*
X297532D01*
G01X292748Y311188D02*
X291478D01*
G01X301978Y332722D02*
X300708D01*
G01X302400Y331722D02*
Y332992D01*
G01X303568Y322546D02*
X302298D01*
G01X296722Y332688D02*
X295452D01*
G01X301548D02*
X300278D01*
G01X303288Y322548D02*
X292112D01*
G01X295992Y332722D02*
X294722D01*
G01X291966Y332070D02*
Y343246D01*
G01X295007Y342303D02*
Y343573D01*
G01X302400Y336548D02*
Y337818D01*
G01X297850Y342212D02*
X309026D01*
G01X297850Y343482D02*
Y342212D01*
G01X293763Y343120D02*
Y341850D01*
G01X304939Y343120D02*
X293763D01*
G01Y337024D02*
X304939D01*
G01X293763Y338294D02*
Y337024D01*
G01X295362Y352351D02*
Y353621D01*
G01Y347525D02*
Y348795D01*
G01X295007Y347129D02*
Y348399D01*
G01X293099Y352789D02*
Y354059D01*
G01X294622Y353805D02*
Y352535D01*
G01X305798Y353805D02*
X294622D01*
G01Y347709D02*
X305798D01*
G01X294622Y348979D02*
Y347709D01*
G01X297850Y348308D02*
Y347038D01*
G01X309026Y348308D02*
X297850D01*
G01X292488Y352942D02*
X303664D01*
G01X292488Y354212D02*
Y352942D01*
G01X293099Y357615D02*
Y358885D01*
G01X297789Y363269D02*
X299059D01*
G01X297789Y374445D02*
Y363269D01*
G01X302615D02*
X303885D01*
G01X293099Y368092D02*
Y369362D01*
G01Y363266D02*
Y364536D01*
G01Y368346D02*
Y369616D01*
G01Y362695D02*
Y363965D01*
G01Y357869D02*
Y359139D01*
G01X302551Y358183D02*
X313727D01*
G01X302551Y359453D02*
Y358183D01*
G01Y364279D02*
Y363009D01*
G01X313727Y364279D02*
X302551D01*
G01X292488Y359038D02*
Y357768D01*
G01X303664Y359038D02*
X292488D01*
G01X292170Y364139D02*
Y362869D01*
G01X303346Y364139D02*
X292170D01*
G01Y358043D02*
X303346D01*
G01X292170Y359313D02*
Y358043D01*
G01X292181Y363248D02*
X293451D01*
G01X292181Y374424D02*
Y363248D01*
G01X298277D02*
Y374424D01*
G01X297007Y363248D02*
X298277D01*
G01X299059Y374445D02*
X297789D01*
G01X303885D02*
X302615D01*
G01X300446Y373653D02*
X301716D01*
G01X300446Y384829D02*
Y373653D01*
G01X295254Y373743D02*
X296524D01*
G01X295254Y384919D02*
Y373743D01*
G01X301350D02*
Y384919D01*
G01X300080Y373743D02*
X301350D01*
G01X293099Y373172D02*
Y374442D01*
G01X295953Y373743D02*
Y384919D01*
G01X294683Y373743D02*
X295953D01*
G01X293451Y374424D02*
X292181D01*
G01X298277D02*
X297007D01*
G01X301716Y384829D02*
X300446D01*
G01X296524Y384919D02*
X295254D01*
G01X301350D02*
X300080D01*
G01X295953D02*
X294683D01*
G01X300600Y617900D02*
Y610700D01*
G01D02*
X310800D01*
G01X299844Y623034D02*
X293796D01*
Y611906D01*
X299844D01*
Y623034D01*
G01X310800Y617900D02*
X300600D01*
G01X293800Y621800D02*
Y632000D01*
G01X310724Y624396D02*
Y630444D01*
X299596D01*
Y624396D01*
X310724D01*
G01X298956Y622994D02*
Y616946D01*
X310084D01*
Y622994D01*
X298956D01*
G01X293900Y630900D02*
Y641100D01*
G01X304440Y294889D02*
Y306065D01*
G01X303170Y294889D02*
X304440D01*
G01X309666Y296106D02*
Y307282D01*
G01X308396Y296106D02*
X309666D01*
G01X303570D02*
X304840D01*
G01X303570Y307282D02*
Y296106D01*
G01X310495Y288412D02*
X311765D01*
G01X310495Y299588D02*
Y288412D01*
G01X304440Y306065D02*
X303170D01*
G01X309666Y307282D02*
X308396D01*
G01X304840D02*
X303570D01*
G01X311765Y299588D02*
X310495D01*
G01X307955Y306117D02*
X319131D01*
G01X307955Y307387D02*
Y306117D01*
G01X308712Y300952D02*
X319888D01*
G01X308712Y302222D02*
Y300952D01*
G01Y307048D02*
Y305778D01*
G01X319888Y307048D02*
X308712D01*
G01X308708Y306278D02*
Y307548D01*
G01X307955Y312213D02*
Y310943D01*
G01X319131Y312213D02*
X307955D01*
G01X307461Y311184D02*
X318637D01*
G01X307461Y312454D02*
Y311184D01*
G01Y317280D02*
Y316010D01*
G01X318637Y317280D02*
X307461D01*
G01X306804Y321546D02*
Y332722D01*
G01X305534Y321546D02*
X306804D01*
G01X307461Y316275D02*
X318637D01*
G01X307461Y317545D02*
Y316275D01*
G01Y322371D02*
Y321101D01*
G01X318637Y322371D02*
X307461D01*
G01X312210Y321546D02*
Y332722D01*
G01X310940Y321546D02*
X312210D01*
G01X306114D02*
X307384D01*
G01X306114Y332722D02*
Y321546D01*
G01X308394Y311370D02*
Y322546D01*
G01X307124Y311370D02*
X308394D01*
G01X303302Y316192D02*
Y317462D01*
G01Y311366D02*
Y312636D01*
G01X311334Y321615D02*
X312604D01*
G01X311334Y332791D02*
Y321615D01*
G01X303288Y321278D02*
Y322548D01*
G01Y316452D02*
Y317722D01*
G01X308708Y311104D02*
Y312374D01*
G01X306804Y332722D02*
X305534D01*
G01X312210D02*
X310940D01*
G01X307384D02*
X306114D01*
G01X308394Y322546D02*
X307124D01*
G01X312604Y332791D02*
X311334D01*
G01X304782Y331839D02*
X315958D01*
G01X304782Y333109D02*
Y331839D01*
G01X309026Y342212D02*
Y343482D01*
G01X314473Y341792D02*
X325649D01*
G01X314473Y343062D02*
Y341792D01*
G01X304782Y337935D02*
Y336665D01*
G01X315958Y337935D02*
X304782D01*
G01Y336917D02*
X315958D01*
G01X304782Y338187D02*
Y336917D01*
G01Y343013D02*
Y341743D01*
G01X315958Y343013D02*
X304782D01*
G01X304939Y341850D02*
Y343120D01*
G01Y337024D02*
Y338294D01*
G01X305798Y352535D02*
Y353805D01*
G01Y347709D02*
Y348979D01*
G01X309026Y347038D02*
Y348308D01*
G01X314473Y347888D02*
Y346618D01*
G01X325649Y347888D02*
X314473D01*
G01X304782Y347391D02*
X315958D01*
G01X304782Y348661D02*
Y347391D01*
G01Y353487D02*
Y352217D01*
G01X315958Y353487D02*
X304782D01*
G01X303664Y352942D02*
Y354212D01*
G01X314588Y352952D02*
Y354222D01*
G01X303412Y352952D02*
X314588D01*
G01X303412Y354222D02*
Y352952D01*
G01X303084Y363276D02*
X304354D01*
G01X303084Y374452D02*
Y363276D01*
G01X309180D02*
Y374452D01*
G01X307910Y363276D02*
X309180D01*
G01X313974Y362929D02*
X315244D01*
G01X313974Y374105D02*
Y362929D01*
G01X303885Y363269D02*
Y374445D01*
G01X313727Y358183D02*
Y359453D01*
G01Y363009D02*
Y364279D01*
G01X303664Y357768D02*
Y359038D01*
G01X303412Y359048D02*
Y357778D01*
G01X314588Y359048D02*
X303412D01*
G01X314588Y357778D02*
Y359048D01*
G01X303346Y362869D02*
Y364139D01*
G01Y358043D02*
Y359313D01*
G01X308402Y363273D02*
X309672D01*
G01X308402Y374449D02*
Y363273D01*
G01X314498D02*
Y374449D01*
G01X313228Y363273D02*
X314498D01*
G01X304354Y374452D02*
X303084D01*
G01X309180D02*
X307910D01*
G01X315244Y374105D02*
X313974D01*
G01X306542Y373653D02*
Y384829D01*
G01X305272Y373653D02*
X306542D01*
G01X308275Y373428D02*
X319451D01*
G01X308275Y374698D02*
Y373428D01*
G01Y379524D02*
Y378254D01*
G01X319451Y379524D02*
X308275D01*
G01X313789Y378540D02*
X315059D01*
G01X313789Y389716D02*
Y378540D01*
G01X309672Y374449D02*
X308402D01*
G01X314498D02*
X313228D01*
G01X306542Y384829D02*
X305272D01*
G01X315059Y389716D02*
X313789D01*
G01X310100Y618000D02*
Y610800D01*
G01D02*
X320300D01*
G01X310800Y610700D02*
Y617900D01*
G01X320300Y618000D02*
X310100D01*
G01X316224Y628064D02*
X310176D01*
Y616936D01*
X316224D01*
Y628064D01*
G01X316591Y288412D02*
Y299588D01*
G01X315321Y288412D02*
X316591D01*
G01X319304Y299863D02*
Y298593D01*
G01Y293767D02*
X330480D01*
G01X319304Y295037D02*
Y293767D01*
G01Y298863D02*
X330480D01*
G01X319304Y300133D02*
Y298863D01*
G01X316591Y299588D02*
X315321D01*
G01X319131Y306117D02*
Y307387D01*
G01X330480Y299863D02*
X319304D01*
G01X319888Y300952D02*
Y302222D01*
G01Y305778D02*
Y307048D01*
G01X319304Y310065D02*
Y308795D01*
G01X330480Y310065D02*
X319304D01*
G01Y303969D02*
X330480D01*
G01X319304Y305239D02*
Y303969D01*
G01X318032Y309684D02*
X329208D01*
G01X318032Y310954D02*
Y309684D01*
G01X319304Y304959D02*
Y303689D01*
G01X330480Y304959D02*
X319304D01*
G01X317710Y314958D02*
X328886D01*
G01X317710Y316228D02*
Y314958D01*
G01Y321054D02*
Y319784D01*
G01X328886Y321054D02*
X317710D01*
G01X319131Y310943D02*
Y312213D01*
G01X318637Y311184D02*
Y312454D01*
G01Y316010D02*
Y317280D01*
G01Y316275D02*
Y317545D01*
G01Y321101D02*
Y322371D01*
G01X317430Y321615D02*
Y332791D01*
G01X316160Y321615D02*
X317430D01*
G01X317710Y320037D02*
X328886D01*
G01X317710Y321307D02*
Y320037D01*
G01X318032Y315780D02*
Y314510D01*
G01X329208Y315780D02*
X318032D01*
G01X317430Y332791D02*
X316160D01*
G01X315577Y331520D02*
X326753D01*
G01X315577Y332790D02*
Y331520D01*
G01X317710Y326133D02*
Y324863D01*
G01X328886Y326133D02*
X317710D01*
G01X315958Y331839D02*
Y333109D01*
G01X317799Y325172D02*
X328975D01*
G01X317799Y326442D02*
Y325172D01*
G01Y331268D02*
Y329998D01*
G01X328975Y331268D02*
X317799D01*
G01X315577Y337616D02*
Y336346D01*
G01X326753Y337616D02*
X315577D01*
G01X325649Y341792D02*
Y343062D01*
G01X315958Y336665D02*
Y337935D01*
G01Y336917D02*
Y338187D01*
G01Y341743D02*
Y343013D01*
G01X315259Y342695D02*
Y341425D01*
G01X326435Y342695D02*
X315259D01*
G01Y336599D02*
X326435D01*
G01X315259Y337869D02*
Y336599D01*
G01X325411Y341834D02*
X326681D01*
G01X325411Y353010D02*
Y341834D01*
G01X325649Y346618D02*
Y347888D01*
G01X315958Y347391D02*
Y348661D01*
G01Y352217D02*
Y353487D01*
G01X314942Y353173D02*
Y351903D01*
G01X326118Y353173D02*
X314942D01*
G01X326118Y351903D02*
Y353173D01*
G01Y347077D02*
Y348347D01*
G01X314942Y347077D02*
X326118D01*
G01X314942Y348347D02*
Y347077D01*
G01X318117Y352158D02*
X329293D01*
G01X318117Y353428D02*
Y352158D01*
G01Y358254D02*
Y356984D01*
G01X326681Y353010D02*
X325411D01*
G01X320070Y362929D02*
Y374105D01*
G01X318800Y362929D02*
X320070D01*
G01X325422Y366505D02*
Y365235D01*
G01X336598Y366505D02*
X325422D01*
G01Y360409D02*
X336598D01*
G01X325422Y361679D02*
Y360409D01*
G01X329293Y358254D02*
X318117D01*
G01X315259Y363651D02*
Y362381D01*
G01X326435Y363651D02*
X315259D01*
G01Y357555D02*
X326435D01*
G01X315259Y358825D02*
Y357555D01*
G01X324786Y365489D02*
X326056D01*
G01X324786Y376665D02*
Y365489D01*
G01X319071Y362945D02*
X320341D01*
G01X319071Y374121D02*
Y362945D01*
G01X325167D02*
Y374121D01*
G01X323897Y362945D02*
X325167D01*
G01X320070Y374105D02*
X318800D01*
G01X319054Y373105D02*
X320324D01*
G01X319054Y384281D02*
Y373105D01*
G01X325150D02*
Y384281D01*
G01X323880Y373105D02*
X325150D01*
G01X319451Y373428D02*
Y374698D01*
G01Y378254D02*
Y379524D01*
G01X319885Y378540D02*
Y389716D01*
G01X318615Y378540D02*
X319885D01*
G01X326056Y376665D02*
X324786D01*
G01X320341Y374121D02*
X319071D01*
G01X325167D02*
X323897D01*
G01X320324Y384281D02*
X319054D01*
G01X325150D02*
X323880D01*
G01X319885Y389716D02*
X318615D01*
G01X323300Y536550D02*
Y517050D01*
G01D02*
X346800D01*
X349300Y519550D01*
Y536550D01*
G01D02*
X323300D01*
G01X320300Y610800D02*
Y618000D01*
G01X374100Y25400D02*
G03I-18500J0D01*
G01X329736Y138424D02*
Y132376D01*
X340864D01*
Y138424D01*
X329736D01*
G01X333205Y193006D02*
X344381D01*
G01X333205Y194276D02*
Y193006D01*
G01Y199102D02*
Y197832D01*
G01X344381Y199102D02*
X333205D01*
G01Y205452D02*
Y204182D01*
G01Y199356D02*
X344381D01*
G01X333205Y200626D02*
Y199356D01*
G01Y211802D02*
Y210532D01*
G01X344381Y211802D02*
X333205D01*
G01Y205706D02*
X344381D01*
G01X333205Y206976D02*
Y205706D01*
G01X344381Y205452D02*
X333205D01*
G01X337747Y226416D02*
X348923D01*
G01X337747Y227686D02*
Y226416D01*
G01X344024Y250564D02*
X337976D01*
Y239436D01*
X344024D01*
Y250564D01*
G01X337747Y232512D02*
Y231242D01*
G01X348923Y232512D02*
X337747D01*
G01X337732Y238862D02*
Y237592D01*
G01X348908Y238862D02*
X337732D01*
G01Y232766D02*
X348908D01*
G01X337732Y234036D02*
Y232766D01*
G01X344024Y261064D02*
X337976D01*
Y249936D01*
X344024D01*
Y261064D01*
G01X354141Y292818D02*
X335853D01*
G01D02*
Y294647D01*
G01X335742Y293880D02*
Y305056D01*
G01X334472Y293880D02*
X335742D01*
G01X329646D02*
X330916D01*
G01X329646Y305056D02*
Y293880D01*
G01X330480Y298593D02*
Y299863D01*
G01Y293767D02*
Y295037D01*
G01Y298863D02*
Y300133D01*
G01X335853Y300489D02*
Y302318D01*
G01D02*
X354141D01*
G01X335742Y305056D02*
X334472D01*
G01X330916D02*
X329646D01*
G01X329546Y310305D02*
Y309035D01*
G01X340722Y310305D02*
X329546D01*
G01Y304209D02*
X340722D01*
G01X329546Y305479D02*
Y304209D01*
G01X330480Y308795D02*
Y310065D01*
G01Y303969D02*
Y305239D01*
G01X329208Y309684D02*
Y310954D01*
G01X330480Y303689D02*
Y304959D01*
G01X328412Y310452D02*
X339588D01*
G01X328412Y311722D02*
Y310452D01*
G01X328886Y314958D02*
Y316228D01*
G01Y319784D02*
Y321054D01*
G01X328060Y319634D02*
X339236D01*
G01X328060Y320904D02*
Y319634D01*
G01X328886Y320037D02*
Y321307D01*
G01X329208Y314510D02*
Y315780D01*
G01X328412Y316548D02*
Y315278D01*
G01X339588Y316548D02*
X328412D01*
G01X326753Y331520D02*
Y332790D01*
G01X328060Y325730D02*
Y324460D01*
G01X339236Y325730D02*
X328060D01*
G01X328886Y324863D02*
Y326133D01*
G01X332412Y332452D02*
X343588D01*
G01X332412Y333722D02*
Y332452D01*
G01X328975Y325172D02*
Y326442D01*
G01Y329998D02*
Y331268D01*
G01X328060Y331136D02*
Y329866D01*
G01X339236Y331136D02*
X328060D01*
G01Y325040D02*
X339236D01*
G01X328060Y326310D02*
Y325040D01*
G01X333104Y330249D02*
Y341425D01*
G01X331834Y330249D02*
X333104D01*
G01X327008D02*
X328278D01*
G01X327008Y341425D02*
Y330249D01*
G01X326753Y336346D02*
Y337616D01*
G01X330501Y343269D02*
X341677D01*
G01X330501Y344539D02*
Y343269D01*
G01X332194Y344174D02*
Y342904D01*
G01X343370Y344174D02*
X332194D01*
G01Y338078D02*
X343370D01*
G01X332194Y339348D02*
Y338078D01*
G01X332412Y338548D02*
Y337278D01*
G01X343588Y338548D02*
X332412D01*
G01X333104Y341425D02*
X331834D01*
G01X328278D02*
X327008D01*
G01X326435D02*
Y342695D01*
G01Y336599D02*
Y337869D01*
G01X331507Y341834D02*
Y353010D01*
G01X330237Y341834D02*
X331507D01*
G01X330501Y349365D02*
Y348095D01*
G01X341677Y349365D02*
X330501D01*
G01X330604Y354668D02*
Y353398D01*
G01X341780Y354668D02*
X330604D01*
G01Y348572D02*
X341780D01*
G01X330604Y349842D02*
Y348572D01*
G01X329293Y352158D02*
Y353428D01*
G01Y356984D02*
Y358254D01*
G01X331507Y353010D02*
X330237D01*
G01X330604Y353660D02*
X341780D01*
G01X330604Y354930D02*
Y353660D01*
G01X336598Y365235D02*
Y366505D01*
G01Y360409D02*
Y361679D01*
G01X330183Y368987D02*
X331453D01*
G01X330183Y380163D02*
Y368987D01*
G01X336279D02*
Y380163D01*
G01X335009Y368987D02*
X336279D01*
G01X335370Y366066D02*
X336640D01*
G01X335370Y377242D02*
Y366066D01*
G01X326435Y362381D02*
Y363651D01*
G01Y357555D02*
Y358825D01*
G01X330882Y365489D02*
Y376665D01*
G01X329612Y365489D02*
X330882D01*
G01X330604Y359756D02*
Y358486D01*
G01X341780Y359756D02*
X330604D01*
G01X331453Y380163D02*
X330183D01*
G01X336279D02*
X335009D01*
G01X336640Y377242D02*
X335370D01*
G01X330882Y376665D02*
X329612D01*
G01X367620Y60106D02*
Y68694D01*
X349380D01*
Y60106D01*
X367620D01*
G01X339936Y138424D02*
Y132376D01*
X351064D01*
Y138424D01*
X339936D01*
G01X339728Y143007D02*
Y288007D01*
G01X342774Y152640D02*
X353950D01*
G01X342774Y153910D02*
Y152640D01*
G01Y158736D02*
Y157466D01*
G01Y157694D02*
X353950D01*
G01X342774Y158964D02*
Y157694D01*
G01X353950Y158736D02*
X342774D01*
G01Y163790D02*
Y162520D01*
G01X353950Y163790D02*
X342774D01*
G01X344381Y193006D02*
Y194276D01*
G01Y197832D02*
Y199102D01*
G01Y204182D02*
Y205452D01*
G01Y199356D02*
Y200626D01*
G01Y210532D02*
Y211802D01*
G01Y205706D02*
Y206976D01*
G01X348923Y226416D02*
Y227686D01*
G01Y231242D02*
Y232512D01*
G01X348908Y237592D02*
Y238862D01*
G01Y232766D02*
Y234036D01*
G01X345918Y304374D02*
Y315550D01*
G01X344648Y304374D02*
X345918D01*
G01X339822D02*
X341092D01*
G01X339822Y315550D02*
Y304374D01*
G01X340722Y309035D02*
Y310305D01*
G01Y304209D02*
Y305479D01*
G01X339588Y310452D02*
Y311722D01*
G01X339236Y319634D02*
Y320904D01*
G01X345918Y315550D02*
X344648D01*
G01X341092D02*
X339822D01*
G01X339588Y315278D02*
Y316548D01*
G01X339236Y324460D02*
Y325730D01*
G01X343588Y332452D02*
Y333722D01*
G01X339236Y329866D02*
Y331136D01*
G01Y325040D02*
Y326310D01*
G01X346940Y356846D02*
X340892D01*
Y345718D01*
X346940D01*
Y356846D01*
G01X341677Y343269D02*
Y344539D01*
G01X343370Y342904D02*
Y344174D01*
G01Y338078D02*
Y339348D01*
G01X342412Y346648D02*
Y345378D01*
G01Y340552D02*
X353588D01*
G01X342412Y341822D02*
Y340552D01*
G01X343588Y337278D02*
Y338548D01*
G01X341677Y348095D02*
Y349365D01*
G01X341780Y353398D02*
Y354668D01*
G01Y348572D02*
Y349842D01*
G01X353588Y346648D02*
X342412D01*
G01X341780Y353660D02*
Y354930D01*
G01X341466Y366066D02*
Y377242D01*
G01X340196Y366066D02*
X341466D01*
G01X341780Y358486D02*
Y359756D01*
G01X341466Y377242D02*
X340196D01*
G01X348848Y497312D02*
Y508488D01*
G01X347578Y497312D02*
X348848D01*
G01X342752D02*
X344022D01*
G01X342752Y508488D02*
Y497312D01*
G01X348848Y508488D02*
X347578D01*
G01X344022D02*
X342752D01*
G01X348012Y506852D02*
X359188D01*
G01X348012Y508122D02*
Y506852D01*
G01Y507848D02*
Y506578D01*
G01X359188Y507848D02*
X348012D01*
G01Y501752D02*
X359188D01*
G01X348012Y503022D02*
Y501752D01*
G01Y512948D02*
Y511678D01*
G01X359188Y512948D02*
X348012D01*
G01X360436Y138424D02*
Y132376D01*
X371564D01*
Y138424D01*
X360436D01*
G01X350136D02*
Y132376D01*
X361264D01*
Y138424D01*
X350136D01*
G01X353950Y152640D02*
Y153910D01*
G01Y157466D02*
Y158736D01*
G01Y157694D02*
Y158964D01*
G01X359586Y157362D02*
Y156092D01*
G01X370762Y157362D02*
X359586D01*
G01Y151266D02*
X370762D01*
G01X359586Y152536D02*
Y151266D01*
G01X353950Y162520D02*
Y163790D01*
G01X354141Y294647D02*
Y292818D01*
G01Y302318D02*
Y300489D01*
G01X353588Y345378D02*
Y346648D01*
G01Y340552D02*
Y341822D01*
G01X377820Y503206D02*
Y511794D01*
X359580D01*
Y503206D01*
X377820D01*
G01X359188Y506852D02*
Y508122D01*
G01Y506578D02*
Y507848D01*
G01Y501752D02*
Y503022D01*
G01X364034Y518446D02*
Y524494D01*
X352906D01*
Y518446D01*
X364034D01*
G01X359188Y511678D02*
Y512948D01*
G01X352812Y512152D02*
X363988D01*
G01X352812Y513422D02*
Y512152D01*
G01Y518248D02*
Y516978D01*
G01X363988Y518248D02*
X352812D01*
G01X360352Y526012D02*
X361622D01*
G01X360352Y537188D02*
Y526012D01*
G01X355132Y526002D02*
X356402D01*
G01X355132Y537178D02*
Y526002D01*
G01X361228D02*
Y537178D01*
G01X359958Y526002D02*
X361228D01*
G01X361622Y537188D02*
X360352D01*
G01X356402Y537178D02*
X355132D01*
G01X361228D02*
X359958D01*
G01X387020Y58206D02*
Y66794D01*
X368780D01*
Y58206D01*
X387020D01*
G01X370762Y156092D02*
Y157362D01*
G01Y151266D02*
Y152536D01*
G01X369824Y166624D02*
X381000D01*
G01X369824Y167894D02*
Y166624D01*
G01X373050Y173816D02*
Y175086D01*
G01X361874Y173816D02*
X373050D01*
G01X361874Y175086D02*
Y173816D01*
G01Y179912D02*
Y178642D01*
G01X373050Y179912D02*
X361874D01*
G01X373050Y178642D02*
Y179912D01*
G01X369824Y172720D02*
Y171450D01*
G01X381000Y172720D02*
X369824D01*
G01X363676Y307550D02*
X374852D01*
G01X363676Y308820D02*
Y307550D01*
G01Y313646D02*
Y312376D01*
G01X374852Y313646D02*
X363676D01*
G01X363040Y328592D02*
Y327322D01*
G01X374216Y328592D02*
X363040D01*
G01Y322496D02*
X374216D01*
G01X363040Y323766D02*
Y322496D01*
G01X368128Y367070D02*
Y365800D01*
G01X379304Y367070D02*
X368128D01*
G01Y360974D02*
X379304D01*
G01X368128Y362244D02*
Y360974D01*
G01X369082Y381008D02*
X380258D01*
G01X369082Y382278D02*
Y381008D01*
G01Y387104D02*
Y385834D01*
G01X380258Y387104D02*
X369082D01*
G01X363988Y512152D02*
Y513422D01*
G01Y516978D02*
Y518248D01*
G01X366448Y526012D02*
Y537188D01*
G01X365178Y526012D02*
X366448D01*
G01X365452D02*
X366722D01*
G01X365452Y537188D02*
Y526012D01*
G01X371548D02*
Y537188D01*
G01X370278Y526012D02*
X371548D01*
G01X366448Y537188D02*
X365178D01*
G01X366722D02*
X365452D01*
G01X371548D02*
X370278D01*
G01X381000Y166624D02*
Y167894D01*
G01X384474Y180010D02*
Y191186D01*
G01X383204Y180010D02*
X384474D01*
G01X378378D02*
X379648D01*
G01X378378Y191186D02*
Y180010D01*
G01X381000Y171450D02*
Y172720D01*
G01X384474Y191186D02*
X383204D01*
G01X379648D02*
X378378D01*
G01X378626Y273520D02*
X389802D01*
G01X378626Y274790D02*
Y273520D01*
G01Y279616D02*
Y278346D01*
G01X389802Y279616D02*
X378626D01*
G01X373216Y297110D02*
Y295840D01*
G01X384392Y297110D02*
X373216D01*
G01X384392Y295840D02*
Y297110D01*
G01Y291014D02*
Y292284D01*
G01X373216Y291014D02*
X384392D01*
G01X373216Y292284D02*
Y291014D01*
G01X374852Y307550D02*
Y308820D01*
G01X381952Y310412D02*
X383222D01*
G01X381952Y321588D02*
Y310412D01*
G01X374852Y312376D02*
Y313646D01*
G01X383222Y321588D02*
X381952D01*
G01X384500Y328500D02*
Y325710D01*
X397500D01*
Y328500D01*
G01X374216Y327322D02*
Y328592D01*
G01Y322496D02*
Y323766D01*
G01X384500Y349500D02*
Y352290D01*
X397500D01*
Y349500D01*
G01X382412Y350952D02*
X393588D01*
G01X382412Y352222D02*
Y350952D01*
G01Y357048D02*
Y355778D01*
G01X393588Y357048D02*
X382412D01*
G01X379304Y365800D02*
Y367070D01*
G01Y360974D02*
Y362244D01*
G01X374488Y393782D02*
Y392512D01*
G01Y387686D02*
X385664D01*
G01X374488Y388956D02*
Y387686D01*
G01X380258Y381008D02*
Y382278D01*
G01Y385834D02*
Y387104D01*
G01X385664Y393782D02*
X374488D01*
G01X380052Y522612D02*
X381322D01*
G01X380052Y533788D02*
Y522612D01*
G01X384878D02*
X386148D01*
G01X374952Y522512D02*
X376222D01*
G01X374952Y533688D02*
Y522512D01*
G01X381048D02*
Y533688D01*
G01X379778Y522512D02*
X381048D01*
G01X381322Y533788D02*
X380052D01*
G01X386148D02*
X384878D01*
G01X376222Y533688D02*
X374952D01*
G01X381048D02*
X379778D01*
G01X406120Y40006D02*
Y48594D01*
X387880D01*
Y40006D01*
X406120D01*
G01X386806Y48480D02*
X395394D01*
Y66720D01*
X386806D01*
Y48480D01*
G01X386772Y148328D02*
Y142232D01*
G01D02*
X397948D01*
G01Y148328D02*
X386772D01*
G01X389802Y273520D02*
Y274790D01*
G01Y278346D02*
Y279616D01*
G01X394024Y321564D02*
X387976D01*
Y310436D01*
X394024D01*
Y321564D01*
G01X388048Y310412D02*
Y321588D01*
G01X386778Y310412D02*
X388048D01*
G01Y321588D02*
X386778D01*
G01X395476Y316826D02*
Y315556D01*
G01X406652Y316826D02*
X395476D01*
G01Y310730D02*
X406652D01*
G01X395476Y312000D02*
Y310730D01*
G01X389500Y352290D02*
G03X392500I1500J0D01*
G01X406564Y350976D02*
Y357024D01*
X395436D01*
Y350976D01*
X406564D01*
G01X393588Y350952D02*
Y352222D01*
G01Y355778D02*
Y357048D01*
G01X396112Y376610D02*
Y375340D01*
G01X407288Y376610D02*
X396112D01*
G01Y370514D02*
X407288D01*
G01X396112Y371784D02*
Y370514D01*
G01X385664Y392512D02*
Y393782D01*
G01Y387686D02*
Y388956D01*
G01X389752Y387740D02*
Y386470D01*
G01X400928Y387740D02*
X389752D01*
G01Y381644D02*
X400928D01*
G01X389752Y382914D02*
Y381644D01*
G01X386206Y504680D02*
X394794D01*
Y522920D01*
X386206D01*
Y504680D01*
G01X386148Y522612D02*
Y533788D01*
G01X385652Y522612D02*
X386922D01*
G01X385652Y533788D02*
Y522612D01*
G01X391748D02*
Y533788D01*
G01X390478Y522612D02*
X391748D01*
G01X386922Y533788D02*
X385652D01*
G01X391748D02*
X390478D01*
G01X397506Y49280D02*
X406094D01*
Y67520D01*
X397506D01*
Y49280D01*
G01X406002Y44232D02*
X414590D01*
Y62472D01*
X406002D01*
Y44232D01*
G01X397948Y142232D02*
Y148328D01*
G01X408242Y272252D02*
Y273522D01*
G01X397066Y272252D02*
X408242D01*
G01X397066Y273522D02*
Y272252D01*
G01X410500Y285710D02*
G03X407500I-1500J0D01*
G01X415500Y288500D02*
Y285710D01*
X402500D01*
Y288500D01*
G01X397066Y278348D02*
Y277078D01*
G01X408242Y278348D02*
X397066D01*
G01X408242Y277078D02*
Y278348D01*
G01X415500Y309500D02*
Y312290D01*
X402500D01*
Y309500D01*
G01X406952Y311412D02*
X408222D01*
G01X406952Y322588D02*
Y311412D01*
G01X406652Y315556D02*
Y316826D01*
G01Y310730D02*
Y312000D01*
G01X408222Y322588D02*
X406952D01*
G01X405952Y336412D02*
X407222D01*
G01X405952Y347588D02*
Y336412D01*
G01X407222Y347588D02*
X405952D01*
G01X407288Y375340D02*
Y376610D01*
G01Y370514D02*
Y371784D01*
G01X403952Y389412D02*
X405222D01*
G01X403952Y400588D02*
Y389412D01*
G01X400928Y386470D02*
Y387740D01*
G01Y381644D02*
Y382914D01*
G01X405222Y400588D02*
X403952D01*
G01X414578Y408062D02*
Y414110D01*
X403450D01*
Y408062D01*
X414578D01*
G01X400000Y535550D02*
Y516050D01*
G01D02*
X423500D01*
X426000Y518550D01*
Y535550D01*
G01D02*
X400000D01*
G01X415224Y44232D02*
X423812D01*
Y62472D01*
X415224D01*
Y44232D01*
G01X419024Y322564D02*
X412976D01*
Y311436D01*
X419024D01*
Y322564D01*
G01X413048Y311412D02*
Y322588D01*
G01X411778Y311412D02*
X413048D01*
G01X418952D02*
X420222D01*
G01X418952Y322588D02*
Y311412D01*
G01X425024Y333564D02*
X418976D01*
Y322436D01*
X425024D01*
Y333564D01*
G01X413048Y322588D02*
X411778D01*
G01X420222D02*
X418952D01*
G01X418024Y347564D02*
X411976D01*
Y336436D01*
X418024D01*
Y347564D01*
G01X412048Y336412D02*
Y347588D01*
G01X410778Y336412D02*
X412048D01*
G01Y347588D02*
X410778D01*
G01X410048Y389412D02*
Y400588D01*
G01X408778Y389412D02*
X410048D01*
G01Y400588D02*
X408778D01*
G01X408850Y484000D02*
X428350D01*
G01X408850Y510000D02*
Y484000D01*
G01X428350D02*
Y507500D01*
X425850Y510000D01*
X408850D01*
G01X424446Y44232D02*
X433034D01*
Y62472D01*
X424446D01*
Y44232D01*
G01X427272Y272892D02*
X428542D01*
G01X427272Y284068D02*
Y272892D01*
G01X428542Y284068D02*
X427272D01*
G01X425048Y311412D02*
Y322588D01*
G01X423778Y311412D02*
X425048D01*
G01Y322588D02*
X423778D01*
G01X422535Y422524D02*
Y416476D01*
X433663D01*
Y422524D01*
X422535D01*
G01X431600Y483400D02*
Y473200D01*
G01D02*
X438800D01*
G01Y483400D02*
X431600D01*
G01X433668Y44232D02*
X442256D01*
Y62472D01*
X433668D01*
Y44232D01*
G01X442890D02*
X451478D01*
Y62472D01*
X442890D01*
Y44232D01*
G01X433368Y272892D02*
Y284068D01*
G01X432098Y272892D02*
X433368D01*
G01Y284068D02*
X432098D01*
G01X441500Y305710D02*
G03X438500I-1500J0D01*
G01X446500Y308500D02*
Y305710D01*
X433500D01*
Y308500D01*
G01X446500Y329500D02*
Y332290D01*
X433500D01*
Y329500D01*
G01X437412Y330952D02*
X448588D01*
G01X437412Y332222D02*
Y330952D01*
G01Y337048D02*
Y335778D01*
G01X448588Y337048D02*
X437412D01*
G01X436600Y455600D02*
Y424600D01*
X454600D01*
X457600Y427600D01*
Y455600D01*
X436600D01*
G01X436712Y455852D02*
X447888D01*
G01X436712Y457122D02*
Y455852D01*
G01Y461948D02*
Y460678D01*
G01X447888Y461948D02*
X436712D01*
G01X443100Y480600D02*
Y470400D01*
G01D02*
X450300D01*
G01X438800Y473200D02*
Y483400D01*
G01X450300Y480600D02*
X443100D01*
G01X452112Y44232D02*
X460700D01*
Y62472D01*
X452112D01*
Y44232D01*
G01X469344Y286150D02*
X451056D01*
G01D02*
Y287979D01*
G01Y293821D02*
Y295650D01*
G01D02*
X469344D01*
G01X444762Y306964D02*
Y305694D01*
G01X455938Y306964D02*
X444762D01*
G01Y300868D02*
X455938D01*
G01X444762Y302138D02*
Y300868D01*
G01X459564Y330976D02*
Y337024D01*
X448436D01*
Y330976D01*
X459564D01*
G01X448588Y330952D02*
Y332222D01*
G01Y335778D02*
Y337048D01*
G01X457600Y437100D02*
G02Y443100I0J3000D01*
G01X451636Y455954D02*
X457684D01*
Y467082D01*
X451636D01*
Y455954D01*
G01X447888Y455852D02*
Y457122D01*
G01Y460678D02*
Y461948D01*
G01X450300Y470400D02*
Y480600D01*
G01X457684Y477750D02*
X451636D01*
Y466622D01*
X457684D01*
Y477750D01*
G01X461334Y44232D02*
X469922D01*
Y62472D01*
X461334D01*
Y44232D01*
G01X456099Y115331D02*
X459199D01*
Y85329D01*
X456099D01*
G01X455938Y305694D02*
Y306964D01*
G01Y300868D02*
Y302138D01*
G01X465168Y311370D02*
Y322546D01*
G01X463898Y311370D02*
X465168D01*
G01X459072D02*
X460342D01*
G01X459072Y322546D02*
Y311370D01*
G01X465168Y322546D02*
X463898D01*
G01X460342D02*
X459072D01*
G01X464850Y323772D02*
Y334948D01*
G01X463580Y323772D02*
X464850D01*
G01X458754D02*
X460024D01*
G01X458754Y334948D02*
Y323772D01*
G01X464850Y334948D02*
X463580D01*
G01X460024D02*
X458754D01*
G01X456532Y346664D02*
X467708D01*
G01X456532Y347934D02*
Y346664D01*
G01Y352760D02*
Y351490D01*
G01X467708Y352760D02*
X456532D01*
G01X464948Y431512D02*
Y442688D01*
G01X463678Y431512D02*
X464948D01*
G01X458852D02*
X460122D01*
G01X458852Y442688D02*
Y431512D01*
G01X459976Y446136D02*
X466024D01*
Y457264D01*
X459976D01*
Y446136D01*
G01X464948Y442688D02*
X463678D01*
G01X460122D02*
X458852D01*
G01X458240Y467082D02*
Y461034D01*
X469368D01*
Y467082D01*
X458240D01*
G01Y472670D02*
Y466622D01*
X469368D01*
Y472670D01*
X458240D01*
G01X456100Y583960D02*
X459200D01*
Y553960D01*
X456100D01*
G01X469344Y287979D02*
Y286150D01*
G01Y295650D02*
Y293821D01*
G01X467708Y346664D02*
Y347934D01*
G01Y351490D02*
Y352760D01*
G01X526500Y533400D02*
G03I-18500J0D01*
M02*
