G04 ================== begin FILE IDENTIFICATION RECORD ==================*
G04 Layout Name:  U:/Project/48DMVQAD1.SGB/BRD/48DMVQAD1_SGB-20250729a4.brd*
G04 Film Name:    v4*
G04 File Format:  Gerber RS274X*
G04 File Origin:  Cadence Allegro 17.4-S029*
G04 Origin Date:  Tue Jul 29 17:18:18 2025*
G04 *
G04 Layer:  DRAWING FORMAT/TITLE_DATA_V4*
G04 Layer:  DRAWING FORMAT/TITLE_BLOCK*
G04 Layer:  DRAWING FORMAT/OUTLINE*
G04 Layer:  ETCH/V4*
G04 Layer:  MANUFACTURING/PHOTOPLOT_OUTLINE*
G04 Layer:  PIN/V4*
G04 Layer:  VIA CLASS/V4*
G04 *
G04 Offset:    (0.0000 0.0000)*
G04 Mirror:    No*
G04 Mode:      Positive*
G04 Rotation:  0*
G04 FullContactRelief:  No*
G04 UndefLineWidth:     0.1270*
G04 ================== end FILE IDENTIFICATION RECORD ====================*
%FSLAX44Y44*MOMM*%
%IR0*IPPOS*OFA0.00000B0.00000*MIA0B0*SFA1.00000B1.00000*%
%ADD19C,.5*%
%ADD14C,.8*%
%ADD10C,.35*%
%ADD11C,.4064*%
%ADD16O,1.X2.1*%
%ADD17O,1.4X1.1*%
%ADD18O,1.2X2.7*%
%ADD12C,3.2*%
%ADD13C,1.8*%
%ADD15C,1.96*%
%ADD20C,.3*%
%ADD21C,.203*%
%ADD22C,.2032*%
%ADD23C,.254*%
%ADD24C,.524*%
%ADD31C,.4504*%
%ADD29C,.6044*%
%ADD32C,.6608*%
%ADD27C,2.0604*%
%ADD28C,2.1128*%
%ADD30C,2.0544*%
%ADD33C,1.3084*%
%ADD26C,3.7084*%
%ADD25O,1.4544X2.9544*%
G75*
%LPD*%
G75*
G36*
G01X220082Y680720D02*
X523400D01*
G02X528320Y675800I-4J-4924D01*
G01Y42743D01*
X516057Y30480D01*
X401757D01*
X376357Y5080D01*
X52903D01*
X27503Y30480D01*
X10000D01*
G02X5080Y35400I3J4923D01*
G01Y640798D01*
X220082D01*
Y680720D01*
G37*
%LPC*%
G75*
G36*
G01X166352Y25074D02*
G03X166742Y25676I-85J482D01*
G02X166650Y26416I2930J740D01*
G02X172694I3022J0D01*
G02X170198Y23440I-3022J0D01*
G03X169808Y22838I85J-482D01*
G02X169900Y22098I-2930J-740D01*
G02X167548Y19151I-3022J0D01*
G03X167194Y18513I109J-478D01*
G02X167360Y17526I-2856J-988D01*
G02X167359Y17450I-3022J2D01*
G03X167926Y16954I490J-12D01*
G02X168402Y16992I478J-2984D01*
G02X170971Y15561I0J-3021D01*
G03X171715Y15455I416J258D01*
G02X173736Y16230I2021J-2248D01*
G02Y10186I0J-3022D01*
G02X171167Y11617I0J3021D01*
G03X170423Y11723I-416J-258D01*
G02X168402Y10948I-2021J2248D01*
G02X165380Y13970I0J3022D01*
G02X165381Y14046I3022J-2D01*
G03X164814Y14542I-490J12D01*
G02X164338Y14504I-478J2984D01*
G02X161316Y17526I0J3022D01*
G02X163668Y20473I3022J0D01*
G03X164022Y21111I-109J478D01*
G02X163856Y22098I2856J988D01*
G02X166352Y25074I3022J0D01*
G37*
G36*
G01X405597Y44952D02*
G03X406061Y45595I-1J490D01*
G02X405948Y46300I2139J704D01*
G02X410452I2252J0D01*
G02X408203Y44048I-2252J0D01*
G03X407739Y43405I1J-490D01*
G02X407852Y42700I-2139J-704D01*
G02X403348I-2252J0D01*
G02X405597Y44952I2252J0D01*
G37*
G36*
G01X40727Y45737D02*
G03X41063Y46363I-129J473D01*
G02X40896Y47400I3136J1037D01*
G02X47504I3304J0D01*
G02X45073Y44213I-3305J0D01*
G03X44737Y43587I129J-473D01*
G02X44904Y42550I-3136J-1037D01*
G02X38296I-3304J0D01*
G02X40727Y45737I3305J0D01*
G37*
G36*
G01X195599Y67327D02*
G02X193400Y66378I-2199J2073D01*
G02Y72422I0J3022D01*
G02X195501Y71573I1J-3022D01*
G02X197700Y72522I2199J-2073D01*
G02X199684Y71779I-1J-3022D01*
G03X200014Y71787I161J185D01*
G02X202100Y72622I2086J-2188D01*
G02Y66578I0J-3022D01*
G02X200116Y67321I1J3022D01*
G03X199786Y67313I-161J-185D01*
G02X197700Y66478I-2086J2188D01*
G02X195599Y67327I-1J3022D01*
G37*
G36*
G01X40573Y71976D02*
G03X40606Y72809I-241J427D01*
G02X39146Y75550I1843J2741D01*
G02X45754I3304J0D01*
G02X44077Y72674I-3305J0D01*
G03X44044Y71841I241J-427D01*
G02X45504Y69100I-1843J-2741D01*
G02X44553Y66781I-3303J0D01*
G03X44592Y66057I349J-344D01*
G02X45804Y63500I-2091J-2557D01*
G02X39196I-3304J0D01*
G02X40147Y65819I3303J0D01*
G03X40108Y66543I-349J344D01*
G02X38896Y69100I2091J2557D01*
G02X40573Y71976I3305J0D01*
G37*
G36*
G01X461422Y135423D02*
G03Y136103I-352J340D01*
G02X460790Y137668I1620J1564D01*
G02X465294I2252J0D01*
G02X464662Y136103I-2252J-1D01*
G03Y135423I352J-340D01*
G02X465294Y133858I-1620J-1564D01*
G02X464662Y132293I-2252J-1D01*
G03Y131613I352J-340D01*
G02X465294Y130048I-1620J-1564D01*
G02X464571Y128394I-2252J-1D01*
G03X464576Y127670I333J-360D01*
G02X465324Y125994I-1504J-1676D01*
G02X464811Y124563I-2252J0D01*
G03X464869Y123882I379J-311D01*
G02X465647Y122179I-1475J-1703D01*
G02X464854Y120464I-2251J0D01*
G03X464791Y119782I318J-373D01*
G02X465294Y118364I-1749J-1419D01*
G02X460790I-2252J0D01*
G02X461583Y120079I2251J0D01*
G03X461646Y120761I-318J373D01*
G02X461143Y122179I1749J1419D01*
G02X461656Y123610I2252J0D01*
G03X461598Y124291I-379J311D01*
G02X460820Y125994I1475J1703D01*
G02X461543Y127648I2252J1D01*
G03X461538Y128372I-333J360D01*
G02X460790Y130048I1504J1676D01*
G02X461422Y131613I2252J1D01*
G03Y132293I-352J340D01*
G02X460790Y133858I1620J1564D01*
G02X461422Y135423I2252J1D01*
G37*
G36*
G01X465701Y154478D02*
G03Y155122I-369J322D01*
G02X465148Y156600I1699J1478D01*
G02X469652I2252J0D01*
G02X469099Y155122I-2252J0D01*
G03Y154478I369J-322D01*
G02X469652Y153000I-1699J-1478D01*
G02X469621Y152630I-2252J2D01*
G03X469979Y152076I484J-80D01*
G02X471652Y149900I-579J-2176D01*
G02X469400Y147648I-2252J0D01*
G02X467958Y148170I0J2253D01*
G03X467615Y148140I-156J-188D01*
G02X465900Y147348I-1715J1461D01*
G02X464381Y147938I1J2252D01*
G03X463719I-331J-362D01*
G02X462200Y147348I-1520J1662D01*
G02X460681Y147938I1J2252D01*
G03X460019I-331J-362D01*
G02X458500Y147348I-1520J1662D01*
G02Y151852I0J2252D01*
G02X460019Y151262I-1J-2252D01*
G03X460681I331J362D01*
G02X462200Y151852I1520J-1662D01*
G02X463719Y151262I-1J-2252D01*
G03X464381I331J362D01*
G02X465001Y151665I1521J-1661D01*
G03X465269Y152272I-196J449D01*
G02X465148Y153000I2131J728D01*
G02X465701Y154478I2252J0D01*
G37*
G36*
G01X29731Y142301D02*
G03X29068Y142805I-488J47D01*
G02X25400Y142128I-3667J9595D01*
G02X35672Y152400I0J10272D01*
G02X33435Y146000I-10272J-1D01*
G03X33715Y145216I383J-305D01*
G02X36324Y141986I-695J-3230D01*
G02X35795Y140192I-3304J-1D01*
G03X35959Y139504I411J-265D01*
G02X37594Y136652I-1670J-2852D01*
G02X34409Y133350I-3304J0D01*
G03X34015Y132594I17J-490D01*
G02X35672Y127000I-8614J-5594D01*
G02X25400Y137272I-10272J0D01*
G02X30268Y136045I0J-10272D01*
G03X30990Y136499I232J432D01*
G02X30986Y136652I3300J163D01*
G02X31515Y138446I3304J1D01*
G03X31351Y139134I-411J265D01*
G02X29716Y141986I1670J2852D01*
G02X29731Y142301I3304J1D01*
G37*
G36*
G01X412800Y166177D02*
G03X412155Y166197I-334J-358D01*
G02X410726Y165686I-1428J1741D01*
G02Y170190I0J2252D01*
G02X412261Y169586I0J-2253D01*
G03X412906Y169566I334J358D01*
G02X414335Y170077I1428J-1741D01*
G02Y165573I0J-2252D01*
G02X412800Y166177I0J2253D01*
G37*
G36*
G01X173754Y170408D02*
X178513D01*
G02X178524I6J-3022D01*
G02Y164364I0J-3022D01*
G02X178282Y164373I-9J3022D01*
G01X178273Y164374D01*
X174000D01*
X173990Y164373D01*
G02X173750Y164364I-233J3013D01*
G01X173749D01*
G02X170732Y167386I5J3022D01*
G02X173754Y170408I3022J0D01*
G37*
G36*
G01X290409Y172425D02*
G03X290334Y172818I-177J170D01*
G02X289014Y174868I932J2050D01*
G02X293518I2252J0D01*
G02X293059Y173505I-2253J0D01*
G03X293195Y172789I390J-297D01*
G02X294282Y170862I-1165J-1927D01*
G02X293296Y169000I-2251J0D01*
G03X293159Y168329I275J-406D01*
G02X293518Y167110I-1893J-1220D01*
G02X289014I-2252J0D01*
G02X289189Y167981I2252J1D01*
G03X288644Y168651I-452J189D01*
G02X288214Y168610I-428J2211D01*
G02X286540Y169356I0J2251D01*
G03X285858Y169401I-364J-328D01*
G02X284398Y168864I-1460J1716D01*
G02Y173368I0J2252D01*
G02X286072Y172622I0J-2251D01*
G03X286754Y172577I364J328D01*
G02X288214Y173114I1460J-1716D01*
G02X289935Y172315I0J-2253D01*
G03X290309I187J158D01*
G02X290409Y172425I1715J-1459D01*
G37*
G36*
G01X180478Y174034D02*
Y178771D01*
G02X186522I3022J-1D01*
G01Y174034D01*
G02Y174017I-3022J-8D01*
G02Y174000I-3022J-9D01*
G02X180478I-3022J0D01*
G02Y174017I3022J8D01*
G02Y174034I3022J8D01*
G37*
G36*
G01X187479Y186425D02*
G02X187478Y186495I3021J78D01*
G01Y186500D01*
G02X190500Y189522I3022J0D01*
G02X193509Y186785I0J-3023D01*
G01X193522Y186643D01*
Y181759D01*
Y181745D01*
Y181730D01*
G02X187478I-3022J0D01*
G01Y181735D01*
G02X187479Y181805I3022J-8D01*
G01Y186425D01*
G37*
G36*
G01X383875Y190147D02*
G03X383265Y189893I-166J-461D01*
G02X381225Y188594I-2040J952D01*
G02Y193098I0J2252D01*
G02X381987Y192965I0J-2252D01*
G03X382597Y193219I166J461D01*
G02X384637Y194518I2040J-952D01*
G02Y190014I0J-2252D01*
G02X383875Y190147I0J2252D01*
G37*
G36*
G01X187225Y202203D02*
Y202208D01*
G02X193267I3021J-80D01*
G01Y202203D01*
G02X193268Y202128I-3021J-78D01*
G02X193267Y202053I-3022J3D01*
G01Y197433D01*
G02X193268Y197363I-3021J-78D01*
G01Y197358D01*
G02X187224I-3022J0D01*
G01Y197363D01*
G02X187225Y197433I3022J-8D01*
G01Y202053D01*
G02X187224Y202128I3021J78D01*
G02X187225Y202203I3022J-3D01*
G37*
G36*
G01X351473Y211265D02*
G03Y211947I-352J341D01*
G02X350838Y213514I1616J1567D01*
G02X355342I2252J0D01*
G02X354707Y211947I-2251J0D01*
G03Y211265I352J-341D01*
G02Y208131I-1616J-1567D01*
G03Y207449I352J-341D01*
G02X355342Y205882I-1616J-1567D01*
G02X354741Y204350I-2253J0D01*
G03X354735Y203689I359J-334D01*
G02X355312Y202184I-1674J-1505D01*
G02X350808I-2252J0D01*
G02X351409Y203716I2253J0D01*
G03X351415Y204377I-359J334D01*
G02X350838Y205882I1674J1505D01*
G02X351473Y207449I2251J0D01*
G03Y208131I-352J341D01*
G02Y211265I1616J1567D01*
G37*
G36*
G01X176265Y216603D02*
X176329Y216667D01*
X176471Y216776D01*
G02X178308Y217398I1836J-2400D01*
G02X181330Y214376I0J-3022D01*
G02X180628Y212439I-3023J0D01*
G01X180571Y212371D01*
Y212365D01*
X177057Y208852D01*
G02X174935Y207981I-2123J2151D01*
G02X171913Y211003I0J3022D01*
G02X171923Y211248I3022J-1D01*
G02X172835Y213177I3012J-244D01*
G01X172860Y213200D01*
G02X172892Y213229I2045J-2224D01*
G01X176082Y216419D01*
G02X176261Y216599I2230J-2039D01*
G01X176265Y216603D01*
G37*
G36*
G01X189221Y216434D02*
Y221352D01*
G02Y221397I3022J23D01*
G02X192243Y224419I3022J0D01*
G02X195265Y221398I0J-3022D01*
G01Y221396D01*
G02X195260Y221230I-3022J8D01*
G01Y216794D01*
G02X195265Y216631I-3017J-174D01*
G01Y216624D01*
G02X192243Y213605I-3022J3D01*
G02X189246Y216242I0J3022D01*
G01X189221Y216434D01*
G37*
G36*
G01X190278Y233934D02*
G02X190272Y234131I3016J190D01*
G01Y234136D01*
G02X193294Y237154I3022J-4D01*
G02X196288Y234545I0J-3022D01*
G01X196315Y234346D01*
Y234207D01*
G02X196316Y234132I-3021J-78D01*
G02X196315Y234057I-3022J3D01*
G01Y229437D01*
G02X196316Y229367I-3021J-78D01*
G01Y229362D01*
G02X193294Y226340I-3022J0D01*
G02X190272Y229358I0J3022D01*
G01Y229362D01*
G02X190278Y229560I3022J8D01*
G01X190279Y229568D01*
Y233926D01*
X190278Y233934D01*
G37*
G36*
G01X19108Y236720D02*
G03X18913Y237586I-300J387D01*
G02X16536Y240538I645J2952D01*
G02X22580I3022J0D01*
G02X22285Y239236I-3021J0D01*
G03X22849Y238550I442J-211D01*
G02X25400Y238872I2552J-9950D01*
G02X15128Y228600I0J-10272D01*
G02X19108Y236720I10273J0D01*
G37*
G36*
G01X190725Y240510D02*
G02X184681I-3022J18D01*
G01Y245298D01*
G02X190725I3022J0D01*
G01Y240510D01*
G37*
G36*
G01X187235Y266961D02*
G03X186775Y267493I-488J43D01*
G02X183922Y270510I169J3017D01*
G02X189966I3022J0D01*
G02X189955Y270249I-3022J-3D01*
G03X190415Y269717I488J-43D01*
G02X193268Y266700I-169J-3017D01*
G02X187224I-3022J0D01*
G02X187235Y266961I3022J3D01*
G37*
G36*
G01X278599Y327876D02*
G03X279280Y328233I199J448D01*
G02X281493Y330066I2213J-419D01*
G02Y325562I0J-2252D01*
G02X280575Y325758I1J2252D01*
G03X279894Y325401I-199J-448D01*
G02X277681Y323568I-2213J419D01*
G02Y328072I0J2252D01*
G02X278599Y327876I-1J-2252D01*
G37*
G36*
G01X463818Y334577D02*
G03X463815Y335237I-364J328D01*
G02X463220Y336762I1657J1525D01*
G02X467724I2252J0D01*
G02X467144Y335254I-2252J1D01*
G03X467147Y334594I364J-328D01*
G02X467742Y333069I-1657J-1525D01*
G02X463238I-2252J0D01*
G02X463818Y334577I2252J-1D01*
G37*
G36*
G01X382902Y352623D02*
G03X382164Y352591I-355J-337D01*
G02X380402Y351742I-1762J1404D01*
G02Y356246I0J2252D01*
G02X382036Y355544I0J-2253D01*
G03X382774Y355576I355J337D01*
G02X384536Y356425I1762J-1404D01*
G02Y351921I0J-2252D01*
G02X382902Y352623I0J2253D01*
G37*
G36*
G01X142344Y349839D02*
G03X141981Y350523I-447J201D01*
G02X139478Y353500I519J2977D01*
G02X145522I3022J0D01*
G02X145256Y352261I-3022J1D01*
G03X145619Y351577I447J-201D01*
G02X148122Y348600I-519J-2977D01*
G02X142078I-3022J0D01*
G02X142344Y349839I3022J-1D01*
G37*
G36*
G01X188214Y357785D02*
G03X188326Y358100I-113J217D01*
G02X188078Y359300I2774J1199D01*
G02X194122I3022J0D01*
G02X192486Y356615I-3021J0D01*
G03X192374Y356300I113J-217D01*
G02X192622Y355100I-2774J-1199D01*
G02X192621Y355044I-3022J26D01*
G03X192841Y354796I245J-4D01*
G02X195554Y351790I-309J-3006D01*
G02X195344Y350684I-3022J1D01*
G03X195628Y350047I456J-178D01*
G02X197586Y347218I-1065J-2829D01*
G02X191542I-3022J0D01*
G02X191752Y348324I3022J-1D01*
G03X191468Y348961I-456J178D01*
G02X189510Y351790I1065J2829D01*
G02X189511Y351846I3022J-26D01*
G03X189291Y352094I-245J4D01*
G02X186578Y355100I309J3006D01*
G02X188214Y357785I3021J0D01*
G37*
G36*
G01X128735Y370262D02*
G02X127444Y372439I1715J2488D01*
G02X124678Y375450I256J3011D01*
G02X127700Y378472I3022J0D01*
G02X130706Y375761I0J-3022D01*
G02X133472Y372750I-256J-3011D01*
G02X133315Y371788I-3022J-1D01*
G02X134622Y369300I-1715J-2488D01*
G02X128578I-3022J0D01*
G02X128735Y370262I3022J1D01*
G37*
G36*
G01X202863Y402882D02*
G03X202403Y403580I-443J208D01*
G02X202300Y403578I-110J3020D01*
G02X205322Y406600I0J3022D01*
G02X205037Y405318I-3022J-1D01*
G03X205497Y404620I443J-208D01*
G02X205600Y404622I110J-3020D01*
G01X205602D01*
G03X206076Y405236I0J490D01*
G02X205978Y406000I2924J763D01*
G02X212022I3022J0D01*
G02X209002Y402978I-3022J0D01*
G01X208998D01*
G03X208524Y402364I0J-490D01*
G02X208622Y401600I-2924J-763D01*
G02X205600Y398578I-3022J0D01*
G02X204994Y398639I-2J3022D01*
G03X204408Y398207I-99J-480D01*
G02X201400Y395478I-3008J293D01*
G02Y401522I0J3022D01*
G02X202006Y401461I2J-3022D01*
G03X202592Y401893I99J480D01*
G02X202863Y402882I3008J-293D01*
G37*
G36*
G01X245000Y435178D02*
X240178D01*
G02X237208Y438200I52J3022D01*
G02X240178Y441222I3022J0D01*
G01X245000D01*
G02Y435178I0J-3022D01*
G37*
G36*
G01X256618Y435396D02*
X251844D01*
G02X248825Y438418I3J3022D01*
G02X251844Y441440I3022J0D01*
G01X256618D01*
G02Y435396I-1J-3022D01*
G37*
G36*
G01X268005Y435478D02*
X263192D01*
G02Y441522I38J3022D01*
G01X268005D01*
G02X271011Y438762I-5J-3022D01*
G03X271648Y438338I488J42D01*
G02X272571Y438482I922J-2878D01*
G02X272583I6J-3022D01*
G01X272584D01*
G02X272686Y438480I-8J-3022D01*
G01X272688D01*
X277509Y438376D01*
X277516D01*
G02X277619Y438378I110J-3020D01*
G01X277622D01*
G02X280135Y437034I0J-3021D01*
G03X280951I408J272D01*
G02X283428Y438378I2514J-1678D01*
G01X288237D01*
G02Y432334I-3J-3022D01*
G01X283428D01*
G02X280951Y433678I37J3022D01*
G03X280135I-408J-272D01*
G02X277622Y432334I-2513J1677D01*
G02X277436Y432340I4J3022D01*
G01X277431D01*
X272570Y432438D01*
X272568D01*
G02X269560Y435198I3J3022D01*
G03X268923Y435622I-488J-42D01*
G02X268005Y435478I-922J2878D01*
G37*
G36*
G01X150132Y436337D02*
G03Y436661I-184J162D01*
G02X149378Y438658I2268J1997D01*
G02X155422I3022J0D01*
G02X154668Y436661I-3022J0D01*
G03Y436337I184J-162D01*
G02X155422Y434340I-2268J-1997D01*
G02X154637Y432308I-3022J0D01*
G02X155422Y430276I-2237J-2032D01*
G02X149378I-3022J0D01*
G02X150163Y432308I3022J0D01*
G02X149378Y434340I2237J2032D01*
G02X150132Y436337I3022J0D01*
G37*
G36*
G01X20504Y449231D02*
G02X18400Y448378I-2104J2168D01*
G02X15378Y451400I0J3022D01*
G02X15521Y452318I3022J-1D01*
G02X13678Y455100I1178J2782D01*
G02X16700Y458122I3022J0D01*
G02X18643Y457414I-1J-3022D01*
G02X20700Y458222I2057J-2214D01*
G02X23722Y455200I0J-3022D01*
G02X23591Y454318I-3022J-2D01*
G02X25522Y451500I-1091J-2818D01*
G02X22500Y448478I-3022J0D01*
G02X20504Y449231I0J3022D01*
G37*
G36*
G01X432480Y470664D02*
G03X431824Y470752I-376J-314D01*
G02X430100Y470212I-1724J2482D01*
G02Y476256I0J3022D01*
G02X432420Y475170I0J-3021D01*
G03X433076Y475082I376J314D01*
G02X434800Y475622I1724J-2482D01*
G02Y469578I0J-3022D01*
G02X432480Y470664I0J3021D01*
G37*
G36*
G01X230922Y477365D02*
G03Y478031I-360J333D01*
G02X230118Y480083I2217J2052D01*
G02X236162I3022J0D01*
G02X235358Y478031I-3021J0D01*
G03Y477365I360J-333D01*
G02X236162Y475313I-2217J-2052D01*
G02X230118I-3022J0D01*
G02X230922Y477365I3021J0D01*
G37*
G36*
G01X391999Y478054D02*
G02X388979Y481076I2J3022D01*
G02X392001Y484098I3022J0D01*
G01X396944D01*
X397115Y484078D01*
G02X399793Y481076I-344J-3002D01*
G02X396771Y478054I-3022J0D01*
G02X396641Y478057I5J3022D01*
G01X392131D01*
G02X392001Y478054I-135J3019D01*
G01X391999D01*
G37*
G36*
G01X263974Y481429D02*
G03Y482095I-360J333D01*
G02X263170Y484147I2217J2052D01*
G02X269214I3022J0D01*
G02X268410Y482095I-3021J0D01*
G03Y481429I360J-333D01*
G02X269214Y479377I-2217J-2052D01*
G02X263170I-3022J0D01*
G02X263974Y481429I3021J0D01*
G37*
G36*
G01X19100Y480235D02*
G02X17100Y479478I-2000J2265D01*
G02X14078Y482500I0J3022D01*
G02X14835Y484500I3022J0D01*
G02X14078Y486500I2265J2000D01*
G02X17100Y489522I3022J0D01*
G02X19100Y488765I0J-3022D01*
G02X21100Y489522I2000J-2265D01*
G02X24122Y486500I0J-3022D01*
G02X23365Y484500I-3022J0D01*
G02X24122Y482500I-2265J-2000D01*
G02X21100Y479478I-3022J0D01*
G02X19100Y480235I0J3022D01*
G37*
G36*
G01X334522Y482929D02*
G02X328478I-3022J1D01*
G01Y487734D01*
G02X334522I3022J-34D01*
G01Y482929D01*
G37*
G36*
G01X297502Y487779D02*
G03Y488445I-360J333D01*
G02X296698Y490497I2217J2052D01*
G02X302742I3022J0D01*
G02X301938Y488445I-3021J0D01*
G03Y487779I360J-333D01*
G02X302742Y485727I-2217J-2052D01*
G02X296698I-3022J0D01*
G02X297502Y487779I3021J0D01*
G37*
G36*
G01X416622Y487000D02*
G02X410578I-3022J0D01*
G01Y491779D01*
G02X416622I3022J-9D01*
G01Y487000D01*
G37*
G36*
G01X357432Y491008D02*
G02X354412Y494030I2J3022D01*
G02X357434Y497052I3022J0D01*
G01X362377D01*
X362548Y497032D01*
G02X365226Y494030I-344J-3002D01*
G02X362204Y491008I-3022J0D01*
G02X362074Y491011I5J3022D01*
G01X357564D01*
G02X357434Y491008I-135J3019D01*
G01X357432D01*
G37*
G36*
G01X369624D02*
G02X366604Y494030I2J3022D01*
G02X369626Y497052I3022J0D01*
G01X374569D01*
X374740Y497032D01*
G02X377418Y494030I-344J-3002D01*
G02X374396Y491008I-3022J0D01*
G02X374266Y491011I5J3022D01*
G01X369756D01*
G02X369626Y491008I-135J3019D01*
G01X369624D01*
G37*
G36*
G01X122408Y494352D02*
G03X121742I-333J-360D01*
G02X119690Y493548I-2052J2217D01*
G02Y499592I0J3022D01*
G02X121742Y498788I0J-3021D01*
G03X122408I333J360D01*
G02X124460Y499592I2052J-2217D01*
G02Y493548I0J-3022D01*
G02X122408Y494352I0J3021D01*
G37*
G36*
G01X188702D02*
G03X188036I-333J-360D01*
G02X185984Y493548I-2052J2217D01*
G02Y499592I0J3022D01*
G02X188036Y498788I0J-3021D01*
G03X188702I333J360D01*
G02X190754Y499592I2052J-2217D01*
G02Y493548I0J-3022D01*
G02X188702Y494352I0J3021D01*
G37*
G36*
G01X399365Y493802D02*
G02X396345Y496824I2J3022D01*
G02X399367Y499846I3022J0D01*
G01X404310D01*
X404481Y499826D01*
G02X407159Y496824I-344J-3002D01*
G02X404137Y493802I-3022J0D01*
G02X404007Y493805I5J3022D01*
G01X399497D01*
G02X399367Y493802I-135J3019D01*
G01X399365D01*
G37*
G36*
G01X288422Y495907D02*
G03Y496573I-360J333D01*
G02X287618Y498625I2217J2052D01*
G02X293662I3022J0D01*
G02X292858Y496573I-3021J0D01*
G03Y495907I360J-333D01*
G02X293662Y493855I-2217J-2052D01*
G02X287618I-3022J0D01*
G02X288422Y495907I3021J0D01*
G37*
G36*
G01X155936Y500448D02*
G03X155270I-333J-360D01*
G02X153218Y499644I-2052J2217D01*
G02Y505688I0J3022D01*
G02X155270Y504884I0J-3021D01*
G03X155936I333J360D01*
G02X157988Y505688I2052J-2217D01*
G02Y499644I0J-3022D01*
G02X155936Y500448I0J3021D01*
G37*
G36*
G01X406178Y502040D02*
Y506804D01*
G02X412222I3022J-4D01*
G01Y502040D01*
G02Y502030I-3022J-5D01*
G02X406178I-3022J0D01*
G02Y502040I3022J5D01*
G37*
G36*
G01X92782Y508759D02*
G03Y509425I-360J333D01*
G02X91978Y511477I2217J2052D01*
G02X98022I3022J0D01*
G02X97218Y509425I-3021J0D01*
G03Y508759I360J-333D01*
G02X98022Y506707I-2217J-2052D01*
G02X91978I-3022J0D01*
G02X92782Y508759I3021J0D01*
G37*
G36*
G01X140578Y524814D02*
G03X140020Y525307I-490J8D01*
G02X139600Y525278I-418J2993D01*
G02X142622Y528300I0J3022D01*
G01Y528250D01*
G03X143180Y527757I490J-8D01*
G02X143600Y527786I418J-2993D01*
G02X140578Y524764I0J-3022D01*
G01Y524814D01*
G37*
G36*
G01X361370Y529608D02*
G03X362320Y529546I483J85D01*
G02X361661Y531429I2363J1884D01*
G02X364683Y534451I3022J0D01*
G02X366593Y533771I0J-3022D01*
G01X366660Y533716D01*
X367373D01*
X367415Y533732D01*
G02X368808Y533990I1393J-3634D01*
G02X372700Y530098I0J-3892D01*
G01Y514404D01*
X386552Y500552D01*
G02X387692Y497800I-2752J-2752D01*
G01Y487200D01*
G02X386552Y484448I-3892J0D01*
G01X371752Y469648D01*
G02X369000Y468508I-2752J2752D01*
G01X359300D01*
G02Y476292I0J3892D01*
G01X367388D01*
X379908Y488812D01*
Y496188D01*
X366056Y510040D01*
G02X364916Y512792I2752J2752D01*
G01Y516889D01*
X363220D01*
G02X362753Y516937I-1J2287D01*
G03X362165Y516412I-100J-479D01*
G02X362178Y516128I-3009J-280D01*
G02X359156Y513106I-3022J0D01*
G02X356737Y514317I0J3022D01*
G03X355982Y514352I-392J-294D01*
G02X353743Y513360I-2239J2031D01*
G02X352460Y513646I0J3021D01*
G03X351762Y513185I-208J-444D01*
G02X351764Y513080I-3020J-110D01*
G02X348742Y516102I-3022J0D01*
G02X350025Y515816I0J-3021D01*
G03X350723Y516277I208J444D01*
G02X350721Y516382I3020J110D01*
G02X353743Y519404I3022J0D01*
G02X356162Y518193I0J-3022D01*
G03X356917Y518158I392J294D01*
G02X358886Y519138I2239J-2030D01*
G03X359189Y519972I-43J488D01*
G01X358175Y520987D01*
X358088Y520996D01*
G02X355372Y524002I305J3006D01*
G02X356307Y526188I3023J0D01*
G03Y526896I-338J354D01*
G02X355372Y529082I2088J2186D01*
G02X358394Y532104I3022J0D01*
G02X361370Y529608I0J-3022D01*
G37*
G36*
G01X389400Y526717D02*
G02X387122Y529627I744J2929D01*
G01Y534418D01*
G02X393166I3022J-2D01*
G01Y529627D01*
G02X392636Y527937I-3022J20D01*
G03X392920Y527185I404J-277D01*
G02X395198Y524256I-744J-2929D01*
G02X389154I-3022J0D01*
G02X389684Y525965I3022J0D01*
G03X389400Y526717I-404J277D01*
G37*
G36*
G01X429928Y532678D02*
G02X426908Y535700I2J3022D01*
G02X429930Y538722I3022J0D01*
G01X434873D01*
X435044Y538702D01*
G02X437722Y535700I-344J-3002D01*
G02X434700Y532678I-3022J0D01*
G02X434570Y532681I5J3022D01*
G01X430060D01*
G02X429930Y532678I-135J3019D01*
G01X429928D01*
G37*
G36*
G01X342151Y539522D02*
X337355D01*
G02Y545566I13J3022D01*
G01X342151D01*
G02Y539522I-13J-3022D01*
G37*
G36*
G01X358811Y547257D02*
G03X358095Y547434I-435J-225D01*
G02X356362Y546888I-1733J2477D01*
G02Y552932I0J3022D01*
G02X359049Y551293I0J-3022D01*
G03X359765Y551116I435J225D01*
G02X361476Y551662I1733J-2476D01*
G01X366288D01*
G02Y545618I-20J-3022D01*
G01X361476D01*
G02X358811Y547257I22J3022D01*
G37*
G36*
G01X417162Y546280D02*
G02X411118I-3022J19D01*
G01Y551071D01*
G02X417162I3022J-2D01*
G01Y546280D01*
G37*
G36*
G01X376687Y549174D02*
X371912D01*
G02Y555218I0J3022D01*
G01X376687D01*
G02Y549174I-5J-3022D01*
G37*
G36*
G01X349599Y563345D02*
X354216D01*
G02X354286Y563346I78J-3021D01*
G01X354291D01*
G02X356856Y561922I0J-3022D01*
G03X357666Y561891I416J260D01*
G02X360100Y563122I2434J-1791D01*
G02Y557078I0J-3022D01*
G02X357535Y558502I0J3022D01*
G03X356725Y558533I-416J-260D01*
G02X354298Y557302I-2434J1791D01*
G01X349521D01*
G02Y563346I0J3022D01*
G01X349526D01*
G02X349596Y563345I-8J-3022D01*
G01X349599D01*
G37*
G36*
G01X328814Y567407D02*
G02X331698Y564388I-138J-3019D01*
G02X328676Y561366I-3022J0D01*
G02X325744Y563655I0J3022D01*
G02X322860Y566674I138J3019D01*
G02X325882Y569696I3022J0D01*
G02X328814Y567407I0J-3022D01*
G37*
G36*
G01X226312Y537939D02*
Y568725D01*
X228581Y570994D01*
X236493D01*
X238000Y569487D01*
Y544777D01*
X243272Y539505D01*
Y533673D01*
X241327Y531728D01*
X239375D01*
G03X239016Y530905I0J-490D01*
G02X239822Y528850I-2217J-2055D01*
G02X233778I-3022J0D01*
G02X234584Y530905I3023J0D01*
G03X234225Y531728I-359J333D01*
G01X232523D01*
X226312Y537939D01*
G37*
G36*
G01X294032Y567478D02*
X289234D01*
G02Y573522I-4J3022D01*
G01X294032D01*
G02Y567478I-32J-3022D01*
G37*
G36*
G01X436822Y565980D02*
G02X430778I-3022J26D01*
G01Y570796D01*
G02X436822I3022J-20D01*
G01Y565980D01*
G37*
G36*
G01X517039Y568090D02*
G03X516302Y568013I-335J-357D01*
G02X513590Y566596I-2712J1887D01*
G02Y573204I0J3304D01*
G02X515851Y572310I1J-3304D01*
G03X516588Y572387I335J357D01*
G02X519300Y573804I2712J-1887D01*
G02Y567196I0J-3304D01*
G02X517039Y568090I-1J3304D01*
G37*
G36*
G01X392083Y572217D02*
X397383Y577517D01*
G02X399000Y578187I1617J-1616D01*
G01X411300D01*
G02X412917Y577517I0J-2286D01*
G01X437147Y553287D01*
X448600D01*
G02X450217Y552617I0J-2286D01*
G01X462627Y540207D01*
G02X463297Y538590I-1616J-1617D01*
G01Y421317D01*
X476597Y408017D01*
G02X477267Y406400I-1616J-1617D01*
G02X474980Y404113I-2287J0D01*
G02X473363Y404783I0J2286D01*
G01X459393Y418753D01*
G02X458723Y420370I1616J1617D01*
G01Y508475D01*
G03X457906Y508840I-490J0D01*
G02X455700Y507996I-2206J2461D01*
G02Y514604I0J3304D01*
G02X457906Y513760I0J-3305D01*
G03X458723Y514125I327J365D01*
G01Y537643D01*
X447653Y548713D01*
X436200D01*
G02X434583Y549383I0J2286D01*
G01X410353Y573613D01*
X399947D01*
X396712Y570378D01*
Y567174D01*
X396713Y567164D01*
G02X396722Y566928I-3013J-233D01*
G02X396713Y566692I-3022J-3D01*
G01X396712Y566682D01*
Y564659D01*
X395481Y563428D01*
X388541D01*
X386828Y565141D01*
Y569127D01*
X388873Y571172D01*
X391479D01*
X391535Y571338D01*
G02X392083Y572217I2164J-739D01*
G37*
G36*
G01X381552Y576378D02*
X381541D01*
X381530D01*
G02Y582422I0J3022D01*
G01X381541D01*
X381552D01*
X386316D01*
G02Y576378I-16J-3022D01*
G01X381552D01*
G37*
G36*
G01X142319Y585479D02*
G02X142982Y583590I-2360J-1889D01*
G02X136938I-3022J0D01*
G02X138106Y585976I3021J0D01*
G02X137443Y587865I2360J1889D01*
G02X143487I3022J0D01*
G02X142319Y585479I-3021J0D01*
G37*
G36*
G01X411403Y586004D02*
X406618D01*
G02Y592048I13J3022D01*
G01X411403D01*
G02Y586004I-2J-3022D01*
G37*
G36*
G01X437821Y587274D02*
X437807D01*
X437792D01*
G02Y593318I0J3022D01*
G01X437807D01*
X442568D01*
G02Y587274I-6J-3022D01*
G01X437821D01*
G37*
G36*
G01X455132Y591796D02*
G02X454196Y594100I2368J2304D01*
G02X455128Y596400I3304J0D01*
G02X454196Y598700I2372J2300D01*
G02X457500Y602004I3304J0D01*
G02X460542Y599991I0J-3305D01*
G02X461400Y600104I857J-3191D01*
G02Y593496I0J-3304D01*
G02X460984Y593522I-2J3304D01*
G03X460714Y593336I-32J-243D01*
G02X459968Y591904I-3214J764D01*
G02X460904Y589600I-2368J-2304D01*
G02X460014Y587344I-3304J0D01*
G02X460804Y585200I-2514J-2144D01*
G02X454196I-3304J0D01*
G02X455086Y587456I3304J0D01*
G02X454296Y589600I2514J2144D01*
G02X455132Y591796I3304J-1D01*
G37*
G36*
G01X125529Y600408D02*
Y605016D01*
G02X125528Y605100I3021J78D01*
G02X131572I3022J0D01*
G02Y605083I-3022J-8D01*
G01Y600311D01*
G02X128550Y597308I-3022J19D01*
G02X125528Y600330I0J3022D01*
G01Y600335D01*
G02X125529Y600405I3022J-8D01*
G01Y600408D01*
G37*
G36*
G01X144697Y603078D02*
X139899D01*
G02Y609122I1J3022D01*
G01X144697D01*
G02Y603078I-27J-3022D01*
G37*
G36*
G01X141209Y610378D02*
X136405D01*
G02Y616422I25J3022D01*
G01X141209D01*
G02Y610378I-9J-3022D01*
G37*
G36*
G01X156202Y610778D02*
X151429D01*
G02Y616822I1J3022D01*
G01X156202D01*
G02Y610778I-2J-3022D01*
G37*
G36*
G01X91139Y609920D02*
G02X90400Y609828I-740J2930D01*
G02Y615872I0J3022D01*
G02X91249Y615750I-1J-3022D01*
G02X94000Y617522I2751J-1249D01*
G02X95599Y617064I0J-3022D01*
G02X97600Y617822I2002J-2264D01*
G02X100622Y614800I0J-3022D01*
G02X100241Y613332I-3022J1D01*
G02X101172Y611150I-2091J-2182D01*
G02X98150Y608128I-3022J0D01*
G02X96377Y608703I0J3021D01*
G02X94250Y607828I-2127J2148D01*
G02X91428Y609770I0J3021D01*
G03X91139Y609920I-229J-88D01*
G37*
G36*
G01X204414Y614178D02*
X199628D01*
G02Y620222I2J3022D01*
G01X204414D01*
G02Y614178I-14J-3022D01*
G37*
G36*
G01X339068Y630344D02*
G03X339546Y630944I0J490D01*
G02X339418Y632072I4914J1129D01*
G02X349502I5042J0D01*
G02X346089Y627300I-5043J0D01*
G03X345809Y626616I158J-464D01*
G02X346532Y623572I-6049J-3045D01*
G02X341532Y617036I-6772J0D01*
G01Y613072D01*
G02X328988I-6272J0D01*
G01Y624072D01*
G02X335260Y630344I6272J0D01*
G02X335996Y630301I3J-6272D01*
G02X336760Y630344I762J-6729D01*
G01X339068D01*
G37*
G36*
G01X411111Y626616D02*
G03X410831Y627300I-438J220D01*
G02X407418Y632072I1630J4772D01*
G02X417502I5042J0D01*
G02X417374Y630944I-5042J1D01*
G03X417852Y630344I478J-110D01*
G01X420160D01*
G02X420924Y630301I2J-6772D01*
G02X421660Y630344I733J-6229D01*
G02X427932Y624072I0J-6272D01*
G01Y613072D01*
G02X415388I-6272J0D01*
G01Y617036D01*
G02X410388Y623572I1772J6536D01*
G02X411111Y626616I6772J-1D01*
G37*
G36*
G01X441765Y640678D02*
G02X440100Y640178I-1665J2522D01*
G02X437078Y643200I0J3022D01*
G02X439193Y646083I3022J0D01*
G02X439192Y646176I3021J79D01*
G02X445236I3022J0D01*
G02X445186Y645631I-3022J2D01*
G02X446722Y643000I-1485J-2631D01*
G02X443700Y639978I-3022J0D01*
G02X441765Y640678I-1J3022D01*
G37*
G36*
G01X265106Y653806D02*
G03X264562Y654327I-489J34D01*
G02X264220Y654308I-338J3003D01*
G02Y660352I0J3022D01*
G02X265999Y659773I0J-3023D01*
G02X267920Y660462I1921J-2333D01*
G02X270127Y659504I0J-3021D01*
G02X272070Y660212I1944J-2314D01*
G02X275092Y657190I0J-3022D01*
G02X274408Y655275I-3023J0D01*
G02X274992Y653490I-2438J-1786D01*
G02X271970Y650468I-3022J0D01*
G02X269985Y651212I1J3022D01*
G02X268120Y650568I-1865J2378D01*
G02X265098Y653590I0J3022D01*
G02X265106Y653806I3022J-4D01*
G37*
G36*
G01X312857Y659286D02*
G02X310800Y658478I-2057J2214D01*
G02X307778Y661500I0J3022D01*
G02X309447Y664202I3022J0D01*
G02X309278Y665200I2853J996D01*
G02X315322I3022J0D01*
G02X315297Y664813I-3022J1D01*
G03X315485Y664543I243J-31D01*
G02X317822Y661600I-685J-2943D01*
G02X314800Y658578I-3022J0D01*
G02X312857Y659286I1J3022D01*
G37*
G36*
G01X377973Y663325D02*
X372618D01*
G02Y669933I17J3304D01*
G01X377973D01*
G02Y663325I-4J-3304D01*
G37*
G36*
G01X293952Y628335D02*
G02X293028Y630510I2098J2175D01*
G02X299072I3022J0D01*
G02X298148Y628335I-3022J0D01*
G03X298488Y627492I340J-353D01*
G01X301970D01*
G02X304722Y626352I0J-3892D01*
G01X312922Y618152D01*
G02X314062Y615400I-2752J-2752D01*
G01Y568342D01*
X329752Y552652D01*
G02X330892Y549900I-2752J-2752D01*
G01Y534312D01*
X341852Y523352D01*
G02X342904Y521421I-2752J-2752D01*
G03X343777Y521233I479J104D01*
G02X346202Y522452I2425J-1803D01*
G02Y516408I0J-3022D01*
G02X343861Y517518I-1J3022D01*
G03X342992Y517208I-379J-310D01*
G01Y475498D01*
G02X341852Y472746I-3892J0D01*
G01X341079Y471973D01*
G03X341269Y471163I347J-346D01*
G02X343322Y468300I-970J-2863D01*
G02X340300Y465278I-3022J0D01*
G02X337391Y467483I0J3021D01*
G03X336679Y467777I-472J-133D01*
G02X334772Y467278I-1907J3393D01*
G02X330880Y471170I0J3892D01*
G02X332020Y473922I3892J0D01*
G01X335208Y477110D01*
Y518988D01*
X324248Y529948D01*
G02X323108Y532700I2752J2752D01*
G01Y548288D01*
X307418Y563978D01*
G02X306278Y566730I2752J2752D01*
G01Y613788D01*
X300358Y619708D01*
X283300D01*
G02Y627492I0J3892D01*
G01X293612D01*
G03X293952Y628335I0J490D01*
G37*
G36*
G01X194240Y557860D02*
X198688Y562308D01*
X198707Y562354D01*
G02X201500Y564222I2793J-1154D01*
G02X204522Y561200I0J-3022D01*
G02X202654Y558407I-3022J0D01*
G01X202608Y558388D01*
X198972Y554752D01*
Y546148D01*
X212360Y532760D01*
G02X213172Y530800I-1960J-1960D01*
G01Y524039D01*
G03X214035Y523721I490J0D01*
G02X214248Y523952I2965J-2521D01*
G01X222948Y532652D01*
G02X225700Y533792I2752J-2752D01*
G02X229592Y529900I0J-3892D01*
G02X228452Y527148I-3892J0D01*
G01X220892Y519588D01*
Y480312D01*
X242412Y458792D01*
X253000D01*
G02X256892Y454900I0J-3892D01*
G02X255805Y452202I-3892J0D01*
G03X256158Y451372I353J-340D01*
G01X288900D01*
G02X290860Y450560I0J-2772D01*
G01X317428Y423992D01*
G02X318240Y422032I-1960J-1960D01*
G01Y390022D01*
X321821Y386441D01*
G02X322633Y384481I-1960J-1960D01*
G01Y376735D01*
G02X321695Y374656I-2773J0D01*
G03X321956Y373803I324J-367D01*
G02X323922Y371569I-286J-2234D01*
G02X319418I-2252J0D01*
G02X320053Y373136I2251J0D01*
G03X319725Y373966I-352J341D01*
G02X317089Y376735I136J2769D01*
G01Y383333D01*
X313508Y386914D01*
G02X312696Y388874I1960J1960D01*
G01Y420884D01*
X287752Y445828D01*
X239300D01*
G02X237340Y446640I0J2772D01*
G01X224308Y459672D01*
G03X223471Y459315I-347J-346D01*
G02X223472Y459250I-3021J-79D01*
G02X220450Y462272I-3022J0D01*
G02X220515Y462271I-14J-3022D01*
G03X220872Y463108I11J490D01*
G01X208440Y475540D01*
G02X207628Y477500I1960J1960D01*
G01Y529652D01*
X194240Y543040D01*
G02X193428Y545000I1960J1960D01*
G01Y555900D01*
G02X194240Y557860I2772J0D01*
G37*
G36*
G01X117262Y538978D02*
G02X115850Y538628I-1412J2673D01*
G02X118872Y541650I0J3022D01*
G02X118783Y540923I-3022J1D01*
G03X119488Y540372I476J-118D01*
G02X120900Y540722I1412J-2673D01*
G02X117878Y537700I0J-3022D01*
G02X117967Y538427I3022J-1D01*
G03X117262Y538978I-476J118D01*
G37*
G36*
G01X468563Y442186D02*
G03X469219Y442326I253J419D01*
G02X471700Y443622I2481J-1727D01*
G02X474168Y442344I0J-3022D01*
G03X474894Y442260I401J282D01*
G02X476900Y443022I2006J-2259D01*
G02X479681Y441183I0J-3022D01*
G03X479988Y441048I225J96D01*
G02X481000Y441222I1011J-2848D01*
G02Y435178I0J-3022D01*
G02X478219Y437017I0J3022D01*
G03X477912Y437152I-225J-96D01*
G02X476900Y436978I-1011J2848D01*
G02X474432Y438256I0J3022D01*
G03X473706Y438340I-401J-282D01*
G02X471700Y437578I-2006J2259D01*
G02X470137Y438014I1J3022D01*
G03X469481Y437874I-253J-419D01*
G02X468864Y437221I-2481J1726D01*
G03X468975Y436384I302J-386D01*
G02X470822Y433600I-1175J-2784D01*
G02X464778I-3022J0D01*
G02X465936Y435979I3023J0D01*
G03X465825Y436816I-302J386D01*
G02X463978Y439600I1175J2784D01*
G02X467000Y442622I3022J0D01*
G02X468563Y442186I-1J-3022D01*
G37*
G36*
G01X274959Y366857D02*
G02X274248Y368500I1541J1642D01*
G02X278752I2252J0D01*
G02X278041Y366857I-2252J-1D01*
G03Y366143I335J-357D01*
G02X278752Y364500I-1541J-1642D01*
G02X276500Y362248I-2252J0D01*
G02X274744Y363090I0J2252D01*
G03X273906Y362962I-382J-307D01*
G02X271810Y361534I-2096J824D01*
G02Y366038I0J2252D01*
G02X273566Y365196I0J-2252D01*
G03X274404Y365324I382J307D01*
G02X274959Y366143I2096J-823D01*
G03Y366857I-335J357D01*
G37*
G36*
G01X329628Y359851D02*
G02X328696Y361675I1319J1824D01*
G02X333200I2252J0D01*
G02X332182Y359791I-2252J0D01*
G03X332163Y358984I268J-410D01*
G02X333095Y357160I-1319J-1824D01*
G02X331994Y355225I-2251J0D01*
G03X331941Y354419I251J-421D01*
G02X332796Y352653I-1396J-1766D01*
G02X328292I-2252J0D01*
G02X329393Y354588I2251J0D01*
G03X329446Y355394I-251J421D01*
G02X328591Y357160I1396J1766D01*
G02X329609Y359044I2252J0D01*
G03X329628Y359851I-268J410D01*
G37*
G36*
G01X279436Y352120D02*
G02X279419Y352399I2235J276D01*
G02X283923I2252J0D01*
G02X283920Y352280I-2252J-3D01*
G03X284635Y351819I489J-26D01*
G02X285671Y352072I1037J-1999D01*
G02X287923Y349820I0J-2252D01*
G02X286492Y347723I-2252J0D01*
G03X286352Y347410I90J-228D01*
G02X286493Y346625I-2111J-784D01*
G02X281989I-2252J0D01*
G02X283420Y348722I2252J0D01*
G03X283560Y349035I-90J228D01*
G02X283419Y349820I2111J784D01*
G02X283422Y349939I2252J3D01*
G03X282707Y350400I-489J26D01*
G02X281671Y350147I-1037J1999D01*
G02X280477Y350490I1J2252D01*
G03X279731Y350014I-260J-415D01*
G02X279748Y349735I-2235J-276D01*
G02X277496Y351987I-2252J0D01*
G02X278690Y351644I-1J-2252D01*
G03X279436Y352120I260J415D01*
G37*
G36*
G01X259534Y338308D02*
G02X257670Y337319I-1864J1262D01*
G02Y341823I0J2252D01*
G02X259635Y340671I0J-2252D01*
G03X260469Y340635I428J239D01*
G02X262333Y341624I1864J-1262D01*
G02Y337120I0J-2252D01*
G02X260368Y338272I0J2252D01*
G03X259534Y338308I-428J-239D01*
G37*
G36*
G01X331499Y333616D02*
G02X329299Y331844I-2200J480D01*
G02Y336348I0J2252D01*
G02X330688Y335869I0J-2253D01*
G03X331469Y336150I302J386D01*
G02X333669Y337922I2200J-480D01*
G02Y333418I0J-2252D01*
G02X332280Y333897I0J2253D01*
G03X331499Y333616I-302J-386D01*
G37*
G36*
G01X295400Y331466D02*
G02X294202Y331121I-1198J1908D01*
G02Y335625I0J2252D01*
G02X296411Y333812I0J-2252D01*
G03X297152Y333493I480J96D01*
G02X298350Y333838I1198J-1908D01*
G02Y329334I0J-2252D01*
G02X296141Y331147I0J2252D01*
G03X295400Y331466I-480J-96D01*
G37*
G36*
G01X291658Y308744D02*
G02X289814Y307785I-1844J1293D01*
G02Y312289I0J2252D01*
G02X291679Y311299I0J-2252D01*
G03X292486Y311293I406J275D01*
G02X294330Y312252I1844J-1293D01*
G02Y307748I0J-2252D01*
G02X292465Y308738I0J2252D01*
G03X291658Y308744I-406J-275D01*
G37*
G36*
G01X192266Y291165D02*
G02X191478Y293200I2234J2035D01*
G02X197522I3022J0D01*
G02X196734Y291165I-3022J0D01*
G03Y290835I181J-165D01*
G02X197522Y288800I-2234J-2035D01*
G02X197444Y288120I-3022J2D01*
G03X198127Y287564I478J-111D01*
G02X199390Y287841I1264J-2745D01*
G02X202412Y284819I0J-3022D01*
G02X200272Y281929I-3021J0D01*
G03X200130Y281061I143J-469D01*
G02X201396Y278602I-1755J-2459D01*
G02X200135Y276146I-3022J0D01*
G03X200062Y275831I143J-199D01*
G02X200422Y274400I-2662J-1431D01*
G02X194378I-3022J0D01*
G02X195639Y276856I3022J0D01*
G03X195712Y277171I-143J199D01*
G02X195352Y278602I2662J1431D01*
G02X195360Y278821I3022J-1D01*
G03X195129Y279083I-244J17D01*
G02X192278Y282100I171J3017D01*
G02X195300Y285122I3022J0D01*
G02X195864Y285069I1J-3022D01*
G03X196434Y285448I91J481D01*
G02X196446Y285499I2947J-667D01*
G03X195763Y286055I-478J111D01*
G02X194500Y285778I-1264J2745D01*
G02X191478Y288800I0J3022D01*
G02X192266Y290835I3022J0D01*
G03Y291165I-181J165D01*
G37*
G36*
G01X425640Y291938D02*
G03X426179Y292378I52J487D01*
G02X428421Y294413I2242J-218D01*
G02Y289909I0J-2252D01*
G02X428185Y289921I-4J2252D01*
G03X427646Y289481I-52J-487D01*
G02X426214Y287597I-2242J218D01*
G03X425930Y286972I176J-457D01*
G02X426066Y286200I-2116J-771D01*
G02X425497Y284703I-2252J-1D01*
G03X425724Y283908I366J-325D01*
G02X427331Y281928I-638J-2160D01*
G03X427854Y281478I489J39D01*
G02X428012Y281484I164J-2246D01*
G02Y276980I0J-2252D01*
G02X425767Y279052I0J2252D01*
G03X425244Y279502I-489J-39D01*
G02X425086Y279496I-164J2246D01*
G02X422834Y281748I0J2252D01*
G02X423403Y283245I2252J1D01*
G03X423176Y284040I-366J325D01*
G02X421562Y286200I638J2160D01*
G02X423004Y288301I2252J0D01*
G03X423288Y288926I-176J457D01*
G02X423152Y289698I2116J771D01*
G02X425404Y291950I2252J0D01*
G02X425640Y291938I4J-2252D01*
G37*
G36*
G01X26791Y269223D02*
G02X25400Y269128I-1394J10177D01*
G02X35672Y279400I0J10272D01*
G02X30501Y270484I-10272J0D01*
G03X30601Y269590I243J-425D01*
G02Y263810I-883J-2890D01*
G03X30501Y262916I143J-469D01*
G02X35672Y254000I-5101J-8916D01*
G02X25400Y264272I-10272J0D01*
G02X26791Y264177I-3J-10272D01*
G03X27256Y264947I66J486D01*
G02X26696Y266700I2462J1752D01*
G02X27256Y268453I3022J1D01*
G03X26791Y269223I-399J284D01*
G37*
G36*
G01X363661Y236695D02*
G02X367579I1959J-1111D01*
G03X368431I426J242D01*
G02X370390Y237836I1959J-1111D01*
G02X372642Y235584I0J-2252D01*
G02X372084Y234100I-2252J0D01*
G03X372109Y233429I369J-322D01*
G02X372779Y231826I-1583J-1603D01*
G02X370527Y229574I-2252J0D01*
G02X368459Y230933I0J2253D01*
G03X367583Y230980I-450J-194D01*
G02X365620Y229832I-1963J1104D01*
G02X363613Y231062I0J2252D01*
G03X362732Y231045I-436J-223D01*
G02X360689Y229740I-2043J947D01*
G02X358437Y231992I0J2252D01*
G02X359056Y233543I2253J0D01*
G03X359085Y234185I-355J338D01*
G02X358598Y235584I1766J1399D01*
G02X360850Y237836I2252J0D01*
G02X362809Y236695I0J-2252D01*
G03X363661I426J242D01*
G37*
G36*
G01X392102Y229582D02*
G02X391537Y231074I1687J1492D01*
G02X393789Y233326I2252J0D01*
G02X395857Y231967I0J-2253D01*
G03X396733Y231920I450J194D01*
G02X398696Y233068I1963J-1104D01*
G02X400694Y231855I0J-2252D01*
G03X401569Y231868I434J227D01*
G02X403595Y233136I2026J-985D01*
G02X405847Y230884I0J-2252D01*
G02X405355Y229479I-2252J0D01*
G03X405377Y228841I383J-306D01*
G02X405972Y227316I-1657J-1525D01*
G02X401468I-2252J0D01*
G02X401960Y228721I2252J0D01*
G03X401938Y229359I-383J306D01*
G02X401597Y229845I1657J1525D01*
G03X400722Y229832I-434J-227D01*
G02X400338Y229274I-2026J983D01*
G03Y228604I357J-335D01*
G02X400948Y227062I-1642J-1541D01*
G02X396444I-2252J0D01*
G02X397054Y228604I2252J1D01*
G03Y229274I-357J335D01*
G02X396628Y229923I1642J1542D01*
G03X395752Y229970I-450J-194D01*
G02X395380Y229480I-1963J1104D01*
G03X395359Y228808I346J-347D01*
G02X395924Y227316I-1687J-1492D01*
G02X391420I-2252J0D01*
G02X392081Y228910I2252J0D01*
G03X392102Y229582I-346J347D01*
G37*
G36*
G01X267962Y218391D02*
G02X269870Y219446I1908J-1198D01*
G02X271725Y218472I1J-2252D01*
G03X272531I403J278D01*
G02X274386Y219446I1854J-1278D01*
G02Y214942I0J-2252D01*
G02X272531Y215916I-1J2252D01*
G03X271725I-403J-278D01*
G02X269870Y214942I-1854J1278D01*
G02X268072Y215838I0J2252D01*
G03X267266Y215803I-391J-295D01*
G02X265358Y214748I-1908J1198D01*
G02Y219252I0J2252D01*
G02X267156Y218356I0J-2252D01*
G03X267962Y218391I391J295D01*
G37*
G36*
G01X261272Y209591D02*
G02X259316Y208456I-1956J1118D01*
G02Y212960I0J2252D01*
G02X261354Y211667I0J-2253D01*
G03X262222Y211633I443J209D01*
G02X264178Y212768I1956J-1118D01*
G02Y208264I0J-2252D01*
G02X262140Y209557I0J2253D01*
G03X261272Y209591I-443J-209D01*
G37*
G36*
G01X296592Y209555D02*
G02X296380Y210510I2040J954D01*
G02X300884I2252J0D01*
G02X300574Y209369I-2252J-1D01*
G03X300801Y208672I422J-248D01*
G02X302156Y206606I-898J-2066D01*
G02X300532Y204443I-2252J0D01*
G03X300361Y203591I136J-471D01*
G02X301202Y201836I-1411J-1755D01*
G02X296698I-2252J0D01*
G02X298322Y203999I2252J0D01*
G03X298493Y204851I-136J471D01*
G02X298337Y204989I1412J1754D01*
G03X297655I-341J-352D01*
G02X294521I-1567J1616D01*
G03X293839I-341J-352D01*
G02X292272Y204354I-1567J1616D01*
G02Y208858I0J2252D01*
G02X293839Y208223I0J-2251D01*
G03X294521I341J352D01*
G02X296088Y208858I1567J-1616D01*
G02X296138Y208857I-20J-2252D01*
G03X296592Y209555I10J490D01*
G37*
G36*
G01X462440Y185026D02*
G02X461299Y186985I1111J1959D01*
G02X465803I2252J0D01*
G02X464662Y185026I-2252J0D01*
G03Y184174I242J-426D01*
G02X465803Y182215I-1111J-1959D01*
G02X461299I-2252J0D01*
G02X462440Y184174I2252J0D01*
G03Y185026I-242J426D01*
G37*
G36*
G01X384125Y176745D02*
G02X383716Y176708I-407J2215D01*
G02X385968Y178960I0J2252D01*
G02X385931Y178551I-2252J-2D01*
G03X386501Y177981I481J-89D01*
G02X386910Y178018I407J-2215D01*
G02X384658Y175766I0J-2252D01*
G02X384695Y176175I2252J2D01*
G03X384125Y176745I-481J89D01*
G37*
G36*
G01X370012Y173568D02*
G02X369637Y174812I1876J1244D01*
G02X374141I2252J0D01*
G02X374121Y174512I-2252J-1D01*
G03X374719Y173969I486J-66D01*
G02X375234Y174029I516J-2192D01*
G02X377486Y171777I0J-2252D01*
G02X377455Y171405I-2252J0D01*
G03X378035Y170844I483J-81D01*
G02X378480Y170888I443J-2208D01*
G02X376228Y168636I0J-2252D01*
G02X376259Y169008I2252J0D01*
G03X375679Y169569I-483J81D01*
G02X375234Y169525I-443J2208D01*
G02X372982Y171777I0J2252D01*
G02X373002Y172077I2252J1D01*
G03X372404Y172620I-486J66D01*
G02X372381Y172614I-580J2175D01*
G03X372079Y171866I107J-478D01*
G02X372454Y170622I-1876J-1244D01*
G02X367950I-2252J0D01*
G02X369710Y172820I2253J0D01*
G03X370012Y173568I-107J478D01*
G37*
G36*
G01X384671Y163105D02*
G02X384556Y163102I-116J2249D01*
G02X386808Y165354I0J2252D01*
G02X386527Y164265I-2251J0D01*
G03X386981Y163539I429J-237D01*
G02X387096Y163542I116J-2249D01*
G02X384844Y161290I0J-2252D01*
G02X385125Y162379I2251J0D01*
G03X384671Y163105I-429J237D01*
G37*
G36*
G01X361579Y156976D02*
G02X360714Y158750I1387J1774D01*
G02X365218I2252J0D01*
G02X363971Y156734I-2253J0D01*
G03X363887Y155910I218J-439D01*
G02X364752Y154136I-1387J-1774D01*
G02X360248I-2252J0D01*
G02X361495Y156152I2253J0D01*
G03X361579Y156976I-218J439D01*
G37*
G36*
G01X386260Y145227D02*
G02X385765Y145172I-495J2197D01*
G02X388017Y147424I0J2252D01*
G02X387962Y146929I-2252J0D01*
G03X388548Y146343I478J-108D01*
G02X389043Y146398I495J-2197D01*
G02X386791Y144146I0J-2252D01*
G02X386846Y144641I2252J0D01*
G03X386260Y145227I-478J108D01*
G37*
G36*
G01X177038Y27254D02*
G02X175278Y30000I1262J2746D01*
G02X181322I3022J0D01*
G02X179569Y27257I-3023J0D01*
G03X179570Y26368I206J-444D01*
G02X181330Y23622I-1262J-2746D01*
G02X175286I-3022J0D01*
G02X177039Y26365I3023J0D01*
G03X177038Y27254I-206J444D01*
G37*
G36*
G01X43228Y580527D02*
X48373Y585672D01*
X71927D01*
X77472Y580127D01*
Y573573D01*
X63072Y559173D01*
Y555507D01*
G03X63790Y555073I490J0D01*
G02X65200Y555422I1410J-2674D01*
G02X65382Y555417I8J-3022D01*
G03X65898Y555849I30J489D01*
G02X68900Y558522I3002J-349D01*
G02X70957Y557714I0J-3022D01*
G02X72900Y558422I1944J-2314D01*
G02Y552378I0J-3022D01*
G02X70843Y553186I0J3022D01*
G02X68900Y552478I-1944J2314D01*
G02X68718Y552483I-8J3022D01*
G03X68202Y552051I-30J-489D01*
G02X67509Y550450I-3002J349D01*
G02X68222Y548500I-2310J-1950D01*
G02X68073Y547564I-3022J1D01*
G03X68534Y546922I466J-152D01*
G02X70600Y546073I-34J-3022D01*
G02X72700Y546922I2100J-2173D01*
G02Y540878I0J-3022D01*
G02X70600Y541727I0J3022D01*
G02X68500Y540878I-2100J2173D01*
G02X65478Y543900I0J3022D01*
G02X65627Y544836I3022J-1D01*
G03X65166Y545478I-466J152D01*
G02X63790Y545827I34J3022D01*
G03X63072Y545393I-228J-434D01*
G01Y529927D01*
X77472Y515527D01*
Y497927D01*
X88372Y487027D01*
Y463027D01*
X108822Y442577D01*
Y393777D01*
X119672Y382927D01*
Y360227D01*
X152364Y327535D01*
X164627D01*
X169072Y323090D01*
Y154027D01*
X171962Y151136D01*
G03X172791Y151398I346J347D01*
G02X175768Y153898I2977J-523D01*
G02X178500Y152168I0J-3022D01*
G03X179386I443J209D01*
G02X182118Y153898I2732J-1292D01*
G02Y147854I0J-3022D01*
G02X179386Y149584I0J3022D01*
G03X178500I-443J-209D01*
G02X175831Y147855I-2732J1292D01*
G01X175732Y147853D01*
X175489Y147610D01*
X175927Y147172D01*
X201527D01*
X210772Y137927D01*
Y122105D01*
X209569Y120902D01*
X161199D01*
X159608Y122493D01*
G03X158772Y122146I-346J-347D01*
G01Y86487D01*
X237353D01*
X247117Y96251D01*
G03X246837Y97083I-347J346D01*
G02X244890Y99314I305J2231D01*
G02X246782Y101537I2252J0D01*
G01X246860Y101550D01*
X256297Y110987D01*
G02X257556Y111508I1258J-1259D01*
G01X271805D01*
X282205Y121909D01*
G02X283464Y122430I1258J-1259D01*
G01X288823D01*
X295146Y128753D01*
Y146306D01*
G02X295667Y147565I1780J1D01*
G01X297697Y149595D01*
G02X298956Y150116I1258J-1259D01*
G01X315214D01*
G02X316473Y149595I1J-1780D01*
G01X318491Y147576D01*
X322272D01*
X324121Y149426D01*
X324134Y149504D01*
G02X326357Y151396I2223J-360D01*
G02X328609Y149144I0J-2252D01*
G02X326717Y146921I-2252J0D01*
G01X326639Y146908D01*
X324268Y144537D01*
G02X324003Y144320I-1255J1262D01*
G03Y143507I274J-407D01*
G02X324996Y141640I-1259J-1867D01*
G02X320492I-2252J0D01*
G02X321109Y143189I2253J0D01*
G03X320754Y144016I-355J337D01*
G01X317754D01*
G02X316495Y144537I-1J1780D01*
G01X314477Y146556D01*
X311449D01*
G03X311123Y145700I0J-490D01*
G02X311878Y144018I-1496J-1682D01*
G02X307374I-2252J0D01*
G02X308129Y145700I2251J0D01*
G03X307803Y146556I-326J366D01*
G01X299693D01*
X298706Y145569D01*
Y128016D01*
G02X298185Y126757I-1780J-1D01*
G01X290819Y119391D01*
G02X289560Y118870I-1258J1259D01*
G01X284201D01*
X273801Y108469D01*
G02X272542Y107948I-1258J1259D01*
G01X258293D01*
X250952Y100607D01*
G03X251352Y99774I347J-346D01*
G02X251600Y99787I244J-2274D01*
G01X315250D01*
G02X316867Y99117I0J-2286D01*
G01X369670Y46315D01*
G03X370460Y46454I346J346D01*
G02X372500Y47752I2040J-954D01*
G02X374752Y45500I0J-2252D01*
G02X373454Y43460I-2252J0D01*
G03X373315Y42670I207J-444D01*
G01X380169Y35815D01*
X409945D01*
G03X410330Y36608I0J490D01*
G02X409848Y38000I1769J1392D01*
G02X414352I2252J0D01*
G02X413652Y36368I-2252J0D01*
G03X413771Y35575I338J-355D01*
G02X415037Y33528I-1022J-2047D01*
G02X412750Y31241I-2287J0D01*
G01X379222D01*
G02X377605Y31911I0J2286D01*
G01X314303Y95213D01*
X252547D01*
X239917Y82583D01*
G02X238300Y81913I-1617J1616D01*
G01X158772D01*
Y50273D01*
X146653Y38154D01*
X146637Y38087D01*
G02X143700Y35778I-2937J713D01*
G02X141800Y36450I0J3022D01*
G02X139900Y35778I-1900J2350D01*
G02X137950Y36491I0J3023D01*
G02X136000Y35778I-1950J2310D01*
G02X134128Y36428I0J3021D01*
G01X105073D01*
X76650Y64851D01*
Y85268D01*
G03X75814Y85615I-490J0D01*
G01X73127Y82928D01*
X45705D01*
X45704Y82684D01*
G02X42400Y79396I-3304J16D01*
G02X39096Y82700I0J3304D01*
G02X40650Y85502I3303J0D01*
G03X40737Y86264I-260J416D01*
G01X39528Y87473D01*
Y285473D01*
X32073Y292928D01*
X15373D01*
X13228Y295073D01*
Y314927D01*
X16351Y318050D01*
X12528Y321873D01*
Y390827D01*
X15073Y393372D01*
X58546D01*
G03X58893Y394208I0J490D01*
G01X55528Y397573D01*
Y456286D01*
G02X54660Y458406I2155J2120D01*
G02X55519Y460516I3021J0D01*
G02X54660Y462626I2162J2110D01*
G02X55528Y464746I3023J0D01*
G01Y496173D01*
X43228Y508473D01*
Y538251D01*
G03X42292Y538453I-490J0D01*
G02X25400Y527558I-16892J7647D01*
G02Y564642I0J18542D01*
G02X42292Y553747I0J-18542D01*
G03X43228Y553949I446J202D01*
G01Y580527D01*
G37*
G54D31*
X379800Y40400D03*
X419800Y37000D03*
X426200Y36600D03*
X448500Y36100D03*
X218700Y46600D03*
X386900Y45400D03*
X398400Y43700D03*
X416100Y46200D03*
X463000Y44400D03*
X249428Y87884D03*
X474726Y87376D03*
X224200Y91600D03*
X231902Y96400D03*
X253492Y92202D03*
X361828Y97260D03*
X376428Y93726D03*
X279146Y109728D03*
X389500Y110220D03*
X323849Y115551D03*
X371602Y116586D03*
X374248Y123574D03*
X364112Y118488D03*
X390224Y117856D03*
X333716Y131318D03*
X366824Y136800D03*
X390683Y131741D03*
X326100Y137600D03*
X332966Y145946D03*
X372926Y144062D03*
X363720Y142700D03*
X405130Y142509D03*
X409630Y137409D03*
X321397Y150637D03*
X349814Y152676D03*
X370840Y155194D03*
X394208Y151384D03*
X423926Y159929D03*
X318770Y163278D03*
X329438Y160782D03*
X345823Y162800D03*
X355597Y171848D03*
X389977Y171537D03*
X423672Y170688D03*
X429514Y165354D03*
X326898Y185674D03*
X324664Y193294D03*
X455602Y194518D03*
X452300Y190200D03*
X381000Y203454D03*
X389128Y201930D03*
X420878Y205486D03*
X413620Y203454D03*
X443283Y206526D03*
X257000Y215500D03*
X268312Y207336D03*
X282000Y208500D03*
X251500Y221500D03*
X263600Y224499D03*
X361000Y249000D03*
X340500Y256000D03*
X373888Y271272D03*
X398479Y271724D03*
X438640Y271720D03*
X388198Y279598D03*
X409341Y282303D03*
X449672Y281070D03*
X313961Y300274D03*
X340305Y297149D03*
X374640Y296920D03*
X409659Y293433D03*
X465628Y294069D03*
X273528Y311567D03*
X277680Y307736D03*
X273536Y303819D03*
X290711Y304759D03*
X300420Y304819D03*
X296670Y300821D03*
X304499Y311819D03*
X313873Y307741D03*
X320548Y309644D03*
X326966Y308311D03*
X334493Y311500D03*
X329669Y303757D03*
X371790Y307070D03*
X393489Y307101D03*
X403863Y307070D03*
X398640Y310719D03*
X427244Y307070D03*
X444321Y305518D03*
X436852Y311322D03*
X465628Y307108D03*
X262546Y312379D03*
X277681Y315820D03*
X273546Y321092D03*
X280866Y321024D03*
X286729Y316746D03*
X297529Y321521D03*
X312669Y312820D03*
X325493Y320285D03*
X317441Y320393D03*
X327032Y313500D03*
X334727Y318043D03*
X365773Y321100D03*
X379927Y313508D03*
X404625Y318053D03*
X426195Y318360D03*
X465490Y320069D03*
X261671Y326070D03*
X269669Y327819D03*
X277670Y332820D03*
X289669Y324367D03*
X301478Y326076D03*
X313614Y331904D03*
X309669Y325820D03*
X305816Y331820D03*
X326167Y330114D03*
X330875Y324819D03*
X377540Y333029D03*
X386596D03*
X448643Y335107D03*
X251757Y338734D03*
X278671Y340821D03*
X270764Y345440D03*
X274670Y336821D03*
X284040Y338900D03*
X296750Y341852D03*
X313753Y337328D03*
X313669Y344819D03*
X306135Y341632D03*
X317748Y340808D03*
X330970Y342396D03*
X338179Y342914D03*
X464836Y346620D03*
X258921Y352820D03*
X266636Y351395D03*
X277277Y357904D03*
X285671Y357821D03*
X297670D03*
X297712Y349800D03*
X313669Y352820D03*
X305661Y357821D03*
X305711Y349063D03*
X325698Y357662D03*
X326115Y349794D03*
X317671Y357048D03*
X317748Y349076D03*
X336897Y348815D03*
X449387Y349762D03*
X465490Y352556D03*
X264414Y363220D03*
X285958Y365832D03*
X297722Y365819D03*
X313669Y360821D03*
X305778Y365217D03*
X316384Y370331D03*
X325768Y365604D03*
X318920Y364819D03*
X333669Y367569D03*
X371192Y367685D03*
X404888Y363395D03*
X398958Y369221D03*
X433509Y365621D03*
X465490Y365571D03*
X276670Y376820D03*
X295529Y374464D03*
X306919Y380821D03*
X329862Y371332D03*
X385490Y372203D03*
X377222Y380250D03*
X392804Y381203D03*
X404578Y380466D03*
X432702D03*
X436371Y373889D03*
X449201Y377130D03*
X465489Y378656D03*
X376609Y393631D03*
X404578Y393466D03*
X427958Y392184D03*
X465490Y391570D03*
X392706Y406533D03*
X408606Y406534D03*
X418872Y411086D03*
X432702Y406466D03*
X444578D03*
G54D29*
X159766Y27940D03*
X204000Y28000D03*
X55800Y36500D03*
X178124Y50100D03*
X206600Y43500D03*
X213500Y44100D03*
X188976Y153416D03*
X179070Y160528D03*
X193548Y162560D03*
X191500Y169000D03*
X19300Y199000D03*
X25000Y204700D03*
X31496Y214376D03*
X135539Y355761D03*
X143800Y364200D03*
X140949Y380651D03*
X199700Y375000D03*
X138000Y392100D03*
X192400Y383300D03*
X195500Y395600D03*
X146304Y416052D03*
X387802Y415810D03*
X406474Y414266D03*
X430639Y413920D03*
X9707Y417793D03*
X152908Y423164D03*
X382200Y420100D03*
X388400Y423400D03*
X394068Y436232D03*
X476500Y432700D03*
X214050Y462250D03*
X354450Y459050D03*
X400760Y457760D03*
X142800Y473500D03*
X376100Y467300D03*
X139900Y479600D03*
X133700Y494900D03*
X224700Y502158D03*
X300900Y509100D03*
X330708Y503682D03*
X117400Y516000D03*
X150300Y515400D03*
X278300Y516900D03*
X329438Y511556D03*
X350520Y525272D03*
X135600Y535800D03*
X359918Y539300D03*
X392068Y542400D03*
X242800Y564400D03*
X74700Y588300D03*
X84400Y601200D03*
X243100Y638100D03*
X265800Y642500D03*
G54D32*
X491235Y50137D03*
X441993Y473456D03*
X508000Y556900D03*
X501700Y560400D03*
X501203Y570897D03*
X501100Y599000D03*
G54D27*
X254110Y23712D03*
G54D28*
X279510D03*
X304910D03*
X254110Y49112D03*
X279510D03*
X304910D03*
G54D30*
X25400Y50800D03*
X508000D03*
X25400Y76200D03*
X508000D03*
X25400Y101600D03*
X508000D03*
Y127000D03*
Y152400D03*
X25400Y177800D03*
X508000D03*
Y203200D03*
Y228600D03*
Y269200D03*
Y294600D03*
Y320000D03*
Y345400D03*
Y370800D03*
Y396200D03*
X25400Y406400D03*
X508000Y421600D03*
Y447000D03*
Y472400D03*
Y497800D03*
G54D33*
X444499Y100330D03*
X88900Y568960D03*
X444500D03*
G54D26*
X76200Y25400D03*
X355600D03*
X508000Y533400D03*
G54D25*
X421660Y664072D03*
X335260D03*
%LPD*%
G75*
G36*
G01X16400Y316300D02*
X60400D01*
X68700Y308000D01*
Y283510D01*
G02X68195Y283021I-490J1D01*
G03X68100Y283022I-79J-3021D01*
G03Y276978I0J-3022D01*
G03X68195Y276979I16J3022D01*
G02X68700Y276490I15J-490D01*
G01Y265273D01*
X68541Y265214D01*
G03Y259550I1055J-2832D01*
G01X68700Y259491D01*
Y213900D01*
X73460Y209140D01*
G02X73467Y208801I-173J-173D01*
G03X72670Y206756I2225J-2045D01*
G03X74825Y203861I3022J0D01*
G01X75000Y203809D01*
Y201071D01*
G02X74299Y200628I-490J-1D01*
G03X73000Y200922I-1300J-2728D01*
G03Y194878I0J-3022D01*
G03X74299Y195172I-1J3022D01*
G02X75000Y194729I211J-442D01*
G01Y112251D01*
X74991Y112218D01*
G03X74878Y111400I2909J-819D01*
G03X74991Y110582I3022J1D01*
G01X75000Y110549D01*
Y86600D01*
X72600Y84200D01*
X45344D01*
G03X42901Y85966I-2944J-1500D01*
G01X42822Y85978D01*
X40800Y88000D01*
Y286000D01*
X32600Y294200D01*
X29089D01*
G02X28921Y295150I0J490D01*
G03X35672Y304800I-3521J9650D01*
G03X15128I-10272J0D01*
G03X21879Y295150I10272J0D01*
G02X21711Y294200I-168J-460D01*
G01X15900D01*
X14500Y295600D01*
Y314400D01*
X16400Y316300D01*
G37*
G36*
G01X15600Y392100D02*
X75700D01*
X77900Y389900D01*
Y362700D01*
X100400Y340200D01*
Y304730D01*
X102616Y302514D01*
X129600D01*
X135800Y296314D01*
Y180108D01*
G02X135072Y179679I-490J0D01*
G03X133604Y180060I-1469J-2641D01*
G03Y174016I0J-3022D01*
G03X135072Y174397I-1J3022D01*
G02X135800Y173968I238J-429D01*
G01Y162492D01*
G02X135001Y162112I-490J0D01*
G03X133096Y162788I-1905J-2346D01*
G03X131964Y162568I0J-3022D01*
G02X131326Y163206I-184J454D01*
G03X131546Y164338I-2802J1132D01*
G03X128524Y161316I-3022J0D01*
G03X129656Y161536I0J3022D01*
G02X130294Y160898I184J-454D01*
G03X130074Y159766I2802J-1132D01*
G03X133096Y156744I3022J0D01*
G03X135001Y157420I0J3022D01*
G02X135800Y157040I309J-380D01*
G01Y144200D01*
X141458Y138542D01*
X141310Y138370D01*
G03X140578Y136398I2290J-1972D01*
G03X143600Y133376I3022J0D01*
G03X145572Y134108I0J3022D01*
G01X145744Y134256D01*
X157500Y122500D01*
Y74633D01*
G02X156828Y74179I-490J1D01*
G03X155702Y74396I-1125J-2805D01*
G03X152680Y71374I0J-3022D01*
G03X152846Y70387I3022J1D01*
G02X152492Y69749I-463J-160D01*
G03X151047Y68961I670J-2947D01*
G02X150705I-171J175D01*
G03X148590Y69824I-2115J-2160D01*
G03X146593Y69070I0J-3022D01*
G02X146269I-162J184D01*
G03X144891Y69760I-1997J-2268D01*
G02X144700Y70046I50J240D01*
G03X144754Y70612I-2968J569D01*
G03X141960Y73625I-3022J0D01*
G01Y73660D01*
G03X135916I-3022J0D01*
G03X138710Y70647I3022J0D01*
G01Y70612D01*
G03X141113Y67654I3022J0D01*
G02X141304Y67368I-50J-240D01*
G03X141250Y66802I2968J-569D01*
G03X144272Y63780I3022J0D01*
G03X146269Y64534I0J3022D01*
G02X146593I162J-184D01*
G03X148590Y63780I1997J2268D01*
G03X150705Y64643I0J3023D01*
G02X151047I171J-175D01*
G03X153162Y63780I2115J2160D01*
G03X156184Y66802I0J3022D01*
G03X156018Y67789I-3022J-1D01*
G02X156372Y68427I463J160D01*
G03X156828Y68569I-668J2948D01*
G02X157500Y68115I182J-455D01*
G01Y50800D01*
X147021Y40321D01*
G02X146259Y40407I-347J346D01*
G03X143700Y41822I-2559J-1606D01*
G03X141800Y41150I0J-3022D01*
G03X139900Y41822I-1900J-2350D01*
G03X137950Y41109I0J-3023D01*
G03X136000Y41822I-1950J-2310D01*
G03X132978Y38800I0J-3022D01*
G03X133024Y38275I3022J0D01*
G02X132541Y37700I-483J-85D01*
G01X105600D01*
X77922Y65378D01*
Y108378D01*
G03X80255Y109506I-22J3022D01*
G02X80994Y109534I382J-307D01*
G03X83200Y108578I2206J2067D01*
G03Y114622I0J3022D01*
G03X80845Y113494I0J-3022D01*
G02X80106Y113466I-382J307D01*
G03X77922Y114422I-2206J-2066D01*
G01Y204716D01*
G03Y208796I-2231J2040D01*
G01Y210622D01*
X71120Y217424D01*
Y250444D01*
X75819Y255143D01*
Y265041D01*
G03Y268827I-2357J1893D01*
G01Y314000D01*
X71819Y318000D01*
X18200D01*
X13800Y322400D01*
Y390300D01*
X15600Y392100D01*
G37*
G36*
G01X48900Y584400D02*
X71400D01*
X76200Y579600D01*
Y574100D01*
X61800Y559700D01*
Y529400D01*
X76200Y515000D01*
Y497400D01*
X87100Y486500D01*
Y462500D01*
X107550Y442050D01*
Y393250D01*
X118400Y382400D01*
Y359700D01*
X151837Y326263D01*
X164100D01*
X167800Y322563D01*
Y153500D01*
X175400Y145900D01*
X201000D01*
X209500Y137400D01*
Y122632D01*
X209042Y122174D01*
X161726D01*
X146423Y137477D01*
X146405Y137523D01*
G03X144725Y139203I-2805J-1125D01*
G01X144679Y139221D01*
X139300Y144600D01*
Y156867D01*
X139461Y156925D01*
G03X140632Y157696I-1031J2841D01*
G02X141376Y157660I357J-336D01*
G03X143764Y156490I2388J1852D01*
G03Y162534I0J3022D01*
G03X141562Y161582I0J-3023D01*
G02X140818Y161618I-357J336D01*
G03X139461Y162607I-2388J-1852D01*
G01X139300Y162665D01*
Y298850D01*
X132588Y305562D01*
X107538D01*
X104500Y308600D01*
Y340700D01*
X82500Y362700D01*
Y388100D01*
X76100Y394500D01*
X60400D01*
X56800Y398100D01*
Y454916D01*
G02X57345Y455403I490J0D01*
G03X57682Y455384I338J3003D01*
G03X60704Y458406I0J3022D01*
G03X59845Y460516I-3021J0D01*
G03X60704Y462626I-2162J2110D01*
G03X57682Y465648I-3022J0D01*
G03X57345Y465629I1J-3022D01*
G02X56800Y466116I-55J487D01*
G01Y496700D01*
X44500Y509000D01*
Y580000D01*
X48900Y584400D01*
G37*
G36*
G01X236728Y544250D02*
Y564642D01*
Y568960D01*
X235966Y569722D01*
X229108D01*
X227584Y568198D01*
Y538466D01*
X233050Y533000D01*
X240800D01*
X242000Y534200D01*
Y538978D01*
X236728Y544250D01*
G37*
G36*
G01X395440Y569300D02*
Y565186D01*
X394954Y564700D01*
X389068D01*
X388100Y565668D01*
Y568600D01*
X389400Y569900D01*
X394840D01*
X395440Y569300D01*
G37*
%LPC*%
G75*
G36*
G01X56726Y170979D02*
G02X55398Y173482I1695J2503D01*
G02X61442I3022J0D01*
G02X59021Y170520I-3022J0D01*
G03X58844Y169635I98J-480D01*
G02X60172Y167132I-1695J-2503D01*
G02X54128I-3022J0D01*
G02X56549Y170094I3022J0D01*
G03X56726Y170979I-98J480D01*
G37*
G36*
G01X101978Y106462D02*
G03X101392Y106937I-490J-6D01*
G02X100800Y106878I-594J2963D01*
G02Y112922I0J3022D01*
G02X103822Y109938I0J-3022D01*
G03X104408Y109463I490J6D01*
G02X105000Y109522I594J-2963D01*
G02Y103478I0J-3022D01*
G02X101978Y106462I0J3022D01*
G37*
G36*
G01X108186Y140650D02*
G03X108753Y141182I79J484D01*
G02X108738Y141478I3007J301D01*
G02X111760Y138456I3022J0D01*
G02X111270Y138496I0J3021D01*
G03X110703Y137964I-79J-484D01*
G02X110718Y137668I-3007J-301D01*
G02X107696Y134646I-3022J0D01*
G02X106028Y135148I0J3022D01*
G03X105284Y134865I-270J-409D01*
G02X102362Y132614I-2922J771D01*
G02Y138658I0J3022D01*
G02X104030Y138156I0J-3022D01*
G03X104774Y138439I270J409D01*
G02X107696Y140690I2922J-771D01*
G02X108186Y140650I0J-3021D01*
G37*
G36*
G01X104177Y154186D02*
G03X103504Y154682I-488J42D01*
G02X102362Y154458I-1142J2799D01*
G02X105384Y157480I0J3022D01*
G02X105373Y157218I-3022J-4D01*
G03X106046Y156722I488J-42D01*
G02X107188Y156946I1142J-2799D01*
G02X110210Y153924I0J-3022D01*
G02X107826Y150970I-3022J0D01*
G03X107542Y150190I103J-479D01*
G02X108178Y148336I-2386J-1855D01*
G02X102134I-3022J0D01*
G02X104518Y151290I3022J0D01*
G03X104802Y152070I-103J479D01*
G02X104166Y153924I2386J1855D01*
G02X104177Y154186I3022J4D01*
G37*
G36*
G01X108355Y100962D02*
G03X109179Y101003I399J285D01*
G02X111800Y102522I2621J-1502D01*
G02X114822Y99506I0J-3022D01*
G03X115338Y99018I490J1D01*
G02X115500Y99022I156J-3018D01*
G02Y92978I0J-3022D01*
G02X112478Y95994I0J3022D01*
G03X111962Y96482I-490J-1D01*
G02X111800Y96478I-156J3018D01*
G02X109345Y97738I0J3022D01*
G03X108521Y97697I-399J-285D01*
G02X105900Y96178I-2621J1502D01*
G02X103855Y96975I0J3022D01*
G03X103043Y96707I-331J-361D01*
G02X100076Y94260I-2967J575D01*
G02Y100304I0J3022D01*
G02X102121Y99507I0J-3022D01*
G03X102933Y99775I331J361D01*
G02X105900Y102222I2967J-575D01*
G02X108355Y100962I0J-3022D01*
G37*
G36*
G01X62709Y403281D02*
G03Y403619I-178J169D01*
G02X61878Y405700I2190J2081D01*
G02X64900Y408722I3022J0D01*
G02X66957Y407914I0J-3022D01*
G02X68900Y408622I1944J-2314D01*
G02X70900Y407865I0J-3022D01*
G02X72900Y408622I2000J-2265D01*
G02X75922Y405600I0J-3022D01*
G02X75091Y403519I-3021J0D01*
G03Y403181I178J-169D01*
G02X75922Y401100I-2190J-2081D01*
G02X72900Y398078I-3022J0D01*
G02X70900Y398835I0J3022D01*
G02X68900Y398078I-2000J2265D01*
G02X66843Y398886I0J3022D01*
G02X64900Y398178I-1944J2314D01*
G02X61878Y401200I0J3022D01*
G02X62709Y403281I3021J0D01*
G37*
G36*
G01X81148Y422134D02*
G03X80352I-398J-286D01*
G02X77900Y420878I-2452J1765D01*
G02Y426922I0J3022D01*
G02X80352Y425666I0J-3021D01*
G03X81148I398J286D01*
G02X83600Y426922I2452J-1765D01*
G02Y420878I0J-3022D01*
G02X81148Y422134I0J3021D01*
G37*
G36*
G01Y430034D02*
G03X80352I-398J-286D01*
G02X77900Y428778I-2452J1765D01*
G02Y434822I0J3022D01*
G02X80352Y433566I0J-3021D01*
G03X81148I398J286D01*
G02X83600Y434822I2452J-1765D01*
G02Y428778I0J-3022D01*
G02X81148Y430034I0J3021D01*
G37*
G36*
G01X81248Y436934D02*
G03X80452I-398J-286D01*
G02X78000Y435678I-2452J1765D01*
G02Y441722I0J3022D01*
G02X80452Y440466I0J-3021D01*
G03X81248I398J286D01*
G02X83700Y441722I2452J-1765D01*
G02Y435678I0J-3022D01*
G02X81248Y436934I0J3021D01*
G37*
G36*
G01X72300Y475350D02*
G02X70400Y474678I-1900J2350D01*
G02X67378Y477700I0J3022D01*
G02X68050Y479600I3022J0D01*
G02X67378Y481500I2350J1900D01*
G02X70400Y484522I3022J0D01*
G02X72300Y483850I0J-3022D01*
G02X74200Y484522I1900J-2350D01*
G02X77222Y481500I0J-3022D01*
G02X76550Y479600I-3022J0D01*
G02X77222Y477700I-2350J-1900D01*
G02X74200Y474678I-3022J0D01*
G02X72300Y475350I0J3022D01*
G37*
G54D31*
X145288Y257282D03*
X142494Y270510D03*
G54D29*
X60452Y158750D03*
X66040Y181610D03*
X70866Y187452D03*
X61700Y252000D03*
Y242500D03*
X114800Y64500D03*
X122700Y64300D03*
X86800Y67500D03*
X101578Y67078D03*
X94600Y66900D03*
X108500Y67200D03*
X137668Y85100D03*
X125222Y90170D03*
X132200Y91000D03*
X122174Y159512D03*
X88138Y208026D03*
X71700Y326300D03*
X140000Y327200D03*
G54D30*
X25400Y330200D03*
Y355600D03*
Y381000D03*
G54D33*
X88899Y100330D03*
%LPD*%
G75*
G54D10*
X9707Y417793D03*
X19300Y199000D03*
X19558Y240538D03*
X22500Y451500D03*
X18400Y451400D03*
X20700Y455200D03*
X16700Y455100D03*
X17100Y482500D03*
X21100D03*
Y486500D03*
X17100D03*
X25000Y204700D03*
X31496Y214376D03*
X29718Y266700D03*
X55800Y36500D03*
X57200Y89400D03*
X57100Y98300D03*
X57200Y93000D03*
X57150Y167132D03*
X58420Y173482D03*
X57682Y458406D03*
Y462626D03*
X59600Y95700D03*
X60452Y158750D03*
X66040Y181610D03*
X61700Y252000D03*
Y242500D03*
X69596Y262382D03*
X68100Y280000D03*
X68900Y405600D03*
Y401100D03*
X64900Y401200D03*
Y405700D03*
X70400Y481500D03*
Y477700D03*
X68500Y543900D03*
X68900Y555500D03*
X65200Y552400D03*
Y548500D03*
X67900Y580300D03*
X65800Y576600D03*
X77900Y111400D03*
X70866Y187452D03*
X73000Y197900D03*
X75692Y206756D03*
X74422Y219202D03*
X76862Y251530D03*
X73463Y266934D03*
X79756Y273558D03*
X71700Y326300D03*
X75200Y389636D03*
X72900Y405600D03*
Y401100D03*
X77900Y423900D03*
X78000Y438700D03*
X77900Y431800D03*
X74200Y481500D03*
Y477700D03*
X72700Y543900D03*
X72900Y555400D03*
X70900Y576500D03*
X74700Y588300D03*
X86800Y67500D03*
X83200Y111600D03*
X88138Y208026D03*
X93472Y221488D03*
X83600Y423900D03*
X83700Y438700D03*
X83600Y431800D03*
X84400Y601200D03*
X90400Y612850D03*
X94000Y614500D03*
X101578Y67078D03*
X94600Y66900D03*
X100076Y97282D03*
X100800Y109900D03*
X105000Y106500D03*
X102362Y135636D03*
X105156Y148336D03*
X102362Y157480D03*
X98200Y503100D03*
X95000Y506707D03*
X94900Y516400D03*
X95000Y511477D03*
X94250Y610850D03*
X97600Y614800D03*
X98150Y611150D03*
X115300Y41200D03*
X111100Y41300D03*
X109100Y44600D03*
X113300D03*
X114800Y64500D03*
X108500Y67200D03*
X105900Y99200D03*
X111800Y99500D03*
X115500Y96000D03*
X111760Y141478D03*
X107696Y137668D03*
X107188Y153924D03*
X114046Y201676D03*
X106426Y274320D03*
X107188Y314452D03*
X112251Y380651D03*
X113900Y496200D03*
X117400Y516000D03*
X115850Y541650D03*
X119800Y41300D03*
X117500Y44600D03*
X121900Y44500D03*
X122700Y64300D03*
X125222Y90170D03*
X122174Y159512D03*
X128524Y164338D03*
X128778Y300228D03*
X127700Y375450D03*
X128200Y493100D03*
X121000Y491600D03*
X119690Y496570D03*
X124460D03*
X120900Y537700D03*
X124100Y597470D03*
X128550Y600330D03*
X128760Y610370D03*
X123640Y606640D03*
X128550Y605100D03*
X136000Y38800D03*
X139900D03*
X138938Y73660D03*
X137668Y85100D03*
X132200Y91000D03*
X138430Y159766D03*
X133096D03*
X133604Y177038D03*
X133100Y201200D03*
X133300Y205500D03*
X129540Y295910D03*
X140000Y327200D03*
X135539Y355761D03*
X131600Y369300D03*
X130450Y372750D03*
X138000Y392100D03*
X139900Y479600D03*
X133700Y494900D03*
X139600Y528300D03*
X135600Y535800D03*
X140465Y587865D03*
X139960Y583590D03*
X130830Y595570D03*
X131600Y612900D03*
X135400Y608400D03*
X136430Y613400D03*
X139900Y606100D03*
X143700Y38800D03*
X141732Y70612D03*
X144272Y66802D03*
X148590D03*
X143510Y80518D03*
X143600Y136398D03*
X143764Y159512D03*
X145288Y257282D03*
X142494Y270510D03*
X145100Y348600D03*
X142500Y353500D03*
X143800Y364200D03*
X140949Y380651D03*
X146304Y416052D03*
X152400Y434340D03*
Y430276D03*
Y438658D03*
X142800Y473500D03*
X143200Y483700D03*
X148200Y503400D03*
X150300Y515400D03*
X143600Y524764D03*
X149600Y606000D03*
X146300Y613850D03*
X148100Y609800D03*
X141200Y613400D03*
X144670Y606100D03*
X151430Y613800D03*
X159766Y27940D03*
X155702Y71374D03*
X153162Y66802D03*
X152908Y423164D03*
X153218Y502666D03*
X157988D03*
X161200Y613300D03*
X159500Y606850D03*
X156200Y613800D03*
X168402Y13970D03*
X173736Y13208D03*
X164338Y17526D03*
X169672Y26416D03*
X166878Y22098D03*
X175768Y150876D03*
X170900Y171400D03*
X173754Y167386D03*
X173700Y206000D03*
X174935Y211003D03*
X178308Y23622D03*
X178300Y30000D03*
X178124Y50100D03*
X182118Y150876D03*
X186100Y169800D03*
X182900Y164900D03*
X178524Y167386D03*
X179070Y160528D03*
X183500Y178770D03*
Y174000D03*
X185800Y195600D03*
X179800Y200100D03*
X179960Y206170D03*
X178308Y214376D03*
X178900Y219200D03*
X177860Y226270D03*
X186944Y270510D03*
X185984Y496570D03*
X193400Y69400D03*
X197700Y69500D03*
X196600Y130100D03*
X188976Y153416D03*
X193548Y162560D03*
X191500Y169000D03*
X190500Y181730D03*
Y186500D03*
X192600Y206500D03*
X188040D03*
X190246Y202128D03*
Y197358D03*
X192243Y216627D03*
X193294Y229362D03*
X192243Y221397D03*
X187703Y240528D03*
X193294Y234132D03*
X192500Y246900D03*
X187703Y245298D03*
X197400Y274400D03*
X190246Y266700D03*
X195300Y282100D03*
X198374Y278602D03*
X194500Y288800D03*
Y293200D03*
X194564Y347218D03*
X192532Y351790D03*
X189600Y355100D03*
X191100Y359300D03*
X192400Y383300D03*
X195500Y395600D03*
X190754Y496570D03*
X194600Y617350D03*
X204000Y28000D03*
X206600Y43500D03*
X202100Y69600D03*
X204500Y125000D03*
X201000Y126000D03*
X203800Y128700D03*
X200200Y129800D03*
X199390Y284819D03*
X199700Y375000D03*
X205600Y401600D03*
X201400Y398500D03*
X202300Y406600D03*
X209000Y406000D03*
X201500Y561200D03*
X206650Y611450D03*
X209450Y618450D03*
X204400Y617200D03*
X199630D03*
X218700Y46600D03*
X213500Y44100D03*
X214050Y462250D03*
X220450Y459250D03*
X224200Y91600D03*
X231902Y96400D03*
X233140Y475313D03*
Y480083D03*
X224700Y502158D03*
X225700Y529900D03*
X235400Y439900D03*
X245000Y438200D03*
X240230D03*
X238100Y473500D03*
X237900Y481600D03*
X236800Y528850D03*
X239500Y535100D03*
X235550Y535050D03*
X242800Y564400D03*
X243100Y638100D03*
X249428Y87884D03*
X247142Y99314D03*
X253492Y92202D03*
X257000Y215500D03*
X251500Y221500D03*
X257670Y339571D03*
X251757Y338734D03*
X248500Y434500D03*
X251847Y438418D03*
X256617D03*
X248500Y442200D03*
X253000Y454900D03*
X252750Y612050D03*
X252850Y619250D03*
X249700Y634700D03*
X259316Y210708D03*
X264178Y210516D03*
X268312Y207336D03*
X265358Y217000D03*
X263600Y224499D03*
X267150Y306267D03*
X266919Y300821D03*
X262921Y320821D03*
X260327Y316821D03*
X262546Y312379D03*
X261671Y326070D03*
X268313Y341587D03*
X262333Y339372D03*
X258921Y352820D03*
X266636Y351395D03*
X264414Y363220D03*
X269000Y380000D03*
X268000Y374500D03*
X263500Y379000D03*
X260100Y434600D03*
X263230Y438500D03*
X268000D03*
X259800Y443000D03*
X260600Y486700D03*
X266192Y479377D03*
Y484147D03*
X260050Y542900D03*
X259750Y557000D03*
X258000Y609400D03*
X265800Y642500D03*
X264220Y657330D03*
X268120Y653590D03*
X267920Y657440D03*
X279146Y109728D03*
X274386Y217194D03*
X269870D03*
X279042Y296012D03*
X273528Y311567D03*
X277680Y307736D03*
X273536Y303819D03*
X277681Y315820D03*
X273546Y321092D03*
X280866Y321024D03*
X270983Y332166D03*
X269669Y327819D03*
X277681Y325820D03*
X277670Y332820D03*
X278671Y340821D03*
X270764Y345440D03*
X274670Y336821D03*
X273670Y354070D03*
X277496Y349735D03*
X277277Y357904D03*
X276500Y364500D03*
Y368500D03*
X271810Y363786D03*
X276670Y376820D03*
X280600Y440600D03*
X272571Y435460D03*
X277622Y435356D03*
X271400Y442700D03*
X270900Y486300D03*
X278300Y516900D03*
X269800Y618850D03*
X272070Y657190D03*
X271970Y653490D03*
X291266Y167110D03*
X292030Y170862D03*
X284398Y171116D03*
X288214Y170862D03*
X291266Y174868D03*
X292272Y206606D03*
X282000Y208500D03*
X282811Y311940D03*
X285202Y305293D03*
X288529Y300804D03*
X281671Y303602D03*
X290711Y304759D03*
X289814Y310037D03*
X285166Y323724D03*
X292512Y319295D03*
X286729Y316746D03*
X285948Y332222D03*
X289687Y333249D03*
X281493Y327814D03*
X289669Y324367D03*
X291785Y339909D03*
X287388Y342971D03*
X284040Y338900D03*
X284241Y346625D03*
X292079Y347709D03*
X291036Y356072D03*
X281671Y352399D03*
X285671Y357821D03*
Y349820D03*
X290718Y361796D03*
X282029Y363605D03*
X290670Y368819D03*
X285958Y365832D03*
X283058Y371962D03*
X282846Y376820D03*
X283464Y435356D03*
X288234D03*
X290640Y498625D03*
Y493855D03*
X290400Y504000D03*
X287200Y532050D03*
X284850Y543900D03*
X288000Y551250D03*
X284050Y570450D03*
X289230Y570500D03*
X283300Y623600D03*
X298950Y201836D03*
X299904Y206606D03*
X296088D03*
X298632Y210510D03*
X294330Y310000D03*
X300420Y304819D03*
X296670Y300821D03*
X304499Y311819D03*
X300990Y316484D03*
X302132Y321607D03*
X297529Y321521D03*
X302345Y335572D03*
X301478Y326076D03*
X298350Y331586D03*
X294202Y333373D03*
X296750Y341852D03*
X301670Y352752D03*
X297670Y357821D03*
X297712Y349800D03*
X301670Y360664D03*
X297722Y365819D03*
X304420Y372820D03*
X295529Y374464D03*
X295100Y484000D03*
X299720Y485727D03*
X295200Y492400D03*
X304100Y492500D03*
X299720Y490497D03*
X300900Y509100D03*
X302350Y520550D03*
X294000Y524850D03*
X293600Y543800D03*
X299000Y569350D03*
X302900Y562600D03*
X294000Y570500D03*
X296050Y630510D03*
X309626Y144018D03*
X313961Y300274D03*
X313873Y307741D03*
X309669Y319571D03*
X312669Y312820D03*
X313614Y331904D03*
X309669Y325820D03*
X305816Y331820D03*
X309241Y337523D03*
X313753Y337328D03*
X313669Y344819D03*
X306135Y341632D03*
X310169Y348337D03*
X310298Y355827D03*
X313669Y352820D03*
X305661Y357821D03*
X305711Y349063D03*
X309874Y368588D03*
X313669Y360821D03*
X305778Y365217D03*
X310116Y376820D03*
X306919Y380821D03*
X312950Y543650D03*
X305500Y547200D03*
X310800Y661500D03*
X314800Y661600D03*
X312300Y665200D03*
X323849Y115551D03*
X326100Y137600D03*
X322744Y141640D03*
X326357Y149144D03*
X321397Y150637D03*
X318770Y163278D03*
X326898Y185674D03*
X324664Y193294D03*
X325825Y300584D03*
X318334Y301402D03*
X320548Y309644D03*
X326966Y308311D03*
X319855Y314278D03*
X325493Y320285D03*
X317441Y320393D03*
X327032Y313500D03*
X318935Y332531D03*
X322058Y328034D03*
X326167Y330114D03*
X322131Y337560D03*
X321670Y345472D03*
X317748Y340808D03*
X321670Y353316D03*
X325698Y357662D03*
X326115Y349794D03*
X317671Y357048D03*
X317748Y349076D03*
X316384Y370331D03*
X325768Y365604D03*
X318920Y364819D03*
X319861Y376735D03*
X321670Y371569D03*
X325400Y479900D03*
X325200Y490000D03*
X318200Y548900D03*
X325882Y566674D03*
X333716Y131318D03*
X332966Y145946D03*
X329438Y160782D03*
X336000Y295361D03*
X334493Y311500D03*
X329669Y303757D03*
X334727Y318043D03*
X333669Y335670D03*
X329299Y334096D03*
X330875Y324819D03*
X330970Y342396D03*
X338179Y342914D03*
X336897Y348815D03*
X330544Y352653D03*
X330843Y357160D03*
X333669Y367569D03*
X330948Y361675D03*
X333012Y380821D03*
X330864Y376820D03*
X329862Y371332D03*
X334772Y471170D03*
X333100Y478400D03*
X331500Y487700D03*
Y482930D03*
X330708Y503682D03*
X329438Y511556D03*
X337368Y542544D03*
X328676Y564388D03*
X349814Y152676D03*
X345823Y162800D03*
X340500Y256000D03*
X340305Y297149D03*
X347500Y344554D03*
X340300Y468300D03*
X346202Y519430D03*
X348742Y513080D03*
X344500Y532150D03*
X350520Y525272D03*
X344750Y538100D03*
X342138Y542544D03*
X342150Y549150D03*
X349521Y560324D03*
X361828Y97260D03*
X362966Y158750D03*
X362500Y154136D03*
X355597Y171848D03*
X353060Y202184D03*
X353090Y205882D03*
Y209698D03*
Y213514D03*
X360689Y231992D03*
X360850Y235584D03*
X361000Y249000D03*
X354450Y459050D03*
X359300Y472400D03*
X359800Y489700D03*
X357434Y494030D03*
X362204D03*
X359156Y516128D03*
X353743Y516382D03*
X358394Y529082D03*
X362712Y526288D03*
X358394Y524002D03*
X357750Y545300D03*
X359918Y539300D03*
X361498Y548640D03*
X356362Y549910D03*
X354291Y560324D03*
X360100Y560100D03*
X372500Y45500D03*
X371602Y116586D03*
X374248Y123574D03*
X364112Y118488D03*
X366824Y136800D03*
X372926Y144062D03*
X363720Y142700D03*
X370840Y155194D03*
X370202Y170622D03*
X371889Y174812D03*
X365620Y232084D03*
X370527Y231826D03*
X365620Y235584D03*
X370390D03*
X373888Y271272D03*
X371278Y287838D03*
X374640Y296920D03*
X366724Y307732D03*
X371790Y307070D03*
X365773Y321100D03*
X371192Y367685D03*
X371816Y380567D03*
X366300Y483400D03*
X366100Y490300D03*
X372300Y489500D03*
X365600Y499100D03*
X369626Y494030D03*
X374396D03*
X364683Y531429D03*
X371912Y552196D03*
X366268Y548640D03*
X367300Y562550D03*
X379800Y40400D03*
X376428Y93726D03*
X385765Y147424D03*
X375234Y171777D03*
X378480Y168636D03*
X384556Y165354D03*
X383716Y178960D03*
X381225Y190846D03*
X384637Y192266D03*
X381000Y203454D03*
X382641Y296920D03*
X379927Y313508D03*
X377540Y333029D03*
X380402Y353994D03*
X384536Y354173D03*
X385490Y372203D03*
X377222Y380250D03*
X385227Y393249D03*
X376609Y393631D03*
X376288Y400936D03*
X382200Y420100D03*
X376100Y467300D03*
X383650Y531750D03*
X384200Y526000D03*
X379550Y556350D03*
X376682Y552196D03*
X376450Y579750D03*
X386300Y579400D03*
X381530D03*
X386900Y45400D03*
X389500Y110220D03*
X390224Y117856D03*
X390683Y131741D03*
X389043Y144146D03*
X394208Y151384D03*
X389977Y171537D03*
X387096Y161290D03*
X386910Y175766D03*
X389128Y201930D03*
X393672Y227316D03*
X393789Y231074D03*
X390837Y271473D03*
X388198Y279598D03*
X395790Y294058D03*
X393489Y307101D03*
X386596Y333029D03*
X388123Y357401D03*
X395348Y353994D03*
X392804Y381203D03*
X396445Y389751D03*
X387802Y415810D03*
X392706Y406533D03*
X388400Y423400D03*
X394068Y436232D03*
X392001Y481076D03*
X396771D03*
X398200Y490700D03*
X397000Y501300D03*
X390144Y529646D03*
Y534416D03*
X392176Y524256D03*
X394200Y537600D03*
X396750Y544750D03*
X392068Y542400D03*
X389890Y566928D03*
X393700D03*
X390100Y575850D03*
X390650Y581800D03*
X405600Y42700D03*
X408200Y46300D03*
X398400Y43700D03*
X405130Y142509D03*
X409630Y137409D03*
X403720Y227316D03*
X398696Y227062D03*
Y230816D03*
X403595Y230884D03*
X406641Y271720D03*
X398479Y271724D03*
X403799Y287349D03*
X409341Y282303D03*
X409659Y293433D03*
X403863Y307070D03*
X398640Y310719D03*
X406641Y313729D03*
X404625Y318053D03*
Y370055D03*
X404888Y363395D03*
X398958Y369221D03*
X404578Y380466D03*
Y393466D03*
X406474Y414266D03*
X408606Y406534D03*
X400760Y457760D03*
X398300Y476100D03*
X408100Y493600D03*
X399367Y496824D03*
X404137D03*
X409200Y506800D03*
Y502030D03*
X408600Y511900D03*
X409700Y543750D03*
X401800Y588500D03*
X406631Y589026D03*
X419800Y37000D03*
X412100Y38000D03*
X412750Y33528D03*
X416100Y46200D03*
X414335Y167825D03*
X410726Y167938D03*
X420878Y205486D03*
X413620Y203454D03*
X409956Y398070D03*
X418872Y411086D03*
X413800Y482000D03*
X413600Y487000D03*
X410700Y497200D03*
X421200Y497800D03*
X415500Y496600D03*
X413600Y491770D03*
X417600Y524350D03*
X413000Y556250D03*
X414140Y546299D03*
Y551069D03*
X416400Y590100D03*
X411401Y589026D03*
X426200Y36600D03*
X423926Y159929D03*
X423672Y170688D03*
X429514Y165354D03*
X430639Y271720D03*
X432555Y285483D03*
X428012Y279232D03*
X425086Y281748D03*
X423814Y286200D03*
X427890Y300474D03*
X428421Y292161D03*
X425404Y289698D03*
X427244Y307070D03*
X426195Y318360D03*
X428576Y373967D03*
X432702Y380466D03*
X428694Y383125D03*
X427958Y392184D03*
X427889Y398049D03*
X430639Y413920D03*
X432702Y406466D03*
X430100Y473234D03*
X422300Y511200D03*
X430300Y527850D03*
X423350Y528200D03*
X424650Y534650D03*
X429930Y535700D03*
X421650Y552200D03*
X432900Y561200D03*
Y588400D03*
X443283Y206526D03*
X444625Y276586D03*
X438640Y271720D03*
X439233Y296931D03*
X444321Y305518D03*
X436852Y311322D03*
X441777Y362441D03*
X433509Y365621D03*
X436371Y373889D03*
X438640Y388720D03*
X444578Y406466D03*
X434800Y472600D03*
X439100Y537800D03*
X438050Y546150D03*
X434700Y535700D03*
X439000Y562200D03*
X433800Y566006D03*
X436100Y575400D03*
X433800Y570776D03*
X439900Y583600D03*
X437792Y590296D03*
X442562D03*
X442214Y646176D03*
X443700Y643000D03*
X440100Y643200D03*
X448500Y36100D03*
X455602Y194518D03*
X452300Y190200D03*
X449672Y281070D03*
X450682Y292797D03*
X452908Y330640D03*
X448643Y335107D03*
X454816Y349721D03*
X449387Y349762D03*
X449201Y377130D03*
X453862Y388836D03*
X449702Y411070D03*
X463000Y44400D03*
X463395Y122179D03*
X463042Y118364D03*
Y133858D03*
Y130048D03*
X463072Y125994D03*
X463042Y137668D03*
X458500Y149600D03*
X462200D03*
X465900D03*
X467400Y156600D03*
Y153000D03*
X463551Y182215D03*
Y186985D03*
X465490Y287570D03*
X465766Y300570D03*
X465628Y294069D03*
Y307108D03*
X465490Y313569D03*
Y320069D03*
X465478Y326833D03*
X465490Y333069D03*
X464836Y346620D03*
X465472Y336762D03*
X459862Y359071D03*
X465490Y352556D03*
Y365571D03*
X465487Y372204D03*
X465489Y378656D03*
X465596Y385070D03*
X465490Y391570D03*
X465596Y398070D03*
X467800Y433600D03*
X467000Y439600D03*
X474726Y87376D03*
X469400Y149900D03*
X474980Y406400D03*
X476900Y440000D03*
X476500Y432700D03*
X471700Y440600D03*
X481000Y438200D03*
G54D20*
G01X319861Y376735D02*
Y384481D01*
X315468Y388874D01*
Y422032D01*
X288900Y448600D01*
X239300D01*
X210400Y477500D01*
Y530800D01*
X196200Y545000D01*
Y555900D01*
X201500Y561200D01*
G54D11*
X7620Y485298D03*
Y497998D03*
Y510698D03*
Y523398D03*
Y561498D03*
Y574198D03*
Y586898D03*
Y599598D03*
Y612298D03*
Y624998D03*
Y637698D03*
X21200Y114350D03*
X18400Y139150D03*
X18050Y165200D03*
X18250Y207750D03*
X16300Y570000D03*
X16000Y607800D03*
X24000Y622900D03*
X17700Y617800D03*
X15800Y638200D03*
X23800Y631900D03*
X23100Y638300D03*
X34290Y136652D03*
X33020Y141986D03*
X24200Y190600D03*
X29200Y570200D03*
X32800Y638600D03*
X39227Y22348D03*
X41600Y42550D03*
X38100Y52950D03*
X47250Y53650D03*
X44200Y47400D03*
X42500Y63500D03*
X42200Y69100D03*
X42450Y75550D03*
X42400Y82700D03*
X36400Y579300D03*
X44200Y638400D03*
X48207Y13368D03*
X55880Y30480D03*
X51600Y638500D03*
X57000D03*
X59532Y7620D03*
X97632D03*
X98450Y14300D03*
X97850Y26250D03*
X210900Y467400D03*
X220900Y7650D03*
X222200Y646350D03*
X222150Y656000D03*
X222884Y666880D03*
X228450Y14000D03*
X234450Y21700D03*
X224650Y507600D03*
X233680Y564134D03*
X230050Y566050D03*
X229150Y673300D03*
X223184Y678180D03*
X237200Y7550D03*
X241350Y507350D03*
X243450Y633000D03*
X241500Y646050D03*
X249650Y640350D03*
X250530Y645560D03*
X266350Y16650D03*
Y31050D03*
X260350Y640650D03*
X270800Y562700D03*
X280150Y562350D03*
X291950Y16950D03*
X292950Y562450D03*
X298500Y35650D03*
X312084Y678180D03*
X326232Y7620D03*
X316950Y43600D03*
X338932Y7620D03*
X335280Y30480D03*
X336800Y43200D03*
X341660Y607350D03*
X347980Y652980D03*
Y665480D03*
X350184Y678180D03*
X360680Y652980D03*
X359550Y664750D03*
X360400Y678150D03*
X372850Y633400D03*
X368700Y662500D03*
X372635Y666629D03*
X376927Y9243D03*
X385908Y18224D03*
X379650Y24750D03*
X386080Y652980D03*
X381300Y662100D03*
X377969Y666629D03*
X375584Y678180D03*
X395500Y249200D03*
X390400Y664500D03*
X389250Y678200D03*
X403050Y452850D03*
X400450Y464950D03*
X398780Y652980D03*
Y665480D03*
X400984Y678180D03*
X410450Y459350D03*
X410950Y466450D03*
X418100Y466100D03*
X411400Y653100D03*
X411480Y665480D03*
X413684Y678180D03*
X426600Y93900D03*
X435150Y102200D03*
X441993Y473456D03*
X439084Y678180D03*
X455300Y100850D03*
X455700Y511300D03*
X451784Y678180D03*
X457600Y589600D03*
X457500Y585200D03*
X461400Y596800D03*
X457500Y594100D03*
Y598700D03*
X475700Y212400D03*
X491235Y50137D03*
X480600Y638700D03*
X480850Y655050D03*
X487680Y665480D03*
X489884Y678180D03*
X495078Y33020D03*
X492450Y44050D03*
X495250Y55500D03*
X501250Y87850D03*
X500100Y113150D03*
X500500Y138300D03*
X501350Y164200D03*
X501800Y189900D03*
X501950Y215550D03*
X500380Y246380D03*
X500000Y408800D03*
X499150Y434350D03*
X499900Y485150D03*
X499800Y510600D03*
X501700Y560400D03*
X501203Y570897D03*
X501100Y599000D03*
X497300Y606500D03*
X497750Y619150D03*
X501850Y639000D03*
X501700Y655300D03*
X502550Y664650D03*
X502584Y678180D03*
X507778Y33020D03*
X515150Y63350D03*
Y139250D03*
X515250Y190850D03*
X514900Y215300D03*
X513080Y246380D03*
X515200Y281700D03*
X515350Y308350D03*
X515050Y358300D03*
X515200Y434500D03*
X513080Y513080D03*
X508000Y556900D03*
X513590Y569900D03*
X515284Y678180D03*
X519612Y37628D03*
X525780Y48730D03*
Y61430D03*
Y74130D03*
Y86830D03*
X515550Y88600D03*
X525780Y99530D03*
Y112230D03*
Y124930D03*
X515550Y114700D03*
X525780Y137630D03*
Y150330D03*
Y163030D03*
X515550Y164500D03*
X525780Y175730D03*
Y188430D03*
Y201130D03*
Y213830D03*
Y226530D03*
Y239230D03*
Y251930D03*
Y264630D03*
Y277330D03*
Y290030D03*
Y302730D03*
Y315430D03*
Y328130D03*
X515750Y332750D03*
X525780Y340830D03*
Y353530D03*
Y366230D03*
Y378930D03*
Y391630D03*
X515650Y383700D03*
X525780Y404330D03*
Y417030D03*
X515900Y409800D03*
X525780Y429730D03*
Y442430D03*
Y455130D03*
X516050Y484700D03*
X525780Y493230D03*
Y505930D03*
Y518630D03*
Y544030D03*
Y556730D03*
Y569430D03*
X519300Y570500D03*
X525780Y582130D03*
Y594830D03*
Y607530D03*
X516200Y607500D03*
X525780Y620230D03*
X518050Y619250D03*
X525780Y632930D03*
X519300Y638550D03*
X525780Y645630D03*
Y658330D03*
X519150Y656300D03*
X525780Y671030D03*
G54D21*
G01X412750Y33528D02*
X379222D01*
X315250Y97500D01*
X251600D01*
X238300Y84200D01*
X147192D01*
G01D02*
X143510Y80518D01*
G01X358394Y524002D02*
X363220Y519176D01*
X368808D01*
G01X364683Y531429D02*
X367477D01*
X368808Y530098D01*
G01X393700Y566928D02*
Y570600D01*
X399000Y575900D01*
X411300D01*
X436200Y551000D01*
X448600D01*
X461010Y538590D01*
Y420370D01*
X474980Y406400D01*
G54D12*
X25400Y546100D03*
X76200Y25400D03*
X355600D03*
X508000Y533400D03*
G54D22*
G01X14883Y254000D02*
X25400D01*
G01X14883Y279400D02*
X25400D01*
G01X14883Y330200D02*
X25400D01*
G01X14883Y381000D02*
X25400D01*
G01Y243483D02*
Y254000D01*
G01D02*
Y264517D01*
G01Y254000D02*
X35917D01*
G01X25400Y268883D02*
Y279400D01*
G01D02*
Y289917D01*
G01Y279400D02*
X35917D01*
G01X25400Y304800D02*
Y315317D01*
G01Y304800D02*
X35917D01*
G01X25400Y319683D02*
Y330200D01*
G01D02*
Y340717D01*
G01Y330200D02*
X35917D01*
G01X25400Y370483D02*
Y381000D01*
G01D02*
X35917D01*
G01X243563Y23712D02*
X254110D01*
G01Y13165D02*
Y23712D01*
G01D02*
Y34259D01*
G01Y23712D02*
X264657D01*
G01X335260Y606555D02*
Y618572D01*
G01D02*
Y630589D01*
G01X328743Y618572D02*
X335260D01*
G01X338260Y623572D02*
Y630589D01*
G01Y623572D02*
X346777D01*
G01X335260Y649055D02*
Y664072D01*
G01D02*
Y679089D01*
G01X327743Y664072D02*
X335260D01*
G01D02*
X342777D01*
G01X418660Y623572D02*
Y630589D01*
G01X410143Y623572D02*
X418660D01*
G01X414143Y664072D02*
X421660D01*
G01Y606555D02*
Y618572D01*
G01D02*
Y630589D01*
G01Y618572D02*
X428177D01*
G01X421660Y649055D02*
Y664072D01*
G01D02*
Y679089D01*
G01Y664072D02*
X429177D01*
G01X497483Y421600D02*
X508000D01*
G01Y411083D02*
Y421600D01*
G01D02*
Y432117D01*
G01Y421600D02*
X518517D01*
G54D13*
X25400Y50800D03*
Y76200D03*
Y101600D03*
Y127000D03*
Y152400D03*
Y177800D03*
Y228600D03*
Y254000D03*
Y279400D03*
Y304800D03*
Y330200D03*
Y355600D03*
Y381000D03*
Y406400D03*
X508000Y50800D03*
Y76200D03*
Y101600D03*
Y127000D03*
Y152400D03*
Y177800D03*
Y203200D03*
Y228600D03*
Y269200D03*
Y294600D03*
Y320000D03*
Y345400D03*
Y370800D03*
Y396200D03*
Y421600D03*
Y447000D03*
Y472400D03*
Y497800D03*
G54D23*
G01X247142Y99314D02*
X257556Y109728D01*
X272542D01*
X283464Y120650D01*
X289560D01*
X296926Y128016D01*
Y146306D01*
X298956Y148336D01*
X315214D01*
X317754Y145796D01*
X323009D01*
X326357Y149144D01*
G54D14*
X88899Y100330D03*
X88900Y568960D03*
X444499Y100330D03*
X444500Y568960D03*
G54D24*
G01X225700Y529900D02*
X217000Y521200D01*
Y478700D01*
X240800Y454900D01*
X253000D01*
G01X283300Y623600D02*
X301970D01*
X310170Y615400D01*
Y566730D01*
X327000Y549900D01*
Y532700D01*
X339100Y520600D01*
Y475498D01*
X334772Y471170D01*
G01X359300Y472400D02*
X369000D01*
X383800Y487200D01*
Y497800D01*
X368808Y512792D01*
Y519176D01*
G01Y530098D02*
Y519176D01*
G54D15*
X254110Y23712D03*
Y49112D03*
X279510Y23712D03*
Y49112D03*
X304910Y23712D03*
Y49112D03*
G54D16*
X335260Y618572D03*
X421660D03*
G54D17*
X338260Y623572D03*
X418660D03*
G54D18*
X335260Y664072D03*
X421660D03*
G54D19*
X344460Y632072D03*
X412460D03*
M02*
