G04 ================== begin FILE IDENTIFICATION RECORD ==================*
G04 Layout Name:  U:/Project/48DMVQAD1.SGB/BRD/48DMVQAD1_SGB-20250729a4.brd*
G04 Film Name:    v5*
G04 File Format:  Gerber RS274X*
G04 File Origin:  Cadence Allegro 17.4-S029*
G04 Origin Date:  Tue Jul 29 17:18:18 2025*
G04 *
G04 Layer:  DRAWING FORMAT/TITLE_DATA_V5*
G04 Layer:  DRAWING FORMAT/TITLE_BLOCK*
G04 Layer:  DRAWING FORMAT/OUTLINE*
G04 Layer:  ETCH/V5*
G04 Layer:  MANUFACTURING/PHOTOPLOT_OUTLINE*
G04 Layer:  PIN/V5*
G04 Layer:  VIA CLASS/V5*
G04 *
G04 Offset:    (0.0000 0.0000)*
G04 Mirror:    No*
G04 Mode:      Positive*
G04 Rotation:  0*
G04 FullContactRelief:  No*
G04 UndefLineWidth:     0.1270*
G04 ================== end FILE IDENTIFICATION RECORD ====================*
%FSLAX44Y44*MOMM*%
%IR0*IPPOS*OFA0.00000B0.00000*MIA0B0*SFA1.00000B1.00000*%
%ADD19C,.5*%
%ADD14C,.8*%
%ADD10C,.35*%
%ADD11C,.4064*%
%ADD16O,1.X2.1*%
%ADD17O,1.4X1.1*%
%ADD18O,1.2X2.7*%
%ADD12C,3.2*%
%ADD13C,1.8*%
%ADD15C,1.96*%
%ADD20C,.2*%
%ADD21C,.3*%
%ADD22C,.4*%
%ADD23C,.203*%
%ADD24C,.2032*%
%ADD25C,.524*%
%ADD26C,.0635*%
%ADD32C,.4504*%
%ADD30C,.6044*%
%ADD33C,.6608*%
%ADD28C,2.0604*%
%ADD29C,2.1128*%
%ADD31C,2.0544*%
%ADD34C,1.3084*%
%ADD27C,3.7084*%
G75*
%LPD*%
G75*
G36*
G01X220082Y680720D02*
X523400D01*
G02X528320Y675800I-4J-4924D01*
G01Y42743D01*
X516057Y30480D01*
X401757D01*
X376357Y5080D01*
X52903D01*
X27503Y30480D01*
X10000D01*
G02X5080Y35400I3J4923D01*
G01Y640798D01*
X220082D01*
Y680720D01*
G37*
%LPC*%
G75*
G36*
G01X193013Y532528D02*
X135600D01*
G02Y539072I0J3272D01*
G01X194368D01*
G02X196682Y538114I1J-3272D01*
G01X213673Y521122D01*
X242495D01*
X253986Y532614D01*
G02X256300Y533572I2313J-2314D01*
G01X273300D01*
G02X275614Y532614I1J-3272D01*
G01X280614Y527614D01*
G02X281572Y525300I-2314J-2313D01*
G01Y516900D01*
G02X275028I-3272J0D01*
G01Y523945D01*
X271945Y527028D01*
X257655D01*
X246164Y515536D01*
G02X243850Y514578I-2313J2314D01*
G01X212318D01*
G02X210004Y515536I-1J3272D01*
G01X193013Y532528D01*
G37*
G36*
G01X166352Y25074D02*
G03X166742Y25676I-85J482D01*
G02X166650Y26416I2930J740D01*
G02X172694I3022J0D01*
G02X170198Y23440I-3022J0D01*
G03X169808Y22838I85J-482D01*
G02X169900Y22098I-2930J-740D01*
G02X167548Y19151I-3022J0D01*
G03X167194Y18513I109J-478D01*
G02X167360Y17526I-2856J-988D01*
G02X167359Y17450I-3022J2D01*
G03X167926Y16954I490J-12D01*
G02X168402Y16992I478J-2984D01*
G02X170971Y15561I0J-3021D01*
G03X171715Y15455I416J258D01*
G02X173736Y16230I2021J-2248D01*
G02Y10186I0J-3022D01*
G02X171167Y11617I0J3021D01*
G03X170423Y11723I-416J-258D01*
G02X168402Y10948I-2021J2248D01*
G02X165380Y13970I0J3022D01*
G02X165381Y14046I3022J-2D01*
G03X164814Y14542I-490J12D01*
G02X164338Y14504I-478J2984D01*
G02X161316Y17526I0J3022D01*
G02X163668Y20473I3022J0D01*
G03X164022Y21111I-109J478D01*
G02X163856Y22098I2856J988D01*
G02X166352Y25074I3022J0D01*
G37*
G36*
G01X405597Y44952D02*
G03X406061Y45595I-1J490D01*
G02X405948Y46300I2139J704D01*
G02X410452I2252J0D01*
G02X408203Y44048I-2252J0D01*
G03X407739Y43405I1J-490D01*
G02X407852Y42700I-2139J-704D01*
G02X403348I-2252J0D01*
G02X405597Y44952I2252J0D01*
G37*
G36*
G01X40727Y45737D02*
G03X41063Y46363I-129J473D01*
G02X40896Y47400I3136J1037D01*
G02X47504I3304J0D01*
G02X45073Y44213I-3305J0D01*
G03X44737Y43587I129J-473D01*
G02X44904Y42550I-3136J-1037D01*
G02X38296I-3304J0D01*
G02X40727Y45737I3305J0D01*
G37*
G36*
G01X40573Y71976D02*
G03X40606Y72809I-241J427D01*
G02X39146Y75550I1843J2741D01*
G02X45754I3304J0D01*
G02X44077Y72674I-3305J0D01*
G03X44044Y71841I241J-427D01*
G02X45504Y69100I-1843J-2741D01*
G02X44553Y66781I-3303J0D01*
G03X44592Y66057I349J-344D01*
G02X45804Y63500I-2091J-2557D01*
G02X39196I-3304J0D01*
G02X40147Y65819I3303J0D01*
G03X40108Y66543I-349J344D01*
G02X38896Y69100I2091J2557D01*
G02X40573Y71976I3305J0D01*
G37*
G36*
G01X29731Y142301D02*
G03X29068Y142805I-488J47D01*
G02X25400Y142128I-3667J9595D01*
G02X35672Y152400I0J10272D01*
G02X33435Y146000I-10272J-1D01*
G03X33715Y145216I383J-305D01*
G02X36324Y141986I-695J-3230D01*
G02X35795Y140192I-3304J-1D01*
G03X35959Y139504I411J-265D01*
G02X37594Y136652I-1670J-2852D01*
G02X34409Y133350I-3304J0D01*
G03X34015Y132594I17J-490D01*
G02X35672Y127000I-8614J-5594D01*
G02X25400Y137272I-10272J0D01*
G02X30268Y136045I0J-10272D01*
G03X30990Y136499I232J432D01*
G02X30986Y136652I3300J163D01*
G02X31515Y138446I3304J1D01*
G03X31351Y139134I-411J265D01*
G02X29716Y141986I1670J2852D01*
G02X29731Y142301I3304J1D01*
G37*
G36*
G01X173754Y170408D02*
X178513D01*
G02X178524I6J-3022D01*
G02Y164364I0J-3022D01*
G02X178282Y164373I-9J3022D01*
G01X178273Y164374D01*
X174000D01*
X173990Y164373D01*
G02X173750Y164364I-233J3013D01*
G01X173749D01*
G02X170732Y167386I5J3022D01*
G02X173754Y170408I3022J0D01*
G37*
G36*
G01X180478Y174034D02*
Y178771D01*
G02X186522I3022J-1D01*
G01Y174034D01*
G02Y174017I-3022J-8D01*
G02Y174000I-3022J-9D01*
G02X180478I-3022J0D01*
G02Y174017I3022J8D01*
G02Y174034I3022J8D01*
G37*
G36*
G01X187479Y186425D02*
G02X187478Y186495I3021J78D01*
G01Y186500D01*
G02X190500Y189522I3022J0D01*
G02X193509Y186785I0J-3023D01*
G01X193522Y186643D01*
Y181759D01*
Y181745D01*
Y181730D01*
G02X187478I-3022J0D01*
G01Y181735D01*
G02X187479Y181805I3022J-8D01*
G01Y186425D01*
G37*
G36*
G01X187225Y202203D02*
Y202208D01*
G02X193267I3021J-80D01*
G01Y202203D01*
G02X193268Y202128I-3021J-78D01*
G02X193267Y202053I-3022J3D01*
G01Y197433D01*
G02X193268Y197363I-3021J-78D01*
G01Y197358D01*
G02X187224I-3022J0D01*
G01Y197363D01*
G02X187225Y197433I3022J-8D01*
G01Y202053D01*
G02X187224Y202128I3021J78D01*
G02X187225Y202203I3022J-3D01*
G37*
G36*
G01X176265Y216603D02*
X176329Y216667D01*
X176471Y216776D01*
G02X178308Y217398I1836J-2400D01*
G02X181330Y214376I0J-3022D01*
G02X180628Y212439I-3023J0D01*
G01X180571Y212371D01*
Y212365D01*
X177057Y208852D01*
G02X174935Y207981I-2123J2151D01*
G02X171913Y211003I0J3022D01*
G02X171923Y211248I3022J-1D01*
G02X172835Y213177I3012J-244D01*
G01X172860Y213200D01*
G02X172892Y213229I2045J-2224D01*
G01X176082Y216419D01*
G02X176261Y216599I2230J-2039D01*
G01X176265Y216603D01*
G37*
G36*
G01X189221Y216434D02*
Y221352D01*
G02Y221397I3022J23D01*
G02X192243Y224419I3022J0D01*
G02X195265Y221398I0J-3022D01*
G01Y221396D01*
G02X195260Y221230I-3022J8D01*
G01Y216794D01*
G02X195265Y216631I-3017J-174D01*
G01Y216624D01*
G02X192243Y213605I-3022J3D01*
G02X189246Y216242I0J3022D01*
G01X189221Y216434D01*
G37*
G36*
G01X190278Y233934D02*
G02X190272Y234131I3016J190D01*
G01Y234136D01*
G02X193294Y237154I3022J-4D01*
G02X196288Y234545I0J-3022D01*
G01X196315Y234346D01*
Y234207D01*
G02X196316Y234132I-3021J-78D01*
G02X196315Y234057I-3022J3D01*
G01Y229437D01*
G02X196316Y229367I-3021J-78D01*
G01Y229362D01*
G02X193294Y226340I-3022J0D01*
G02X190272Y229358I0J3022D01*
G01Y229362D01*
G02X190278Y229560I3022J8D01*
G01X190279Y229568D01*
Y233926D01*
X190278Y233934D01*
G37*
G36*
G01X190725Y240510D02*
G02X184681I-3022J18D01*
G01Y245298D01*
G02X190725I3022J0D01*
G01Y240510D01*
G37*
G36*
G01X187235Y266961D02*
G03X186775Y267493I-488J43D01*
G02X183922Y270510I169J3017D01*
G02X189966I3022J0D01*
G02X189955Y270249I-3022J-3D01*
G03X190415Y269717I488J-43D01*
G02X193268Y266700I-169J-3017D01*
G02X187224I-3022J0D01*
G02X187235Y266961I3022J3D01*
G37*
G36*
G01X126981Y297518D02*
G03X126924Y297842I-207J131D01*
G02X125756Y300228I1853J2386D01*
G02X131800I3022J0D01*
G02X131337Y298620I-3022J0D01*
G03X131394Y298296I207J-131D01*
G02X132562Y295910I-1853J-2386D01*
G02X126518I-3022J0D01*
G02X126981Y297518I3022J0D01*
G37*
G36*
G01X142344Y349839D02*
G03X141981Y350523I-447J201D01*
G02X139478Y353500I519J2977D01*
G02X145522I3022J0D01*
G02X145256Y352261I-3022J1D01*
G03X145619Y351577I447J-201D01*
G02X148122Y348600I-519J-2977D01*
G02X142078I-3022J0D01*
G02X142344Y349839I3022J-1D01*
G37*
G36*
G01X188214Y357785D02*
G03X188326Y358100I-113J217D01*
G02X188078Y359300I2774J1199D01*
G02X194122I3022J0D01*
G02X192486Y356615I-3021J0D01*
G03X192374Y356300I113J-217D01*
G02X192622Y355100I-2774J-1199D01*
G02X192621Y355044I-3022J26D01*
G03X192841Y354796I245J-4D01*
G02X195554Y351790I-309J-3006D01*
G02X195344Y350684I-3022J1D01*
G03X195628Y350047I456J-178D01*
G02X197586Y347218I-1065J-2829D01*
G02X191542I-3022J0D01*
G02X191752Y348324I3022J-1D01*
G03X191468Y348961I-456J178D01*
G02X189510Y351790I1065J2829D01*
G02X189511Y351846I3022J-26D01*
G03X189291Y352094I-245J4D01*
G02X186578Y355100I309J3006D01*
G02X188214Y357785I3021J0D01*
G37*
G36*
G01X202863Y402882D02*
G03X202403Y403580I-443J208D01*
G02X202300Y403578I-110J3020D01*
G02X205322Y406600I0J3022D01*
G02X205037Y405318I-3022J-1D01*
G03X205497Y404620I443J-208D01*
G02X205600Y404622I110J-3020D01*
G01X205602D01*
G03X206076Y405236I0J490D01*
G02X205978Y406000I2924J763D01*
G02X212022I3022J0D01*
G02X209002Y402978I-3022J0D01*
G01X208998D01*
G03X208524Y402364I0J-490D01*
G02X208622Y401600I-2924J-763D01*
G02X205600Y398578I-3022J0D01*
G02X204994Y398639I-2J3022D01*
G03X204408Y398207I-99J-480D01*
G02X201400Y395478I-3008J293D01*
G02Y401522I0J3022D01*
G02X202006Y401461I2J-3022D01*
G03X202592Y401893I99J480D01*
G02X202863Y402882I3008J-293D01*
G37*
G36*
G01X245000Y435178D02*
X240178D01*
G02X237208Y438200I52J3022D01*
G02X240178Y441222I3022J0D01*
G01X245000D01*
G02Y435178I0J-3022D01*
G37*
G36*
G01X256618Y435396D02*
X251844D01*
G02X248825Y438418I3J3022D01*
G02X251844Y441440I3022J0D01*
G01X256618D01*
G02Y435396I-1J-3022D01*
G37*
G36*
G01X268005Y435478D02*
X263192D01*
G02Y441522I38J3022D01*
G01X268005D01*
G02X271011Y438762I-5J-3022D01*
G03X271648Y438338I488J42D01*
G02X272571Y438482I922J-2878D01*
G02X272583I6J-3022D01*
G01X272584D01*
G02X272686Y438480I-8J-3022D01*
G01X272688D01*
X277509Y438376D01*
X277516D01*
G02X277619Y438378I110J-3020D01*
G01X277622D01*
G02X280135Y437034I0J-3021D01*
G03X280951I408J272D01*
G02X283428Y438378I2514J-1678D01*
G01X288237D01*
G02Y432334I-3J-3022D01*
G01X283428D01*
G02X280951Y433678I37J3022D01*
G03X280135I-408J-272D01*
G02X277622Y432334I-2513J1677D01*
G02X277436Y432340I4J3022D01*
G01X277431D01*
X272570Y432438D01*
X272568D01*
G02X269560Y435198I3J3022D01*
G03X268923Y435622I-488J-42D01*
G02X268005Y435478I-922J2878D01*
G37*
G36*
G01X53328Y451573D02*
Y465727D01*
X54963Y467362D01*
X117113D01*
X141243Y443232D01*
X158244D01*
Y429241D01*
X156229Y427226D01*
X155808D01*
G03X155635Y426808I0J-245D01*
G01X157990Y424453D01*
Y420991D01*
X147715Y410716D01*
X139973D01*
X136400Y407143D01*
Y395432D01*
G03X137045Y394967I490J0D01*
G02X138000Y395122I955J-2867D01*
G02Y389078I0J-3022D01*
G02X137045Y389233I0J3022D01*
G03X136400Y388768I-155J-465D01*
G01Y369551D01*
X132607Y365758D01*
X122409D01*
X117346Y370821D01*
Y382543D01*
X117473Y382670D01*
Y414890D01*
X117459Y414904D01*
Y423658D01*
X121031Y427230D01*
X133922D01*
G03X134269Y428066I0J490D01*
G01X112503Y449832D01*
X55069D01*
X53328Y451573D01*
G37*
G36*
G01X432480Y470664D02*
G03X431824Y470752I-376J-314D01*
G02X430100Y470212I-1724J2482D01*
G02Y476256I0J3022D01*
G02X432420Y475170I0J-3021D01*
G03X433076Y475082I376J314D01*
G02X434800Y475622I1724J-2482D01*
G02Y469578I0J-3022D01*
G02X432480Y470664I0J3021D01*
G37*
G36*
G01X230922Y477365D02*
G03Y478031I-360J333D01*
G02X230118Y480083I2217J2052D01*
G02X236162I3022J0D01*
G02X235358Y478031I-3021J0D01*
G03Y477365I360J-333D01*
G02X236162Y475313I-2217J-2052D01*
G02X230118I-3022J0D01*
G02X230922Y477365I3021J0D01*
G37*
G36*
G01X391999Y478054D02*
G02X388979Y481076I2J3022D01*
G02X392001Y484098I3022J0D01*
G01X396944D01*
X397115Y484078D01*
G02X399793Y481076I-344J-3002D01*
G02X396771Y478054I-3022J0D01*
G02X396641Y478057I5J3022D01*
G01X392131D01*
G02X392001Y478054I-135J3019D01*
G01X391999D01*
G37*
G36*
G01X72300Y475350D02*
G02X70400Y474678I-1900J2350D01*
G02X67378Y477700I0J3022D01*
G02X68050Y479600I3022J0D01*
G02X67378Y481500I2350J1900D01*
G02X70400Y484522I3022J0D01*
G02X72300Y483850I0J-3022D01*
G02X74200Y484522I1900J-2350D01*
G02X77222Y481500I0J-3022D01*
G02X76550Y479600I-3022J0D01*
G02X77222Y477700I-2350J-1900D01*
G02X74200Y474678I-3022J0D01*
G02X72300Y475350I0J3022D01*
G37*
G36*
G01X263974Y481429D02*
G03Y482095I-360J333D01*
G02X263170Y484147I2217J2052D01*
G02X269214I3022J0D01*
G02X268410Y482095I-3021J0D01*
G03Y481429I360J-333D01*
G02X269214Y479377I-2217J-2052D01*
G02X263170I-3022J0D01*
G02X263974Y481429I3021J0D01*
G37*
G36*
G01X334522Y482929D02*
G02X328478I-3022J1D01*
G01Y487734D01*
G02X334522I3022J-34D01*
G01Y482929D01*
G37*
G36*
G01X297502Y487779D02*
G03Y488445I-360J333D01*
G02X296698Y490497I2217J2052D01*
G02X302742I3022J0D01*
G02X301938Y488445I-3021J0D01*
G03Y487779I360J-333D01*
G02X302742Y485727I-2217J-2052D01*
G02X296698I-3022J0D01*
G02X297502Y487779I3021J0D01*
G37*
G36*
G01X416622Y487000D02*
G02X410578I-3022J0D01*
G01Y491779D01*
G02X416622I3022J-9D01*
G01Y487000D01*
G37*
G36*
G01X357432Y491008D02*
G02X354412Y494030I2J3022D01*
G02X357434Y497052I3022J0D01*
G01X362377D01*
X362548Y497032D01*
G02X365226Y494030I-344J-3002D01*
G02X362204Y491008I-3022J0D01*
G02X362074Y491011I5J3022D01*
G01X357564D01*
G02X357434Y491008I-135J3019D01*
G01X357432D01*
G37*
G36*
G01X369624D02*
G02X366604Y494030I2J3022D01*
G02X369626Y497052I3022J0D01*
G01X374569D01*
X374740Y497032D01*
G02X377418Y494030I-344J-3002D01*
G02X374396Y491008I-3022J0D01*
G02X374266Y491011I5J3022D01*
G01X369756D01*
G02X369626Y491008I-135J3019D01*
G01X369624D01*
G37*
G36*
G01X122408Y494352D02*
G03X121742I-333J-360D01*
G02X119690Y493548I-2052J2217D01*
G02Y499592I0J3022D01*
G02X121742Y498788I0J-3021D01*
G03X122408I333J360D01*
G02X124460Y499592I2052J-2217D01*
G02Y493548I0J-3022D01*
G02X122408Y494352I0J3021D01*
G37*
G36*
G01X188702D02*
G03X188036I-333J-360D01*
G02X185984Y493548I-2052J2217D01*
G02Y499592I0J3022D01*
G02X188036Y498788I0J-3021D01*
G03X188702I333J360D01*
G02X190754Y499592I2052J-2217D01*
G02Y493548I0J-3022D01*
G02X188702Y494352I0J3021D01*
G37*
G36*
G01X399365Y493802D02*
G02X396345Y496824I2J3022D01*
G02X399367Y499846I3022J0D01*
G01X404310D01*
X404481Y499826D01*
G02X407159Y496824I-344J-3002D01*
G02X404137Y493802I-3022J0D01*
G02X404007Y493805I5J3022D01*
G01X399497D01*
G02X399367Y493802I-135J3019D01*
G01X399365D01*
G37*
G36*
G01X288422Y495907D02*
G03Y496573I-360J333D01*
G02X287618Y498625I2217J2052D01*
G02X293662I3022J0D01*
G02X292858Y496573I-3021J0D01*
G03Y495907I360J-333D01*
G02X293662Y493855I-2217J-2052D01*
G02X287618I-3022J0D01*
G02X288422Y495907I3021J0D01*
G37*
G36*
G01X155936Y500448D02*
G03X155270I-333J-360D01*
G02X153218Y499644I-2052J2217D01*
G02Y505688I0J3022D01*
G02X155270Y504884I0J-3021D01*
G03X155936I333J360D01*
G02X157988Y505688I2052J-2217D01*
G02Y499644I0J-3022D01*
G02X155936Y500448I0J3021D01*
G37*
G36*
G01X406178Y502040D02*
Y506804D01*
G02X412222I3022J-4D01*
G01Y502040D01*
G02Y502030I-3022J-5D01*
G02X406178I-3022J0D01*
G02Y502040I3022J5D01*
G37*
G36*
G01X92782Y508759D02*
G03Y509425I-360J333D01*
G02X91978Y511477I2217J2052D01*
G02X98022I3022J0D01*
G02X97218Y509425I-3021J0D01*
G03Y508759I360J-333D01*
G02X98022Y506707I-2217J-2052D01*
G02X91978I-3022J0D01*
G02X92782Y508759I3021J0D01*
G37*
G36*
G01X350025Y515816D02*
G03X350723Y516277I208J444D01*
G02X350721Y516382I3020J110D01*
G02X353743Y519404I3022J0D01*
G02X356162Y518193I0J-3022D01*
G03X356917Y518158I392J294D01*
G02X359156Y519150I2239J-2031D01*
G02Y513106I0J-3022D01*
G02X356737Y514317I0J3022D01*
G03X355982Y514352I-392J-294D01*
G02X353743Y513360I-2239J2031D01*
G02X352460Y513646I0J3021D01*
G03X351762Y513185I-208J-444D01*
G02X351764Y513080I-3020J-110D01*
G02X348742Y516102I-3022J0D01*
G02X350025Y515816I0J-3021D01*
G37*
G36*
G01X140578Y524814D02*
G03X140020Y525307I-490J8D01*
G02X139600Y525278I-418J2993D01*
G02X142622Y528300I0J3022D01*
G01Y528250D01*
G03X143180Y527757I490J-8D01*
G02X143600Y527786I418J-2993D01*
G02X140578Y524764I0J-3022D01*
G01Y524814D01*
G37*
G36*
G01X389400Y526717D02*
G02X387122Y529627I744J2929D01*
G01Y534418D01*
G02X393166I3022J-2D01*
G01Y529627D01*
G02X392636Y527937I-3022J20D01*
G03X392920Y527185I404J-277D01*
G02X395198Y524256I-744J-2929D01*
G02X389154I-3022J0D01*
G02X389684Y525965I3022J0D01*
G03X389400Y526717I-404J277D01*
G37*
G36*
G01X429928Y532678D02*
G02X426908Y535700I2J3022D01*
G02X429930Y538722I3022J0D01*
G01X434873D01*
X435044Y538702D01*
G02X437722Y535700I-344J-3002D01*
G02X434700Y532678I-3022J0D01*
G02X434570Y532681I5J3022D01*
G01X430060D01*
G02X429930Y532678I-135J3019D01*
G01X429928D01*
G37*
G36*
G01X357166Y533442D02*
G02X356026Y536194I2752J2752D01*
G01Y539300D01*
G02X363810I3892J0D01*
G01Y537806D01*
X367435Y534181D01*
G02X368575Y531429I-2752J-2752D01*
G02X365926Y527741I-3892J0D01*
G03X365612Y527138I156J-465D01*
G02X365734Y526288I-2900J-850D01*
G02X362712Y523266I-3022J0D01*
G02X361870Y523386I1J3022D01*
G03X361268Y523067I-136J-471D01*
G02X358394Y520980I-2874J935D01*
G02X355372Y524002I0J3022D01*
G02X356307Y526188I3023J0D01*
G03Y526896I-338J354D01*
G02X355372Y529082I2088J2186D01*
G02X357582Y531993I3022J0D01*
G03X357797Y532811I-132J472D01*
G01X357166Y533442D01*
G37*
G36*
G01X342151Y539522D02*
X337355D01*
G02Y545566I13J3022D01*
G01X342151D01*
G02Y539522I-13J-3022D01*
G37*
G36*
G01X358811Y547257D02*
G03X358095Y547434I-435J-225D01*
G02X356362Y546888I-1733J2477D01*
G02Y552932I0J3022D01*
G02X359049Y551293I0J-3022D01*
G03X359765Y551116I435J225D01*
G02X361476Y551662I1733J-2476D01*
G01X366288D01*
G02Y545618I-20J-3022D01*
G01X361476D01*
G02X358811Y547257I22J3022D01*
G37*
G36*
G01X417162Y546280D02*
G02X411118I-3022J19D01*
G01Y551071D01*
G02X417162I3022J-2D01*
G01Y546280D01*
G37*
G36*
G01X376687Y549174D02*
X371912D01*
G02Y555218I0J3022D01*
G01X376687D01*
G02Y549174I-5J-3022D01*
G37*
G36*
G01X349599Y563345D02*
X354216D01*
G02X354286Y563346I78J-3021D01*
G01X354291D01*
G02X356856Y561922I0J-3022D01*
G03X357666Y561891I416J260D01*
G02X360100Y563122I2434J-1791D01*
G02Y557078I0J-3022D01*
G02X357535Y558502I0J3022D01*
G03X356725Y558533I-416J-260D01*
G02X354298Y557302I-2434J1791D01*
G01X349521D01*
G02Y563346I0J3022D01*
G01X349526D01*
G02X349596Y563345I-8J-3022D01*
G01X349599D01*
G37*
G36*
G01X20682Y527172D02*
G03X20804Y528137I1J490D01*
G02X6858Y546100I4596J17963D01*
G02X25400Y564642I18542J0D01*
G02X42780Y552560I0J-18542D01*
G03X43586Y552385I459J171D01*
G01X51773Y560572D01*
X76077D01*
X81672Y554977D01*
Y538373D01*
X80127Y536828D01*
X67627D01*
X64672Y533873D01*
Y507573D01*
X41972Y484873D01*
Y217373D01*
X36527Y211928D01*
X33268D01*
G02X29724I-1772J2448D01*
G01X16473D01*
X10128Y218273D01*
Y414282D01*
G03X9648Y414772I-490J0D01*
G02X9561Y414775I61J3021D01*
G03X9048Y414285I-23J-489D01*
G01Y46286D01*
X18854Y36480D01*
X42106D01*
X43250Y37624D01*
G02X44374Y38090I1125J-1124D01*
G01X53230D01*
G02X55800Y39522I2570J-1590D01*
G02Y33478I0J-3022D01*
G02X53230Y34910I0J3022D01*
G01X45032D01*
X43888Y33766D01*
G02X42764Y33300I-1125J1124D01*
G01X18196D01*
G02X17072Y33766I1J1590D01*
G01X6334Y44504D01*
G02X5868Y45628I1124J1125D01*
G01Y415544D01*
G02X6334Y416668I1590J-1D01*
G01X6763Y417097D01*
X6739Y417225D01*
G02X6685Y417793I2968J569D01*
G02X9648Y420814I3022J0D01*
G03X10128Y421304I-10J490D01*
G01Y520327D01*
X16973Y527172D01*
X20682D01*
G37*
G36*
G01X233074Y567382D02*
G02X233680Y567438I606J-3248D01*
G02Y560830I0J-3304D01*
G02X230656Y562802I0J3305D01*
G02X230050Y562746I-606J3248D01*
G02Y569354I0J3304D01*
G02X233074Y567382I0J-3305D01*
G37*
G36*
G01X328814Y567407D02*
G02X331698Y564388I-138J-3019D01*
G02X328676Y561366I-3022J0D01*
G02X325744Y563655I0J3022D01*
G02X322860Y566674I138J3019D01*
G02X325882Y569696I3022J0D01*
G02X328814Y567407I0J-3022D01*
G37*
G36*
G01X391795Y569274D02*
G02X393700Y569950I1905J-2346D01*
G02Y563906I0J-3022D01*
G02X391795Y564582I0J3022D01*
G02X389890Y563906I-1905J2346D01*
G02Y569950I0J3022D01*
G02X391795Y569274I0J-3022D01*
G37*
G36*
G01X294032Y567478D02*
X289234D01*
G02Y573522I-4J3022D01*
G01X294032D01*
G02Y567478I-32J-3022D01*
G37*
G36*
G01X436822Y565980D02*
G02X430778I-3022J26D01*
G01Y570796D01*
G02X436822I3022J-20D01*
G01Y565980D01*
G37*
G36*
G01X517039Y568090D02*
G03X516302Y568013I-335J-357D01*
G02X513590Y566596I-2712J1887D01*
G02Y573204I0J3304D01*
G02X515851Y572310I1J-3304D01*
G03X516588Y572387I335J357D01*
G02X519300Y573804I2712J-1887D01*
G02Y567196I0J-3304D01*
G02X517039Y568090I-1J3304D01*
G37*
G36*
G01X381552Y576378D02*
X381541D01*
X381530D01*
G02Y582422I0J3022D01*
G01X381541D01*
X381552D01*
X386316D01*
G02Y576378I-16J-3022D01*
G01X381552D01*
G37*
G36*
G01X142319Y585479D02*
G02X142982Y583590I-2360J-1889D01*
G02X136938I-3022J0D01*
G02X138106Y585976I3021J0D01*
G02X137443Y587865I2360J1889D01*
G02X143487I3022J0D01*
G02X142319Y585479I-3021J0D01*
G37*
G36*
G01X411403Y586004D02*
X406618D01*
G02Y592048I13J3022D01*
G01X411403D01*
G02Y586004I-2J-3022D01*
G37*
G36*
G01X437821Y587274D02*
X437807D01*
X437792D01*
G02Y593318I0J3022D01*
G01X437807D01*
X442568D01*
G02Y587274I-6J-3022D01*
G01X437821D01*
G37*
G36*
G01X95576Y587776D02*
X85096Y598256D01*
X84968Y598232D01*
G02X84400Y598178I-569J2968D01*
G02X87422Y601200I0J3022D01*
G02X87368Y600632I-3022J1D01*
G01X87344Y600504D01*
X97358Y590490D01*
X101400D01*
G02X102524Y590024I-1J-1590D01*
G01X123758Y568790D01*
X215700D01*
G02X216824Y568324I-1J-1590D01*
G01X225258Y559890D01*
X236042D01*
X239856Y563704D01*
X239832Y563832D01*
G02X239778Y564400I2968J569D01*
G02X242800Y561378I3022J0D01*
G02X242232Y561432I1J3022D01*
G01X242104Y561456D01*
X237824Y557176D01*
G02X236700Y556710I-1125J1124D01*
G01X224600D01*
G02X223476Y557176I1J1590D01*
G01X215042Y565610D01*
X123100D01*
G02X121976Y566076I1J1590D01*
G01X100742Y587310D01*
X96700D01*
G02X95576Y587776I1J1590D01*
G37*
G36*
G01X125529Y600408D02*
Y605016D01*
G02X125528Y605100I3021J78D01*
G02X131572I3022J0D01*
G02Y605083I-3022J-8D01*
G01Y600311D01*
G02X128550Y597308I-3022J19D01*
G02X125528Y600330I0J3022D01*
G01Y600335D01*
G02X125529Y600405I3022J-8D01*
G01Y600408D01*
G37*
G36*
G01X144697Y603078D02*
X139899D01*
G02Y609122I1J3022D01*
G01X144697D01*
G02Y603078I-27J-3022D01*
G37*
G36*
G01X141209Y610378D02*
X136405D01*
G02Y616422I25J3022D01*
G01X141209D01*
G02Y610378I-9J-3022D01*
G37*
G36*
G01X156202Y610778D02*
X151429D01*
G02Y616822I1J3022D01*
G01X156202D01*
G02Y610778I-2J-3022D01*
G37*
G36*
G01X91139Y609920D02*
G02X90400Y609828I-740J2930D01*
G02Y615872I0J3022D01*
G02X91249Y615750I-1J-3022D01*
G02X94000Y617522I2751J-1249D01*
G02X95599Y617064I0J-3022D01*
G02X97600Y617822I2002J-2264D01*
G02X100622Y614800I0J-3022D01*
G02X100241Y613332I-3022J1D01*
G02X101172Y611150I-2091J-2182D01*
G02X98150Y608128I-3022J0D01*
G02X96377Y608703I0J3021D01*
G02X94250Y607828I-2127J2148D01*
G02X91428Y609770I0J3021D01*
G03X91139Y609920I-229J-88D01*
G37*
G36*
G01X204414Y614178D02*
X199628D01*
G02Y620222I2J3022D01*
G01X204414D01*
G02Y614178I-14J-3022D01*
G37*
G36*
G01X265106Y653806D02*
G03X264562Y654327I-489J34D01*
G02X264220Y654308I-338J3003D01*
G02Y660352I0J3022D01*
G02X265999Y659773I0J-3023D01*
G02X267920Y660462I1921J-2333D01*
G02X270127Y659504I0J-3021D01*
G02X272070Y660212I1944J-2314D01*
G02X275092Y657190I0J-3022D01*
G02X274408Y655275I-3023J0D01*
G02X274992Y653490I-2438J-1786D01*
G02X271970Y650468I-3022J0D01*
G02X269985Y651212I1J3022D01*
G02X268120Y650568I-1865J2378D01*
G02X265098Y653590I0J3022D01*
G02X265106Y653806I3022J-4D01*
G37*
G36*
G01X312857Y659286D02*
G02X310800Y658478I-2057J2214D01*
G02X307778Y661500I0J3022D01*
G02X309447Y664202I3022J0D01*
G02X309278Y665200I2853J996D01*
G02X315322I3022J0D01*
G02X315297Y664813I-3022J1D01*
G03X315485Y664543I243J-31D01*
G02X317822Y661600I-685J-2943D01*
G02X314800Y658578I-3022J0D01*
G02X312857Y659286I1J3022D01*
G37*
G36*
G01X377973Y663325D02*
X372618D01*
G02Y669933I17J3304D01*
G01X377973D01*
G02Y663325I-4J-3304D01*
G37*
G36*
G01X336507Y468696D02*
G02X334772Y468148I-1735J2474D01*
G02Y474192I0J3022D01*
G02X337794Y471175I0J-3022D01*
G03X338565Y470774I490J1D01*
G02X340300Y471322I1735J-2474D01*
G02Y465278I0J-3022D01*
G02X337278Y468295I0J3022D01*
G03X336507Y468696I-490J-1D01*
G37*
G36*
G01X468563Y442186D02*
G03X469219Y442326I253J419D01*
G02X471700Y443622I2481J-1727D01*
G02X474168Y442344I0J-3022D01*
G03X474894Y442260I401J282D01*
G02X476900Y443022I2006J-2259D01*
G02X479681Y441183I0J-3022D01*
G03X479988Y441048I225J96D01*
G02X481000Y441222I1011J-2848D01*
G02Y435178I0J-3022D01*
G02X478219Y437017I0J3022D01*
G03X477912Y437152I-225J-96D01*
G02X476900Y436978I-1011J2848D01*
G02X474432Y438256I0J3022D01*
G03X473706Y438340I-401J-282D01*
G02X471700Y437578I-2006J2259D01*
G02X470137Y438014I1J3022D01*
G03X469481Y437874I-253J-419D01*
G02X468864Y437221I-2481J1726D01*
G03X468975Y436384I302J-386D01*
G02X470822Y433600I-1175J-2784D01*
G02X464778I-3022J0D01*
G02X465936Y435979I3023J0D01*
G03X465825Y436816I-302J386D01*
G02X463978Y439600I1175J2784D01*
G02X467000Y442622I3022J0D01*
G02X468563Y442186I-1J-3022D01*
G37*
G36*
G01X192266Y291165D02*
G02X191478Y293200I2234J2035D01*
G02X197522I3022J0D01*
G02X196734Y291165I-3022J0D01*
G03Y290835I181J-165D01*
G02X197522Y288800I-2234J-2035D01*
G02X197444Y288120I-3022J2D01*
G03X198127Y287564I478J-111D01*
G02X199390Y287841I1264J-2745D01*
G02X202412Y284819I0J-3022D01*
G02X200272Y281929I-3021J0D01*
G03X200130Y281061I143J-469D01*
G02X201396Y278602I-1755J-2459D01*
G02X200135Y276146I-3022J0D01*
G03X200062Y275831I143J-199D01*
G02X200422Y274400I-2662J-1431D01*
G02X194378I-3022J0D01*
G02X195639Y276856I3022J0D01*
G03X195712Y277171I-143J199D01*
G02X195352Y278602I2662J1431D01*
G02X195360Y278821I3022J-1D01*
G03X195129Y279083I-244J17D01*
G02X192278Y282100I171J3017D01*
G02X195300Y285122I3022J0D01*
G02X195864Y285069I1J-3022D01*
G03X196434Y285448I91J481D01*
G02X196446Y285499I2947J-667D01*
G03X195763Y286055I-478J111D01*
G02X194500Y285778I-1264J2745D01*
G02X191478Y288800I0J3022D01*
G02X192266Y290835I3022J0D01*
G03Y291165I-181J165D01*
G37*
G36*
G01X462440Y185026D02*
G02X461299Y186985I1111J1959D01*
G02X465803I2252J0D01*
G02X464662Y185026I-2252J0D01*
G03Y184174I242J-426D01*
G02X465803Y182215I-1111J-1959D01*
G02X461299I-2252J0D01*
G02X462440Y184174I2252J0D01*
G03Y185026I-242J426D01*
G37*
G36*
G01X56726Y170979D02*
G02X55398Y173482I1695J2503D01*
G02X61442I3022J0D01*
G02X59021Y170520I-3022J0D01*
G03X58844Y169635I98J-480D01*
G02X60172Y167132I-1695J-2503D01*
G02X54128I-3022J0D01*
G02X56549Y170094I3022J0D01*
G03X56726Y170979I-98J480D01*
G37*
G36*
G01X411104Y35980D02*
G02X409848Y38000I996J2020D01*
G02X414352I2252J0D01*
G02X413629Y36347I-2251J0D01*
G03X413746Y35548I333J-359D01*
G02X415002Y33528I-996J-2020D01*
G02X410498I-2252J0D01*
G02X411221Y35181I2251J0D01*
G03X411104Y35980I-333J359D01*
G37*
G36*
G01X76548Y529052D02*
G02X79300Y530192I2752J-2752D01*
G01X107100D01*
G02X109852Y529052I0J-3892D01*
G01X120152Y518752D01*
G02X121292Y516000I-2752J-2752D01*
G02X117400Y512108I-3892J0D01*
G02X114648Y513248I0J3892D01*
G01X105488Y522408D01*
X80912D01*
X74992Y516488D01*
Y506100D01*
G02X73852Y503348I-3892J0D01*
G01X51898Y481394D01*
Y408702D01*
G03X52734Y408355I490J0D01*
G01X55861Y411482D01*
X83217D01*
X87272Y407427D01*
Y350127D01*
X122938Y314461D01*
Y162441D01*
X123107Y162386D01*
G02Y156638I-932J-2874D01*
G01X122938Y156583D01*
Y94507D01*
X124372Y93073D01*
X124506Y93106D01*
G02X125222Y93192I716J-2936D01*
G02X128244Y90170I0J-3022D01*
G02X128158Y89454I-3022J0D01*
G01X128125Y89320D01*
X140735Y76710D01*
X141542D01*
G03X141889Y77546I0J490D01*
G01X140460Y78975D01*
Y82448D01*
G03X139649Y82818I-490J0D01*
G02X137668Y82078I-1981J2282D01*
G02Y88122I0J3022D01*
G02X139649Y87382I0J-3022D01*
G03X140460Y87752I321J370D01*
G01Y121939D01*
X153828Y135307D01*
Y150973D01*
X146975Y157826D01*
G03X146229Y157763I-346J-346D01*
G02X143764Y156490I-2465J1750D01*
G02X141376Y157660I0J3022D01*
G03X140632Y157696I-387J-300D01*
G02X138430Y156744I-2202J2071D01*
G02X136135Y157800I0J3022D01*
G03X135391I-372J-319D01*
G02X133096Y156744I-2295J1966D01*
G02X130074Y159766I0J3022D01*
G02X130294Y160898I3022J0D01*
G03X129656Y161536I-454J184D01*
G02X128524Y161316I-1132J2802D01*
G02X131546Y164338I0J3022D01*
G02X131326Y163206I-3022J0D01*
G03X131964Y162568I454J-184D01*
G02X133096Y162788I1132J-2802D01*
G02X135391Y161732I0J-3022D01*
G03X136135I372J319D01*
G02X138430Y162788I2295J-1966D01*
G02X140818Y161618I0J-3022D01*
G03X141562Y161582I387J300D01*
G02X142015Y161977I2203J-2069D01*
G03X142078Y162723I-283J400D01*
G01X125828Y178973D01*
Y209172D01*
X144227D01*
X146372Y207027D01*
Y186327D01*
X176227Y156472D01*
X215151D01*
X252351Y119272D01*
X258688D01*
G03X259035Y120108I0J490D01*
G01X208992Y170151D01*
Y349285D01*
X255847Y396140D01*
X316049D01*
X329514Y382675D01*
Y375280D01*
X332696D01*
X334474Y377058D01*
Y387552D01*
X360362Y413440D01*
X384836D01*
G03X385249Y414192I-1J490D01*
G02X384780Y415810I2553J1617D01*
G02X390824I3022J0D01*
G02X390355Y414192I-3022J-1D01*
G03X390768Y413440I414J-262D01*
G01X402978D01*
G03X403466Y413977I0J490D01*
G02X403452Y414266I3008J291D01*
G02X409496I3022J0D01*
G02X409482Y413977I-3022J2D01*
G03X409970Y413440I488J-47D01*
G01X427127D01*
G03X427617Y413929I0J490D01*
G02X433661I3022J-9D01*
G03X434151Y413440I490J1D01*
G01X474014D01*
Y409100D01*
G03X474589Y408618I490J0D01*
G02X474980Y408652I390J-2218D01*
G02Y404148I0J-2252D01*
G02X474589Y404182I-1J2252D01*
G03X474014Y403700I-85J-482D01*
G01Y275578D01*
X365940D01*
X360270Y281247D01*
G03X359852Y281074I-173J-173D01*
G01Y280646D01*
X374334Y266164D01*
Y231776D01*
X373013Y230454D01*
G03X373359Y229618I347J-346D01*
G01X384596D01*
X396150Y241172D01*
X412046D01*
X413448Y239770D01*
Y214652D01*
X409502Y210706D01*
X355783D01*
G03X355301Y210123I-1J-490D01*
G02X355342Y209698I-2211J-428D01*
G02X354707Y208131I-2251J0D01*
G03Y207449I352J-341D01*
G02X355342Y205882I-1616J-1567D01*
G02X354741Y204350I-2253J0D01*
G03X354735Y203689I359J-334D01*
G02X355312Y202184I-1674J-1505D01*
G02X350808I-2252J0D01*
G02X351409Y203716I2253J0D01*
G03X351415Y204377I-359J334D01*
G02X350838Y205882I1674J1505D01*
G02X351473Y207449I2251J0D01*
G03Y208131I-352J341D01*
G02X350838Y209698I1616J1567D01*
G02X350879Y210123I2252J-3D01*
G03X350397Y210706I-481J93D01*
G01X311749D01*
G03X311403Y209870I1J-490D01*
G01X315530Y205742D01*
X336358D01*
X359980Y182120D01*
X373826D01*
X374648Y182942D01*
Y193546D01*
X376684Y195582D01*
X386650D01*
X388368Y193864D01*
Y187390D01*
X382272Y181294D01*
Y180905D01*
X382580D01*
X382635Y180935D01*
G02X383716Y181212I1082J-1975D01*
G02X385968Y178960I0J-2252D01*
G02X385931Y178551I-2252J-2D01*
G03X386501Y177981I482J-88D01*
G02X386910Y178018I407J-2215D01*
G02X384658Y175766I0J-2252D01*
G02X384695Y176175I2252J2D01*
G03X384125Y176745I-482J88D01*
G02X383716Y176708I-407J2215D01*
G02X382932Y176849I0J2252D01*
G03X382272Y176389I-170J-460D01*
G01Y173420D01*
X380808Y171956D01*
X377492D01*
X377485Y171717D01*
G02X377455Y171405I-2251J59D01*
G03X378035Y170844I483J-81D01*
G02X378480Y170888I443J-2208D01*
G02X376228Y168636I0J-2252D01*
G02X376259Y169008I2252J0D01*
G03X375679Y169569I-483J81D01*
G02X375234Y169525I-443J2208D01*
G02X374878Y169553I-2J2252D01*
G03X374454Y168723I-77J-484D01*
G01X380377Y162800D01*
X382751D01*
G03X383074Y163659I0J490D01*
G02X382304Y165354I1481J1695D01*
G02X384556Y167606I2252J0D01*
G02X384893Y167581I2J-2252D01*
G02X385318Y167641I424J-1465D01*
G01X391798D01*
X407161Y183004D01*
Y207010D01*
G02X407608Y208088I1525J-1D01*
G01X414974Y215454D01*
G02X416052Y215901I1079J-1078D01*
G01X440182D01*
G02X441260Y215454I-1J-1525D01*
G01X442530Y214184D01*
G02X442977Y213106I-1078J-1079D01*
G01Y208989D01*
X443187Y208778D01*
X443289D01*
G02X445535Y206526I-6J-2252D01*
G02X443283Y204274I-2252J0D01*
G02X441031Y206520I0J2252D01*
G01Y206622D01*
X440374Y207279D01*
G02X439927Y208357I1078J1079D01*
G01Y212474D01*
X439550Y212851D01*
X426214D01*
Y176132D01*
X423815Y173732D01*
G03X424074Y172904I347J-346D01*
G02X425924Y170688I-402J-2216D01*
G02X423672Y168436I-2252J0D01*
G02X421456Y170286I0J2252D01*
G03X420628Y170545I-482J-88D01*
G01X411736Y161654D01*
Y153100D01*
X394016Y135380D01*
X368572D01*
G02X365076I-1748J1420D01*
G01X346648D01*
X344246Y137781D01*
G03X343410Y137435I-346J-347D01*
G01Y125711D01*
X336569Y118870D01*
X326312D01*
G03X325965Y118034I0J-490D01*
G01X327072Y116927D01*
Y108273D01*
X320143Y101344D01*
X249411D01*
G03X249005Y100579I0J-490D01*
G02X249394Y99314I-1862J-1265D01*
G02X244890I-2252J0D01*
G02X245279Y100579I2251J0D01*
G03X244873Y101344I-406J275D01*
G01X227057D01*
X215136Y113265D01*
Y128505D01*
X209213Y134428D01*
X205612D01*
G03X205265Y133592I0J-490D01*
G01X208028Y130829D01*
Y70339D01*
X203817Y66128D01*
X192473D01*
X191699Y66902D01*
X191681Y66915D01*
G02X190915Y67681I1719J2485D01*
G01X190902Y67699D01*
X189736Y68865D01*
Y131845D01*
X191483Y133592D01*
G03X191136Y134428I-347J346D01*
G01X182963D01*
X160872Y112337D01*
Y84905D01*
X153513Y77546D01*
G03X153860Y76710I347J-346D01*
G01X166643D01*
X178327Y65026D01*
X204451D01*
X230105Y90680D01*
X250952D01*
G03X251406Y91354I0J490D01*
G02X251240Y92202I2086J849D01*
G02X255744I2252J0D01*
G02X255578Y91354I-2252J1D01*
G03X256032Y90680I454J-184D01*
G01X449561D01*
X470406Y111525D01*
Y133695D01*
X466130Y137971D01*
G03X465294Y137632I-346J-347D01*
G02X464662Y136103I-2252J36D01*
G03Y135423I352J-340D01*
G02X465294Y133858I-1620J-1564D01*
G02X464662Y132293I-2252J-1D01*
G03Y131613I352J-340D01*
G02X465294Y130048I-1620J-1564D01*
G02X464571Y128394I-2252J-1D01*
G03X464576Y127670I333J-360D01*
G02X465324Y125994I-1504J-1676D01*
G02X464811Y124563I-2252J0D01*
G03X464869Y123882I379J-311D01*
G02X465647Y122179I-1475J-1703D01*
G02X464854Y120464I-2251J0D01*
G03X464791Y119782I318J-373D01*
G02X465294Y118364I-1749J-1419D01*
G02X460790I-2252J0D01*
G02X461583Y120079I2251J0D01*
G03X461646Y120761I-318J373D01*
G02X461143Y122179I1749J1419D01*
G02X461656Y123610I2252J0D01*
G03X461598Y124291I-379J311D01*
G02X460820Y125994I1475J1703D01*
G02X461543Y127648I2252J1D01*
G03X461538Y128372I-333J360D01*
G02X460790Y130048I1504J1676D01*
G02X461422Y131613I2252J1D01*
G03Y132293I-352J340D01*
G02X460790Y133858I1620J1564D01*
G02X461422Y135423I2252J1D01*
G03Y136103I-352J340D01*
G02X460790Y137668I1620J1564D01*
G02X463006Y139920I2252J0D01*
G03X463345Y140756I-8J490D01*
G01X454928Y149173D01*
Y158927D01*
X458973Y162972D01*
X485927D01*
X494032Y154867D01*
Y73641D01*
X482365Y61974D01*
X249955D01*
X221253Y33272D01*
X180443D01*
G03X180144Y32394I0J-490D01*
G02X181322Y30000I-1844J-2394D01*
G02X179569Y27257I-3023J0D01*
G03X179570Y26368I206J-444D01*
G02X181330Y23622I-1262J-2746D01*
G02X175286I-3022J0D01*
G02X177039Y26365I3023J0D01*
G03X177038Y27254I-206J444D01*
G02X175278Y30000I1262J2746D01*
G02X176456Y32394I3022J0D01*
G03X176157Y33272I-299J388D01*
G01X106661D01*
X64768Y75165D01*
Y85933D01*
X61057Y89644D01*
G03X60221Y89312I-346J-346D01*
G02X57200Y86378I-3021J88D01*
G02X54178Y89400I0J3022D01*
G02X54773Y91200I3022J-1D01*
G02X54178Y93000I2427J1801D01*
G02X55175Y95243I3022J0D01*
G03X55161Y95982I-329J363D01*
G02X54078Y98300I1939J2318D01*
G02X57100Y101322I3022J0D01*
G02X57649Y101272I2J-3022D01*
G03X58228Y101754I89J482D01*
G01Y152787D01*
X60360Y154919D01*
G03X60075Y155752I-346J347D01*
G02X57430Y158750I377J2998D01*
G02X60452Y161772I3022J0D01*
G02X63450Y159127I0J-3022D01*
G03X64283Y158842I486J61D01*
G01X64768Y159327D01*
Y169183D01*
X87882Y192297D01*
Y296653D01*
X52734Y331801D01*
G03X51898Y331454I-346J-347D01*
G01Y329526D01*
X79752Y301672D01*
G02X80892Y298920I-2752J-2752D01*
G01Y279600D01*
G02X80124Y277279I-3891J0D01*
G03X80411Y276508I393J-293D01*
G02X82778Y273558I-655J-2950D01*
G02X79756Y270536I-3022J0D01*
G02X76817Y272857I0J3021D01*
G03X75993Y273089I-477J-114D01*
G01X73655Y270751D01*
G03X73926Y269920I346J-347D01*
G02X76469Y267240I-463J-2986D01*
G01X76478Y267153D01*
X83659Y259972D01*
G02X84329Y258355I-1616J-1617D01*
G01Y195580D01*
G02X83659Y193963I-2286J0D01*
G01X75531Y185835D01*
G02X73914Y185165I-1617J1616D01*
G01X72841D01*
G02X70866Y184430I-1975J2286D01*
G02Y190474I0J3022D01*
G02X72841Y189739I0J-3021D01*
G01X72967D01*
X79755Y196527D01*
Y204219D01*
G03X78866Y204503I-490J0D01*
G02X75692Y202864I-3174J2254D01*
G01X71374D01*
G02X68622Y204004I0J3892D01*
G01X53048Y219578D01*
G02X51908Y222330I2752J2752D01*
G01Y258600D01*
G02X53048Y261352I3892J0D01*
G01X61648Y269952D01*
G02X62455Y270571I2752J-2752D01*
G01X62483Y270588D01*
X68059Y276163D01*
G03X67767Y276996I-347J346D01*
G02X65078Y280000I333J3004D01*
G02X68100Y283022I3022J0D01*
G02X71104Y280333I0J-3022D01*
G03X71937Y280041I487J55D01*
G01X73108Y281212D01*
Y297308D01*
X45254Y325162D01*
G02X44114Y327914I2752J2752D01*
G01Y483006D01*
G02X45254Y485758I3892J0D01*
G01X67208Y507712D01*
Y518100D01*
G02X68348Y520852I3892J0D01*
G01X76548Y529052D01*
G37*
G36*
G01X224228Y664927D02*
X239373Y680072D01*
X281827D01*
X310727Y651172D01*
X329248D01*
G03X329628Y651972I0J490D01*
G02X327988Y656572I5631J4600D01*
G01Y671572D01*
G02X342532I7272J0D01*
G01Y656572D01*
G02X340892Y651972I-7271J0D01*
G03X341272Y651172I380J-310D01*
G01X415648D01*
G03X416028Y651972I0J490D01*
G02X414388Y656572I5631J4600D01*
G01Y671572D01*
G02X428932I7272J0D01*
G01Y656572D01*
G02X427292Y651972I-7271J0D01*
G03X427672Y651172I380J-310D01*
G01X432427D01*
X438118Y645481D01*
G02X439193Y646083I1983J-2280D01*
G02X439192Y646176I3021J79D01*
G02X445236I3022J0D01*
G02X445186Y645631I-3022J2D01*
G02X446722Y643000I-1485J-2631D01*
G02X444533Y640095I-3022J0D01*
G03X444321Y639278I135J-471D01*
G01X468772Y614827D01*
Y582673D01*
X465327Y579228D01*
X452773D01*
X447128Y584873D01*
Y611773D01*
X423973Y634928D01*
X417460D01*
G03X417018Y634228I1J-490D01*
G02X417502Y632072I-4558J-2156D01*
G02X417374Y630944I-5042J1D01*
G03X417852Y630344I478J-110D01*
G01X420160D01*
G02X420924Y630301I2J-6772D01*
G02X421660Y630344I733J-6229D01*
G02X427932Y624072I0J-6272D01*
G01Y613072D01*
G02X415388I-6272J0D01*
G01Y617036D01*
G02X410388Y623572I1772J6536D01*
G02X411111Y626616I6772J-1D01*
G03X410831Y627300I-438J220D01*
G02X407418Y632072I1630J4772D01*
G02X407902Y634228I5042J0D01*
G03X407460Y634928I-443J210D01*
G01X349460D01*
G03X349018Y634228I1J-490D01*
G02X349502Y632072I-4558J-2156D01*
G02X346089Y627300I-5043J0D01*
G03X345809Y626616I158J-464D01*
G02X346532Y623572I-6049J-3045D01*
G02X341532Y617036I-6772J0D01*
G01Y613072D01*
G02X328988I-6272J0D01*
G01Y624072D01*
G02X335260Y630344I6272J0D01*
G02X335996Y630301I3J-6272D01*
G02X336760Y630344I762J-6729D01*
G01X339068D01*
G03X339546Y630944I0J490D01*
G02X339418Y632072I4914J1129D01*
G02X339902Y634228I5042J0D01*
G03X339460Y634928I-443J210D01*
G01X333927D01*
X326327Y627328D01*
X293903D01*
X292298Y628933D01*
Y642103D01*
X271373Y663028D01*
X248027D01*
X238822Y653823D01*
Y630923D01*
X233127Y625228D01*
X80327D01*
X70722Y615623D01*
Y590952D01*
G03X71602Y590656I490J0D01*
G02X74700Y592192I3098J-2356D01*
G02X77452Y591052I0J-3892D01*
G01X84312Y584192D01*
X99700D01*
G02X102452Y583052I0J-3892D01*
G01X120412Y565092D01*
X201500D01*
G02Y557308I0J-3892D01*
G01X118800D01*
G02X116048Y558448I0J3892D01*
G01X98088Y576408D01*
X82700D01*
G02X79948Y577548I0J3892D01*
G01X71948Y585548D01*
G02X71602Y585944I2751J2753D01*
G03X70722Y585648I-390J-296D01*
G01Y585177D01*
X74772Y581127D01*
Y575123D01*
X74672Y575023D01*
Y574662D01*
X81573Y567761D01*
G03X82406Y568167I347J346D01*
G02X82358Y568960I6494J791D01*
G02X88900Y562418I6542J0D01*
G02X88107Y562466I-2J6542D01*
G03X87701Y561633I-60J-486D01*
G01X96262Y553072D01*
X206300D01*
G02X208967Y551967I0J-3771D01*
G01X228367Y532567D01*
G02X229472Y529900I-2666J-2667D01*
G02X228891Y527888I-3772J-1D01*
G03X229305Y527137I414J-261D01*
G01X231853D01*
X233785Y529069D01*
X233794Y529156D01*
G02X234974Y531258I3006J-305D01*
G03X234799Y532123I-296J390D01*
G02X232528Y535050I751J2927D01*
G02X235550Y538072I3022J0D01*
G02X237496Y537362I0J-3022D01*
G02X239500Y538122I2004J-2262D01*
G02Y532078I0J-3022D01*
G02X237614Y532738I-1J3022D01*
G03X237551Y531777I59J-486D01*
G02X239822Y528850I-751J-2927D01*
G02X237106Y525844I-3021J0D01*
G01X237019Y525835D01*
X234417Y523233D01*
G02X232800Y522563I-1617J1616D01*
G01X219550D01*
G02X217933Y523233I0J2286D01*
G01X201553Y539613D01*
X126047D01*
X123915Y537481D01*
X123906Y537394D01*
G02X120900Y534678I-3006J305D01*
G02X117878Y537700I0J3022D01*
G02X117967Y538427I3022J-1D01*
G03X117262Y538978I-476J118D01*
G02X115850Y538628I-1412J2673D01*
G02X112828Y541650I0J3022D01*
G02X113563Y543625I3021J0D01*
G01Y545528D01*
X94700D01*
G02X92033Y546633I0J3771D01*
G01X68233Y570433D01*
G02X67228Y572239I2667J2667D01*
G01X67183Y572428D01*
X57673D01*
X53828Y576273D01*
Y631445D01*
X62255Y639872D01*
X220723D01*
X224228Y643377D01*
Y664927D01*
G37*
G54D32*
X379800Y40400D03*
X419800Y37000D03*
X426200Y36600D03*
X448500Y36100D03*
X372500Y45500D03*
X386900Y45400D03*
X398400Y43700D03*
X416100Y46200D03*
X463000Y44400D03*
X224200Y91600D03*
X231902Y96400D03*
X361828Y97260D03*
X376428Y93726D03*
X389500Y110220D03*
X371602Y116586D03*
X374248Y123574D03*
X364112Y118488D03*
X390224Y117856D03*
X390683Y131741D03*
X405130Y142509D03*
X409630Y137409D03*
X423926Y159929D03*
X389977Y171537D03*
X429514Y165354D03*
X455602Y194518D03*
X452300Y190200D03*
X381000Y203454D03*
X389128Y201930D03*
X145288Y257282D03*
X142494Y270510D03*
X373888Y271272D03*
X398479Y271724D03*
X438640Y271720D03*
G54D30*
X159766Y27940D03*
X204000Y28000D03*
X132200Y91000D03*
X143600Y136398D03*
X179070Y160528D03*
X193548Y162560D03*
X191500Y169000D03*
X66040Y181610D03*
X19300Y199000D03*
X25000Y204700D03*
X140000Y327200D03*
X135539Y355761D03*
X143800Y364200D03*
X112251Y380651D03*
X140949D03*
X199700Y375000D03*
X192400Y383300D03*
X195500Y395600D03*
X382200Y420100D03*
X388400Y423400D03*
X394068Y436232D03*
X476500Y432700D03*
X214050Y462250D03*
X220450Y459250D03*
X253000Y454900D03*
X354450Y459050D03*
X400760Y457760D03*
X142800Y473500D03*
X359300Y472400D03*
X376100Y467300D03*
X139900Y479600D03*
X133700Y494900D03*
X224700Y502158D03*
X300900Y509100D03*
X330708Y503682D03*
X150300Y515400D03*
X329438Y511556D03*
X346202Y519430D03*
X350520Y525272D03*
X392068Y542400D03*
X283300Y623600D03*
X243100Y638100D03*
X265800Y642500D03*
G54D33*
X491235Y50137D03*
X42400Y82700D03*
X441993Y473456D03*
X455700Y511300D03*
X508000Y556900D03*
X501700Y560400D03*
X501203Y570897D03*
X501100Y599000D03*
G54D28*
X254110Y23712D03*
G54D29*
X279510D03*
X304910D03*
X254110Y49112D03*
X279510D03*
X304910D03*
G54D31*
X25400Y50800D03*
X508000D03*
X25400Y76200D03*
X508000D03*
X25400Y101600D03*
X508000D03*
Y127000D03*
Y152400D03*
X25400Y177800D03*
X508000D03*
Y203200D03*
Y228600D03*
Y269200D03*
Y294600D03*
Y320000D03*
Y345400D03*
Y370800D03*
Y396200D03*
Y421600D03*
Y447000D03*
Y472400D03*
Y497800D03*
G54D34*
X444499Y100330D03*
X444500Y568960D03*
G54D27*
X76200Y25400D03*
X355600D03*
X508000Y533400D03*
%LPD*%
G75*
G36*
G01X52300Y559300D02*
X75550D01*
X80400Y554450D01*
Y538900D01*
X79600Y538100D01*
X67100D01*
X63400Y534400D01*
Y508100D01*
X40700Y485400D01*
Y217900D01*
X36000Y213200D01*
X34940D01*
G02X34460Y213786I0J490D01*
G03X34518Y214376I-2964J589D01*
G03X28474I-3022J0D01*
G03X28532Y213786I3022J-1D01*
G02X28052Y213200I-480J-96D01*
G01X17000D01*
X11400Y218800D01*
Y415290D01*
G03Y420296I-1693J2503D01*
G01Y519800D01*
X17500Y525900D01*
X26400D01*
X28283Y527783D01*
X28362Y527796D01*
G03X43942Y546100I-2962J18304D01*
G03X43461Y550297I-18542J1D01*
G01X43430Y550430D01*
X52300Y559300D01*
G37*
G36*
G01X56388Y410210D02*
X82690D01*
X86000Y406900D01*
Y349600D01*
X121666Y313934D01*
Y162497D01*
X121477Y162453D01*
G03Y156571I698J-2941D01*
G01X121666Y156527D01*
Y93980D01*
X123039Y92607D01*
G02X123043Y92264I-173J-174D01*
G03X122200Y90170I2179J-2094D01*
G03X125222Y87148I3022J0D01*
G03X127316Y87991I0J3022D01*
G01X127489Y88157D01*
X140208Y75438D01*
X166116D01*
X177800Y63754D01*
X204978D01*
X230632Y89408D01*
X246888D01*
G02X247342Y88733I0J-490D01*
G03X247176Y87884I2086J-849D01*
G03X251680I2252J0D01*
G03X251514Y88733I-2252J0D01*
G02X251968Y89408I454J185D01*
G01X450088D01*
X471678Y110998D01*
Y134222D01*
X456200Y149700D01*
Y158400D01*
X459500Y161700D01*
X485400D01*
X492760Y154340D01*
Y74168D01*
X481838Y63246D01*
X249428D01*
X220726Y34544D01*
X107188D01*
X66040Y75692D01*
Y86460D01*
X60153Y92347D01*
X60176Y92472D01*
G03X60211Y92740I-2976J525D01*
G03X62622Y95700I-612J2960D01*
G03X60098Y98681I-3022J0D01*
G03X59500Y100136I-2998J-382D01*
G01Y152260D01*
X66040Y158800D01*
Y168656D01*
X89154Y191770D01*
Y205180D01*
G03Y210872I-1016J2846D01*
G01Y297180D01*
X53340Y332994D01*
Y407162D01*
X56388Y410210D01*
G37*
G36*
G01X54600Y452100D02*
Y465200D01*
X55490Y466090D01*
X116586D01*
X140716Y441960D01*
X156972D01*
Y429768D01*
X155702Y428498D01*
X135636D01*
X113030Y451104D01*
X55596D01*
X54600Y452100D01*
G37*
G36*
G01X239900Y678800D02*
X281300D01*
X310200Y649900D01*
X332368D01*
G03X335260Y649300I2892J6672D01*
G03X338152Y649900I0J7272D01*
G01X346783D01*
X346825Y649885D01*
G03X347980Y649676I1156J3095D01*
G03X349135Y649885I-1J3304D01*
G01X349177Y649900D01*
X359483D01*
X359525Y649885D01*
G03X360680Y649676I1156J3095D01*
G03X361835Y649885I-1J3304D01*
G01X361877Y649900D01*
X384883D01*
X384925Y649885D01*
G03X386080Y649676I1156J3095D01*
G03X387235Y649885I-1J3304D01*
G01X387277Y649900D01*
X397583D01*
X397625Y649885D01*
G03X398780Y649676I1156J3095D01*
G03X399935Y649885I-1J3304D01*
G01X399977Y649900D01*
X410577D01*
X410606Y649893D01*
G03X411400Y649796I795J3207D01*
G03X412194Y649893I-1J3304D01*
G01X412223Y649900D01*
X418768D01*
G03X421660Y649300I2892J6672D01*
G03X424552Y649900I0J7272D01*
G01X431900D01*
X437346Y644454D01*
X437287Y644305D01*
G03X437078Y643200I2813J-1104D01*
G03X440100Y640178I3022J0D01*
G03X441205Y640387I1J3022D01*
G01X441354Y640446D01*
X467500Y614300D01*
Y583200D01*
X464800Y580500D01*
X453300D01*
X448400Y585400D01*
Y612300D01*
X424500Y636200D01*
X415355D01*
G03X409565I-2895J-4128D01*
G01X374604D01*
G03X371096I-1754J-2800D01*
G01X347355D01*
G03X341565I-2895J-4128D01*
G01X333400D01*
X325800Y628600D01*
X294430D01*
X293570Y629460D01*
Y642630D01*
X271900Y664300D01*
X247500D01*
X237550Y654350D01*
Y631450D01*
X232600Y626500D01*
X79800D01*
X69450Y616150D01*
Y584650D01*
X73500Y580600D01*
Y575650D01*
X71550Y573700D01*
X58200D01*
X55100Y576800D01*
Y630918D01*
X62782Y638600D01*
X221250D01*
X225500Y642850D01*
Y646193D01*
G03X225504Y646350I-3300J163D01*
G03X225500Y646507I-3304J-6D01*
G01Y664400D01*
X239900Y678800D01*
G37*
G36*
G01X72472Y263311D02*
G02X73011Y263946I466J151D01*
G03X73157Y263928I443J2989D01*
G01X73244Y263919D01*
X79755Y257408D01*
Y254091D01*
G02X78930Y253734I-490J0D01*
G03X76862Y254552I-2068J-2205D01*
G03Y248508I0J-3022D01*
G03X78930Y249326I0J3023D01*
G02X79755Y248969I335J-357D01*
G01Y209293D01*
G02X78866Y209009I-490J0D01*
G03X75692Y210648I-3174J-2254D01*
G01X72986D01*
X59692Y223942D01*
Y256988D01*
X65752Y263048D01*
G02X66587Y262657I347J-346D01*
G03X66574Y262382I3009J-280D01*
G03X72618I3022J0D01*
G03X72472Y263311I-3022J1D01*
G37*
G36*
G01X127100Y207900D02*
X143700D01*
X145100Y206500D01*
Y185800D01*
X175700Y155200D01*
X214624D01*
X251824Y118000D01*
X324200D01*
X325800Y116400D01*
Y108800D01*
X319616Y102616D01*
X227584D01*
X216408Y113792D01*
Y129032D01*
X209740Y135700D01*
X182436D01*
X159600Y112864D01*
Y85432D01*
X152400Y78232D01*
X143002D01*
X141732Y79502D01*
Y121412D01*
X155100Y134780D01*
Y151500D01*
X146770Y159830D01*
X146759Y159912D01*
G03X144164Y162507I-2995J-400D01*
G01X144082Y162518D01*
X133117Y173483D01*
X133649Y174015D01*
X133744Y174019D01*
G03X136626Y177038I-140J3019D01*
G03X133604Y180060I-3022J0D01*
G03X130621Y177521I0J-3022D01*
G01X130608Y177442D01*
X129883Y176717D01*
X127100Y179500D01*
Y207900D01*
G37*
G36*
G01X121558Y425958D02*
X154686D01*
X156718Y423926D01*
Y421518D01*
X147188Y411988D01*
X139446D01*
X135128Y407670D01*
Y393041D01*
X135117Y393005D01*
G03X134978Y392100I2883J-906D01*
G03X135117Y391195I3022J1D01*
G01X135128Y391159D01*
Y370078D01*
X132080Y367030D01*
X122936D01*
X118618Y371348D01*
Y382016D01*
X118745Y382143D01*
Y415417D01*
X118731Y415431D01*
Y423131D01*
X121558Y425958D01*
G37*
G36*
G01X206756Y130302D02*
Y70866D01*
X203290Y67400D01*
X193000D01*
X191008Y69392D01*
Y131318D01*
X193548Y133858D01*
X203200D01*
X206756Y130302D01*
G37*
G36*
G01X256374Y394868D02*
X315522D01*
X328242Y382148D01*
Y374198D01*
X326016Y371972D01*
Y369110D01*
X319974Y363068D01*
X318066D01*
X317112Y364022D01*
Y367520D01*
X319020Y369428D01*
Y371972D01*
X322518Y375470D01*
Y378968D01*
X312342Y389144D01*
X261144D01*
X218068Y346068D01*
Y179728D01*
X262668Y135128D01*
X312928D01*
X313182Y134874D01*
X320294D01*
X323032Y137612D01*
G02X323865Y137325I347J-346D01*
G03X326100Y135348I2235J275D01*
G03X328352Y137600I0J2252D01*
G03X326375Y139835I-2252J0D01*
G02X326088Y140668I59J486D01*
G01X328422Y143002D01*
Y144342D01*
X328611Y144386D01*
G03X329340Y144793I-350J1484D01*
G01X332242Y147694D01*
X334334D01*
X342138Y139890D01*
Y126238D01*
X336042Y120142D01*
X260800D01*
X210264Y170678D01*
Y348758D01*
X256374Y394868D01*
G37*
G36*
G01X261462Y387872D02*
X311388D01*
X321564Y377696D01*
Y376106D01*
X320610Y375152D01*
X316476D01*
X308844Y382784D01*
X308024D01*
X307971Y382812D01*
G03X306919Y383073I-1052J-1990D01*
G03X305815Y382784I0J-2253D01*
G01X264324D01*
X262609Y381069D01*
X262568Y381050D01*
G03X261450Y379932I932J-2050D01*
G01X261431Y379891D01*
X225528Y343988D01*
Y184034D01*
X265544Y144018D01*
X304038D01*
X305814Y145794D01*
X311402D01*
Y138682D01*
X309372Y136652D01*
X263052D01*
X219486Y180218D01*
Y345896D01*
X261462Y387872D01*
G37*
G36*
G01X254466Y371018D02*
X269730D01*
X273228Y367520D01*
Y360206D01*
X272910Y359888D01*
X253830D01*
X234750Y340808D01*
Y190076D01*
X269642Y155184D01*
X310041D01*
X314428Y150796D01*
G03X315496Y150354I1068J1069D01*
G01X317768D01*
X319532Y148590D01*
X319976D01*
X320232Y148334D01*
X320381D01*
X323923Y144793D01*
G03X325001Y144346I1079J1078D01*
G01X326898D01*
Y142558D01*
X323585Y139245D01*
X312166Y139113D01*
Y146558D01*
X265176D01*
X227118Y184616D01*
Y343670D01*
X254466Y371018D01*
G37*
G36*
G01X269094Y351620D02*
X272592D01*
X275479Y348733D01*
G03X276494Y347718I2017J1002D01*
G01X283404Y340808D01*
X284358D01*
X285948Y339218D01*
Y337946D01*
X284994Y336992D01*
X278316D01*
X272910Y342398D01*
Y344756D01*
X272920Y344791D01*
G03X273016Y345440I-2156J650D01*
G03X268512I-2252J0D01*
G03X268576Y344908I2252J1D01*
G01X268608Y344774D01*
X267535Y343701D01*
X267488Y343682D01*
G03X266218Y342412I825J-2095D01*
G01X266199Y342365D01*
X265914Y342080D01*
X251922D01*
X250244Y340402D01*
X250240Y340399D01*
G03X250092Y340251I1517J-1665D01*
G01X250089Y340247D01*
X246834Y336992D01*
Y199298D01*
X259784Y186348D01*
X306412D01*
X324612Y168148D01*
Y161800D01*
X318070D01*
X300544Y179326D01*
X280354D01*
X280062Y179034D01*
X255332D01*
X240474Y193892D01*
Y339536D01*
X250332Y349394D01*
X265603D01*
G03X266636Y349143I1033J2000D01*
G03X268887Y351319I0J2252D01*
G01X268890Y351416D01*
X269094Y351620D01*
G37*
G36*
G01X264589Y339218D02*
X274818D01*
X276408Y337628D01*
Y335848D01*
X275138D01*
X274056Y334766D01*
X267504D01*
X260938Y328200D01*
X260888Y328181D01*
G03X259560Y326853I783J-2111D01*
G01X259541Y326803D01*
X254508Y321770D01*
Y206570D01*
X267504Y193574D01*
X313410D01*
X332232Y174752D01*
Y159830D01*
X330646Y158244D01*
X326706D01*
X325630Y159320D01*
Y160844D01*
X325376Y161098D01*
Y168464D01*
X325374Y168466D01*
Y168910D01*
X306752Y187532D01*
X262734D01*
X248424Y201842D01*
Y324272D01*
X261448Y337296D01*
X261593Y337245D01*
G03X262333Y337120I740J2128D01*
G03X264556Y339012I0J2252D01*
G01X264589Y339218D01*
G37*
G36*
G01X267820Y334002D02*
X272109D01*
G02X272455Y333166I-1J-490D01*
G01X271192Y331902D01*
Y330359D01*
G02X270517Y329905I-490J0D01*
G03X269669Y330071I-849J-2086D01*
G03X267417Y327819I0J-2252D01*
G03X268480Y325907I2251J0D01*
G02X268568Y325144I-259J-416D01*
G01X257200Y313776D01*
Y252088D01*
X294327Y214960D01*
G02X293981Y214124I-347J-346D01*
G01X290768D01*
X287272Y210628D01*
Y206948D01*
X299045Y195174D01*
G02X298699Y194338I-347J-346D01*
G01X267820D01*
X255272Y206886D01*
Y213053D01*
G02X255983Y213491I490J1D01*
G03X257000Y213248I1018J2009D01*
G03Y217752I0J2252D01*
G03X255983Y217509I1J-2252D01*
G02X255272Y217947I-221J437D01*
G01Y321454D01*
X258919Y325101D01*
G02X259695Y324989I346J-347D01*
G03X261671Y323818I1976J1082D01*
G03X263923Y326070I0J2252D01*
G03X262752Y328046I-2253J0D01*
G02X262640Y328822I235J430D01*
G01X267820Y334002D01*
G37*
G36*
G01X264640Y382020D02*
X304270D01*
G02X304744Y381403I1J-490D01*
G03X304667Y380821I2175J-584D01*
G03X306919Y378569I2252J0D01*
G03X309122Y380355I0J2252D01*
G02X309948Y380600I479J-102D01*
G01X316160Y374388D01*
X318454D01*
G02X318801Y373552I0J-490D01*
G01X317528Y372279D01*
X317371Y372355D01*
G03X316384Y372583I-987J-2024D01*
G03X314132Y370358I0J-2252D01*
G02X313642Y369874I-490J6D01*
G01X278284D01*
G03X276500Y370752I-1784J-1373D01*
G03X274522Y369576I0J-2251D01*
G01X273387Y368441D01*
X270046Y371782D01*
X255585D01*
G02X255239Y372618I1J490D01*
G01X264640Y382020D01*
G37*
G36*
G01X276103Y335084D02*
X280224D01*
X282132Y333176D01*
Y330950D01*
X285630Y327452D01*
X295488D01*
X300186Y322754D01*
X300109Y322597D01*
G03X299880Y321607I2023J-989D01*
G03X302132Y319355I2252J0D01*
G03X302802Y319457I0J2251D01*
G02X303438Y318989I146J-468D01*
G01Y318404D01*
G02X302598Y318061I-490J0D01*
G03X300990Y318736I-1608J-1578D01*
G03Y314232I0J-2252D01*
G03X302598Y314907I0J2253D01*
G02X303438Y314564I350J-343D01*
G01Y313805D01*
G03Y309833I1060J-1986D01*
G01Y268622D01*
X326564Y245496D01*
X354808D01*
X356716Y243588D01*
Y231040D01*
X358902Y228854D01*
X384912D01*
X396466Y240408D01*
X411730D01*
X412684Y239454D01*
Y214968D01*
X409186Y211470D01*
X355349D01*
G02X354945Y212238I0J490D01*
G03X355342Y213514I-1855J1277D01*
G03X350838I-2252J0D01*
G03X351235Y212238I2252J1D01*
G02X350831Y211470I-404J-278D01*
G01X309802D01*
X307148Y214124D01*
X296244D01*
X257964Y252404D01*
Y313460D01*
X259309Y314805D01*
X259461Y314742D01*
G03X260327Y314569I866J2079D01*
G03X260383Y314570I-12J2252D01*
G02X260780Y313776I13J-490D01*
G03X260294Y312379I1765J-1397D01*
G03X262546Y314631I2252J0D01*
G03X262490Y314630I12J-2252D01*
G02X262093Y315424I-13J490D01*
G03X262579Y316821I-1765J1397D01*
G03X262406Y317687I-2252J0D01*
G01X262343Y317839D01*
X263077Y318573D01*
X263163Y318582D01*
G03X265160Y320579I-242J2239D01*
G01X265169Y320665D01*
X270114Y325610D01*
X270182Y325626D01*
G03X271862Y327306I-513J2193D01*
G01X271878Y327374D01*
X271956Y327452D01*
Y330135D01*
G03X273235Y332166I-973J2031D01*
G03X273182Y332652I-2252J0D01*
G01X273153Y332783D01*
X274956Y334586D01*
X275034Y334599D01*
G03X276103Y335084I-364J2222D01*
G37*
G36*
G01X266230Y341316D02*
X268626Y343711D01*
G02X269292Y343735I346J-347D01*
G03X270764Y343188I1471J1705D01*
G03X271497Y343311I-1J2252D01*
G02X272146Y342847I159J-464D01*
G01Y342082D01*
X273409Y340818D01*
G02X273063Y339982I-347J-346D01*
G01X264508D01*
X264449Y340143D01*
G03X264242Y340566I-2115J-773D01*
G02X264658Y341316I415J260D01*
G01X266230D01*
G37*
G36*
G01X312616Y369110D02*
X314492D01*
G03X316131Y368093I1892J1221D01*
G01X316348Y368069D01*
Y363706D01*
X317750Y362304D01*
X320290D01*
X321468Y363482D01*
X324607Y360343D01*
G02X324517Y359580I-347J-346D01*
G03X323446Y357662I1182J-1918D01*
G03X325698Y355410I2252J0D01*
G03X327616Y356481I0J2253D01*
G02X328379Y356571I417J-257D01*
G01X328862Y356088D01*
X328879Y356058D01*
G03X329741Y355196I1964J1102D01*
G01X329771Y355179D01*
X329974Y354976D01*
X329765Y354767D01*
X329718Y354748D01*
G03X328292Y352653I826J-2095D01*
G03X332796I2252J0D01*
G03X332795Y352708I-2252J-13D01*
G02X333285Y353210I490J12D01*
G01X354000D01*
X358929Y348281D01*
Y326021D01*
X359088Y325862D01*
Y280330D01*
X373570Y265848D01*
Y232092D01*
X371602Y230124D01*
X359664D01*
X358306Y231482D01*
Y243588D01*
X355126Y246768D01*
X327778D01*
X309798Y264748D01*
Y306231D01*
X312202D01*
G03X313873Y305489I1671J1511D01*
G03Y309993I0J2252D01*
G03X312202Y309251I0J-2253D01*
G01X310884D01*
X310010Y310125D01*
Y311143D01*
G02X310888Y311442I490J0D01*
G03X312669Y310568I1781J1378D01*
G03Y315072I0J2252D01*
G03X310777Y314042I0J-2253D01*
G02X309909Y314131I-411J266D01*
G03X309828Y314306I-1408J-546D01*
G01X309798Y314361D01*
Y316004D01*
X309243Y316559D01*
G02X309655Y317319I409J270D01*
G01X309669D01*
G03Y321823I0J2252D01*
G03X309256Y321785I-1J-2252D01*
G01X309129Y321761D01*
X307010Y323880D01*
Y324000D01*
G03X306568Y325068I-1511J0D01*
G01X304492Y327144D01*
G03X303424Y327586I-1068J-1069D01*
G01X303304D01*
X302802Y328088D01*
X302491D01*
X302441Y328112D01*
G03X301478Y328328I-962J-2036D01*
G03X300515Y328112I-1J-2252D01*
G01X300465Y328088D01*
X297714D01*
X291815Y333987D01*
X291797Y334036D01*
G03X290474Y335359I-2110J-787D01*
G01X290425Y335377D01*
X286712Y339090D01*
Y339534D01*
X284674Y341572D01*
X284230D01*
X281814Y343988D01*
X281304D01*
X274175Y351117D01*
G02X274370Y351929I347J346D01*
G03X275922Y354070I-701J2141D01*
G03X273779Y356319I-2252J0D01*
G02X273546Y356564I12J245D01*
G01Y359444D01*
X273992Y359890D01*
Y363228D01*
X273999Y363257D01*
G03Y364315I-2189J529D01*
G01X273992Y364344D01*
Y367966D01*
X275136Y369110D01*
X287935D01*
G02X288424Y368656I0J-490D01*
G03X292916I2246J163D01*
G02X293405Y369110I489J-36D01*
G01X307132D01*
G02X307622Y368614I0J-490D01*
G01Y368588D01*
G03X312126I2252J0D01*
G01Y368614D01*
G02X312616Y369110I490J6D01*
G37*
G36*
G01X418266Y212018D02*
X423926Y212090D01*
X425450Y212009D01*
Y176448D01*
X410972Y161970D01*
Y153416D01*
X393700Y136144D01*
X359584D01*
G02X359237Y136980I0J490D01*
G01X362789Y140532D01*
X363110D01*
X363141Y140524D01*
G03X363720Y140448I580J2176D01*
G03Y144952I0J2252D01*
G03X361607Y143479I0J-2252D01*
G03X361079Y143135I550J-1422D01*
G01X356374Y138431D01*
X348104D01*
X336237Y150297D01*
G03X335159Y150744I-1079J-1078D01*
G01X331610D01*
G03X330532Y150297I1J-1525D01*
G01X329332Y149098D01*
X328620D01*
X328602Y149323D01*
G03X326357Y151396I-2245J-179D01*
G03X324127Y149457I0J-2252D01*
G01X324115Y149376D01*
X323884Y149144D01*
X323412Y149617D01*
X323475Y149769D01*
G03X323649Y150637I-2078J868D01*
G03X321397Y152889I-2252J0D01*
G03X321120Y152872I-1J-2252D01*
G01X321060Y152932D01*
G03X319992Y153374I-1068J-1069D01*
G01X316272D01*
X315214Y154432D01*
Y154940D01*
X311404Y158750D01*
X280924D01*
X280416Y159258D01*
Y178308D01*
X280670Y178562D01*
X300228D01*
X317754Y161036D01*
X318558D01*
X318569Y161035D01*
G03X318770Y161026I201J2243D01*
G03X318971Y161035I0J2252D01*
G01X318982Y161036D01*
X324358D01*
X324866Y160528D01*
Y159004D01*
X326390Y157480D01*
X330962D01*
X332232Y158750D01*
X339090D01*
X346710Y151130D01*
X348177D01*
G03X349814Y150424I1637J1545D01*
G03X351659Y151384I0J2253D01*
G01X383286D01*
X405384Y173482D01*
X405463Y173403D01*
X416814Y184754D01*
Y210566D01*
X418266Y212018D01*
G37*
G36*
G01X291084Y213360D02*
X306832D01*
X315214Y204978D01*
X336042D01*
X359664Y181356D01*
X374142D01*
X375412Y182626D01*
Y193230D01*
X377000Y194818D01*
X386334D01*
X387604Y193548D01*
Y187706D01*
X381508Y181610D01*
Y179404D01*
X381504Y179381D01*
G03X381464Y178960I2212J-423D01*
G03X381504Y178539I2252J2D01*
G01X381508Y178516D01*
Y173736D01*
X380492Y172720D01*
X377279D01*
G03X373189I-2045J-943D01*
G01X371022D01*
X370981Y172735D01*
G03X369423I-779J-2113D01*
G01X369382Y172720D01*
X360680D01*
X351282Y163322D01*
Y157480D01*
X351536Y157226D01*
X352044D01*
X353822Y155448D01*
Y152908D01*
X353062Y152148D01*
X349442D01*
X349188Y151894D01*
X347026D01*
X343408Y155512D01*
Y180340D01*
X329057Y194691D01*
X326430D01*
G03X322898I-1766J-1396D01*
G01X300609D01*
X288036Y207264D01*
Y210312D01*
X291084Y213360D01*
G37*
G36*
G01X285310Y336228D02*
X286902Y337820D01*
X292067Y332655D01*
X292086Y332603D01*
G03X293432Y331257I2116J770D01*
G01X293484Y331238D01*
X297398Y327324D01*
X298843D01*
G02X299314Y326699I0J-490D01*
G03X299226Y326076I2164J-623D01*
G03X299228Y325993I2252J13D01*
G02X298391Y325629I-490J-18D01*
G01X295804Y328216D01*
X285946D01*
X282896Y331266D01*
Y333492D01*
X280997Y335392D01*
G02X281343Y336228I347J346D01*
G01X285310D01*
G37*
G36*
G01X452207Y412676D02*
X473250D01*
Y407842D01*
G03Y404958I1731J-1442D01*
G01Y276342D01*
X446877D01*
Y276587D01*
G03X442373I-2252J-1D01*
G01Y276342D01*
X366256D01*
X359852Y282746D01*
Y326178D01*
X359700Y326330D01*
Y348900D01*
X355300Y353300D01*
Y354164D01*
X332214D01*
G03X331286Y354779I-1669J-1511D01*
G01X331233Y354798D01*
X327902Y358128D01*
X327886Y358195D01*
G03X326970Y359520I-2188J-533D01*
G01Y363700D01*
G03Y367508I-1201J1904D01*
G01Y371846D01*
X329006Y373882D01*
Y374008D01*
X329514Y374516D01*
X333012D01*
X335238Y376742D01*
Y380479D01*
X335241Y380497D01*
G03X335264Y380821I-2229J321D01*
G03X335241Y381145I-2252J3D01*
G01X335238Y381163D01*
Y387236D01*
X360678Y412676D01*
X403904D01*
G03X409044I2570J1590D01*
G01X427885D01*
G03X433393I2754J1244D01*
G01X447197D01*
G02X447645Y411987I0J-490D01*
G03X447450Y411070I2057J-917D01*
G03X451954I2252J0D01*
G03X451759Y411987I-2252J0D01*
G02X452207Y412676I448J199D01*
G37*
%LPC*%
G75*
G36*
G01X19108Y236720D02*
G03X18913Y237586I-300J387D01*
G02X16536Y240538I645J2952D01*
G02X22580I3022J0D01*
G02X22285Y239236I-3021J0D01*
G03X22849Y238550I442J-211D01*
G02X25400Y238872I2552J-9950D01*
G02X15128Y228600I0J-10272D01*
G02X19108Y236720I10273J0D01*
G37*
G36*
G01X19100Y480235D02*
G02X17100Y479478I-2000J2265D01*
G02X14078Y482500I0J3022D01*
G02X14835Y484500I3022J0D01*
G02X14078Y486500I2265J2000D01*
G02X17100Y489522I3022J0D01*
G02X19100Y488765I0J-3022D01*
G02X21100Y489522I2000J-2265D01*
G02X24122Y486500I0J-3022D01*
G02X23365Y484500I-3022J0D01*
G02X24122Y482500I-2265J-2000D01*
G02X21100Y479478I-3022J0D01*
G02X19100Y480235I0J3022D01*
G37*
G36*
G01X26791Y269223D02*
G02X25400Y269128I-1394J10177D01*
G02X35672Y279400I0J10272D01*
G02X30501Y270484I-10272J0D01*
G03X30601Y269590I243J-425D01*
G02Y263810I-883J-2890D01*
G03X30501Y262916I143J-469D01*
G02X35672Y254000I-5101J-8916D01*
G02X25400Y264272I-10272J0D01*
G02X26791Y264177I-3J-10272D01*
G03X27256Y264947I66J486D01*
G02X26696Y266700I2462J1752D01*
G02X27256Y268453I3022J1D01*
G03X26791Y269223I-399J284D01*
G37*
G36*
G01X137950Y36491D02*
G02X136000Y35778I-1950J2310D01*
G02Y41822I0J3022D01*
G02X137950Y41109I0J-3023D01*
G02X139900Y41822I1950J-2310D01*
G02X141800Y41150I0J-3022D01*
G02X143700Y41822I1900J-2350D01*
G02Y35778I0J-3022D01*
G02X141800Y36450I0J3022D01*
G02X139900Y35778I-1900J2350D01*
G02X137950Y36491I0J3023D01*
G37*
G36*
G01X108111Y41744D02*
G02X106078Y44600I990J2856D01*
G02X109100Y47622I3022J0D01*
G02X111200Y46773I0J-3022D01*
G02X115400I2100J-2173D01*
G02X117500Y47622I2100J-2173D01*
G02X119586Y46787I0J-3023D01*
G03X119916Y46779I169J177D01*
G02X121900Y47522I1985J-2279D01*
G02X124922Y44500I0J-3022D01*
G02X122805Y41617I-3022J0D01*
G02X122822Y41300I-3005J-320D01*
G02X119800Y38278I-3022J0D01*
G02X117767Y39064I0J3022D01*
G03X117430Y39056I-164J-182D01*
G02X115300Y38178I-2130J2145D01*
G02X113148Y39078I0J3023D01*
G02X111100Y38278I-2048J2221D01*
G02X108078Y41300I0J3022D01*
G02X108111Y41744I3022J-1D01*
G37*
G36*
G01X101978Y106462D02*
G03X101392Y106937I-490J-6D01*
G02X100800Y106878I-594J2963D01*
G02Y112922I0J3022D01*
G02X103822Y109938I0J-3022D01*
G03X104408Y109463I490J6D01*
G02X105000Y109522I594J-2963D01*
G02Y103478I0J-3022D01*
G02X101978Y106462I0J3022D01*
G37*
G36*
G01X80994Y109534D02*
G03X80255Y109506I-357J-335D01*
G02X77900Y108378I-2355J1894D01*
G02Y114422I0J3022D01*
G02X80106Y113466I0J-3023D01*
G03X80845Y113494I357J335D01*
G02X83200Y114622I2355J-1894D01*
G02Y108578I0J-3022D01*
G02X80994Y109534I0J3023D01*
G37*
G36*
G01X108186Y140650D02*
G03X108753Y141182I79J484D01*
G02X108738Y141478I3007J301D01*
G02X111760Y138456I3022J0D01*
G02X111270Y138496I0J3021D01*
G03X110703Y137964I-79J-484D01*
G02X110718Y137668I-3007J-301D01*
G02X107696Y134646I-3022J0D01*
G02X106028Y135148I0J3022D01*
G03X105284Y134865I-270J-409D01*
G02X102362Y132614I-2922J771D01*
G02Y138658I0J3022D01*
G02X104030Y138156I0J-3022D01*
G03X104774Y138439I270J409D01*
G02X107696Y140690I2922J-771D01*
G02X108186Y140650I0J-3021D01*
G37*
G36*
G01X104177Y154186D02*
G03X103504Y154682I-488J42D01*
G02X102362Y154458I-1142J2799D01*
G02X105384Y157480I0J3022D01*
G02X105373Y157218I-3022J-4D01*
G03X106046Y156722I488J-42D01*
G02X107188Y156946I1142J-2799D01*
G02X110210Y153924I0J-3022D01*
G02X107826Y150970I-3022J0D01*
G03X107542Y150190I103J-479D01*
G02X108178Y148336I-2386J-1855D01*
G02X102134I-3022J0D01*
G02X104518Y151290I3022J0D01*
G03X104802Y152070I-103J479D01*
G02X104166Y153924I2386J1855D01*
G02X104177Y154186I3022J4D01*
G37*
G36*
G01X108355Y100962D02*
G03X109179Y101003I399J285D01*
G02X111800Y102522I2621J-1502D01*
G02X114822Y99506I0J-3022D01*
G03X115338Y99018I490J1D01*
G02X115500Y99022I156J-3018D01*
G02Y92978I0J-3022D01*
G02X112478Y95994I0J3022D01*
G03X111962Y96482I-490J-1D01*
G02X111800Y96478I-156J3018D01*
G02X109345Y97738I0J3022D01*
G03X108521Y97697I-399J-285D01*
G02X105900Y96178I-2621J1502D01*
G02X103855Y96975I0J3022D01*
G03X103043Y96707I-331J-361D01*
G02X100076Y94260I-2967J575D01*
G02Y100304I0J3022D01*
G02X102121Y99507I0J-3022D01*
G03X102933Y99775I331J361D01*
G02X105900Y102222I2967J-575D01*
G02X108355Y100962I0J-3022D01*
G37*
G36*
G01X178500Y149584D02*
G02X175768Y147854I-2732J1292D01*
G02Y153898I0J3022D01*
G02X178500Y152168I0J-3022D01*
G03X179386I443J209D01*
G02X182118Y153898I2732J-1292D01*
G02Y147854I0J-3022D01*
G02X179386Y149584I0J3022D01*
G03X178500I-443J-209D01*
G37*
G36*
G01X261272Y209591D02*
G02X259316Y208456I-1956J1118D01*
G02Y212960I0J2252D01*
G02X261354Y211667I0J-2253D01*
G03X262222Y211633I443J209D01*
G02X264178Y212768I1956J-1118D01*
G02Y208264I0J-2252D01*
G02X262140Y209557I0J2253D01*
G03X261272Y209591I-443J-209D01*
G37*
G36*
G01X267962Y218391D02*
G02X269870Y219446I1908J-1198D01*
G02X271725Y218472I1J-2252D01*
G03X272531I403J278D01*
G02X274386Y219446I1854J-1278D01*
G02Y214942I0J-2252D01*
G02X272531Y215916I-1J2252D01*
G03X271725I-403J-278D01*
G02X269870Y214942I-1854J1278D01*
G02X268072Y215838I0J2252D01*
G03X267266Y215803I-391J-295D01*
G02X265358Y214748I-1908J1198D01*
G02Y219252I0J2252D01*
G02X267156Y218356I0J-2252D01*
G03X267962Y218391I391J295D01*
G37*
G36*
G01X284433Y303176D02*
G03X283802Y302874I-167J-460D01*
G02X281671Y301350I-2131J728D01*
G02Y305854I0J2252D01*
G02X282440Y305719I1J-2252D01*
G03X283071Y306021I167J460D01*
G02X285202Y307545I2131J-728D01*
G02Y303041I0J-2252D01*
G02X284433Y303176I-1J2252D01*
G37*
G36*
G01X288697Y303752D02*
G02X288459Y304759I2014J1008D01*
G02X292963I2252J0D01*
G02X290933Y302518I-2252J0D01*
G03X290543Y301811I48J-488D01*
G02X290781Y300804I-2014J-1008D01*
G02X286277I-2252J0D01*
G02X288307Y303045I2252J0D01*
G03X288697Y303752I-48J488D01*
G37*
G36*
G01X316076Y299500D02*
G02X313961Y298022I-2115J774D01*
G02Y302526I0J2252D01*
G02X315438Y301974I0J-2252D01*
G03X316219Y302176I321J370D01*
G02X318334Y303654I2115J-774D01*
G02Y299150I0J-2252D01*
G02X316857Y299702I0J2252D01*
G03X316076Y299500I-321J-370D01*
G37*
G36*
G01X327493Y303178D02*
G02X327417Y303757I2176J580D01*
G02X329669Y301505I2252J0D01*
G02X328688Y301730I0J2251D01*
G03X328001Y301163I-213J-441D01*
G02X328077Y300584I-2176J-580D01*
G02X325825Y302836I-2252J0D01*
G02X326806Y302611I0J-2251D01*
G03X327493Y303178I213J441D01*
G37*
G36*
G01X318982Y312202D02*
G02X317603Y314278I873J2076D01*
G02X322107I2252J0D01*
G02X321297Y312548I-2252J0D01*
G03X321421Y311720I314J-376D01*
G02X322800Y309644I-873J-2076D01*
G02X318296I-2252J0D01*
G02X319106Y311374I2252J0D01*
G03X318982Y312202I-314J376D01*
G37*
G36*
G01X323927Y330351D02*
G02X326167Y332366I2240J-238D01*
G02Y327862I0J-2252D01*
G02X325032Y328169I0J2252D01*
G03X324298Y327797I-247J-423D01*
G02X322058Y325782I-2240J238D01*
G02Y330286I0J2252D01*
G02X323193Y329979I0J-2252D01*
G03X323927Y330351I247J423D01*
G37*
G36*
G01X331499Y333616D02*
G02X329299Y331844I-2200J480D01*
G02Y336348I0J2252D01*
G02X330688Y335869I0J-2253D01*
G03X331469Y336150I302J386D01*
G02X333669Y337922I2200J-480D01*
G02Y333418I0J-2252D01*
G02X332280Y333897I0J2253D01*
G03X331499Y333616I-302J-386D01*
G37*
G36*
G01X311039Y336167D02*
G02X309241Y335271I-1798J1356D01*
G02Y339775I0J2252D01*
G02X311149Y338719I0J-2252D01*
G03X311955Y338684I415J260D01*
G02X313753Y339580I1798J-1356D01*
G02Y335076I0J-2252D01*
G02X311845Y336132I0J2252D01*
G03X311039Y336167I-415J-260D01*
G37*
G36*
G01X310927Y346216D02*
G02X310169Y346085I-757J2121D01*
G02X312421Y348337I0J2252D01*
G02X312286Y347568I-2252J-1D01*
G03X312911Y346940I460J-167D01*
G02X313669Y347071I757J-2121D01*
G02X311417Y344819I0J-2252D01*
G02X311552Y345588I2252J1D01*
G03X310927Y346216I-460J167D01*
G37*
G36*
G01X282707Y350400D02*
G02X281671Y350147I-1037J1999D01*
G02X283923Y352399I0J2252D01*
G02X283920Y352280I-2252J-3D01*
G03X284635Y351819I489J-26D01*
G02X285671Y352072I1037J-1999D01*
G02X287923Y349820I0J-2252D01*
G02X286492Y347723I-2252J0D01*
G03X286352Y347410I90J-228D01*
G02X286493Y346625I-2111J-784D01*
G02X286346Y345824I-2252J-1D01*
G03X286908Y345171I458J-174D01*
G02X287388Y345223I481J-2200D01*
G02X285136Y342971I0J-2252D01*
G02X285283Y343772I2252J1D01*
G03X284721Y344425I-458J174D01*
G02X284241Y344373I-481J2200D01*
G02X281989Y346625I0J2252D01*
G02X283420Y348722I2252J0D01*
G03X283560Y349035I-90J228D01*
G02X283419Y349820I2111J784D01*
G02X283422Y349939I2252J3D01*
G03X282707Y350400I-489J26D01*
G37*
G36*
G01X310832Y353639D02*
G02X310298Y353575I-533J2188D01*
G02X312550Y355827I0J2252D01*
G02X312532Y355545I-2252J2D01*
G03X313135Y355008I486J-61D01*
G02X313669Y355072I533J-2188D01*
G02X311417Y352820I0J-2252D01*
G02X311435Y353102I2252J-2D01*
G03X310832Y353639I-486J61D01*
G37*
G36*
G01X283715Y366029D02*
G02X285958Y368084I2243J-197D01*
G02Y363580I0J-2252D01*
G02X284974Y363806I-1J2252D01*
G03X284272Y363408I-214J-441D01*
G02X282029Y361353I-2243J197D01*
G02Y365857I0J2252D01*
G02X283013Y365631I1J-2252D01*
G03X283715Y366029I214J441D01*
G37*
G36*
G01X386260Y145227D02*
G02X385765Y145172I-495J2197D01*
G02X388017Y147424I0J2252D01*
G02X387962Y146929I-2252J0D01*
G03X388548Y146343I478J-108D01*
G02X389043Y146398I495J-2197D01*
G02X386791Y144146I0J-2252D01*
G02X386846Y144641I2252J0D01*
G03X386260Y145227I-478J108D01*
G37*
G36*
G01X421638Y306516D02*
Y319086D01*
X423356Y320804D01*
X429068D01*
X431548Y318324D01*
Y306516D01*
X429576Y304544D01*
X423610D01*
X421638Y306516D01*
G37*
G36*
G01X400048Y313303D02*
Y319086D01*
X401512Y320550D01*
X409764D01*
X411736Y318578D01*
Y306516D01*
X409764Y304544D01*
X402274D01*
X400048Y306770D01*
Y308135D01*
G03X399394Y308597I-490J0D01*
G02X398640Y308467I-754J2122D01*
G02Y312971I0J2252D01*
G02X399394Y312841I0J-2252D01*
G03X400048Y313303I164J462D01*
G37*
G36*
G01X463818Y334577D02*
G03X463815Y335237I-364J328D01*
G02X463220Y336762I1657J1525D01*
G02X467724I2252J0D01*
G02X467144Y335254I-2252J1D01*
G03X467147Y334594I364J-328D01*
G02X467742Y333069I-1657J-1525D01*
G02X463238I-2252J0D01*
G02X463818Y334577I2252J-1D01*
G37*
G36*
G01X385934Y356871D02*
G02X385871Y357401I2189J529D01*
G02X388123Y355149I2252J0D01*
G02X387366Y355280I0J2253D01*
G03X386725Y354703I-165J-461D01*
G02X386788Y354173I-2189J-529D01*
G02X384536Y351921I-2252J0D01*
G02X382902Y352623I0J2253D01*
G03X382164Y352591I-355J-337D01*
G02X380402Y351742I-1762J1404D01*
G02Y356246I0J2252D01*
G02X382036Y355544I0J-2253D01*
G03X382774Y355576I355J337D01*
G02X384536Y356425I1762J-1404D01*
G02X385293Y356294I0J-2253D01*
G03X385934Y356871I165J461D01*
G37*
G36*
G01X429742Y381132D02*
G02X428694Y380873I-1049J1993D01*
G02X430946Y383125I0J2252D01*
G02X430938Y382934I-2252J-1D01*
G03X431654Y382459I488J-41D01*
G02X432702Y382718I1049J-1993D01*
G02X430450Y380466I0J-2252D01*
G02X430458Y380657I2252J1D01*
G03X429742Y381132I-488J41D01*
G37*
G54D32*
X218700Y46600D03*
X474726Y87376D03*
X93472Y221488D03*
X106426Y274320D03*
X279146Y109728D03*
X333716Y131318D03*
X264414Y363220D03*
X251500Y221500D03*
X268312Y207336D03*
X282000Y208500D03*
X263600Y224499D03*
X276670Y376820D03*
X295529Y374464D03*
X279042Y296012D03*
X267150Y306267D03*
X266919Y300821D03*
X282811Y311940D03*
X294330Y310000D03*
X300420Y304819D03*
X296670Y300821D03*
X285166Y323724D03*
X292512Y319295D03*
X286729Y316746D03*
X361000Y249000D03*
X340500Y256000D03*
X336000Y295361D03*
X326966Y308311D03*
X334493Y311500D03*
X325493Y320285D03*
X327032Y313500D03*
X334727Y318043D03*
X302345Y335572D03*
X298350Y331586D03*
X313614Y331904D03*
X305816Y331820D03*
X318935Y332531D03*
X330875Y324819D03*
X291785Y339909D03*
X322131Y337560D03*
X321670Y345472D03*
X330970Y342396D03*
X338179Y342914D03*
X347500Y344554D03*
X292079Y347709D03*
X291036Y356072D03*
X285671Y357821D03*
X301670Y352752D03*
X321670Y353316D03*
X326115Y349794D03*
X336897Y348815D03*
X290718Y361796D03*
X301670Y360664D03*
X313669Y360821D03*
X394208Y151384D03*
X371278Y287838D03*
X403799Y287349D03*
X432555Y285483D03*
X465490Y287570D03*
X382641Y296920D03*
X395790Y294058D03*
X427890Y300474D03*
X439233Y296931D03*
X450682Y292797D03*
X465766Y300570D03*
X366724Y307732D03*
X371790Y307070D03*
X436852Y311322D03*
X465628Y307108D03*
X365773Y321100D03*
X379927Y313508D03*
X465490Y313569D03*
Y320069D03*
X377540Y333029D03*
X386596D03*
X452908Y330640D03*
X448643Y335107D03*
X465478Y326833D03*
X464836Y346620D03*
X395348Y353994D03*
X454816Y349721D03*
X449387Y349762D03*
X459862Y359071D03*
X465490Y352556D03*
X333669Y367569D03*
X330948Y361675D03*
X371192Y367685D03*
X404625Y370055D03*
X404888Y363395D03*
X398958Y369221D03*
X441777Y362441D03*
X433509Y365621D03*
X465490Y365571D03*
X371816Y380567D03*
X385490Y372203D03*
X377222Y380250D03*
X404578Y380466D03*
X428576Y373967D03*
X436371Y373889D03*
X465487Y372204D03*
X465489Y378656D03*
X385227Y393249D03*
X396445Y389751D03*
X438640Y388720D03*
X453862Y388836D03*
X465596Y385070D03*
X376288Y400936D03*
X409956Y398070D03*
X427889Y398049D03*
X465596Y398070D03*
G54D30*
X178124Y50100D03*
X206600Y43500D03*
X213500Y44100D03*
X114800Y64500D03*
X122700Y64300D03*
X86800Y67500D03*
X101578Y67078D03*
X94600Y66900D03*
X108500Y67200D03*
X114046Y201676D03*
X107188Y314452D03*
X71700Y326300D03*
X75200Y389636D03*
X74422Y219202D03*
G54D31*
X25400Y304800D03*
Y330200D03*
Y355600D03*
Y381000D03*
Y406400D03*
G54D34*
X88899Y100330D03*
%LPD*%
G75*
G36*
G01X401828Y319786D02*
X409448D01*
X410972Y318262D01*
Y306832D01*
X409448Y305308D01*
X402590D01*
X400812Y307086D01*
Y310123D01*
X400820Y310154D01*
G03Y311284I-2181J565D01*
G01X400812Y311315D01*
Y318770D01*
X401828Y319786D01*
G37*
G36*
G01X423672Y320040D02*
X428752D01*
X430784Y318008D01*
Y306832D01*
X429260Y305308D01*
X423926D01*
X422402Y306832D01*
Y318770D01*
X423672Y320040D01*
G37*
%LPC*%
G75*
G54D32*
X406641Y313729D03*
%LPD*%
G75*
G54D10*
X9707Y417793D03*
X19300Y199000D03*
X19558Y240538D03*
X22500Y451500D03*
X18400Y451400D03*
X20700Y455200D03*
X16700Y455100D03*
X17100Y482500D03*
X21100D03*
Y486500D03*
X17100D03*
X25000Y204700D03*
X31496Y214376D03*
X29718Y266700D03*
X55800Y36500D03*
X57200Y89400D03*
X57100Y98300D03*
X57200Y93000D03*
X57150Y167132D03*
X58420Y173482D03*
X57682Y458406D03*
Y462626D03*
X59600Y95700D03*
X60452Y158750D03*
X66040Y181610D03*
X61700Y252000D03*
Y242500D03*
X69596Y262382D03*
X68100Y280000D03*
X68900Y405600D03*
Y401100D03*
X64900Y401200D03*
Y405700D03*
X70400Y481500D03*
Y477700D03*
X68500Y543900D03*
X68900Y555500D03*
X65200Y552400D03*
Y548500D03*
X67900Y580300D03*
X65800Y576600D03*
X77900Y111400D03*
X70866Y187452D03*
X73000Y197900D03*
X75692Y206756D03*
X74422Y219202D03*
X76862Y251530D03*
X73463Y266934D03*
X79756Y273558D03*
X71700Y326300D03*
X75200Y389636D03*
X72900Y405600D03*
Y401100D03*
X77900Y423900D03*
X78000Y438700D03*
X77900Y431800D03*
X74200Y481500D03*
Y477700D03*
X72700Y543900D03*
X72900Y555400D03*
X70900Y576500D03*
X74700Y588300D03*
X86800Y67500D03*
X83200Y111600D03*
X88138Y208026D03*
X93472Y221488D03*
X83600Y423900D03*
X83700Y438700D03*
X83600Y431800D03*
X84400Y601200D03*
X90400Y612850D03*
X94000Y614500D03*
X101578Y67078D03*
X94600Y66900D03*
X100076Y97282D03*
X100800Y109900D03*
X105000Y106500D03*
X102362Y135636D03*
X105156Y148336D03*
X102362Y157480D03*
X98200Y503100D03*
X95000Y506707D03*
X94900Y516400D03*
X95000Y511477D03*
X94250Y610850D03*
X97600Y614800D03*
X98150Y611150D03*
X115300Y41200D03*
X111100Y41300D03*
X109100Y44600D03*
X113300D03*
X114800Y64500D03*
X108500Y67200D03*
X105900Y99200D03*
X111800Y99500D03*
X115500Y96000D03*
X111760Y141478D03*
X107696Y137668D03*
X107188Y153924D03*
X114046Y201676D03*
X106426Y274320D03*
X107188Y314452D03*
X112251Y380651D03*
X113900Y496200D03*
X117400Y516000D03*
X115850Y541650D03*
X119800Y41300D03*
X117500Y44600D03*
X121900Y44500D03*
X122700Y64300D03*
X125222Y90170D03*
X122174Y159512D03*
X128524Y164338D03*
X128778Y300228D03*
X127700Y375450D03*
X128200Y493100D03*
X121000Y491600D03*
X119690Y496570D03*
X124460D03*
X120900Y537700D03*
X124100Y597470D03*
X128550Y600330D03*
X128760Y610370D03*
X123640Y606640D03*
X128550Y605100D03*
X136000Y38800D03*
X139900D03*
X138938Y73660D03*
X137668Y85100D03*
X132200Y91000D03*
X138430Y159766D03*
X133096D03*
X133604Y177038D03*
X133100Y201200D03*
X133300Y205500D03*
X129540Y295910D03*
X140000Y327200D03*
X135539Y355761D03*
X131600Y369300D03*
X130450Y372750D03*
X138000Y392100D03*
X139900Y479600D03*
X133700Y494900D03*
X139600Y528300D03*
X135600Y535800D03*
X140465Y587865D03*
X139960Y583590D03*
X130830Y595570D03*
X131600Y612900D03*
X135400Y608400D03*
X136430Y613400D03*
X139900Y606100D03*
X143700Y38800D03*
X141732Y70612D03*
X144272Y66802D03*
X148590D03*
X143510Y80518D03*
X143600Y136398D03*
X143764Y159512D03*
X145288Y257282D03*
X142494Y270510D03*
X145100Y348600D03*
X142500Y353500D03*
X143800Y364200D03*
X140949Y380651D03*
X146304Y416052D03*
X152400Y434340D03*
Y430276D03*
Y438658D03*
X142800Y473500D03*
X143200Y483700D03*
X148200Y503400D03*
X150300Y515400D03*
X143600Y524764D03*
X149600Y606000D03*
X146300Y613850D03*
X148100Y609800D03*
X141200Y613400D03*
X144670Y606100D03*
X151430Y613800D03*
X159766Y27940D03*
X155702Y71374D03*
X153162Y66802D03*
X152908Y423164D03*
X153218Y502666D03*
X157988D03*
X161200Y613300D03*
X159500Y606850D03*
X156200Y613800D03*
X168402Y13970D03*
X173736Y13208D03*
X164338Y17526D03*
X169672Y26416D03*
X166878Y22098D03*
X175768Y150876D03*
X170900Y171400D03*
X173754Y167386D03*
X173700Y206000D03*
X174935Y211003D03*
X178308Y23622D03*
X178300Y30000D03*
X178124Y50100D03*
X182118Y150876D03*
X186100Y169800D03*
X182900Y164900D03*
X178524Y167386D03*
X179070Y160528D03*
X183500Y178770D03*
Y174000D03*
X185800Y195600D03*
X179800Y200100D03*
X179960Y206170D03*
X178308Y214376D03*
X178900Y219200D03*
X177860Y226270D03*
X186944Y270510D03*
X185984Y496570D03*
X193400Y69400D03*
X197700Y69500D03*
X196600Y130100D03*
X188976Y153416D03*
X193548Y162560D03*
X191500Y169000D03*
X190500Y181730D03*
Y186500D03*
X192600Y206500D03*
X188040D03*
X190246Y202128D03*
Y197358D03*
X192243Y216627D03*
X193294Y229362D03*
X192243Y221397D03*
X187703Y240528D03*
X193294Y234132D03*
X192500Y246900D03*
X187703Y245298D03*
X197400Y274400D03*
X190246Y266700D03*
X195300Y282100D03*
X198374Y278602D03*
X194500Y288800D03*
Y293200D03*
X194564Y347218D03*
X192532Y351790D03*
X189600Y355100D03*
X191100Y359300D03*
X192400Y383300D03*
X195500Y395600D03*
X190754Y496570D03*
X194600Y617350D03*
X204000Y28000D03*
X206600Y43500D03*
X202100Y69600D03*
X204500Y125000D03*
X201000Y126000D03*
X203800Y128700D03*
X200200Y129800D03*
X199390Y284819D03*
X199700Y375000D03*
X205600Y401600D03*
X201400Y398500D03*
X202300Y406600D03*
X209000Y406000D03*
X201500Y561200D03*
X206650Y611450D03*
X209450Y618450D03*
X204400Y617200D03*
X199630D03*
X218700Y46600D03*
X213500Y44100D03*
X214050Y462250D03*
X220450Y459250D03*
X224200Y91600D03*
X231902Y96400D03*
X233140Y475313D03*
Y480083D03*
X224700Y502158D03*
X225700Y529900D03*
X235400Y439900D03*
X245000Y438200D03*
X240230D03*
X238100Y473500D03*
X237900Y481600D03*
X236800Y528850D03*
X239500Y535100D03*
X235550Y535050D03*
X242800Y564400D03*
X243100Y638100D03*
X249428Y87884D03*
X247142Y99314D03*
X253492Y92202D03*
X257000Y215500D03*
X251500Y221500D03*
X257670Y339571D03*
X251757Y338734D03*
X248500Y434500D03*
X251847Y438418D03*
X256617D03*
X248500Y442200D03*
X253000Y454900D03*
X252750Y612050D03*
X252850Y619250D03*
X249700Y634700D03*
X259316Y210708D03*
X264178Y210516D03*
X268312Y207336D03*
X265358Y217000D03*
X263600Y224499D03*
X267150Y306267D03*
X266919Y300821D03*
X262921Y320821D03*
X260327Y316821D03*
X262546Y312379D03*
X261671Y326070D03*
X268313Y341587D03*
X262333Y339372D03*
X258921Y352820D03*
X266636Y351395D03*
X264414Y363220D03*
X269000Y380000D03*
X268000Y374500D03*
X263500Y379000D03*
X260100Y434600D03*
X263230Y438500D03*
X268000D03*
X259800Y443000D03*
X260600Y486700D03*
X266192Y479377D03*
Y484147D03*
X260050Y542900D03*
X259750Y557000D03*
X258000Y609400D03*
X265800Y642500D03*
X264220Y657330D03*
X268120Y653590D03*
X267920Y657440D03*
X279146Y109728D03*
X274386Y217194D03*
X269870D03*
X279042Y296012D03*
X273528Y311567D03*
X277680Y307736D03*
X273536Y303819D03*
X277681Y315820D03*
X273546Y321092D03*
X280866Y321024D03*
X270983Y332166D03*
X269669Y327819D03*
X277681Y325820D03*
X277670Y332820D03*
X278671Y340821D03*
X270764Y345440D03*
X274670Y336821D03*
X273670Y354070D03*
X277496Y349735D03*
X277277Y357904D03*
X276500Y364500D03*
Y368500D03*
X271810Y363786D03*
X276670Y376820D03*
X280600Y440600D03*
X272571Y435460D03*
X277622Y435356D03*
X271400Y442700D03*
X270900Y486300D03*
X278300Y516900D03*
X269800Y618850D03*
X272070Y657190D03*
X271970Y653490D03*
X291266Y167110D03*
X292030Y170862D03*
X284398Y171116D03*
X288214Y170862D03*
X291266Y174868D03*
X292272Y206606D03*
X282000Y208500D03*
X282811Y311940D03*
X285202Y305293D03*
X288529Y300804D03*
X281671Y303602D03*
X290711Y304759D03*
X289814Y310037D03*
X285166Y323724D03*
X292512Y319295D03*
X286729Y316746D03*
X285948Y332222D03*
X289687Y333249D03*
X281493Y327814D03*
X289669Y324367D03*
X291785Y339909D03*
X287388Y342971D03*
X284040Y338900D03*
X284241Y346625D03*
X292079Y347709D03*
X291036Y356072D03*
X281671Y352399D03*
X285671Y357821D03*
Y349820D03*
X290718Y361796D03*
X282029Y363605D03*
X290670Y368819D03*
X285958Y365832D03*
X283058Y371962D03*
X282846Y376820D03*
X283464Y435356D03*
X288234D03*
X290640Y498625D03*
Y493855D03*
X290400Y504000D03*
X287200Y532050D03*
X284850Y543900D03*
X288000Y551250D03*
X284050Y570450D03*
X289230Y570500D03*
X283300Y623600D03*
X298950Y201836D03*
X299904Y206606D03*
X296088D03*
X298632Y210510D03*
X294330Y310000D03*
X300420Y304819D03*
X296670Y300821D03*
X304499Y311819D03*
X300990Y316484D03*
X302132Y321607D03*
X297529Y321521D03*
X302345Y335572D03*
X301478Y326076D03*
X298350Y331586D03*
X294202Y333373D03*
X296750Y341852D03*
X301670Y352752D03*
X297670Y357821D03*
X297712Y349800D03*
X301670Y360664D03*
X297722Y365819D03*
X304420Y372820D03*
X295529Y374464D03*
X295100Y484000D03*
X299720Y485727D03*
X295200Y492400D03*
X304100Y492500D03*
X299720Y490497D03*
X300900Y509100D03*
X302350Y520550D03*
X294000Y524850D03*
X293600Y543800D03*
X299000Y569350D03*
X302900Y562600D03*
X294000Y570500D03*
X296050Y630510D03*
X309626Y144018D03*
X313961Y300274D03*
X313873Y307741D03*
X309669Y319571D03*
X312669Y312820D03*
X313614Y331904D03*
X309669Y325820D03*
X305816Y331820D03*
X309241Y337523D03*
X313753Y337328D03*
X313669Y344819D03*
X306135Y341632D03*
X310169Y348337D03*
X310298Y355827D03*
X313669Y352820D03*
X305661Y357821D03*
X305711Y349063D03*
X309874Y368588D03*
X313669Y360821D03*
X305778Y365217D03*
X310116Y376820D03*
X306919Y380821D03*
X312950Y543650D03*
X305500Y547200D03*
X310800Y661500D03*
X314800Y661600D03*
X312300Y665200D03*
X323849Y115551D03*
X326100Y137600D03*
X322744Y141640D03*
X326357Y149144D03*
X321397Y150637D03*
X318770Y163278D03*
X326898Y185674D03*
X324664Y193294D03*
X325825Y300584D03*
X318334Y301402D03*
X320548Y309644D03*
X326966Y308311D03*
X319855Y314278D03*
X325493Y320285D03*
X317441Y320393D03*
X327032Y313500D03*
X318935Y332531D03*
X322058Y328034D03*
X326167Y330114D03*
X322131Y337560D03*
X321670Y345472D03*
X317748Y340808D03*
X321670Y353316D03*
X325698Y357662D03*
X326115Y349794D03*
X317671Y357048D03*
X317748Y349076D03*
X316384Y370331D03*
X325768Y365604D03*
X318920Y364819D03*
X319861Y376735D03*
X321670Y371569D03*
X325400Y479900D03*
X325200Y490000D03*
X318200Y548900D03*
X325882Y566674D03*
X333716Y131318D03*
X332966Y145946D03*
X329438Y160782D03*
X336000Y295361D03*
X334493Y311500D03*
X329669Y303757D03*
X334727Y318043D03*
X333669Y335670D03*
X329299Y334096D03*
X330875Y324819D03*
X330970Y342396D03*
X338179Y342914D03*
X336897Y348815D03*
X330544Y352653D03*
X330843Y357160D03*
X333669Y367569D03*
X330948Y361675D03*
X333012Y380821D03*
X330864Y376820D03*
X329862Y371332D03*
X334772Y471170D03*
X333100Y478400D03*
X331500Y487700D03*
Y482930D03*
X330708Y503682D03*
X329438Y511556D03*
X337368Y542544D03*
X328676Y564388D03*
X349814Y152676D03*
X345823Y162800D03*
X340500Y256000D03*
X340305Y297149D03*
X347500Y344554D03*
X340300Y468300D03*
X346202Y519430D03*
X348742Y513080D03*
X344500Y532150D03*
X350520Y525272D03*
X344750Y538100D03*
X342138Y542544D03*
X342150Y549150D03*
X349521Y560324D03*
X361828Y97260D03*
X362966Y158750D03*
X362500Y154136D03*
X355597Y171848D03*
X353060Y202184D03*
X353090Y205882D03*
Y209698D03*
Y213514D03*
X360689Y231992D03*
X360850Y235584D03*
X361000Y249000D03*
X354450Y459050D03*
X359300Y472400D03*
X359800Y489700D03*
X357434Y494030D03*
X362204D03*
X359156Y516128D03*
X353743Y516382D03*
X358394Y529082D03*
X362712Y526288D03*
X358394Y524002D03*
X357750Y545300D03*
X359918Y539300D03*
X361498Y548640D03*
X356362Y549910D03*
X354291Y560324D03*
X360100Y560100D03*
X372500Y45500D03*
X371602Y116586D03*
X374248Y123574D03*
X364112Y118488D03*
X366824Y136800D03*
X372926Y144062D03*
X363720Y142700D03*
X370840Y155194D03*
X370202Y170622D03*
X371889Y174812D03*
X365620Y232084D03*
X370527Y231826D03*
X365620Y235584D03*
X370390D03*
X373888Y271272D03*
X371278Y287838D03*
X374640Y296920D03*
X366724Y307732D03*
X371790Y307070D03*
X365773Y321100D03*
X371192Y367685D03*
X371816Y380567D03*
X366300Y483400D03*
X366100Y490300D03*
X372300Y489500D03*
X365600Y499100D03*
X369626Y494030D03*
X374396D03*
X364683Y531429D03*
X371912Y552196D03*
X366268Y548640D03*
X367300Y562550D03*
X379800Y40400D03*
X376428Y93726D03*
X385765Y147424D03*
X375234Y171777D03*
X378480Y168636D03*
X384556Y165354D03*
X383716Y178960D03*
X381225Y190846D03*
X384637Y192266D03*
X381000Y203454D03*
X382641Y296920D03*
X379927Y313508D03*
X377540Y333029D03*
X380402Y353994D03*
X384536Y354173D03*
X385490Y372203D03*
X377222Y380250D03*
X385227Y393249D03*
X376609Y393631D03*
X376288Y400936D03*
X382200Y420100D03*
X376100Y467300D03*
X383650Y531750D03*
X384200Y526000D03*
X379550Y556350D03*
X376682Y552196D03*
X376450Y579750D03*
X386300Y579400D03*
X381530D03*
X386900Y45400D03*
X389500Y110220D03*
X390224Y117856D03*
X390683Y131741D03*
X389043Y144146D03*
X394208Y151384D03*
X389977Y171537D03*
X387096Y161290D03*
X386910Y175766D03*
X389128Y201930D03*
X393672Y227316D03*
X393789Y231074D03*
X390837Y271473D03*
X388198Y279598D03*
X395790Y294058D03*
X393489Y307101D03*
X386596Y333029D03*
X388123Y357401D03*
X395348Y353994D03*
X392804Y381203D03*
X396445Y389751D03*
X387802Y415810D03*
X392706Y406533D03*
X388400Y423400D03*
X394068Y436232D03*
X392001Y481076D03*
X396771D03*
X398200Y490700D03*
X397000Y501300D03*
X390144Y529646D03*
Y534416D03*
X392176Y524256D03*
X394200Y537600D03*
X396750Y544750D03*
X392068Y542400D03*
X389890Y566928D03*
X393700D03*
X390100Y575850D03*
X390650Y581800D03*
X405600Y42700D03*
X408200Y46300D03*
X398400Y43700D03*
X405130Y142509D03*
X409630Y137409D03*
X403720Y227316D03*
X398696Y227062D03*
Y230816D03*
X403595Y230884D03*
X406641Y271720D03*
X398479Y271724D03*
X403799Y287349D03*
X409341Y282303D03*
X409659Y293433D03*
X403863Y307070D03*
X398640Y310719D03*
X406641Y313729D03*
X404625Y318053D03*
Y370055D03*
X404888Y363395D03*
X398958Y369221D03*
X404578Y380466D03*
Y393466D03*
X406474Y414266D03*
X408606Y406534D03*
X400760Y457760D03*
X398300Y476100D03*
X408100Y493600D03*
X399367Y496824D03*
X404137D03*
X409200Y506800D03*
Y502030D03*
X408600Y511900D03*
X409700Y543750D03*
X401800Y588500D03*
X406631Y589026D03*
X419800Y37000D03*
X412100Y38000D03*
X412750Y33528D03*
X416100Y46200D03*
X414335Y167825D03*
X410726Y167938D03*
X420878Y205486D03*
X413620Y203454D03*
X409956Y398070D03*
X418872Y411086D03*
X413800Y482000D03*
X413600Y487000D03*
X410700Y497200D03*
X421200Y497800D03*
X415500Y496600D03*
X413600Y491770D03*
X417600Y524350D03*
X413000Y556250D03*
X414140Y546299D03*
Y551069D03*
X416400Y590100D03*
X411401Y589026D03*
X426200Y36600D03*
X423926Y159929D03*
X423672Y170688D03*
X429514Y165354D03*
X430639Y271720D03*
X432555Y285483D03*
X428012Y279232D03*
X425086Y281748D03*
X423814Y286200D03*
X427890Y300474D03*
X428421Y292161D03*
X425404Y289698D03*
X427244Y307070D03*
X426195Y318360D03*
X428576Y373967D03*
X432702Y380466D03*
X428694Y383125D03*
X427958Y392184D03*
X427889Y398049D03*
X430639Y413920D03*
X432702Y406466D03*
X430100Y473234D03*
X422300Y511200D03*
X430300Y527850D03*
X423350Y528200D03*
X424650Y534650D03*
X429930Y535700D03*
X421650Y552200D03*
X432900Y561200D03*
Y588400D03*
X443283Y206526D03*
X444625Y276586D03*
X438640Y271720D03*
X439233Y296931D03*
X444321Y305518D03*
X436852Y311322D03*
X441777Y362441D03*
X433509Y365621D03*
X436371Y373889D03*
X438640Y388720D03*
X444578Y406466D03*
X434800Y472600D03*
X439100Y537800D03*
X438050Y546150D03*
X434700Y535700D03*
X439000Y562200D03*
X433800Y566006D03*
X436100Y575400D03*
X433800Y570776D03*
X439900Y583600D03*
X437792Y590296D03*
X442562D03*
X442214Y646176D03*
X443700Y643000D03*
X440100Y643200D03*
X448500Y36100D03*
X455602Y194518D03*
X452300Y190200D03*
X449672Y281070D03*
X450682Y292797D03*
X452908Y330640D03*
X448643Y335107D03*
X454816Y349721D03*
X449387Y349762D03*
X449201Y377130D03*
X453862Y388836D03*
X449702Y411070D03*
X463000Y44400D03*
X463395Y122179D03*
X463042Y118364D03*
Y133858D03*
Y130048D03*
X463072Y125994D03*
X463042Y137668D03*
X458500Y149600D03*
X462200D03*
X465900D03*
X467400Y156600D03*
Y153000D03*
X463551Y182215D03*
Y186985D03*
X465490Y287570D03*
X465766Y300570D03*
X465628Y294069D03*
Y307108D03*
X465490Y313569D03*
Y320069D03*
X465478Y326833D03*
X465490Y333069D03*
X464836Y346620D03*
X465472Y336762D03*
X459862Y359071D03*
X465490Y352556D03*
Y365571D03*
X465487Y372204D03*
X465489Y378656D03*
X465596Y385070D03*
X465490Y391570D03*
X465596Y398070D03*
X467800Y433600D03*
X467000Y439600D03*
X474726Y87376D03*
X469400Y149900D03*
X474980Y406400D03*
X476900Y440000D03*
X476500Y432700D03*
X471700Y440600D03*
X481000Y438200D03*
G54D20*
G01X321397Y150637D02*
X321545D01*
Y150722D01*
X321234D01*
Y150622D01*
X319992Y151864D01*
X315496D01*
X310134Y157226D01*
X272370D01*
X237612Y191984D01*
Y340490D01*
X254912Y357790D01*
X264514D01*
X266636Y355668D01*
Y351395D01*
G01X278671Y340821D02*
X280592Y338900D01*
X284040D01*
G01X313873Y307741D02*
X310259D01*
X308500Y309500D01*
Y313587D01*
X305500Y316587D01*
Y324000D01*
X303424Y326076D01*
X301478D01*
G01X370202Y170622D02*
X370330D01*
Y170712D01*
X379752Y161290D01*
X387096D01*
G54D11*
X7620Y485298D03*
Y497998D03*
Y510698D03*
Y523398D03*
Y561498D03*
Y574198D03*
Y586898D03*
Y599598D03*
Y612298D03*
Y624998D03*
Y637698D03*
X21200Y114350D03*
X18400Y139150D03*
X18050Y165200D03*
X18250Y207750D03*
X16300Y570000D03*
X16000Y607800D03*
X24000Y622900D03*
X17700Y617800D03*
X15800Y638200D03*
X23800Y631900D03*
X23100Y638300D03*
X34290Y136652D03*
X33020Y141986D03*
X24200Y190600D03*
X29200Y570200D03*
X32800Y638600D03*
X39227Y22348D03*
X41600Y42550D03*
X38100Y52950D03*
X47250Y53650D03*
X44200Y47400D03*
X42500Y63500D03*
X42200Y69100D03*
X42450Y75550D03*
X42400Y82700D03*
X36400Y579300D03*
X44200Y638400D03*
X48207Y13368D03*
X55880Y30480D03*
X51600Y638500D03*
X57000D03*
X59532Y7620D03*
X97632D03*
X98450Y14300D03*
X97850Y26250D03*
X210900Y467400D03*
X220900Y7650D03*
X222200Y646350D03*
X222150Y656000D03*
X222884Y666880D03*
X228450Y14000D03*
X234450Y21700D03*
X224650Y507600D03*
X233680Y564134D03*
X230050Y566050D03*
X229150Y673300D03*
X223184Y678180D03*
X237200Y7550D03*
X241350Y507350D03*
X243450Y633000D03*
X241500Y646050D03*
X249650Y640350D03*
X250530Y645560D03*
X266350Y16650D03*
Y31050D03*
X260350Y640650D03*
X270800Y562700D03*
X280150Y562350D03*
X291950Y16950D03*
X292950Y562450D03*
X298500Y35650D03*
X312084Y678180D03*
X326232Y7620D03*
X316950Y43600D03*
X338932Y7620D03*
X335280Y30480D03*
X336800Y43200D03*
X341660Y607350D03*
X347980Y652980D03*
Y665480D03*
X350184Y678180D03*
X360680Y652980D03*
X359550Y664750D03*
X360400Y678150D03*
X372850Y633400D03*
X368700Y662500D03*
X372635Y666629D03*
X376927Y9243D03*
X385908Y18224D03*
X379650Y24750D03*
X386080Y652980D03*
X381300Y662100D03*
X377969Y666629D03*
X375584Y678180D03*
X395500Y249200D03*
X390400Y664500D03*
X389250Y678200D03*
X403050Y452850D03*
X400450Y464950D03*
X398780Y652980D03*
Y665480D03*
X400984Y678180D03*
X410450Y459350D03*
X410950Y466450D03*
X418100Y466100D03*
X411400Y653100D03*
X411480Y665480D03*
X413684Y678180D03*
X426600Y93900D03*
X435150Y102200D03*
X441993Y473456D03*
X439084Y678180D03*
X455300Y100850D03*
X455700Y511300D03*
X451784Y678180D03*
X457600Y589600D03*
X457500Y585200D03*
X461400Y596800D03*
X457500Y594100D03*
Y598700D03*
X475700Y212400D03*
X491235Y50137D03*
X480600Y638700D03*
X480850Y655050D03*
X487680Y665480D03*
X489884Y678180D03*
X495078Y33020D03*
X492450Y44050D03*
X495250Y55500D03*
X501250Y87850D03*
X500100Y113150D03*
X500500Y138300D03*
X501350Y164200D03*
X501800Y189900D03*
X501950Y215550D03*
X500380Y246380D03*
X500000Y408800D03*
X499150Y434350D03*
X499900Y485150D03*
X499800Y510600D03*
X501700Y560400D03*
X501203Y570897D03*
X501100Y599000D03*
X497300Y606500D03*
X497750Y619150D03*
X501850Y639000D03*
X501700Y655300D03*
X502550Y664650D03*
X502584Y678180D03*
X507778Y33020D03*
X515150Y63350D03*
Y139250D03*
X515250Y190850D03*
X514900Y215300D03*
X513080Y246380D03*
X515200Y281700D03*
X515350Y308350D03*
X515050Y358300D03*
X515200Y434500D03*
X513080Y513080D03*
X508000Y556900D03*
X513590Y569900D03*
X515284Y678180D03*
X519612Y37628D03*
X525780Y48730D03*
Y61430D03*
Y74130D03*
Y86830D03*
X515550Y88600D03*
X525780Y99530D03*
Y112230D03*
Y124930D03*
X515550Y114700D03*
X525780Y137630D03*
Y150330D03*
Y163030D03*
X515550Y164500D03*
X525780Y175730D03*
Y188430D03*
Y201130D03*
Y213830D03*
Y226530D03*
Y239230D03*
Y251930D03*
Y264630D03*
Y277330D03*
Y290030D03*
Y302730D03*
Y315430D03*
Y328130D03*
X515750Y332750D03*
X525780Y340830D03*
Y353530D03*
Y366230D03*
Y378930D03*
Y391630D03*
X515650Y383700D03*
X525780Y404330D03*
Y417030D03*
X515900Y409800D03*
X525780Y429730D03*
Y442430D03*
Y455130D03*
X516050Y484700D03*
X525780Y493230D03*
Y505930D03*
Y518630D03*
Y544030D03*
Y556730D03*
Y569430D03*
X519300Y570500D03*
X525780Y582130D03*
Y594830D03*
Y607530D03*
X516200Y607500D03*
X525780Y620230D03*
X518050Y619250D03*
X525780Y632930D03*
X519300Y638550D03*
X525780Y645630D03*
Y658330D03*
X519150Y656300D03*
X525780Y671030D03*
G54D21*
G01X321670Y371569D02*
Y367569D01*
X318920Y364819D01*
G54D12*
X25400Y546100D03*
X76200Y25400D03*
X355600D03*
X508000Y533400D03*
G54D22*
G01X135600Y535800D02*
X194368D01*
X212318Y517850D01*
X243850D01*
X256300Y530300D01*
X273300D01*
X278300Y525300D01*
Y516900D01*
G54D13*
X25400Y50800D03*
Y76200D03*
Y101600D03*
Y127000D03*
Y152400D03*
Y177800D03*
Y228600D03*
Y254000D03*
Y279400D03*
Y304800D03*
Y330200D03*
Y355600D03*
Y381000D03*
Y406400D03*
X508000Y50800D03*
Y76200D03*
Y101600D03*
Y127000D03*
Y152400D03*
Y177800D03*
Y203200D03*
Y228600D03*
Y269200D03*
Y294600D03*
Y320000D03*
Y345400D03*
Y370800D03*
Y396200D03*
Y421600D03*
Y447000D03*
Y472400D03*
Y497800D03*
G54D23*
G01X73463Y266934D02*
X82042Y258355D01*
Y195580D01*
X73914Y187452D01*
X70866D01*
G01X115850Y541650D02*
Y547600D01*
X114150Y549300D01*
G01X127500Y171100D02*
X133438Y177038D01*
X133604D01*
G01X236800Y528850D02*
X232800Y524850D01*
X219550D01*
X202500Y541900D01*
X125100D01*
X120900Y537700D01*
G01X363720Y142700D02*
Y142057D01*
X362157D01*
X357006Y136906D01*
X347472D01*
X335159Y149219D01*
X331610D01*
X328262Y145871D01*
X325001D01*
X321397Y149475D01*
Y150637D01*
G01X384556Y165354D02*
X385318Y166116D01*
X392430D01*
X408686Y182372D01*
Y207010D01*
X416052Y214376D01*
X440182D01*
X441452Y213106D01*
Y208357D01*
X443283Y206526D01*
G54D14*
X88899Y100330D03*
X88900Y568960D03*
X444499Y100330D03*
X444500Y568960D03*
G54D24*
G01X14883Y228600D02*
X25400D01*
G01Y218083D02*
Y228600D01*
G01D02*
Y239117D01*
G01Y228600D02*
X35917D01*
G01X243563Y23712D02*
X254110D01*
G01Y13165D02*
Y23712D01*
G01D02*
Y34259D01*
G01Y23712D02*
X264657D01*
G01X335260Y606555D02*
Y618572D01*
G01D02*
Y630589D01*
G01X328743Y618572D02*
X335260D01*
G01X338260Y623572D02*
Y630589D01*
G01Y623572D02*
X346777D01*
G01X335260Y664072D02*
Y679089D01*
G01X327743Y664072D02*
X335260D01*
G01D02*
X342777D01*
G01X418660Y623572D02*
Y630589D01*
G01X410143Y623572D02*
X418660D01*
G01X414143Y664072D02*
X421660D01*
G01Y606555D02*
Y618572D01*
G01D02*
Y630589D01*
G01Y618572D02*
X428177D01*
G01X421660Y664072D02*
Y679089D01*
G01Y664072D02*
X429177D01*
G01X497483Y421600D02*
X508000D01*
G01Y411083D02*
Y421600D01*
G01D02*
Y432117D01*
G01Y421600D02*
X518517D01*
G54D15*
X254110Y23712D03*
Y49112D03*
X279510Y23712D03*
Y49112D03*
X304910Y23712D03*
Y49112D03*
G54D25*
G01X117400Y516000D02*
X107100Y526300D01*
X79300D01*
X71100Y518100D01*
Y506100D01*
X48006Y483006D01*
Y327914D01*
X77000Y298920D01*
Y279600D01*
X64600Y267200D01*
X64400D01*
X55800Y258600D01*
Y222330D01*
X71374Y206756D01*
X75692D01*
G01X201500Y561200D02*
X118800D01*
X99700Y580300D01*
X82700D01*
X74700Y588300D01*
G01X359918Y539300D02*
Y536194D01*
X364683Y531429D01*
G54D16*
X335260Y618572D03*
X421660D03*
G54D26*
G01X55800Y36500D02*
X44374D01*
X42764Y34890D01*
X18196D01*
X7458Y45628D01*
Y415544D01*
X9707Y417793D01*
G01X242800Y564400D02*
X236700Y558300D01*
X224600D01*
X215700Y567200D01*
X123100D01*
X101400Y588900D01*
X96700D01*
X84400Y601200D01*
G54D17*
X338260Y623572D03*
X418660D03*
G54D18*
X335260Y664072D03*
X421660D03*
G54D19*
G01X114150Y549300D02*
X94700D01*
X70900Y573100D01*
Y576500D01*
G01X114150Y549300D02*
X206300D01*
X225700Y529900D01*
X344460Y632072D03*
X412460D03*
M02*
